M48
; DRILL file {KiCad (5.1.4)-1} date 1/24/2022 4:56:53 PM
; FORMAT={-:-/ absolute / inch / decimal}
; #@! TF.CreationDate,2022-01-24T16:56:53-05:00
; #@! TF.GenerationSoftware,Kicad,Pcbnew,(5.1.4)-1
; #@! TF.FileFunction,NonPlated,1,2,NPTH
FMAT,2
INCH
T1C0.0197
T2C0.0433
T3C0.0591
T4C0.0689
T5C0.1570
%
G90
G05
T2
X6.6331Y-1.919
X6.83Y-1.919
T5
X3.4025Y-2.5325
X3.4025Y-3.2825
X6.4025Y-4.22
X5.6525Y-4.47
X4.9025Y-3.1575
X4.9025Y-2.4075
X3.4025Y-4.0325
X7.1525Y-2.5325
X4.1525Y-2.6575
X4.9025Y-3.9075
X6.4025Y-3.47
X7.1315Y-5.2888
X7.1524Y-4.0338
X4.1525Y-4.1575
X4.9025Y-4.6575
X5.6525Y-2.97
X6.4025Y-2.72
X4.1525Y-3.4075
X5.6525Y-2.22
X7.1525Y-3.2825
X5.6525Y-3.72
X6.39Y-5.0888
T1
G00X3.3114Y-2.4973
M15
G01X3.3114Y-2.639
M16
G05
G00X3.3271Y-2.4973
M15
G01X3.3271Y-2.639
M16
G05
G00X3.3114Y-2.4973
M15
G01X3.4925Y-2.4973
M16
G05
G00X3.3114Y-2.639
M15
G01X3.4925Y-2.639
M16
G05
G00X3.4769Y-2.4972
M15
G01X3.4769Y-2.639
M16
G05
G00X3.4925Y-2.4973
M15
G01X3.4925Y-2.639
M16
G05
G00X3.3114Y-3.2473
M15
G01X3.3114Y-3.389
M16
G05
G00X3.3271Y-3.2473
M15
G01X3.3271Y-3.389
M16
G05
G00X3.3114Y-3.2473
M15
G01X3.4925Y-3.2473
M16
G05
G00X3.3114Y-3.389
M15
G01X3.4925Y-3.389
M16
G05
G00X3.4769Y-3.2472
M15
G01X3.4769Y-3.389
M16
G05
G00X3.4925Y-3.2473
M15
G01X3.4925Y-3.389
M16
G05
G00X6.3114Y-4.1848
M15
G01X6.3114Y-4.3265
M16
G05
G00X6.3271Y-4.1848
M15
G01X6.3271Y-4.3265
M16
G05
G00X6.3114Y-4.1848
M15
G01X6.4925Y-4.1848
M16
G05
G00X6.3114Y-4.3265
M15
G01X6.4925Y-4.3265
M16
G05
G00X6.4769Y-4.1847
M15
G01X6.4769Y-4.3265
M16
G05
G00X6.4925Y-4.1848
M15
G01X6.4925Y-4.3265
M16
G05
G00X5.5614Y-4.4348
M15
G01X5.5614Y-4.5765
M16
G05
G00X5.5771Y-4.4348
M15
G01X5.5771Y-4.5765
M16
G05
G00X5.5614Y-4.4348
M15
G01X5.7425Y-4.4348
M16
G05
G00X5.5614Y-4.5765
M15
G01X5.7425Y-4.5765
M16
G05
G00X5.7269Y-4.4347
M15
G01X5.7269Y-4.5765
M16
G05
G00X5.7425Y-4.4348
M15
G01X5.7425Y-4.5765
M16
G05
G00X4.8114Y-3.1223
M15
G01X4.8114Y-3.264
M16
G05
G00X4.8271Y-3.1223
M15
G01X4.8271Y-3.264
M16
G05
G00X4.8114Y-3.1223
M15
G01X4.9925Y-3.1223
M16
G05
G00X4.8114Y-3.264
M15
G01X4.9925Y-3.264
M16
G05
G00X4.9769Y-3.1222
M15
G01X4.9769Y-3.264
M16
G05
G00X4.9925Y-3.1223
M15
G01X4.9925Y-3.264
M16
G05
G00X4.8114Y-2.3723
M15
G01X4.8114Y-2.514
M16
G05
G00X4.8271Y-2.3723
M15
G01X4.8271Y-2.514
M16
G05
G00X4.8114Y-2.3723
M15
G01X4.9925Y-2.3723
M16
G05
G00X4.8114Y-2.514
M15
G01X4.9925Y-2.514
M16
G05
G00X4.9769Y-2.3722
M15
G01X4.9769Y-2.514
M16
G05
G00X4.9925Y-2.3723
M15
G01X4.9925Y-2.514
M16
G05
G00X3.3114Y-3.9973
M15
G01X3.3114Y-4.139
M16
G05
G00X3.3271Y-3.9973
M15
G01X3.3271Y-4.139
M16
G05
G00X3.3114Y-3.9973
M15
G01X3.4925Y-3.9973
M16
G05
G00X3.3114Y-4.139
M15
G01X3.4925Y-4.139
M16
G05
G00X3.4769Y-3.9972
M15
G01X3.4769Y-4.139
M16
G05
G00X3.4925Y-3.9973
M15
G01X3.4925Y-4.139
M16
G05
G00X7.0614Y-2.4973
M15
G01X7.0614Y-2.639
M16
G05
G00X7.0771Y-2.4973
M15
G01X7.0771Y-2.639
M16
G05
G00X7.0614Y-2.4973
M15
G01X7.2425Y-2.4973
M16
G05
G00X7.0614Y-2.639
M15
G01X7.2425Y-2.639
M16
G05
G00X7.2269Y-2.4972
M15
G01X7.2269Y-2.639
M16
G05
G00X7.2425Y-2.4973
M15
G01X7.2425Y-2.639
M16
G05
G00X4.0614Y-2.6223
M15
G01X4.0614Y-2.764
M16
G05
G00X4.0771Y-2.6223
M15
G01X4.0771Y-2.764
M16
G05
G00X4.0614Y-2.6223
M15
G01X4.2425Y-2.6223
M16
G05
G00X4.0614Y-2.764
M15
G01X4.2425Y-2.764
M16
G05
G00X4.2269Y-2.6222
M15
G01X4.2269Y-2.764
M16
G05
G00X4.2425Y-2.6223
M15
G01X4.2425Y-2.764
M16
G05
G00X4.8114Y-3.8723
M15
G01X4.8114Y-4.014
M16
G05
G00X4.8271Y-3.8723
M15
G01X4.8271Y-4.014
M16
G05
G00X4.8114Y-3.8723
M15
G01X4.9925Y-3.8723
M16
G05
G00X4.8114Y-4.014
M15
G01X4.9925Y-4.014
M16
G05
G00X4.9769Y-3.8722
M15
G01X4.9769Y-4.014
M16
G05
G00X4.9925Y-3.8723
M15
G01X4.9925Y-4.014
M16
G05
G00X6.3114Y-3.4348
M15
G01X6.3114Y-3.5765
M16
G05
G00X6.3271Y-3.4348
M15
G01X6.3271Y-3.5765
M16
G05
G00X6.3114Y-3.4348
M15
G01X6.4925Y-3.4348
M16
G05
G00X6.3114Y-3.5765
M15
G01X6.4925Y-3.5765
M16
G05
G00X6.4769Y-3.4347
M15
G01X6.4769Y-3.5765
M16
G05
G00X6.4925Y-3.4348
M15
G01X6.4925Y-3.5765
M16
G05
G00X7.0355Y-5.2995
M15
G01X7.0722Y-5.1626
M16
G05
G00X7.0505Y-5.3036
M15
G01X7.0872Y-5.1667
M16
G05
G00X7.2104Y-5.3464
M15
G01X7.0355Y-5.2995
M16
G05
G00X7.2471Y-5.2095
M15
G01X7.0722Y-5.1626
M16
G05
G00X7.1952Y-5.3423
M15
G01X7.2319Y-5.2054
M16
G05
G00X7.2104Y-5.3464
M15
G01X7.2471Y-5.2095
M16
G05
G00X7.0612Y-3.9986
M15
G01X7.0612Y-4.1403
M16
G05
G00X7.077Y-3.9986
M15
G01X7.077Y-4.1403
M16
G05
G00X7.0612Y-3.9986
M15
G01X7.2423Y-3.9986
M16
G05
G00X7.0612Y-4.1403
M15
G01X7.2423Y-4.1403
M16
G05
G00X7.2268Y-3.9986
M15
G01X7.2268Y-4.1403
M16
G05
G00X7.2423Y-3.9986
M15
G01X7.2423Y-4.1403
M16
G05
G00X4.0614Y-4.1223
M15
G01X4.0614Y-4.264
M16
G05
G00X4.0771Y-4.1223
M15
G01X4.0771Y-4.264
M16
G05
G00X4.0614Y-4.1223
M15
G01X4.2425Y-4.1223
M16
G05
G00X4.0614Y-4.264
M15
G01X4.2425Y-4.264
M16
G05
G00X4.2269Y-4.1222
M15
G01X4.2269Y-4.264
M16
G05
G00X4.2425Y-4.1223
M15
G01X4.2425Y-4.264
M16
G05
G00X4.8114Y-4.6223
M15
G01X4.8114Y-4.764
M16
G05
G00X4.8271Y-4.6223
M15
G01X4.8271Y-4.764
M16
G05
G00X4.8114Y-4.6223
M15
G01X4.9925Y-4.6223
M16
G05
G00X4.8114Y-4.764
M15
G01X4.9925Y-4.764
M16
G05
G00X4.9769Y-4.6222
M15
G01X4.9769Y-4.764
M16
G05
G00X4.9925Y-4.6223
M15
G01X4.9925Y-4.764
M16
G05
G00X5.5614Y-2.9348
M15
G01X5.5614Y-3.0765
M16
G05
G00X5.5771Y-2.9348
M15
G01X5.5771Y-3.0765
M16
G05
G00X5.5614Y-2.9348
M15
G01X5.7425Y-2.9348
M16
G05
G00X5.5614Y-3.0765
M15
G01X5.7425Y-3.0765
M16
G05
G00X5.7269Y-2.9347
M15
G01X5.7269Y-3.0765
M16
G05
G00X5.7425Y-2.9348
M15
G01X5.7425Y-3.0765
M16
G05
G00X6.3114Y-2.6848
M15
G01X6.3114Y-2.8265
M16
G05
G00X6.3271Y-2.6848
M15
G01X6.3271Y-2.8265
M16
G05
G00X6.3114Y-2.6848
M15
G01X6.4925Y-2.6848
M16
G05
G00X6.3114Y-2.8265
M15
G01X6.4925Y-2.8265
M16
G05
G00X6.4769Y-2.6847
M15
G01X6.4769Y-2.8265
M16
G05
G00X6.4925Y-2.6848
M15
G01X6.4925Y-2.8265
M16
G05
G00X4.0614Y-3.3723
M15
G01X4.0614Y-3.514
M16
G05
G00X4.0771Y-3.3723
M15
G01X4.0771Y-3.514
M16
G05
G00X4.0614Y-3.3723
M15
G01X4.2425Y-3.3723
M16
G05
G00X4.0614Y-3.514
M15
G01X4.2425Y-3.514
M16
G05
G00X4.2269Y-3.3722
M15
G01X4.2269Y-3.514
M16
G05
G00X4.2425Y-3.3723
M15
G01X4.2425Y-3.514
M16
G05
G00X5.5614Y-2.1848
M15
G01X5.5614Y-2.3265
M16
G05
G00X5.5771Y-2.1848
M15
G01X5.5771Y-2.3265
M16
G05
G00X5.5614Y-2.1848
M15
G01X5.7425Y-2.1848
M16
G05
G00X5.5614Y-2.3265
M15
G01X5.7425Y-2.3265
M16
G05
G00X5.7269Y-2.1847
M15
G01X5.7269Y-2.3265
M16
G05
G00X5.7425Y-2.1848
M15
G01X5.7425Y-2.3265
M16
G05
G00X7.0614Y-3.2473
M15
G01X7.0614Y-3.389
M16
G05
G00X7.0771Y-3.2473
M15
G01X7.0771Y-3.389
M16
G05
G00X7.0614Y-3.2473
M15
G01X7.2425Y-3.2473
M16
G05
G00X7.0614Y-3.389
M15
G01X7.2425Y-3.389
M16
G05
G00X7.2269Y-3.2472
M15
G01X7.2269Y-3.389
M16
G05
G00X7.2425Y-3.2473
M15
G01X7.2425Y-3.389
M16
G05
G00X5.5614Y-3.6848
M15
G01X5.5614Y-3.8265
M16
G05
G00X5.5771Y-3.6848
M15
G01X5.5771Y-3.8265
M16
G05
G00X5.5614Y-3.6848
M15
G01X5.7425Y-3.6848
M16
G05
G00X5.5614Y-3.8265
M15
G01X5.7425Y-3.8265
M16
G05
G00X5.7269Y-3.6847
M15
G01X5.7269Y-3.8265
M16
G05
G00X5.7425Y-3.6848
M15
G01X5.7425Y-3.8265
M16
G05
G00X6.294Y-5.0995
M15
G01X6.3307Y-4.9626
M16
G05
G00X6.309Y-5.1036
M15
G01X6.3457Y-4.9667
M16
G05
G00X6.4689Y-5.1464
M15
G01X6.294Y-5.0995
M16
G05
G00X6.5056Y-5.0095
M15
G01X6.3307Y-4.9626
M16
G05
G00X6.4537Y-5.1423
M15
G01X6.4904Y-5.0054
M16
G05
G00X6.4689Y-5.1464
M15
G01X6.5056Y-5.0095
M16
G05
T3
G00X7.081Y-2.6036
M15
G01X7.2228Y-2.6036
M16
G05
G00X4.081Y-2.7286
M15
G01X4.2228Y-2.7286
M16
G05
G00X4.831Y-3.9786
M15
G01X4.9728Y-3.9786
M16
G05
G00X6.331Y-3.5411
M15
G01X6.4728Y-3.5411
M16
G05
G00X7.2189Y-5.2386
M15
G01X7.082Y-5.202
M16
G05
G00X7.0809Y-4.1049
M15
G01X7.2227Y-4.1049
M16
G05
G00X4.081Y-4.2286
M15
G01X4.2228Y-4.2286
M16
G05
G00X4.831Y-4.7286
M15
G01X4.9728Y-4.7286
M16
G05
G00X5.581Y-3.0411
M15
G01X5.7228Y-3.0411
M16
G05
G00X6.331Y-2.7911
M15
G01X6.4728Y-2.7911
M16
G05
G00X4.081Y-3.4786
M15
G01X4.2228Y-3.4786
M16
G05
G00X5.581Y-2.2911
M15
G01X5.7228Y-2.2911
M16
G05
G00X7.081Y-3.3536
M15
G01X7.2228Y-3.3536
M16
G05
G00X5.581Y-3.7911
M15
G01X5.7228Y-3.7911
M16
G05
G00X6.4774Y-5.0386
M15
G01X6.3405Y-5.002
M16
G05
G00X3.331Y-2.6036
M15
G01X3.4728Y-2.6036
M16
G05
G00X3.331Y-3.3536
M15
G01X3.4728Y-3.3536
M16
G05
G00X6.331Y-4.2911
M15
G01X6.4728Y-4.2911
M16
G05
G00X5.581Y-4.5411
M15
G01X5.7228Y-4.5411
M16
G05
G00X4.831Y-3.2286
M15
G01X4.9728Y-3.2286
M16
G05
G00X4.831Y-2.4786
M15
G01X4.9728Y-2.4786
M16
G05
G00X3.331Y-4.1036
M15
G01X3.4728Y-4.1036
M16
G05
T4
G00X3.9365Y-2.6575
M15
G01X3.9532Y-2.6575
M16
G05
G00X4.3518Y-2.6575
M15
G01X4.3685Y-2.6575
M16
G05
G00X4.6865Y-3.9075
M15
G01X4.7032Y-3.9075
M16
G05
G00X5.1018Y-3.9075
M15
G01X5.1185Y-3.9075
M16
G05
G00X6.1865Y-3.47
M15
G01X6.2032Y-3.47
M16
G05
G00X6.6018Y-3.47
M15
G01X6.6185Y-3.47
M16
G05
G00X6.939Y-5.2372
M15
G01X6.9228Y-5.2329
M16
G05
G00X7.3402Y-5.3447
M15
G01X7.324Y-5.3404
M16
G05
G00X6.9363Y-4.0338
M15
G01X6.9531Y-4.0338
M16
G05
G00X7.3517Y-4.0338
M15
G01X7.3684Y-4.0338
M16
G05
G00X3.9365Y-4.1575
M15
G01X3.9532Y-4.1575
M16
G05
G00X4.3518Y-4.1575
M15
G01X4.3685Y-4.1575
M16
G05
G00X4.6865Y-4.6575
M15
G01X4.7032Y-4.6575
M16
G05
G00X5.1018Y-4.6575
M15
G01X5.1185Y-4.6575
M16
G05
G00X5.4365Y-2.97
M15
G01X5.4532Y-2.97
M16
G05
G00X5.8518Y-2.97
M15
G01X5.8685Y-2.97
M16
G05
G00X6.1865Y-2.72
M15
G01X6.2032Y-2.72
M16
G05
G00X6.6018Y-2.72
M15
G01X6.6185Y-2.72
M16
G05
G00X3.9365Y-3.4075
M15
G01X3.9532Y-3.4075
M16
G05
G00X4.3518Y-3.4075
M15
G01X4.3685Y-3.4075
M16
G05
G00X5.4365Y-2.22
M15
G01X5.4532Y-2.22
M16
G05
G00X5.8518Y-2.22
M15
G01X5.8685Y-2.22
M16
G05
G00X6.9365Y-3.2825
M15
G01X6.9532Y-3.2825
M16
G05
G00X7.3518Y-3.2825
M15
G01X7.3685Y-3.2825
M16
G05
G00X5.4365Y-3.72
M15
G01X5.4532Y-3.72
M16
G05
G00X5.8518Y-3.72
M15
G01X5.8685Y-3.72
M16
G05
G00X6.1975Y-5.0372
M15
G01X6.1813Y-5.0329
M16
G05
G00X6.5987Y-5.1447
M15
G01X6.5825Y-5.1404
M16
G05
G00X3.1865Y-2.5325
M15
G01X3.2032Y-2.5325
M16
G05
G00X3.6018Y-2.5325
M15
G01X3.6185Y-2.5325
M16
G05
G00X3.1865Y-3.2825
M15
G01X3.2032Y-3.2825
M16
G05
G00X3.6018Y-3.2825
M15
G01X3.6185Y-3.2825
M16
G05
G00X6.1865Y-4.22
M15
G01X6.2032Y-4.22
M16
G05
G00X6.6018Y-4.22
M15
G01X6.6185Y-4.22
M16
G05
G00X5.4365Y-4.47
M15
G01X5.4532Y-4.47
M16
G05
G00X5.8518Y-4.47
M15
G01X5.8685Y-4.47
M16
G05
G00X4.6865Y-3.1575
M15
G01X4.7032Y-3.1575
M16
G05
G00X5.1018Y-3.1575
M15
G01X5.1185Y-3.1575
M16
G05
G00X4.6865Y-2.4075
M15
G01X4.7032Y-2.4075
M16
G05
G00X5.1018Y-2.4075
M15
G01X5.1185Y-2.4075
M16
G05
G00X3.1865Y-4.0325
M15
G01X3.2032Y-4.0325
M16
G05
G00X3.6018Y-4.0325
M15
G01X3.6185Y-4.0325
M16
G05
G00X6.9365Y-2.5325
M15
G01X6.9532Y-2.5325
M16
G05
G00X7.3518Y-2.5325
M15
G01X7.3685Y-2.5325
M16
G05
T0
M30
