M48
; DRILL file {KiCad (5.1.4)-1} date 1/24/2022 4:56:53 PM
; FORMAT={-:-/ absolute / inch / decimal}
; #@! TF.CreationDate,2022-01-24T16:56:53-05:00
; #@! TF.GenerationSoftware,Kicad,Pcbnew,(5.1.4)-1
; #@! TF.FileFunction,Plated,1,2,PTH
FMAT,2
INCH
T1C0.0157
T2C0.0276
T3C0.0394
T4C0.0433
T5C0.0472
T6C0.0630
%
G90
G05
T1
X4.28Y-2.32
X4.36Y-2.42
X5.26Y-4.79
X5.86Y-4.75
X5.92Y-4.67
X6.0114Y-4.13
X6.02Y-3.95
X6.02Y-4.77
X6.0679Y-4.6821
X6.07Y-3.95
X6.1907Y-2.0893
X6.22Y-2.14
X6.26Y-4.87
X6.31Y-2.14
X6.42Y-2.13
X6.58Y-4.79
X6.5802Y-4.6098
X6.5802Y-4.6098
X6.67Y-5.22
X6.7Y-5.14
X6.75Y-4.79
X6.755Y-5.035
X6.76Y-2.23
X6.8035Y-2.88
X6.8098Y-4.1602
X6.81Y-4.29
X6.8137Y-4.2163
X6.8321Y-3.95
X6.86Y-4.17
X6.95Y-4.69
X6.9724Y-4.9907
X6.99Y-4.9555
X7.015Y-5.0265
X7.09Y-4.9269
X7.09Y-4.9269
X7.2Y-4.64
X7.2Y-4.69
X7.26Y-4.29
X7.26Y-4.88
X7.29Y-5.01
X7.2975Y-2.7626
X7.3048Y-4.8648
X7.31Y-2.81
X7.31Y-4.4
X7.33Y-2.21
X7.34Y-4.43
X7.37Y-2.24
X7.37Y-4.46
X7.43Y-3.65
T3
X6.5402Y-5.4624
X6.6368Y-5.4882
X6.7334Y-5.5141
X6.83Y-5.54
X7.4024Y-5.5398
X7.4282Y-5.4432
X7.4541Y-5.3466
X7.48Y-5.25
X6.0324Y-5.1698
X6.0582Y-5.0732
X6.0841Y-4.9766
X6.11Y-4.88
T4
X6.5411Y-5.0465
X3.2675Y-2.6125
X3.2675Y-3.3625
X6.2675Y-4.3
X5.5175Y-4.55
X4.7675Y-3.2375
X4.7675Y-2.4875
X3.2675Y-4.1125
X7.0175Y-2.6125
X4.0175Y-2.7375
X4.7675Y-3.9875
X6.2675Y-3.55
X7.2826Y-5.2464
X7.0174Y-4.1138
X4.0175Y-4.2375
X4.7675Y-4.7375
X5.5175Y-3.05
X6.2675Y-2.8
X4.0175Y-3.4875
X6.5111Y-1.982
X6.6331Y-1.7772
X6.83Y-1.7418
X6.83Y-2.108
X5.5175Y-2.3
X7.0175Y-3.3625
X5.5175Y-3.8
T5
X4.9025Y-3.6752
X5.0994Y-3.7579
X6.4025Y-3.2377
X6.5994Y-3.3204
X6.9027Y-5.3823
X7.0714Y-5.5131
X7.1524Y-3.8016
X7.3492Y-3.8842
X4.1525Y-3.9252
X4.3494Y-4.0079
X4.9025Y-4.4252
X5.0994Y-4.5079
X5.6525Y-2.7377
X5.8494Y-2.8204
X6.4025Y-2.4877
X6.5994Y-2.5704
X4.1525Y-3.1752
X4.3494Y-3.2579
X5.6525Y-1.9877
X5.8494Y-2.0704
X7.1525Y-3.0502
X7.3494Y-3.1329
X5.6525Y-3.4877
X5.8494Y-3.5704
X6.1611Y-5.1824
X6.3299Y-5.3132
X3.4025Y-2.3002
X3.5994Y-2.3829
X3.4025Y-3.0502
X3.5994Y-3.1329
X6.4025Y-3.9877
X6.5994Y-4.0704
X5.6525Y-4.2377
X5.8494Y-4.3204
X4.9025Y-2.9252
X5.0994Y-3.0079
X4.9025Y-2.1752
X5.0994Y-2.2579
X3.4025Y-3.8002
X3.5994Y-3.8829
X7.1525Y-2.3002
X7.3494Y-2.3829
X4.1525Y-2.4252
X4.3494Y-2.5079
T2
G00X6.11Y-1.8064
M15
G01X6.11Y-1.8536
M16
G05
G00X6.11Y-1.9835
M15
G01X6.11Y-2.0308
M16
G05
G00X6.3974Y-1.8064
M15
G01X6.3974Y-1.8536
M16
G05
G00X6.3974Y-1.9835
M15
G01X6.3974Y-2.0308
M16
G05
T6
G00X6.2471Y-5.2401
M15
G01X6.242Y-5.255
M16
G05
G00X6.5045Y-5.2272
M15
G01X6.4484Y-5.2637
M16
G05
G00X3.2561Y-2.4285
M15
G01X3.3008Y-2.3787
M16
G05
G00X3.5014Y-2.3494
M15
G01X3.5024Y-2.3337
M16
G05
G00X3.2561Y-3.1785
M15
G01X3.3008Y-3.1287
M16
G05
G00X3.5014Y-3.0994
M15
G01X3.5024Y-3.0837
M16
G05
G00X6.2561Y-4.116
M15
G01X6.3008Y-4.0662
M16
G05
G00X6.5014Y-4.0369
M15
G01X6.5024Y-4.0212
M16
G05
G00X5.5061Y-4.366
M15
G01X5.5508Y-4.3162
M16
G05
G00X5.7514Y-4.2869
M15
G01X5.7524Y-4.2712
M16
G05
G00X4.7561Y-3.0535
M15
G01X4.8008Y-3.0037
M16
G05
G00X5.0014Y-2.9744
M15
G01X5.0024Y-2.9587
M16
G05
G00X4.7561Y-2.3035
M15
G01X4.8008Y-2.2537
M16
G05
G00X5.0014Y-2.2244
M15
G01X5.0024Y-2.2087
M16
G05
G00X3.2561Y-3.9285
M15
G01X3.3008Y-3.8787
M16
G05
G00X3.5014Y-3.8494
M15
G01X3.5024Y-3.8337
M16
G05
G00X7.0061Y-2.4285
M15
G01X7.0508Y-2.3787
M16
G05
G00X7.2514Y-2.3494
M15
G01X7.2524Y-2.3337
M16
G05
G00X4.0061Y-2.5535
M15
G01X4.0508Y-2.5037
M16
G05
G00X4.2514Y-2.4744
M15
G01X4.2524Y-2.4587
M16
G05
G00X4.7561Y-3.8035
M15
G01X4.8008Y-3.7537
M16
G05
G00X5.0014Y-3.7244
M15
G01X5.0024Y-3.7087
M16
G05
G00X6.2561Y-3.366
M15
G01X6.3008Y-3.3162
M16
G05
G00X6.5014Y-3.2869
M15
G01X6.5024Y-3.2712
M16
G05
G00X6.9886Y-5.44
M15
G01X6.9835Y-5.4549
M16
G05
G00X7.246Y-5.4271
M15
G01X7.1899Y-5.4637
M16
G05
G00X7.006Y-3.9298
M15
G01X7.0507Y-3.88
M16
G05
G00X7.2513Y-3.8508
M15
G01X7.2523Y-3.835
M16
G05
G00X4.0061Y-4.0535
M15
G01X4.0508Y-4.0037
M16
G05
G00X4.2514Y-3.9744
M15
G01X4.2524Y-3.9587
M16
G05
G00X4.7561Y-4.5535
M15
G01X4.8008Y-4.5037
M16
G05
G00X5.0014Y-4.4744
M15
G01X5.0024Y-4.4587
M16
G05
G00X5.5061Y-2.866
M15
G01X5.5508Y-2.8162
M16
G05
G00X5.7514Y-2.7869
M15
G01X5.7524Y-2.7712
M16
G05
G00X6.2561Y-2.616
M15
G01X6.3008Y-2.5662
M16
G05
G00X6.5014Y-2.5369
M15
G01X6.5024Y-2.5212
M16
G05
G00X4.0061Y-3.3035
M15
G01X4.0508Y-3.2537
M16
G05
G00X4.2514Y-3.2244
M15
G01X4.2524Y-3.2087
M16
G05
G00X5.5061Y-2.116
M15
G01X5.5508Y-2.0662
M16
G05
G00X5.7514Y-2.0369
M15
G01X5.7524Y-2.0212
M16
G05
G00X7.0061Y-3.1785
M15
G01X7.0508Y-3.1287
M16
G05
G00X7.2514Y-3.0994
M15
G01X7.2524Y-3.0837
M16
G05
G00X5.5061Y-3.616
M15
G01X5.5508Y-3.5662
M16
G05
G00X5.7514Y-3.5369
M15
G01X5.7524Y-3.5212
M16
G05
T0
M30
