G04 #@! TF.GenerationSoftware,KiCad,Pcbnew,(5.1.4)-1*
G04 #@! TF.CreationDate,2021-10-17T20:34:11-04:00*
G04 #@! TF.ProjectId,a44key-pcb,6134346b-6579-42d7-9063-622e6b696361,rev?*
G04 #@! TF.SameCoordinates,Original*
G04 #@! TF.FileFunction,Copper,L1,Top*
G04 #@! TF.FilePolarity,Positive*
%FSLAX46Y46*%
G04 Gerber Fmt 4.6, Leading zero omitted, Abs format (unit mm)*
G04 Created by KiCad (PCBNEW (5.1.4)-1) date 2021-10-17 20:34:11*
%MOMM*%
%LPD*%
G04 APERTURE LIST*
%ADD10C,2.250000*%
%ADD11C,2.250000*%
%ADD12C,0.100000*%
%ADD13C,0.975000*%
%ADD14R,1.100000X1.800000*%
%ADD15C,1.250000*%
%ADD16O,1.800000X2.800000*%
%ADD17O,2.700000X1.700000*%
%ADD18R,2.250000X0.500000*%
%ADD19C,0.800000*%
%ADD20C,0.254000*%
%ADD21C,0.381000*%
G04 APERTURE END LIST*
D10*
X187682500Y-104267500D03*
X187027501Y-104997500D03*
D11*
X186372500Y-105727500D02*
X187682502Y-104267500D01*
D10*
X192722500Y-103187500D03*
X192702500Y-103477500D03*
D11*
X192682500Y-103767500D02*
X192722500Y-103187500D01*
D10*
X111482500Y-109030000D03*
X110827501Y-109760000D03*
D11*
X110172500Y-110490000D02*
X111482502Y-109030000D01*
D10*
X116522500Y-107950000D03*
X116502500Y-108240000D03*
D11*
X116482500Y-108530000D02*
X116522500Y-107950000D01*
D10*
X130532500Y-115380000D03*
X129877501Y-116110000D03*
D11*
X129222500Y-116840000D02*
X130532502Y-115380000D01*
D10*
X135572500Y-114300000D03*
X135552500Y-114590000D03*
D11*
X135532500Y-114880000D02*
X135572500Y-114300000D01*
D10*
X91482409Y-134895844D03*
X91038666Y-135770497D03*
D11*
X90594922Y-136645149D02*
X91482410Y-134895845D01*
D10*
X96071151Y-132548196D03*
X96126890Y-132833491D03*
D11*
X96182629Y-133118786D02*
X96071151Y-132548196D01*
D10*
X92432500Y-104267500D03*
X91777501Y-104997500D03*
D11*
X91122500Y-105727500D02*
X92432502Y-104267500D01*
D10*
X97472500Y-103187500D03*
X97452500Y-103477500D03*
D11*
X97432500Y-103767500D02*
X97472500Y-103187500D01*
D10*
X149582500Y-120142500D03*
X148927501Y-120872500D03*
D11*
X148272500Y-121602500D02*
X149582502Y-120142500D01*
D10*
X154622500Y-119062500D03*
X154602500Y-119352500D03*
D11*
X154582500Y-119642500D02*
X154622500Y-119062500D01*
D10*
X110532409Y-132038344D03*
X110088666Y-132912997D03*
D11*
X109644922Y-133787649D02*
X110532410Y-132038345D01*
D10*
X115121151Y-129690696D03*
X115176890Y-129975991D03*
D11*
X115232629Y-130261286D02*
X115121151Y-129690696D01*
D10*
X149582500Y-101092500D03*
X148927501Y-101822500D03*
D11*
X148272500Y-102552500D02*
X149582502Y-101092500D01*
D10*
X154622500Y-100012500D03*
X154602500Y-100302500D03*
D11*
X154582500Y-100592500D02*
X154622500Y-100012500D01*
D10*
X168632500Y-107442500D03*
X167977501Y-108172500D03*
D11*
X167322500Y-108902500D02*
X168632502Y-107442500D01*
D10*
X173672500Y-106362500D03*
X173652500Y-106652500D03*
D11*
X173632500Y-106942500D02*
X173672500Y-106362500D01*
D12*
G36*
X81547642Y-88010674D02*
G01*
X81571303Y-88014184D01*
X81594507Y-88019996D01*
X81617029Y-88028054D01*
X81638653Y-88038282D01*
X81659170Y-88050579D01*
X81678383Y-88064829D01*
X81696107Y-88080893D01*
X81712171Y-88098617D01*
X81726421Y-88117830D01*
X81738718Y-88138347D01*
X81748946Y-88159971D01*
X81757004Y-88182493D01*
X81762816Y-88205697D01*
X81766326Y-88229358D01*
X81767500Y-88253250D01*
X81767500Y-89165750D01*
X81766326Y-89189642D01*
X81762816Y-89213303D01*
X81757004Y-89236507D01*
X81748946Y-89259029D01*
X81738718Y-89280653D01*
X81726421Y-89301170D01*
X81712171Y-89320383D01*
X81696107Y-89338107D01*
X81678383Y-89354171D01*
X81659170Y-89368421D01*
X81638653Y-89380718D01*
X81617029Y-89390946D01*
X81594507Y-89399004D01*
X81571303Y-89404816D01*
X81547642Y-89408326D01*
X81523750Y-89409500D01*
X81036250Y-89409500D01*
X81012358Y-89408326D01*
X80988697Y-89404816D01*
X80965493Y-89399004D01*
X80942971Y-89390946D01*
X80921347Y-89380718D01*
X80900830Y-89368421D01*
X80881617Y-89354171D01*
X80863893Y-89338107D01*
X80847829Y-89320383D01*
X80833579Y-89301170D01*
X80821282Y-89280653D01*
X80811054Y-89259029D01*
X80802996Y-89236507D01*
X80797184Y-89213303D01*
X80793674Y-89189642D01*
X80792500Y-89165750D01*
X80792500Y-88253250D01*
X80793674Y-88229358D01*
X80797184Y-88205697D01*
X80802996Y-88182493D01*
X80811054Y-88159971D01*
X80821282Y-88138347D01*
X80833579Y-88117830D01*
X80847829Y-88098617D01*
X80863893Y-88080893D01*
X80881617Y-88064829D01*
X80900830Y-88050579D01*
X80921347Y-88038282D01*
X80942971Y-88028054D01*
X80965493Y-88019996D01*
X80988697Y-88014184D01*
X81012358Y-88010674D01*
X81036250Y-88009500D01*
X81523750Y-88009500D01*
X81547642Y-88010674D01*
X81547642Y-88010674D01*
G37*
D13*
X81280000Y-88709500D03*
D12*
G36*
X79672642Y-88010674D02*
G01*
X79696303Y-88014184D01*
X79719507Y-88019996D01*
X79742029Y-88028054D01*
X79763653Y-88038282D01*
X79784170Y-88050579D01*
X79803383Y-88064829D01*
X79821107Y-88080893D01*
X79837171Y-88098617D01*
X79851421Y-88117830D01*
X79863718Y-88138347D01*
X79873946Y-88159971D01*
X79882004Y-88182493D01*
X79887816Y-88205697D01*
X79891326Y-88229358D01*
X79892500Y-88253250D01*
X79892500Y-89165750D01*
X79891326Y-89189642D01*
X79887816Y-89213303D01*
X79882004Y-89236507D01*
X79873946Y-89259029D01*
X79863718Y-89280653D01*
X79851421Y-89301170D01*
X79837171Y-89320383D01*
X79821107Y-89338107D01*
X79803383Y-89354171D01*
X79784170Y-89368421D01*
X79763653Y-89380718D01*
X79742029Y-89390946D01*
X79719507Y-89399004D01*
X79696303Y-89404816D01*
X79672642Y-89408326D01*
X79648750Y-89409500D01*
X79161250Y-89409500D01*
X79137358Y-89408326D01*
X79113697Y-89404816D01*
X79090493Y-89399004D01*
X79067971Y-89390946D01*
X79046347Y-89380718D01*
X79025830Y-89368421D01*
X79006617Y-89354171D01*
X78988893Y-89338107D01*
X78972829Y-89320383D01*
X78958579Y-89301170D01*
X78946282Y-89280653D01*
X78936054Y-89259029D01*
X78927996Y-89236507D01*
X78922184Y-89213303D01*
X78918674Y-89189642D01*
X78917500Y-89165750D01*
X78917500Y-88253250D01*
X78918674Y-88229358D01*
X78922184Y-88205697D01*
X78927996Y-88182493D01*
X78936054Y-88159971D01*
X78946282Y-88138347D01*
X78958579Y-88117830D01*
X78972829Y-88098617D01*
X78988893Y-88080893D01*
X79006617Y-88064829D01*
X79025830Y-88050579D01*
X79046347Y-88038282D01*
X79067971Y-88028054D01*
X79090493Y-88019996D01*
X79113697Y-88014184D01*
X79137358Y-88010674D01*
X79161250Y-88009500D01*
X79648750Y-88009500D01*
X79672642Y-88010674D01*
X79672642Y-88010674D01*
G37*
D13*
X79405000Y-88709500D03*
D12*
G36*
X81420642Y-85089674D02*
G01*
X81444303Y-85093184D01*
X81467507Y-85098996D01*
X81490029Y-85107054D01*
X81511653Y-85117282D01*
X81532170Y-85129579D01*
X81551383Y-85143829D01*
X81569107Y-85159893D01*
X81585171Y-85177617D01*
X81599421Y-85196830D01*
X81611718Y-85217347D01*
X81621946Y-85238971D01*
X81630004Y-85261493D01*
X81635816Y-85284697D01*
X81639326Y-85308358D01*
X81640500Y-85332250D01*
X81640500Y-86244750D01*
X81639326Y-86268642D01*
X81635816Y-86292303D01*
X81630004Y-86315507D01*
X81621946Y-86338029D01*
X81611718Y-86359653D01*
X81599421Y-86380170D01*
X81585171Y-86399383D01*
X81569107Y-86417107D01*
X81551383Y-86433171D01*
X81532170Y-86447421D01*
X81511653Y-86459718D01*
X81490029Y-86469946D01*
X81467507Y-86478004D01*
X81444303Y-86483816D01*
X81420642Y-86487326D01*
X81396750Y-86488500D01*
X80909250Y-86488500D01*
X80885358Y-86487326D01*
X80861697Y-86483816D01*
X80838493Y-86478004D01*
X80815971Y-86469946D01*
X80794347Y-86459718D01*
X80773830Y-86447421D01*
X80754617Y-86433171D01*
X80736893Y-86417107D01*
X80720829Y-86399383D01*
X80706579Y-86380170D01*
X80694282Y-86359653D01*
X80684054Y-86338029D01*
X80675996Y-86315507D01*
X80670184Y-86292303D01*
X80666674Y-86268642D01*
X80665500Y-86244750D01*
X80665500Y-85332250D01*
X80666674Y-85308358D01*
X80670184Y-85284697D01*
X80675996Y-85261493D01*
X80684054Y-85238971D01*
X80694282Y-85217347D01*
X80706579Y-85196830D01*
X80720829Y-85177617D01*
X80736893Y-85159893D01*
X80754617Y-85143829D01*
X80773830Y-85129579D01*
X80794347Y-85117282D01*
X80815971Y-85107054D01*
X80838493Y-85098996D01*
X80861697Y-85093184D01*
X80885358Y-85089674D01*
X80909250Y-85088500D01*
X81396750Y-85088500D01*
X81420642Y-85089674D01*
X81420642Y-85089674D01*
G37*
D13*
X81153000Y-85788500D03*
D12*
G36*
X79545642Y-85089674D02*
G01*
X79569303Y-85093184D01*
X79592507Y-85098996D01*
X79615029Y-85107054D01*
X79636653Y-85117282D01*
X79657170Y-85129579D01*
X79676383Y-85143829D01*
X79694107Y-85159893D01*
X79710171Y-85177617D01*
X79724421Y-85196830D01*
X79736718Y-85217347D01*
X79746946Y-85238971D01*
X79755004Y-85261493D01*
X79760816Y-85284697D01*
X79764326Y-85308358D01*
X79765500Y-85332250D01*
X79765500Y-86244750D01*
X79764326Y-86268642D01*
X79760816Y-86292303D01*
X79755004Y-86315507D01*
X79746946Y-86338029D01*
X79736718Y-86359653D01*
X79724421Y-86380170D01*
X79710171Y-86399383D01*
X79694107Y-86417107D01*
X79676383Y-86433171D01*
X79657170Y-86447421D01*
X79636653Y-86459718D01*
X79615029Y-86469946D01*
X79592507Y-86478004D01*
X79569303Y-86483816D01*
X79545642Y-86487326D01*
X79521750Y-86488500D01*
X79034250Y-86488500D01*
X79010358Y-86487326D01*
X78986697Y-86483816D01*
X78963493Y-86478004D01*
X78940971Y-86469946D01*
X78919347Y-86459718D01*
X78898830Y-86447421D01*
X78879617Y-86433171D01*
X78861893Y-86417107D01*
X78845829Y-86399383D01*
X78831579Y-86380170D01*
X78819282Y-86359653D01*
X78809054Y-86338029D01*
X78800996Y-86315507D01*
X78795184Y-86292303D01*
X78791674Y-86268642D01*
X78790500Y-86244750D01*
X78790500Y-85332250D01*
X78791674Y-85308358D01*
X78795184Y-85284697D01*
X78800996Y-85261493D01*
X78809054Y-85238971D01*
X78819282Y-85217347D01*
X78831579Y-85196830D01*
X78845829Y-85177617D01*
X78861893Y-85159893D01*
X78879617Y-85143829D01*
X78898830Y-85129579D01*
X78919347Y-85117282D01*
X78940971Y-85107054D01*
X78963493Y-85098996D01*
X78986697Y-85093184D01*
X79010358Y-85089674D01*
X79034250Y-85088500D01*
X79521750Y-85088500D01*
X79545642Y-85089674D01*
X79545642Y-85089674D01*
G37*
D13*
X79278000Y-85788500D03*
D14*
X82059000Y-99354500D03*
X78359000Y-93154500D03*
X78359000Y-99354500D03*
X82059000Y-93154500D03*
D12*
G36*
X82441504Y-64404204D02*
G01*
X82465773Y-64407804D01*
X82489571Y-64413765D01*
X82512671Y-64422030D01*
X82534849Y-64432520D01*
X82555893Y-64445133D01*
X82575598Y-64459747D01*
X82593777Y-64476223D01*
X82610253Y-64494402D01*
X82624867Y-64514107D01*
X82637480Y-64535151D01*
X82647970Y-64557329D01*
X82656235Y-64580429D01*
X82662196Y-64604227D01*
X82665796Y-64628496D01*
X82667000Y-64653000D01*
X82667000Y-65903000D01*
X82665796Y-65927504D01*
X82662196Y-65951773D01*
X82656235Y-65975571D01*
X82647970Y-65998671D01*
X82637480Y-66020849D01*
X82624867Y-66041893D01*
X82610253Y-66061598D01*
X82593777Y-66079777D01*
X82575598Y-66096253D01*
X82555893Y-66110867D01*
X82534849Y-66123480D01*
X82512671Y-66133970D01*
X82489571Y-66142235D01*
X82465773Y-66148196D01*
X82441504Y-66151796D01*
X82417000Y-66153000D01*
X81667000Y-66153000D01*
X81642496Y-66151796D01*
X81618227Y-66148196D01*
X81594429Y-66142235D01*
X81571329Y-66133970D01*
X81549151Y-66123480D01*
X81528107Y-66110867D01*
X81508402Y-66096253D01*
X81490223Y-66079777D01*
X81473747Y-66061598D01*
X81459133Y-66041893D01*
X81446520Y-66020849D01*
X81436030Y-65998671D01*
X81427765Y-65975571D01*
X81421804Y-65951773D01*
X81418204Y-65927504D01*
X81417000Y-65903000D01*
X81417000Y-64653000D01*
X81418204Y-64628496D01*
X81421804Y-64604227D01*
X81427765Y-64580429D01*
X81436030Y-64557329D01*
X81446520Y-64535151D01*
X81459133Y-64514107D01*
X81473747Y-64494402D01*
X81490223Y-64476223D01*
X81508402Y-64459747D01*
X81528107Y-64445133D01*
X81549151Y-64432520D01*
X81571329Y-64422030D01*
X81594429Y-64413765D01*
X81618227Y-64407804D01*
X81642496Y-64404204D01*
X81667000Y-64403000D01*
X82417000Y-64403000D01*
X82441504Y-64404204D01*
X82441504Y-64404204D01*
G37*
D15*
X82042000Y-65278000D03*
D12*
G36*
X79641504Y-64404204D02*
G01*
X79665773Y-64407804D01*
X79689571Y-64413765D01*
X79712671Y-64422030D01*
X79734849Y-64432520D01*
X79755893Y-64445133D01*
X79775598Y-64459747D01*
X79793777Y-64476223D01*
X79810253Y-64494402D01*
X79824867Y-64514107D01*
X79837480Y-64535151D01*
X79847970Y-64557329D01*
X79856235Y-64580429D01*
X79862196Y-64604227D01*
X79865796Y-64628496D01*
X79867000Y-64653000D01*
X79867000Y-65903000D01*
X79865796Y-65927504D01*
X79862196Y-65951773D01*
X79856235Y-65975571D01*
X79847970Y-65998671D01*
X79837480Y-66020849D01*
X79824867Y-66041893D01*
X79810253Y-66061598D01*
X79793777Y-66079777D01*
X79775598Y-66096253D01*
X79755893Y-66110867D01*
X79734849Y-66123480D01*
X79712671Y-66133970D01*
X79689571Y-66142235D01*
X79665773Y-66148196D01*
X79641504Y-66151796D01*
X79617000Y-66153000D01*
X78867000Y-66153000D01*
X78842496Y-66151796D01*
X78818227Y-66148196D01*
X78794429Y-66142235D01*
X78771329Y-66133970D01*
X78749151Y-66123480D01*
X78728107Y-66110867D01*
X78708402Y-66096253D01*
X78690223Y-66079777D01*
X78673747Y-66061598D01*
X78659133Y-66041893D01*
X78646520Y-66020849D01*
X78636030Y-65998671D01*
X78627765Y-65975571D01*
X78621804Y-65951773D01*
X78618204Y-65927504D01*
X78617000Y-65903000D01*
X78617000Y-64653000D01*
X78618204Y-64628496D01*
X78621804Y-64604227D01*
X78627765Y-64580429D01*
X78636030Y-64557329D01*
X78646520Y-64535151D01*
X78659133Y-64514107D01*
X78673747Y-64494402D01*
X78690223Y-64476223D01*
X78708402Y-64459747D01*
X78728107Y-64445133D01*
X78749151Y-64432520D01*
X78771329Y-64422030D01*
X78794429Y-64413765D01*
X78818227Y-64407804D01*
X78842496Y-64404204D01*
X78867000Y-64403000D01*
X79617000Y-64403000D01*
X79641504Y-64404204D01*
X79641504Y-64404204D01*
G37*
D15*
X79242000Y-65278000D03*
D16*
X89920000Y-55118000D03*
X95420000Y-55118000D03*
X91720000Y-53118000D03*
X86220000Y-53118000D03*
X83820000Y-55118000D03*
D17*
X77533500Y-72613500D03*
X77533500Y-79913500D03*
X82033500Y-79913500D03*
X82033500Y-72613500D03*
D18*
X82033500Y-74663500D03*
X82033500Y-75463500D03*
X82033500Y-76263500D03*
X82033500Y-77063500D03*
X82033500Y-77863500D03*
D10*
X187682500Y-85217500D03*
X187027501Y-85947500D03*
D11*
X186372500Y-86677500D02*
X187682502Y-85217500D01*
D10*
X192722500Y-84137500D03*
X192702500Y-84427500D03*
D11*
X192682500Y-84717500D02*
X192722500Y-84137500D01*
D10*
X187682500Y-66167500D03*
X187027501Y-66897500D03*
D11*
X186372500Y-67627500D02*
X187682502Y-66167500D01*
D10*
X192722500Y-65087500D03*
X192702500Y-65377500D03*
D11*
X192682500Y-65667500D02*
X192722500Y-65087500D01*
D10*
X168632500Y-88392500D03*
X167977501Y-89122500D03*
D11*
X167322500Y-89852500D02*
X168632502Y-88392500D01*
D10*
X173672500Y-87312500D03*
X173652500Y-87602500D03*
D11*
X173632500Y-87892500D02*
X173672500Y-87312500D01*
D10*
X168632500Y-69342500D03*
X167977501Y-70072500D03*
D11*
X167322500Y-70802500D02*
X168632502Y-69342500D01*
D10*
X173672500Y-68262500D03*
X173652500Y-68552500D03*
D11*
X173632500Y-68842500D02*
X173672500Y-68262500D01*
D10*
X149582500Y-82042500D03*
X148927501Y-82772500D03*
D11*
X148272500Y-83502500D02*
X149582502Y-82042500D01*
D10*
X154622500Y-80962500D03*
X154602500Y-81252500D03*
D11*
X154582500Y-81542500D02*
X154622500Y-80962500D01*
D10*
X149582500Y-62992500D03*
X148927501Y-63722500D03*
D11*
X148272500Y-64452500D02*
X149582502Y-62992500D01*
D10*
X154622500Y-61912500D03*
X154602500Y-62202500D03*
D11*
X154582500Y-62492500D02*
X154622500Y-61912500D01*
D10*
X130532500Y-96330000D03*
X129877501Y-97060000D03*
D11*
X129222500Y-97790000D02*
X130532502Y-96330000D01*
D10*
X135572500Y-95250000D03*
X135552500Y-95540000D03*
D11*
X135532500Y-95830000D02*
X135572500Y-95250000D01*
D10*
X130532500Y-77280000D03*
X129877501Y-78010000D03*
D11*
X129222500Y-78740000D02*
X130532502Y-77280000D01*
D10*
X135572500Y-76200000D03*
X135552500Y-76490000D03*
D11*
X135532500Y-76780000D02*
X135572500Y-76200000D01*
D10*
X130532500Y-58230000D03*
X129877501Y-58960000D03*
D11*
X129222500Y-59690000D02*
X130532502Y-58230000D01*
D10*
X135572500Y-57150000D03*
X135552500Y-57440000D03*
D11*
X135532500Y-57730000D02*
X135572500Y-57150000D01*
D10*
X111482500Y-89980000D03*
X110827501Y-90710000D03*
D11*
X110172500Y-91440000D02*
X111482502Y-89980000D01*
D10*
X116522500Y-88900000D03*
X116502500Y-89190000D03*
D11*
X116482500Y-89480000D02*
X116522500Y-88900000D01*
D10*
X111482500Y-70930000D03*
X110827501Y-71660000D03*
D11*
X110172500Y-72390000D02*
X111482502Y-70930000D01*
D10*
X116522500Y-69850000D03*
X116502500Y-70140000D03*
D11*
X116482500Y-70430000D02*
X116522500Y-69850000D01*
D10*
X92432500Y-85217500D03*
X91777501Y-85947500D03*
D11*
X91122500Y-86677500D02*
X92432502Y-85217500D01*
D10*
X97472500Y-84137500D03*
X97452500Y-84427500D03*
D11*
X97432500Y-84717500D02*
X97472500Y-84137500D01*
D10*
X92432500Y-66167500D03*
X91777501Y-66897500D03*
D11*
X91122500Y-67627500D02*
X92432502Y-66167500D01*
D10*
X97472500Y-65087500D03*
X97452500Y-65377500D03*
D11*
X97432500Y-65667500D02*
X97472500Y-65087500D01*
D19*
X84252000Y-77863500D03*
X83172500Y-90538500D03*
X77597000Y-127508000D03*
X92934000Y-115413000D03*
X77343000Y-111506000D03*
X77343000Y-66548000D03*
X77343000Y-124841000D03*
X76581000Y-123825000D03*
X79671980Y-115019020D03*
X87312500Y-112458500D03*
D20*
X85217000Y-107823000D02*
X85217000Y-108331000D01*
D21*
X82033500Y-77863500D02*
X84252000Y-77863500D01*
X83172500Y-92041000D02*
X82059000Y-93154500D01*
X83172500Y-90538500D02*
X83172500Y-92041000D01*
X78422500Y-70739000D02*
X76963154Y-70739000D01*
X76454000Y-70739000D02*
X78422500Y-70739000D01*
X76454000Y-62984000D02*
X76454000Y-70739000D01*
X83820000Y-55118000D02*
X83820000Y-55618000D01*
X83820000Y-55618000D02*
X76454000Y-62984000D01*
X80527500Y-77863500D02*
X82033500Y-77863500D01*
X79629000Y-76965000D02*
X80527500Y-77863500D01*
X79629000Y-70993000D02*
X79629000Y-76965000D01*
X78422500Y-70739000D02*
X79375000Y-70739000D01*
X79375000Y-70739000D02*
X79629000Y-70993000D01*
X92534001Y-115013001D02*
X92934000Y-115413000D01*
X91749519Y-114228519D02*
X92534001Y-115013001D01*
X77343000Y-112071685D02*
X79499834Y-114228519D01*
X77343000Y-111506000D02*
X77343000Y-112071685D01*
X77996999Y-127108001D02*
X77597000Y-127508000D01*
X81605481Y-123499519D02*
X77996999Y-127108001D01*
X81605481Y-114228519D02*
X81605481Y-123499519D01*
X81605481Y-114228519D02*
X91749519Y-114228519D01*
X79499834Y-114228519D02*
X81605481Y-114228519D01*
X82908500Y-74663500D02*
X84420000Y-73152000D01*
X82033500Y-74663500D02*
X82908500Y-74663500D01*
X84420000Y-73152000D02*
X84420000Y-66386000D01*
X84420000Y-66386000D02*
X84258000Y-66548000D01*
X86220000Y-53118000D02*
X86220000Y-62881000D01*
X83875000Y-66386000D02*
X84420000Y-66386000D01*
X82042000Y-65278000D02*
X82767000Y-65278000D01*
X82944250Y-64375750D02*
X82944250Y-65455250D01*
X84439000Y-62881000D02*
X82944250Y-64375750D01*
X86220000Y-62881000D02*
X84439000Y-62881000D01*
X82767000Y-65278000D02*
X82944250Y-65455250D01*
X82944250Y-65455250D02*
X83875000Y-66386000D01*
X77972000Y-66548000D02*
X79242000Y-65278000D01*
X77343000Y-66548000D02*
X77972000Y-66548000D01*
D20*
X91122500Y-83907500D02*
X91122500Y-86677500D01*
X91122500Y-67627500D02*
X91122500Y-83907500D01*
X91122500Y-102957500D02*
X91122500Y-105727500D01*
X91122500Y-86677500D02*
X91122500Y-102957500D01*
X91122500Y-105727500D02*
X91482409Y-106087409D01*
X91482409Y-135757662D02*
X90594922Y-136645149D01*
X103886000Y-137604500D02*
X98869500Y-142621000D01*
X103886000Y-134530064D02*
X103886000Y-137604500D01*
X91122500Y-105727500D02*
X91122500Y-107892434D01*
X90594922Y-138217664D02*
X90594922Y-136645149D01*
X91122500Y-107892434D02*
X96768066Y-113538000D01*
X94998258Y-142621000D02*
X90594922Y-138217664D01*
X96768066Y-113538000D02*
X105473500Y-113538000D01*
X98869500Y-142621000D02*
X94998258Y-142621000D01*
X105473500Y-113538000D02*
X108458000Y-116522500D01*
X108458000Y-116522500D02*
X108458000Y-129958064D01*
X108458000Y-129958064D02*
X103886000Y-134530064D01*
X110172500Y-91290000D02*
X110172500Y-91440000D01*
X110172500Y-110490000D02*
X110172500Y-91290000D01*
X110172500Y-72240000D02*
X111482500Y-70930000D01*
X110172500Y-91440000D02*
X110172500Y-72240000D01*
X111482500Y-111800000D02*
X110172500Y-110490000D01*
X111482500Y-131950071D02*
X111482500Y-111800000D01*
X109644922Y-133787649D02*
X111482500Y-131950071D01*
X129222500Y-97790000D02*
X129222500Y-78740000D01*
X129222500Y-78740000D02*
X129222500Y-59690000D01*
X129222500Y-116840000D02*
X129222500Y-97790000D01*
X148272500Y-102552500D02*
X148272500Y-83502500D01*
X148272500Y-83502500D02*
X148272500Y-64452500D01*
X148272500Y-121602500D02*
X148272500Y-102552500D01*
X167322500Y-108902500D02*
X167322500Y-89852500D01*
X167322500Y-89852500D02*
X167322500Y-70802500D01*
X186372500Y-86527500D02*
X186372500Y-86677500D01*
X186372500Y-105727500D02*
X186372500Y-86527500D01*
X186372500Y-67477500D02*
X186372500Y-67627500D01*
X186372500Y-86677500D02*
X186372500Y-67477500D01*
X81867500Y-88709500D02*
X88789000Y-81788000D01*
X81280000Y-88709500D02*
X81867500Y-88709500D01*
X88789000Y-81788000D02*
X88789000Y-76692000D01*
X87560500Y-75463500D02*
X82033500Y-75463500D01*
X88789000Y-76692000D02*
X87560500Y-75463500D01*
X78848763Y-89265737D02*
X79405000Y-88709500D01*
X75745990Y-92368510D02*
X78848763Y-89265737D01*
X75745990Y-112300782D02*
X75745990Y-92368510D01*
X77742999Y-114297790D02*
X75745990Y-112300782D01*
X77742999Y-124441001D02*
X77742999Y-114297790D01*
X77343000Y-124841000D02*
X77742999Y-124441001D01*
X81153000Y-85788500D02*
X83629500Y-85788500D01*
X88201500Y-81216500D02*
X88201500Y-76746566D01*
X83629500Y-85788500D02*
X88201500Y-81216500D01*
X87718434Y-76263500D02*
X82033500Y-76263500D01*
X88201500Y-76746566D02*
X87718434Y-76263500D01*
X78721763Y-86344737D02*
X79278000Y-85788500D01*
X75291980Y-89774520D02*
X78721763Y-86344737D01*
X75291980Y-122535980D02*
X75291980Y-89774520D01*
X76581000Y-123825000D02*
X75291980Y-122535980D01*
X79106295Y-115019020D02*
X76200000Y-112112725D01*
X79671980Y-115019020D02*
X79106295Y-115019020D01*
X78359000Y-100508500D02*
X78359000Y-99354500D01*
X76200000Y-102667500D02*
X78359000Y-100508500D01*
X76200000Y-112112725D02*
X76200000Y-102667500D01*
X87312500Y-83906566D02*
X89535000Y-81684066D01*
X87312500Y-112458500D02*
X87312500Y-83906566D01*
X89535000Y-81684066D02*
X89535000Y-74104500D01*
X89535000Y-74104500D02*
X87058500Y-71628000D01*
X87058500Y-71628000D02*
X87058500Y-64579500D01*
X91720000Y-59918000D02*
X91720000Y-53118000D01*
X87058500Y-64579500D02*
X91720000Y-59918000D01*
M02*
