M48
; DRILL file {KiCad (5.1.4)-1} date 1/12/2022 1:09:43 PM
; FORMAT={-:-/ absolute / inch / decimal}
; #@! TF.CreationDate,2022-01-12T13:09:43-05:00
; #@! TF.GenerationSoftware,Kicad,Pcbnew,(5.1.4)-1
; #@! TF.FileFunction,NonPlated,1,2,NPTH
FMAT,2
INCH
T1C0.0197
T2C0.0591
T3C0.0689
T4C0.1570
%
G90
G05
T4
X3.758Y-5.3977
X4.526Y-5.3965
T1
G00X3.6681Y-5.433
M15
G01X3.6681Y-5.2912
M16
G05
G00X3.6836Y-5.433
M15
G01X3.6836Y-5.2913
M16
G05
G00X3.8492Y-5.2912
M15
G01X3.6681Y-5.2912
M16
G05
G00X3.8492Y-5.433
M15
G01X3.6681Y-5.433
M16
G05
G00X3.8334Y-5.433
M15
G01X3.8334Y-5.2912
M16
G05
G00X3.8492Y-5.433
M15
G01X3.8492Y-5.2912
M16
G05
G00X4.4361Y-5.4317
M15
G01X4.4361Y-5.29
M16
G05
G00X4.4516Y-5.4318
M15
G01X4.4516Y-5.29
M16
G05
G00X4.6172Y-5.29
M15
G01X4.4361Y-5.29
M16
G05
G00X4.6172Y-5.4317
M15
G01X4.4361Y-5.4317
M16
G05
G00X4.6014Y-5.4317
M15
G01X4.6014Y-5.29
M16
G05
G00X4.6172Y-5.4317
M15
G01X4.6172Y-5.29
M16
G05
T2
G00X3.8295Y-5.3267
M15
G01X3.6877Y-5.3267
M16
G05
G00X4.5975Y-5.3254
M15
G01X4.4558Y-5.3254
M16
G05
T3
G00X3.5587Y-5.3977
M15
G01X3.542Y-5.3977
M16
G05
G00X3.9741Y-5.3977
M15
G01X3.9573Y-5.3977
M16
G05
G00X4.3267Y-5.3965
M15
G01X4.31Y-5.3965
M16
G05
G00X4.7421Y-5.3965
M15
G01X4.7253Y-5.3965
M16
G05
T0
M30
