G04 #@! TF.GenerationSoftware,KiCad,Pcbnew,(5.1.4)-1*
G04 #@! TF.CreationDate,2022-01-12T13:09:38-05:00*
G04 #@! TF.ProjectId,a44key-pcb-thumbs,6134346b-6579-42d7-9063-622d7468756d,rev?*
G04 #@! TF.SameCoordinates,Original*
G04 #@! TF.FileFunction,Legend,Top*
G04 #@! TF.FilePolarity,Positive*
%FSLAX46Y46*%
G04 Gerber Fmt 4.6, Leading zero omitted, Abs format (unit mm)*
G04 Created by KiCad (PCBNEW (5.1.4)-1) date 2022-01-12 13:09:38*
%MOMM*%
%LPD*%
G04 APERTURE LIST*
%ADD10C,0.120000*%
%ADD11C,0.150000*%
%ADD12C,1.402000*%
%ADD13O,0.602000X4.202000*%
%ADD14O,5.202000X0.602000*%
%ADD15O,5.202000X1.602000*%
%ADD16C,2.352000*%
%ADD17C,2.352000*%
%ADD18O,2.277000X1.852000*%
%ADD19C,4.089800*%
%ADD20C,2.102000*%
%ADD21O,1.802000X1.802000*%
%ADD22R,1.802000X1.802000*%
G04 APERTURE END LIST*
D10*
X85828959Y-132530357D02*
X87158959Y-132530357D01*
X85828959Y-133860357D02*
X85828959Y-132530357D01*
X85828959Y-135130357D02*
X88488959Y-135130357D01*
X88488959Y-135130357D02*
X88488959Y-142810357D01*
X85828959Y-135130357D02*
X85828959Y-142810357D01*
X85828959Y-142810357D02*
X88488959Y-142810357D01*
X121873628Y-132458971D02*
X123203628Y-132458971D01*
X121873628Y-133788971D02*
X121873628Y-132458971D01*
X121873628Y-135058971D02*
X124533628Y-135058971D01*
X124533628Y-135058971D02*
X124533628Y-142738971D01*
X121873628Y-135058971D02*
X121873628Y-142738971D01*
X121873628Y-142738971D02*
X124533628Y-142738971D01*
X110149934Y-143918469D02*
X110149934Y-145248469D01*
X108819934Y-143918469D02*
X110149934Y-143918469D01*
X107549934Y-143918469D02*
X107549934Y-146578469D01*
X107549934Y-146578469D02*
X99869934Y-146578469D01*
X107549934Y-143918469D02*
X99869934Y-143918469D01*
X99869934Y-143918469D02*
X99869934Y-146578469D01*
D11*
X86825625Y-130982737D02*
X86825625Y-131697023D01*
X86778006Y-131839880D01*
X86682768Y-131935118D01*
X86539911Y-131982737D01*
X86444673Y-131982737D01*
X87730387Y-131316071D02*
X87730387Y-131982737D01*
X87492292Y-130935118D02*
X87254197Y-131649404D01*
X87873244Y-131649404D01*
X122870294Y-130911351D02*
X122870294Y-131625637D01*
X122822675Y-131768494D01*
X122727437Y-131863732D01*
X122584580Y-131911351D01*
X122489342Y-131911351D01*
X123251247Y-130911351D02*
X123870294Y-130911351D01*
X123536961Y-131292304D01*
X123679818Y-131292304D01*
X123775056Y-131339923D01*
X123822675Y-131387542D01*
X123870294Y-131482780D01*
X123870294Y-131720875D01*
X123822675Y-131816113D01*
X123775056Y-131863732D01*
X123679818Y-131911351D01*
X123394104Y-131911351D01*
X123298866Y-131863732D01*
X123251247Y-131816113D01*
X110602314Y-145581802D02*
X111316600Y-145581802D01*
X111459457Y-145629421D01*
X111554695Y-145724659D01*
X111602314Y-145867516D01*
X111602314Y-145962754D01*
X110697553Y-145153230D02*
X110649934Y-145105611D01*
X110602314Y-145010373D01*
X110602314Y-144772278D01*
X110649934Y-144677040D01*
X110697553Y-144629421D01*
X110792791Y-144581802D01*
X110888029Y-144581802D01*
X111030886Y-144629421D01*
X111602314Y-145200849D01*
X111602314Y-144581802D01*
%LPC*%
D12*
X118390348Y-135038919D03*
D13*
X117276348Y-136165919D03*
X113071348Y-136166759D03*
X112676348Y-136165919D03*
D14*
X114976348Y-134365919D03*
X114976348Y-137965919D03*
D13*
X116876348Y-136165919D03*
D15*
X114976348Y-135265919D03*
D16*
X118111348Y-140345919D03*
D17*
X118766343Y-139615915D02*
X117456353Y-141075923D01*
D16*
X112436348Y-141920919D03*
D17*
X112456119Y-141630903D02*
X112416577Y-142210935D01*
D18*
X109686348Y-137070919D03*
X120236348Y-137070919D03*
D19*
X114961348Y-137070919D03*
D20*
X109961348Y-140870918D03*
X114961348Y-142970919D03*
D21*
X87158959Y-141480357D03*
X87158959Y-138940357D03*
X87158959Y-136400357D03*
D22*
X87158959Y-133860357D03*
D21*
X123203628Y-141408971D03*
X123203628Y-138868971D03*
X123203628Y-136328971D03*
D22*
X123203628Y-133788971D03*
D21*
X101199934Y-145248469D03*
X103739934Y-145248469D03*
X106279934Y-145248469D03*
D22*
X108819934Y-145248469D03*
D12*
X98882622Y-135070695D03*
D13*
X97768622Y-136197695D03*
X93563622Y-136198535D03*
X93168622Y-136197695D03*
D14*
X95468622Y-134397695D03*
X95468622Y-137997695D03*
D13*
X97368622Y-136197695D03*
D15*
X95468622Y-135297695D03*
D16*
X98603622Y-140377695D03*
D17*
X99258617Y-139647691D02*
X97948627Y-141107699D01*
D16*
X92928622Y-141952695D03*
D17*
X92948393Y-141662679D02*
X92908851Y-142242711D01*
D18*
X90178622Y-137102695D03*
X100728622Y-137102695D03*
D19*
X95453622Y-137102695D03*
D20*
X90453622Y-140902694D03*
X95453622Y-143002695D03*
M02*
