G04 #@! TF.GenerationSoftware,KiCad,Pcbnew,(5.1.4)-1*
G04 #@! TF.CreationDate,2021-10-17T20:58:04-04:00*
G04 #@! TF.ProjectId,a44key-pcb,6134346b-6579-42d7-9063-622e6b696361,rev?*
G04 #@! TF.SameCoordinates,Original*
G04 #@! TF.FileFunction,Legend,Bot*
G04 #@! TF.FilePolarity,Positive*
%FSLAX46Y46*%
G04 Gerber Fmt 4.6, Leading zero omitted, Abs format (unit mm)*
G04 Created by KiCad (PCBNEW (5.1.4)-1) date 2021-10-17 20:58:04*
%MOMM*%
%LPD*%
G04 APERTURE LIST*
%ADD10C,0.120000*%
%ADD11C,0.150000*%
%ADD12C,1.852000*%
%ADD13C,2.352000*%
%ADD14C,4.089800*%
%ADD15C,2.352000*%
%ADD16C,0.100000*%
%ADD17C,1.077000*%
%ADD18R,1.302000X1.002000*%
%ADD19R,1.902000X2.202000*%
%ADD20R,0.652000X1.602000*%
%ADD21R,1.602000X0.652000*%
%ADD22O,1.902000X2.902000*%
%ADD23O,2.802000X1.802000*%
G04 APERTURE END LIST*
D10*
X86872578Y-103453000D02*
X86355422Y-103453000D01*
X86872578Y-102033000D02*
X86355422Y-102033000D01*
X90467922Y-130481000D02*
X90985078Y-130481000D01*
X90467922Y-131901000D02*
X90985078Y-131901000D01*
X103457500Y-124273750D02*
X103457500Y-128173750D01*
X105457500Y-124273750D02*
X105457500Y-128173750D01*
X103457500Y-124273750D02*
X105457500Y-124273750D01*
X106251250Y-117661250D02*
X106251250Y-113761250D01*
X104251250Y-117661250D02*
X104251250Y-113761250D01*
X106251250Y-117661250D02*
X104251250Y-117661250D01*
X102282500Y-117661250D02*
X102282500Y-113761250D01*
X100282500Y-117661250D02*
X100282500Y-113761250D01*
X102282500Y-117661250D02*
X100282500Y-117661250D01*
X108220000Y-124273750D02*
X108220000Y-128173750D01*
X110220000Y-124273750D02*
X110220000Y-128173750D01*
X108220000Y-124273750D02*
X110220000Y-124273750D01*
X140382500Y-127186250D02*
X140382500Y-123286250D01*
X138382500Y-127186250D02*
X138382500Y-123286250D01*
X140382500Y-127186250D02*
X138382500Y-127186250D01*
X180863750Y-118455000D02*
X180863750Y-114555000D01*
X178863750Y-118455000D02*
X178863750Y-114555000D01*
X180863750Y-118455000D02*
X178863750Y-118455000D01*
X184832500Y-118455000D02*
X184832500Y-114555000D01*
X182832500Y-118455000D02*
X182832500Y-114555000D01*
X184832500Y-118455000D02*
X182832500Y-118455000D01*
X144351250Y-127123750D02*
X144351250Y-123223750D01*
X142351250Y-127123750D02*
X142351250Y-123223750D01*
X144351250Y-127123750D02*
X142351250Y-127123750D01*
X80718922Y-130735000D02*
X81236078Y-130735000D01*
X80718922Y-132155000D02*
X81236078Y-132155000D01*
X75871000Y-117050078D02*
X75871000Y-116532922D01*
X77291000Y-117050078D02*
X77291000Y-116532922D01*
X92255078Y-114311500D02*
X91737922Y-114311500D01*
X92255078Y-112891500D02*
X91737922Y-112891500D01*
X80815922Y-112701000D02*
X81333078Y-112701000D01*
X80815922Y-114121000D02*
X81333078Y-114121000D01*
X81309000Y-110343000D02*
X81309000Y-104943000D01*
X85809000Y-110343000D02*
X81309000Y-110343000D01*
D11*
X80296000Y-126647000D02*
X79021000Y-126647000D01*
X90646000Y-127222000D02*
X89971000Y-127222000D01*
X90646000Y-116872000D02*
X89971000Y-116872000D01*
X80296000Y-116872000D02*
X80971000Y-116872000D01*
X80296000Y-127222000D02*
X80971000Y-127222000D01*
X80296000Y-116872000D02*
X80296000Y-117547000D01*
X90646000Y-116872000D02*
X90646000Y-117547000D01*
X90646000Y-127222000D02*
X90646000Y-126547000D01*
X80296000Y-127222000D02*
X80296000Y-126647000D01*
D10*
X77162922Y-112574000D02*
X77680078Y-112574000D01*
X77162922Y-113994000D02*
X77680078Y-113994000D01*
X77291000Y-120772422D02*
X77291000Y-121289578D01*
X75871000Y-120772422D02*
X75871000Y-121289578D01*
X81163422Y-102033000D02*
X81680578Y-102033000D01*
X81163422Y-103453000D02*
X81680578Y-103453000D01*
X184832500Y-99405000D02*
X184832500Y-95505000D01*
X182832500Y-99405000D02*
X182832500Y-95505000D01*
X184832500Y-99405000D02*
X182832500Y-99405000D01*
X185626250Y-80355000D02*
X185626250Y-76455000D01*
X183626250Y-80355000D02*
X183626250Y-76455000D01*
X185626250Y-80355000D02*
X183626250Y-80355000D01*
X180863750Y-99405000D02*
X180863750Y-95505000D01*
X178863750Y-99405000D02*
X178863750Y-95505000D01*
X180863750Y-99405000D02*
X178863750Y-99405000D01*
X181657500Y-80355000D02*
X181657500Y-76455000D01*
X179657500Y-80355000D02*
X179657500Y-76455000D01*
X181657500Y-80355000D02*
X179657500Y-80355000D01*
X144351250Y-108930000D02*
X144351250Y-105030000D01*
X142351250Y-108930000D02*
X142351250Y-105030000D01*
X144351250Y-108930000D02*
X142351250Y-108930000D01*
X144351250Y-89880000D02*
X144351250Y-85980000D01*
X142351250Y-89880000D02*
X142351250Y-85980000D01*
X144351250Y-89880000D02*
X142351250Y-89880000D01*
X145145000Y-70830000D02*
X145145000Y-66930000D01*
X143145000Y-70830000D02*
X143145000Y-66930000D01*
X145145000Y-70830000D02*
X143145000Y-70830000D01*
X140382500Y-108930000D02*
X140382500Y-105030000D01*
X138382500Y-108930000D02*
X138382500Y-105030000D01*
X140382500Y-108930000D02*
X138382500Y-108930000D01*
X140382500Y-89880000D02*
X140382500Y-85980000D01*
X138382500Y-89880000D02*
X138382500Y-85980000D01*
X140382500Y-89880000D02*
X138382500Y-89880000D01*
X141176250Y-70830000D02*
X141176250Y-66930000D01*
X139176250Y-70830000D02*
X139176250Y-66930000D01*
X141176250Y-70830000D02*
X139176250Y-70830000D01*
X106251250Y-97817500D02*
X106251250Y-93917500D01*
X104251250Y-97817500D02*
X104251250Y-93917500D01*
X106251250Y-97817500D02*
X104251250Y-97817500D01*
X107045000Y-78767500D02*
X107045000Y-74867500D01*
X105045000Y-78767500D02*
X105045000Y-74867500D01*
X107045000Y-78767500D02*
X105045000Y-78767500D01*
X102282500Y-97817500D02*
X102282500Y-93917500D01*
X100282500Y-97817500D02*
X100282500Y-93917500D01*
X102282500Y-97817500D02*
X100282500Y-97817500D01*
X103076250Y-78767500D02*
X103076250Y-74867500D01*
X101076250Y-78767500D02*
X101076250Y-74867500D01*
X103076250Y-78767500D02*
X101076250Y-78767500D01*
D11*
X86780666Y-101450142D02*
X86828285Y-101497761D01*
X86971142Y-101545380D01*
X87066380Y-101545380D01*
X87209238Y-101497761D01*
X87304476Y-101402523D01*
X87352095Y-101307285D01*
X87399714Y-101116809D01*
X87399714Y-100973952D01*
X87352095Y-100783476D01*
X87304476Y-100688238D01*
X87209238Y-100593000D01*
X87066380Y-100545380D01*
X86971142Y-100545380D01*
X86828285Y-100593000D01*
X86780666Y-100640619D01*
X86399714Y-100640619D02*
X86352095Y-100593000D01*
X86256857Y-100545380D01*
X86018761Y-100545380D01*
X85923523Y-100593000D01*
X85875904Y-100640619D01*
X85828285Y-100735857D01*
X85828285Y-100831095D01*
X85875904Y-100973952D01*
X86447333Y-101545380D01*
X85828285Y-101545380D01*
X90893166Y-133293380D02*
X91226500Y-132817190D01*
X91464595Y-133293380D02*
X91464595Y-132293380D01*
X91083642Y-132293380D01*
X90988404Y-132341000D01*
X90940785Y-132388619D01*
X90893166Y-132483857D01*
X90893166Y-132626714D01*
X90940785Y-132721952D01*
X90988404Y-132769571D01*
X91083642Y-132817190D01*
X91464595Y-132817190D01*
X90036023Y-132626714D02*
X90036023Y-133293380D01*
X90274119Y-132245761D02*
X90512214Y-132960047D01*
X89893166Y-132960047D01*
X102909880Y-125785654D02*
X101909880Y-125785654D01*
X101909880Y-126023750D01*
X101957500Y-126166607D01*
X102052738Y-126261845D01*
X102147976Y-126309464D01*
X102338452Y-126357083D01*
X102481309Y-126357083D01*
X102671785Y-126309464D01*
X102767023Y-126261845D01*
X102862261Y-126166607D01*
X102909880Y-126023750D01*
X102909880Y-125785654D01*
X102243214Y-127214226D02*
X102909880Y-127214226D01*
X101862261Y-126976130D02*
X102576547Y-126738035D01*
X102576547Y-127357083D01*
X107703630Y-114673154D02*
X106703630Y-114673154D01*
X106703630Y-114911250D01*
X106751250Y-115054107D01*
X106846488Y-115149345D01*
X106941726Y-115196964D01*
X107132202Y-115244583D01*
X107275059Y-115244583D01*
X107465535Y-115196964D01*
X107560773Y-115149345D01*
X107656011Y-115054107D01*
X107703630Y-114911250D01*
X107703630Y-114673154D01*
X106703630Y-115577916D02*
X106703630Y-116244583D01*
X107703630Y-115816011D01*
X103734880Y-114673154D02*
X102734880Y-114673154D01*
X102734880Y-114911250D01*
X102782500Y-115054107D01*
X102877738Y-115149345D01*
X102972976Y-115196964D01*
X103163452Y-115244583D01*
X103306309Y-115244583D01*
X103496785Y-115196964D01*
X103592023Y-115149345D01*
X103687261Y-115054107D01*
X103734880Y-114911250D01*
X103734880Y-114673154D01*
X102734880Y-115577916D02*
X102734880Y-116196964D01*
X103115833Y-115863630D01*
X103115833Y-116006488D01*
X103163452Y-116101726D01*
X103211071Y-116149345D01*
X103306309Y-116196964D01*
X103544404Y-116196964D01*
X103639642Y-116149345D01*
X103687261Y-116101726D01*
X103734880Y-116006488D01*
X103734880Y-115720773D01*
X103687261Y-115625535D01*
X103639642Y-115577916D01*
X107672380Y-125785654D02*
X106672380Y-125785654D01*
X106672380Y-126023750D01*
X106720000Y-126166607D01*
X106815238Y-126261845D01*
X106910476Y-126309464D01*
X107100952Y-126357083D01*
X107243809Y-126357083D01*
X107434285Y-126309464D01*
X107529523Y-126261845D01*
X107624761Y-126166607D01*
X107672380Y-126023750D01*
X107672380Y-125785654D01*
X107100952Y-126928511D02*
X107053333Y-126833273D01*
X107005714Y-126785654D01*
X106910476Y-126738035D01*
X106862857Y-126738035D01*
X106767619Y-126785654D01*
X106720000Y-126833273D01*
X106672380Y-126928511D01*
X106672380Y-127118988D01*
X106720000Y-127214226D01*
X106767619Y-127261845D01*
X106862857Y-127309464D01*
X106910476Y-127309464D01*
X107005714Y-127261845D01*
X107053333Y-127214226D01*
X107100952Y-127118988D01*
X107100952Y-126928511D01*
X107148571Y-126833273D01*
X107196190Y-126785654D01*
X107291428Y-126738035D01*
X107481904Y-126738035D01*
X107577142Y-126785654D01*
X107624761Y-126833273D01*
X107672380Y-126928511D01*
X107672380Y-127118988D01*
X107624761Y-127214226D01*
X107577142Y-127261845D01*
X107481904Y-127309464D01*
X107291428Y-127309464D01*
X107196190Y-127261845D01*
X107148571Y-127214226D01*
X107100952Y-127118988D01*
X141834880Y-123721964D02*
X140834880Y-123721964D01*
X140834880Y-123960059D01*
X140882500Y-124102916D01*
X140977738Y-124198154D01*
X141072976Y-124245773D01*
X141263452Y-124293392D01*
X141406309Y-124293392D01*
X141596785Y-124245773D01*
X141692023Y-124198154D01*
X141787261Y-124102916D01*
X141834880Y-123960059D01*
X141834880Y-123721964D01*
X141834880Y-125245773D02*
X141834880Y-124674345D01*
X141834880Y-124960059D02*
X140834880Y-124960059D01*
X140977738Y-124864821D01*
X141072976Y-124769583D01*
X141120595Y-124674345D01*
X140930119Y-125626726D02*
X140882500Y-125674345D01*
X140834880Y-125769583D01*
X140834880Y-126007678D01*
X140882500Y-126102916D01*
X140930119Y-126150535D01*
X141025357Y-126198154D01*
X141120595Y-126198154D01*
X141263452Y-126150535D01*
X141834880Y-125579107D01*
X141834880Y-126198154D01*
X182316130Y-114990714D02*
X181316130Y-114990714D01*
X181316130Y-115228809D01*
X181363750Y-115371666D01*
X181458988Y-115466904D01*
X181554226Y-115514523D01*
X181744702Y-115562142D01*
X181887559Y-115562142D01*
X182078035Y-115514523D01*
X182173273Y-115466904D01*
X182268511Y-115371666D01*
X182316130Y-115228809D01*
X182316130Y-114990714D01*
X182316130Y-116514523D02*
X182316130Y-115943095D01*
X182316130Y-116228809D02*
X181316130Y-116228809D01*
X181458988Y-116133571D01*
X181554226Y-116038333D01*
X181601845Y-115943095D01*
X182316130Y-116990714D02*
X182316130Y-117181190D01*
X182268511Y-117276428D01*
X182220892Y-117324047D01*
X182078035Y-117419285D01*
X181887559Y-117466904D01*
X181506607Y-117466904D01*
X181411369Y-117419285D01*
X181363750Y-117371666D01*
X181316130Y-117276428D01*
X181316130Y-117085952D01*
X181363750Y-116990714D01*
X181411369Y-116943095D01*
X181506607Y-116895476D01*
X181744702Y-116895476D01*
X181839940Y-116943095D01*
X181887559Y-116990714D01*
X181935178Y-117085952D01*
X181935178Y-117276428D01*
X181887559Y-117371666D01*
X181839940Y-117419285D01*
X181744702Y-117466904D01*
X186284880Y-114990714D02*
X185284880Y-114990714D01*
X185284880Y-115228809D01*
X185332500Y-115371666D01*
X185427738Y-115466904D01*
X185522976Y-115514523D01*
X185713452Y-115562142D01*
X185856309Y-115562142D01*
X186046785Y-115514523D01*
X186142023Y-115466904D01*
X186237261Y-115371666D01*
X186284880Y-115228809D01*
X186284880Y-114990714D01*
X185380119Y-115943095D02*
X185332500Y-115990714D01*
X185284880Y-116085952D01*
X185284880Y-116324047D01*
X185332500Y-116419285D01*
X185380119Y-116466904D01*
X185475357Y-116514523D01*
X185570595Y-116514523D01*
X185713452Y-116466904D01*
X186284880Y-115895476D01*
X186284880Y-116514523D01*
X185380119Y-116895476D02*
X185332500Y-116943095D01*
X185284880Y-117038333D01*
X185284880Y-117276428D01*
X185332500Y-117371666D01*
X185380119Y-117419285D01*
X185475357Y-117466904D01*
X185570595Y-117466904D01*
X185713452Y-117419285D01*
X186284880Y-116847857D01*
X186284880Y-117466904D01*
X145803630Y-123659464D02*
X144803630Y-123659464D01*
X144803630Y-123897559D01*
X144851250Y-124040416D01*
X144946488Y-124135654D01*
X145041726Y-124183273D01*
X145232202Y-124230892D01*
X145375059Y-124230892D01*
X145565535Y-124183273D01*
X145660773Y-124135654D01*
X145756011Y-124040416D01*
X145803630Y-123897559D01*
X145803630Y-123659464D01*
X145803630Y-125183273D02*
X145803630Y-124611845D01*
X145803630Y-124897559D02*
X144803630Y-124897559D01*
X144946488Y-124802321D01*
X145041726Y-124707083D01*
X145089345Y-124611845D01*
X144803630Y-126040416D02*
X144803630Y-125849940D01*
X144851250Y-125754702D01*
X144898869Y-125707083D01*
X145041726Y-125611845D01*
X145232202Y-125564226D01*
X145613154Y-125564226D01*
X145708392Y-125611845D01*
X145756011Y-125659464D01*
X145803630Y-125754702D01*
X145803630Y-125945178D01*
X145756011Y-126040416D01*
X145708392Y-126088035D01*
X145613154Y-126135654D01*
X145375059Y-126135654D01*
X145279821Y-126088035D01*
X145232202Y-126040416D01*
X145184583Y-125945178D01*
X145184583Y-125754702D01*
X145232202Y-125659464D01*
X145279821Y-125611845D01*
X145375059Y-125564226D01*
X81144166Y-133452142D02*
X81191785Y-133499761D01*
X81334642Y-133547380D01*
X81429880Y-133547380D01*
X81572738Y-133499761D01*
X81667976Y-133404523D01*
X81715595Y-133309285D01*
X81763214Y-133118809D01*
X81763214Y-132975952D01*
X81715595Y-132785476D01*
X81667976Y-132690238D01*
X81572738Y-132595000D01*
X81429880Y-132547380D01*
X81334642Y-132547380D01*
X81191785Y-132595000D01*
X81144166Y-132642619D01*
X80191785Y-133547380D02*
X80763214Y-133547380D01*
X80477500Y-133547380D02*
X80477500Y-132547380D01*
X80572738Y-132690238D01*
X80667976Y-132785476D01*
X80763214Y-132833095D01*
X78588142Y-116624833D02*
X78635761Y-116577214D01*
X78683380Y-116434357D01*
X78683380Y-116339119D01*
X78635761Y-116196261D01*
X78540523Y-116101023D01*
X78445285Y-116053404D01*
X78254809Y-116005785D01*
X78111952Y-116005785D01*
X77921476Y-116053404D01*
X77826238Y-116101023D01*
X77731000Y-116196261D01*
X77683380Y-116339119D01*
X77683380Y-116434357D01*
X77731000Y-116577214D01*
X77778619Y-116624833D01*
X78016714Y-117481976D02*
X78683380Y-117481976D01*
X77635761Y-117243880D02*
X78350047Y-117005785D01*
X78350047Y-117624833D01*
X92163166Y-112308642D02*
X92210785Y-112356261D01*
X92353642Y-112403880D01*
X92448880Y-112403880D01*
X92591738Y-112356261D01*
X92686976Y-112261023D01*
X92734595Y-112165785D01*
X92782214Y-111975309D01*
X92782214Y-111832452D01*
X92734595Y-111641976D01*
X92686976Y-111546738D01*
X92591738Y-111451500D01*
X92448880Y-111403880D01*
X92353642Y-111403880D01*
X92210785Y-111451500D01*
X92163166Y-111499119D01*
X91258404Y-111403880D02*
X91734595Y-111403880D01*
X91782214Y-111880071D01*
X91734595Y-111832452D01*
X91639357Y-111784833D01*
X91401261Y-111784833D01*
X91306023Y-111832452D01*
X91258404Y-111880071D01*
X91210785Y-111975309D01*
X91210785Y-112213404D01*
X91258404Y-112308642D01*
X91306023Y-112356261D01*
X91401261Y-112403880D01*
X91639357Y-112403880D01*
X91734595Y-112356261D01*
X91782214Y-112308642D01*
X81241166Y-115418142D02*
X81288785Y-115465761D01*
X81431642Y-115513380D01*
X81526880Y-115513380D01*
X81669738Y-115465761D01*
X81764976Y-115370523D01*
X81812595Y-115275285D01*
X81860214Y-115084809D01*
X81860214Y-114941952D01*
X81812595Y-114751476D01*
X81764976Y-114656238D01*
X81669738Y-114561000D01*
X81526880Y-114513380D01*
X81431642Y-114513380D01*
X81288785Y-114561000D01*
X81241166Y-114608619D01*
X80907833Y-114513380D02*
X80241166Y-114513380D01*
X80669738Y-115513380D01*
X86585190Y-107166809D02*
X87061380Y-107166809D01*
X86061380Y-106833476D02*
X86585190Y-107166809D01*
X86061380Y-107500142D01*
X87061380Y-108357285D02*
X87061380Y-107785857D01*
X87061380Y-108071571D02*
X86061380Y-108071571D01*
X86204238Y-107976333D01*
X86299476Y-107881095D01*
X86347095Y-107785857D01*
X86232904Y-128949380D02*
X86232904Y-129758904D01*
X86185285Y-129854142D01*
X86137666Y-129901761D01*
X86042428Y-129949380D01*
X85851952Y-129949380D01*
X85756714Y-129901761D01*
X85709095Y-129854142D01*
X85661476Y-129758904D01*
X85661476Y-128949380D01*
X84661476Y-129949380D02*
X85232904Y-129949380D01*
X84947190Y-129949380D02*
X84947190Y-128949380D01*
X85042428Y-129092238D01*
X85137666Y-129187476D01*
X85232904Y-129235095D01*
X77588166Y-115386380D02*
X77921500Y-114910190D01*
X78159595Y-115386380D02*
X78159595Y-114386380D01*
X77778642Y-114386380D01*
X77683404Y-114434000D01*
X77635785Y-114481619D01*
X77588166Y-114576857D01*
X77588166Y-114719714D01*
X77635785Y-114814952D01*
X77683404Y-114862571D01*
X77778642Y-114910190D01*
X78159595Y-114910190D01*
X77254833Y-114386380D02*
X76635785Y-114386380D01*
X76969119Y-114767333D01*
X76826261Y-114767333D01*
X76731023Y-114814952D01*
X76683404Y-114862571D01*
X76635785Y-114957809D01*
X76635785Y-115195904D01*
X76683404Y-115291142D01*
X76731023Y-115338761D01*
X76826261Y-115386380D01*
X77111976Y-115386380D01*
X77207214Y-115338761D01*
X77254833Y-115291142D01*
X75288142Y-120864333D02*
X75335761Y-120816714D01*
X75383380Y-120673857D01*
X75383380Y-120578619D01*
X75335761Y-120435761D01*
X75240523Y-120340523D01*
X75145285Y-120292904D01*
X74954809Y-120245285D01*
X74811952Y-120245285D01*
X74621476Y-120292904D01*
X74526238Y-120340523D01*
X74431000Y-120435761D01*
X74383380Y-120578619D01*
X74383380Y-120673857D01*
X74431000Y-120816714D01*
X74478619Y-120864333D01*
X74383380Y-121721476D02*
X74383380Y-121531000D01*
X74431000Y-121435761D01*
X74478619Y-121388142D01*
X74621476Y-121292904D01*
X74811952Y-121245285D01*
X75192904Y-121245285D01*
X75288142Y-121292904D01*
X75335761Y-121340523D01*
X75383380Y-121435761D01*
X75383380Y-121626238D01*
X75335761Y-121721476D01*
X75288142Y-121769095D01*
X75192904Y-121816714D01*
X74954809Y-121816714D01*
X74859571Y-121769095D01*
X74811952Y-121721476D01*
X74764333Y-121626238D01*
X74764333Y-121435761D01*
X74811952Y-121340523D01*
X74859571Y-121292904D01*
X74954809Y-121245285D01*
X81588666Y-104750142D02*
X81636285Y-104797761D01*
X81779142Y-104845380D01*
X81874380Y-104845380D01*
X82017238Y-104797761D01*
X82112476Y-104702523D01*
X82160095Y-104607285D01*
X82207714Y-104416809D01*
X82207714Y-104273952D01*
X82160095Y-104083476D01*
X82112476Y-103988238D01*
X82017238Y-103893000D01*
X81874380Y-103845380D01*
X81779142Y-103845380D01*
X81636285Y-103893000D01*
X81588666Y-103940619D01*
X81255333Y-103845380D02*
X80636285Y-103845380D01*
X80969619Y-104226333D01*
X80826761Y-104226333D01*
X80731523Y-104273952D01*
X80683904Y-104321571D01*
X80636285Y-104416809D01*
X80636285Y-104654904D01*
X80683904Y-104750142D01*
X80731523Y-104797761D01*
X80826761Y-104845380D01*
X81112476Y-104845380D01*
X81207714Y-104797761D01*
X81255333Y-104750142D01*
X186284880Y-95940714D02*
X185284880Y-95940714D01*
X185284880Y-96178809D01*
X185332500Y-96321666D01*
X185427738Y-96416904D01*
X185522976Y-96464523D01*
X185713452Y-96512142D01*
X185856309Y-96512142D01*
X186046785Y-96464523D01*
X186142023Y-96416904D01*
X186237261Y-96321666D01*
X186284880Y-96178809D01*
X186284880Y-95940714D01*
X185380119Y-96893095D02*
X185332500Y-96940714D01*
X185284880Y-97035952D01*
X185284880Y-97274047D01*
X185332500Y-97369285D01*
X185380119Y-97416904D01*
X185475357Y-97464523D01*
X185570595Y-97464523D01*
X185713452Y-97416904D01*
X186284880Y-96845476D01*
X186284880Y-97464523D01*
X186284880Y-98416904D02*
X186284880Y-97845476D01*
X186284880Y-98131190D02*
X185284880Y-98131190D01*
X185427738Y-98035952D01*
X185522976Y-97940714D01*
X185570595Y-97845476D01*
X187078630Y-76890714D02*
X186078630Y-76890714D01*
X186078630Y-77128809D01*
X186126250Y-77271666D01*
X186221488Y-77366904D01*
X186316726Y-77414523D01*
X186507202Y-77462142D01*
X186650059Y-77462142D01*
X186840535Y-77414523D01*
X186935773Y-77366904D01*
X187031011Y-77271666D01*
X187078630Y-77128809D01*
X187078630Y-76890714D01*
X186173869Y-77843095D02*
X186126250Y-77890714D01*
X186078630Y-77985952D01*
X186078630Y-78224047D01*
X186126250Y-78319285D01*
X186173869Y-78366904D01*
X186269107Y-78414523D01*
X186364345Y-78414523D01*
X186507202Y-78366904D01*
X187078630Y-77795476D01*
X187078630Y-78414523D01*
X186078630Y-79033571D02*
X186078630Y-79128809D01*
X186126250Y-79224047D01*
X186173869Y-79271666D01*
X186269107Y-79319285D01*
X186459583Y-79366904D01*
X186697678Y-79366904D01*
X186888154Y-79319285D01*
X186983392Y-79271666D01*
X187031011Y-79224047D01*
X187078630Y-79128809D01*
X187078630Y-79033571D01*
X187031011Y-78938333D01*
X186983392Y-78890714D01*
X186888154Y-78843095D01*
X186697678Y-78795476D01*
X186459583Y-78795476D01*
X186269107Y-78843095D01*
X186173869Y-78890714D01*
X186126250Y-78938333D01*
X186078630Y-79033571D01*
X182316130Y-95940714D02*
X181316130Y-95940714D01*
X181316130Y-96178809D01*
X181363750Y-96321666D01*
X181458988Y-96416904D01*
X181554226Y-96464523D01*
X181744702Y-96512142D01*
X181887559Y-96512142D01*
X182078035Y-96464523D01*
X182173273Y-96416904D01*
X182268511Y-96321666D01*
X182316130Y-96178809D01*
X182316130Y-95940714D01*
X182316130Y-97464523D02*
X182316130Y-96893095D01*
X182316130Y-97178809D02*
X181316130Y-97178809D01*
X181458988Y-97083571D01*
X181554226Y-96988333D01*
X181601845Y-96893095D01*
X181744702Y-98035952D02*
X181697083Y-97940714D01*
X181649464Y-97893095D01*
X181554226Y-97845476D01*
X181506607Y-97845476D01*
X181411369Y-97893095D01*
X181363750Y-97940714D01*
X181316130Y-98035952D01*
X181316130Y-98226428D01*
X181363750Y-98321666D01*
X181411369Y-98369285D01*
X181506607Y-98416904D01*
X181554226Y-98416904D01*
X181649464Y-98369285D01*
X181697083Y-98321666D01*
X181744702Y-98226428D01*
X181744702Y-98035952D01*
X181792321Y-97940714D01*
X181839940Y-97893095D01*
X181935178Y-97845476D01*
X182125654Y-97845476D01*
X182220892Y-97893095D01*
X182268511Y-97940714D01*
X182316130Y-98035952D01*
X182316130Y-98226428D01*
X182268511Y-98321666D01*
X182220892Y-98369285D01*
X182125654Y-98416904D01*
X181935178Y-98416904D01*
X181839940Y-98369285D01*
X181792321Y-98321666D01*
X181744702Y-98226428D01*
X183109880Y-76890714D02*
X182109880Y-76890714D01*
X182109880Y-77128809D01*
X182157500Y-77271666D01*
X182252738Y-77366904D01*
X182347976Y-77414523D01*
X182538452Y-77462142D01*
X182681309Y-77462142D01*
X182871785Y-77414523D01*
X182967023Y-77366904D01*
X183062261Y-77271666D01*
X183109880Y-77128809D01*
X183109880Y-76890714D01*
X183109880Y-78414523D02*
X183109880Y-77843095D01*
X183109880Y-78128809D02*
X182109880Y-78128809D01*
X182252738Y-78033571D01*
X182347976Y-77938333D01*
X182395595Y-77843095D01*
X182109880Y-78747857D02*
X182109880Y-79414523D01*
X183109880Y-78985952D01*
X145803630Y-105465714D02*
X144803630Y-105465714D01*
X144803630Y-105703809D01*
X144851250Y-105846666D01*
X144946488Y-105941904D01*
X145041726Y-105989523D01*
X145232202Y-106037142D01*
X145375059Y-106037142D01*
X145565535Y-105989523D01*
X145660773Y-105941904D01*
X145756011Y-105846666D01*
X145803630Y-105703809D01*
X145803630Y-105465714D01*
X145803630Y-106989523D02*
X145803630Y-106418095D01*
X145803630Y-106703809D02*
X144803630Y-106703809D01*
X144946488Y-106608571D01*
X145041726Y-106513333D01*
X145089345Y-106418095D01*
X144803630Y-107894285D02*
X144803630Y-107418095D01*
X145279821Y-107370476D01*
X145232202Y-107418095D01*
X145184583Y-107513333D01*
X145184583Y-107751428D01*
X145232202Y-107846666D01*
X145279821Y-107894285D01*
X145375059Y-107941904D01*
X145613154Y-107941904D01*
X145708392Y-107894285D01*
X145756011Y-107846666D01*
X145803630Y-107751428D01*
X145803630Y-107513333D01*
X145756011Y-107418095D01*
X145708392Y-107370476D01*
X145803630Y-86415714D02*
X144803630Y-86415714D01*
X144803630Y-86653809D01*
X144851250Y-86796666D01*
X144946488Y-86891904D01*
X145041726Y-86939523D01*
X145232202Y-86987142D01*
X145375059Y-86987142D01*
X145565535Y-86939523D01*
X145660773Y-86891904D01*
X145756011Y-86796666D01*
X145803630Y-86653809D01*
X145803630Y-86415714D01*
X145803630Y-87939523D02*
X145803630Y-87368095D01*
X145803630Y-87653809D02*
X144803630Y-87653809D01*
X144946488Y-87558571D01*
X145041726Y-87463333D01*
X145089345Y-87368095D01*
X145136964Y-88796666D02*
X145803630Y-88796666D01*
X144756011Y-88558571D02*
X145470297Y-88320476D01*
X145470297Y-88939523D01*
X146597380Y-67365714D02*
X145597380Y-67365714D01*
X145597380Y-67603809D01*
X145645000Y-67746666D01*
X145740238Y-67841904D01*
X145835476Y-67889523D01*
X146025952Y-67937142D01*
X146168809Y-67937142D01*
X146359285Y-67889523D01*
X146454523Y-67841904D01*
X146549761Y-67746666D01*
X146597380Y-67603809D01*
X146597380Y-67365714D01*
X146597380Y-68889523D02*
X146597380Y-68318095D01*
X146597380Y-68603809D02*
X145597380Y-68603809D01*
X145740238Y-68508571D01*
X145835476Y-68413333D01*
X145883095Y-68318095D01*
X145597380Y-69222857D02*
X145597380Y-69841904D01*
X145978333Y-69508571D01*
X145978333Y-69651428D01*
X146025952Y-69746666D01*
X146073571Y-69794285D01*
X146168809Y-69841904D01*
X146406904Y-69841904D01*
X146502142Y-69794285D01*
X146549761Y-69746666D01*
X146597380Y-69651428D01*
X146597380Y-69365714D01*
X146549761Y-69270476D01*
X146502142Y-69222857D01*
X141834880Y-105465714D02*
X140834880Y-105465714D01*
X140834880Y-105703809D01*
X140882500Y-105846666D01*
X140977738Y-105941904D01*
X141072976Y-105989523D01*
X141263452Y-106037142D01*
X141406309Y-106037142D01*
X141596785Y-105989523D01*
X141692023Y-105941904D01*
X141787261Y-105846666D01*
X141834880Y-105703809D01*
X141834880Y-105465714D01*
X141834880Y-106989523D02*
X141834880Y-106418095D01*
X141834880Y-106703809D02*
X140834880Y-106703809D01*
X140977738Y-106608571D01*
X141072976Y-106513333D01*
X141120595Y-106418095D01*
X141834880Y-107941904D02*
X141834880Y-107370476D01*
X141834880Y-107656190D02*
X140834880Y-107656190D01*
X140977738Y-107560952D01*
X141072976Y-107465714D01*
X141120595Y-107370476D01*
X141834880Y-86415714D02*
X140834880Y-86415714D01*
X140834880Y-86653809D01*
X140882500Y-86796666D01*
X140977738Y-86891904D01*
X141072976Y-86939523D01*
X141263452Y-86987142D01*
X141406309Y-86987142D01*
X141596785Y-86939523D01*
X141692023Y-86891904D01*
X141787261Y-86796666D01*
X141834880Y-86653809D01*
X141834880Y-86415714D01*
X141834880Y-87939523D02*
X141834880Y-87368095D01*
X141834880Y-87653809D02*
X140834880Y-87653809D01*
X140977738Y-87558571D01*
X141072976Y-87463333D01*
X141120595Y-87368095D01*
X140834880Y-88558571D02*
X140834880Y-88653809D01*
X140882500Y-88749047D01*
X140930119Y-88796666D01*
X141025357Y-88844285D01*
X141215833Y-88891904D01*
X141453928Y-88891904D01*
X141644404Y-88844285D01*
X141739642Y-88796666D01*
X141787261Y-88749047D01*
X141834880Y-88653809D01*
X141834880Y-88558571D01*
X141787261Y-88463333D01*
X141739642Y-88415714D01*
X141644404Y-88368095D01*
X141453928Y-88320476D01*
X141215833Y-88320476D01*
X141025357Y-88368095D01*
X140930119Y-88415714D01*
X140882500Y-88463333D01*
X140834880Y-88558571D01*
X142628630Y-67841904D02*
X141628630Y-67841904D01*
X141628630Y-68080000D01*
X141676250Y-68222857D01*
X141771488Y-68318095D01*
X141866726Y-68365714D01*
X142057202Y-68413333D01*
X142200059Y-68413333D01*
X142390535Y-68365714D01*
X142485773Y-68318095D01*
X142581011Y-68222857D01*
X142628630Y-68080000D01*
X142628630Y-67841904D01*
X142628630Y-68889523D02*
X142628630Y-69080000D01*
X142581011Y-69175238D01*
X142533392Y-69222857D01*
X142390535Y-69318095D01*
X142200059Y-69365714D01*
X141819107Y-69365714D01*
X141723869Y-69318095D01*
X141676250Y-69270476D01*
X141628630Y-69175238D01*
X141628630Y-68984761D01*
X141676250Y-68889523D01*
X141723869Y-68841904D01*
X141819107Y-68794285D01*
X142057202Y-68794285D01*
X142152440Y-68841904D01*
X142200059Y-68889523D01*
X142247678Y-68984761D01*
X142247678Y-69175238D01*
X142200059Y-69270476D01*
X142152440Y-69318095D01*
X142057202Y-69365714D01*
X107703630Y-94829404D02*
X106703630Y-94829404D01*
X106703630Y-95067500D01*
X106751250Y-95210357D01*
X106846488Y-95305595D01*
X106941726Y-95353214D01*
X107132202Y-95400833D01*
X107275059Y-95400833D01*
X107465535Y-95353214D01*
X107560773Y-95305595D01*
X107656011Y-95210357D01*
X107703630Y-95067500D01*
X107703630Y-94829404D01*
X106703630Y-96257976D02*
X106703630Y-96067500D01*
X106751250Y-95972261D01*
X106798869Y-95924642D01*
X106941726Y-95829404D01*
X107132202Y-95781785D01*
X107513154Y-95781785D01*
X107608392Y-95829404D01*
X107656011Y-95877023D01*
X107703630Y-95972261D01*
X107703630Y-96162738D01*
X107656011Y-96257976D01*
X107608392Y-96305595D01*
X107513154Y-96353214D01*
X107275059Y-96353214D01*
X107179821Y-96305595D01*
X107132202Y-96257976D01*
X107084583Y-96162738D01*
X107084583Y-95972261D01*
X107132202Y-95877023D01*
X107179821Y-95829404D01*
X107275059Y-95781785D01*
X108497380Y-75779404D02*
X107497380Y-75779404D01*
X107497380Y-76017500D01*
X107545000Y-76160357D01*
X107640238Y-76255595D01*
X107735476Y-76303214D01*
X107925952Y-76350833D01*
X108068809Y-76350833D01*
X108259285Y-76303214D01*
X108354523Y-76255595D01*
X108449761Y-76160357D01*
X108497380Y-76017500D01*
X108497380Y-75779404D01*
X107497380Y-77255595D02*
X107497380Y-76779404D01*
X107973571Y-76731785D01*
X107925952Y-76779404D01*
X107878333Y-76874642D01*
X107878333Y-77112738D01*
X107925952Y-77207976D01*
X107973571Y-77255595D01*
X108068809Y-77303214D01*
X108306904Y-77303214D01*
X108402142Y-77255595D01*
X108449761Y-77207976D01*
X108497380Y-77112738D01*
X108497380Y-76874642D01*
X108449761Y-76779404D01*
X108402142Y-76731785D01*
X103734880Y-94829404D02*
X102734880Y-94829404D01*
X102734880Y-95067500D01*
X102782500Y-95210357D01*
X102877738Y-95305595D01*
X102972976Y-95353214D01*
X103163452Y-95400833D01*
X103306309Y-95400833D01*
X103496785Y-95353214D01*
X103592023Y-95305595D01*
X103687261Y-95210357D01*
X103734880Y-95067500D01*
X103734880Y-94829404D01*
X102830119Y-95781785D02*
X102782500Y-95829404D01*
X102734880Y-95924642D01*
X102734880Y-96162738D01*
X102782500Y-96257976D01*
X102830119Y-96305595D01*
X102925357Y-96353214D01*
X103020595Y-96353214D01*
X103163452Y-96305595D01*
X103734880Y-95734166D01*
X103734880Y-96353214D01*
X104528630Y-75779404D02*
X103528630Y-75779404D01*
X103528630Y-76017500D01*
X103576250Y-76160357D01*
X103671488Y-76255595D01*
X103766726Y-76303214D01*
X103957202Y-76350833D01*
X104100059Y-76350833D01*
X104290535Y-76303214D01*
X104385773Y-76255595D01*
X104481011Y-76160357D01*
X104528630Y-76017500D01*
X104528630Y-75779404D01*
X104528630Y-77303214D02*
X104528630Y-76731785D01*
X104528630Y-77017500D02*
X103528630Y-77017500D01*
X103671488Y-76922261D01*
X103766726Y-76827023D01*
X103814345Y-76731785D01*
%LPC*%
D12*
X99839403Y-136797699D03*
X90025597Y-139427301D03*
D13*
X91482409Y-134895844D03*
D14*
X94932500Y-138112500D03*
D13*
X91038666Y-135770497D03*
D15*
X90594922Y-136645149D02*
X91482410Y-134895845D01*
D13*
X96071151Y-132548196D03*
X96126890Y-132833491D03*
D15*
X96182629Y-133118786D02*
X96071151Y-132548196D01*
D16*
G36*
X85972141Y-101993297D02*
G01*
X85998278Y-101997174D01*
X86023909Y-102003594D01*
X86048788Y-102012495D01*
X86072674Y-102023793D01*
X86095337Y-102037377D01*
X86116560Y-102053117D01*
X86136139Y-102070861D01*
X86153883Y-102090440D01*
X86169623Y-102111663D01*
X86183207Y-102134326D01*
X86194505Y-102158212D01*
X86203406Y-102183091D01*
X86209826Y-102208722D01*
X86213703Y-102234859D01*
X86215000Y-102261250D01*
X86215000Y-103224750D01*
X86213703Y-103251141D01*
X86209826Y-103277278D01*
X86203406Y-103302909D01*
X86194505Y-103327788D01*
X86183207Y-103351674D01*
X86169623Y-103374337D01*
X86153883Y-103395560D01*
X86136139Y-103415139D01*
X86116560Y-103432883D01*
X86095337Y-103448623D01*
X86072674Y-103462207D01*
X86048788Y-103473505D01*
X86023909Y-103482406D01*
X85998278Y-103488826D01*
X85972141Y-103492703D01*
X85945750Y-103494000D01*
X85407250Y-103494000D01*
X85380859Y-103492703D01*
X85354722Y-103488826D01*
X85329091Y-103482406D01*
X85304212Y-103473505D01*
X85280326Y-103462207D01*
X85257663Y-103448623D01*
X85236440Y-103432883D01*
X85216861Y-103415139D01*
X85199117Y-103395560D01*
X85183377Y-103374337D01*
X85169793Y-103351674D01*
X85158495Y-103327788D01*
X85149594Y-103302909D01*
X85143174Y-103277278D01*
X85139297Y-103251141D01*
X85138000Y-103224750D01*
X85138000Y-102261250D01*
X85139297Y-102234859D01*
X85143174Y-102208722D01*
X85149594Y-102183091D01*
X85158495Y-102158212D01*
X85169793Y-102134326D01*
X85183377Y-102111663D01*
X85199117Y-102090440D01*
X85216861Y-102070861D01*
X85236440Y-102053117D01*
X85257663Y-102037377D01*
X85280326Y-102023793D01*
X85304212Y-102012495D01*
X85329091Y-102003594D01*
X85354722Y-101997174D01*
X85380859Y-101993297D01*
X85407250Y-101992000D01*
X85945750Y-101992000D01*
X85972141Y-101993297D01*
X85972141Y-101993297D01*
G37*
D17*
X85676500Y-102743000D03*
D16*
G36*
X87847141Y-101993297D02*
G01*
X87873278Y-101997174D01*
X87898909Y-102003594D01*
X87923788Y-102012495D01*
X87947674Y-102023793D01*
X87970337Y-102037377D01*
X87991560Y-102053117D01*
X88011139Y-102070861D01*
X88028883Y-102090440D01*
X88044623Y-102111663D01*
X88058207Y-102134326D01*
X88069505Y-102158212D01*
X88078406Y-102183091D01*
X88084826Y-102208722D01*
X88088703Y-102234859D01*
X88090000Y-102261250D01*
X88090000Y-103224750D01*
X88088703Y-103251141D01*
X88084826Y-103277278D01*
X88078406Y-103302909D01*
X88069505Y-103327788D01*
X88058207Y-103351674D01*
X88044623Y-103374337D01*
X88028883Y-103395560D01*
X88011139Y-103415139D01*
X87991560Y-103432883D01*
X87970337Y-103448623D01*
X87947674Y-103462207D01*
X87923788Y-103473505D01*
X87898909Y-103482406D01*
X87873278Y-103488826D01*
X87847141Y-103492703D01*
X87820750Y-103494000D01*
X87282250Y-103494000D01*
X87255859Y-103492703D01*
X87229722Y-103488826D01*
X87204091Y-103482406D01*
X87179212Y-103473505D01*
X87155326Y-103462207D01*
X87132663Y-103448623D01*
X87111440Y-103432883D01*
X87091861Y-103415139D01*
X87074117Y-103395560D01*
X87058377Y-103374337D01*
X87044793Y-103351674D01*
X87033495Y-103327788D01*
X87024594Y-103302909D01*
X87018174Y-103277278D01*
X87014297Y-103251141D01*
X87013000Y-103224750D01*
X87013000Y-102261250D01*
X87014297Y-102234859D01*
X87018174Y-102208722D01*
X87024594Y-102183091D01*
X87033495Y-102158212D01*
X87044793Y-102134326D01*
X87058377Y-102111663D01*
X87074117Y-102090440D01*
X87091861Y-102070861D01*
X87111440Y-102053117D01*
X87132663Y-102037377D01*
X87155326Y-102023793D01*
X87179212Y-102012495D01*
X87204091Y-102003594D01*
X87229722Y-101997174D01*
X87255859Y-101993297D01*
X87282250Y-101992000D01*
X87820750Y-101992000D01*
X87847141Y-101993297D01*
X87847141Y-101993297D01*
G37*
D17*
X87551500Y-102743000D03*
D16*
G36*
X91959641Y-130441297D02*
G01*
X91985778Y-130445174D01*
X92011409Y-130451594D01*
X92036288Y-130460495D01*
X92060174Y-130471793D01*
X92082837Y-130485377D01*
X92104060Y-130501117D01*
X92123639Y-130518861D01*
X92141383Y-130538440D01*
X92157123Y-130559663D01*
X92170707Y-130582326D01*
X92182005Y-130606212D01*
X92190906Y-130631091D01*
X92197326Y-130656722D01*
X92201203Y-130682859D01*
X92202500Y-130709250D01*
X92202500Y-131672750D01*
X92201203Y-131699141D01*
X92197326Y-131725278D01*
X92190906Y-131750909D01*
X92182005Y-131775788D01*
X92170707Y-131799674D01*
X92157123Y-131822337D01*
X92141383Y-131843560D01*
X92123639Y-131863139D01*
X92104060Y-131880883D01*
X92082837Y-131896623D01*
X92060174Y-131910207D01*
X92036288Y-131921505D01*
X92011409Y-131930406D01*
X91985778Y-131936826D01*
X91959641Y-131940703D01*
X91933250Y-131942000D01*
X91394750Y-131942000D01*
X91368359Y-131940703D01*
X91342222Y-131936826D01*
X91316591Y-131930406D01*
X91291712Y-131921505D01*
X91267826Y-131910207D01*
X91245163Y-131896623D01*
X91223940Y-131880883D01*
X91204361Y-131863139D01*
X91186617Y-131843560D01*
X91170877Y-131822337D01*
X91157293Y-131799674D01*
X91145995Y-131775788D01*
X91137094Y-131750909D01*
X91130674Y-131725278D01*
X91126797Y-131699141D01*
X91125500Y-131672750D01*
X91125500Y-130709250D01*
X91126797Y-130682859D01*
X91130674Y-130656722D01*
X91137094Y-130631091D01*
X91145995Y-130606212D01*
X91157293Y-130582326D01*
X91170877Y-130559663D01*
X91186617Y-130538440D01*
X91204361Y-130518861D01*
X91223940Y-130501117D01*
X91245163Y-130485377D01*
X91267826Y-130471793D01*
X91291712Y-130460495D01*
X91316591Y-130451594D01*
X91342222Y-130445174D01*
X91368359Y-130441297D01*
X91394750Y-130440000D01*
X91933250Y-130440000D01*
X91959641Y-130441297D01*
X91959641Y-130441297D01*
G37*
D17*
X91664000Y-131191000D03*
D16*
G36*
X90084641Y-130441297D02*
G01*
X90110778Y-130445174D01*
X90136409Y-130451594D01*
X90161288Y-130460495D01*
X90185174Y-130471793D01*
X90207837Y-130485377D01*
X90229060Y-130501117D01*
X90248639Y-130518861D01*
X90266383Y-130538440D01*
X90282123Y-130559663D01*
X90295707Y-130582326D01*
X90307005Y-130606212D01*
X90315906Y-130631091D01*
X90322326Y-130656722D01*
X90326203Y-130682859D01*
X90327500Y-130709250D01*
X90327500Y-131672750D01*
X90326203Y-131699141D01*
X90322326Y-131725278D01*
X90315906Y-131750909D01*
X90307005Y-131775788D01*
X90295707Y-131799674D01*
X90282123Y-131822337D01*
X90266383Y-131843560D01*
X90248639Y-131863139D01*
X90229060Y-131880883D01*
X90207837Y-131896623D01*
X90185174Y-131910207D01*
X90161288Y-131921505D01*
X90136409Y-131930406D01*
X90110778Y-131936826D01*
X90084641Y-131940703D01*
X90058250Y-131942000D01*
X89519750Y-131942000D01*
X89493359Y-131940703D01*
X89467222Y-131936826D01*
X89441591Y-131930406D01*
X89416712Y-131921505D01*
X89392826Y-131910207D01*
X89370163Y-131896623D01*
X89348940Y-131880883D01*
X89329361Y-131863139D01*
X89311617Y-131843560D01*
X89295877Y-131822337D01*
X89282293Y-131799674D01*
X89270995Y-131775788D01*
X89262094Y-131750909D01*
X89255674Y-131725278D01*
X89251797Y-131699141D01*
X89250500Y-131672750D01*
X89250500Y-130709250D01*
X89251797Y-130682859D01*
X89255674Y-130656722D01*
X89262094Y-130631091D01*
X89270995Y-130606212D01*
X89282293Y-130582326D01*
X89295877Y-130559663D01*
X89311617Y-130538440D01*
X89329361Y-130518861D01*
X89348940Y-130501117D01*
X89370163Y-130485377D01*
X89392826Y-130471793D01*
X89416712Y-130460495D01*
X89441591Y-130451594D01*
X89467222Y-130445174D01*
X89493359Y-130441297D01*
X89519750Y-130440000D01*
X90058250Y-130440000D01*
X90084641Y-130441297D01*
X90084641Y-130441297D01*
G37*
D17*
X89789000Y-131191000D03*
D12*
X195262500Y-108267500D03*
X185102500Y-108267500D03*
D13*
X187682500Y-104267500D03*
D14*
X190182500Y-108267500D03*
D13*
X187027501Y-104997500D03*
D15*
X186372500Y-105727500D02*
X187682502Y-104267500D01*
D13*
X192722500Y-103187500D03*
X192702500Y-103477500D03*
D15*
X192682500Y-103767500D02*
X192722500Y-103187500D01*
D18*
X104457500Y-128173750D03*
X104457500Y-124873750D03*
X105251250Y-113761250D03*
X105251250Y-117061250D03*
X101282500Y-113761250D03*
X101282500Y-117061250D03*
X109220000Y-128173750D03*
X109220000Y-124873750D03*
X139382500Y-123286250D03*
X139382500Y-126586250D03*
X179863750Y-114555000D03*
X179863750Y-117855000D03*
X183832500Y-114555000D03*
X183832500Y-117855000D03*
D12*
X119062500Y-113030000D03*
X108902500Y-113030000D03*
D13*
X111482500Y-109030000D03*
D14*
X113982500Y-113030000D03*
D13*
X110827501Y-109760000D03*
D15*
X110172500Y-110490000D02*
X111482502Y-109030000D01*
D13*
X116522500Y-107950000D03*
X116502500Y-108240000D03*
D15*
X116482500Y-108530000D02*
X116522500Y-107950000D01*
D18*
X143351250Y-123223750D03*
X143351250Y-126523750D03*
D12*
X138112500Y-119380000D03*
X127952500Y-119380000D03*
D13*
X130532500Y-115380000D03*
D14*
X133032500Y-119380000D03*
D13*
X129877501Y-116110000D03*
D15*
X129222500Y-116840000D02*
X130532502Y-115380000D01*
D13*
X135572500Y-114300000D03*
X135552500Y-114590000D03*
D15*
X135532500Y-114880000D02*
X135572500Y-114300000D01*
D12*
X100012500Y-108267500D03*
X89852500Y-108267500D03*
D13*
X92432500Y-104267500D03*
D14*
X94932500Y-108267500D03*
D13*
X91777501Y-104997500D03*
D15*
X91122500Y-105727500D02*
X92432502Y-104267500D01*
D13*
X97472500Y-103187500D03*
X97452500Y-103477500D03*
D15*
X97432500Y-103767500D02*
X97472500Y-103187500D01*
D12*
X157162500Y-124142500D03*
X147002500Y-124142500D03*
D13*
X149582500Y-120142500D03*
D14*
X152082500Y-124142500D03*
D13*
X148927501Y-120872500D03*
D15*
X148272500Y-121602500D02*
X149582502Y-120142500D01*
D13*
X154622500Y-119062500D03*
X154602500Y-119352500D03*
D15*
X154582500Y-119642500D02*
X154622500Y-119062500D01*
D12*
X118889403Y-133940199D03*
X109075597Y-136569801D03*
D13*
X110532409Y-132038344D03*
D14*
X113982500Y-135255000D03*
D13*
X110088666Y-132912997D03*
D15*
X109644922Y-133787649D02*
X110532410Y-132038345D01*
D13*
X115121151Y-129690696D03*
X115176890Y-129975991D03*
D15*
X115232629Y-130261286D02*
X115121151Y-129690696D01*
D12*
X157162500Y-105092500D03*
X147002500Y-105092500D03*
D13*
X149582500Y-101092500D03*
D14*
X152082500Y-105092500D03*
D13*
X148927501Y-101822500D03*
D15*
X148272500Y-102552500D02*
X149582502Y-101092500D01*
D13*
X154622500Y-100012500D03*
X154602500Y-100302500D03*
D15*
X154582500Y-100592500D02*
X154622500Y-100012500D01*
D12*
X176212500Y-111442500D03*
X166052500Y-111442500D03*
D13*
X168632500Y-107442500D03*
D14*
X171132500Y-111442500D03*
D13*
X167977501Y-108172500D03*
D15*
X167322500Y-108902500D02*
X168632502Y-107442500D01*
D13*
X173672500Y-106362500D03*
X173652500Y-106652500D03*
D15*
X173632500Y-106942500D02*
X173672500Y-106362500D01*
D16*
G36*
X82210641Y-130695297D02*
G01*
X82236778Y-130699174D01*
X82262409Y-130705594D01*
X82287288Y-130714495D01*
X82311174Y-130725793D01*
X82333837Y-130739377D01*
X82355060Y-130755117D01*
X82374639Y-130772861D01*
X82392383Y-130792440D01*
X82408123Y-130813663D01*
X82421707Y-130836326D01*
X82433005Y-130860212D01*
X82441906Y-130885091D01*
X82448326Y-130910722D01*
X82452203Y-130936859D01*
X82453500Y-130963250D01*
X82453500Y-131926750D01*
X82452203Y-131953141D01*
X82448326Y-131979278D01*
X82441906Y-132004909D01*
X82433005Y-132029788D01*
X82421707Y-132053674D01*
X82408123Y-132076337D01*
X82392383Y-132097560D01*
X82374639Y-132117139D01*
X82355060Y-132134883D01*
X82333837Y-132150623D01*
X82311174Y-132164207D01*
X82287288Y-132175505D01*
X82262409Y-132184406D01*
X82236778Y-132190826D01*
X82210641Y-132194703D01*
X82184250Y-132196000D01*
X81645750Y-132196000D01*
X81619359Y-132194703D01*
X81593222Y-132190826D01*
X81567591Y-132184406D01*
X81542712Y-132175505D01*
X81518826Y-132164207D01*
X81496163Y-132150623D01*
X81474940Y-132134883D01*
X81455361Y-132117139D01*
X81437617Y-132097560D01*
X81421877Y-132076337D01*
X81408293Y-132053674D01*
X81396995Y-132029788D01*
X81388094Y-132004909D01*
X81381674Y-131979278D01*
X81377797Y-131953141D01*
X81376500Y-131926750D01*
X81376500Y-130963250D01*
X81377797Y-130936859D01*
X81381674Y-130910722D01*
X81388094Y-130885091D01*
X81396995Y-130860212D01*
X81408293Y-130836326D01*
X81421877Y-130813663D01*
X81437617Y-130792440D01*
X81455361Y-130772861D01*
X81474940Y-130755117D01*
X81496163Y-130739377D01*
X81518826Y-130725793D01*
X81542712Y-130714495D01*
X81567591Y-130705594D01*
X81593222Y-130699174D01*
X81619359Y-130695297D01*
X81645750Y-130694000D01*
X82184250Y-130694000D01*
X82210641Y-130695297D01*
X82210641Y-130695297D01*
G37*
D17*
X81915000Y-131445000D03*
D16*
G36*
X80335641Y-130695297D02*
G01*
X80361778Y-130699174D01*
X80387409Y-130705594D01*
X80412288Y-130714495D01*
X80436174Y-130725793D01*
X80458837Y-130739377D01*
X80480060Y-130755117D01*
X80499639Y-130772861D01*
X80517383Y-130792440D01*
X80533123Y-130813663D01*
X80546707Y-130836326D01*
X80558005Y-130860212D01*
X80566906Y-130885091D01*
X80573326Y-130910722D01*
X80577203Y-130936859D01*
X80578500Y-130963250D01*
X80578500Y-131926750D01*
X80577203Y-131953141D01*
X80573326Y-131979278D01*
X80566906Y-132004909D01*
X80558005Y-132029788D01*
X80546707Y-132053674D01*
X80533123Y-132076337D01*
X80517383Y-132097560D01*
X80499639Y-132117139D01*
X80480060Y-132134883D01*
X80458837Y-132150623D01*
X80436174Y-132164207D01*
X80412288Y-132175505D01*
X80387409Y-132184406D01*
X80361778Y-132190826D01*
X80335641Y-132194703D01*
X80309250Y-132196000D01*
X79770750Y-132196000D01*
X79744359Y-132194703D01*
X79718222Y-132190826D01*
X79692591Y-132184406D01*
X79667712Y-132175505D01*
X79643826Y-132164207D01*
X79621163Y-132150623D01*
X79599940Y-132134883D01*
X79580361Y-132117139D01*
X79562617Y-132097560D01*
X79546877Y-132076337D01*
X79533293Y-132053674D01*
X79521995Y-132029788D01*
X79513094Y-132004909D01*
X79506674Y-131979278D01*
X79502797Y-131953141D01*
X79501500Y-131926750D01*
X79501500Y-130963250D01*
X79502797Y-130936859D01*
X79506674Y-130910722D01*
X79513094Y-130885091D01*
X79521995Y-130860212D01*
X79533293Y-130836326D01*
X79546877Y-130813663D01*
X79562617Y-130792440D01*
X79580361Y-130772861D01*
X79599940Y-130755117D01*
X79621163Y-130739377D01*
X79643826Y-130725793D01*
X79667712Y-130714495D01*
X79692591Y-130705594D01*
X79718222Y-130699174D01*
X79744359Y-130695297D01*
X79770750Y-130694000D01*
X80309250Y-130694000D01*
X80335641Y-130695297D01*
X80335641Y-130695297D01*
G37*
D17*
X80040000Y-131445000D03*
D16*
G36*
X77089141Y-115316797D02*
G01*
X77115278Y-115320674D01*
X77140909Y-115327094D01*
X77165788Y-115335995D01*
X77189674Y-115347293D01*
X77212337Y-115360877D01*
X77233560Y-115376617D01*
X77253139Y-115394361D01*
X77270883Y-115413940D01*
X77286623Y-115435163D01*
X77300207Y-115457826D01*
X77311505Y-115481712D01*
X77320406Y-115506591D01*
X77326826Y-115532222D01*
X77330703Y-115558359D01*
X77332000Y-115584750D01*
X77332000Y-116123250D01*
X77330703Y-116149641D01*
X77326826Y-116175778D01*
X77320406Y-116201409D01*
X77311505Y-116226288D01*
X77300207Y-116250174D01*
X77286623Y-116272837D01*
X77270883Y-116294060D01*
X77253139Y-116313639D01*
X77233560Y-116331383D01*
X77212337Y-116347123D01*
X77189674Y-116360707D01*
X77165788Y-116372005D01*
X77140909Y-116380906D01*
X77115278Y-116387326D01*
X77089141Y-116391203D01*
X77062750Y-116392500D01*
X76099250Y-116392500D01*
X76072859Y-116391203D01*
X76046722Y-116387326D01*
X76021091Y-116380906D01*
X75996212Y-116372005D01*
X75972326Y-116360707D01*
X75949663Y-116347123D01*
X75928440Y-116331383D01*
X75908861Y-116313639D01*
X75891117Y-116294060D01*
X75875377Y-116272837D01*
X75861793Y-116250174D01*
X75850495Y-116226288D01*
X75841594Y-116201409D01*
X75835174Y-116175778D01*
X75831297Y-116149641D01*
X75830000Y-116123250D01*
X75830000Y-115584750D01*
X75831297Y-115558359D01*
X75835174Y-115532222D01*
X75841594Y-115506591D01*
X75850495Y-115481712D01*
X75861793Y-115457826D01*
X75875377Y-115435163D01*
X75891117Y-115413940D01*
X75908861Y-115394361D01*
X75928440Y-115376617D01*
X75949663Y-115360877D01*
X75972326Y-115347293D01*
X75996212Y-115335995D01*
X76021091Y-115327094D01*
X76046722Y-115320674D01*
X76072859Y-115316797D01*
X76099250Y-115315500D01*
X77062750Y-115315500D01*
X77089141Y-115316797D01*
X77089141Y-115316797D01*
G37*
D17*
X76581000Y-115854000D03*
D16*
G36*
X77089141Y-117191797D02*
G01*
X77115278Y-117195674D01*
X77140909Y-117202094D01*
X77165788Y-117210995D01*
X77189674Y-117222293D01*
X77212337Y-117235877D01*
X77233560Y-117251617D01*
X77253139Y-117269361D01*
X77270883Y-117288940D01*
X77286623Y-117310163D01*
X77300207Y-117332826D01*
X77311505Y-117356712D01*
X77320406Y-117381591D01*
X77326826Y-117407222D01*
X77330703Y-117433359D01*
X77332000Y-117459750D01*
X77332000Y-117998250D01*
X77330703Y-118024641D01*
X77326826Y-118050778D01*
X77320406Y-118076409D01*
X77311505Y-118101288D01*
X77300207Y-118125174D01*
X77286623Y-118147837D01*
X77270883Y-118169060D01*
X77253139Y-118188639D01*
X77233560Y-118206383D01*
X77212337Y-118222123D01*
X77189674Y-118235707D01*
X77165788Y-118247005D01*
X77140909Y-118255906D01*
X77115278Y-118262326D01*
X77089141Y-118266203D01*
X77062750Y-118267500D01*
X76099250Y-118267500D01*
X76072859Y-118266203D01*
X76046722Y-118262326D01*
X76021091Y-118255906D01*
X75996212Y-118247005D01*
X75972326Y-118235707D01*
X75949663Y-118222123D01*
X75928440Y-118206383D01*
X75908861Y-118188639D01*
X75891117Y-118169060D01*
X75875377Y-118147837D01*
X75861793Y-118125174D01*
X75850495Y-118101288D01*
X75841594Y-118076409D01*
X75835174Y-118050778D01*
X75831297Y-118024641D01*
X75830000Y-117998250D01*
X75830000Y-117459750D01*
X75831297Y-117433359D01*
X75835174Y-117407222D01*
X75841594Y-117381591D01*
X75850495Y-117356712D01*
X75861793Y-117332826D01*
X75875377Y-117310163D01*
X75891117Y-117288940D01*
X75908861Y-117269361D01*
X75928440Y-117251617D01*
X75949663Y-117235877D01*
X75972326Y-117222293D01*
X75996212Y-117210995D01*
X76021091Y-117202094D01*
X76046722Y-117195674D01*
X76072859Y-117191797D01*
X76099250Y-117190500D01*
X77062750Y-117190500D01*
X77089141Y-117191797D01*
X77089141Y-117191797D01*
G37*
D17*
X76581000Y-117729000D03*
D16*
G36*
X91354641Y-112851797D02*
G01*
X91380778Y-112855674D01*
X91406409Y-112862094D01*
X91431288Y-112870995D01*
X91455174Y-112882293D01*
X91477837Y-112895877D01*
X91499060Y-112911617D01*
X91518639Y-112929361D01*
X91536383Y-112948940D01*
X91552123Y-112970163D01*
X91565707Y-112992826D01*
X91577005Y-113016712D01*
X91585906Y-113041591D01*
X91592326Y-113067222D01*
X91596203Y-113093359D01*
X91597500Y-113119750D01*
X91597500Y-114083250D01*
X91596203Y-114109641D01*
X91592326Y-114135778D01*
X91585906Y-114161409D01*
X91577005Y-114186288D01*
X91565707Y-114210174D01*
X91552123Y-114232837D01*
X91536383Y-114254060D01*
X91518639Y-114273639D01*
X91499060Y-114291383D01*
X91477837Y-114307123D01*
X91455174Y-114320707D01*
X91431288Y-114332005D01*
X91406409Y-114340906D01*
X91380778Y-114347326D01*
X91354641Y-114351203D01*
X91328250Y-114352500D01*
X90789750Y-114352500D01*
X90763359Y-114351203D01*
X90737222Y-114347326D01*
X90711591Y-114340906D01*
X90686712Y-114332005D01*
X90662826Y-114320707D01*
X90640163Y-114307123D01*
X90618940Y-114291383D01*
X90599361Y-114273639D01*
X90581617Y-114254060D01*
X90565877Y-114232837D01*
X90552293Y-114210174D01*
X90540995Y-114186288D01*
X90532094Y-114161409D01*
X90525674Y-114135778D01*
X90521797Y-114109641D01*
X90520500Y-114083250D01*
X90520500Y-113119750D01*
X90521797Y-113093359D01*
X90525674Y-113067222D01*
X90532094Y-113041591D01*
X90540995Y-113016712D01*
X90552293Y-112992826D01*
X90565877Y-112970163D01*
X90581617Y-112948940D01*
X90599361Y-112929361D01*
X90618940Y-112911617D01*
X90640163Y-112895877D01*
X90662826Y-112882293D01*
X90686712Y-112870995D01*
X90711591Y-112862094D01*
X90737222Y-112855674D01*
X90763359Y-112851797D01*
X90789750Y-112850500D01*
X91328250Y-112850500D01*
X91354641Y-112851797D01*
X91354641Y-112851797D01*
G37*
D17*
X91059000Y-113601500D03*
D16*
G36*
X93229641Y-112851797D02*
G01*
X93255778Y-112855674D01*
X93281409Y-112862094D01*
X93306288Y-112870995D01*
X93330174Y-112882293D01*
X93352837Y-112895877D01*
X93374060Y-112911617D01*
X93393639Y-112929361D01*
X93411383Y-112948940D01*
X93427123Y-112970163D01*
X93440707Y-112992826D01*
X93452005Y-113016712D01*
X93460906Y-113041591D01*
X93467326Y-113067222D01*
X93471203Y-113093359D01*
X93472500Y-113119750D01*
X93472500Y-114083250D01*
X93471203Y-114109641D01*
X93467326Y-114135778D01*
X93460906Y-114161409D01*
X93452005Y-114186288D01*
X93440707Y-114210174D01*
X93427123Y-114232837D01*
X93411383Y-114254060D01*
X93393639Y-114273639D01*
X93374060Y-114291383D01*
X93352837Y-114307123D01*
X93330174Y-114320707D01*
X93306288Y-114332005D01*
X93281409Y-114340906D01*
X93255778Y-114347326D01*
X93229641Y-114351203D01*
X93203250Y-114352500D01*
X92664750Y-114352500D01*
X92638359Y-114351203D01*
X92612222Y-114347326D01*
X92586591Y-114340906D01*
X92561712Y-114332005D01*
X92537826Y-114320707D01*
X92515163Y-114307123D01*
X92493940Y-114291383D01*
X92474361Y-114273639D01*
X92456617Y-114254060D01*
X92440877Y-114232837D01*
X92427293Y-114210174D01*
X92415995Y-114186288D01*
X92407094Y-114161409D01*
X92400674Y-114135778D01*
X92396797Y-114109641D01*
X92395500Y-114083250D01*
X92395500Y-113119750D01*
X92396797Y-113093359D01*
X92400674Y-113067222D01*
X92407094Y-113041591D01*
X92415995Y-113016712D01*
X92427293Y-112992826D01*
X92440877Y-112970163D01*
X92456617Y-112948940D01*
X92474361Y-112929361D01*
X92493940Y-112911617D01*
X92515163Y-112895877D01*
X92537826Y-112882293D01*
X92561712Y-112870995D01*
X92586591Y-112862094D01*
X92612222Y-112855674D01*
X92638359Y-112851797D01*
X92664750Y-112850500D01*
X93203250Y-112850500D01*
X93229641Y-112851797D01*
X93229641Y-112851797D01*
G37*
D17*
X92934000Y-113601500D03*
D16*
G36*
X82307641Y-112661297D02*
G01*
X82333778Y-112665174D01*
X82359409Y-112671594D01*
X82384288Y-112680495D01*
X82408174Y-112691793D01*
X82430837Y-112705377D01*
X82452060Y-112721117D01*
X82471639Y-112738861D01*
X82489383Y-112758440D01*
X82505123Y-112779663D01*
X82518707Y-112802326D01*
X82530005Y-112826212D01*
X82538906Y-112851091D01*
X82545326Y-112876722D01*
X82549203Y-112902859D01*
X82550500Y-112929250D01*
X82550500Y-113892750D01*
X82549203Y-113919141D01*
X82545326Y-113945278D01*
X82538906Y-113970909D01*
X82530005Y-113995788D01*
X82518707Y-114019674D01*
X82505123Y-114042337D01*
X82489383Y-114063560D01*
X82471639Y-114083139D01*
X82452060Y-114100883D01*
X82430837Y-114116623D01*
X82408174Y-114130207D01*
X82384288Y-114141505D01*
X82359409Y-114150406D01*
X82333778Y-114156826D01*
X82307641Y-114160703D01*
X82281250Y-114162000D01*
X81742750Y-114162000D01*
X81716359Y-114160703D01*
X81690222Y-114156826D01*
X81664591Y-114150406D01*
X81639712Y-114141505D01*
X81615826Y-114130207D01*
X81593163Y-114116623D01*
X81571940Y-114100883D01*
X81552361Y-114083139D01*
X81534617Y-114063560D01*
X81518877Y-114042337D01*
X81505293Y-114019674D01*
X81493995Y-113995788D01*
X81485094Y-113970909D01*
X81478674Y-113945278D01*
X81474797Y-113919141D01*
X81473500Y-113892750D01*
X81473500Y-112929250D01*
X81474797Y-112902859D01*
X81478674Y-112876722D01*
X81485094Y-112851091D01*
X81493995Y-112826212D01*
X81505293Y-112802326D01*
X81518877Y-112779663D01*
X81534617Y-112758440D01*
X81552361Y-112738861D01*
X81571940Y-112721117D01*
X81593163Y-112705377D01*
X81615826Y-112691793D01*
X81639712Y-112680495D01*
X81664591Y-112671594D01*
X81690222Y-112665174D01*
X81716359Y-112661297D01*
X81742750Y-112660000D01*
X82281250Y-112660000D01*
X82307641Y-112661297D01*
X82307641Y-112661297D01*
G37*
D17*
X82012000Y-113411000D03*
D16*
G36*
X80432641Y-112661297D02*
G01*
X80458778Y-112665174D01*
X80484409Y-112671594D01*
X80509288Y-112680495D01*
X80533174Y-112691793D01*
X80555837Y-112705377D01*
X80577060Y-112721117D01*
X80596639Y-112738861D01*
X80614383Y-112758440D01*
X80630123Y-112779663D01*
X80643707Y-112802326D01*
X80655005Y-112826212D01*
X80663906Y-112851091D01*
X80670326Y-112876722D01*
X80674203Y-112902859D01*
X80675500Y-112929250D01*
X80675500Y-113892750D01*
X80674203Y-113919141D01*
X80670326Y-113945278D01*
X80663906Y-113970909D01*
X80655005Y-113995788D01*
X80643707Y-114019674D01*
X80630123Y-114042337D01*
X80614383Y-114063560D01*
X80596639Y-114083139D01*
X80577060Y-114100883D01*
X80555837Y-114116623D01*
X80533174Y-114130207D01*
X80509288Y-114141505D01*
X80484409Y-114150406D01*
X80458778Y-114156826D01*
X80432641Y-114160703D01*
X80406250Y-114162000D01*
X79867750Y-114162000D01*
X79841359Y-114160703D01*
X79815222Y-114156826D01*
X79789591Y-114150406D01*
X79764712Y-114141505D01*
X79740826Y-114130207D01*
X79718163Y-114116623D01*
X79696940Y-114100883D01*
X79677361Y-114083139D01*
X79659617Y-114063560D01*
X79643877Y-114042337D01*
X79630293Y-114019674D01*
X79618995Y-113995788D01*
X79610094Y-113970909D01*
X79603674Y-113945278D01*
X79599797Y-113919141D01*
X79598500Y-113892750D01*
X79598500Y-112929250D01*
X79599797Y-112902859D01*
X79603674Y-112876722D01*
X79610094Y-112851091D01*
X79618995Y-112826212D01*
X79630293Y-112802326D01*
X79643877Y-112779663D01*
X79659617Y-112758440D01*
X79677361Y-112738861D01*
X79696940Y-112721117D01*
X79718163Y-112705377D01*
X79740826Y-112691793D01*
X79764712Y-112680495D01*
X79789591Y-112671594D01*
X79815222Y-112665174D01*
X79841359Y-112661297D01*
X79867750Y-112660000D01*
X80406250Y-112660000D01*
X80432641Y-112661297D01*
X80432641Y-112661297D01*
G37*
D17*
X80137000Y-113411000D03*
D19*
X84709000Y-109093000D03*
X84709000Y-106193000D03*
X82409000Y-106193000D03*
X82409000Y-109093000D03*
D20*
X81471000Y-127747000D03*
X82271000Y-127747000D03*
X83071000Y-127747000D03*
X83871000Y-127747000D03*
X84671000Y-127747000D03*
X85471000Y-127747000D03*
X86271000Y-127747000D03*
X87071000Y-127747000D03*
X87871000Y-127747000D03*
X88671000Y-127747000D03*
X89471000Y-127747000D03*
D21*
X91171000Y-126047000D03*
X91171000Y-125247000D03*
X91171000Y-124447000D03*
X91171000Y-123647000D03*
X91171000Y-122847000D03*
X91171000Y-122047000D03*
X91171000Y-121247000D03*
X91171000Y-120447000D03*
X91171000Y-119647000D03*
X91171000Y-118847000D03*
X91171000Y-118047000D03*
D20*
X89471000Y-116347000D03*
X88671000Y-116347000D03*
X87871000Y-116347000D03*
X87071000Y-116347000D03*
X86271000Y-116347000D03*
X85471000Y-116347000D03*
X84671000Y-116347000D03*
X83871000Y-116347000D03*
X83071000Y-116347000D03*
X82271000Y-116347000D03*
X81471000Y-116347000D03*
D21*
X79771000Y-118047000D03*
X79771000Y-118847000D03*
X79771000Y-119647000D03*
X79771000Y-120447000D03*
X79771000Y-121247000D03*
X79771000Y-122047000D03*
X79771000Y-122847000D03*
X79771000Y-123647000D03*
X79771000Y-124447000D03*
X79771000Y-125247000D03*
X79771000Y-126047000D03*
D16*
G36*
X78654641Y-112534297D02*
G01*
X78680778Y-112538174D01*
X78706409Y-112544594D01*
X78731288Y-112553495D01*
X78755174Y-112564793D01*
X78777837Y-112578377D01*
X78799060Y-112594117D01*
X78818639Y-112611861D01*
X78836383Y-112631440D01*
X78852123Y-112652663D01*
X78865707Y-112675326D01*
X78877005Y-112699212D01*
X78885906Y-112724091D01*
X78892326Y-112749722D01*
X78896203Y-112775859D01*
X78897500Y-112802250D01*
X78897500Y-113765750D01*
X78896203Y-113792141D01*
X78892326Y-113818278D01*
X78885906Y-113843909D01*
X78877005Y-113868788D01*
X78865707Y-113892674D01*
X78852123Y-113915337D01*
X78836383Y-113936560D01*
X78818639Y-113956139D01*
X78799060Y-113973883D01*
X78777837Y-113989623D01*
X78755174Y-114003207D01*
X78731288Y-114014505D01*
X78706409Y-114023406D01*
X78680778Y-114029826D01*
X78654641Y-114033703D01*
X78628250Y-114035000D01*
X78089750Y-114035000D01*
X78063359Y-114033703D01*
X78037222Y-114029826D01*
X78011591Y-114023406D01*
X77986712Y-114014505D01*
X77962826Y-114003207D01*
X77940163Y-113989623D01*
X77918940Y-113973883D01*
X77899361Y-113956139D01*
X77881617Y-113936560D01*
X77865877Y-113915337D01*
X77852293Y-113892674D01*
X77840995Y-113868788D01*
X77832094Y-113843909D01*
X77825674Y-113818278D01*
X77821797Y-113792141D01*
X77820500Y-113765750D01*
X77820500Y-112802250D01*
X77821797Y-112775859D01*
X77825674Y-112749722D01*
X77832094Y-112724091D01*
X77840995Y-112699212D01*
X77852293Y-112675326D01*
X77865877Y-112652663D01*
X77881617Y-112631440D01*
X77899361Y-112611861D01*
X77918940Y-112594117D01*
X77940163Y-112578377D01*
X77962826Y-112564793D01*
X77986712Y-112553495D01*
X78011591Y-112544594D01*
X78037222Y-112538174D01*
X78063359Y-112534297D01*
X78089750Y-112533000D01*
X78628250Y-112533000D01*
X78654641Y-112534297D01*
X78654641Y-112534297D01*
G37*
D17*
X78359000Y-113284000D03*
D16*
G36*
X76779641Y-112534297D02*
G01*
X76805778Y-112538174D01*
X76831409Y-112544594D01*
X76856288Y-112553495D01*
X76880174Y-112564793D01*
X76902837Y-112578377D01*
X76924060Y-112594117D01*
X76943639Y-112611861D01*
X76961383Y-112631440D01*
X76977123Y-112652663D01*
X76990707Y-112675326D01*
X77002005Y-112699212D01*
X77010906Y-112724091D01*
X77017326Y-112749722D01*
X77021203Y-112775859D01*
X77022500Y-112802250D01*
X77022500Y-113765750D01*
X77021203Y-113792141D01*
X77017326Y-113818278D01*
X77010906Y-113843909D01*
X77002005Y-113868788D01*
X76990707Y-113892674D01*
X76977123Y-113915337D01*
X76961383Y-113936560D01*
X76943639Y-113956139D01*
X76924060Y-113973883D01*
X76902837Y-113989623D01*
X76880174Y-114003207D01*
X76856288Y-114014505D01*
X76831409Y-114023406D01*
X76805778Y-114029826D01*
X76779641Y-114033703D01*
X76753250Y-114035000D01*
X76214750Y-114035000D01*
X76188359Y-114033703D01*
X76162222Y-114029826D01*
X76136591Y-114023406D01*
X76111712Y-114014505D01*
X76087826Y-114003207D01*
X76065163Y-113989623D01*
X76043940Y-113973883D01*
X76024361Y-113956139D01*
X76006617Y-113936560D01*
X75990877Y-113915337D01*
X75977293Y-113892674D01*
X75965995Y-113868788D01*
X75957094Y-113843909D01*
X75950674Y-113818278D01*
X75946797Y-113792141D01*
X75945500Y-113765750D01*
X75945500Y-112802250D01*
X75946797Y-112775859D01*
X75950674Y-112749722D01*
X75957094Y-112724091D01*
X75965995Y-112699212D01*
X75977293Y-112675326D01*
X75990877Y-112652663D01*
X76006617Y-112631440D01*
X76024361Y-112611861D01*
X76043940Y-112594117D01*
X76065163Y-112578377D01*
X76087826Y-112564793D01*
X76111712Y-112553495D01*
X76136591Y-112544594D01*
X76162222Y-112538174D01*
X76188359Y-112534297D01*
X76214750Y-112533000D01*
X76753250Y-112533000D01*
X76779641Y-112534297D01*
X76779641Y-112534297D01*
G37*
D17*
X76484000Y-113284000D03*
D16*
G36*
X77089141Y-121431297D02*
G01*
X77115278Y-121435174D01*
X77140909Y-121441594D01*
X77165788Y-121450495D01*
X77189674Y-121461793D01*
X77212337Y-121475377D01*
X77233560Y-121491117D01*
X77253139Y-121508861D01*
X77270883Y-121528440D01*
X77286623Y-121549663D01*
X77300207Y-121572326D01*
X77311505Y-121596212D01*
X77320406Y-121621091D01*
X77326826Y-121646722D01*
X77330703Y-121672859D01*
X77332000Y-121699250D01*
X77332000Y-122237750D01*
X77330703Y-122264141D01*
X77326826Y-122290278D01*
X77320406Y-122315909D01*
X77311505Y-122340788D01*
X77300207Y-122364674D01*
X77286623Y-122387337D01*
X77270883Y-122408560D01*
X77253139Y-122428139D01*
X77233560Y-122445883D01*
X77212337Y-122461623D01*
X77189674Y-122475207D01*
X77165788Y-122486505D01*
X77140909Y-122495406D01*
X77115278Y-122501826D01*
X77089141Y-122505703D01*
X77062750Y-122507000D01*
X76099250Y-122507000D01*
X76072859Y-122505703D01*
X76046722Y-122501826D01*
X76021091Y-122495406D01*
X75996212Y-122486505D01*
X75972326Y-122475207D01*
X75949663Y-122461623D01*
X75928440Y-122445883D01*
X75908861Y-122428139D01*
X75891117Y-122408560D01*
X75875377Y-122387337D01*
X75861793Y-122364674D01*
X75850495Y-122340788D01*
X75841594Y-122315909D01*
X75835174Y-122290278D01*
X75831297Y-122264141D01*
X75830000Y-122237750D01*
X75830000Y-121699250D01*
X75831297Y-121672859D01*
X75835174Y-121646722D01*
X75841594Y-121621091D01*
X75850495Y-121596212D01*
X75861793Y-121572326D01*
X75875377Y-121549663D01*
X75891117Y-121528440D01*
X75908861Y-121508861D01*
X75928440Y-121491117D01*
X75949663Y-121475377D01*
X75972326Y-121461793D01*
X75996212Y-121450495D01*
X76021091Y-121441594D01*
X76046722Y-121435174D01*
X76072859Y-121431297D01*
X76099250Y-121430000D01*
X77062750Y-121430000D01*
X77089141Y-121431297D01*
X77089141Y-121431297D01*
G37*
D17*
X76581000Y-121968500D03*
D16*
G36*
X77089141Y-119556297D02*
G01*
X77115278Y-119560174D01*
X77140909Y-119566594D01*
X77165788Y-119575495D01*
X77189674Y-119586793D01*
X77212337Y-119600377D01*
X77233560Y-119616117D01*
X77253139Y-119633861D01*
X77270883Y-119653440D01*
X77286623Y-119674663D01*
X77300207Y-119697326D01*
X77311505Y-119721212D01*
X77320406Y-119746091D01*
X77326826Y-119771722D01*
X77330703Y-119797859D01*
X77332000Y-119824250D01*
X77332000Y-120362750D01*
X77330703Y-120389141D01*
X77326826Y-120415278D01*
X77320406Y-120440909D01*
X77311505Y-120465788D01*
X77300207Y-120489674D01*
X77286623Y-120512337D01*
X77270883Y-120533560D01*
X77253139Y-120553139D01*
X77233560Y-120570883D01*
X77212337Y-120586623D01*
X77189674Y-120600207D01*
X77165788Y-120611505D01*
X77140909Y-120620406D01*
X77115278Y-120626826D01*
X77089141Y-120630703D01*
X77062750Y-120632000D01*
X76099250Y-120632000D01*
X76072859Y-120630703D01*
X76046722Y-120626826D01*
X76021091Y-120620406D01*
X75996212Y-120611505D01*
X75972326Y-120600207D01*
X75949663Y-120586623D01*
X75928440Y-120570883D01*
X75908861Y-120553139D01*
X75891117Y-120533560D01*
X75875377Y-120512337D01*
X75861793Y-120489674D01*
X75850495Y-120465788D01*
X75841594Y-120440909D01*
X75835174Y-120415278D01*
X75831297Y-120389141D01*
X75830000Y-120362750D01*
X75830000Y-119824250D01*
X75831297Y-119797859D01*
X75835174Y-119771722D01*
X75841594Y-119746091D01*
X75850495Y-119721212D01*
X75861793Y-119697326D01*
X75875377Y-119674663D01*
X75891117Y-119653440D01*
X75908861Y-119633861D01*
X75928440Y-119616117D01*
X75949663Y-119600377D01*
X75972326Y-119586793D01*
X75996212Y-119575495D01*
X76021091Y-119566594D01*
X76046722Y-119560174D01*
X76072859Y-119556297D01*
X76099250Y-119555000D01*
X77062750Y-119555000D01*
X77089141Y-119556297D01*
X77089141Y-119556297D01*
G37*
D17*
X76581000Y-120093500D03*
D16*
G36*
X82655141Y-101993297D02*
G01*
X82681278Y-101997174D01*
X82706909Y-102003594D01*
X82731788Y-102012495D01*
X82755674Y-102023793D01*
X82778337Y-102037377D01*
X82799560Y-102053117D01*
X82819139Y-102070861D01*
X82836883Y-102090440D01*
X82852623Y-102111663D01*
X82866207Y-102134326D01*
X82877505Y-102158212D01*
X82886406Y-102183091D01*
X82892826Y-102208722D01*
X82896703Y-102234859D01*
X82898000Y-102261250D01*
X82898000Y-103224750D01*
X82896703Y-103251141D01*
X82892826Y-103277278D01*
X82886406Y-103302909D01*
X82877505Y-103327788D01*
X82866207Y-103351674D01*
X82852623Y-103374337D01*
X82836883Y-103395560D01*
X82819139Y-103415139D01*
X82799560Y-103432883D01*
X82778337Y-103448623D01*
X82755674Y-103462207D01*
X82731788Y-103473505D01*
X82706909Y-103482406D01*
X82681278Y-103488826D01*
X82655141Y-103492703D01*
X82628750Y-103494000D01*
X82090250Y-103494000D01*
X82063859Y-103492703D01*
X82037722Y-103488826D01*
X82012091Y-103482406D01*
X81987212Y-103473505D01*
X81963326Y-103462207D01*
X81940663Y-103448623D01*
X81919440Y-103432883D01*
X81899861Y-103415139D01*
X81882117Y-103395560D01*
X81866377Y-103374337D01*
X81852793Y-103351674D01*
X81841495Y-103327788D01*
X81832594Y-103302909D01*
X81826174Y-103277278D01*
X81822297Y-103251141D01*
X81821000Y-103224750D01*
X81821000Y-102261250D01*
X81822297Y-102234859D01*
X81826174Y-102208722D01*
X81832594Y-102183091D01*
X81841495Y-102158212D01*
X81852793Y-102134326D01*
X81866377Y-102111663D01*
X81882117Y-102090440D01*
X81899861Y-102070861D01*
X81919440Y-102053117D01*
X81940663Y-102037377D01*
X81963326Y-102023793D01*
X81987212Y-102012495D01*
X82012091Y-102003594D01*
X82037722Y-101997174D01*
X82063859Y-101993297D01*
X82090250Y-101992000D01*
X82628750Y-101992000D01*
X82655141Y-101993297D01*
X82655141Y-101993297D01*
G37*
D17*
X82359500Y-102743000D03*
D16*
G36*
X80780141Y-101993297D02*
G01*
X80806278Y-101997174D01*
X80831909Y-102003594D01*
X80856788Y-102012495D01*
X80880674Y-102023793D01*
X80903337Y-102037377D01*
X80924560Y-102053117D01*
X80944139Y-102070861D01*
X80961883Y-102090440D01*
X80977623Y-102111663D01*
X80991207Y-102134326D01*
X81002505Y-102158212D01*
X81011406Y-102183091D01*
X81017826Y-102208722D01*
X81021703Y-102234859D01*
X81023000Y-102261250D01*
X81023000Y-103224750D01*
X81021703Y-103251141D01*
X81017826Y-103277278D01*
X81011406Y-103302909D01*
X81002505Y-103327788D01*
X80991207Y-103351674D01*
X80977623Y-103374337D01*
X80961883Y-103395560D01*
X80944139Y-103415139D01*
X80924560Y-103432883D01*
X80903337Y-103448623D01*
X80880674Y-103462207D01*
X80856788Y-103473505D01*
X80831909Y-103482406D01*
X80806278Y-103488826D01*
X80780141Y-103492703D01*
X80753750Y-103494000D01*
X80215250Y-103494000D01*
X80188859Y-103492703D01*
X80162722Y-103488826D01*
X80137091Y-103482406D01*
X80112212Y-103473505D01*
X80088326Y-103462207D01*
X80065663Y-103448623D01*
X80044440Y-103432883D01*
X80024861Y-103415139D01*
X80007117Y-103395560D01*
X79991377Y-103374337D01*
X79977793Y-103351674D01*
X79966495Y-103327788D01*
X79957594Y-103302909D01*
X79951174Y-103277278D01*
X79947297Y-103251141D01*
X79946000Y-103224750D01*
X79946000Y-102261250D01*
X79947297Y-102234859D01*
X79951174Y-102208722D01*
X79957594Y-102183091D01*
X79966495Y-102158212D01*
X79977793Y-102134326D01*
X79991377Y-102111663D01*
X80007117Y-102090440D01*
X80024861Y-102070861D01*
X80044440Y-102053117D01*
X80065663Y-102037377D01*
X80088326Y-102023793D01*
X80112212Y-102012495D01*
X80137091Y-102003594D01*
X80162722Y-101997174D01*
X80188859Y-101993297D01*
X80215250Y-101992000D01*
X80753750Y-101992000D01*
X80780141Y-101993297D01*
X80780141Y-101993297D01*
G37*
D17*
X80484500Y-102743000D03*
D22*
X84840000Y-55118000D03*
X90340000Y-55118000D03*
X86640000Y-53118000D03*
X81140000Y-53118000D03*
X78740000Y-55118000D03*
D23*
X77533500Y-72613500D03*
X77533500Y-79913500D03*
X82033500Y-79913500D03*
X82033500Y-72613500D03*
D12*
X195262500Y-89217500D03*
X185102500Y-89217500D03*
D13*
X187682500Y-85217500D03*
D14*
X190182500Y-89217500D03*
D13*
X187027501Y-85947500D03*
D15*
X186372500Y-86677500D02*
X187682502Y-85217500D01*
D13*
X192722500Y-84137500D03*
X192702500Y-84427500D03*
D15*
X192682500Y-84717500D02*
X192722500Y-84137500D01*
D12*
X195262500Y-70167500D03*
X185102500Y-70167500D03*
D13*
X187682500Y-66167500D03*
D14*
X190182500Y-70167500D03*
D13*
X187027501Y-66897500D03*
D15*
X186372500Y-67627500D02*
X187682502Y-66167500D01*
D13*
X192722500Y-65087500D03*
X192702500Y-65377500D03*
D15*
X192682500Y-65667500D02*
X192722500Y-65087500D01*
D12*
X176212500Y-92392500D03*
X166052500Y-92392500D03*
D13*
X168632500Y-88392500D03*
D14*
X171132500Y-92392500D03*
D13*
X167977501Y-89122500D03*
D15*
X167322500Y-89852500D02*
X168632502Y-88392500D01*
D13*
X173672500Y-87312500D03*
X173652500Y-87602500D03*
D15*
X173632500Y-87892500D02*
X173672500Y-87312500D01*
D12*
X176212500Y-73342500D03*
X166052500Y-73342500D03*
D13*
X168632500Y-69342500D03*
D14*
X171132500Y-73342500D03*
D13*
X167977501Y-70072500D03*
D15*
X167322500Y-70802500D02*
X168632502Y-69342500D01*
D13*
X173672500Y-68262500D03*
X173652500Y-68552500D03*
D15*
X173632500Y-68842500D02*
X173672500Y-68262500D01*
D12*
X157162500Y-86042500D03*
X147002500Y-86042500D03*
D13*
X149582500Y-82042500D03*
D14*
X152082500Y-86042500D03*
D13*
X148927501Y-82772500D03*
D15*
X148272500Y-83502500D02*
X149582502Y-82042500D01*
D13*
X154622500Y-80962500D03*
X154602500Y-81252500D03*
D15*
X154582500Y-81542500D02*
X154622500Y-80962500D01*
D12*
X157162500Y-66992500D03*
X147002500Y-66992500D03*
D13*
X149582500Y-62992500D03*
D14*
X152082500Y-66992500D03*
D13*
X148927501Y-63722500D03*
D15*
X148272500Y-64452500D02*
X149582502Y-62992500D01*
D13*
X154622500Y-61912500D03*
X154602500Y-62202500D03*
D15*
X154582500Y-62492500D02*
X154622500Y-61912500D01*
D12*
X138112500Y-100330000D03*
X127952500Y-100330000D03*
D13*
X130532500Y-96330000D03*
D14*
X133032500Y-100330000D03*
D13*
X129877501Y-97060000D03*
D15*
X129222500Y-97790000D02*
X130532502Y-96330000D01*
D13*
X135572500Y-95250000D03*
X135552500Y-95540000D03*
D15*
X135532500Y-95830000D02*
X135572500Y-95250000D01*
D12*
X138112500Y-81280000D03*
X127952500Y-81280000D03*
D13*
X130532500Y-77280000D03*
D14*
X133032500Y-81280000D03*
D13*
X129877501Y-78010000D03*
D15*
X129222500Y-78740000D02*
X130532502Y-77280000D01*
D13*
X135572500Y-76200000D03*
X135552500Y-76490000D03*
D15*
X135532500Y-76780000D02*
X135572500Y-76200000D01*
D12*
X138112500Y-62230000D03*
X127952500Y-62230000D03*
D13*
X130532500Y-58230000D03*
D14*
X133032500Y-62230000D03*
D13*
X129877501Y-58960000D03*
D15*
X129222500Y-59690000D02*
X130532502Y-58230000D01*
D13*
X135572500Y-57150000D03*
X135552500Y-57440000D03*
D15*
X135532500Y-57730000D02*
X135572500Y-57150000D01*
D12*
X119062500Y-93980000D03*
X108902500Y-93980000D03*
D13*
X111482500Y-89980000D03*
D14*
X113982500Y-93980000D03*
D13*
X110827501Y-90710000D03*
D15*
X110172500Y-91440000D02*
X111482502Y-89980000D01*
D13*
X116522500Y-88900000D03*
X116502500Y-89190000D03*
D15*
X116482500Y-89480000D02*
X116522500Y-88900000D01*
D12*
X119062500Y-74930000D03*
X108902500Y-74930000D03*
D13*
X111482500Y-70930000D03*
D14*
X113982500Y-74930000D03*
D13*
X110827501Y-71660000D03*
D15*
X110172500Y-72390000D02*
X111482502Y-70930000D01*
D13*
X116522500Y-69850000D03*
X116502500Y-70140000D03*
D15*
X116482500Y-70430000D02*
X116522500Y-69850000D01*
D12*
X100012500Y-89217500D03*
X89852500Y-89217500D03*
D13*
X92432500Y-85217500D03*
D14*
X94932500Y-89217500D03*
D13*
X91777501Y-85947500D03*
D15*
X91122500Y-86677500D02*
X92432502Y-85217500D01*
D13*
X97472500Y-84137500D03*
X97452500Y-84427500D03*
D15*
X97432500Y-84717500D02*
X97472500Y-84137500D01*
D12*
X100012500Y-70167500D03*
X89852500Y-70167500D03*
D13*
X92432500Y-66167500D03*
D14*
X94932500Y-70167500D03*
D13*
X91777501Y-66897500D03*
D15*
X91122500Y-67627500D02*
X92432502Y-66167500D01*
D13*
X97472500Y-65087500D03*
X97452500Y-65377500D03*
D15*
X97432500Y-65667500D02*
X97472500Y-65087500D01*
D18*
X183832500Y-95505000D03*
X183832500Y-98805000D03*
X184626250Y-76455000D03*
X184626250Y-79755000D03*
X179863750Y-95505000D03*
X179863750Y-98805000D03*
X180657500Y-76455000D03*
X180657500Y-79755000D03*
X143351250Y-105030000D03*
X143351250Y-108330000D03*
X143351250Y-85980000D03*
X143351250Y-89280000D03*
X144145000Y-66930000D03*
X144145000Y-70230000D03*
X139382500Y-105030000D03*
X139382500Y-108330000D03*
X139382500Y-85980000D03*
X139382500Y-89280000D03*
X140176250Y-66930000D03*
X140176250Y-70230000D03*
X105251250Y-93917500D03*
X105251250Y-97217500D03*
X106045000Y-74867500D03*
X106045000Y-78167500D03*
X101282500Y-93917500D03*
X101282500Y-97217500D03*
X102076250Y-74867500D03*
X102076250Y-78167500D03*
M02*
