G04 #@! TF.GenerationSoftware,KiCad,Pcbnew,(5.1.4)-1*
G04 #@! TF.CreationDate,2022-01-12T12:57:04-05:00*
G04 #@! TF.ProjectId,a44key-pcb-left-hand,6134346b-6579-42d7-9063-622d6c656674,rev?*
G04 #@! TF.SameCoordinates,Original*
G04 #@! TF.FileFunction,Copper,L2,Bot*
G04 #@! TF.FilePolarity,Positive*
%FSLAX46Y46*%
G04 Gerber Fmt 4.6, Leading zero omitted, Abs format (unit mm)*
G04 Created by KiCad (PCBNEW (5.1.4)-1) date 2022-01-12 12:57:04*
%MOMM*%
%LPD*%
G04 APERTURE LIST*
%ADD10C,1.300000*%
%ADD11C,2.250000*%
%ADD12C,2.250000*%
%ADD13C,2.000000*%
%ADD14R,1.500000X1.000000*%
%ADD15C,1.700000*%
%ADD16C,0.100000*%
%ADD17C,1.700000*%
%ADD18C,0.975000*%
%ADD19R,0.550000X1.500000*%
%ADD20R,1.500000X0.550000*%
%ADD21O,1.700000X2.700000*%
%ADD22R,1.200000X0.900000*%
%ADD23R,1.800000X2.100000*%
%ADD24R,1.100000X1.800000*%
%ADD25C,1.250000*%
%ADD26C,1.650000*%
%ADD27R,1.650000X1.650000*%
%ADD28C,0.800000*%
%ADD29C,0.500000*%
%ADD30C,0.254000*%
G04 APERTURE END LIST*
D10*
X178244500Y-66357500D03*
D11*
X178523500Y-61050500D03*
D12*
X177868505Y-61780504D02*
X179178495Y-60320496D01*
D11*
X184198500Y-59475500D03*
D12*
X184178729Y-59765516D02*
X184218271Y-59185484D01*
D13*
X186673500Y-60525501D03*
X181673500Y-58425500D03*
D10*
X178244500Y-85407500D03*
D11*
X178523500Y-80100500D03*
D12*
X177868505Y-80830504D02*
X179178495Y-79370496D01*
D11*
X184198500Y-78525500D03*
D12*
X184178729Y-78815516D02*
X184218271Y-78235484D01*
D13*
X186673500Y-79575501D03*
X181673500Y-77475500D03*
D14*
X181610000Y-110236000D03*
X181610000Y-108936000D03*
X181610000Y-107636000D03*
D10*
X159194500Y-90170000D03*
D11*
X159473500Y-84863000D03*
D12*
X158818505Y-85593004D02*
X160128495Y-84132996D01*
D11*
X165148500Y-83288000D03*
D12*
X165128729Y-83578016D02*
X165168271Y-82997984D01*
D13*
X167623500Y-84338001D03*
X162623500Y-82238000D03*
D10*
X82994500Y-104457500D03*
D11*
X83273500Y-99150500D03*
D12*
X82618505Y-99880504D02*
X83928495Y-98420496D01*
D11*
X88948500Y-97575500D03*
D12*
X88928729Y-97865516D02*
X88968271Y-97285484D01*
D13*
X91423500Y-98625501D03*
X86423500Y-96525500D03*
D10*
X82994500Y-85407500D03*
D11*
X83273500Y-80100500D03*
D12*
X82618505Y-80830504D02*
X83928495Y-79370496D01*
D11*
X88948500Y-78525500D03*
D12*
X88928729Y-78815516D02*
X88968271Y-78235484D01*
D13*
X91423500Y-79575501D03*
X86423500Y-77475500D03*
X160778968Y-134954340D03*
X156492859Y-131631800D03*
D11*
X158611765Y-133286600D03*
D12*
X158705924Y-133011583D02*
X158517606Y-133561617D01*
D11*
X164501034Y-133234065D03*
D12*
X165322650Y-132698460D02*
X163679418Y-133769670D01*
D10*
X166144080Y-128180107D03*
D15*
X189992000Y-133350000D03*
D16*
G36*
X191033033Y-132748959D02*
G01*
X190593041Y-134391033D01*
X188950967Y-133951041D01*
X189390959Y-132308967D01*
X191033033Y-132748959D01*
X191033033Y-132748959D01*
G37*
D15*
X189334600Y-135803452D03*
D17*
X189334600Y-135803452D02*
X189334600Y-135803452D01*
D15*
X188677199Y-138256903D03*
D17*
X188677199Y-138256903D02*
X188677199Y-138256903D01*
D15*
X188019799Y-140710355D03*
D17*
X188019799Y-140710355D02*
X188019799Y-140710355D01*
D16*
G36*
X161770142Y-120417674D02*
G01*
X161793803Y-120421184D01*
X161817007Y-120426996D01*
X161839529Y-120435054D01*
X161861153Y-120445282D01*
X161881670Y-120457579D01*
X161900883Y-120471829D01*
X161918607Y-120487893D01*
X161934671Y-120505617D01*
X161948921Y-120524830D01*
X161961218Y-120545347D01*
X161971446Y-120566971D01*
X161979504Y-120589493D01*
X161985316Y-120612697D01*
X161988826Y-120636358D01*
X161990000Y-120660250D01*
X161990000Y-121147750D01*
X161988826Y-121171642D01*
X161985316Y-121195303D01*
X161979504Y-121218507D01*
X161971446Y-121241029D01*
X161961218Y-121262653D01*
X161948921Y-121283170D01*
X161934671Y-121302383D01*
X161918607Y-121320107D01*
X161900883Y-121336171D01*
X161881670Y-121350421D01*
X161861153Y-121362718D01*
X161839529Y-121372946D01*
X161817007Y-121381004D01*
X161793803Y-121386816D01*
X161770142Y-121390326D01*
X161746250Y-121391500D01*
X160833750Y-121391500D01*
X160809858Y-121390326D01*
X160786197Y-121386816D01*
X160762993Y-121381004D01*
X160740471Y-121372946D01*
X160718847Y-121362718D01*
X160698330Y-121350421D01*
X160679117Y-121336171D01*
X160661393Y-121320107D01*
X160645329Y-121302383D01*
X160631079Y-121283170D01*
X160618782Y-121262653D01*
X160608554Y-121241029D01*
X160600496Y-121218507D01*
X160594684Y-121195303D01*
X160591174Y-121171642D01*
X160590000Y-121147750D01*
X160590000Y-120660250D01*
X160591174Y-120636358D01*
X160594684Y-120612697D01*
X160600496Y-120589493D01*
X160608554Y-120566971D01*
X160618782Y-120545347D01*
X160631079Y-120524830D01*
X160645329Y-120505617D01*
X160661393Y-120487893D01*
X160679117Y-120471829D01*
X160698330Y-120457579D01*
X160718847Y-120445282D01*
X160740471Y-120435054D01*
X160762993Y-120426996D01*
X160786197Y-120421184D01*
X160809858Y-120417674D01*
X160833750Y-120416500D01*
X161746250Y-120416500D01*
X161770142Y-120417674D01*
X161770142Y-120417674D01*
G37*
D18*
X161290000Y-120904000D03*
D16*
G36*
X161770142Y-122292674D02*
G01*
X161793803Y-122296184D01*
X161817007Y-122301996D01*
X161839529Y-122310054D01*
X161861153Y-122320282D01*
X161881670Y-122332579D01*
X161900883Y-122346829D01*
X161918607Y-122362893D01*
X161934671Y-122380617D01*
X161948921Y-122399830D01*
X161961218Y-122420347D01*
X161971446Y-122441971D01*
X161979504Y-122464493D01*
X161985316Y-122487697D01*
X161988826Y-122511358D01*
X161990000Y-122535250D01*
X161990000Y-123022750D01*
X161988826Y-123046642D01*
X161985316Y-123070303D01*
X161979504Y-123093507D01*
X161971446Y-123116029D01*
X161961218Y-123137653D01*
X161948921Y-123158170D01*
X161934671Y-123177383D01*
X161918607Y-123195107D01*
X161900883Y-123211171D01*
X161881670Y-123225421D01*
X161861153Y-123237718D01*
X161839529Y-123247946D01*
X161817007Y-123256004D01*
X161793803Y-123261816D01*
X161770142Y-123265326D01*
X161746250Y-123266500D01*
X160833750Y-123266500D01*
X160809858Y-123265326D01*
X160786197Y-123261816D01*
X160762993Y-123256004D01*
X160740471Y-123247946D01*
X160718847Y-123237718D01*
X160698330Y-123225421D01*
X160679117Y-123211171D01*
X160661393Y-123195107D01*
X160645329Y-123177383D01*
X160631079Y-123158170D01*
X160618782Y-123137653D01*
X160608554Y-123116029D01*
X160600496Y-123093507D01*
X160594684Y-123070303D01*
X160591174Y-123046642D01*
X160590000Y-123022750D01*
X160590000Y-122535250D01*
X160591174Y-122511358D01*
X160594684Y-122487697D01*
X160600496Y-122464493D01*
X160608554Y-122441971D01*
X160618782Y-122420347D01*
X160631079Y-122399830D01*
X160645329Y-122380617D01*
X160661393Y-122362893D01*
X160679117Y-122346829D01*
X160698330Y-122332579D01*
X160718847Y-122320282D01*
X160740471Y-122310054D01*
X160762993Y-122301996D01*
X160786197Y-122296184D01*
X160809858Y-122292674D01*
X160833750Y-122291500D01*
X161746250Y-122291500D01*
X161770142Y-122292674D01*
X161770142Y-122292674D01*
G37*
D18*
X161290000Y-122779000D03*
D16*
G36*
X183360142Y-119558674D02*
G01*
X183383803Y-119562184D01*
X183407007Y-119567996D01*
X183429529Y-119576054D01*
X183451153Y-119586282D01*
X183471670Y-119598579D01*
X183490883Y-119612829D01*
X183508607Y-119628893D01*
X183524671Y-119646617D01*
X183538921Y-119665830D01*
X183551218Y-119686347D01*
X183561446Y-119707971D01*
X183569504Y-119730493D01*
X183575316Y-119753697D01*
X183578826Y-119777358D01*
X183580000Y-119801250D01*
X183580000Y-120288750D01*
X183578826Y-120312642D01*
X183575316Y-120336303D01*
X183569504Y-120359507D01*
X183561446Y-120382029D01*
X183551218Y-120403653D01*
X183538921Y-120424170D01*
X183524671Y-120443383D01*
X183508607Y-120461107D01*
X183490883Y-120477171D01*
X183471670Y-120491421D01*
X183451153Y-120503718D01*
X183429529Y-120513946D01*
X183407007Y-120522004D01*
X183383803Y-120527816D01*
X183360142Y-120531326D01*
X183336250Y-120532500D01*
X182423750Y-120532500D01*
X182399858Y-120531326D01*
X182376197Y-120527816D01*
X182352993Y-120522004D01*
X182330471Y-120513946D01*
X182308847Y-120503718D01*
X182288330Y-120491421D01*
X182269117Y-120477171D01*
X182251393Y-120461107D01*
X182235329Y-120443383D01*
X182221079Y-120424170D01*
X182208782Y-120403653D01*
X182198554Y-120382029D01*
X182190496Y-120359507D01*
X182184684Y-120336303D01*
X182181174Y-120312642D01*
X182180000Y-120288750D01*
X182180000Y-119801250D01*
X182181174Y-119777358D01*
X182184684Y-119753697D01*
X182190496Y-119730493D01*
X182198554Y-119707971D01*
X182208782Y-119686347D01*
X182221079Y-119665830D01*
X182235329Y-119646617D01*
X182251393Y-119628893D01*
X182269117Y-119612829D01*
X182288330Y-119598579D01*
X182308847Y-119586282D01*
X182330471Y-119576054D01*
X182352993Y-119567996D01*
X182376197Y-119562184D01*
X182399858Y-119558674D01*
X182423750Y-119557500D01*
X183336250Y-119557500D01*
X183360142Y-119558674D01*
X183360142Y-119558674D01*
G37*
D18*
X182880000Y-120045000D03*
D16*
G36*
X183360142Y-121433674D02*
G01*
X183383803Y-121437184D01*
X183407007Y-121442996D01*
X183429529Y-121451054D01*
X183451153Y-121461282D01*
X183471670Y-121473579D01*
X183490883Y-121487829D01*
X183508607Y-121503893D01*
X183524671Y-121521617D01*
X183538921Y-121540830D01*
X183551218Y-121561347D01*
X183561446Y-121582971D01*
X183569504Y-121605493D01*
X183575316Y-121628697D01*
X183578826Y-121652358D01*
X183580000Y-121676250D01*
X183580000Y-122163750D01*
X183578826Y-122187642D01*
X183575316Y-122211303D01*
X183569504Y-122234507D01*
X183561446Y-122257029D01*
X183551218Y-122278653D01*
X183538921Y-122299170D01*
X183524671Y-122318383D01*
X183508607Y-122336107D01*
X183490883Y-122352171D01*
X183471670Y-122366421D01*
X183451153Y-122378718D01*
X183429529Y-122388946D01*
X183407007Y-122397004D01*
X183383803Y-122402816D01*
X183360142Y-122406326D01*
X183336250Y-122407500D01*
X182423750Y-122407500D01*
X182399858Y-122406326D01*
X182376197Y-122402816D01*
X182352993Y-122397004D01*
X182330471Y-122388946D01*
X182308847Y-122378718D01*
X182288330Y-122366421D01*
X182269117Y-122352171D01*
X182251393Y-122336107D01*
X182235329Y-122318383D01*
X182221079Y-122299170D01*
X182208782Y-122278653D01*
X182198554Y-122257029D01*
X182190496Y-122234507D01*
X182184684Y-122211303D01*
X182181174Y-122187642D01*
X182180000Y-122163750D01*
X182180000Y-121676250D01*
X182181174Y-121652358D01*
X182184684Y-121628697D01*
X182190496Y-121605493D01*
X182198554Y-121582971D01*
X182208782Y-121561347D01*
X182221079Y-121540830D01*
X182235329Y-121521617D01*
X182251393Y-121503893D01*
X182269117Y-121487829D01*
X182288330Y-121473579D01*
X182308847Y-121461282D01*
X182330471Y-121451054D01*
X182352993Y-121442996D01*
X182376197Y-121437184D01*
X182399858Y-121433674D01*
X182423750Y-121432500D01*
X183336250Y-121432500D01*
X183360142Y-121433674D01*
X183360142Y-121433674D01*
G37*
D18*
X182880000Y-121920000D03*
D16*
G36*
X173454142Y-126259674D02*
G01*
X173477803Y-126263184D01*
X173501007Y-126268996D01*
X173523529Y-126277054D01*
X173545153Y-126287282D01*
X173565670Y-126299579D01*
X173584883Y-126313829D01*
X173602607Y-126329893D01*
X173618671Y-126347617D01*
X173632921Y-126366830D01*
X173645218Y-126387347D01*
X173655446Y-126408971D01*
X173663504Y-126431493D01*
X173669316Y-126454697D01*
X173672826Y-126478358D01*
X173674000Y-126502250D01*
X173674000Y-126989750D01*
X173672826Y-127013642D01*
X173669316Y-127037303D01*
X173663504Y-127060507D01*
X173655446Y-127083029D01*
X173645218Y-127104653D01*
X173632921Y-127125170D01*
X173618671Y-127144383D01*
X173602607Y-127162107D01*
X173584883Y-127178171D01*
X173565670Y-127192421D01*
X173545153Y-127204718D01*
X173523529Y-127214946D01*
X173501007Y-127223004D01*
X173477803Y-127228816D01*
X173454142Y-127232326D01*
X173430250Y-127233500D01*
X172517750Y-127233500D01*
X172493858Y-127232326D01*
X172470197Y-127228816D01*
X172446993Y-127223004D01*
X172424471Y-127214946D01*
X172402847Y-127204718D01*
X172382330Y-127192421D01*
X172363117Y-127178171D01*
X172345393Y-127162107D01*
X172329329Y-127144383D01*
X172315079Y-127125170D01*
X172302782Y-127104653D01*
X172292554Y-127083029D01*
X172284496Y-127060507D01*
X172278684Y-127037303D01*
X172275174Y-127013642D01*
X172274000Y-126989750D01*
X172274000Y-126502250D01*
X172275174Y-126478358D01*
X172278684Y-126454697D01*
X172284496Y-126431493D01*
X172292554Y-126408971D01*
X172302782Y-126387347D01*
X172315079Y-126366830D01*
X172329329Y-126347617D01*
X172345393Y-126329893D01*
X172363117Y-126313829D01*
X172382330Y-126299579D01*
X172402847Y-126287282D01*
X172424471Y-126277054D01*
X172446993Y-126268996D01*
X172470197Y-126263184D01*
X172493858Y-126259674D01*
X172517750Y-126258500D01*
X173430250Y-126258500D01*
X173454142Y-126259674D01*
X173454142Y-126259674D01*
G37*
D18*
X172974000Y-126746000D03*
D16*
G36*
X173454142Y-128134674D02*
G01*
X173477803Y-128138184D01*
X173501007Y-128143996D01*
X173523529Y-128152054D01*
X173545153Y-128162282D01*
X173565670Y-128174579D01*
X173584883Y-128188829D01*
X173602607Y-128204893D01*
X173618671Y-128222617D01*
X173632921Y-128241830D01*
X173645218Y-128262347D01*
X173655446Y-128283971D01*
X173663504Y-128306493D01*
X173669316Y-128329697D01*
X173672826Y-128353358D01*
X173674000Y-128377250D01*
X173674000Y-128864750D01*
X173672826Y-128888642D01*
X173669316Y-128912303D01*
X173663504Y-128935507D01*
X173655446Y-128958029D01*
X173645218Y-128979653D01*
X173632921Y-129000170D01*
X173618671Y-129019383D01*
X173602607Y-129037107D01*
X173584883Y-129053171D01*
X173565670Y-129067421D01*
X173545153Y-129079718D01*
X173523529Y-129089946D01*
X173501007Y-129098004D01*
X173477803Y-129103816D01*
X173454142Y-129107326D01*
X173430250Y-129108500D01*
X172517750Y-129108500D01*
X172493858Y-129107326D01*
X172470197Y-129103816D01*
X172446993Y-129098004D01*
X172424471Y-129089946D01*
X172402847Y-129079718D01*
X172382330Y-129067421D01*
X172363117Y-129053171D01*
X172345393Y-129037107D01*
X172329329Y-129019383D01*
X172315079Y-129000170D01*
X172302782Y-128979653D01*
X172292554Y-128958029D01*
X172284496Y-128935507D01*
X172278684Y-128912303D01*
X172275174Y-128888642D01*
X172274000Y-128864750D01*
X172274000Y-128377250D01*
X172275174Y-128353358D01*
X172278684Y-128329697D01*
X172284496Y-128306493D01*
X172292554Y-128283971D01*
X172302782Y-128262347D01*
X172315079Y-128241830D01*
X172329329Y-128222617D01*
X172345393Y-128204893D01*
X172363117Y-128188829D01*
X172382330Y-128174579D01*
X172402847Y-128162282D01*
X172424471Y-128152054D01*
X172446993Y-128143996D01*
X172470197Y-128138184D01*
X172493858Y-128134674D01*
X172517750Y-128133500D01*
X173430250Y-128133500D01*
X173454142Y-128134674D01*
X173454142Y-128134674D01*
G37*
D18*
X172974000Y-128621000D03*
D19*
X178828000Y-124208000D03*
X178028000Y-124208000D03*
X177228000Y-124208000D03*
X176428000Y-124208000D03*
X175628000Y-124208000D03*
X174828000Y-124208000D03*
X174028000Y-124208000D03*
X173228000Y-124208000D03*
X172428000Y-124208000D03*
X171628000Y-124208000D03*
X170828000Y-124208000D03*
D20*
X169128000Y-122508000D03*
X169128000Y-121708000D03*
X169128000Y-120908000D03*
X169128000Y-120108000D03*
X169128000Y-119308000D03*
X169128000Y-118508000D03*
X169128000Y-117708000D03*
X169128000Y-116908000D03*
X169128000Y-116108000D03*
X169128000Y-115308000D03*
X169128000Y-114508000D03*
D19*
X170828000Y-112808000D03*
X171628000Y-112808000D03*
X172428000Y-112808000D03*
X173228000Y-112808000D03*
X174028000Y-112808000D03*
X174828000Y-112808000D03*
X175628000Y-112808000D03*
X176428000Y-112808000D03*
X177228000Y-112808000D03*
X178028000Y-112808000D03*
X178828000Y-112808000D03*
D20*
X180528000Y-114508000D03*
X180528000Y-115308000D03*
X180528000Y-116108000D03*
X180528000Y-116908000D03*
X180528000Y-117708000D03*
X180528000Y-118508000D03*
X180528000Y-119308000D03*
X180528000Y-120108000D03*
X180528000Y-120908000D03*
X180528000Y-121708000D03*
X180528000Y-122508000D03*
D16*
G36*
X172830642Y-109791174D02*
G01*
X172854303Y-109794684D01*
X172877507Y-109800496D01*
X172900029Y-109808554D01*
X172921653Y-109818782D01*
X172942170Y-109831079D01*
X172961383Y-109845329D01*
X172979107Y-109861393D01*
X172995171Y-109879117D01*
X173009421Y-109898330D01*
X173021718Y-109918847D01*
X173031946Y-109940471D01*
X173040004Y-109962993D01*
X173045816Y-109986197D01*
X173049326Y-110009858D01*
X173050500Y-110033750D01*
X173050500Y-110946250D01*
X173049326Y-110970142D01*
X173045816Y-110993803D01*
X173040004Y-111017007D01*
X173031946Y-111039529D01*
X173021718Y-111061153D01*
X173009421Y-111081670D01*
X172995171Y-111100883D01*
X172979107Y-111118607D01*
X172961383Y-111134671D01*
X172942170Y-111148921D01*
X172921653Y-111161218D01*
X172900029Y-111171446D01*
X172877507Y-111179504D01*
X172854303Y-111185316D01*
X172830642Y-111188826D01*
X172806750Y-111190000D01*
X172319250Y-111190000D01*
X172295358Y-111188826D01*
X172271697Y-111185316D01*
X172248493Y-111179504D01*
X172225971Y-111171446D01*
X172204347Y-111161218D01*
X172183830Y-111148921D01*
X172164617Y-111134671D01*
X172146893Y-111118607D01*
X172130829Y-111100883D01*
X172116579Y-111081670D01*
X172104282Y-111061153D01*
X172094054Y-111039529D01*
X172085996Y-111017007D01*
X172080184Y-110993803D01*
X172076674Y-110970142D01*
X172075500Y-110946250D01*
X172075500Y-110033750D01*
X172076674Y-110009858D01*
X172080184Y-109986197D01*
X172085996Y-109962993D01*
X172094054Y-109940471D01*
X172104282Y-109918847D01*
X172116579Y-109898330D01*
X172130829Y-109879117D01*
X172146893Y-109861393D01*
X172164617Y-109845329D01*
X172183830Y-109831079D01*
X172204347Y-109818782D01*
X172225971Y-109808554D01*
X172248493Y-109800496D01*
X172271697Y-109794684D01*
X172295358Y-109791174D01*
X172319250Y-109790000D01*
X172806750Y-109790000D01*
X172830642Y-109791174D01*
X172830642Y-109791174D01*
G37*
D18*
X172563000Y-110490000D03*
D16*
G36*
X170955642Y-109791174D02*
G01*
X170979303Y-109794684D01*
X171002507Y-109800496D01*
X171025029Y-109808554D01*
X171046653Y-109818782D01*
X171067170Y-109831079D01*
X171086383Y-109845329D01*
X171104107Y-109861393D01*
X171120171Y-109879117D01*
X171134421Y-109898330D01*
X171146718Y-109918847D01*
X171156946Y-109940471D01*
X171165004Y-109962993D01*
X171170816Y-109986197D01*
X171174326Y-110009858D01*
X171175500Y-110033750D01*
X171175500Y-110946250D01*
X171174326Y-110970142D01*
X171170816Y-110993803D01*
X171165004Y-111017007D01*
X171156946Y-111039529D01*
X171146718Y-111061153D01*
X171134421Y-111081670D01*
X171120171Y-111100883D01*
X171104107Y-111118607D01*
X171086383Y-111134671D01*
X171067170Y-111148921D01*
X171046653Y-111161218D01*
X171025029Y-111171446D01*
X171002507Y-111179504D01*
X170979303Y-111185316D01*
X170955642Y-111188826D01*
X170931750Y-111190000D01*
X170444250Y-111190000D01*
X170420358Y-111188826D01*
X170396697Y-111185316D01*
X170373493Y-111179504D01*
X170350971Y-111171446D01*
X170329347Y-111161218D01*
X170308830Y-111148921D01*
X170289617Y-111134671D01*
X170271893Y-111118607D01*
X170255829Y-111100883D01*
X170241579Y-111081670D01*
X170229282Y-111061153D01*
X170219054Y-111039529D01*
X170210996Y-111017007D01*
X170205184Y-110993803D01*
X170201674Y-110970142D01*
X170200500Y-110946250D01*
X170200500Y-110033750D01*
X170201674Y-110009858D01*
X170205184Y-109986197D01*
X170210996Y-109962993D01*
X170219054Y-109940471D01*
X170229282Y-109918847D01*
X170241579Y-109898330D01*
X170255829Y-109879117D01*
X170271893Y-109861393D01*
X170289617Y-109845329D01*
X170308830Y-109831079D01*
X170329347Y-109818782D01*
X170350971Y-109808554D01*
X170373493Y-109800496D01*
X170396697Y-109794684D01*
X170420358Y-109791174D01*
X170444250Y-109790000D01*
X170931750Y-109790000D01*
X170955642Y-109791174D01*
X170955642Y-109791174D01*
G37*
D18*
X170688000Y-110490000D03*
D15*
X155194000Y-123952000D03*
D16*
G36*
X156235033Y-123350959D02*
G01*
X155795041Y-124993033D01*
X154152967Y-124553041D01*
X154592959Y-122910967D01*
X156235033Y-123350959D01*
X156235033Y-123350959D01*
G37*
D15*
X154536600Y-126405452D03*
D17*
X154536600Y-126405452D02*
X154536600Y-126405452D01*
D15*
X153879199Y-128858903D03*
D17*
X153879199Y-128858903D02*
X153879199Y-128858903D01*
D15*
X153221799Y-131312355D03*
D17*
X153221799Y-131312355D02*
X153221799Y-131312355D01*
D15*
X166121645Y-138743799D03*
D16*
G36*
X165520604Y-137702766D02*
G01*
X167162678Y-138142758D01*
X166722686Y-139784832D01*
X165080612Y-139344840D01*
X165520604Y-137702766D01*
X165520604Y-137702766D01*
G37*
D15*
X168575097Y-139401199D03*
D17*
X168575097Y-139401199D02*
X168575097Y-139401199D01*
D15*
X171028548Y-140058600D03*
D17*
X171028548Y-140058600D02*
X171028548Y-140058600D01*
D15*
X173482000Y-140716000D03*
D17*
X173482000Y-140716000D02*
X173482000Y-140716000D01*
D21*
X162494000Y-50982000D03*
X155194000Y-50982000D03*
X155194000Y-46482000D03*
X162494000Y-46482000D03*
D16*
G36*
X159992142Y-112797674D02*
G01*
X160015803Y-112801184D01*
X160039007Y-112806996D01*
X160061529Y-112815054D01*
X160083153Y-112825282D01*
X160103670Y-112837579D01*
X160122883Y-112851829D01*
X160140607Y-112867893D01*
X160156671Y-112885617D01*
X160170921Y-112904830D01*
X160183218Y-112925347D01*
X160193446Y-112946971D01*
X160201504Y-112969493D01*
X160207316Y-112992697D01*
X160210826Y-113016358D01*
X160212000Y-113040250D01*
X160212000Y-113527750D01*
X160210826Y-113551642D01*
X160207316Y-113575303D01*
X160201504Y-113598507D01*
X160193446Y-113621029D01*
X160183218Y-113642653D01*
X160170921Y-113663170D01*
X160156671Y-113682383D01*
X160140607Y-113700107D01*
X160122883Y-113716171D01*
X160103670Y-113730421D01*
X160083153Y-113742718D01*
X160061529Y-113752946D01*
X160039007Y-113761004D01*
X160015803Y-113766816D01*
X159992142Y-113770326D01*
X159968250Y-113771500D01*
X159055750Y-113771500D01*
X159031858Y-113770326D01*
X159008197Y-113766816D01*
X158984993Y-113761004D01*
X158962471Y-113752946D01*
X158940847Y-113742718D01*
X158920330Y-113730421D01*
X158901117Y-113716171D01*
X158883393Y-113700107D01*
X158867329Y-113682383D01*
X158853079Y-113663170D01*
X158840782Y-113642653D01*
X158830554Y-113621029D01*
X158822496Y-113598507D01*
X158816684Y-113575303D01*
X158813174Y-113551642D01*
X158812000Y-113527750D01*
X158812000Y-113040250D01*
X158813174Y-113016358D01*
X158816684Y-112992697D01*
X158822496Y-112969493D01*
X158830554Y-112946971D01*
X158840782Y-112925347D01*
X158853079Y-112904830D01*
X158867329Y-112885617D01*
X158883393Y-112867893D01*
X158901117Y-112851829D01*
X158920330Y-112837579D01*
X158940847Y-112825282D01*
X158962471Y-112815054D01*
X158984993Y-112806996D01*
X159008197Y-112801184D01*
X159031858Y-112797674D01*
X159055750Y-112796500D01*
X159968250Y-112796500D01*
X159992142Y-112797674D01*
X159992142Y-112797674D01*
G37*
D18*
X159512000Y-113284000D03*
D16*
G36*
X159992142Y-114672674D02*
G01*
X160015803Y-114676184D01*
X160039007Y-114681996D01*
X160061529Y-114690054D01*
X160083153Y-114700282D01*
X160103670Y-114712579D01*
X160122883Y-114726829D01*
X160140607Y-114742893D01*
X160156671Y-114760617D01*
X160170921Y-114779830D01*
X160183218Y-114800347D01*
X160193446Y-114821971D01*
X160201504Y-114844493D01*
X160207316Y-114867697D01*
X160210826Y-114891358D01*
X160212000Y-114915250D01*
X160212000Y-115402750D01*
X160210826Y-115426642D01*
X160207316Y-115450303D01*
X160201504Y-115473507D01*
X160193446Y-115496029D01*
X160183218Y-115517653D01*
X160170921Y-115538170D01*
X160156671Y-115557383D01*
X160140607Y-115575107D01*
X160122883Y-115591171D01*
X160103670Y-115605421D01*
X160083153Y-115617718D01*
X160061529Y-115627946D01*
X160039007Y-115636004D01*
X160015803Y-115641816D01*
X159992142Y-115645326D01*
X159968250Y-115646500D01*
X159055750Y-115646500D01*
X159031858Y-115645326D01*
X159008197Y-115641816D01*
X158984993Y-115636004D01*
X158962471Y-115627946D01*
X158940847Y-115617718D01*
X158920330Y-115605421D01*
X158901117Y-115591171D01*
X158883393Y-115575107D01*
X158867329Y-115557383D01*
X158853079Y-115538170D01*
X158840782Y-115517653D01*
X158830554Y-115496029D01*
X158822496Y-115473507D01*
X158816684Y-115450303D01*
X158813174Y-115426642D01*
X158812000Y-115402750D01*
X158812000Y-114915250D01*
X158813174Y-114891358D01*
X158816684Y-114867697D01*
X158822496Y-114844493D01*
X158830554Y-114821971D01*
X158840782Y-114800347D01*
X158853079Y-114779830D01*
X158867329Y-114760617D01*
X158883393Y-114742893D01*
X158901117Y-114726829D01*
X158920330Y-114712579D01*
X158940847Y-114700282D01*
X158962471Y-114690054D01*
X158984993Y-114681996D01*
X159008197Y-114676184D01*
X159031858Y-114672674D01*
X159055750Y-114671500D01*
X159968250Y-114671500D01*
X159992142Y-114672674D01*
X159992142Y-114672674D01*
G37*
D18*
X159512000Y-115159000D03*
D16*
G36*
X178788142Y-107717674D02*
G01*
X178811803Y-107721184D01*
X178835007Y-107726996D01*
X178857529Y-107735054D01*
X178879153Y-107745282D01*
X178899670Y-107757579D01*
X178918883Y-107771829D01*
X178936607Y-107787893D01*
X178952671Y-107805617D01*
X178966921Y-107824830D01*
X178979218Y-107845347D01*
X178989446Y-107866971D01*
X178997504Y-107889493D01*
X179003316Y-107912697D01*
X179006826Y-107936358D01*
X179008000Y-107960250D01*
X179008000Y-108447750D01*
X179006826Y-108471642D01*
X179003316Y-108495303D01*
X178997504Y-108518507D01*
X178989446Y-108541029D01*
X178979218Y-108562653D01*
X178966921Y-108583170D01*
X178952671Y-108602383D01*
X178936607Y-108620107D01*
X178918883Y-108636171D01*
X178899670Y-108650421D01*
X178879153Y-108662718D01*
X178857529Y-108672946D01*
X178835007Y-108681004D01*
X178811803Y-108686816D01*
X178788142Y-108690326D01*
X178764250Y-108691500D01*
X177851750Y-108691500D01*
X177827858Y-108690326D01*
X177804197Y-108686816D01*
X177780993Y-108681004D01*
X177758471Y-108672946D01*
X177736847Y-108662718D01*
X177716330Y-108650421D01*
X177697117Y-108636171D01*
X177679393Y-108620107D01*
X177663329Y-108602383D01*
X177649079Y-108583170D01*
X177636782Y-108562653D01*
X177626554Y-108541029D01*
X177618496Y-108518507D01*
X177612684Y-108495303D01*
X177609174Y-108471642D01*
X177608000Y-108447750D01*
X177608000Y-107960250D01*
X177609174Y-107936358D01*
X177612684Y-107912697D01*
X177618496Y-107889493D01*
X177626554Y-107866971D01*
X177636782Y-107845347D01*
X177649079Y-107824830D01*
X177663329Y-107805617D01*
X177679393Y-107787893D01*
X177697117Y-107771829D01*
X177716330Y-107757579D01*
X177736847Y-107745282D01*
X177758471Y-107735054D01*
X177780993Y-107726996D01*
X177804197Y-107721184D01*
X177827858Y-107717674D01*
X177851750Y-107716500D01*
X178764250Y-107716500D01*
X178788142Y-107717674D01*
X178788142Y-107717674D01*
G37*
D18*
X178308000Y-108204000D03*
D16*
G36*
X178788142Y-109592674D02*
G01*
X178811803Y-109596184D01*
X178835007Y-109601996D01*
X178857529Y-109610054D01*
X178879153Y-109620282D01*
X178899670Y-109632579D01*
X178918883Y-109646829D01*
X178936607Y-109662893D01*
X178952671Y-109680617D01*
X178966921Y-109699830D01*
X178979218Y-109720347D01*
X178989446Y-109741971D01*
X178997504Y-109764493D01*
X179003316Y-109787697D01*
X179006826Y-109811358D01*
X179008000Y-109835250D01*
X179008000Y-110322750D01*
X179006826Y-110346642D01*
X179003316Y-110370303D01*
X178997504Y-110393507D01*
X178989446Y-110416029D01*
X178979218Y-110437653D01*
X178966921Y-110458170D01*
X178952671Y-110477383D01*
X178936607Y-110495107D01*
X178918883Y-110511171D01*
X178899670Y-110525421D01*
X178879153Y-110537718D01*
X178857529Y-110547946D01*
X178835007Y-110556004D01*
X178811803Y-110561816D01*
X178788142Y-110565326D01*
X178764250Y-110566500D01*
X177851750Y-110566500D01*
X177827858Y-110565326D01*
X177804197Y-110561816D01*
X177780993Y-110556004D01*
X177758471Y-110547946D01*
X177736847Y-110537718D01*
X177716330Y-110525421D01*
X177697117Y-110511171D01*
X177679393Y-110495107D01*
X177663329Y-110477383D01*
X177649079Y-110458170D01*
X177636782Y-110437653D01*
X177626554Y-110416029D01*
X177618496Y-110393507D01*
X177612684Y-110370303D01*
X177609174Y-110346642D01*
X177608000Y-110322750D01*
X177608000Y-109835250D01*
X177609174Y-109811358D01*
X177612684Y-109787697D01*
X177618496Y-109764493D01*
X177626554Y-109741971D01*
X177636782Y-109720347D01*
X177649079Y-109699830D01*
X177663329Y-109680617D01*
X177679393Y-109662893D01*
X177697117Y-109646829D01*
X177716330Y-109632579D01*
X177736847Y-109620282D01*
X177758471Y-109610054D01*
X177780993Y-109601996D01*
X177804197Y-109596184D01*
X177827858Y-109592674D01*
X177851750Y-109591500D01*
X178764250Y-109591500D01*
X178788142Y-109592674D01*
X178788142Y-109592674D01*
G37*
D18*
X178308000Y-110079000D03*
D22*
X144272000Y-123950000D03*
X144272000Y-120650000D03*
X150876000Y-104900000D03*
X150876000Y-101600000D03*
X148336000Y-104900000D03*
X148336000Y-101600000D03*
X146812000Y-123950000D03*
X146812000Y-120650000D03*
X141732000Y-123950000D03*
X141732000Y-120650000D03*
X140716000Y-104900000D03*
X140716000Y-101600000D03*
X138176000Y-104900000D03*
X138176000Y-101600000D03*
X139192000Y-123950000D03*
X139192000Y-120650000D03*
D16*
G36*
X183360142Y-123290174D02*
G01*
X183383803Y-123293684D01*
X183407007Y-123299496D01*
X183429529Y-123307554D01*
X183451153Y-123317782D01*
X183471670Y-123330079D01*
X183490883Y-123344329D01*
X183508607Y-123360393D01*
X183524671Y-123378117D01*
X183538921Y-123397330D01*
X183551218Y-123417847D01*
X183561446Y-123439471D01*
X183569504Y-123461993D01*
X183575316Y-123485197D01*
X183578826Y-123508858D01*
X183580000Y-123532750D01*
X183580000Y-124020250D01*
X183578826Y-124044142D01*
X183575316Y-124067803D01*
X183569504Y-124091007D01*
X183561446Y-124113529D01*
X183551218Y-124135153D01*
X183538921Y-124155670D01*
X183524671Y-124174883D01*
X183508607Y-124192607D01*
X183490883Y-124208671D01*
X183471670Y-124222921D01*
X183451153Y-124235218D01*
X183429529Y-124245446D01*
X183407007Y-124253504D01*
X183383803Y-124259316D01*
X183360142Y-124262826D01*
X183336250Y-124264000D01*
X182423750Y-124264000D01*
X182399858Y-124262826D01*
X182376197Y-124259316D01*
X182352993Y-124253504D01*
X182330471Y-124245446D01*
X182308847Y-124235218D01*
X182288330Y-124222921D01*
X182269117Y-124208671D01*
X182251393Y-124192607D01*
X182235329Y-124174883D01*
X182221079Y-124155670D01*
X182208782Y-124135153D01*
X182198554Y-124113529D01*
X182190496Y-124091007D01*
X182184684Y-124067803D01*
X182181174Y-124044142D01*
X182180000Y-124020250D01*
X182180000Y-123532750D01*
X182181174Y-123508858D01*
X182184684Y-123485197D01*
X182190496Y-123461993D01*
X182198554Y-123439471D01*
X182208782Y-123417847D01*
X182221079Y-123397330D01*
X182235329Y-123378117D01*
X182251393Y-123360393D01*
X182269117Y-123344329D01*
X182288330Y-123330079D01*
X182308847Y-123317782D01*
X182330471Y-123307554D01*
X182352993Y-123299496D01*
X182376197Y-123293684D01*
X182399858Y-123290174D01*
X182423750Y-123289000D01*
X183336250Y-123289000D01*
X183360142Y-123290174D01*
X183360142Y-123290174D01*
G37*
D18*
X182880000Y-123776500D03*
D16*
G36*
X183360142Y-125165174D02*
G01*
X183383803Y-125168684D01*
X183407007Y-125174496D01*
X183429529Y-125182554D01*
X183451153Y-125192782D01*
X183471670Y-125205079D01*
X183490883Y-125219329D01*
X183508607Y-125235393D01*
X183524671Y-125253117D01*
X183538921Y-125272330D01*
X183551218Y-125292847D01*
X183561446Y-125314471D01*
X183569504Y-125336993D01*
X183575316Y-125360197D01*
X183578826Y-125383858D01*
X183580000Y-125407750D01*
X183580000Y-125895250D01*
X183578826Y-125919142D01*
X183575316Y-125942803D01*
X183569504Y-125966007D01*
X183561446Y-125988529D01*
X183551218Y-126010153D01*
X183538921Y-126030670D01*
X183524671Y-126049883D01*
X183508607Y-126067607D01*
X183490883Y-126083671D01*
X183471670Y-126097921D01*
X183451153Y-126110218D01*
X183429529Y-126120446D01*
X183407007Y-126128504D01*
X183383803Y-126134316D01*
X183360142Y-126137826D01*
X183336250Y-126139000D01*
X182423750Y-126139000D01*
X182399858Y-126137826D01*
X182376197Y-126134316D01*
X182352993Y-126128504D01*
X182330471Y-126120446D01*
X182308847Y-126110218D01*
X182288330Y-126097921D01*
X182269117Y-126083671D01*
X182251393Y-126067607D01*
X182235329Y-126049883D01*
X182221079Y-126030670D01*
X182208782Y-126010153D01*
X182198554Y-125988529D01*
X182190496Y-125966007D01*
X182184684Y-125942803D01*
X182181174Y-125919142D01*
X182180000Y-125895250D01*
X182180000Y-125407750D01*
X182181174Y-125383858D01*
X182184684Y-125360197D01*
X182190496Y-125336993D01*
X182198554Y-125314471D01*
X182208782Y-125292847D01*
X182221079Y-125272330D01*
X182235329Y-125253117D01*
X182251393Y-125235393D01*
X182269117Y-125219329D01*
X182288330Y-125205079D01*
X182308847Y-125192782D01*
X182330471Y-125182554D01*
X182352993Y-125174496D01*
X182376197Y-125168684D01*
X182399858Y-125165174D01*
X182423750Y-125164000D01*
X183336250Y-125164000D01*
X183360142Y-125165174D01*
X183360142Y-125165174D01*
G37*
D18*
X182880000Y-125651500D03*
D16*
G36*
X166129642Y-120205174D02*
G01*
X166153303Y-120208684D01*
X166176507Y-120214496D01*
X166199029Y-120222554D01*
X166220653Y-120232782D01*
X166241170Y-120245079D01*
X166260383Y-120259329D01*
X166278107Y-120275393D01*
X166294171Y-120293117D01*
X166308421Y-120312330D01*
X166320718Y-120332847D01*
X166330946Y-120354471D01*
X166339004Y-120376993D01*
X166344816Y-120400197D01*
X166348326Y-120423858D01*
X166349500Y-120447750D01*
X166349500Y-121360250D01*
X166348326Y-121384142D01*
X166344816Y-121407803D01*
X166339004Y-121431007D01*
X166330946Y-121453529D01*
X166320718Y-121475153D01*
X166308421Y-121495670D01*
X166294171Y-121514883D01*
X166278107Y-121532607D01*
X166260383Y-121548671D01*
X166241170Y-121562921D01*
X166220653Y-121575218D01*
X166199029Y-121585446D01*
X166176507Y-121593504D01*
X166153303Y-121599316D01*
X166129642Y-121602826D01*
X166105750Y-121604000D01*
X165618250Y-121604000D01*
X165594358Y-121602826D01*
X165570697Y-121599316D01*
X165547493Y-121593504D01*
X165524971Y-121585446D01*
X165503347Y-121575218D01*
X165482830Y-121562921D01*
X165463617Y-121548671D01*
X165445893Y-121532607D01*
X165429829Y-121514883D01*
X165415579Y-121495670D01*
X165403282Y-121475153D01*
X165393054Y-121453529D01*
X165384996Y-121431007D01*
X165379184Y-121407803D01*
X165375674Y-121384142D01*
X165374500Y-121360250D01*
X165374500Y-120447750D01*
X165375674Y-120423858D01*
X165379184Y-120400197D01*
X165384996Y-120376993D01*
X165393054Y-120354471D01*
X165403282Y-120332847D01*
X165415579Y-120312330D01*
X165429829Y-120293117D01*
X165445893Y-120275393D01*
X165463617Y-120259329D01*
X165482830Y-120245079D01*
X165503347Y-120232782D01*
X165524971Y-120222554D01*
X165547493Y-120214496D01*
X165570697Y-120208684D01*
X165594358Y-120205174D01*
X165618250Y-120204000D01*
X166105750Y-120204000D01*
X166129642Y-120205174D01*
X166129642Y-120205174D01*
G37*
D18*
X165862000Y-120904000D03*
D16*
G36*
X164254642Y-120205174D02*
G01*
X164278303Y-120208684D01*
X164301507Y-120214496D01*
X164324029Y-120222554D01*
X164345653Y-120232782D01*
X164366170Y-120245079D01*
X164385383Y-120259329D01*
X164403107Y-120275393D01*
X164419171Y-120293117D01*
X164433421Y-120312330D01*
X164445718Y-120332847D01*
X164455946Y-120354471D01*
X164464004Y-120376993D01*
X164469816Y-120400197D01*
X164473326Y-120423858D01*
X164474500Y-120447750D01*
X164474500Y-121360250D01*
X164473326Y-121384142D01*
X164469816Y-121407803D01*
X164464004Y-121431007D01*
X164455946Y-121453529D01*
X164445718Y-121475153D01*
X164433421Y-121495670D01*
X164419171Y-121514883D01*
X164403107Y-121532607D01*
X164385383Y-121548671D01*
X164366170Y-121562921D01*
X164345653Y-121575218D01*
X164324029Y-121585446D01*
X164301507Y-121593504D01*
X164278303Y-121599316D01*
X164254642Y-121602826D01*
X164230750Y-121604000D01*
X163743250Y-121604000D01*
X163719358Y-121602826D01*
X163695697Y-121599316D01*
X163672493Y-121593504D01*
X163649971Y-121585446D01*
X163628347Y-121575218D01*
X163607830Y-121562921D01*
X163588617Y-121548671D01*
X163570893Y-121532607D01*
X163554829Y-121514883D01*
X163540579Y-121495670D01*
X163528282Y-121475153D01*
X163518054Y-121453529D01*
X163509996Y-121431007D01*
X163504184Y-121407803D01*
X163500674Y-121384142D01*
X163499500Y-121360250D01*
X163499500Y-120447750D01*
X163500674Y-120423858D01*
X163504184Y-120400197D01*
X163509996Y-120376993D01*
X163518054Y-120354471D01*
X163528282Y-120332847D01*
X163540579Y-120312330D01*
X163554829Y-120293117D01*
X163570893Y-120275393D01*
X163588617Y-120259329D01*
X163607830Y-120245079D01*
X163628347Y-120232782D01*
X163649971Y-120222554D01*
X163672493Y-120214496D01*
X163695697Y-120208684D01*
X163719358Y-120205174D01*
X163743250Y-120204000D01*
X164230750Y-120204000D01*
X164254642Y-120205174D01*
X164254642Y-120205174D01*
G37*
D18*
X163987000Y-120904000D03*
D16*
G36*
X183106142Y-113481174D02*
G01*
X183129803Y-113484684D01*
X183153007Y-113490496D01*
X183175529Y-113498554D01*
X183197153Y-113508782D01*
X183217670Y-113521079D01*
X183236883Y-113535329D01*
X183254607Y-113551393D01*
X183270671Y-113569117D01*
X183284921Y-113588330D01*
X183297218Y-113608847D01*
X183307446Y-113630471D01*
X183315504Y-113652993D01*
X183321316Y-113676197D01*
X183324826Y-113699858D01*
X183326000Y-113723750D01*
X183326000Y-114211250D01*
X183324826Y-114235142D01*
X183321316Y-114258803D01*
X183315504Y-114282007D01*
X183307446Y-114304529D01*
X183297218Y-114326153D01*
X183284921Y-114346670D01*
X183270671Y-114365883D01*
X183254607Y-114383607D01*
X183236883Y-114399671D01*
X183217670Y-114413921D01*
X183197153Y-114426218D01*
X183175529Y-114436446D01*
X183153007Y-114444504D01*
X183129803Y-114450316D01*
X183106142Y-114453826D01*
X183082250Y-114455000D01*
X182169750Y-114455000D01*
X182145858Y-114453826D01*
X182122197Y-114450316D01*
X182098993Y-114444504D01*
X182076471Y-114436446D01*
X182054847Y-114426218D01*
X182034330Y-114413921D01*
X182015117Y-114399671D01*
X181997393Y-114383607D01*
X181981329Y-114365883D01*
X181967079Y-114346670D01*
X181954782Y-114326153D01*
X181944554Y-114304529D01*
X181936496Y-114282007D01*
X181930684Y-114258803D01*
X181927174Y-114235142D01*
X181926000Y-114211250D01*
X181926000Y-113723750D01*
X181927174Y-113699858D01*
X181930684Y-113676197D01*
X181936496Y-113652993D01*
X181944554Y-113630471D01*
X181954782Y-113608847D01*
X181967079Y-113588330D01*
X181981329Y-113569117D01*
X181997393Y-113551393D01*
X182015117Y-113535329D01*
X182034330Y-113521079D01*
X182054847Y-113508782D01*
X182076471Y-113498554D01*
X182098993Y-113490496D01*
X182122197Y-113484684D01*
X182145858Y-113481174D01*
X182169750Y-113480000D01*
X183082250Y-113480000D01*
X183106142Y-113481174D01*
X183106142Y-113481174D01*
G37*
D18*
X182626000Y-113967500D03*
D16*
G36*
X183106142Y-111606174D02*
G01*
X183129803Y-111609684D01*
X183153007Y-111615496D01*
X183175529Y-111623554D01*
X183197153Y-111633782D01*
X183217670Y-111646079D01*
X183236883Y-111660329D01*
X183254607Y-111676393D01*
X183270671Y-111694117D01*
X183284921Y-111713330D01*
X183297218Y-111733847D01*
X183307446Y-111755471D01*
X183315504Y-111777993D01*
X183321316Y-111801197D01*
X183324826Y-111824858D01*
X183326000Y-111848750D01*
X183326000Y-112336250D01*
X183324826Y-112360142D01*
X183321316Y-112383803D01*
X183315504Y-112407007D01*
X183307446Y-112429529D01*
X183297218Y-112451153D01*
X183284921Y-112471670D01*
X183270671Y-112490883D01*
X183254607Y-112508607D01*
X183236883Y-112524671D01*
X183217670Y-112538921D01*
X183197153Y-112551218D01*
X183175529Y-112561446D01*
X183153007Y-112569504D01*
X183129803Y-112575316D01*
X183106142Y-112578826D01*
X183082250Y-112580000D01*
X182169750Y-112580000D01*
X182145858Y-112578826D01*
X182122197Y-112575316D01*
X182098993Y-112569504D01*
X182076471Y-112561446D01*
X182054847Y-112551218D01*
X182034330Y-112538921D01*
X182015117Y-112524671D01*
X181997393Y-112508607D01*
X181981329Y-112490883D01*
X181967079Y-112471670D01*
X181954782Y-112451153D01*
X181944554Y-112429529D01*
X181936496Y-112407007D01*
X181930684Y-112383803D01*
X181927174Y-112360142D01*
X181926000Y-112336250D01*
X181926000Y-111848750D01*
X181927174Y-111824858D01*
X181930684Y-111801197D01*
X181936496Y-111777993D01*
X181944554Y-111755471D01*
X181954782Y-111733847D01*
X181967079Y-111713330D01*
X181981329Y-111694117D01*
X181997393Y-111676393D01*
X182015117Y-111660329D01*
X182034330Y-111646079D01*
X182054847Y-111633782D01*
X182076471Y-111623554D01*
X182098993Y-111615496D01*
X182122197Y-111609684D01*
X182145858Y-111606174D01*
X182169750Y-111605000D01*
X183082250Y-111605000D01*
X183106142Y-111606174D01*
X183106142Y-111606174D01*
G37*
D18*
X182626000Y-112092500D03*
D16*
G36*
X180820142Y-126259674D02*
G01*
X180843803Y-126263184D01*
X180867007Y-126268996D01*
X180889529Y-126277054D01*
X180911153Y-126287282D01*
X180931670Y-126299579D01*
X180950883Y-126313829D01*
X180968607Y-126329893D01*
X180984671Y-126347617D01*
X180998921Y-126366830D01*
X181011218Y-126387347D01*
X181021446Y-126408971D01*
X181029504Y-126431493D01*
X181035316Y-126454697D01*
X181038826Y-126478358D01*
X181040000Y-126502250D01*
X181040000Y-126989750D01*
X181038826Y-127013642D01*
X181035316Y-127037303D01*
X181029504Y-127060507D01*
X181021446Y-127083029D01*
X181011218Y-127104653D01*
X180998921Y-127125170D01*
X180984671Y-127144383D01*
X180968607Y-127162107D01*
X180950883Y-127178171D01*
X180931670Y-127192421D01*
X180911153Y-127204718D01*
X180889529Y-127214946D01*
X180867007Y-127223004D01*
X180843803Y-127228816D01*
X180820142Y-127232326D01*
X180796250Y-127233500D01*
X179883750Y-127233500D01*
X179859858Y-127232326D01*
X179836197Y-127228816D01*
X179812993Y-127223004D01*
X179790471Y-127214946D01*
X179768847Y-127204718D01*
X179748330Y-127192421D01*
X179729117Y-127178171D01*
X179711393Y-127162107D01*
X179695329Y-127144383D01*
X179681079Y-127125170D01*
X179668782Y-127104653D01*
X179658554Y-127083029D01*
X179650496Y-127060507D01*
X179644684Y-127037303D01*
X179641174Y-127013642D01*
X179640000Y-126989750D01*
X179640000Y-126502250D01*
X179641174Y-126478358D01*
X179644684Y-126454697D01*
X179650496Y-126431493D01*
X179658554Y-126408971D01*
X179668782Y-126387347D01*
X179681079Y-126366830D01*
X179695329Y-126347617D01*
X179711393Y-126329893D01*
X179729117Y-126313829D01*
X179748330Y-126299579D01*
X179768847Y-126287282D01*
X179790471Y-126277054D01*
X179812993Y-126268996D01*
X179836197Y-126263184D01*
X179859858Y-126259674D01*
X179883750Y-126258500D01*
X180796250Y-126258500D01*
X180820142Y-126259674D01*
X180820142Y-126259674D01*
G37*
D18*
X180340000Y-126746000D03*
D16*
G36*
X180820142Y-128134674D02*
G01*
X180843803Y-128138184D01*
X180867007Y-128143996D01*
X180889529Y-128152054D01*
X180911153Y-128162282D01*
X180931670Y-128174579D01*
X180950883Y-128188829D01*
X180968607Y-128204893D01*
X180984671Y-128222617D01*
X180998921Y-128241830D01*
X181011218Y-128262347D01*
X181021446Y-128283971D01*
X181029504Y-128306493D01*
X181035316Y-128329697D01*
X181038826Y-128353358D01*
X181040000Y-128377250D01*
X181040000Y-128864750D01*
X181038826Y-128888642D01*
X181035316Y-128912303D01*
X181029504Y-128935507D01*
X181021446Y-128958029D01*
X181011218Y-128979653D01*
X180998921Y-129000170D01*
X180984671Y-129019383D01*
X180968607Y-129037107D01*
X180950883Y-129053171D01*
X180931670Y-129067421D01*
X180911153Y-129079718D01*
X180889529Y-129089946D01*
X180867007Y-129098004D01*
X180843803Y-129103816D01*
X180820142Y-129107326D01*
X180796250Y-129108500D01*
X179883750Y-129108500D01*
X179859858Y-129107326D01*
X179836197Y-129103816D01*
X179812993Y-129098004D01*
X179790471Y-129089946D01*
X179768847Y-129079718D01*
X179748330Y-129067421D01*
X179729117Y-129053171D01*
X179711393Y-129037107D01*
X179695329Y-129019383D01*
X179681079Y-129000170D01*
X179668782Y-128979653D01*
X179658554Y-128958029D01*
X179650496Y-128935507D01*
X179644684Y-128912303D01*
X179641174Y-128888642D01*
X179640000Y-128864750D01*
X179640000Y-128377250D01*
X179641174Y-128353358D01*
X179644684Y-128329697D01*
X179650496Y-128306493D01*
X179658554Y-128283971D01*
X179668782Y-128262347D01*
X179681079Y-128241830D01*
X179695329Y-128222617D01*
X179711393Y-128204893D01*
X179729117Y-128188829D01*
X179748330Y-128174579D01*
X179768847Y-128162282D01*
X179790471Y-128152054D01*
X179812993Y-128143996D01*
X179836197Y-128138184D01*
X179859858Y-128134674D01*
X179883750Y-128133500D01*
X180796250Y-128133500D01*
X180820142Y-128134674D01*
X180820142Y-128134674D01*
G37*
D18*
X180340000Y-128621000D03*
D16*
G36*
X160754142Y-56839174D02*
G01*
X160777803Y-56842684D01*
X160801007Y-56848496D01*
X160823529Y-56856554D01*
X160845153Y-56866782D01*
X160865670Y-56879079D01*
X160884883Y-56893329D01*
X160902607Y-56909393D01*
X160918671Y-56927117D01*
X160932921Y-56946330D01*
X160945218Y-56966847D01*
X160955446Y-56988471D01*
X160963504Y-57010993D01*
X160969316Y-57034197D01*
X160972826Y-57057858D01*
X160974000Y-57081750D01*
X160974000Y-57569250D01*
X160972826Y-57593142D01*
X160969316Y-57616803D01*
X160963504Y-57640007D01*
X160955446Y-57662529D01*
X160945218Y-57684153D01*
X160932921Y-57704670D01*
X160918671Y-57723883D01*
X160902607Y-57741607D01*
X160884883Y-57757671D01*
X160865670Y-57771921D01*
X160845153Y-57784218D01*
X160823529Y-57794446D01*
X160801007Y-57802504D01*
X160777803Y-57808316D01*
X160754142Y-57811826D01*
X160730250Y-57813000D01*
X159817750Y-57813000D01*
X159793858Y-57811826D01*
X159770197Y-57808316D01*
X159746993Y-57802504D01*
X159724471Y-57794446D01*
X159702847Y-57784218D01*
X159682330Y-57771921D01*
X159663117Y-57757671D01*
X159645393Y-57741607D01*
X159629329Y-57723883D01*
X159615079Y-57704670D01*
X159602782Y-57684153D01*
X159592554Y-57662529D01*
X159584496Y-57640007D01*
X159578684Y-57616803D01*
X159575174Y-57593142D01*
X159574000Y-57569250D01*
X159574000Y-57081750D01*
X159575174Y-57057858D01*
X159578684Y-57034197D01*
X159584496Y-57010993D01*
X159592554Y-56988471D01*
X159602782Y-56966847D01*
X159615079Y-56946330D01*
X159629329Y-56927117D01*
X159645393Y-56909393D01*
X159663117Y-56893329D01*
X159682330Y-56879079D01*
X159702847Y-56866782D01*
X159724471Y-56856554D01*
X159746993Y-56848496D01*
X159770197Y-56842684D01*
X159793858Y-56839174D01*
X159817750Y-56838000D01*
X160730250Y-56838000D01*
X160754142Y-56839174D01*
X160754142Y-56839174D01*
G37*
D18*
X160274000Y-57325500D03*
D16*
G36*
X160754142Y-54964174D02*
G01*
X160777803Y-54967684D01*
X160801007Y-54973496D01*
X160823529Y-54981554D01*
X160845153Y-54991782D01*
X160865670Y-55004079D01*
X160884883Y-55018329D01*
X160902607Y-55034393D01*
X160918671Y-55052117D01*
X160932921Y-55071330D01*
X160945218Y-55091847D01*
X160955446Y-55113471D01*
X160963504Y-55135993D01*
X160969316Y-55159197D01*
X160972826Y-55182858D01*
X160974000Y-55206750D01*
X160974000Y-55694250D01*
X160972826Y-55718142D01*
X160969316Y-55741803D01*
X160963504Y-55765007D01*
X160955446Y-55787529D01*
X160945218Y-55809153D01*
X160932921Y-55829670D01*
X160918671Y-55848883D01*
X160902607Y-55866607D01*
X160884883Y-55882671D01*
X160865670Y-55896921D01*
X160845153Y-55909218D01*
X160823529Y-55919446D01*
X160801007Y-55927504D01*
X160777803Y-55933316D01*
X160754142Y-55936826D01*
X160730250Y-55938000D01*
X159817750Y-55938000D01*
X159793858Y-55936826D01*
X159770197Y-55933316D01*
X159746993Y-55927504D01*
X159724471Y-55919446D01*
X159702847Y-55909218D01*
X159682330Y-55896921D01*
X159663117Y-55882671D01*
X159645393Y-55866607D01*
X159629329Y-55848883D01*
X159615079Y-55829670D01*
X159602782Y-55809153D01*
X159592554Y-55787529D01*
X159584496Y-55765007D01*
X159578684Y-55741803D01*
X159575174Y-55718142D01*
X159574000Y-55694250D01*
X159574000Y-55206750D01*
X159575174Y-55182858D01*
X159578684Y-55159197D01*
X159584496Y-55135993D01*
X159592554Y-55113471D01*
X159602782Y-55091847D01*
X159615079Y-55071330D01*
X159629329Y-55052117D01*
X159645393Y-55034393D01*
X159663117Y-55018329D01*
X159682330Y-55004079D01*
X159702847Y-54991782D01*
X159724471Y-54981554D01*
X159746993Y-54973496D01*
X159770197Y-54967684D01*
X159793858Y-54964174D01*
X159817750Y-54963000D01*
X160730250Y-54963000D01*
X160754142Y-54964174D01*
X160754142Y-54964174D01*
G37*
D18*
X160274000Y-55450500D03*
D23*
X164860000Y-113792000D03*
X164860000Y-116692000D03*
X162560000Y-116692000D03*
X162560000Y-113792000D03*
D16*
G36*
X158468142Y-56839174D02*
G01*
X158491803Y-56842684D01*
X158515007Y-56848496D01*
X158537529Y-56856554D01*
X158559153Y-56866782D01*
X158579670Y-56879079D01*
X158598883Y-56893329D01*
X158616607Y-56909393D01*
X158632671Y-56927117D01*
X158646921Y-56946330D01*
X158659218Y-56966847D01*
X158669446Y-56988471D01*
X158677504Y-57010993D01*
X158683316Y-57034197D01*
X158686826Y-57057858D01*
X158688000Y-57081750D01*
X158688000Y-57569250D01*
X158686826Y-57593142D01*
X158683316Y-57616803D01*
X158677504Y-57640007D01*
X158669446Y-57662529D01*
X158659218Y-57684153D01*
X158646921Y-57704670D01*
X158632671Y-57723883D01*
X158616607Y-57741607D01*
X158598883Y-57757671D01*
X158579670Y-57771921D01*
X158559153Y-57784218D01*
X158537529Y-57794446D01*
X158515007Y-57802504D01*
X158491803Y-57808316D01*
X158468142Y-57811826D01*
X158444250Y-57813000D01*
X157531750Y-57813000D01*
X157507858Y-57811826D01*
X157484197Y-57808316D01*
X157460993Y-57802504D01*
X157438471Y-57794446D01*
X157416847Y-57784218D01*
X157396330Y-57771921D01*
X157377117Y-57757671D01*
X157359393Y-57741607D01*
X157343329Y-57723883D01*
X157329079Y-57704670D01*
X157316782Y-57684153D01*
X157306554Y-57662529D01*
X157298496Y-57640007D01*
X157292684Y-57616803D01*
X157289174Y-57593142D01*
X157288000Y-57569250D01*
X157288000Y-57081750D01*
X157289174Y-57057858D01*
X157292684Y-57034197D01*
X157298496Y-57010993D01*
X157306554Y-56988471D01*
X157316782Y-56966847D01*
X157329079Y-56946330D01*
X157343329Y-56927117D01*
X157359393Y-56909393D01*
X157377117Y-56893329D01*
X157396330Y-56879079D01*
X157416847Y-56866782D01*
X157438471Y-56856554D01*
X157460993Y-56848496D01*
X157484197Y-56842684D01*
X157507858Y-56839174D01*
X157531750Y-56838000D01*
X158444250Y-56838000D01*
X158468142Y-56839174D01*
X158468142Y-56839174D01*
G37*
D18*
X157988000Y-57325500D03*
D16*
G36*
X158468142Y-54964174D02*
G01*
X158491803Y-54967684D01*
X158515007Y-54973496D01*
X158537529Y-54981554D01*
X158559153Y-54991782D01*
X158579670Y-55004079D01*
X158598883Y-55018329D01*
X158616607Y-55034393D01*
X158632671Y-55052117D01*
X158646921Y-55071330D01*
X158659218Y-55091847D01*
X158669446Y-55113471D01*
X158677504Y-55135993D01*
X158683316Y-55159197D01*
X158686826Y-55182858D01*
X158688000Y-55206750D01*
X158688000Y-55694250D01*
X158686826Y-55718142D01*
X158683316Y-55741803D01*
X158677504Y-55765007D01*
X158669446Y-55787529D01*
X158659218Y-55809153D01*
X158646921Y-55829670D01*
X158632671Y-55848883D01*
X158616607Y-55866607D01*
X158598883Y-55882671D01*
X158579670Y-55896921D01*
X158559153Y-55909218D01*
X158537529Y-55919446D01*
X158515007Y-55927504D01*
X158491803Y-55933316D01*
X158468142Y-55936826D01*
X158444250Y-55938000D01*
X157531750Y-55938000D01*
X157507858Y-55936826D01*
X157484197Y-55933316D01*
X157460993Y-55927504D01*
X157438471Y-55919446D01*
X157416847Y-55909218D01*
X157396330Y-55896921D01*
X157377117Y-55882671D01*
X157359393Y-55866607D01*
X157343329Y-55848883D01*
X157329079Y-55829670D01*
X157316782Y-55809153D01*
X157306554Y-55787529D01*
X157298496Y-55765007D01*
X157292684Y-55741803D01*
X157289174Y-55718142D01*
X157288000Y-55694250D01*
X157288000Y-55206750D01*
X157289174Y-55182858D01*
X157292684Y-55159197D01*
X157298496Y-55135993D01*
X157306554Y-55113471D01*
X157316782Y-55091847D01*
X157329079Y-55071330D01*
X157343329Y-55052117D01*
X157359393Y-55034393D01*
X157377117Y-55018329D01*
X157396330Y-55004079D01*
X157416847Y-54991782D01*
X157438471Y-54981554D01*
X157460993Y-54973496D01*
X157484197Y-54967684D01*
X157507858Y-54964174D01*
X157531750Y-54963000D01*
X158444250Y-54963000D01*
X158468142Y-54964174D01*
X158468142Y-54964174D01*
G37*
D18*
X157988000Y-55450500D03*
D24*
X189628000Y-121718000D03*
X185928000Y-115518000D03*
X185928000Y-121718000D03*
X189628000Y-115518000D03*
D16*
G36*
X164254642Y-122237174D02*
G01*
X164278303Y-122240684D01*
X164301507Y-122246496D01*
X164324029Y-122254554D01*
X164345653Y-122264782D01*
X164366170Y-122277079D01*
X164385383Y-122291329D01*
X164403107Y-122307393D01*
X164419171Y-122325117D01*
X164433421Y-122344330D01*
X164445718Y-122364847D01*
X164455946Y-122386471D01*
X164464004Y-122408993D01*
X164469816Y-122432197D01*
X164473326Y-122455858D01*
X164474500Y-122479750D01*
X164474500Y-123392250D01*
X164473326Y-123416142D01*
X164469816Y-123439803D01*
X164464004Y-123463007D01*
X164455946Y-123485529D01*
X164445718Y-123507153D01*
X164433421Y-123527670D01*
X164419171Y-123546883D01*
X164403107Y-123564607D01*
X164385383Y-123580671D01*
X164366170Y-123594921D01*
X164345653Y-123607218D01*
X164324029Y-123617446D01*
X164301507Y-123625504D01*
X164278303Y-123631316D01*
X164254642Y-123634826D01*
X164230750Y-123636000D01*
X163743250Y-123636000D01*
X163719358Y-123634826D01*
X163695697Y-123631316D01*
X163672493Y-123625504D01*
X163649971Y-123617446D01*
X163628347Y-123607218D01*
X163607830Y-123594921D01*
X163588617Y-123580671D01*
X163570893Y-123564607D01*
X163554829Y-123546883D01*
X163540579Y-123527670D01*
X163528282Y-123507153D01*
X163518054Y-123485529D01*
X163509996Y-123463007D01*
X163504184Y-123439803D01*
X163500674Y-123416142D01*
X163499500Y-123392250D01*
X163499500Y-122479750D01*
X163500674Y-122455858D01*
X163504184Y-122432197D01*
X163509996Y-122408993D01*
X163518054Y-122386471D01*
X163528282Y-122364847D01*
X163540579Y-122344330D01*
X163554829Y-122325117D01*
X163570893Y-122307393D01*
X163588617Y-122291329D01*
X163607830Y-122277079D01*
X163628347Y-122264782D01*
X163649971Y-122254554D01*
X163672493Y-122246496D01*
X163695697Y-122240684D01*
X163719358Y-122237174D01*
X163743250Y-122236000D01*
X164230750Y-122236000D01*
X164254642Y-122237174D01*
X164254642Y-122237174D01*
G37*
D18*
X163987000Y-122936000D03*
D16*
G36*
X166129642Y-122237174D02*
G01*
X166153303Y-122240684D01*
X166176507Y-122246496D01*
X166199029Y-122254554D01*
X166220653Y-122264782D01*
X166241170Y-122277079D01*
X166260383Y-122291329D01*
X166278107Y-122307393D01*
X166294171Y-122325117D01*
X166308421Y-122344330D01*
X166320718Y-122364847D01*
X166330946Y-122386471D01*
X166339004Y-122408993D01*
X166344816Y-122432197D01*
X166348326Y-122455858D01*
X166349500Y-122479750D01*
X166349500Y-123392250D01*
X166348326Y-123416142D01*
X166344816Y-123439803D01*
X166339004Y-123463007D01*
X166330946Y-123485529D01*
X166320718Y-123507153D01*
X166308421Y-123527670D01*
X166294171Y-123546883D01*
X166278107Y-123564607D01*
X166260383Y-123580671D01*
X166241170Y-123594921D01*
X166220653Y-123607218D01*
X166199029Y-123617446D01*
X166176507Y-123625504D01*
X166153303Y-123631316D01*
X166129642Y-123634826D01*
X166105750Y-123636000D01*
X165618250Y-123636000D01*
X165594358Y-123634826D01*
X165570697Y-123631316D01*
X165547493Y-123625504D01*
X165524971Y-123617446D01*
X165503347Y-123607218D01*
X165482830Y-123594921D01*
X165463617Y-123580671D01*
X165445893Y-123564607D01*
X165429829Y-123546883D01*
X165415579Y-123527670D01*
X165403282Y-123507153D01*
X165393054Y-123485529D01*
X165384996Y-123463007D01*
X165379184Y-123439803D01*
X165375674Y-123416142D01*
X165374500Y-123392250D01*
X165374500Y-122479750D01*
X165375674Y-122455858D01*
X165379184Y-122432197D01*
X165384996Y-122408993D01*
X165393054Y-122386471D01*
X165403282Y-122364847D01*
X165415579Y-122344330D01*
X165429829Y-122325117D01*
X165445893Y-122307393D01*
X165463617Y-122291329D01*
X165482830Y-122277079D01*
X165503347Y-122264782D01*
X165524971Y-122254554D01*
X165547493Y-122246496D01*
X165570697Y-122240684D01*
X165594358Y-122237174D01*
X165618250Y-122236000D01*
X166105750Y-122236000D01*
X166129642Y-122237174D01*
X166129642Y-122237174D01*
G37*
D18*
X165862000Y-122936000D03*
D16*
G36*
X163717504Y-57418204D02*
G01*
X163741773Y-57421804D01*
X163765571Y-57427765D01*
X163788671Y-57436030D01*
X163810849Y-57446520D01*
X163831893Y-57459133D01*
X163851598Y-57473747D01*
X163869777Y-57490223D01*
X163886253Y-57508402D01*
X163900867Y-57528107D01*
X163913480Y-57549151D01*
X163923970Y-57571329D01*
X163932235Y-57594429D01*
X163938196Y-57618227D01*
X163941796Y-57642496D01*
X163943000Y-57667000D01*
X163943000Y-58417000D01*
X163941796Y-58441504D01*
X163938196Y-58465773D01*
X163932235Y-58489571D01*
X163923970Y-58512671D01*
X163913480Y-58534849D01*
X163900867Y-58555893D01*
X163886253Y-58575598D01*
X163869777Y-58593777D01*
X163851598Y-58610253D01*
X163831893Y-58624867D01*
X163810849Y-58637480D01*
X163788671Y-58647970D01*
X163765571Y-58656235D01*
X163741773Y-58662196D01*
X163717504Y-58665796D01*
X163693000Y-58667000D01*
X162443000Y-58667000D01*
X162418496Y-58665796D01*
X162394227Y-58662196D01*
X162370429Y-58656235D01*
X162347329Y-58647970D01*
X162325151Y-58637480D01*
X162304107Y-58624867D01*
X162284402Y-58610253D01*
X162266223Y-58593777D01*
X162249747Y-58575598D01*
X162235133Y-58555893D01*
X162222520Y-58534849D01*
X162212030Y-58512671D01*
X162203765Y-58489571D01*
X162197804Y-58465773D01*
X162194204Y-58441504D01*
X162193000Y-58417000D01*
X162193000Y-57667000D01*
X162194204Y-57642496D01*
X162197804Y-57618227D01*
X162203765Y-57594429D01*
X162212030Y-57571329D01*
X162222520Y-57549151D01*
X162235133Y-57528107D01*
X162249747Y-57508402D01*
X162266223Y-57490223D01*
X162284402Y-57473747D01*
X162304107Y-57459133D01*
X162325151Y-57446520D01*
X162347329Y-57436030D01*
X162370429Y-57427765D01*
X162394227Y-57421804D01*
X162418496Y-57418204D01*
X162443000Y-57417000D01*
X163693000Y-57417000D01*
X163717504Y-57418204D01*
X163717504Y-57418204D01*
G37*
D25*
X163068000Y-58042000D03*
D16*
G36*
X163717504Y-54618204D02*
G01*
X163741773Y-54621804D01*
X163765571Y-54627765D01*
X163788671Y-54636030D01*
X163810849Y-54646520D01*
X163831893Y-54659133D01*
X163851598Y-54673747D01*
X163869777Y-54690223D01*
X163886253Y-54708402D01*
X163900867Y-54728107D01*
X163913480Y-54749151D01*
X163923970Y-54771329D01*
X163932235Y-54794429D01*
X163938196Y-54818227D01*
X163941796Y-54842496D01*
X163943000Y-54867000D01*
X163943000Y-55617000D01*
X163941796Y-55641504D01*
X163938196Y-55665773D01*
X163932235Y-55689571D01*
X163923970Y-55712671D01*
X163913480Y-55734849D01*
X163900867Y-55755893D01*
X163886253Y-55775598D01*
X163869777Y-55793777D01*
X163851598Y-55810253D01*
X163831893Y-55824867D01*
X163810849Y-55837480D01*
X163788671Y-55847970D01*
X163765571Y-55856235D01*
X163741773Y-55862196D01*
X163717504Y-55865796D01*
X163693000Y-55867000D01*
X162443000Y-55867000D01*
X162418496Y-55865796D01*
X162394227Y-55862196D01*
X162370429Y-55856235D01*
X162347329Y-55847970D01*
X162325151Y-55837480D01*
X162304107Y-55824867D01*
X162284402Y-55810253D01*
X162266223Y-55793777D01*
X162249747Y-55775598D01*
X162235133Y-55755893D01*
X162222520Y-55734849D01*
X162212030Y-55712671D01*
X162203765Y-55689571D01*
X162197804Y-55665773D01*
X162194204Y-55641504D01*
X162193000Y-55617000D01*
X162193000Y-54867000D01*
X162194204Y-54842496D01*
X162197804Y-54818227D01*
X162203765Y-54794429D01*
X162212030Y-54771329D01*
X162222520Y-54749151D01*
X162235133Y-54728107D01*
X162249747Y-54708402D01*
X162266223Y-54690223D01*
X162284402Y-54673747D01*
X162304107Y-54659133D01*
X162325151Y-54646520D01*
X162347329Y-54636030D01*
X162370429Y-54627765D01*
X162394227Y-54621804D01*
X162418496Y-54618204D01*
X162443000Y-54617000D01*
X163693000Y-54617000D01*
X163717504Y-54618204D01*
X163717504Y-54618204D01*
G37*
D25*
X163068000Y-55242000D03*
D16*
G36*
X175486142Y-126259674D02*
G01*
X175509803Y-126263184D01*
X175533007Y-126268996D01*
X175555529Y-126277054D01*
X175577153Y-126287282D01*
X175597670Y-126299579D01*
X175616883Y-126313829D01*
X175634607Y-126329893D01*
X175650671Y-126347617D01*
X175664921Y-126366830D01*
X175677218Y-126387347D01*
X175687446Y-126408971D01*
X175695504Y-126431493D01*
X175701316Y-126454697D01*
X175704826Y-126478358D01*
X175706000Y-126502250D01*
X175706000Y-126989750D01*
X175704826Y-127013642D01*
X175701316Y-127037303D01*
X175695504Y-127060507D01*
X175687446Y-127083029D01*
X175677218Y-127104653D01*
X175664921Y-127125170D01*
X175650671Y-127144383D01*
X175634607Y-127162107D01*
X175616883Y-127178171D01*
X175597670Y-127192421D01*
X175577153Y-127204718D01*
X175555529Y-127214946D01*
X175533007Y-127223004D01*
X175509803Y-127228816D01*
X175486142Y-127232326D01*
X175462250Y-127233500D01*
X174549750Y-127233500D01*
X174525858Y-127232326D01*
X174502197Y-127228816D01*
X174478993Y-127223004D01*
X174456471Y-127214946D01*
X174434847Y-127204718D01*
X174414330Y-127192421D01*
X174395117Y-127178171D01*
X174377393Y-127162107D01*
X174361329Y-127144383D01*
X174347079Y-127125170D01*
X174334782Y-127104653D01*
X174324554Y-127083029D01*
X174316496Y-127060507D01*
X174310684Y-127037303D01*
X174307174Y-127013642D01*
X174306000Y-126989750D01*
X174306000Y-126502250D01*
X174307174Y-126478358D01*
X174310684Y-126454697D01*
X174316496Y-126431493D01*
X174324554Y-126408971D01*
X174334782Y-126387347D01*
X174347079Y-126366830D01*
X174361329Y-126347617D01*
X174377393Y-126329893D01*
X174395117Y-126313829D01*
X174414330Y-126299579D01*
X174434847Y-126287282D01*
X174456471Y-126277054D01*
X174478993Y-126268996D01*
X174502197Y-126263184D01*
X174525858Y-126259674D01*
X174549750Y-126258500D01*
X175462250Y-126258500D01*
X175486142Y-126259674D01*
X175486142Y-126259674D01*
G37*
D18*
X175006000Y-126746000D03*
D16*
G36*
X175486142Y-128134674D02*
G01*
X175509803Y-128138184D01*
X175533007Y-128143996D01*
X175555529Y-128152054D01*
X175577153Y-128162282D01*
X175597670Y-128174579D01*
X175616883Y-128188829D01*
X175634607Y-128204893D01*
X175650671Y-128222617D01*
X175664921Y-128241830D01*
X175677218Y-128262347D01*
X175687446Y-128283971D01*
X175695504Y-128306493D01*
X175701316Y-128329697D01*
X175704826Y-128353358D01*
X175706000Y-128377250D01*
X175706000Y-128864750D01*
X175704826Y-128888642D01*
X175701316Y-128912303D01*
X175695504Y-128935507D01*
X175687446Y-128958029D01*
X175677218Y-128979653D01*
X175664921Y-129000170D01*
X175650671Y-129019383D01*
X175634607Y-129037107D01*
X175616883Y-129053171D01*
X175597670Y-129067421D01*
X175577153Y-129079718D01*
X175555529Y-129089946D01*
X175533007Y-129098004D01*
X175509803Y-129103816D01*
X175486142Y-129107326D01*
X175462250Y-129108500D01*
X174549750Y-129108500D01*
X174525858Y-129107326D01*
X174502197Y-129103816D01*
X174478993Y-129098004D01*
X174456471Y-129089946D01*
X174434847Y-129079718D01*
X174414330Y-129067421D01*
X174395117Y-129053171D01*
X174377393Y-129037107D01*
X174361329Y-129019383D01*
X174347079Y-129000170D01*
X174334782Y-128979653D01*
X174324554Y-128958029D01*
X174316496Y-128935507D01*
X174310684Y-128912303D01*
X174307174Y-128888642D01*
X174306000Y-128864750D01*
X174306000Y-128377250D01*
X174307174Y-128353358D01*
X174310684Y-128329697D01*
X174316496Y-128306493D01*
X174324554Y-128283971D01*
X174334782Y-128262347D01*
X174347079Y-128241830D01*
X174361329Y-128222617D01*
X174377393Y-128204893D01*
X174395117Y-128188829D01*
X174414330Y-128174579D01*
X174434847Y-128162282D01*
X174456471Y-128152054D01*
X174478993Y-128143996D01*
X174502197Y-128138184D01*
X174525858Y-128134674D01*
X174549750Y-128133500D01*
X175462250Y-128133500D01*
X175486142Y-128134674D01*
X175486142Y-128134674D01*
G37*
D18*
X175006000Y-128621000D03*
D16*
G36*
X159992142Y-118228674D02*
G01*
X160015803Y-118232184D01*
X160039007Y-118237996D01*
X160061529Y-118246054D01*
X160083153Y-118256282D01*
X160103670Y-118268579D01*
X160122883Y-118282829D01*
X160140607Y-118298893D01*
X160156671Y-118316617D01*
X160170921Y-118335830D01*
X160183218Y-118356347D01*
X160193446Y-118377971D01*
X160201504Y-118400493D01*
X160207316Y-118423697D01*
X160210826Y-118447358D01*
X160212000Y-118471250D01*
X160212000Y-118958750D01*
X160210826Y-118982642D01*
X160207316Y-119006303D01*
X160201504Y-119029507D01*
X160193446Y-119052029D01*
X160183218Y-119073653D01*
X160170921Y-119094170D01*
X160156671Y-119113383D01*
X160140607Y-119131107D01*
X160122883Y-119147171D01*
X160103670Y-119161421D01*
X160083153Y-119173718D01*
X160061529Y-119183946D01*
X160039007Y-119192004D01*
X160015803Y-119197816D01*
X159992142Y-119201326D01*
X159968250Y-119202500D01*
X159055750Y-119202500D01*
X159031858Y-119201326D01*
X159008197Y-119197816D01*
X158984993Y-119192004D01*
X158962471Y-119183946D01*
X158940847Y-119173718D01*
X158920330Y-119161421D01*
X158901117Y-119147171D01*
X158883393Y-119131107D01*
X158867329Y-119113383D01*
X158853079Y-119094170D01*
X158840782Y-119073653D01*
X158830554Y-119052029D01*
X158822496Y-119029507D01*
X158816684Y-119006303D01*
X158813174Y-118982642D01*
X158812000Y-118958750D01*
X158812000Y-118471250D01*
X158813174Y-118447358D01*
X158816684Y-118423697D01*
X158822496Y-118400493D01*
X158830554Y-118377971D01*
X158840782Y-118356347D01*
X158853079Y-118335830D01*
X158867329Y-118316617D01*
X158883393Y-118298893D01*
X158901117Y-118282829D01*
X158920330Y-118268579D01*
X158940847Y-118256282D01*
X158962471Y-118246054D01*
X158984993Y-118237996D01*
X159008197Y-118232184D01*
X159031858Y-118228674D01*
X159055750Y-118227500D01*
X159968250Y-118227500D01*
X159992142Y-118228674D01*
X159992142Y-118228674D01*
G37*
D18*
X159512000Y-118715000D03*
D16*
G36*
X159992142Y-116353674D02*
G01*
X160015803Y-116357184D01*
X160039007Y-116362996D01*
X160061529Y-116371054D01*
X160083153Y-116381282D01*
X160103670Y-116393579D01*
X160122883Y-116407829D01*
X160140607Y-116423893D01*
X160156671Y-116441617D01*
X160170921Y-116460830D01*
X160183218Y-116481347D01*
X160193446Y-116502971D01*
X160201504Y-116525493D01*
X160207316Y-116548697D01*
X160210826Y-116572358D01*
X160212000Y-116596250D01*
X160212000Y-117083750D01*
X160210826Y-117107642D01*
X160207316Y-117131303D01*
X160201504Y-117154507D01*
X160193446Y-117177029D01*
X160183218Y-117198653D01*
X160170921Y-117219170D01*
X160156671Y-117238383D01*
X160140607Y-117256107D01*
X160122883Y-117272171D01*
X160103670Y-117286421D01*
X160083153Y-117298718D01*
X160061529Y-117308946D01*
X160039007Y-117317004D01*
X160015803Y-117322816D01*
X159992142Y-117326326D01*
X159968250Y-117327500D01*
X159055750Y-117327500D01*
X159031858Y-117326326D01*
X159008197Y-117322816D01*
X158984993Y-117317004D01*
X158962471Y-117308946D01*
X158940847Y-117298718D01*
X158920330Y-117286421D01*
X158901117Y-117272171D01*
X158883393Y-117256107D01*
X158867329Y-117238383D01*
X158853079Y-117219170D01*
X158840782Y-117198653D01*
X158830554Y-117177029D01*
X158822496Y-117154507D01*
X158816684Y-117131303D01*
X158813174Y-117107642D01*
X158812000Y-117083750D01*
X158812000Y-116596250D01*
X158813174Y-116572358D01*
X158816684Y-116548697D01*
X158822496Y-116525493D01*
X158830554Y-116502971D01*
X158840782Y-116481347D01*
X158853079Y-116460830D01*
X158867329Y-116441617D01*
X158883393Y-116423893D01*
X158901117Y-116407829D01*
X158920330Y-116393579D01*
X158940847Y-116381282D01*
X158962471Y-116371054D01*
X158984993Y-116362996D01*
X159008197Y-116357184D01*
X159031858Y-116353674D01*
X159055750Y-116352500D01*
X159968250Y-116352500D01*
X159992142Y-116353674D01*
X159992142Y-116353674D01*
G37*
D18*
X159512000Y-116840000D03*
D22*
X138430000Y-86106000D03*
X138430000Y-82806000D03*
X138430000Y-66546000D03*
X138430000Y-63246000D03*
X140970000Y-86106000D03*
X140970000Y-82806000D03*
X140970000Y-66548000D03*
X140970000Y-63248000D03*
X143256000Y-104900000D03*
X143256000Y-101600000D03*
X143510000Y-86106000D03*
X143510000Y-82806000D03*
X143510000Y-66548000D03*
X143510000Y-63248000D03*
X145796000Y-104900000D03*
X145796000Y-101600000D03*
X146050000Y-86106000D03*
X146050000Y-82806000D03*
X146050000Y-66548000D03*
X146050000Y-63248000D03*
X151130000Y-86106000D03*
X151130000Y-82806000D03*
X148590000Y-66548000D03*
X148590000Y-63248000D03*
X148590000Y-86106000D03*
X148590000Y-82806000D03*
X151130000Y-66548000D03*
X151130000Y-63248000D03*
D10*
X178241479Y-104491723D03*
D11*
X178520479Y-99184723D03*
D12*
X177865484Y-99914727D02*
X179175474Y-98454719D01*
D11*
X184195479Y-97609723D03*
D12*
X184175708Y-97899739D02*
X184215250Y-97319707D01*
D13*
X186670479Y-98659724D03*
X181670479Y-96559723D03*
D26*
X173482000Y-44242000D03*
X165382000Y-50342000D03*
X168482000Y-45142000D03*
D27*
X173482000Y-53542000D03*
D10*
X140144500Y-58420000D03*
D11*
X140423500Y-53113000D03*
D12*
X139768505Y-53843004D02*
X141078495Y-52382996D01*
D11*
X146098500Y-51538000D03*
D12*
X146078729Y-51828016D02*
X146118271Y-51247984D01*
D13*
X148573500Y-52588001D03*
X143573500Y-50488000D03*
X179613760Y-140034004D03*
X175327651Y-136711464D03*
D11*
X177446557Y-138366264D03*
D12*
X177540716Y-138091247D02*
X177352398Y-138641281D01*
D11*
X183335826Y-138313729D03*
D12*
X184157442Y-137778124D02*
X182514210Y-138849334D01*
D10*
X184978872Y-133259771D03*
X82994500Y-66357500D03*
D11*
X83273500Y-61050500D03*
D12*
X82618505Y-61780504D02*
X83928495Y-60320496D01*
D11*
X88948500Y-59475500D03*
D12*
X88928729Y-59765516D02*
X88968271Y-59185484D01*
D13*
X91423500Y-60525501D03*
X86423500Y-58425500D03*
D10*
X102044500Y-107632500D03*
D11*
X102323500Y-102325500D03*
D12*
X101668505Y-103055504D02*
X102978495Y-101595496D01*
D11*
X107998500Y-100750500D03*
D12*
X107978729Y-101040516D02*
X108018271Y-100460484D01*
D13*
X110473500Y-101800501D03*
X105473500Y-99700500D03*
D10*
X102044500Y-88582500D03*
D11*
X102323500Y-83275500D03*
D12*
X101668505Y-84005504D02*
X102978495Y-82545496D01*
D11*
X107998500Y-81700500D03*
D12*
X107978729Y-81990516D02*
X108018271Y-81410484D01*
D13*
X110473500Y-82750501D03*
X105473500Y-80650500D03*
D10*
X102044500Y-69532500D03*
D11*
X102323500Y-64225500D03*
D12*
X101668505Y-64955504D02*
X102978495Y-63495496D01*
D11*
X107998500Y-62650500D03*
D12*
X107978729Y-62940516D02*
X108018271Y-62360484D01*
D13*
X110473500Y-63700501D03*
X105473500Y-61600500D03*
D10*
X121094500Y-120332500D03*
D11*
X121373500Y-115025500D03*
D12*
X120718505Y-115755504D02*
X122028495Y-114295496D01*
D11*
X127048500Y-113450500D03*
D12*
X127028729Y-113740516D02*
X127068271Y-113160484D01*
D13*
X129523500Y-114500501D03*
X124523500Y-112400500D03*
D10*
X121094500Y-101282500D03*
D11*
X121373500Y-95975500D03*
D12*
X120718505Y-96705504D02*
X122028495Y-95245496D01*
D11*
X127048500Y-94400500D03*
D12*
X127028729Y-94690516D02*
X127068271Y-94110484D01*
D13*
X129523500Y-95450501D03*
X124523500Y-93350500D03*
D10*
X121094500Y-82232500D03*
D11*
X121373500Y-76925500D03*
D12*
X120718505Y-77655504D02*
X122028495Y-76195496D01*
D11*
X127048500Y-75350500D03*
D12*
X127028729Y-75640516D02*
X127068271Y-75060484D01*
D13*
X129523500Y-76400501D03*
X124523500Y-74300500D03*
D10*
X121094500Y-63182500D03*
D11*
X121373500Y-57875500D03*
D12*
X120718505Y-58605504D02*
X122028495Y-57145496D01*
D11*
X127048500Y-56300500D03*
D12*
X127028729Y-56590516D02*
X127068271Y-56010484D01*
D13*
X129523500Y-57350501D03*
X124523500Y-55250500D03*
D10*
X140144500Y-115570000D03*
D11*
X140423500Y-110263000D03*
D12*
X139768505Y-110993004D02*
X141078495Y-109532996D01*
D11*
X146098500Y-108688000D03*
D12*
X146078729Y-108978016D02*
X146118271Y-108397984D01*
D13*
X148573500Y-109738001D03*
X143573500Y-107638000D03*
D10*
X140144500Y-96520000D03*
D11*
X140423500Y-91213000D03*
D12*
X139768505Y-91943004D02*
X141078495Y-90482996D01*
D11*
X146098500Y-89638000D03*
D12*
X146078729Y-89928016D02*
X146118271Y-89347984D01*
D13*
X148573500Y-90688001D03*
X143573500Y-88588000D03*
D10*
X140144500Y-77470000D03*
D11*
X140423500Y-72163000D03*
D12*
X139768505Y-72893004D02*
X141078495Y-71432996D01*
D11*
X146098500Y-70588000D03*
D12*
X146078729Y-70878016D02*
X146118271Y-70297984D01*
D13*
X148573500Y-71638001D03*
X143573500Y-69538000D03*
D10*
X159194500Y-109220000D03*
D11*
X159473500Y-103913000D03*
D12*
X158818505Y-104643004D02*
X160128495Y-103182996D01*
D11*
X165148500Y-102338000D03*
D12*
X165128729Y-102628016D02*
X165168271Y-102047984D01*
D13*
X167623500Y-103388001D03*
X162623500Y-101288000D03*
D10*
X159194500Y-71120000D03*
D11*
X159473500Y-65813000D03*
D12*
X158818505Y-66543004D02*
X160128495Y-65082996D01*
D11*
X165148500Y-64238000D03*
D12*
X165128729Y-64528016D02*
X165168271Y-63947984D01*
D13*
X167623500Y-65288001D03*
X162623500Y-63188000D03*
D28*
X182880000Y-119126000D03*
X176530000Y-119126000D03*
X157244000Y-53068000D03*
X173067041Y-107094959D03*
X172808000Y-73152000D03*
X172967926Y-105670074D03*
X180086000Y-125142302D03*
X180086000Y-125142302D03*
X188722000Y-92710000D03*
X174244000Y-105918000D03*
X173535000Y-100330012D03*
X152908000Y-100330000D03*
X152688990Y-104902000D03*
X154178000Y-100330000D03*
X152908000Y-121158000D03*
X184404000Y-123952000D03*
X167132000Y-121666000D03*
X171704000Y-56642000D03*
X172974000Y-108966000D03*
X184403996Y-108966000D03*
X191262000Y-116586000D03*
X154124494Y-118925506D03*
X159005001Y-123696999D03*
X133604000Y-121666000D03*
X186944000Y-112249010D03*
X185674000Y-71373992D03*
X188267990Y-112976010D03*
X110744000Y-61468000D03*
X108712000Y-58928000D03*
X185357769Y-70171305D03*
X160274000Y-54356002D03*
X177546503Y-125869302D03*
X186182006Y-56134000D03*
X157988000Y-54356000D03*
X177099575Y-126763885D03*
X187198000Y-56896000D03*
X171450000Y-121666000D03*
X182880000Y-117856000D03*
X167138067Y-117087932D03*
X167138067Y-117087932D03*
X163068012Y-54102000D03*
X171576996Y-127889004D03*
X178181004Y-127673990D03*
X169418000Y-132588000D03*
X150367998Y-118618000D03*
X148844000Y-120650000D03*
X170180000Y-130556000D03*
D29*
X179278000Y-121708000D02*
X178655000Y-122331000D01*
X180528000Y-121708000D02*
X179278000Y-121708000D01*
X175628000Y-121806000D02*
X176877000Y-120557000D01*
X175628000Y-124208000D02*
X175628000Y-121806000D01*
X178655000Y-122335000D02*
X176877000Y-120557000D01*
X170378000Y-120108000D02*
X173392000Y-117094000D01*
X169128000Y-120108000D02*
X170378000Y-120108000D01*
X173392000Y-117094000D02*
X173414000Y-117094000D01*
X176115000Y-119541000D02*
X175861000Y-119541000D01*
X176530000Y-119126000D02*
X176115000Y-119541000D01*
X176877000Y-120557000D02*
X175861000Y-119541000D01*
X175861000Y-119541000D02*
X175514000Y-119194000D01*
X177808000Y-115308000D02*
X174718000Y-118398000D01*
X180528000Y-115308000D02*
X177808000Y-115308000D01*
X173414000Y-117094000D02*
X174718000Y-118398000D01*
X174718000Y-118398000D02*
X175514000Y-119194000D01*
X170828000Y-114508000D02*
X173414000Y-117094000D01*
X170828000Y-112808000D02*
X170828000Y-114508000D01*
X159512000Y-115159000D02*
X158242000Y-116429000D01*
X158242000Y-117310000D02*
X158242000Y-117602000D01*
X158712000Y-116840000D02*
X158242000Y-117310000D01*
X159512000Y-116840000D02*
X158712000Y-116840000D01*
X158242000Y-116429000D02*
X158242000Y-117602000D01*
X170828000Y-110630000D02*
X170688000Y-110490000D01*
X170828000Y-112808000D02*
X170828000Y-110630000D01*
X182880000Y-120045000D02*
X182880000Y-119126000D01*
X181767000Y-128621000D02*
X180340000Y-128621000D01*
X182880000Y-125651500D02*
X182880000Y-127508000D01*
X182880000Y-127508000D02*
X181767000Y-128621000D01*
X182080000Y-125651500D02*
X182880000Y-125651500D01*
X181971500Y-125651500D02*
X182080000Y-125651500D01*
X178655000Y-122335000D02*
X181971500Y-125651500D01*
X178655000Y-122331000D02*
X178655000Y-122335000D01*
X189628000Y-121368000D02*
X189628000Y-121718000D01*
X187386000Y-119126000D02*
X189628000Y-121368000D01*
X182880000Y-119126000D02*
X187386000Y-119126000D01*
X163733000Y-120904000D02*
X161290000Y-120904000D01*
X163987000Y-120650000D02*
X163733000Y-120904000D01*
X162814000Y-119380000D02*
X161290000Y-120904000D01*
X166019126Y-119380000D02*
X162814000Y-119380000D01*
X169128000Y-120108000D02*
X166747126Y-120108000D01*
X166747126Y-120108000D02*
X166019126Y-119380000D01*
X173008000Y-53068000D02*
X173482000Y-53542000D01*
X157244000Y-53068000D02*
X173008000Y-53068000D01*
X170688000Y-109474000D02*
X170688000Y-110490000D01*
X173067041Y-107094959D02*
X170688000Y-109474000D01*
X158242000Y-117602000D02*
X158242000Y-119634063D01*
X158242000Y-119634063D02*
X159511937Y-120904000D01*
X159511937Y-120904000D02*
X160490000Y-120904000D01*
X160490000Y-120904000D02*
X161290000Y-120904000D01*
X173579000Y-128524000D02*
X173482000Y-128621000D01*
X180340000Y-128621000D02*
X180243000Y-128524000D01*
X180243000Y-128524000D02*
X173579000Y-128524000D01*
X182069763Y-112648737D02*
X180721263Y-112648737D01*
X182626000Y-112092500D02*
X182069763Y-112648737D01*
X178062000Y-115308000D02*
X177808000Y-115308000D01*
X180721263Y-112648737D02*
X178062000Y-115308000D01*
X182626000Y-110236000D02*
X181610000Y-110236000D01*
X182626000Y-112092500D02*
X182626000Y-110236000D01*
D30*
X164846000Y-114450000D02*
X164846000Y-114300000D01*
X164846000Y-113284000D02*
X164846000Y-114702000D01*
X160068237Y-112727763D02*
X159512000Y-113284000D01*
X160381001Y-112414999D02*
X160068237Y-112727763D01*
X164786999Y-112414999D02*
X160381001Y-112414999D01*
X164860000Y-112488000D02*
X164786999Y-112414999D01*
X164860000Y-113792000D02*
X164860000Y-112488000D01*
X166116000Y-113792000D02*
X164860000Y-113792000D01*
X166370000Y-114046000D02*
X166116000Y-113792000D01*
X166370000Y-117348000D02*
X166370000Y-114046000D01*
X167640000Y-118618000D02*
X166370000Y-117348000D01*
X169128000Y-118508000D02*
X169018000Y-118618000D01*
X169018000Y-118618000D02*
X167640000Y-118618000D01*
X162546000Y-117752000D02*
X162546000Y-117602000D01*
X161026763Y-119271237D02*
X162546000Y-117752000D01*
X160068237Y-119271237D02*
X161026763Y-119271237D01*
X159512000Y-118715000D02*
X160068237Y-119271237D01*
X163456000Y-118110000D02*
X162546000Y-117200000D01*
X165608000Y-118110000D02*
X163456000Y-118110000D01*
X169128000Y-119308000D02*
X166806000Y-119308000D01*
X166806000Y-119308000D02*
X165608000Y-118110000D01*
X174828000Y-126746000D02*
X175514000Y-126746000D01*
X174828000Y-124208000D02*
X174828000Y-126746000D01*
X179048500Y-61050500D02*
X178523500Y-61050500D01*
X181673500Y-58425500D02*
X179048500Y-61050500D01*
X176859636Y-61106021D02*
X176915157Y-61050500D01*
X159269955Y-61106021D02*
X176859636Y-61106021D01*
X176915157Y-61050500D02*
X178523500Y-61050500D01*
X159214432Y-61050500D02*
X159269955Y-61106021D01*
X154181500Y-61050500D02*
X159214432Y-61050500D01*
X151130000Y-63248000D02*
X151984000Y-63248000D01*
X151984000Y-63248000D02*
X154181500Y-61050500D01*
X138432000Y-66548000D02*
X138430000Y-66546000D01*
X151130000Y-66548000D02*
X138432000Y-66548000D01*
X151280000Y-66548000D02*
X157884000Y-73152000D01*
X151130000Y-66548000D02*
X151280000Y-66548000D01*
X157884000Y-73152000D02*
X172974000Y-73152000D01*
X172974000Y-73152000D02*
X172808000Y-73152000D01*
X174028000Y-106730148D02*
X173367925Y-106070073D01*
X173367925Y-106070073D02*
X172967926Y-105670074D01*
X174028000Y-112808000D02*
X174028000Y-106730148D01*
X179048500Y-80100500D02*
X178523500Y-80100500D01*
X181673500Y-77475500D02*
X179048500Y-80100500D01*
X176915157Y-80100500D02*
X178523500Y-80100500D01*
X152149500Y-80100500D02*
X176915157Y-80100500D01*
X149444000Y-82806000D02*
X152149500Y-80100500D01*
X148590000Y-82806000D02*
X149444000Y-82806000D01*
X150276000Y-86106000D02*
X138430000Y-86106000D01*
X151130000Y-86106000D02*
X150276000Y-86106000D01*
X178828000Y-124683000D02*
X179367000Y-125222000D01*
X178828000Y-124208000D02*
X178828000Y-124683000D01*
X179367000Y-125222000D02*
X180006302Y-125222000D01*
X180006302Y-125222000D02*
X180086000Y-125142302D01*
X151130000Y-86106000D02*
X151984000Y-86106000D01*
X151984000Y-86106000D02*
X158987999Y-93109999D01*
X158987999Y-93109999D02*
X188322001Y-93109999D01*
X188322001Y-93109999D02*
X188722000Y-92710000D01*
X179045479Y-99184723D02*
X178520479Y-99184723D01*
X181670479Y-96559723D02*
X179045479Y-99184723D01*
X178141756Y-98806000D02*
X178520479Y-99184723D01*
X149860000Y-98806000D02*
X178141756Y-98806000D01*
X148336000Y-101600000D02*
X148336000Y-100330000D01*
X148336000Y-100330000D02*
X149860000Y-98806000D01*
X138176000Y-104900000D02*
X150876000Y-104900000D01*
X174643999Y-106317999D02*
X174244000Y-105918000D01*
X174752000Y-106426000D02*
X174643999Y-106317999D01*
X174752000Y-111728000D02*
X174752000Y-106426000D01*
X174828000Y-112808000D02*
X174828000Y-111804000D01*
X174828000Y-111804000D02*
X174752000Y-111728000D01*
X153924000Y-99314000D02*
X152908000Y-100330000D01*
X173535000Y-100330012D02*
X172518988Y-99314000D01*
X172518988Y-99314000D02*
X153924000Y-99314000D01*
X150876000Y-104900000D02*
X152686990Y-104900000D01*
X152686990Y-104900000D02*
X152688990Y-104902000D01*
X145958000Y-123950000D02*
X139192000Y-123950000D01*
X146812000Y-123950000D02*
X145958000Y-123950000D01*
X175628000Y-106226038D02*
X173990000Y-104588038D01*
X175628000Y-112808000D02*
X175628000Y-106226038D01*
X173990000Y-104588038D02*
X173990000Y-101854000D01*
X172096999Y-99960999D02*
X154547001Y-99960999D01*
X173990000Y-101854000D02*
X172096999Y-99960999D01*
X154547001Y-99960999D02*
X154178000Y-100330000D01*
X150116000Y-123950000D02*
X152508001Y-121557999D01*
X152508001Y-121557999D02*
X152908000Y-121158000D01*
X146812000Y-123950000D02*
X150116000Y-123950000D01*
X162098500Y-63188000D02*
X162623500Y-63188000D01*
X159473500Y-65813000D02*
X162098500Y-63188000D01*
X157865157Y-65813000D02*
X159473500Y-65813000D01*
X156822157Y-64770000D02*
X157865157Y-65813000D01*
X151013398Y-64770000D02*
X156822157Y-64770000D01*
X148590000Y-63248000D02*
X149491398Y-63248000D01*
X149491398Y-63248000D02*
X151013398Y-64770000D01*
X159998500Y-84863000D02*
X159473500Y-84863000D01*
X162623500Y-82238000D02*
X159998500Y-84863000D01*
X157416500Y-82806000D02*
X159473500Y-84863000D01*
X151130000Y-82806000D02*
X157416500Y-82806000D01*
X159998500Y-103913000D02*
X159473500Y-103913000D01*
X162623500Y-101288000D02*
X159998500Y-103913000D01*
X157160500Y-101600000D02*
X159473500Y-103913000D01*
X150876000Y-101600000D02*
X157160500Y-101600000D01*
X140948500Y-53113000D02*
X140423500Y-53113000D01*
X143573500Y-50488000D02*
X140948500Y-53113000D01*
X138815157Y-53113000D02*
X140423500Y-53113000D01*
X134699079Y-57229078D02*
X138815157Y-53113000D01*
X137414001Y-59944000D02*
X134699079Y-57229078D01*
X143450000Y-59944000D02*
X137414001Y-59944000D01*
X146050000Y-63248000D02*
X146050000Y-62544000D01*
X146050000Y-62544000D02*
X143450000Y-59944000D01*
X140948500Y-72163000D02*
X140423500Y-72163000D01*
X143573500Y-69538000D02*
X140948500Y-72163000D01*
X138815157Y-72163000D02*
X140423500Y-72163000D01*
X134699078Y-76279078D02*
X138815157Y-72163000D01*
X139192000Y-80772000D02*
X134699078Y-76279078D01*
X143162000Y-80772000D02*
X139192000Y-80772000D01*
X146050000Y-82806000D02*
X145196000Y-82806000D01*
X145196000Y-82806000D02*
X143162000Y-80772000D01*
X143048500Y-88588000D02*
X143573500Y-88588000D01*
X140423500Y-91213000D02*
X143048500Y-88588000D01*
X138815157Y-91213000D02*
X140423500Y-91213000D01*
X134632604Y-95395553D02*
X138815157Y-91213000D01*
X138551051Y-99314000D02*
X134632604Y-95395553D01*
X144526000Y-99314000D02*
X138551051Y-99314000D01*
X145796000Y-101600000D02*
X145796000Y-100584000D01*
X145796000Y-100584000D02*
X144526000Y-99314000D01*
X140948500Y-110263000D02*
X140423500Y-110263000D01*
X143573500Y-107638000D02*
X140948500Y-110263000D01*
X138815157Y-110263000D02*
X140423500Y-110263000D01*
X134826079Y-114252078D02*
X138815157Y-110263000D01*
X141732000Y-120650000D02*
X141224000Y-120650000D01*
X141224000Y-120650000D02*
X134826079Y-114252078D01*
X123998500Y-55250500D02*
X124523500Y-55250500D01*
X121373500Y-57875500D02*
X123998500Y-55250500D01*
X125523499Y-54250501D02*
X124523500Y-55250500D01*
X129434501Y-54250501D02*
X125523499Y-54250501D01*
X135890000Y-60706000D02*
X129434501Y-54250501D01*
X142240000Y-60706000D02*
X135890000Y-60706000D01*
X143510000Y-63248000D02*
X143510000Y-61976000D01*
X143510000Y-61976000D02*
X142240000Y-60706000D01*
X123109287Y-74300500D02*
X124523500Y-74300500D01*
X122257660Y-74300500D02*
X123109287Y-74300500D01*
X121373500Y-75184660D02*
X122257660Y-74300500D01*
X121373500Y-76925500D02*
X121373500Y-75184660D01*
X125523499Y-73300501D02*
X124523500Y-74300500D01*
X130704501Y-73300501D02*
X125523499Y-73300501D01*
X138630010Y-81226010D02*
X130704501Y-73300501D01*
X141076010Y-81226010D02*
X138630010Y-81226010D01*
X143510000Y-82806000D02*
X142656000Y-82806000D01*
X142656000Y-82806000D02*
X141076010Y-81226010D01*
X121898500Y-95975500D02*
X121373500Y-95975500D01*
X124523500Y-93350500D02*
X121898500Y-95975500D01*
X143256000Y-100838000D02*
X143256000Y-101600000D01*
X142240000Y-99822000D02*
X143256000Y-100838000D01*
X137922000Y-99822000D02*
X142240000Y-99822000D01*
X130450501Y-92350501D02*
X137922000Y-99822000D01*
X124523500Y-93350500D02*
X125523499Y-92350501D01*
X125523499Y-92350501D02*
X130450501Y-92350501D01*
X121898500Y-115025500D02*
X121373500Y-115025500D01*
X124523500Y-112400500D02*
X121898500Y-115025500D01*
X125523499Y-111400501D02*
X124523500Y-112400500D01*
X130958501Y-111400501D02*
X125523499Y-111400501D01*
X139192000Y-120650000D02*
X139192000Y-119634000D01*
X139192000Y-119634000D02*
X130958501Y-111400501D01*
X102848500Y-64225500D02*
X102323500Y-64225500D01*
X105473500Y-61600500D02*
X102848500Y-64225500D01*
X140970000Y-64008000D02*
X140970000Y-63248000D01*
X139954000Y-65024000D02*
X140970000Y-64008000D01*
X117213933Y-65024000D02*
X139954000Y-65024000D01*
X112133933Y-59944000D02*
X117213933Y-65024000D01*
X105473500Y-61600500D02*
X107130000Y-59944000D01*
X107130000Y-59944000D02*
X112133933Y-59944000D01*
X102848500Y-83275500D02*
X102323500Y-83275500D01*
X105473500Y-80650500D02*
X102848500Y-83275500D01*
X105473500Y-80650500D02*
X106050500Y-80650500D01*
X105473500Y-79946501D02*
X105473500Y-80650500D01*
X108585001Y-76835000D02*
X105473500Y-79946501D01*
X116332000Y-84582000D02*
X108585001Y-76835000D01*
X138315398Y-84582000D02*
X116332000Y-84582000D01*
X140970000Y-82806000D02*
X140091398Y-82806000D01*
X140091398Y-82806000D02*
X138315398Y-84582000D01*
X102323500Y-102325500D02*
X105081000Y-99568000D01*
X105081000Y-99568000D02*
X106172000Y-99568000D01*
X105473500Y-99504500D02*
X105473500Y-99700500D01*
X108330999Y-96647000D02*
X105473500Y-99504500D01*
X115262010Y-103578010D02*
X108330999Y-96647000D01*
X138587990Y-103578010D02*
X115262010Y-103578010D01*
X140716000Y-101600000D02*
X140566000Y-101600000D01*
X140566000Y-101600000D02*
X138587990Y-103578010D01*
X83798500Y-61050500D02*
X83273500Y-61050500D01*
X86423500Y-58425500D02*
X83798500Y-61050500D01*
X87423499Y-57425501D02*
X86423500Y-58425500D01*
X110257501Y-57425501D02*
X87423499Y-57425501D01*
X117348000Y-64516000D02*
X110257501Y-57425501D01*
X136306000Y-64516000D02*
X117348000Y-64516000D01*
X138430000Y-63246000D02*
X137576000Y-63246000D01*
X137576000Y-63246000D02*
X136306000Y-64516000D01*
X83798500Y-80100500D02*
X83273500Y-80100500D01*
X86423500Y-77475500D02*
X83798500Y-80100500D01*
X138430000Y-82806000D02*
X137576000Y-82806000D01*
X87518010Y-76380990D02*
X87423499Y-76475501D01*
X87423499Y-76475501D02*
X86423500Y-77475500D01*
X108892990Y-76380990D02*
X87518010Y-76380990D01*
X116586000Y-84074000D02*
X108892990Y-76380990D01*
X136308000Y-84074000D02*
X116586000Y-84074000D01*
X137576000Y-82806000D02*
X136308000Y-84074000D01*
X83798500Y-99150500D02*
X83273500Y-99150500D01*
X86423500Y-96525500D02*
X83798500Y-99150500D01*
X87423499Y-95525501D02*
X86423500Y-96525500D01*
X108225501Y-95525501D02*
X87423499Y-95525501D01*
X115824000Y-103124000D02*
X108225501Y-95525501D01*
X135798000Y-103124000D02*
X115824000Y-103124000D01*
X138176000Y-101600000D02*
X137322000Y-101600000D01*
X137322000Y-101600000D02*
X135798000Y-103124000D01*
D29*
X180528500Y-114507500D02*
X180528000Y-114508000D01*
X180528000Y-114508000D02*
X181004500Y-114508000D01*
X166120000Y-120908000D02*
X165862000Y-120650000D01*
X165862000Y-121061000D02*
X163987000Y-122936000D01*
X165862000Y-120650000D02*
X165862000Y-121061000D01*
X171628000Y-111558000D02*
X171680000Y-111506000D01*
X171628000Y-112808000D02*
X171628000Y-111558000D01*
X171680000Y-111373000D02*
X172563000Y-110490000D01*
X171680000Y-111506000D02*
X171680000Y-111373000D01*
X182450500Y-123776500D02*
X182880000Y-123776500D01*
X181356000Y-122682000D02*
X182450500Y-123776500D01*
X181356000Y-122428000D02*
X181356000Y-122682000D01*
X180528000Y-122508000D02*
X181276000Y-122508000D01*
X181276000Y-122508000D02*
X181356000Y-122428000D01*
X167136000Y-120908000D02*
X166120000Y-120908000D01*
X169128000Y-120908000D02*
X167136000Y-120908000D01*
X183055500Y-123952000D02*
X182880000Y-123776500D01*
X184404000Y-123952000D02*
X183055500Y-123952000D01*
X167132000Y-121100315D02*
X167132000Y-121666000D01*
X167132000Y-120912000D02*
X167132000Y-121100315D01*
X167136000Y-120908000D02*
X167132000Y-120912000D01*
X164043000Y-58042000D02*
X165443000Y-56642000D01*
X163068000Y-58042000D02*
X164043000Y-58042000D01*
X165443000Y-56642000D02*
X171704000Y-56642000D01*
X172563000Y-109377000D02*
X172574001Y-109365999D01*
X172563000Y-110490000D02*
X172563000Y-109377000D01*
X172574001Y-109365999D02*
X172974000Y-108966000D01*
X180560500Y-114475500D02*
X180528000Y-114508000D01*
X184403996Y-112189504D02*
X182626000Y-113967500D01*
X184403996Y-108966000D02*
X184403996Y-112189504D01*
X181068500Y-113967500D02*
X180528000Y-114508000D01*
X182626000Y-113967500D02*
X181068500Y-113967500D01*
X184344000Y-107636000D02*
X181610000Y-107636000D01*
X184403996Y-108966000D02*
X184403996Y-107695996D01*
X184403996Y-107695996D02*
X184344000Y-107636000D01*
D30*
X185248501Y-60525501D02*
X186673500Y-60525501D01*
X184198500Y-59475500D02*
X185248501Y-60525501D01*
X185623499Y-78525500D02*
X186673500Y-79575501D01*
X184198500Y-78525500D02*
X185623499Y-78525500D01*
X185245480Y-98659724D02*
X186670479Y-98659724D01*
X184195479Y-97609723D02*
X185245480Y-98659724D01*
X176428000Y-106305202D02*
X178241479Y-104491723D01*
X176428000Y-112808000D02*
X176428000Y-106305202D01*
X187670478Y-99659723D02*
X186670479Y-98659724D01*
X190862001Y-102851246D02*
X187670478Y-99659723D01*
X190862001Y-116186001D02*
X190862001Y-102851246D01*
X191262000Y-116586000D02*
X190862001Y-116186001D01*
X181806142Y-139843413D02*
X183335826Y-138313729D01*
X181334035Y-138313729D02*
X179613760Y-140034004D01*
X183335826Y-138313729D02*
X181334035Y-138313729D01*
X179497996Y-140034004D02*
X179613760Y-140034004D01*
X177545999Y-141986000D02*
X179497996Y-140034004D01*
X171028548Y-140058600D02*
X173323574Y-137763574D01*
X173323574Y-137763574D02*
X177545999Y-141986000D01*
X166198501Y-103388001D02*
X167623500Y-103388001D01*
X165148500Y-102338000D02*
X166198501Y-103388001D01*
X166573499Y-83288000D02*
X167623500Y-84338001D01*
X165148500Y-83288000D02*
X166573499Y-83288000D01*
X166198501Y-65288001D02*
X167623500Y-65288001D01*
X165148500Y-64238000D02*
X166198501Y-65288001D01*
X171628000Y-124208000D02*
X171628000Y-125021602D01*
X170291398Y-125285000D02*
X169877428Y-124871030D01*
X154524493Y-119325505D02*
X154124494Y-118925506D01*
X157328934Y-122129946D02*
X154524493Y-119325505D01*
X157824014Y-122129946D02*
X157328934Y-122129946D01*
X169877428Y-124871030D02*
X160565097Y-124871029D01*
X171364602Y-125285000D02*
X170291398Y-125285000D01*
X171628000Y-125021602D02*
X171364602Y-125285000D01*
X168575097Y-137308128D02*
X168575097Y-139401199D01*
X164501034Y-133234065D02*
X168575097Y-137308128D01*
X162499243Y-133234065D02*
X160778968Y-134954340D01*
X164501034Y-133234065D02*
X162499243Y-133234065D01*
X159198034Y-123503966D02*
X159005001Y-123696999D01*
X159198034Y-123503966D02*
X157824014Y-122129946D01*
X160565097Y-124871029D02*
X159198034Y-123503966D01*
X147148501Y-109738001D02*
X148573500Y-109738001D01*
X146098500Y-108688000D02*
X147148501Y-109738001D01*
X147148501Y-90688001D02*
X148573500Y-90688001D01*
X146098500Y-89638000D02*
X147148501Y-90688001D01*
X147148501Y-71638001D02*
X148573500Y-71638001D01*
X146098500Y-70588000D02*
X147148501Y-71638001D01*
X147148501Y-52588001D02*
X148573500Y-52588001D01*
X146098500Y-51538000D02*
X147148501Y-52588001D01*
X149573499Y-110738000D02*
X148573500Y-109738001D01*
X170828000Y-124208000D02*
X170299000Y-124208000D01*
X170299000Y-124208000D02*
X170089981Y-124417019D01*
X170089981Y-124417019D02*
X160753155Y-124417019D01*
X160753155Y-124417019D02*
X158012071Y-121675935D01*
X157903058Y-121675935D02*
X150622000Y-114394878D01*
X158012071Y-121675935D02*
X157903058Y-121675935D01*
X150622000Y-111786501D02*
X149573499Y-110738000D01*
X150622000Y-114394878D02*
X150622000Y-111786501D01*
X128473499Y-113450500D02*
X129523500Y-114500501D01*
X127048500Y-113450500D02*
X128473499Y-113450500D01*
X128098501Y-95450501D02*
X129523500Y-95450501D01*
X127048500Y-94400500D02*
X128098501Y-95450501D01*
X128098501Y-76400501D02*
X129523500Y-76400501D01*
X127048500Y-75350500D02*
X128098501Y-76400501D01*
X128473499Y-56300500D02*
X129523500Y-57350501D01*
X127048500Y-56300500D02*
X128473499Y-56300500D01*
X137414000Y-125476000D02*
X133604000Y-121666000D01*
X149606000Y-125476000D02*
X137414000Y-125476000D01*
X156619957Y-122583957D02*
X152498043Y-122583957D01*
X152498043Y-122583957D02*
X149606000Y-125476000D01*
X172428000Y-124208000D02*
X172428000Y-125021602D01*
X171710591Y-125739011D02*
X169935011Y-125739011D01*
X169935011Y-125739011D02*
X169521040Y-125325040D01*
X169521040Y-125325040D02*
X159361040Y-125325040D01*
X172428000Y-125021602D02*
X171710591Y-125739011D01*
X159361040Y-125325040D02*
X156619957Y-122583957D01*
X109423499Y-100750500D02*
X110473500Y-101800501D01*
X107998500Y-100750500D02*
X109423499Y-100750500D01*
X109423499Y-62650500D02*
X107998500Y-62650500D01*
X110473500Y-63700501D02*
X109423499Y-62650500D01*
X109048501Y-82750501D02*
X110473500Y-82750501D01*
X107998500Y-81700500D02*
X109048501Y-82750501D01*
X186182000Y-112522000D02*
X186944000Y-112522000D01*
X180528000Y-116108000D02*
X182596000Y-116108000D01*
X182596000Y-116108000D02*
X186182000Y-112522000D01*
X186944000Y-112522000D02*
X186944000Y-112249010D01*
X114844999Y-68072000D02*
X110473500Y-63700501D01*
X150622000Y-68072000D02*
X114844999Y-68072000D01*
X157226000Y-74676000D02*
X150622000Y-68072000D01*
X176530000Y-74676000D02*
X157226000Y-74676000D01*
X185674000Y-71373992D02*
X179832008Y-71373992D01*
X179832008Y-71373992D02*
X176530000Y-74676000D01*
X89998501Y-98625501D02*
X91423500Y-98625501D01*
X88948500Y-97575500D02*
X89998501Y-98625501D01*
X89998501Y-79575501D02*
X91423500Y-79575501D01*
X88948500Y-78525500D02*
X89998501Y-79575501D01*
X90373499Y-59475500D02*
X88948500Y-59475500D01*
X91423500Y-60525501D02*
X90373499Y-59475500D01*
X186370057Y-112976010D02*
X188267990Y-112976010D01*
X180528000Y-116908000D02*
X182438067Y-116908000D01*
X182438067Y-116908000D02*
X186370057Y-112976010D01*
X93021001Y-58928000D02*
X91423500Y-60525501D01*
X108712000Y-58928000D02*
X93021001Y-58928000D01*
X184792084Y-70171305D02*
X185357769Y-70171305D01*
X179764695Y-70171305D02*
X184792084Y-70171305D01*
X176056999Y-73879001D02*
X179764695Y-70171305D01*
X151130000Y-67564000D02*
X156972000Y-73406000D01*
X116840000Y-67564000D02*
X151130000Y-67564000D01*
X156972000Y-73406000D02*
X156972000Y-73606009D01*
X110744000Y-61468000D02*
X116840000Y-67564000D01*
X156972000Y-73606009D02*
X157244992Y-73879001D01*
X157244992Y-73879001D02*
X176056999Y-73879001D01*
X160274000Y-55450500D02*
X160274000Y-54356002D01*
X177228000Y-125550799D02*
X177546503Y-125869302D01*
X177228000Y-124208000D02*
X177228000Y-125550799D01*
X185616321Y-56134000D02*
X186182006Y-56134000D01*
X177292000Y-56134000D02*
X185616321Y-56134000D01*
X173228000Y-60198000D02*
X177292000Y-56134000D01*
X160782000Y-60198000D02*
X173228000Y-60198000D01*
X160274000Y-57325500D02*
X160274000Y-59690000D01*
X160274000Y-59690000D02*
X160782000Y-60198000D01*
X157988000Y-55450500D02*
X157988000Y-54356000D01*
X176699576Y-126363886D02*
X177099575Y-126763885D01*
X176428000Y-126092310D02*
X176699576Y-126363886D01*
X176428000Y-124208000D02*
X176428000Y-126092310D01*
X177172068Y-56896000D02*
X186632315Y-56896000D01*
X186632315Y-56896000D02*
X187198000Y-56896000D01*
X157988000Y-57325500D02*
X157988000Y-59182000D01*
X157988000Y-59182000D02*
X159458011Y-60652011D01*
X173416058Y-60652010D02*
X177172068Y-56896000D01*
X159458011Y-60652011D02*
X173416058Y-60652010D01*
X166449500Y-122936000D02*
X165862000Y-122936000D01*
X167453962Y-122936000D02*
X166449500Y-122936000D01*
X167863001Y-122526961D02*
X167453962Y-122936000D01*
X167863001Y-121968999D02*
X167863001Y-122526961D01*
X168124000Y-121708000D02*
X167863001Y-121968999D01*
X169128000Y-121708000D02*
X168124000Y-121708000D01*
X170132000Y-121708000D02*
X170174000Y-121666000D01*
X169128000Y-121708000D02*
X170132000Y-121708000D01*
X170174000Y-121666000D02*
X171450000Y-121666000D01*
X185928000Y-117348000D02*
X185928000Y-115518000D01*
X182880000Y-117856000D02*
X185420000Y-117856000D01*
X185420000Y-117856000D02*
X185928000Y-117348000D01*
X178828000Y-112607000D02*
X178828000Y-112808000D01*
X178828000Y-111804000D02*
X178828000Y-112808000D01*
X178828000Y-111186500D02*
X178828000Y-111804000D01*
X178308000Y-110666500D02*
X178828000Y-111186500D01*
X178308000Y-110079000D02*
X178308000Y-110666500D01*
X169128000Y-117708000D02*
X167492000Y-117708000D01*
X167492000Y-117708000D02*
X167132000Y-117348000D01*
X167132000Y-117348000D02*
X167138067Y-117341933D01*
X167138067Y-117341933D02*
X167138067Y-117087932D01*
D29*
X163068000Y-55242000D02*
X163068000Y-54102012D01*
X163068000Y-54102012D02*
X163068012Y-54102000D01*
X174028000Y-125458000D02*
X171596996Y-127889004D01*
X171596996Y-127889004D02*
X171576996Y-127889004D01*
X174028000Y-124208000D02*
X174028000Y-125458000D01*
X178181004Y-127673990D02*
X179108994Y-126746000D01*
X179108994Y-126746000D02*
X179316000Y-126746000D01*
X179783763Y-126189763D02*
X180340000Y-126746000D01*
X179124966Y-126189763D02*
X179783763Y-126189763D01*
X178028000Y-125092797D02*
X179124966Y-126189763D01*
X178028000Y-124208000D02*
X178028000Y-125092797D01*
X179124966Y-126730028D02*
X179108994Y-126746000D01*
X179124966Y-126189763D02*
X179124966Y-126730028D01*
X179124966Y-126189763D02*
X179275763Y-126189763D01*
X179578000Y-126492000D02*
X179578000Y-126746000D01*
X179275763Y-126189763D02*
X179578000Y-126492000D01*
X179316000Y-126746000D02*
X179578000Y-126746000D01*
X179578000Y-126746000D02*
X180340000Y-126746000D01*
D30*
X176049951Y-137433764D02*
X175327651Y-136711464D01*
X176514057Y-137433764D02*
X176049951Y-137433764D01*
X177446557Y-138366264D02*
X176514057Y-137433764D01*
X174327652Y-135711465D02*
X175327651Y-136711464D01*
X174327652Y-131234348D02*
X174327652Y-135711465D01*
X174752000Y-130810000D02*
X174327652Y-131234348D01*
X172974000Y-132588000D02*
X174752000Y-130810000D01*
X169418000Y-132588000D02*
X172974000Y-132588000D01*
X149802313Y-118618000D02*
X150367998Y-118618000D01*
X145542000Y-118618000D02*
X149802313Y-118618000D01*
X144272000Y-120650000D02*
X144272000Y-119888000D01*
X144272000Y-119888000D02*
X145542000Y-118618000D01*
X175260000Y-130302000D02*
X174752000Y-130810000D01*
X184150000Y-130302000D02*
X175260000Y-130302000D01*
X184978872Y-133259771D02*
X184978872Y-131130872D01*
X184978872Y-131130872D02*
X184150000Y-130302000D01*
X146812000Y-120650000D02*
X146962000Y-120650000D01*
X146962000Y-120650000D02*
X148844000Y-120650000D01*
X157215159Y-132354100D02*
X156492859Y-131631800D01*
X157679265Y-132354100D02*
X157215159Y-132354100D01*
X158611765Y-133286600D02*
X157679265Y-132354100D01*
X153879199Y-129018140D02*
X153879199Y-128858903D01*
X156492859Y-131631800D02*
X153879199Y-129018140D01*
X187960000Y-137539704D02*
X187960000Y-133096000D01*
X188677199Y-138256903D02*
X187960000Y-137539704D01*
X187960000Y-133096000D02*
X184658000Y-129794000D01*
X184658000Y-129794000D02*
X170942000Y-129794000D01*
X169164000Y-128016000D02*
X166308187Y-128016000D01*
X166308187Y-128016000D02*
X166144080Y-128180107D01*
X170688000Y-129540000D02*
X170688000Y-130048000D01*
X170688000Y-129540000D02*
X169164000Y-128016000D01*
X170942000Y-129794000D02*
X170688000Y-129540000D01*
X170688000Y-130048000D02*
X170180000Y-130556000D01*
X181868000Y-120908000D02*
X182880000Y-121920000D01*
X180528000Y-120908000D02*
X181868000Y-120908000D01*
X161846237Y-123335237D02*
X161290000Y-122779000D01*
X162474010Y-123963010D02*
X161846237Y-123335237D01*
X168201990Y-123963010D02*
X162474010Y-123963010D01*
X169128000Y-123037000D02*
X168201990Y-123963010D01*
X169128000Y-122508000D02*
X169128000Y-123037000D01*
X179040000Y-108936000D02*
X178308000Y-108204000D01*
X181610000Y-108936000D02*
X179040000Y-108936000D01*
M02*
