G04 #@! TF.GenerationSoftware,KiCad,Pcbnew,(5.1.4)-1*
G04 #@! TF.CreationDate,2021-11-10T20:36:41-05:00*
G04 #@! TF.ProjectId,a44key-pcb,6134346b-6579-42d7-9063-622e6b696361,rev?*
G04 #@! TF.SameCoordinates,Original*
G04 #@! TF.FileFunction,Copper,L2,Bot*
G04 #@! TF.FilePolarity,Positive*
%FSLAX46Y46*%
G04 Gerber Fmt 4.6, Leading zero omitted, Abs format (unit mm)*
G04 Created by KiCad (PCBNEW (5.1.4)-1) date 2021-11-10 20:36:41*
%MOMM*%
%LPD*%
G04 APERTURE LIST*
%ADD10C,2.000000*%
%ADD11C,2.250000*%
%ADD12C,2.250000*%
%ADD13C,1.300000*%
%ADD14R,1.700000X1.700000*%
%ADD15O,1.700000X1.700000*%
%ADD16C,0.100000*%
%ADD17C,0.975000*%
%ADD18C,1.700000*%
%ADD19C,1.700000*%
%ADD20O,2.700000X1.700000*%
%ADD21C,1.650000*%
%ADD22R,1.650000X1.650000*%
%ADD23R,1.200000X0.900000*%
%ADD24R,1.800000X2.100000*%
%ADD25R,1.500000X0.550000*%
%ADD26R,0.550000X1.500000*%
%ADD27C,1.250000*%
%ADD28C,0.800000*%
%ADD29C,0.254000*%
%ADD30C,0.381000*%
%ADD31C,0.508000*%
G04 APERTURE END LIST*
D10*
X173083601Y-138749202D03*
X168083601Y-136649201D03*
D11*
X170558601Y-137699202D03*
D12*
X170578372Y-137409186D02*
X170538830Y-137989218D01*
D11*
X176233601Y-136124202D03*
D12*
X176888596Y-135394198D02*
X175578606Y-136854206D01*
D13*
X176512601Y-130817202D03*
D14*
X164675073Y-129050433D03*
D15*
X164675073Y-131590433D03*
X164675073Y-134130433D03*
X164675073Y-136670433D03*
D14*
X200833607Y-129535478D03*
D15*
X200833607Y-132075478D03*
X200833607Y-134615478D03*
X200833607Y-137155478D03*
D14*
X185885167Y-124478215D03*
D15*
X183345167Y-124478215D03*
X180805167Y-124478215D03*
X178265167Y-124478215D03*
D10*
X192243850Y-138787503D03*
X187243850Y-136687502D03*
D11*
X189718850Y-137737503D03*
D12*
X189738621Y-137447487D02*
X189699079Y-138027519D01*
D11*
X195393850Y-136162503D03*
D12*
X196048845Y-135432499D02*
X194738855Y-136892507D01*
D13*
X195672850Y-130855503D03*
D16*
G36*
X121014642Y-68135174D02*
G01*
X121038303Y-68138684D01*
X121061507Y-68144496D01*
X121084029Y-68152554D01*
X121105653Y-68162782D01*
X121126170Y-68175079D01*
X121145383Y-68189329D01*
X121163107Y-68205393D01*
X121179171Y-68223117D01*
X121193421Y-68242330D01*
X121205718Y-68262847D01*
X121215946Y-68284471D01*
X121224004Y-68306993D01*
X121229816Y-68330197D01*
X121233326Y-68353858D01*
X121234500Y-68377750D01*
X121234500Y-69290250D01*
X121233326Y-69314142D01*
X121229816Y-69337803D01*
X121224004Y-69361007D01*
X121215946Y-69383529D01*
X121205718Y-69405153D01*
X121193421Y-69425670D01*
X121179171Y-69444883D01*
X121163107Y-69462607D01*
X121145383Y-69478671D01*
X121126170Y-69492921D01*
X121105653Y-69505218D01*
X121084029Y-69515446D01*
X121061507Y-69523504D01*
X121038303Y-69529316D01*
X121014642Y-69532826D01*
X120990750Y-69534000D01*
X120503250Y-69534000D01*
X120479358Y-69532826D01*
X120455697Y-69529316D01*
X120432493Y-69523504D01*
X120409971Y-69515446D01*
X120388347Y-69505218D01*
X120367830Y-69492921D01*
X120348617Y-69478671D01*
X120330893Y-69462607D01*
X120314829Y-69444883D01*
X120300579Y-69425670D01*
X120288282Y-69405153D01*
X120278054Y-69383529D01*
X120269996Y-69361007D01*
X120264184Y-69337803D01*
X120260674Y-69314142D01*
X120259500Y-69290250D01*
X120259500Y-68377750D01*
X120260674Y-68353858D01*
X120264184Y-68330197D01*
X120269996Y-68306993D01*
X120278054Y-68284471D01*
X120288282Y-68262847D01*
X120300579Y-68242330D01*
X120314829Y-68223117D01*
X120330893Y-68205393D01*
X120348617Y-68189329D01*
X120367830Y-68175079D01*
X120388347Y-68162782D01*
X120409971Y-68152554D01*
X120432493Y-68144496D01*
X120455697Y-68138684D01*
X120479358Y-68135174D01*
X120503250Y-68134000D01*
X120990750Y-68134000D01*
X121014642Y-68135174D01*
X121014642Y-68135174D01*
G37*
D17*
X120747000Y-68834000D03*
D16*
G36*
X119139642Y-68135174D02*
G01*
X119163303Y-68138684D01*
X119186507Y-68144496D01*
X119209029Y-68152554D01*
X119230653Y-68162782D01*
X119251170Y-68175079D01*
X119270383Y-68189329D01*
X119288107Y-68205393D01*
X119304171Y-68223117D01*
X119318421Y-68242330D01*
X119330718Y-68262847D01*
X119340946Y-68284471D01*
X119349004Y-68306993D01*
X119354816Y-68330197D01*
X119358326Y-68353858D01*
X119359500Y-68377750D01*
X119359500Y-69290250D01*
X119358326Y-69314142D01*
X119354816Y-69337803D01*
X119349004Y-69361007D01*
X119340946Y-69383529D01*
X119330718Y-69405153D01*
X119318421Y-69425670D01*
X119304171Y-69444883D01*
X119288107Y-69462607D01*
X119270383Y-69478671D01*
X119251170Y-69492921D01*
X119230653Y-69505218D01*
X119209029Y-69515446D01*
X119186507Y-69523504D01*
X119163303Y-69529316D01*
X119139642Y-69532826D01*
X119115750Y-69534000D01*
X118628250Y-69534000D01*
X118604358Y-69532826D01*
X118580697Y-69529316D01*
X118557493Y-69523504D01*
X118534971Y-69515446D01*
X118513347Y-69505218D01*
X118492830Y-69492921D01*
X118473617Y-69478671D01*
X118455893Y-69462607D01*
X118439829Y-69444883D01*
X118425579Y-69425670D01*
X118413282Y-69405153D01*
X118403054Y-69383529D01*
X118394996Y-69361007D01*
X118389184Y-69337803D01*
X118385674Y-69314142D01*
X118384500Y-69290250D01*
X118384500Y-68377750D01*
X118385674Y-68353858D01*
X118389184Y-68330197D01*
X118394996Y-68306993D01*
X118403054Y-68284471D01*
X118413282Y-68262847D01*
X118425579Y-68242330D01*
X118439829Y-68223117D01*
X118455893Y-68205393D01*
X118473617Y-68189329D01*
X118492830Y-68175079D01*
X118513347Y-68162782D01*
X118534971Y-68152554D01*
X118557493Y-68144496D01*
X118580697Y-68138684D01*
X118604358Y-68135174D01*
X118628250Y-68134000D01*
X119115750Y-68134000D01*
X119139642Y-68135174D01*
X119139642Y-68135174D01*
G37*
D17*
X118872000Y-68834000D03*
D18*
X123384201Y-137154355D03*
D19*
X123384201Y-137154355D02*
X123384201Y-137154355D01*
D18*
X122726801Y-134700903D03*
D19*
X122726801Y-134700903D02*
X122726801Y-134700903D01*
D18*
X122069400Y-132247452D03*
D19*
X122069400Y-132247452D02*
X122069400Y-132247452D01*
D18*
X121412000Y-129794000D03*
D16*
G36*
X120810959Y-130835033D02*
G01*
X120370967Y-129192959D01*
X122013041Y-128752967D01*
X122453033Y-130395041D01*
X120810959Y-130835033D01*
X120810959Y-130835033D01*
G37*
D18*
X98303645Y-130750201D03*
D19*
X98303645Y-130750201D02*
X98303645Y-130750201D01*
D18*
X100757097Y-130092801D03*
D19*
X100757097Y-130092801D02*
X100757097Y-130092801D01*
D18*
X103210548Y-129435400D03*
D19*
X103210548Y-129435400D02*
X103210548Y-129435400D01*
D18*
X105664000Y-128778000D03*
D16*
G36*
X106705033Y-129379041D02*
G01*
X105062959Y-129819033D01*
X104622967Y-128176959D01*
X106265041Y-127736967D01*
X106705033Y-129379041D01*
X106705033Y-129379041D01*
G37*
D18*
X88332201Y-146044355D03*
D19*
X88332201Y-146044355D02*
X88332201Y-146044355D01*
D18*
X87674801Y-143590903D03*
D19*
X87674801Y-143590903D02*
X87674801Y-143590903D01*
D18*
X87017400Y-141137452D03*
D19*
X87017400Y-141137452D02*
X87017400Y-141137452D01*
D18*
X86360000Y-138684000D03*
D16*
G36*
X85758959Y-139725033D02*
G01*
X85318967Y-138082959D01*
X86961041Y-137642967D01*
X87401033Y-139285041D01*
X85758959Y-139725033D01*
X85758959Y-139725033D01*
G37*
D13*
X116768739Y-132404748D03*
D11*
X117872799Y-137603127D03*
D12*
X118316537Y-136728472D02*
X117429061Y-138477782D01*
D11*
X112798810Y-140593258D03*
D12*
X112742846Y-140308007D02*
X112854774Y-140878509D01*
D10*
X110136383Y-140219612D03*
X115509532Y-140953962D03*
D13*
X98364521Y-106269723D03*
D11*
X98085521Y-111576723D03*
D12*
X98740516Y-110846719D02*
X97430526Y-112306727D01*
D11*
X92410521Y-113151723D03*
D12*
X92430292Y-112861707D02*
X92390750Y-113441739D01*
D10*
X89935521Y-112101722D03*
X94935521Y-114201723D03*
D20*
X159543750Y-55243750D03*
X159543750Y-47943750D03*
X155043750Y-47943750D03*
X155043750Y-55243750D03*
D21*
X88078000Y-58602000D03*
X96178000Y-52502000D03*
X93078000Y-57702000D03*
D22*
X88078000Y-49302000D03*
D13*
X136461500Y-60198000D03*
D11*
X136182500Y-65505000D03*
D12*
X136837495Y-64774996D02*
X135527505Y-66235004D01*
D11*
X130507500Y-67080000D03*
D12*
X130527271Y-66789984D02*
X130487729Y-67370016D01*
D10*
X128032500Y-66029999D03*
X133032500Y-68130000D03*
D13*
X98251447Y-137326790D03*
D11*
X99355507Y-142525169D03*
D12*
X99799245Y-141650514D02*
X98911769Y-143399824D01*
D11*
X94281518Y-145515300D03*
D12*
X94225554Y-145230049D02*
X94337482Y-145800551D01*
D10*
X91619091Y-145141654D03*
X96992240Y-145876004D03*
D13*
X193611500Y-106235500D03*
D11*
X193332500Y-111542500D03*
D12*
X193987495Y-110812496D02*
X192677505Y-112272504D01*
D11*
X187657500Y-113117500D03*
D12*
X187677271Y-112827484D02*
X187637729Y-113407516D01*
D10*
X185182500Y-112067499D03*
X190182500Y-114167500D03*
D13*
X193611500Y-87185500D03*
D11*
X193332500Y-92492500D03*
D12*
X193987495Y-91762496D02*
X192677505Y-93222504D01*
D11*
X187657500Y-94067500D03*
D12*
X187677271Y-93777484D02*
X187637729Y-94357516D01*
D10*
X185182500Y-93017499D03*
X190182500Y-95117500D03*
D13*
X193611500Y-68135500D03*
D11*
X193332500Y-73442500D03*
D12*
X193987495Y-72712496D02*
X192677505Y-74172504D01*
D11*
X187657500Y-75017500D03*
D12*
X187677271Y-74727484D02*
X187637729Y-75307516D01*
D10*
X185182500Y-73967499D03*
X190182500Y-76067500D03*
D13*
X174561500Y-109410500D03*
D11*
X174282500Y-114717500D03*
D12*
X174937495Y-113987496D02*
X173627505Y-115447504D01*
D11*
X168607500Y-116292500D03*
D12*
X168627271Y-116002484D02*
X168587729Y-116582516D01*
D10*
X166132500Y-115242499D03*
X171132500Y-117342500D03*
D13*
X174561500Y-90360500D03*
D11*
X174282500Y-95667500D03*
D12*
X174937495Y-94937496D02*
X173627505Y-96397504D01*
D11*
X168607500Y-97242500D03*
D12*
X168627271Y-96952484D02*
X168587729Y-97532516D01*
D10*
X166132500Y-96192499D03*
X171132500Y-98292500D03*
D13*
X174561500Y-71310500D03*
D11*
X174282500Y-76617500D03*
D12*
X174937495Y-75887496D02*
X173627505Y-77347504D01*
D11*
X168607500Y-78192500D03*
D12*
X168627271Y-77902484D02*
X168587729Y-78482516D01*
D10*
X166132500Y-77142499D03*
X171132500Y-79242500D03*
D13*
X155511500Y-122110500D03*
D11*
X155232500Y-127417500D03*
D12*
X155887495Y-126687496D02*
X154577505Y-128147504D01*
D11*
X149557500Y-128992500D03*
D12*
X149577271Y-128702484D02*
X149537729Y-129282516D01*
D10*
X147082500Y-127942499D03*
X152082500Y-130042500D03*
D13*
X155511500Y-103060500D03*
D11*
X155232500Y-108367500D03*
D12*
X155887495Y-107637496D02*
X154577505Y-109097504D01*
D11*
X149557500Y-109942500D03*
D12*
X149577271Y-109652484D02*
X149537729Y-110232516D01*
D10*
X147082500Y-108892499D03*
X152082500Y-110992500D03*
D13*
X155511500Y-84010500D03*
D11*
X155232500Y-89317500D03*
D12*
X155887495Y-88587496D02*
X154577505Y-90047504D01*
D11*
X149557500Y-90892500D03*
D12*
X149577271Y-90602484D02*
X149537729Y-91182516D01*
D10*
X147082500Y-89842499D03*
X152082500Y-91942500D03*
D13*
X155511500Y-64960500D03*
D11*
X155232500Y-70267500D03*
D12*
X155887495Y-69537496D02*
X154577505Y-70997504D01*
D11*
X149557500Y-71842500D03*
D12*
X149577271Y-71552484D02*
X149537729Y-72132516D01*
D10*
X147082500Y-70792499D03*
X152082500Y-72892500D03*
D13*
X136461500Y-117348000D03*
D11*
X136182500Y-122655000D03*
D12*
X136837495Y-121924996D02*
X135527505Y-123385004D01*
D11*
X130507500Y-124230000D03*
D12*
X130527271Y-123939984D02*
X130487729Y-124520016D01*
D10*
X128032500Y-123179999D03*
X133032500Y-125280000D03*
D13*
X136461500Y-98298000D03*
D11*
X136182500Y-103605000D03*
D12*
X136837495Y-102874996D02*
X135527505Y-104335004D01*
D11*
X130507500Y-105180000D03*
D12*
X130527271Y-104889984D02*
X130487729Y-105470016D01*
D10*
X128032500Y-104129999D03*
X133032500Y-106230000D03*
D13*
X136461500Y-79248000D03*
D11*
X136182500Y-84555000D03*
D12*
X136837495Y-83824996D02*
X135527505Y-85285004D01*
D11*
X130507500Y-86130000D03*
D12*
X130527271Y-85839984D02*
X130487729Y-86420016D01*
D10*
X128032500Y-85079999D03*
X133032500Y-87180000D03*
D13*
X117411500Y-110998000D03*
D11*
X117132500Y-116305000D03*
D12*
X117787495Y-115574996D02*
X116477505Y-117035004D01*
D11*
X111457500Y-117880000D03*
D12*
X111477271Y-117589984D02*
X111437729Y-118170016D01*
D10*
X108982500Y-116829999D03*
X113982500Y-118930000D03*
D13*
X117411500Y-91948000D03*
D11*
X117132500Y-97255000D03*
D12*
X117787495Y-96524996D02*
X116477505Y-97985004D01*
D11*
X111457500Y-98830000D03*
D12*
X111477271Y-98539984D02*
X111437729Y-99120016D01*
D10*
X108982500Y-97779999D03*
X113982500Y-99880000D03*
D13*
X117411500Y-72898000D03*
D11*
X117132500Y-78205000D03*
D12*
X117787495Y-77474996D02*
X116477505Y-78935004D01*
D11*
X111457500Y-79780000D03*
D12*
X111477271Y-79489984D02*
X111437729Y-80070016D01*
D10*
X108982500Y-78729999D03*
X113982500Y-80830000D03*
D13*
X98361500Y-87185500D03*
D11*
X98082500Y-92492500D03*
D12*
X98737495Y-91762496D02*
X97427505Y-93222504D01*
D11*
X92407500Y-94067500D03*
D12*
X92427271Y-93777484D02*
X92387729Y-94357516D01*
D10*
X89932500Y-93017499D03*
X94932500Y-95117500D03*
D13*
X98361500Y-68135500D03*
D11*
X98082500Y-73442500D03*
D12*
X98737495Y-72712496D02*
X97427505Y-74172504D01*
D11*
X92407500Y-75017500D03*
D12*
X92427271Y-74727484D02*
X92387729Y-75307516D01*
D10*
X89932500Y-73967499D03*
X94932500Y-76067500D03*
D16*
G36*
X100930142Y-52895174D02*
G01*
X100953803Y-52898684D01*
X100977007Y-52904496D01*
X100999529Y-52912554D01*
X101021153Y-52922782D01*
X101041670Y-52935079D01*
X101060883Y-52949329D01*
X101078607Y-52965393D01*
X101094671Y-52983117D01*
X101108921Y-53002330D01*
X101121218Y-53022847D01*
X101131446Y-53044471D01*
X101139504Y-53066993D01*
X101145316Y-53090197D01*
X101148826Y-53113858D01*
X101150000Y-53137750D01*
X101150000Y-54050250D01*
X101148826Y-54074142D01*
X101145316Y-54097803D01*
X101139504Y-54121007D01*
X101131446Y-54143529D01*
X101121218Y-54165153D01*
X101108921Y-54185670D01*
X101094671Y-54204883D01*
X101078607Y-54222607D01*
X101060883Y-54238671D01*
X101041670Y-54252921D01*
X101021153Y-54265218D01*
X100999529Y-54275446D01*
X100977007Y-54283504D01*
X100953803Y-54289316D01*
X100930142Y-54292826D01*
X100906250Y-54294000D01*
X100418750Y-54294000D01*
X100394858Y-54292826D01*
X100371197Y-54289316D01*
X100347993Y-54283504D01*
X100325471Y-54275446D01*
X100303847Y-54265218D01*
X100283330Y-54252921D01*
X100264117Y-54238671D01*
X100246393Y-54222607D01*
X100230329Y-54204883D01*
X100216079Y-54185670D01*
X100203782Y-54165153D01*
X100193554Y-54143529D01*
X100185496Y-54121007D01*
X100179684Y-54097803D01*
X100176174Y-54074142D01*
X100175000Y-54050250D01*
X100175000Y-53137750D01*
X100176174Y-53113858D01*
X100179684Y-53090197D01*
X100185496Y-53066993D01*
X100193554Y-53044471D01*
X100203782Y-53022847D01*
X100216079Y-53002330D01*
X100230329Y-52983117D01*
X100246393Y-52965393D01*
X100264117Y-52949329D01*
X100283330Y-52935079D01*
X100303847Y-52922782D01*
X100325471Y-52912554D01*
X100347993Y-52904496D01*
X100371197Y-52898684D01*
X100394858Y-52895174D01*
X100418750Y-52894000D01*
X100906250Y-52894000D01*
X100930142Y-52895174D01*
X100930142Y-52895174D01*
G37*
D17*
X100662500Y-53594000D03*
D16*
G36*
X102805142Y-52895174D02*
G01*
X102828803Y-52898684D01*
X102852007Y-52904496D01*
X102874529Y-52912554D01*
X102896153Y-52922782D01*
X102916670Y-52935079D01*
X102935883Y-52949329D01*
X102953607Y-52965393D01*
X102969671Y-52983117D01*
X102983921Y-53002330D01*
X102996218Y-53022847D01*
X103006446Y-53044471D01*
X103014504Y-53066993D01*
X103020316Y-53090197D01*
X103023826Y-53113858D01*
X103025000Y-53137750D01*
X103025000Y-54050250D01*
X103023826Y-54074142D01*
X103020316Y-54097803D01*
X103014504Y-54121007D01*
X103006446Y-54143529D01*
X102996218Y-54165153D01*
X102983921Y-54185670D01*
X102969671Y-54204883D01*
X102953607Y-54222607D01*
X102935883Y-54238671D01*
X102916670Y-54252921D01*
X102896153Y-54265218D01*
X102874529Y-54275446D01*
X102852007Y-54283504D01*
X102828803Y-54289316D01*
X102805142Y-54292826D01*
X102781250Y-54294000D01*
X102293750Y-54294000D01*
X102269858Y-54292826D01*
X102246197Y-54289316D01*
X102222993Y-54283504D01*
X102200471Y-54275446D01*
X102178847Y-54265218D01*
X102158330Y-54252921D01*
X102139117Y-54238671D01*
X102121393Y-54222607D01*
X102105329Y-54204883D01*
X102091079Y-54185670D01*
X102078782Y-54165153D01*
X102068554Y-54143529D01*
X102060496Y-54121007D01*
X102054684Y-54097803D01*
X102051174Y-54074142D01*
X102050000Y-54050250D01*
X102050000Y-53137750D01*
X102051174Y-53113858D01*
X102054684Y-53090197D01*
X102060496Y-53066993D01*
X102068554Y-53044471D01*
X102078782Y-53022847D01*
X102091079Y-53002330D01*
X102105329Y-52983117D01*
X102121393Y-52965393D01*
X102139117Y-52949329D01*
X102158330Y-52935079D01*
X102178847Y-52922782D01*
X102200471Y-52912554D01*
X102222993Y-52904496D01*
X102246197Y-52898684D01*
X102269858Y-52895174D01*
X102293750Y-52894000D01*
X102781250Y-52894000D01*
X102805142Y-52895174D01*
X102805142Y-52895174D01*
G37*
D17*
X102537500Y-53594000D03*
D16*
G36*
X118456142Y-49847174D02*
G01*
X118479803Y-49850684D01*
X118503007Y-49856496D01*
X118525529Y-49864554D01*
X118547153Y-49874782D01*
X118567670Y-49887079D01*
X118586883Y-49901329D01*
X118604607Y-49917393D01*
X118620671Y-49935117D01*
X118634921Y-49954330D01*
X118647218Y-49974847D01*
X118657446Y-49996471D01*
X118665504Y-50018993D01*
X118671316Y-50042197D01*
X118674826Y-50065858D01*
X118676000Y-50089750D01*
X118676000Y-51002250D01*
X118674826Y-51026142D01*
X118671316Y-51049803D01*
X118665504Y-51073007D01*
X118657446Y-51095529D01*
X118647218Y-51117153D01*
X118634921Y-51137670D01*
X118620671Y-51156883D01*
X118604607Y-51174607D01*
X118586883Y-51190671D01*
X118567670Y-51204921D01*
X118547153Y-51217218D01*
X118525529Y-51227446D01*
X118503007Y-51235504D01*
X118479803Y-51241316D01*
X118456142Y-51244826D01*
X118432250Y-51246000D01*
X117944750Y-51246000D01*
X117920858Y-51244826D01*
X117897197Y-51241316D01*
X117873993Y-51235504D01*
X117851471Y-51227446D01*
X117829847Y-51217218D01*
X117809330Y-51204921D01*
X117790117Y-51190671D01*
X117772393Y-51174607D01*
X117756329Y-51156883D01*
X117742079Y-51137670D01*
X117729782Y-51117153D01*
X117719554Y-51095529D01*
X117711496Y-51073007D01*
X117705684Y-51049803D01*
X117702174Y-51026142D01*
X117701000Y-51002250D01*
X117701000Y-50089750D01*
X117702174Y-50065858D01*
X117705684Y-50042197D01*
X117711496Y-50018993D01*
X117719554Y-49996471D01*
X117729782Y-49974847D01*
X117742079Y-49954330D01*
X117756329Y-49935117D01*
X117772393Y-49917393D01*
X117790117Y-49901329D01*
X117809330Y-49887079D01*
X117829847Y-49874782D01*
X117851471Y-49864554D01*
X117873993Y-49856496D01*
X117897197Y-49850684D01*
X117920858Y-49847174D01*
X117944750Y-49846000D01*
X118432250Y-49846000D01*
X118456142Y-49847174D01*
X118456142Y-49847174D01*
G37*
D17*
X118188500Y-50546000D03*
D16*
G36*
X120331142Y-49847174D02*
G01*
X120354803Y-49850684D01*
X120378007Y-49856496D01*
X120400529Y-49864554D01*
X120422153Y-49874782D01*
X120442670Y-49887079D01*
X120461883Y-49901329D01*
X120479607Y-49917393D01*
X120495671Y-49935117D01*
X120509921Y-49954330D01*
X120522218Y-49974847D01*
X120532446Y-49996471D01*
X120540504Y-50018993D01*
X120546316Y-50042197D01*
X120549826Y-50065858D01*
X120551000Y-50089750D01*
X120551000Y-51002250D01*
X120549826Y-51026142D01*
X120546316Y-51049803D01*
X120540504Y-51073007D01*
X120532446Y-51095529D01*
X120522218Y-51117153D01*
X120509921Y-51137670D01*
X120495671Y-51156883D01*
X120479607Y-51174607D01*
X120461883Y-51190671D01*
X120442670Y-51204921D01*
X120422153Y-51217218D01*
X120400529Y-51227446D01*
X120378007Y-51235504D01*
X120354803Y-51241316D01*
X120331142Y-51244826D01*
X120307250Y-51246000D01*
X119819750Y-51246000D01*
X119795858Y-51244826D01*
X119772197Y-51241316D01*
X119748993Y-51235504D01*
X119726471Y-51227446D01*
X119704847Y-51217218D01*
X119684330Y-51204921D01*
X119665117Y-51190671D01*
X119647393Y-51174607D01*
X119631329Y-51156883D01*
X119617079Y-51137670D01*
X119604782Y-51117153D01*
X119594554Y-51095529D01*
X119586496Y-51073007D01*
X119580684Y-51049803D01*
X119577174Y-51026142D01*
X119576000Y-51002250D01*
X119576000Y-50089750D01*
X119577174Y-50065858D01*
X119580684Y-50042197D01*
X119586496Y-50018993D01*
X119594554Y-49996471D01*
X119604782Y-49974847D01*
X119617079Y-49954330D01*
X119631329Y-49935117D01*
X119647393Y-49917393D01*
X119665117Y-49901329D01*
X119684330Y-49887079D01*
X119704847Y-49874782D01*
X119726471Y-49864554D01*
X119748993Y-49856496D01*
X119772197Y-49850684D01*
X119795858Y-49847174D01*
X119819750Y-49846000D01*
X120307250Y-49846000D01*
X120331142Y-49847174D01*
X120331142Y-49847174D01*
G37*
D17*
X120063500Y-50546000D03*
D23*
X132334000Y-129796000D03*
X132334000Y-133096000D03*
X126238000Y-110998000D03*
X126238000Y-114298000D03*
X128778000Y-111000000D03*
X128778000Y-114300000D03*
X129794000Y-129796000D03*
X129794000Y-133096000D03*
X134874000Y-129796000D03*
X134874000Y-133096000D03*
X137414000Y-110998000D03*
X137414000Y-114298000D03*
X139954000Y-110998000D03*
X139954000Y-114298000D03*
X137414000Y-129794000D03*
X137414000Y-133094000D03*
D16*
G36*
X107104642Y-68389174D02*
G01*
X107128303Y-68392684D01*
X107151507Y-68398496D01*
X107174029Y-68406554D01*
X107195653Y-68416782D01*
X107216170Y-68429079D01*
X107235383Y-68443329D01*
X107253107Y-68459393D01*
X107269171Y-68477117D01*
X107283421Y-68496330D01*
X107295718Y-68516847D01*
X107305946Y-68538471D01*
X107314004Y-68560993D01*
X107319816Y-68584197D01*
X107323326Y-68607858D01*
X107324500Y-68631750D01*
X107324500Y-69544250D01*
X107323326Y-69568142D01*
X107319816Y-69591803D01*
X107314004Y-69615007D01*
X107305946Y-69637529D01*
X107295718Y-69659153D01*
X107283421Y-69679670D01*
X107269171Y-69698883D01*
X107253107Y-69716607D01*
X107235383Y-69732671D01*
X107216170Y-69746921D01*
X107195653Y-69759218D01*
X107174029Y-69769446D01*
X107151507Y-69777504D01*
X107128303Y-69783316D01*
X107104642Y-69786826D01*
X107080750Y-69788000D01*
X106593250Y-69788000D01*
X106569358Y-69786826D01*
X106545697Y-69783316D01*
X106522493Y-69777504D01*
X106499971Y-69769446D01*
X106478347Y-69759218D01*
X106457830Y-69746921D01*
X106438617Y-69732671D01*
X106420893Y-69716607D01*
X106404829Y-69698883D01*
X106390579Y-69679670D01*
X106378282Y-69659153D01*
X106368054Y-69637529D01*
X106359996Y-69615007D01*
X106354184Y-69591803D01*
X106350674Y-69568142D01*
X106349500Y-69544250D01*
X106349500Y-68631750D01*
X106350674Y-68607858D01*
X106354184Y-68584197D01*
X106359996Y-68560993D01*
X106368054Y-68538471D01*
X106378282Y-68516847D01*
X106390579Y-68496330D01*
X106404829Y-68477117D01*
X106420893Y-68459393D01*
X106438617Y-68443329D01*
X106457830Y-68429079D01*
X106478347Y-68416782D01*
X106499971Y-68406554D01*
X106522493Y-68398496D01*
X106545697Y-68392684D01*
X106569358Y-68389174D01*
X106593250Y-68388000D01*
X107080750Y-68388000D01*
X107104642Y-68389174D01*
X107104642Y-68389174D01*
G37*
D17*
X106837000Y-69088000D03*
D16*
G36*
X108979642Y-68389174D02*
G01*
X109003303Y-68392684D01*
X109026507Y-68398496D01*
X109049029Y-68406554D01*
X109070653Y-68416782D01*
X109091170Y-68429079D01*
X109110383Y-68443329D01*
X109128107Y-68459393D01*
X109144171Y-68477117D01*
X109158421Y-68496330D01*
X109170718Y-68516847D01*
X109180946Y-68538471D01*
X109189004Y-68560993D01*
X109194816Y-68584197D01*
X109198326Y-68607858D01*
X109199500Y-68631750D01*
X109199500Y-69544250D01*
X109198326Y-69568142D01*
X109194816Y-69591803D01*
X109189004Y-69615007D01*
X109180946Y-69637529D01*
X109170718Y-69659153D01*
X109158421Y-69679670D01*
X109144171Y-69698883D01*
X109128107Y-69716607D01*
X109110383Y-69732671D01*
X109091170Y-69746921D01*
X109070653Y-69759218D01*
X109049029Y-69769446D01*
X109026507Y-69777504D01*
X109003303Y-69783316D01*
X108979642Y-69786826D01*
X108955750Y-69788000D01*
X108468250Y-69788000D01*
X108444358Y-69786826D01*
X108420697Y-69783316D01*
X108397493Y-69777504D01*
X108374971Y-69769446D01*
X108353347Y-69759218D01*
X108332830Y-69746921D01*
X108313617Y-69732671D01*
X108295893Y-69716607D01*
X108279829Y-69698883D01*
X108265579Y-69679670D01*
X108253282Y-69659153D01*
X108243054Y-69637529D01*
X108234996Y-69615007D01*
X108229184Y-69591803D01*
X108225674Y-69568142D01*
X108224500Y-69544250D01*
X108224500Y-68631750D01*
X108225674Y-68607858D01*
X108229184Y-68584197D01*
X108234996Y-68560993D01*
X108243054Y-68538471D01*
X108253282Y-68516847D01*
X108265579Y-68496330D01*
X108279829Y-68477117D01*
X108295893Y-68459393D01*
X108313617Y-68443329D01*
X108332830Y-68429079D01*
X108353347Y-68416782D01*
X108374971Y-68406554D01*
X108397493Y-68398496D01*
X108420697Y-68392684D01*
X108444358Y-68389174D01*
X108468250Y-68388000D01*
X108955750Y-68388000D01*
X108979642Y-68389174D01*
X108979642Y-68389174D01*
G37*
D17*
X108712000Y-69088000D03*
D16*
G36*
X106185642Y-49593174D02*
G01*
X106209303Y-49596684D01*
X106232507Y-49602496D01*
X106255029Y-49610554D01*
X106276653Y-49620782D01*
X106297170Y-49633079D01*
X106316383Y-49647329D01*
X106334107Y-49663393D01*
X106350171Y-49681117D01*
X106364421Y-49700330D01*
X106376718Y-49720847D01*
X106386946Y-49742471D01*
X106395004Y-49764993D01*
X106400816Y-49788197D01*
X106404326Y-49811858D01*
X106405500Y-49835750D01*
X106405500Y-50748250D01*
X106404326Y-50772142D01*
X106400816Y-50795803D01*
X106395004Y-50819007D01*
X106386946Y-50841529D01*
X106376718Y-50863153D01*
X106364421Y-50883670D01*
X106350171Y-50902883D01*
X106334107Y-50920607D01*
X106316383Y-50936671D01*
X106297170Y-50950921D01*
X106276653Y-50963218D01*
X106255029Y-50973446D01*
X106232507Y-50981504D01*
X106209303Y-50987316D01*
X106185642Y-50990826D01*
X106161750Y-50992000D01*
X105674250Y-50992000D01*
X105650358Y-50990826D01*
X105626697Y-50987316D01*
X105603493Y-50981504D01*
X105580971Y-50973446D01*
X105559347Y-50963218D01*
X105538830Y-50950921D01*
X105519617Y-50936671D01*
X105501893Y-50920607D01*
X105485829Y-50902883D01*
X105471579Y-50883670D01*
X105459282Y-50863153D01*
X105449054Y-50841529D01*
X105440996Y-50819007D01*
X105435184Y-50795803D01*
X105431674Y-50772142D01*
X105430500Y-50748250D01*
X105430500Y-49835750D01*
X105431674Y-49811858D01*
X105435184Y-49788197D01*
X105440996Y-49764993D01*
X105449054Y-49742471D01*
X105459282Y-49720847D01*
X105471579Y-49700330D01*
X105485829Y-49681117D01*
X105501893Y-49663393D01*
X105519617Y-49647329D01*
X105538830Y-49633079D01*
X105559347Y-49620782D01*
X105580971Y-49610554D01*
X105603493Y-49602496D01*
X105626697Y-49596684D01*
X105650358Y-49593174D01*
X105674250Y-49592000D01*
X106161750Y-49592000D01*
X106185642Y-49593174D01*
X106185642Y-49593174D01*
G37*
D17*
X105918000Y-50292000D03*
D16*
G36*
X108060642Y-49593174D02*
G01*
X108084303Y-49596684D01*
X108107507Y-49602496D01*
X108130029Y-49610554D01*
X108151653Y-49620782D01*
X108172170Y-49633079D01*
X108191383Y-49647329D01*
X108209107Y-49663393D01*
X108225171Y-49681117D01*
X108239421Y-49700330D01*
X108251718Y-49720847D01*
X108261946Y-49742471D01*
X108270004Y-49764993D01*
X108275816Y-49788197D01*
X108279326Y-49811858D01*
X108280500Y-49835750D01*
X108280500Y-50748250D01*
X108279326Y-50772142D01*
X108275816Y-50795803D01*
X108270004Y-50819007D01*
X108261946Y-50841529D01*
X108251718Y-50863153D01*
X108239421Y-50883670D01*
X108225171Y-50902883D01*
X108209107Y-50920607D01*
X108191383Y-50936671D01*
X108172170Y-50950921D01*
X108151653Y-50963218D01*
X108130029Y-50973446D01*
X108107507Y-50981504D01*
X108084303Y-50987316D01*
X108060642Y-50990826D01*
X108036750Y-50992000D01*
X107549250Y-50992000D01*
X107525358Y-50990826D01*
X107501697Y-50987316D01*
X107478493Y-50981504D01*
X107455971Y-50973446D01*
X107434347Y-50963218D01*
X107413830Y-50950921D01*
X107394617Y-50936671D01*
X107376893Y-50920607D01*
X107360829Y-50902883D01*
X107346579Y-50883670D01*
X107334282Y-50863153D01*
X107324054Y-50841529D01*
X107315996Y-50819007D01*
X107310184Y-50795803D01*
X107306674Y-50772142D01*
X107305500Y-50748250D01*
X107305500Y-49835750D01*
X107306674Y-49811858D01*
X107310184Y-49788197D01*
X107315996Y-49764993D01*
X107324054Y-49742471D01*
X107334282Y-49720847D01*
X107346579Y-49700330D01*
X107360829Y-49681117D01*
X107376893Y-49663393D01*
X107394617Y-49647329D01*
X107413830Y-49633079D01*
X107434347Y-49620782D01*
X107455971Y-49610554D01*
X107478493Y-49602496D01*
X107501697Y-49596684D01*
X107525358Y-49593174D01*
X107549250Y-49592000D01*
X108036750Y-49592000D01*
X108060642Y-49593174D01*
X108060642Y-49593174D01*
G37*
D17*
X107793000Y-50292000D03*
D16*
G36*
X102805142Y-62547174D02*
G01*
X102828803Y-62550684D01*
X102852007Y-62556496D01*
X102874529Y-62564554D01*
X102896153Y-62574782D01*
X102916670Y-62587079D01*
X102935883Y-62601329D01*
X102953607Y-62617393D01*
X102969671Y-62635117D01*
X102983921Y-62654330D01*
X102996218Y-62674847D01*
X103006446Y-62696471D01*
X103014504Y-62718993D01*
X103020316Y-62742197D01*
X103023826Y-62765858D01*
X103025000Y-62789750D01*
X103025000Y-63702250D01*
X103023826Y-63726142D01*
X103020316Y-63749803D01*
X103014504Y-63773007D01*
X103006446Y-63795529D01*
X102996218Y-63817153D01*
X102983921Y-63837670D01*
X102969671Y-63856883D01*
X102953607Y-63874607D01*
X102935883Y-63890671D01*
X102916670Y-63904921D01*
X102896153Y-63917218D01*
X102874529Y-63927446D01*
X102852007Y-63935504D01*
X102828803Y-63941316D01*
X102805142Y-63944826D01*
X102781250Y-63946000D01*
X102293750Y-63946000D01*
X102269858Y-63944826D01*
X102246197Y-63941316D01*
X102222993Y-63935504D01*
X102200471Y-63927446D01*
X102178847Y-63917218D01*
X102158330Y-63904921D01*
X102139117Y-63890671D01*
X102121393Y-63874607D01*
X102105329Y-63856883D01*
X102091079Y-63837670D01*
X102078782Y-63817153D01*
X102068554Y-63795529D01*
X102060496Y-63773007D01*
X102054684Y-63749803D01*
X102051174Y-63726142D01*
X102050000Y-63702250D01*
X102050000Y-62789750D01*
X102051174Y-62765858D01*
X102054684Y-62742197D01*
X102060496Y-62718993D01*
X102068554Y-62696471D01*
X102078782Y-62674847D01*
X102091079Y-62654330D01*
X102105329Y-62635117D01*
X102121393Y-62617393D01*
X102139117Y-62601329D01*
X102158330Y-62587079D01*
X102178847Y-62574782D01*
X102200471Y-62564554D01*
X102222993Y-62556496D01*
X102246197Y-62550684D01*
X102269858Y-62547174D01*
X102293750Y-62546000D01*
X102781250Y-62546000D01*
X102805142Y-62547174D01*
X102805142Y-62547174D01*
G37*
D17*
X102537500Y-63246000D03*
D16*
G36*
X100930142Y-62547174D02*
G01*
X100953803Y-62550684D01*
X100977007Y-62556496D01*
X100999529Y-62564554D01*
X101021153Y-62574782D01*
X101041670Y-62587079D01*
X101060883Y-62601329D01*
X101078607Y-62617393D01*
X101094671Y-62635117D01*
X101108921Y-62654330D01*
X101121218Y-62674847D01*
X101131446Y-62696471D01*
X101139504Y-62718993D01*
X101145316Y-62742197D01*
X101148826Y-62765858D01*
X101150000Y-62789750D01*
X101150000Y-63702250D01*
X101148826Y-63726142D01*
X101145316Y-63749803D01*
X101139504Y-63773007D01*
X101131446Y-63795529D01*
X101121218Y-63817153D01*
X101108921Y-63837670D01*
X101094671Y-63856883D01*
X101078607Y-63874607D01*
X101060883Y-63890671D01*
X101041670Y-63904921D01*
X101021153Y-63917218D01*
X100999529Y-63927446D01*
X100977007Y-63935504D01*
X100953803Y-63941316D01*
X100930142Y-63944826D01*
X100906250Y-63946000D01*
X100418750Y-63946000D01*
X100394858Y-63944826D01*
X100371197Y-63941316D01*
X100347993Y-63935504D01*
X100325471Y-63927446D01*
X100303847Y-63917218D01*
X100283330Y-63904921D01*
X100264117Y-63890671D01*
X100246393Y-63874607D01*
X100230329Y-63856883D01*
X100216079Y-63837670D01*
X100203782Y-63817153D01*
X100193554Y-63795529D01*
X100185496Y-63773007D01*
X100179684Y-63749803D01*
X100176174Y-63726142D01*
X100175000Y-63702250D01*
X100175000Y-62789750D01*
X100176174Y-62765858D01*
X100179684Y-62742197D01*
X100185496Y-62718993D01*
X100193554Y-62696471D01*
X100203782Y-62674847D01*
X100216079Y-62654330D01*
X100230329Y-62635117D01*
X100246393Y-62617393D01*
X100264117Y-62601329D01*
X100283330Y-62587079D01*
X100303847Y-62574782D01*
X100325471Y-62564554D01*
X100347993Y-62556496D01*
X100371197Y-62550684D01*
X100394858Y-62547174D01*
X100418750Y-62546000D01*
X100906250Y-62546000D01*
X100930142Y-62547174D01*
X100930142Y-62547174D01*
G37*
D17*
X100662500Y-63246000D03*
D16*
G36*
X133617642Y-49847174D02*
G01*
X133641303Y-49850684D01*
X133664507Y-49856496D01*
X133687029Y-49864554D01*
X133708653Y-49874782D01*
X133729170Y-49887079D01*
X133748383Y-49901329D01*
X133766107Y-49917393D01*
X133782171Y-49935117D01*
X133796421Y-49954330D01*
X133808718Y-49974847D01*
X133818946Y-49996471D01*
X133827004Y-50018993D01*
X133832816Y-50042197D01*
X133836326Y-50065858D01*
X133837500Y-50089750D01*
X133837500Y-51002250D01*
X133836326Y-51026142D01*
X133832816Y-51049803D01*
X133827004Y-51073007D01*
X133818946Y-51095529D01*
X133808718Y-51117153D01*
X133796421Y-51137670D01*
X133782171Y-51156883D01*
X133766107Y-51174607D01*
X133748383Y-51190671D01*
X133729170Y-51204921D01*
X133708653Y-51217218D01*
X133687029Y-51227446D01*
X133664507Y-51235504D01*
X133641303Y-51241316D01*
X133617642Y-51244826D01*
X133593750Y-51246000D01*
X133106250Y-51246000D01*
X133082358Y-51244826D01*
X133058697Y-51241316D01*
X133035493Y-51235504D01*
X133012971Y-51227446D01*
X132991347Y-51217218D01*
X132970830Y-51204921D01*
X132951617Y-51190671D01*
X132933893Y-51174607D01*
X132917829Y-51156883D01*
X132903579Y-51137670D01*
X132891282Y-51117153D01*
X132881054Y-51095529D01*
X132872996Y-51073007D01*
X132867184Y-51049803D01*
X132863674Y-51026142D01*
X132862500Y-51002250D01*
X132862500Y-50089750D01*
X132863674Y-50065858D01*
X132867184Y-50042197D01*
X132872996Y-50018993D01*
X132881054Y-49996471D01*
X132891282Y-49974847D01*
X132903579Y-49954330D01*
X132917829Y-49935117D01*
X132933893Y-49917393D01*
X132951617Y-49901329D01*
X132970830Y-49887079D01*
X132991347Y-49874782D01*
X133012971Y-49864554D01*
X133035493Y-49856496D01*
X133058697Y-49850684D01*
X133082358Y-49847174D01*
X133106250Y-49846000D01*
X133593750Y-49846000D01*
X133617642Y-49847174D01*
X133617642Y-49847174D01*
G37*
D17*
X133350000Y-50546000D03*
D16*
G36*
X131742642Y-49847174D02*
G01*
X131766303Y-49850684D01*
X131789507Y-49856496D01*
X131812029Y-49864554D01*
X131833653Y-49874782D01*
X131854170Y-49887079D01*
X131873383Y-49901329D01*
X131891107Y-49917393D01*
X131907171Y-49935117D01*
X131921421Y-49954330D01*
X131933718Y-49974847D01*
X131943946Y-49996471D01*
X131952004Y-50018993D01*
X131957816Y-50042197D01*
X131961326Y-50065858D01*
X131962500Y-50089750D01*
X131962500Y-51002250D01*
X131961326Y-51026142D01*
X131957816Y-51049803D01*
X131952004Y-51073007D01*
X131943946Y-51095529D01*
X131933718Y-51117153D01*
X131921421Y-51137670D01*
X131907171Y-51156883D01*
X131891107Y-51174607D01*
X131873383Y-51190671D01*
X131854170Y-51204921D01*
X131833653Y-51217218D01*
X131812029Y-51227446D01*
X131789507Y-51235504D01*
X131766303Y-51241316D01*
X131742642Y-51244826D01*
X131718750Y-51246000D01*
X131231250Y-51246000D01*
X131207358Y-51244826D01*
X131183697Y-51241316D01*
X131160493Y-51235504D01*
X131137971Y-51227446D01*
X131116347Y-51217218D01*
X131095830Y-51204921D01*
X131076617Y-51190671D01*
X131058893Y-51174607D01*
X131042829Y-51156883D01*
X131028579Y-51137670D01*
X131016282Y-51117153D01*
X131006054Y-51095529D01*
X130997996Y-51073007D01*
X130992184Y-51049803D01*
X130988674Y-51026142D01*
X130987500Y-51002250D01*
X130987500Y-50089750D01*
X130988674Y-50065858D01*
X130992184Y-50042197D01*
X130997996Y-50018993D01*
X131006054Y-49996471D01*
X131016282Y-49974847D01*
X131028579Y-49954330D01*
X131042829Y-49935117D01*
X131058893Y-49917393D01*
X131076617Y-49901329D01*
X131095830Y-49887079D01*
X131116347Y-49874782D01*
X131137971Y-49864554D01*
X131160493Y-49856496D01*
X131183697Y-49850684D01*
X131207358Y-49847174D01*
X131231250Y-49846000D01*
X131718750Y-49846000D01*
X131742642Y-49847174D01*
X131742642Y-49847174D01*
G37*
D17*
X131475000Y-50546000D03*
D16*
G36*
X149780142Y-52482424D02*
G01*
X149803803Y-52485934D01*
X149827007Y-52491746D01*
X149849529Y-52499804D01*
X149871153Y-52510032D01*
X149891670Y-52522329D01*
X149910883Y-52536579D01*
X149928607Y-52552643D01*
X149944671Y-52570367D01*
X149958921Y-52589580D01*
X149971218Y-52610097D01*
X149981446Y-52631721D01*
X149989504Y-52654243D01*
X149995316Y-52677447D01*
X149998826Y-52701108D01*
X150000000Y-52725000D01*
X150000000Y-53637500D01*
X149998826Y-53661392D01*
X149995316Y-53685053D01*
X149989504Y-53708257D01*
X149981446Y-53730779D01*
X149971218Y-53752403D01*
X149958921Y-53772920D01*
X149944671Y-53792133D01*
X149928607Y-53809857D01*
X149910883Y-53825921D01*
X149891670Y-53840171D01*
X149871153Y-53852468D01*
X149849529Y-53862696D01*
X149827007Y-53870754D01*
X149803803Y-53876566D01*
X149780142Y-53880076D01*
X149756250Y-53881250D01*
X149268750Y-53881250D01*
X149244858Y-53880076D01*
X149221197Y-53876566D01*
X149197993Y-53870754D01*
X149175471Y-53862696D01*
X149153847Y-53852468D01*
X149133330Y-53840171D01*
X149114117Y-53825921D01*
X149096393Y-53809857D01*
X149080329Y-53792133D01*
X149066079Y-53772920D01*
X149053782Y-53752403D01*
X149043554Y-53730779D01*
X149035496Y-53708257D01*
X149029684Y-53685053D01*
X149026174Y-53661392D01*
X149025000Y-53637500D01*
X149025000Y-52725000D01*
X149026174Y-52701108D01*
X149029684Y-52677447D01*
X149035496Y-52654243D01*
X149043554Y-52631721D01*
X149053782Y-52610097D01*
X149066079Y-52589580D01*
X149080329Y-52570367D01*
X149096393Y-52552643D01*
X149114117Y-52536579D01*
X149133330Y-52522329D01*
X149153847Y-52510032D01*
X149175471Y-52499804D01*
X149197993Y-52491746D01*
X149221197Y-52485934D01*
X149244858Y-52482424D01*
X149268750Y-52481250D01*
X149756250Y-52481250D01*
X149780142Y-52482424D01*
X149780142Y-52482424D01*
G37*
D17*
X149512500Y-53181250D03*
D16*
G36*
X147905142Y-52482424D02*
G01*
X147928803Y-52485934D01*
X147952007Y-52491746D01*
X147974529Y-52499804D01*
X147996153Y-52510032D01*
X148016670Y-52522329D01*
X148035883Y-52536579D01*
X148053607Y-52552643D01*
X148069671Y-52570367D01*
X148083921Y-52589580D01*
X148096218Y-52610097D01*
X148106446Y-52631721D01*
X148114504Y-52654243D01*
X148120316Y-52677447D01*
X148123826Y-52701108D01*
X148125000Y-52725000D01*
X148125000Y-53637500D01*
X148123826Y-53661392D01*
X148120316Y-53685053D01*
X148114504Y-53708257D01*
X148106446Y-53730779D01*
X148096218Y-53752403D01*
X148083921Y-53772920D01*
X148069671Y-53792133D01*
X148053607Y-53809857D01*
X148035883Y-53825921D01*
X148016670Y-53840171D01*
X147996153Y-53852468D01*
X147974529Y-53862696D01*
X147952007Y-53870754D01*
X147928803Y-53876566D01*
X147905142Y-53880076D01*
X147881250Y-53881250D01*
X147393750Y-53881250D01*
X147369858Y-53880076D01*
X147346197Y-53876566D01*
X147322993Y-53870754D01*
X147300471Y-53862696D01*
X147278847Y-53852468D01*
X147258330Y-53840171D01*
X147239117Y-53825921D01*
X147221393Y-53809857D01*
X147205329Y-53792133D01*
X147191079Y-53772920D01*
X147178782Y-53752403D01*
X147168554Y-53730779D01*
X147160496Y-53708257D01*
X147154684Y-53685053D01*
X147151174Y-53661392D01*
X147150000Y-53637500D01*
X147150000Y-52725000D01*
X147151174Y-52701108D01*
X147154684Y-52677447D01*
X147160496Y-52654243D01*
X147168554Y-52631721D01*
X147178782Y-52610097D01*
X147191079Y-52589580D01*
X147205329Y-52570367D01*
X147221393Y-52552643D01*
X147239117Y-52536579D01*
X147258330Y-52522329D01*
X147278847Y-52510032D01*
X147300471Y-52499804D01*
X147322993Y-52491746D01*
X147346197Y-52485934D01*
X147369858Y-52482424D01*
X147393750Y-52481250D01*
X147881250Y-52481250D01*
X147905142Y-52482424D01*
X147905142Y-52482424D01*
G37*
D17*
X147637500Y-53181250D03*
D24*
X100316000Y-56896000D03*
X100316000Y-59796000D03*
X102616000Y-59796000D03*
X102616000Y-56896000D03*
D25*
X119746000Y-63040000D03*
X119746000Y-62240000D03*
X119746000Y-61440000D03*
X119746000Y-60640000D03*
X119746000Y-59840000D03*
X119746000Y-59040000D03*
X119746000Y-58240000D03*
X119746000Y-57440000D03*
X119746000Y-56640000D03*
X119746000Y-55840000D03*
X119746000Y-55040000D03*
D26*
X118046000Y-53340000D03*
X117246000Y-53340000D03*
X116446000Y-53340000D03*
X115646000Y-53340000D03*
X114846000Y-53340000D03*
X114046000Y-53340000D03*
X113246000Y-53340000D03*
X112446000Y-53340000D03*
X111646000Y-53340000D03*
X110846000Y-53340000D03*
X110046000Y-53340000D03*
D25*
X108346000Y-55040000D03*
X108346000Y-55840000D03*
X108346000Y-56640000D03*
X108346000Y-57440000D03*
X108346000Y-58240000D03*
X108346000Y-59040000D03*
X108346000Y-59840000D03*
X108346000Y-60640000D03*
X108346000Y-61440000D03*
X108346000Y-62240000D03*
X108346000Y-63040000D03*
D26*
X110046000Y-64740000D03*
X110846000Y-64740000D03*
X111646000Y-64740000D03*
X112446000Y-64740000D03*
X113246000Y-64740000D03*
X114046000Y-64740000D03*
X114846000Y-64740000D03*
X115646000Y-64740000D03*
X116446000Y-64740000D03*
X117246000Y-64740000D03*
X118046000Y-64740000D03*
D16*
G36*
X149780142Y-50101174D02*
G01*
X149803803Y-50104684D01*
X149827007Y-50110496D01*
X149849529Y-50118554D01*
X149871153Y-50128782D01*
X149891670Y-50141079D01*
X149910883Y-50155329D01*
X149928607Y-50171393D01*
X149944671Y-50189117D01*
X149958921Y-50208330D01*
X149971218Y-50228847D01*
X149981446Y-50250471D01*
X149989504Y-50272993D01*
X149995316Y-50296197D01*
X149998826Y-50319858D01*
X150000000Y-50343750D01*
X150000000Y-51256250D01*
X149998826Y-51280142D01*
X149995316Y-51303803D01*
X149989504Y-51327007D01*
X149981446Y-51349529D01*
X149971218Y-51371153D01*
X149958921Y-51391670D01*
X149944671Y-51410883D01*
X149928607Y-51428607D01*
X149910883Y-51444671D01*
X149891670Y-51458921D01*
X149871153Y-51471218D01*
X149849529Y-51481446D01*
X149827007Y-51489504D01*
X149803803Y-51495316D01*
X149780142Y-51498826D01*
X149756250Y-51500000D01*
X149268750Y-51500000D01*
X149244858Y-51498826D01*
X149221197Y-51495316D01*
X149197993Y-51489504D01*
X149175471Y-51481446D01*
X149153847Y-51471218D01*
X149133330Y-51458921D01*
X149114117Y-51444671D01*
X149096393Y-51428607D01*
X149080329Y-51410883D01*
X149066079Y-51391670D01*
X149053782Y-51371153D01*
X149043554Y-51349529D01*
X149035496Y-51327007D01*
X149029684Y-51303803D01*
X149026174Y-51280142D01*
X149025000Y-51256250D01*
X149025000Y-50343750D01*
X149026174Y-50319858D01*
X149029684Y-50296197D01*
X149035496Y-50272993D01*
X149043554Y-50250471D01*
X149053782Y-50228847D01*
X149066079Y-50208330D01*
X149080329Y-50189117D01*
X149096393Y-50171393D01*
X149114117Y-50155329D01*
X149133330Y-50141079D01*
X149153847Y-50128782D01*
X149175471Y-50118554D01*
X149197993Y-50110496D01*
X149221197Y-50104684D01*
X149244858Y-50101174D01*
X149268750Y-50100000D01*
X149756250Y-50100000D01*
X149780142Y-50101174D01*
X149780142Y-50101174D01*
G37*
D17*
X149512500Y-50800000D03*
D16*
G36*
X147905142Y-50101174D02*
G01*
X147928803Y-50104684D01*
X147952007Y-50110496D01*
X147974529Y-50118554D01*
X147996153Y-50128782D01*
X148016670Y-50141079D01*
X148035883Y-50155329D01*
X148053607Y-50171393D01*
X148069671Y-50189117D01*
X148083921Y-50208330D01*
X148096218Y-50228847D01*
X148106446Y-50250471D01*
X148114504Y-50272993D01*
X148120316Y-50296197D01*
X148123826Y-50319858D01*
X148125000Y-50343750D01*
X148125000Y-51256250D01*
X148123826Y-51280142D01*
X148120316Y-51303803D01*
X148114504Y-51327007D01*
X148106446Y-51349529D01*
X148096218Y-51371153D01*
X148083921Y-51391670D01*
X148069671Y-51410883D01*
X148053607Y-51428607D01*
X148035883Y-51444671D01*
X148016670Y-51458921D01*
X147996153Y-51471218D01*
X147974529Y-51481446D01*
X147952007Y-51489504D01*
X147928803Y-51495316D01*
X147905142Y-51498826D01*
X147881250Y-51500000D01*
X147393750Y-51500000D01*
X147369858Y-51498826D01*
X147346197Y-51495316D01*
X147322993Y-51489504D01*
X147300471Y-51481446D01*
X147278847Y-51471218D01*
X147258330Y-51458921D01*
X147239117Y-51444671D01*
X147221393Y-51428607D01*
X147205329Y-51410883D01*
X147191079Y-51391670D01*
X147178782Y-51371153D01*
X147168554Y-51349529D01*
X147160496Y-51327007D01*
X147154684Y-51303803D01*
X147151174Y-51280142D01*
X147150000Y-51256250D01*
X147150000Y-50343750D01*
X147151174Y-50319858D01*
X147154684Y-50296197D01*
X147160496Y-50272993D01*
X147168554Y-50250471D01*
X147178782Y-50228847D01*
X147191079Y-50208330D01*
X147205329Y-50189117D01*
X147221393Y-50171393D01*
X147239117Y-50155329D01*
X147258330Y-50141079D01*
X147278847Y-50128782D01*
X147300471Y-50118554D01*
X147322993Y-50110496D01*
X147346197Y-50104684D01*
X147369858Y-50101174D01*
X147393750Y-50100000D01*
X147881250Y-50100000D01*
X147905142Y-50101174D01*
X147905142Y-50101174D01*
G37*
D17*
X147637500Y-50800000D03*
D16*
G36*
X102883642Y-64833174D02*
G01*
X102907303Y-64836684D01*
X102930507Y-64842496D01*
X102953029Y-64850554D01*
X102974653Y-64860782D01*
X102995170Y-64873079D01*
X103014383Y-64887329D01*
X103032107Y-64903393D01*
X103048171Y-64921117D01*
X103062421Y-64940330D01*
X103074718Y-64960847D01*
X103084946Y-64982471D01*
X103093004Y-65004993D01*
X103098816Y-65028197D01*
X103102326Y-65051858D01*
X103103500Y-65075750D01*
X103103500Y-65988250D01*
X103102326Y-66012142D01*
X103098816Y-66035803D01*
X103093004Y-66059007D01*
X103084946Y-66081529D01*
X103074718Y-66103153D01*
X103062421Y-66123670D01*
X103048171Y-66142883D01*
X103032107Y-66160607D01*
X103014383Y-66176671D01*
X102995170Y-66190921D01*
X102974653Y-66203218D01*
X102953029Y-66213446D01*
X102930507Y-66221504D01*
X102907303Y-66227316D01*
X102883642Y-66230826D01*
X102859750Y-66232000D01*
X102372250Y-66232000D01*
X102348358Y-66230826D01*
X102324697Y-66227316D01*
X102301493Y-66221504D01*
X102278971Y-66213446D01*
X102257347Y-66203218D01*
X102236830Y-66190921D01*
X102217617Y-66176671D01*
X102199893Y-66160607D01*
X102183829Y-66142883D01*
X102169579Y-66123670D01*
X102157282Y-66103153D01*
X102147054Y-66081529D01*
X102138996Y-66059007D01*
X102133184Y-66035803D01*
X102129674Y-66012142D01*
X102128500Y-65988250D01*
X102128500Y-65075750D01*
X102129674Y-65051858D01*
X102133184Y-65028197D01*
X102138996Y-65004993D01*
X102147054Y-64982471D01*
X102157282Y-64960847D01*
X102169579Y-64940330D01*
X102183829Y-64921117D01*
X102199893Y-64903393D01*
X102217617Y-64887329D01*
X102236830Y-64873079D01*
X102257347Y-64860782D01*
X102278971Y-64850554D01*
X102301493Y-64842496D01*
X102324697Y-64836684D01*
X102348358Y-64833174D01*
X102372250Y-64832000D01*
X102859750Y-64832000D01*
X102883642Y-64833174D01*
X102883642Y-64833174D01*
G37*
D17*
X102616000Y-65532000D03*
D16*
G36*
X101008642Y-64833174D02*
G01*
X101032303Y-64836684D01*
X101055507Y-64842496D01*
X101078029Y-64850554D01*
X101099653Y-64860782D01*
X101120170Y-64873079D01*
X101139383Y-64887329D01*
X101157107Y-64903393D01*
X101173171Y-64921117D01*
X101187421Y-64940330D01*
X101199718Y-64960847D01*
X101209946Y-64982471D01*
X101218004Y-65004993D01*
X101223816Y-65028197D01*
X101227326Y-65051858D01*
X101228500Y-65075750D01*
X101228500Y-65988250D01*
X101227326Y-66012142D01*
X101223816Y-66035803D01*
X101218004Y-66059007D01*
X101209946Y-66081529D01*
X101199718Y-66103153D01*
X101187421Y-66123670D01*
X101173171Y-66142883D01*
X101157107Y-66160607D01*
X101139383Y-66176671D01*
X101120170Y-66190921D01*
X101099653Y-66203218D01*
X101078029Y-66213446D01*
X101055507Y-66221504D01*
X101032303Y-66227316D01*
X101008642Y-66230826D01*
X100984750Y-66232000D01*
X100497250Y-66232000D01*
X100473358Y-66230826D01*
X100449697Y-66227316D01*
X100426493Y-66221504D01*
X100403971Y-66213446D01*
X100382347Y-66203218D01*
X100361830Y-66190921D01*
X100342617Y-66176671D01*
X100324893Y-66160607D01*
X100308829Y-66142883D01*
X100294579Y-66123670D01*
X100282282Y-66103153D01*
X100272054Y-66081529D01*
X100263996Y-66059007D01*
X100258184Y-66035803D01*
X100254674Y-66012142D01*
X100253500Y-65988250D01*
X100253500Y-65075750D01*
X100254674Y-65051858D01*
X100258184Y-65028197D01*
X100263996Y-65004993D01*
X100272054Y-64982471D01*
X100282282Y-64960847D01*
X100294579Y-64940330D01*
X100308829Y-64921117D01*
X100324893Y-64903393D01*
X100342617Y-64887329D01*
X100361830Y-64873079D01*
X100382347Y-64860782D01*
X100403971Y-64850554D01*
X100426493Y-64842496D01*
X100449697Y-64836684D01*
X100473358Y-64833174D01*
X100497250Y-64832000D01*
X100984750Y-64832000D01*
X101008642Y-64833174D01*
X101008642Y-64833174D01*
G37*
D17*
X100741000Y-65532000D03*
D16*
G36*
X150643504Y-56276204D02*
G01*
X150667773Y-56279804D01*
X150691571Y-56285765D01*
X150714671Y-56294030D01*
X150736849Y-56304520D01*
X150757893Y-56317133D01*
X150777598Y-56331747D01*
X150795777Y-56348223D01*
X150812253Y-56366402D01*
X150826867Y-56386107D01*
X150839480Y-56407151D01*
X150849970Y-56429329D01*
X150858235Y-56452429D01*
X150864196Y-56476227D01*
X150867796Y-56500496D01*
X150869000Y-56525000D01*
X150869000Y-57775000D01*
X150867796Y-57799504D01*
X150864196Y-57823773D01*
X150858235Y-57847571D01*
X150849970Y-57870671D01*
X150839480Y-57892849D01*
X150826867Y-57913893D01*
X150812253Y-57933598D01*
X150795777Y-57951777D01*
X150777598Y-57968253D01*
X150757893Y-57982867D01*
X150736849Y-57995480D01*
X150714671Y-58005970D01*
X150691571Y-58014235D01*
X150667773Y-58020196D01*
X150643504Y-58023796D01*
X150619000Y-58025000D01*
X149869000Y-58025000D01*
X149844496Y-58023796D01*
X149820227Y-58020196D01*
X149796429Y-58014235D01*
X149773329Y-58005970D01*
X149751151Y-57995480D01*
X149730107Y-57982867D01*
X149710402Y-57968253D01*
X149692223Y-57951777D01*
X149675747Y-57933598D01*
X149661133Y-57913893D01*
X149648520Y-57892849D01*
X149638030Y-57870671D01*
X149629765Y-57847571D01*
X149623804Y-57823773D01*
X149620204Y-57799504D01*
X149619000Y-57775000D01*
X149619000Y-56525000D01*
X149620204Y-56500496D01*
X149623804Y-56476227D01*
X149629765Y-56452429D01*
X149638030Y-56429329D01*
X149648520Y-56407151D01*
X149661133Y-56386107D01*
X149675747Y-56366402D01*
X149692223Y-56348223D01*
X149710402Y-56331747D01*
X149730107Y-56317133D01*
X149751151Y-56304520D01*
X149773329Y-56294030D01*
X149796429Y-56285765D01*
X149820227Y-56279804D01*
X149844496Y-56276204D01*
X149869000Y-56275000D01*
X150619000Y-56275000D01*
X150643504Y-56276204D01*
X150643504Y-56276204D01*
G37*
D27*
X150244000Y-57150000D03*
D16*
G36*
X147843504Y-56276204D02*
G01*
X147867773Y-56279804D01*
X147891571Y-56285765D01*
X147914671Y-56294030D01*
X147936849Y-56304520D01*
X147957893Y-56317133D01*
X147977598Y-56331747D01*
X147995777Y-56348223D01*
X148012253Y-56366402D01*
X148026867Y-56386107D01*
X148039480Y-56407151D01*
X148049970Y-56429329D01*
X148058235Y-56452429D01*
X148064196Y-56476227D01*
X148067796Y-56500496D01*
X148069000Y-56525000D01*
X148069000Y-57775000D01*
X148067796Y-57799504D01*
X148064196Y-57823773D01*
X148058235Y-57847571D01*
X148049970Y-57870671D01*
X148039480Y-57892849D01*
X148026867Y-57913893D01*
X148012253Y-57933598D01*
X147995777Y-57951777D01*
X147977598Y-57968253D01*
X147957893Y-57982867D01*
X147936849Y-57995480D01*
X147914671Y-58005970D01*
X147891571Y-58014235D01*
X147867773Y-58020196D01*
X147843504Y-58023796D01*
X147819000Y-58025000D01*
X147069000Y-58025000D01*
X147044496Y-58023796D01*
X147020227Y-58020196D01*
X146996429Y-58014235D01*
X146973329Y-58005970D01*
X146951151Y-57995480D01*
X146930107Y-57982867D01*
X146910402Y-57968253D01*
X146892223Y-57951777D01*
X146875747Y-57933598D01*
X146861133Y-57913893D01*
X146848520Y-57892849D01*
X146838030Y-57870671D01*
X146829765Y-57847571D01*
X146823804Y-57823773D01*
X146820204Y-57799504D01*
X146819000Y-57775000D01*
X146819000Y-56525000D01*
X146820204Y-56500496D01*
X146823804Y-56476227D01*
X146829765Y-56452429D01*
X146838030Y-56429329D01*
X146848520Y-56407151D01*
X146861133Y-56386107D01*
X146875747Y-56366402D01*
X146892223Y-56348223D01*
X146910402Y-56331747D01*
X146930107Y-56317133D01*
X146951151Y-56304520D01*
X146973329Y-56294030D01*
X146996429Y-56285765D01*
X147020227Y-56279804D01*
X147044496Y-56276204D01*
X147069000Y-56275000D01*
X147819000Y-56275000D01*
X147843504Y-56276204D01*
X147843504Y-56276204D01*
G37*
D27*
X147444000Y-57150000D03*
D16*
G36*
X115172642Y-68389174D02*
G01*
X115196303Y-68392684D01*
X115219507Y-68398496D01*
X115242029Y-68406554D01*
X115263653Y-68416782D01*
X115284170Y-68429079D01*
X115303383Y-68443329D01*
X115321107Y-68459393D01*
X115337171Y-68477117D01*
X115351421Y-68496330D01*
X115363718Y-68516847D01*
X115373946Y-68538471D01*
X115382004Y-68560993D01*
X115387816Y-68584197D01*
X115391326Y-68607858D01*
X115392500Y-68631750D01*
X115392500Y-69544250D01*
X115391326Y-69568142D01*
X115387816Y-69591803D01*
X115382004Y-69615007D01*
X115373946Y-69637529D01*
X115363718Y-69659153D01*
X115351421Y-69679670D01*
X115337171Y-69698883D01*
X115321107Y-69716607D01*
X115303383Y-69732671D01*
X115284170Y-69746921D01*
X115263653Y-69759218D01*
X115242029Y-69769446D01*
X115219507Y-69777504D01*
X115196303Y-69783316D01*
X115172642Y-69786826D01*
X115148750Y-69788000D01*
X114661250Y-69788000D01*
X114637358Y-69786826D01*
X114613697Y-69783316D01*
X114590493Y-69777504D01*
X114567971Y-69769446D01*
X114546347Y-69759218D01*
X114525830Y-69746921D01*
X114506617Y-69732671D01*
X114488893Y-69716607D01*
X114472829Y-69698883D01*
X114458579Y-69679670D01*
X114446282Y-69659153D01*
X114436054Y-69637529D01*
X114427996Y-69615007D01*
X114422184Y-69591803D01*
X114418674Y-69568142D01*
X114417500Y-69544250D01*
X114417500Y-68631750D01*
X114418674Y-68607858D01*
X114422184Y-68584197D01*
X114427996Y-68560993D01*
X114436054Y-68538471D01*
X114446282Y-68516847D01*
X114458579Y-68496330D01*
X114472829Y-68477117D01*
X114488893Y-68459393D01*
X114506617Y-68443329D01*
X114525830Y-68429079D01*
X114546347Y-68416782D01*
X114567971Y-68406554D01*
X114590493Y-68398496D01*
X114613697Y-68392684D01*
X114637358Y-68389174D01*
X114661250Y-68388000D01*
X115148750Y-68388000D01*
X115172642Y-68389174D01*
X115172642Y-68389174D01*
G37*
D17*
X114905000Y-69088000D03*
D16*
G36*
X113297642Y-68389174D02*
G01*
X113321303Y-68392684D01*
X113344507Y-68398496D01*
X113367029Y-68406554D01*
X113388653Y-68416782D01*
X113409170Y-68429079D01*
X113428383Y-68443329D01*
X113446107Y-68459393D01*
X113462171Y-68477117D01*
X113476421Y-68496330D01*
X113488718Y-68516847D01*
X113498946Y-68538471D01*
X113507004Y-68560993D01*
X113512816Y-68584197D01*
X113516326Y-68607858D01*
X113517500Y-68631750D01*
X113517500Y-69544250D01*
X113516326Y-69568142D01*
X113512816Y-69591803D01*
X113507004Y-69615007D01*
X113498946Y-69637529D01*
X113488718Y-69659153D01*
X113476421Y-69679670D01*
X113462171Y-69698883D01*
X113446107Y-69716607D01*
X113428383Y-69732671D01*
X113409170Y-69746921D01*
X113388653Y-69759218D01*
X113367029Y-69769446D01*
X113344507Y-69777504D01*
X113321303Y-69783316D01*
X113297642Y-69786826D01*
X113273750Y-69788000D01*
X112786250Y-69788000D01*
X112762358Y-69786826D01*
X112738697Y-69783316D01*
X112715493Y-69777504D01*
X112692971Y-69769446D01*
X112671347Y-69759218D01*
X112650830Y-69746921D01*
X112631617Y-69732671D01*
X112613893Y-69716607D01*
X112597829Y-69698883D01*
X112583579Y-69679670D01*
X112571282Y-69659153D01*
X112561054Y-69637529D01*
X112552996Y-69615007D01*
X112547184Y-69591803D01*
X112543674Y-69568142D01*
X112542500Y-69544250D01*
X112542500Y-68631750D01*
X112543674Y-68607858D01*
X112547184Y-68584197D01*
X112552996Y-68560993D01*
X112561054Y-68538471D01*
X112571282Y-68516847D01*
X112583579Y-68496330D01*
X112597829Y-68477117D01*
X112613893Y-68459393D01*
X112631617Y-68443329D01*
X112650830Y-68429079D01*
X112671347Y-68416782D01*
X112692971Y-68406554D01*
X112715493Y-68398496D01*
X112738697Y-68392684D01*
X112762358Y-68389174D01*
X112786250Y-68388000D01*
X113273750Y-68388000D01*
X113297642Y-68389174D01*
X113297642Y-68389174D01*
G37*
D17*
X113030000Y-69088000D03*
D16*
G36*
X97254142Y-56996174D02*
G01*
X97277803Y-56999684D01*
X97301007Y-57005496D01*
X97323529Y-57013554D01*
X97345153Y-57023782D01*
X97365670Y-57036079D01*
X97384883Y-57050329D01*
X97402607Y-57066393D01*
X97418671Y-57084117D01*
X97432921Y-57103330D01*
X97445218Y-57123847D01*
X97455446Y-57145471D01*
X97463504Y-57167993D01*
X97469316Y-57191197D01*
X97472826Y-57214858D01*
X97474000Y-57238750D01*
X97474000Y-57726250D01*
X97472826Y-57750142D01*
X97469316Y-57773803D01*
X97463504Y-57797007D01*
X97455446Y-57819529D01*
X97445218Y-57841153D01*
X97432921Y-57861670D01*
X97418671Y-57880883D01*
X97402607Y-57898607D01*
X97384883Y-57914671D01*
X97365670Y-57928921D01*
X97345153Y-57941218D01*
X97323529Y-57951446D01*
X97301007Y-57959504D01*
X97277803Y-57965316D01*
X97254142Y-57968826D01*
X97230250Y-57970000D01*
X96317750Y-57970000D01*
X96293858Y-57968826D01*
X96270197Y-57965316D01*
X96246993Y-57959504D01*
X96224471Y-57951446D01*
X96202847Y-57941218D01*
X96182330Y-57928921D01*
X96163117Y-57914671D01*
X96145393Y-57898607D01*
X96129329Y-57880883D01*
X96115079Y-57861670D01*
X96102782Y-57841153D01*
X96092554Y-57819529D01*
X96084496Y-57797007D01*
X96078684Y-57773803D01*
X96075174Y-57750142D01*
X96074000Y-57726250D01*
X96074000Y-57238750D01*
X96075174Y-57214858D01*
X96078684Y-57191197D01*
X96084496Y-57167993D01*
X96092554Y-57145471D01*
X96102782Y-57123847D01*
X96115079Y-57103330D01*
X96129329Y-57084117D01*
X96145393Y-57066393D01*
X96163117Y-57050329D01*
X96182330Y-57036079D01*
X96202847Y-57023782D01*
X96224471Y-57013554D01*
X96246993Y-57005496D01*
X96270197Y-56999684D01*
X96293858Y-56996174D01*
X96317750Y-56995000D01*
X97230250Y-56995000D01*
X97254142Y-56996174D01*
X97254142Y-56996174D01*
G37*
D17*
X96774000Y-57482500D03*
D16*
G36*
X97254142Y-58871174D02*
G01*
X97277803Y-58874684D01*
X97301007Y-58880496D01*
X97323529Y-58888554D01*
X97345153Y-58898782D01*
X97365670Y-58911079D01*
X97384883Y-58925329D01*
X97402607Y-58941393D01*
X97418671Y-58959117D01*
X97432921Y-58978330D01*
X97445218Y-58998847D01*
X97455446Y-59020471D01*
X97463504Y-59042993D01*
X97469316Y-59066197D01*
X97472826Y-59089858D01*
X97474000Y-59113750D01*
X97474000Y-59601250D01*
X97472826Y-59625142D01*
X97469316Y-59648803D01*
X97463504Y-59672007D01*
X97455446Y-59694529D01*
X97445218Y-59716153D01*
X97432921Y-59736670D01*
X97418671Y-59755883D01*
X97402607Y-59773607D01*
X97384883Y-59789671D01*
X97365670Y-59803921D01*
X97345153Y-59816218D01*
X97323529Y-59826446D01*
X97301007Y-59834504D01*
X97277803Y-59840316D01*
X97254142Y-59843826D01*
X97230250Y-59845000D01*
X96317750Y-59845000D01*
X96293858Y-59843826D01*
X96270197Y-59840316D01*
X96246993Y-59834504D01*
X96224471Y-59826446D01*
X96202847Y-59816218D01*
X96182330Y-59803921D01*
X96163117Y-59789671D01*
X96145393Y-59773607D01*
X96129329Y-59755883D01*
X96115079Y-59736670D01*
X96102782Y-59716153D01*
X96092554Y-59694529D01*
X96084496Y-59672007D01*
X96078684Y-59648803D01*
X96075174Y-59625142D01*
X96074000Y-59601250D01*
X96074000Y-59113750D01*
X96075174Y-59089858D01*
X96078684Y-59066197D01*
X96084496Y-59042993D01*
X96092554Y-59020471D01*
X96102782Y-58998847D01*
X96115079Y-58978330D01*
X96129329Y-58959117D01*
X96145393Y-58941393D01*
X96163117Y-58925329D01*
X96182330Y-58911079D01*
X96202847Y-58898782D01*
X96224471Y-58888554D01*
X96246993Y-58880496D01*
X96270197Y-58874684D01*
X96293858Y-58871174D01*
X96317750Y-58870000D01*
X97230250Y-58870000D01*
X97254142Y-58871174D01*
X97254142Y-58871174D01*
G37*
D17*
X96774000Y-59357500D03*
D23*
X140208000Y-92202000D03*
X140208000Y-95502000D03*
X139446000Y-72898000D03*
X139446000Y-76198000D03*
X137668000Y-92204000D03*
X137668000Y-95504000D03*
X136906000Y-72898000D03*
X136906000Y-76198000D03*
X134874000Y-111000000D03*
X134874000Y-114300000D03*
X135128000Y-92204000D03*
X135128000Y-95504000D03*
X134366000Y-72900000D03*
X134366000Y-76200000D03*
X131318000Y-110998000D03*
X131318000Y-114298000D03*
X131064000Y-92202000D03*
X131064000Y-95502000D03*
X131318000Y-72900000D03*
X131318000Y-76200000D03*
X125984000Y-92202000D03*
X125984000Y-95502000D03*
X128778000Y-72898000D03*
X128778000Y-76198000D03*
X128524000Y-92202000D03*
X128524000Y-95502000D03*
X126238000Y-72898000D03*
X126238000Y-76198000D03*
D28*
X112202000Y-60640000D03*
X104676500Y-59182000D03*
X104676500Y-50546000D03*
X105889500Y-53368500D03*
X120747000Y-67407000D03*
X120650000Y-64770000D03*
X99314000Y-53594000D03*
X141224000Y-74930000D03*
X113030000Y-50800000D03*
X141904000Y-94406000D03*
X136913066Y-55379066D03*
X125737066Y-55379066D03*
X125737066Y-64254934D03*
X118596000Y-66294000D03*
X141478000Y-113030000D03*
X141478000Y-113030000D03*
X114046000Y-50038000D03*
X115062000Y-51308000D03*
X128778000Y-54267010D03*
X128778000Y-54267010D03*
X138264990Y-54267010D03*
X140968000Y-133094000D03*
X152146000Y-56896000D03*
X116078000Y-51904000D03*
X98044000Y-50546000D03*
X105918000Y-51816000D03*
X111252000Y-68072000D03*
X110236000Y-66802000D03*
X112014000Y-67310000D03*
X113538000Y-70647000D03*
X113538000Y-70647000D03*
X129032000Y-70358000D03*
X135636000Y-70358000D03*
X163830000Y-62992000D03*
X183134000Y-65024000D03*
X151384000Y-53086000D03*
X116325933Y-68586067D03*
X124206000Y-55431962D03*
X151384000Y-50800000D03*
X115570000Y-67564000D03*
X123190000Y-55372000D03*
X105664000Y-63754000D03*
X143510000Y-57150000D03*
X109728000Y-50800000D03*
X122174000Y-54356000D03*
X105664000Y-61468000D03*
X122174000Y-62992000D03*
X117246000Y-66954000D03*
X129286000Y-50546000D03*
X99060000Y-65278000D03*
X110236000Y-68326000D03*
D29*
X170558601Y-137699202D02*
X168347809Y-137106822D01*
X168347809Y-137106822D02*
X168083601Y-136649201D01*
X173217484Y-141331851D02*
X170518687Y-140608711D01*
X180805167Y-124478215D02*
X180494045Y-125639336D01*
X170013472Y-139733653D02*
X170558601Y-137699202D01*
X181808488Y-127916018D02*
X178865143Y-138900734D01*
X178865143Y-138900734D02*
X175754291Y-140696786D01*
X175754291Y-140696786D02*
X174772910Y-140433825D01*
X174772910Y-140433825D02*
X173217484Y-141331851D01*
X170518687Y-140608711D02*
X170013472Y-139733653D01*
X181698255Y-127725090D02*
X181808488Y-127916018D01*
X180494045Y-125639336D02*
X181698255Y-127725090D01*
X181667135Y-127841230D02*
X181698255Y-127725090D01*
X176512601Y-130817202D02*
X181667135Y-127841230D01*
X189454643Y-137279881D02*
X189718850Y-137737502D01*
X187243850Y-136687501D02*
X189454643Y-137279881D01*
X195393850Y-136162503D02*
X192499451Y-137833585D01*
X192499451Y-137833585D02*
X192243850Y-138787502D01*
X197279123Y-136667660D02*
X195393850Y-136162503D01*
X200833607Y-134615478D02*
X197279123Y-136667660D01*
D30*
X133350000Y-50546000D02*
X134620000Y-50546000D01*
X135065750Y-50100250D02*
X135065750Y-47943750D01*
X134620000Y-50546000D02*
X135065750Y-50100250D01*
X102616000Y-59443098D02*
X102616000Y-59796000D01*
X100316000Y-57143098D02*
X102616000Y-59443098D01*
X100316000Y-56896000D02*
X100316000Y-57143098D01*
X99729500Y-57482500D02*
X100316000Y-56896000D01*
X96774000Y-57482500D02*
X99729500Y-57482500D01*
X100662500Y-56549500D02*
X100316000Y-56896000D01*
X100662500Y-53594000D02*
X100662500Y-56549500D01*
X114905000Y-68288000D02*
X114905000Y-69088000D01*
X114779499Y-68162499D02*
X114905000Y-68288000D01*
X114779499Y-65937501D02*
X114779499Y-68162499D01*
X114846000Y-65871000D02*
X114779499Y-65937501D01*
X114846000Y-64740000D02*
X114846000Y-65871000D01*
X109916000Y-60640000D02*
X112202000Y-60640000D01*
X109916000Y-60640000D02*
X110302000Y-60640000D01*
X108346000Y-60640000D02*
X109916000Y-60640000D01*
X110046000Y-54267902D02*
X110046000Y-53340000D01*
X103897000Y-59796000D02*
X104511000Y-59182000D01*
X102616000Y-59796000D02*
X103897000Y-59796000D01*
X104511000Y-59182000D02*
X104676500Y-59182000D01*
X104710250Y-50229750D02*
X104676500Y-50263500D01*
X104676500Y-50263500D02*
X104676500Y-50546000D01*
X105347750Y-49721750D02*
X105918000Y-50292000D01*
X104710250Y-49721750D02*
X105347750Y-49721750D01*
X104710250Y-49721750D02*
X104710250Y-50229750D01*
X104710250Y-47943750D02*
X104710250Y-49721750D01*
X94550250Y-55258750D02*
X96774000Y-57482500D01*
X94550250Y-47943750D02*
X94550250Y-55258750D01*
X94550250Y-55258750D02*
X94550250Y-61784250D01*
X94550250Y-61784250D02*
X96012000Y-63246000D01*
X96012000Y-63246000D02*
X100662500Y-63246000D01*
X120063500Y-47960000D02*
X120063500Y-50546000D01*
X120079750Y-47943750D02*
X120063500Y-47960000D01*
X114905000Y-69088000D02*
X116346489Y-70529489D01*
X119051511Y-70529489D02*
X120747000Y-68834000D01*
X116346489Y-70529489D02*
X119051511Y-70529489D01*
X94550250Y-61784250D02*
X94550250Y-64832250D01*
X94550250Y-64832250D02*
X96012000Y-66294000D01*
X96012000Y-66294000D02*
X98806000Y-66294000D01*
X98806000Y-66294000D02*
X101600000Y-69088000D01*
X87122000Y-119568556D02*
X98303645Y-130750201D01*
X87122000Y-68326000D02*
X87122000Y-119568556D01*
X90551000Y-48133000D02*
X90551000Y-64897000D01*
X90551000Y-64897000D02*
X87122000Y-68326000D01*
X98303645Y-130750201D02*
X98303645Y-127756355D01*
X98303645Y-127756355D02*
X99568000Y-126492000D01*
X103378000Y-126492000D02*
X105664000Y-128778000D01*
X118110000Y-126492000D02*
X121412000Y-129794000D01*
X103124000Y-126492000D02*
X118110000Y-126492000D01*
X103124000Y-126492000D02*
X103378000Y-126492000D01*
X99568000Y-126492000D02*
X103124000Y-126492000D01*
X114846000Y-63609000D02*
X114846000Y-64740000D01*
X120063500Y-50546000D02*
X120063500Y-53050402D01*
X114696000Y-60640000D02*
X114846000Y-60490000D01*
X112202000Y-60640000D02*
X114696000Y-60640000D01*
X114846000Y-58267902D02*
X114846000Y-60490000D01*
X114874000Y-62240000D02*
X114846000Y-62268000D01*
X119746000Y-62240000D02*
X114874000Y-62240000D01*
X114846000Y-60490000D02*
X114846000Y-62268000D01*
X114846000Y-62268000D02*
X114846000Y-63609000D01*
X118052951Y-55277951D02*
X118052951Y-55060951D01*
X118615000Y-55840000D02*
X118052951Y-55277951D01*
X119746000Y-55840000D02*
X118615000Y-55840000D01*
X120063500Y-53050402D02*
X118052951Y-55060951D01*
X118052951Y-55060951D02*
X114846000Y-58267902D01*
X110635951Y-55060951D02*
X118052951Y-55060951D01*
X110046000Y-54471000D02*
X110635951Y-55060951D01*
X110046000Y-53340000D02*
X110046000Y-54471000D01*
X112202000Y-57084000D02*
X112202000Y-60640000D01*
X105889500Y-53368500D02*
X108486500Y-53368500D01*
X108486500Y-53368500D02*
X112202000Y-57084000D01*
D31*
X90551000Y-48162000D02*
X90551000Y-48133000D01*
X89411000Y-49302000D02*
X90551000Y-48162000D01*
X88078000Y-49302000D02*
X89411000Y-49302000D01*
X90769250Y-47943750D02*
X90551000Y-48162000D01*
X155043750Y-47943750D02*
X90769250Y-47943750D01*
X120747000Y-68834000D02*
X120747000Y-67407000D01*
X119776000Y-64770000D02*
X117998000Y-62992000D01*
X120650000Y-64770000D02*
X119776000Y-64770000D01*
X114554000Y-62992000D02*
X112202000Y-60640000D01*
X117998000Y-62992000D02*
X114554000Y-62992000D01*
D30*
X101600000Y-69088000D02*
X106837000Y-69088000D01*
X106837000Y-66221098D02*
X106837000Y-69088000D01*
X111802001Y-61256097D02*
X106837000Y-66221098D01*
X112202000Y-60640000D02*
X111802001Y-61039999D01*
X111802001Y-61039999D02*
X111802001Y-61256097D01*
X100662500Y-53594000D02*
X100075000Y-53594000D01*
X100075000Y-53594000D02*
X99314000Y-53594000D01*
D29*
X107342000Y-59040000D02*
X108346000Y-59040000D01*
X105914000Y-59040000D02*
X107342000Y-59040000D01*
X103770000Y-56896000D02*
X105914000Y-59040000D01*
X102616000Y-56896000D02*
X103770000Y-56896000D01*
X102537500Y-56817500D02*
X102616000Y-56896000D01*
X102537500Y-53594000D02*
X102537500Y-56817500D01*
X100316000Y-61100000D02*
X100938000Y-61722000D01*
X100316000Y-59796000D02*
X100316000Y-61100000D01*
X100938000Y-61722000D02*
X103632000Y-61722000D01*
X105514000Y-59840000D02*
X108346000Y-59840000D01*
X103632000Y-61722000D02*
X105514000Y-59840000D01*
X99877500Y-59357500D02*
X100316000Y-59796000D01*
X96774000Y-59357500D02*
X99877500Y-59357500D01*
X114046000Y-65744000D02*
X114046000Y-64740000D01*
X114046000Y-67272000D02*
X114046000Y-65744000D01*
X113030000Y-68288000D02*
X114046000Y-67272000D01*
X113030000Y-69088000D02*
X113030000Y-68288000D01*
X95457500Y-76067500D02*
X94932500Y-76067500D01*
X98082500Y-73442500D02*
X95457500Y-76067500D01*
X126492000Y-72898000D02*
X126342000Y-72898000D01*
X126342000Y-72898000D02*
X122936000Y-76304000D01*
X122936000Y-76304000D02*
X122936000Y-79502000D01*
X122936000Y-79502000D02*
X119380000Y-83058000D01*
X119380000Y-83058000D02*
X109474000Y-83058000D01*
X99858500Y-73442500D02*
X98082500Y-73442500D01*
X109474000Y-83058000D02*
X99858500Y-73442500D01*
X126492000Y-76200000D02*
X139192000Y-76200000D01*
X140046000Y-76198000D02*
X141224000Y-75020000D01*
X139192000Y-76198000D02*
X140046000Y-76198000D01*
X141224000Y-75020000D02*
X141224000Y-74930000D01*
X113246000Y-53340000D02*
X113246000Y-51016000D01*
X113246000Y-51016000D02*
X113030000Y-50800000D01*
X128374000Y-92202000D02*
X125222000Y-89050000D01*
X128524000Y-92202000D02*
X128374000Y-92202000D01*
X125222000Y-89050000D02*
X106276000Y-89050000D01*
X102833500Y-92492500D02*
X98082500Y-92492500D01*
X106276000Y-89050000D02*
X102833500Y-92492500D01*
X95457500Y-95117500D02*
X94932500Y-95117500D01*
X98082500Y-92492500D02*
X95457500Y-95117500D01*
X139952000Y-95502000D02*
X139954000Y-95504000D01*
X126238000Y-95502000D02*
X139952000Y-95502000D01*
X139954000Y-95502000D02*
X140104000Y-95502000D01*
X139954000Y-95502000D02*
X140808000Y-95502000D01*
X141986000Y-94324000D02*
X141904000Y-94406000D01*
X140808000Y-95502000D02*
X141904000Y-94406000D01*
X136913066Y-55379066D02*
X125737066Y-55379066D01*
X118046000Y-65744000D02*
X118596000Y-66294000D01*
X118046000Y-64740000D02*
X118046000Y-65744000D01*
X123698000Y-66294000D02*
X125737066Y-64254934D01*
X118596000Y-66294000D02*
X123698000Y-66294000D01*
X128628000Y-111000000D02*
X125832000Y-108204000D01*
X128778000Y-111000000D02*
X128628000Y-111000000D01*
X125832000Y-108204000D02*
X105918000Y-108204000D01*
X102545277Y-111576723D02*
X98085521Y-111576723D01*
X105918000Y-108204000D02*
X102545277Y-111576723D01*
X95460521Y-114201723D02*
X94935521Y-114201723D01*
X98085521Y-111576723D02*
X95460521Y-114201723D01*
X139698000Y-114298000D02*
X139700000Y-114300000D01*
X126492000Y-114298000D02*
X139698000Y-114298000D01*
X140554000Y-114298000D02*
X141478000Y-113374000D01*
X139700000Y-114298000D02*
X140554000Y-114298000D01*
X141478000Y-113374000D02*
X141478000Y-113030000D01*
X114046000Y-51054000D02*
X114046000Y-50038000D01*
X114046000Y-51054000D02*
X114046000Y-50800000D01*
X114046000Y-53340000D02*
X114046000Y-51054000D01*
X130302000Y-133094000D02*
X137160000Y-133094000D01*
X137160000Y-133094000D02*
X137310000Y-133094000D01*
X114846000Y-53340000D02*
X114846000Y-51524000D01*
X114846000Y-51524000D02*
X115062000Y-51308000D01*
X138341010Y-54267010D02*
X138264990Y-54267010D01*
X128778000Y-54267010D02*
X138264990Y-54267010D01*
X137414000Y-133094000D02*
X140968000Y-133094000D01*
X118740843Y-78205000D02*
X117132500Y-78205000D01*
X116607500Y-78205000D02*
X117132500Y-78205000D01*
X113982500Y-80830000D02*
X116607500Y-78205000D01*
X128778000Y-72194000D02*
X128212000Y-71628000D01*
X128778000Y-72898000D02*
X128778000Y-72194000D01*
X128212000Y-71628000D02*
X124968000Y-71628000D01*
X124968000Y-71628000D02*
X122428000Y-74168000D01*
X122428000Y-74168000D02*
X122428000Y-77470000D01*
X121693000Y-78205000D02*
X117132500Y-78205000D01*
X122428000Y-77470000D02*
X121693000Y-78205000D01*
X118740843Y-97255000D02*
X117132500Y-97255000D01*
X121035000Y-97255000D02*
X118740843Y-97255000D01*
X126088000Y-92202000D02*
X121035000Y-97255000D01*
X126238000Y-92202000D02*
X126088000Y-92202000D01*
X117132500Y-97255000D02*
X117999870Y-98122370D01*
X114507500Y-99880000D02*
X113982500Y-99880000D01*
X117132500Y-97255000D02*
X114507500Y-99880000D01*
X116607500Y-116305000D02*
X117132500Y-116305000D01*
X113982500Y-118930000D02*
X116607500Y-116305000D01*
X118740843Y-116305000D02*
X117132500Y-116305000D01*
X121035000Y-116305000D02*
X118740843Y-116305000D01*
X126342000Y-110998000D02*
X121035000Y-116305000D01*
X126492000Y-110998000D02*
X126342000Y-110998000D01*
X131064000Y-70098500D02*
X133032500Y-68130000D01*
X131064000Y-72900000D02*
X131064000Y-70098500D01*
X135657500Y-65505000D02*
X136182500Y-65505000D01*
X133032500Y-68130000D02*
X135657500Y-65505000D01*
X130810000Y-89402500D02*
X133032500Y-87180000D01*
X130810000Y-92202000D02*
X130810000Y-89402500D01*
X135657500Y-84555000D02*
X136182500Y-84555000D01*
X133032500Y-87180000D02*
X135657500Y-84555000D01*
X131064000Y-108198500D02*
X133032500Y-106230000D01*
X131064000Y-111000000D02*
X131064000Y-108198500D01*
X135657500Y-103605000D02*
X136182500Y-103605000D01*
X133032500Y-106230000D02*
X135657500Y-103605000D01*
X134874000Y-127121500D02*
X133032500Y-125280000D01*
X134874000Y-129796000D02*
X134874000Y-127121500D01*
X135657500Y-122655000D02*
X136182500Y-122655000D01*
X133032500Y-125280000D02*
X135657500Y-122655000D01*
X134770000Y-72900000D02*
X138430000Y-69240000D01*
X134620000Y-72900000D02*
X134770000Y-72900000D01*
X138430000Y-69240000D02*
X142392000Y-69240000D01*
X142392000Y-69240000D02*
X148336000Y-75184000D01*
X149791000Y-75184000D02*
X152082500Y-72892500D01*
X148336000Y-75184000D02*
X149791000Y-75184000D01*
X154707500Y-70267500D02*
X155232500Y-70267500D01*
X152082500Y-72892500D02*
X154707500Y-70267500D01*
X150045000Y-93980000D02*
X152082500Y-91942500D01*
X147828000Y-93980000D02*
X150045000Y-93980000D01*
X142240000Y-88392000D02*
X147828000Y-93980000D01*
X138490000Y-88392000D02*
X142240000Y-88392000D01*
X135382000Y-92204000D02*
X135382000Y-91500000D01*
X135382000Y-91500000D02*
X138490000Y-88392000D01*
X154707500Y-89317500D02*
X155232500Y-89317500D01*
X152082500Y-91942500D02*
X154707500Y-89317500D01*
X150045000Y-113030000D02*
X152082500Y-110992500D01*
X148336000Y-113030000D02*
X150045000Y-113030000D01*
X142748000Y-107442000D02*
X148336000Y-113030000D01*
X136906000Y-107442000D02*
X142748000Y-107442000D01*
X135128000Y-111000000D02*
X135128000Y-109220000D01*
X135128000Y-109220000D02*
X136906000Y-107442000D01*
X154707500Y-108367500D02*
X155232500Y-108367500D01*
X152082500Y-110992500D02*
X154707500Y-108367500D01*
X137160000Y-129794000D02*
X143002000Y-129794000D01*
X143002000Y-129794000D02*
X146558000Y-133350000D01*
X148775000Y-133350000D02*
X152082500Y-130042500D01*
X146558000Y-133350000D02*
X148775000Y-133350000D01*
X154707500Y-127417500D02*
X155232500Y-127417500D01*
X152082500Y-130042500D02*
X154707500Y-127417500D01*
X136906000Y-72194000D02*
X139250000Y-69850000D01*
X136906000Y-72898000D02*
X136906000Y-72194000D01*
X139250000Y-69850000D02*
X142359934Y-69850000D01*
X148147943Y-75638010D02*
X161089990Y-75638010D01*
X142359934Y-69850000D02*
X148147943Y-75638010D01*
X161089990Y-75638010D02*
X166477980Y-81026000D01*
X169349000Y-81026000D02*
X171132500Y-79242500D01*
X166477980Y-81026000D02*
X169349000Y-81026000D01*
X171657500Y-79242500D02*
X171132500Y-79242500D01*
X174282500Y-76617500D02*
X171657500Y-79242500D01*
X169349000Y-100076000D02*
X171132500Y-98292500D01*
X166878000Y-100076000D02*
X169349000Y-100076000D01*
X137668000Y-91500000D02*
X140014000Y-89154000D01*
X137668000Y-92204000D02*
X137668000Y-91500000D01*
X140014000Y-89154000D02*
X142359934Y-89154000D01*
X142359934Y-89154000D02*
X147639943Y-94434010D01*
X147639943Y-94434010D02*
X161236010Y-94434010D01*
X161236010Y-94434010D02*
X166878000Y-100076000D01*
X173757500Y-95667500D02*
X174282500Y-95667500D01*
X171132500Y-98292500D02*
X173757500Y-95667500D01*
X142748000Y-108204000D02*
X148028010Y-113484010D01*
X137414000Y-110998000D02*
X137564000Y-110998000D01*
X137564000Y-110998000D02*
X140358000Y-108204000D01*
X148028010Y-113484010D02*
X160728010Y-113484010D01*
X160728010Y-113484010D02*
X166624000Y-119380000D01*
X140358000Y-108204000D02*
X142748000Y-108204000D01*
X169095000Y-119380000D02*
X171132500Y-117342500D01*
X166624000Y-119380000D02*
X169095000Y-119380000D01*
X173757500Y-114717500D02*
X174282500Y-114717500D01*
X171132500Y-117342500D02*
X173757500Y-114717500D01*
X188272000Y-77978000D02*
X190182500Y-76067500D01*
X166289923Y-81480010D02*
X175313990Y-81480010D01*
X139192000Y-72194000D02*
X140970000Y-70416000D01*
X175313990Y-81480010D02*
X178816000Y-77978000D01*
X139192000Y-72898000D02*
X139192000Y-72194000D01*
X140970000Y-70416000D02*
X142283868Y-70416000D01*
X142283868Y-70416000D02*
X147959886Y-76092020D01*
X178816000Y-77978000D02*
X188272000Y-77978000D01*
X147959886Y-76092020D02*
X160901934Y-76092020D01*
X160901934Y-76092020D02*
X166289923Y-81480010D01*
X192807500Y-73442500D02*
X193332500Y-73442500D01*
X190182500Y-76067500D02*
X192807500Y-73442500D01*
X188780000Y-96520000D02*
X190182500Y-95117500D01*
X175567990Y-100530010D02*
X179578000Y-96520000D01*
X139954000Y-91498000D02*
X141282000Y-90170000D01*
X166570010Y-100530010D02*
X175567990Y-100530010D01*
X139954000Y-92202000D02*
X139954000Y-91498000D01*
X179578000Y-96520000D02*
X188780000Y-96520000D01*
X141282000Y-90170000D02*
X142733868Y-90170000D01*
X142733868Y-90170000D02*
X147451886Y-94888020D01*
X147451886Y-94888020D02*
X160928020Y-94888020D01*
X160928020Y-94888020D02*
X166570010Y-100530010D01*
X192807500Y-92492500D02*
X193332500Y-92492500D01*
X190182500Y-95117500D02*
X192807500Y-92492500D01*
X139850000Y-110998000D02*
X141628000Y-109220000D01*
X139700000Y-110998000D02*
X139850000Y-110998000D01*
X141628000Y-109220000D02*
X143002000Y-109220000D01*
X143002000Y-109220000D02*
X147828000Y-114046000D01*
X147828000Y-114046000D02*
X160274000Y-114046000D01*
X166062010Y-119834010D02*
X176075990Y-119834010D01*
X160274000Y-114046000D02*
X166062010Y-119834010D01*
X176075990Y-119834010D02*
X180340000Y-115570000D01*
X188780000Y-115570000D02*
X190182500Y-114167500D01*
X180340000Y-115570000D02*
X188780000Y-115570000D01*
X192807500Y-111542500D02*
X193332500Y-111542500D01*
X190182500Y-114167500D02*
X192807500Y-111542500D01*
D30*
X150498000Y-56896000D02*
X150244000Y-57150000D01*
X152146000Y-56896000D02*
X150498000Y-56896000D01*
D29*
X94281518Y-147621518D02*
X94281518Y-145515300D01*
X97790000Y-148336000D02*
X94996000Y-148336000D01*
X100757097Y-130092801D02*
X100757097Y-131294882D01*
X102616000Y-133153785D02*
X102616000Y-144526000D01*
X102616000Y-144526000D02*
X100076000Y-147066000D01*
X94996000Y-148336000D02*
X94281518Y-147621518D01*
X100076000Y-147066000D02*
X99060000Y-147066000D01*
X99060000Y-147066000D02*
X97790000Y-148336000D01*
X91992737Y-145515300D02*
X91619091Y-145141654D01*
X94281518Y-145515300D02*
X91992737Y-145515300D01*
X102460107Y-133118130D02*
X102460107Y-132997893D01*
X98251447Y-137326790D02*
X102460107Y-133118130D01*
X100757097Y-131294882D02*
X102460107Y-132997893D01*
X102460107Y-132997893D02*
X102616000Y-133153785D01*
X115646000Y-52336000D02*
X116078000Y-51904000D01*
X115646000Y-53340000D02*
X115646000Y-52336000D01*
X98044000Y-50546000D02*
X103378000Y-50546000D01*
X103378000Y-50546000D02*
X104648000Y-51816000D01*
X104648000Y-51816000D02*
X105918000Y-51816000D01*
X112425164Y-140219612D02*
X112798810Y-140593258D01*
X110136383Y-140219612D02*
X112425164Y-140219612D01*
X110846000Y-65744000D02*
X111252000Y-66150000D01*
X110846000Y-64740000D02*
X110846000Y-65744000D01*
X111252000Y-66150000D02*
X111252000Y-68072000D01*
X110046000Y-65215000D02*
X110236000Y-65405000D01*
X110046000Y-64740000D02*
X110046000Y-65215000D01*
X110236000Y-65405000D02*
X110236000Y-66802000D01*
X111646000Y-65744000D02*
X112014000Y-66112000D01*
X111646000Y-64740000D02*
X111646000Y-65744000D01*
X112014000Y-66112000D02*
X112014000Y-67310000D01*
X113937999Y-71046999D02*
X128343001Y-71046999D01*
X113538000Y-70647000D02*
X113937999Y-71046999D01*
X128343001Y-71046999D02*
X129032000Y-70358000D01*
X146082501Y-69792500D02*
X147082500Y-70792499D01*
X145075991Y-68785990D02*
X146082501Y-69792500D01*
X137208010Y-68785990D02*
X145075991Y-68785990D01*
X135636000Y-70358000D02*
X137208010Y-68785990D01*
X157668057Y-61267990D02*
X157934010Y-61533944D01*
X142174056Y-61267990D02*
X157668057Y-61267990D01*
X119746000Y-56640000D02*
X137546066Y-56640000D01*
X137546066Y-56640000D02*
X142174056Y-61267990D01*
X159392066Y-62992000D02*
X163830000Y-62992000D01*
X157934010Y-61533944D02*
X159392066Y-62992000D01*
X137704000Y-57440000D02*
X119746000Y-57440000D01*
X141986000Y-61722000D02*
X137704000Y-57440000D01*
X157480000Y-61722000D02*
X141986000Y-61722000D01*
X183134000Y-65024000D02*
X160782000Y-65024000D01*
X160782000Y-65024000D02*
X157480000Y-61722000D01*
X151288750Y-53181250D02*
X151384000Y-53086000D01*
X149512500Y-53181250D02*
X151288750Y-53181250D01*
X116446000Y-64740000D02*
X116446000Y-68186000D01*
X116446000Y-68186000D02*
X116446000Y-68466000D01*
X116446000Y-68466000D02*
X116325933Y-68586067D01*
X124605999Y-55031963D02*
X124206000Y-55431962D01*
X124605999Y-54972001D02*
X124605999Y-55031963D01*
X127000000Y-52578000D02*
X124605999Y-54972001D01*
X140208000Y-52578000D02*
X127000000Y-52578000D01*
X147637500Y-53181250D02*
X140811250Y-53181250D01*
X140811250Y-53181250D02*
X140208000Y-52578000D01*
X149512500Y-50800000D02*
X150646572Y-50800000D01*
X150646572Y-50800000D02*
X151384000Y-50800000D01*
X115646000Y-65744000D02*
X115570000Y-65820000D01*
X115646000Y-64740000D02*
X115646000Y-65744000D01*
X115570000Y-65820000D02*
X115570000Y-67564000D01*
X142748000Y-50800000D02*
X147637500Y-50800000D01*
X141478000Y-50800000D02*
X142748000Y-50800000D01*
X140154010Y-52123990D02*
X141478000Y-50800000D01*
X126438010Y-52123990D02*
X140154010Y-52123990D01*
X123190000Y-55372000D02*
X126438010Y-52123990D01*
X102616000Y-65532000D02*
X103886000Y-65532000D01*
X107178000Y-62240000D02*
X108346000Y-62240000D01*
X103886000Y-65532000D02*
X107178000Y-62240000D01*
X118188500Y-53197500D02*
X118046000Y-53340000D01*
X118188500Y-50546000D02*
X118188500Y-53197500D01*
X108346000Y-58240000D02*
X106246000Y-58240000D01*
X106246000Y-58240000D02*
X104648000Y-56642000D01*
X104648000Y-56642000D02*
X104648000Y-52832000D01*
X97372000Y-51308000D02*
X96178000Y-52502000D01*
X103124000Y-51308000D02*
X104648000Y-52832000D01*
X97372000Y-51308000D02*
X103124000Y-51308000D01*
D30*
X147444000Y-57150000D02*
X143510000Y-57150000D01*
X110846000Y-53340000D02*
X110846000Y-51918000D01*
X110846000Y-51918000D02*
X109728000Y-50800000D01*
X119746000Y-55040000D02*
X121490000Y-55040000D01*
X121490000Y-55040000D02*
X122174000Y-54356000D01*
X107215000Y-61440000D02*
X107187000Y-61468000D01*
X108346000Y-61440000D02*
X107215000Y-61440000D01*
X107187000Y-61468000D02*
X105664000Y-61468000D01*
X120877000Y-63040000D02*
X120925000Y-62992000D01*
X119746000Y-63040000D02*
X120877000Y-63040000D01*
X120925000Y-62992000D02*
X122174000Y-62992000D01*
X117246000Y-64740000D02*
X117246000Y-66954000D01*
X129286000Y-50546000D02*
X131475000Y-50546000D01*
X109220000Y-50292000D02*
X109728000Y-50800000D01*
X103886000Y-63246000D02*
X102537500Y-63246000D01*
X105664000Y-61468000D02*
X103886000Y-63246000D01*
X100487000Y-65278000D02*
X100741000Y-65532000D01*
X99060000Y-65278000D02*
X100487000Y-65278000D01*
X110236000Y-68891685D02*
X110236000Y-69088000D01*
X110236000Y-68326000D02*
X110236000Y-68891685D01*
X110236000Y-69088000D02*
X108712000Y-69088000D01*
X117246000Y-67208000D02*
X118872000Y-68834000D01*
X117246000Y-66954000D02*
X117246000Y-67208000D01*
X129286000Y-50546000D02*
X123190000Y-50546000D01*
X122174000Y-51562000D02*
X122174000Y-54356000D01*
X123190000Y-50546000D02*
X122174000Y-51562000D01*
X113246000Y-65871000D02*
X113246000Y-64740000D01*
X113246000Y-67275020D02*
X113246000Y-65871000D01*
X111433020Y-69088000D02*
X113246000Y-67275020D01*
X110236000Y-69088000D02*
X111433020Y-69088000D01*
D31*
X107793000Y-50292000D02*
X109220000Y-50292000D01*
D29*
X122919399Y-131397453D02*
X122069400Y-132247452D01*
X125299853Y-129016999D02*
X122919399Y-131397453D01*
X132512999Y-129016999D02*
X125299853Y-129016999D01*
X132588000Y-129092000D02*
X132512999Y-129016999D01*
X132588000Y-129796000D02*
X132588000Y-129092000D01*
X127633704Y-129794000D02*
X122726801Y-134700903D01*
X119824577Y-137603127D02*
X117872799Y-137603127D01*
X122726801Y-134700903D02*
X119824577Y-137603127D01*
X115509532Y-139966394D02*
X115509532Y-140953962D01*
X117872799Y-137603127D02*
X115509532Y-139966394D01*
X127635704Y-129796000D02*
X129794000Y-129796000D01*
X127633704Y-129794000D02*
X127635704Y-129796000D01*
G36*
X118237000Y-63119000D02*
G01*
X110109000Y-63119000D01*
X110109000Y-54991000D01*
X118237000Y-54991000D01*
X118237000Y-63119000D01*
X118237000Y-63119000D01*
G37*
X118237000Y-63119000D02*
X110109000Y-63119000D01*
X110109000Y-54991000D01*
X118237000Y-54991000D01*
X118237000Y-63119000D01*
M02*
