M48
; DRILL file {KiCad (5.1.4)-1} date 10/17/2021 8:40:16 PM
; FORMAT={-:-/ absolute / inch / decimal}
; #@! TF.CreationDate,2021-10-17T20:40:16-04:00
; #@! TF.GenerationSoftware,Kicad,Pcbnew,(5.1.4)-1
; #@! TF.FileFunction,NonPlated,1,2,NPTH
FMAT,2
INCH
T1C0.0689
T2C0.1570
%
G90
G05
T1
X5.7875Y-2.6375
X6.1875Y-2.6375
X5.7875Y-3.3875
X6.1875Y-3.3875
X3.5375Y-4.2625
X3.9375Y-4.2625
X4.2943Y-5.3768
X4.6807Y-5.2732
X7.2875Y-4.2625
X7.6875Y-4.2625
X5.0375Y-3.2
X5.4375Y-3.2
X5.0375Y-4.7
X5.4375Y-4.7
X3.5443Y-5.4893
X3.9307Y-5.3857
X5.7875Y-4.8875
X6.1875Y-4.8875
X7.2875Y-3.5125
X7.6875Y-3.5125
X7.2875Y-2.7625
X7.6875Y-2.7625
X6.5375Y-3.6375
X6.9375Y-3.6375
X6.5375Y-4.3875
X6.9375Y-4.3875
X3.5375Y-3.5125
X3.9375Y-3.5125
X4.2875Y-2.95
X4.6875Y-2.95
X5.0375Y-3.95
X5.4375Y-3.95
X5.0375Y-2.45
X5.4375Y-2.45
X4.2875Y-3.7
X4.6875Y-3.7
X6.5375Y-2.8875
X6.9375Y-2.8875
X5.7875Y-4.1375
X6.1875Y-4.1375
X3.5375Y-2.7625
X3.9375Y-2.7625
X4.2875Y-4.45
X4.6875Y-4.45
T2
X4.4875Y-4.45
X5.9875Y-2.6375
X5.9875Y-3.3875
X3.7375Y-4.2625
X4.4875Y-5.325
X7.4875Y-4.2625
X5.2375Y-3.2
X5.2375Y-4.7
X3.7375Y-5.4375
X5.9875Y-4.8875
X7.4875Y-3.5125
X7.4875Y-2.7625
X6.7375Y-3.6375
X6.7375Y-4.3875
X3.7375Y-3.5125
X4.4875Y-2.95
X5.2375Y-3.95
X5.2375Y-2.45
X4.4875Y-3.7
X6.7375Y-2.8875
X5.9875Y-4.1375
X3.7375Y-2.7625
T0
M30
