G04 #@! TF.GenerationSoftware,KiCad,Pcbnew,(5.1.4)-1*
G04 #@! TF.CreationDate,2021-11-10T20:59:29-05:00*
G04 #@! TF.ProjectId,a44key-pcb,6134346b-6579-42d7-9063-622e6b696361,rev?*
G04 #@! TF.SameCoordinates,Original*
G04 #@! TF.FileFunction,Legend,Bot*
G04 #@! TF.FilePolarity,Positive*
%FSLAX46Y46*%
G04 Gerber Fmt 4.6, Leading zero omitted, Abs format (unit mm)*
G04 Created by KiCad (PCBNEW (5.1.4)-1) date 2021-11-10 20:59:29*
%MOMM*%
%LPD*%
G04 APERTURE LIST*
%ADD10C,0.120000*%
%ADD11C,0.150000*%
%ADD12C,0.889400*%
%ADD13C,2.102000*%
%ADD14C,4.089800*%
%ADD15O,2.277000X1.852000*%
%ADD16C,2.352000*%
%ADD17C,2.352000*%
%ADD18O,5.202000X1.602000*%
%ADD19O,0.602000X4.202000*%
%ADD20O,5.202000X0.602000*%
%ADD21C,1.402000*%
%ADD22R,1.802000X1.802000*%
%ADD23O,1.802000X1.802000*%
%ADD24C,0.100000*%
%ADD25C,1.077000*%
%ADD26C,1.802000*%
%ADD27C,1.802000*%
%ADD28C,0.602000*%
%ADD29C,0.602000*%
%ADD30C,1.602000*%
%ADD31C,1.602000*%
%ADD32C,1.852000*%
%ADD33C,1.852000*%
%ADD34O,2.802000X1.802000*%
%ADD35C,1.202000*%
%ADD36C,1.752000*%
%ADD37R,1.752000X1.752000*%
%ADD38R,1.302000X1.002000*%
%ADD39R,1.902000X2.202000*%
%ADD40R,1.602000X0.652000*%
%ADD41R,0.652000X1.602000*%
%ADD42C,1.352000*%
G04 APERTURE END LIST*
D10*
X176935167Y-125808215D02*
X176935167Y-123148215D01*
X184615167Y-125808215D02*
X176935167Y-125808215D01*
X184615167Y-123148215D02*
X176935167Y-123148215D01*
X184615167Y-125808215D02*
X184615167Y-123148215D01*
X185885167Y-125808215D02*
X187215167Y-125808215D01*
X187215167Y-125808215D02*
X187215167Y-124478215D01*
X119550922Y-68124000D02*
X120068078Y-68124000D01*
X119550922Y-69544000D02*
X120068078Y-69544000D01*
X107292911Y-129718452D02*
X106948681Y-128433771D01*
X106008229Y-130062681D02*
X107292911Y-129718452D01*
X104781504Y-130391382D02*
X104093045Y-127822019D01*
X104093045Y-127822019D02*
X96674735Y-129809749D01*
X104781504Y-130391382D02*
X97363193Y-132379112D01*
X97363193Y-132379112D02*
X96674735Y-129809749D01*
X159543750Y-55403750D02*
X159543750Y-47783750D01*
X159543750Y-47783750D02*
X159543750Y-55403750D01*
X159543750Y-47783750D02*
X159543750Y-55403750D01*
X101858578Y-54304000D02*
X101341422Y-54304000D01*
X101858578Y-52884000D02*
X101341422Y-52884000D01*
X119384578Y-51256000D02*
X118867422Y-51256000D01*
X119384578Y-49836000D02*
X118867422Y-49836000D01*
X133334000Y-133696000D02*
X133334000Y-129796000D01*
X131334000Y-133696000D02*
X131334000Y-129796000D01*
X133334000Y-133696000D02*
X131334000Y-133696000D01*
X127238000Y-114898000D02*
X127238000Y-110998000D01*
X125238000Y-114898000D02*
X125238000Y-110998000D01*
X127238000Y-114898000D02*
X125238000Y-114898000D01*
X129778000Y-114900000D02*
X129778000Y-111000000D01*
X127778000Y-114900000D02*
X127778000Y-111000000D01*
X129778000Y-114900000D02*
X127778000Y-114900000D01*
X130794000Y-133696000D02*
X130794000Y-129796000D01*
X128794000Y-133696000D02*
X128794000Y-129796000D01*
X130794000Y-133696000D02*
X128794000Y-133696000D01*
X135874000Y-133696000D02*
X135874000Y-129796000D01*
X133874000Y-133696000D02*
X133874000Y-129796000D01*
X135874000Y-133696000D02*
X133874000Y-133696000D01*
X138414000Y-114898000D02*
X138414000Y-110998000D01*
X136414000Y-114898000D02*
X136414000Y-110998000D01*
X138414000Y-114898000D02*
X136414000Y-114898000D01*
X140954000Y-114898000D02*
X140954000Y-110998000D01*
X138954000Y-114898000D02*
X138954000Y-110998000D01*
X140954000Y-114898000D02*
X138954000Y-114898000D01*
X138414000Y-133694000D02*
X138414000Y-129794000D01*
X136414000Y-133694000D02*
X136414000Y-129794000D01*
X138414000Y-133694000D02*
X136414000Y-133694000D01*
X108033078Y-69798000D02*
X107515922Y-69798000D01*
X108033078Y-68378000D02*
X107515922Y-68378000D01*
X107114078Y-51002000D02*
X106596922Y-51002000D01*
X107114078Y-49582000D02*
X106596922Y-49582000D01*
X101858578Y-62536000D02*
X101341422Y-62536000D01*
X101858578Y-63956000D02*
X101341422Y-63956000D01*
X132153922Y-49836000D02*
X132671078Y-49836000D01*
X132153922Y-51256000D02*
X132671078Y-51256000D01*
X148316422Y-52471250D02*
X148833578Y-52471250D01*
X148316422Y-53891250D02*
X148833578Y-53891250D01*
X103716000Y-55646000D02*
X103716000Y-61046000D01*
X99216000Y-55646000D02*
X103716000Y-55646000D01*
D11*
X118646000Y-64215000D02*
X118646000Y-65490000D01*
X119221000Y-53865000D02*
X119221000Y-54540000D01*
X108871000Y-53865000D02*
X108871000Y-54540000D01*
X108871000Y-64215000D02*
X108871000Y-63540000D01*
X119221000Y-64215000D02*
X119221000Y-63540000D01*
X108871000Y-64215000D02*
X109546000Y-64215000D01*
X108871000Y-53865000D02*
X109546000Y-53865000D01*
X119221000Y-53865000D02*
X118546000Y-53865000D01*
X119221000Y-64215000D02*
X118646000Y-64215000D01*
D10*
X148316422Y-50090000D02*
X148833578Y-50090000D01*
X148316422Y-51510000D02*
X148833578Y-51510000D01*
X101419922Y-64822000D02*
X101937078Y-64822000D01*
X101419922Y-66242000D02*
X101937078Y-66242000D01*
X148241936Y-56240000D02*
X149446064Y-56240000D01*
X148241936Y-58060000D02*
X149446064Y-58060000D01*
X113708922Y-68378000D02*
X114226078Y-68378000D01*
X113708922Y-69798000D02*
X114226078Y-69798000D01*
X96064000Y-58678578D02*
X96064000Y-58161422D01*
X97484000Y-58678578D02*
X97484000Y-58161422D01*
X141208000Y-96102000D02*
X141208000Y-92202000D01*
X139208000Y-96102000D02*
X139208000Y-92202000D01*
X141208000Y-96102000D02*
X139208000Y-96102000D01*
X140446000Y-76798000D02*
X140446000Y-72898000D01*
X138446000Y-76798000D02*
X138446000Y-72898000D01*
X140446000Y-76798000D02*
X138446000Y-76798000D01*
X138668000Y-96104000D02*
X138668000Y-92204000D01*
X136668000Y-96104000D02*
X136668000Y-92204000D01*
X138668000Y-96104000D02*
X136668000Y-96104000D01*
X137906000Y-76798000D02*
X137906000Y-72898000D01*
X135906000Y-76798000D02*
X135906000Y-72898000D01*
X137906000Y-76798000D02*
X135906000Y-76798000D01*
X135874000Y-114900000D02*
X135874000Y-111000000D01*
X133874000Y-114900000D02*
X133874000Y-111000000D01*
X135874000Y-114900000D02*
X133874000Y-114900000D01*
X136128000Y-96104000D02*
X136128000Y-92204000D01*
X134128000Y-96104000D02*
X134128000Y-92204000D01*
X136128000Y-96104000D02*
X134128000Y-96104000D01*
X135366000Y-76800000D02*
X135366000Y-72900000D01*
X133366000Y-76800000D02*
X133366000Y-72900000D01*
X135366000Y-76800000D02*
X133366000Y-76800000D01*
X132318000Y-114898000D02*
X132318000Y-110998000D01*
X130318000Y-114898000D02*
X130318000Y-110998000D01*
X132318000Y-114898000D02*
X130318000Y-114898000D01*
X132064000Y-96102000D02*
X132064000Y-92202000D01*
X130064000Y-96102000D02*
X130064000Y-92202000D01*
X132064000Y-96102000D02*
X130064000Y-96102000D01*
X132318000Y-76800000D02*
X132318000Y-72900000D01*
X130318000Y-76800000D02*
X130318000Y-72900000D01*
X132318000Y-76800000D02*
X130318000Y-76800000D01*
X126984000Y-96102000D02*
X126984000Y-92202000D01*
X124984000Y-96102000D02*
X124984000Y-92202000D01*
X126984000Y-96102000D02*
X124984000Y-96102000D01*
X129778000Y-76798000D02*
X129778000Y-72898000D01*
X127778000Y-76798000D02*
X127778000Y-72898000D01*
X129778000Y-76798000D02*
X127778000Y-76798000D01*
X129524000Y-96102000D02*
X129524000Y-92202000D01*
X127524000Y-96102000D02*
X127524000Y-92202000D01*
X129524000Y-96102000D02*
X127524000Y-96102000D01*
X127238000Y-76798000D02*
X127238000Y-72898000D01*
X125238000Y-76798000D02*
X125238000Y-72898000D01*
X127238000Y-76798000D02*
X125238000Y-76798000D01*
D11*
X187667547Y-124144881D02*
X188381833Y-124144881D01*
X188524690Y-124097262D01*
X188619928Y-124002024D01*
X188667547Y-123859167D01*
X188667547Y-123763929D01*
X187762786Y-124573453D02*
X187715167Y-124621072D01*
X187667547Y-124716310D01*
X187667547Y-124954405D01*
X187715167Y-125049643D01*
X187762786Y-125097262D01*
X187858024Y-125144881D01*
X187953262Y-125144881D01*
X188096119Y-125097262D01*
X188667547Y-124525834D01*
X188667547Y-125144881D01*
X119976166Y-70841142D02*
X120023785Y-70888761D01*
X120166642Y-70936380D01*
X120261880Y-70936380D01*
X120404738Y-70888761D01*
X120499976Y-70793523D01*
X120547595Y-70698285D01*
X120595214Y-70507809D01*
X120595214Y-70364952D01*
X120547595Y-70174476D01*
X120499976Y-70079238D01*
X120404738Y-69984000D01*
X120261880Y-69936380D01*
X120166642Y-69936380D01*
X120023785Y-69984000D01*
X119976166Y-70031619D01*
X119404738Y-70364952D02*
X119499976Y-70317333D01*
X119547595Y-70269714D01*
X119595214Y-70174476D01*
X119595214Y-70126857D01*
X119547595Y-70031619D01*
X119499976Y-69984000D01*
X119404738Y-69936380D01*
X119214261Y-69936380D01*
X119119023Y-69984000D01*
X119071404Y-70031619D01*
X119023785Y-70126857D01*
X119023785Y-70174476D01*
X119071404Y-70269714D01*
X119119023Y-70317333D01*
X119214261Y-70364952D01*
X119404738Y-70364952D01*
X119499976Y-70412571D01*
X119547595Y-70460190D01*
X119595214Y-70555428D01*
X119595214Y-70745904D01*
X119547595Y-70841142D01*
X119499976Y-70888761D01*
X119404738Y-70936380D01*
X119214261Y-70936380D01*
X119119023Y-70888761D01*
X119071404Y-70841142D01*
X119023785Y-70745904D01*
X119023785Y-70555428D01*
X119071404Y-70460190D01*
X119119023Y-70412571D01*
X119214261Y-70364952D01*
X108529839Y-128355193D02*
X107839892Y-128540063D01*
X107714227Y-128623034D01*
X107646884Y-128739676D01*
X107637861Y-128889990D01*
X107662511Y-128981983D01*
X108326924Y-127965874D02*
X108360595Y-127907553D01*
X108381942Y-127803235D01*
X108320319Y-127573253D01*
X108249673Y-127493584D01*
X108191352Y-127459913D01*
X108087034Y-127438566D01*
X107995041Y-127463215D01*
X107869376Y-127546186D01*
X107465315Y-128246040D01*
X107305094Y-127648086D01*
X101766666Y-52301142D02*
X101814285Y-52348761D01*
X101957142Y-52396380D01*
X102052380Y-52396380D01*
X102195238Y-52348761D01*
X102290476Y-52253523D01*
X102338095Y-52158285D01*
X102385714Y-51967809D01*
X102385714Y-51824952D01*
X102338095Y-51634476D01*
X102290476Y-51539238D01*
X102195238Y-51444000D01*
X102052380Y-51396380D01*
X101957142Y-51396380D01*
X101814285Y-51444000D01*
X101766666Y-51491619D01*
X101385714Y-51491619D02*
X101338095Y-51444000D01*
X101242857Y-51396380D01*
X101004761Y-51396380D01*
X100909523Y-51444000D01*
X100861904Y-51491619D01*
X100814285Y-51586857D01*
X100814285Y-51682095D01*
X100861904Y-51824952D01*
X101433333Y-52396380D01*
X100814285Y-52396380D01*
X119292666Y-49348380D02*
X119626000Y-48872190D01*
X119864095Y-49348380D02*
X119864095Y-48348380D01*
X119483142Y-48348380D01*
X119387904Y-48396000D01*
X119340285Y-48443619D01*
X119292666Y-48538857D01*
X119292666Y-48681714D01*
X119340285Y-48776952D01*
X119387904Y-48824571D01*
X119483142Y-48872190D01*
X119864095Y-48872190D01*
X118435523Y-48681714D02*
X118435523Y-49348380D01*
X118673619Y-48300761D02*
X118911714Y-49015047D01*
X118292666Y-49015047D01*
X134786380Y-130707904D02*
X133786380Y-130707904D01*
X133786380Y-130946000D01*
X133834000Y-131088857D01*
X133929238Y-131184095D01*
X134024476Y-131231714D01*
X134214952Y-131279333D01*
X134357809Y-131279333D01*
X134548285Y-131231714D01*
X134643523Y-131184095D01*
X134738761Y-131088857D01*
X134786380Y-130946000D01*
X134786380Y-130707904D01*
X134119714Y-132136476D02*
X134786380Y-132136476D01*
X133738761Y-131898380D02*
X134453047Y-131660285D01*
X134453047Y-132279333D01*
X128690380Y-111909904D02*
X127690380Y-111909904D01*
X127690380Y-112148000D01*
X127738000Y-112290857D01*
X127833238Y-112386095D01*
X127928476Y-112433714D01*
X128118952Y-112481333D01*
X128261809Y-112481333D01*
X128452285Y-112433714D01*
X128547523Y-112386095D01*
X128642761Y-112290857D01*
X128690380Y-112148000D01*
X128690380Y-111909904D01*
X127690380Y-112814666D02*
X127690380Y-113481333D01*
X128690380Y-113052761D01*
X131230380Y-111911904D02*
X130230380Y-111911904D01*
X130230380Y-112150000D01*
X130278000Y-112292857D01*
X130373238Y-112388095D01*
X130468476Y-112435714D01*
X130658952Y-112483333D01*
X130801809Y-112483333D01*
X130992285Y-112435714D01*
X131087523Y-112388095D01*
X131182761Y-112292857D01*
X131230380Y-112150000D01*
X131230380Y-111911904D01*
X130230380Y-112816666D02*
X130230380Y-113435714D01*
X130611333Y-113102380D01*
X130611333Y-113245238D01*
X130658952Y-113340476D01*
X130706571Y-113388095D01*
X130801809Y-113435714D01*
X131039904Y-113435714D01*
X131135142Y-113388095D01*
X131182761Y-113340476D01*
X131230380Y-113245238D01*
X131230380Y-112959523D01*
X131182761Y-112864285D01*
X131135142Y-112816666D01*
X132246380Y-130707904D02*
X131246380Y-130707904D01*
X131246380Y-130946000D01*
X131294000Y-131088857D01*
X131389238Y-131184095D01*
X131484476Y-131231714D01*
X131674952Y-131279333D01*
X131817809Y-131279333D01*
X132008285Y-131231714D01*
X132103523Y-131184095D01*
X132198761Y-131088857D01*
X132246380Y-130946000D01*
X132246380Y-130707904D01*
X131674952Y-131850761D02*
X131627333Y-131755523D01*
X131579714Y-131707904D01*
X131484476Y-131660285D01*
X131436857Y-131660285D01*
X131341619Y-131707904D01*
X131294000Y-131755523D01*
X131246380Y-131850761D01*
X131246380Y-132041238D01*
X131294000Y-132136476D01*
X131341619Y-132184095D01*
X131436857Y-132231714D01*
X131484476Y-132231714D01*
X131579714Y-132184095D01*
X131627333Y-132136476D01*
X131674952Y-132041238D01*
X131674952Y-131850761D01*
X131722571Y-131755523D01*
X131770190Y-131707904D01*
X131865428Y-131660285D01*
X132055904Y-131660285D01*
X132151142Y-131707904D01*
X132198761Y-131755523D01*
X132246380Y-131850761D01*
X132246380Y-132041238D01*
X132198761Y-132136476D01*
X132151142Y-132184095D01*
X132055904Y-132231714D01*
X131865428Y-132231714D01*
X131770190Y-132184095D01*
X131722571Y-132136476D01*
X131674952Y-132041238D01*
X137326380Y-130231714D02*
X136326380Y-130231714D01*
X136326380Y-130469809D01*
X136374000Y-130612666D01*
X136469238Y-130707904D01*
X136564476Y-130755523D01*
X136754952Y-130803142D01*
X136897809Y-130803142D01*
X137088285Y-130755523D01*
X137183523Y-130707904D01*
X137278761Y-130612666D01*
X137326380Y-130469809D01*
X137326380Y-130231714D01*
X137326380Y-131755523D02*
X137326380Y-131184095D01*
X137326380Y-131469809D02*
X136326380Y-131469809D01*
X136469238Y-131374571D01*
X136564476Y-131279333D01*
X136612095Y-131184095D01*
X136421619Y-132136476D02*
X136374000Y-132184095D01*
X136326380Y-132279333D01*
X136326380Y-132517428D01*
X136374000Y-132612666D01*
X136421619Y-132660285D01*
X136516857Y-132707904D01*
X136612095Y-132707904D01*
X136754952Y-132660285D01*
X137326380Y-132088857D01*
X137326380Y-132707904D01*
X139866380Y-111433714D02*
X138866380Y-111433714D01*
X138866380Y-111671809D01*
X138914000Y-111814666D01*
X139009238Y-111909904D01*
X139104476Y-111957523D01*
X139294952Y-112005142D01*
X139437809Y-112005142D01*
X139628285Y-111957523D01*
X139723523Y-111909904D01*
X139818761Y-111814666D01*
X139866380Y-111671809D01*
X139866380Y-111433714D01*
X139866380Y-112957523D02*
X139866380Y-112386095D01*
X139866380Y-112671809D02*
X138866380Y-112671809D01*
X139009238Y-112576571D01*
X139104476Y-112481333D01*
X139152095Y-112386095D01*
X139866380Y-113433714D02*
X139866380Y-113624190D01*
X139818761Y-113719428D01*
X139771142Y-113767047D01*
X139628285Y-113862285D01*
X139437809Y-113909904D01*
X139056857Y-113909904D01*
X138961619Y-113862285D01*
X138914000Y-113814666D01*
X138866380Y-113719428D01*
X138866380Y-113528952D01*
X138914000Y-113433714D01*
X138961619Y-113386095D01*
X139056857Y-113338476D01*
X139294952Y-113338476D01*
X139390190Y-113386095D01*
X139437809Y-113433714D01*
X139485428Y-113528952D01*
X139485428Y-113719428D01*
X139437809Y-113814666D01*
X139390190Y-113862285D01*
X139294952Y-113909904D01*
X142406380Y-111433714D02*
X141406380Y-111433714D01*
X141406380Y-111671809D01*
X141454000Y-111814666D01*
X141549238Y-111909904D01*
X141644476Y-111957523D01*
X141834952Y-112005142D01*
X141977809Y-112005142D01*
X142168285Y-111957523D01*
X142263523Y-111909904D01*
X142358761Y-111814666D01*
X142406380Y-111671809D01*
X142406380Y-111433714D01*
X141501619Y-112386095D02*
X141454000Y-112433714D01*
X141406380Y-112528952D01*
X141406380Y-112767047D01*
X141454000Y-112862285D01*
X141501619Y-112909904D01*
X141596857Y-112957523D01*
X141692095Y-112957523D01*
X141834952Y-112909904D01*
X142406380Y-112338476D01*
X142406380Y-112957523D01*
X141501619Y-113338476D02*
X141454000Y-113386095D01*
X141406380Y-113481333D01*
X141406380Y-113719428D01*
X141454000Y-113814666D01*
X141501619Y-113862285D01*
X141596857Y-113909904D01*
X141692095Y-113909904D01*
X141834952Y-113862285D01*
X142406380Y-113290857D01*
X142406380Y-113909904D01*
X139866380Y-130229714D02*
X138866380Y-130229714D01*
X138866380Y-130467809D01*
X138914000Y-130610666D01*
X139009238Y-130705904D01*
X139104476Y-130753523D01*
X139294952Y-130801142D01*
X139437809Y-130801142D01*
X139628285Y-130753523D01*
X139723523Y-130705904D01*
X139818761Y-130610666D01*
X139866380Y-130467809D01*
X139866380Y-130229714D01*
X139866380Y-131753523D02*
X139866380Y-131182095D01*
X139866380Y-131467809D02*
X138866380Y-131467809D01*
X139009238Y-131372571D01*
X139104476Y-131277333D01*
X139152095Y-131182095D01*
X138866380Y-132610666D02*
X138866380Y-132420190D01*
X138914000Y-132324952D01*
X138961619Y-132277333D01*
X139104476Y-132182095D01*
X139294952Y-132134476D01*
X139675904Y-132134476D01*
X139771142Y-132182095D01*
X139818761Y-132229714D01*
X139866380Y-132324952D01*
X139866380Y-132515428D01*
X139818761Y-132610666D01*
X139771142Y-132658285D01*
X139675904Y-132705904D01*
X139437809Y-132705904D01*
X139342571Y-132658285D01*
X139294952Y-132610666D01*
X139247333Y-132515428D01*
X139247333Y-132324952D01*
X139294952Y-132229714D01*
X139342571Y-132182095D01*
X139437809Y-132134476D01*
X107941166Y-67795142D02*
X107988785Y-67842761D01*
X108131642Y-67890380D01*
X108226880Y-67890380D01*
X108369738Y-67842761D01*
X108464976Y-67747523D01*
X108512595Y-67652285D01*
X108560214Y-67461809D01*
X108560214Y-67318952D01*
X108512595Y-67128476D01*
X108464976Y-67033238D01*
X108369738Y-66938000D01*
X108226880Y-66890380D01*
X108131642Y-66890380D01*
X107988785Y-66938000D01*
X107941166Y-66985619D01*
X106988785Y-67890380D02*
X107560214Y-67890380D01*
X107274500Y-67890380D02*
X107274500Y-66890380D01*
X107369738Y-67033238D01*
X107464976Y-67128476D01*
X107560214Y-67176095D01*
X107022166Y-48999142D02*
X107069785Y-49046761D01*
X107212642Y-49094380D01*
X107307880Y-49094380D01*
X107450738Y-49046761D01*
X107545976Y-48951523D01*
X107593595Y-48856285D01*
X107641214Y-48665809D01*
X107641214Y-48522952D01*
X107593595Y-48332476D01*
X107545976Y-48237238D01*
X107450738Y-48142000D01*
X107307880Y-48094380D01*
X107212642Y-48094380D01*
X107069785Y-48142000D01*
X107022166Y-48189619D01*
X106165023Y-48427714D02*
X106165023Y-49094380D01*
X106403119Y-48046761D02*
X106641214Y-48761047D01*
X106022166Y-48761047D01*
X101766666Y-61953142D02*
X101814285Y-62000761D01*
X101957142Y-62048380D01*
X102052380Y-62048380D01*
X102195238Y-62000761D01*
X102290476Y-61905523D01*
X102338095Y-61810285D01*
X102385714Y-61619809D01*
X102385714Y-61476952D01*
X102338095Y-61286476D01*
X102290476Y-61191238D01*
X102195238Y-61096000D01*
X102052380Y-61048380D01*
X101957142Y-61048380D01*
X101814285Y-61096000D01*
X101766666Y-61143619D01*
X100861904Y-61048380D02*
X101338095Y-61048380D01*
X101385714Y-61524571D01*
X101338095Y-61476952D01*
X101242857Y-61429333D01*
X101004761Y-61429333D01*
X100909523Y-61476952D01*
X100861904Y-61524571D01*
X100814285Y-61619809D01*
X100814285Y-61857904D01*
X100861904Y-61953142D01*
X100909523Y-62000761D01*
X101004761Y-62048380D01*
X101242857Y-62048380D01*
X101338095Y-62000761D01*
X101385714Y-61953142D01*
X132579166Y-52553142D02*
X132626785Y-52600761D01*
X132769642Y-52648380D01*
X132864880Y-52648380D01*
X133007738Y-52600761D01*
X133102976Y-52505523D01*
X133150595Y-52410285D01*
X133198214Y-52219809D01*
X133198214Y-52076952D01*
X133150595Y-51886476D01*
X133102976Y-51791238D01*
X133007738Y-51696000D01*
X132864880Y-51648380D01*
X132769642Y-51648380D01*
X132626785Y-51696000D01*
X132579166Y-51743619D01*
X132245833Y-51648380D02*
X131579166Y-51648380D01*
X132007738Y-52648380D01*
X148741666Y-55283630D02*
X149075000Y-54807440D01*
X149313095Y-55283630D02*
X149313095Y-54283630D01*
X148932142Y-54283630D01*
X148836904Y-54331250D01*
X148789285Y-54378869D01*
X148741666Y-54474107D01*
X148741666Y-54616964D01*
X148789285Y-54712202D01*
X148836904Y-54759821D01*
X148932142Y-54807440D01*
X149313095Y-54807440D01*
X147789285Y-55283630D02*
X148360714Y-55283630D01*
X148075000Y-55283630D02*
X148075000Y-54283630D01*
X148170238Y-54426488D01*
X148265476Y-54521726D01*
X148360714Y-54569345D01*
X98392190Y-57869809D02*
X98868380Y-57869809D01*
X97868380Y-57536476D02*
X98392190Y-57869809D01*
X97868380Y-58203142D01*
X98868380Y-59060285D02*
X98868380Y-58488857D01*
X98868380Y-58774571D02*
X97868380Y-58774571D01*
X98011238Y-58679333D01*
X98106476Y-58584095D01*
X98154095Y-58488857D01*
X120948380Y-58278095D02*
X121757904Y-58278095D01*
X121853142Y-58325714D01*
X121900761Y-58373333D01*
X121948380Y-58468571D01*
X121948380Y-58659047D01*
X121900761Y-58754285D01*
X121853142Y-58801904D01*
X121757904Y-58849523D01*
X120948380Y-58849523D01*
X121948380Y-59849523D02*
X121948380Y-59278095D01*
X121948380Y-59563809D02*
X120948380Y-59563809D01*
X121091238Y-59468571D01*
X121186476Y-59373333D01*
X121234095Y-59278095D01*
X148741666Y-52902380D02*
X149075000Y-52426190D01*
X149313095Y-52902380D02*
X149313095Y-51902380D01*
X148932142Y-51902380D01*
X148836904Y-51950000D01*
X148789285Y-51997619D01*
X148741666Y-52092857D01*
X148741666Y-52235714D01*
X148789285Y-52330952D01*
X148836904Y-52378571D01*
X148932142Y-52426190D01*
X149313095Y-52426190D01*
X148360714Y-51997619D02*
X148313095Y-51950000D01*
X148217857Y-51902380D01*
X147979761Y-51902380D01*
X147884523Y-51950000D01*
X147836904Y-51997619D01*
X147789285Y-52092857D01*
X147789285Y-52188095D01*
X147836904Y-52330952D01*
X148408333Y-52902380D01*
X147789285Y-52902380D01*
X101845166Y-67634380D02*
X102178500Y-67158190D01*
X102416595Y-67634380D02*
X102416595Y-66634380D01*
X102035642Y-66634380D01*
X101940404Y-66682000D01*
X101892785Y-66729619D01*
X101845166Y-66824857D01*
X101845166Y-66967714D01*
X101892785Y-67062952D01*
X101940404Y-67110571D01*
X102035642Y-67158190D01*
X102416595Y-67158190D01*
X101511833Y-66634380D02*
X100892785Y-66634380D01*
X101226119Y-67015333D01*
X101083261Y-67015333D01*
X100988023Y-67062952D01*
X100940404Y-67110571D01*
X100892785Y-67205809D01*
X100892785Y-67443904D01*
X100940404Y-67539142D01*
X100988023Y-67586761D01*
X101083261Y-67634380D01*
X101368976Y-67634380D01*
X101464214Y-67586761D01*
X101511833Y-67539142D01*
X149177333Y-58898571D02*
X149510666Y-58898571D01*
X149510666Y-59422380D02*
X149510666Y-58422380D01*
X149034476Y-58422380D01*
X148129714Y-59422380D02*
X148701142Y-59422380D01*
X148415428Y-59422380D02*
X148415428Y-58422380D01*
X148510666Y-58565238D01*
X148605904Y-58660476D01*
X148701142Y-58708095D01*
X114134166Y-71095142D02*
X114181785Y-71142761D01*
X114324642Y-71190380D01*
X114419880Y-71190380D01*
X114562738Y-71142761D01*
X114657976Y-71047523D01*
X114705595Y-70952285D01*
X114753214Y-70761809D01*
X114753214Y-70618952D01*
X114705595Y-70428476D01*
X114657976Y-70333238D01*
X114562738Y-70238000D01*
X114419880Y-70190380D01*
X114324642Y-70190380D01*
X114181785Y-70238000D01*
X114134166Y-70285619D01*
X113277023Y-70190380D02*
X113467500Y-70190380D01*
X113562738Y-70238000D01*
X113610357Y-70285619D01*
X113705595Y-70428476D01*
X113753214Y-70618952D01*
X113753214Y-70999904D01*
X113705595Y-71095142D01*
X113657976Y-71142761D01*
X113562738Y-71190380D01*
X113372261Y-71190380D01*
X113277023Y-71142761D01*
X113229404Y-71095142D01*
X113181785Y-70999904D01*
X113181785Y-70761809D01*
X113229404Y-70666571D01*
X113277023Y-70618952D01*
X113372261Y-70571333D01*
X113562738Y-70571333D01*
X113657976Y-70618952D01*
X113705595Y-70666571D01*
X113753214Y-70761809D01*
X98781142Y-58253333D02*
X98828761Y-58205714D01*
X98876380Y-58062857D01*
X98876380Y-57967619D01*
X98828761Y-57824761D01*
X98733523Y-57729523D01*
X98638285Y-57681904D01*
X98447809Y-57634285D01*
X98304952Y-57634285D01*
X98114476Y-57681904D01*
X98019238Y-57729523D01*
X97924000Y-57824761D01*
X97876380Y-57967619D01*
X97876380Y-58062857D01*
X97924000Y-58205714D01*
X97971619Y-58253333D01*
X97876380Y-58586666D02*
X97876380Y-59205714D01*
X98257333Y-58872380D01*
X98257333Y-59015238D01*
X98304952Y-59110476D01*
X98352571Y-59158095D01*
X98447809Y-59205714D01*
X98685904Y-59205714D01*
X98781142Y-59158095D01*
X98828761Y-59110476D01*
X98876380Y-59015238D01*
X98876380Y-58729523D01*
X98828761Y-58634285D01*
X98781142Y-58586666D01*
X142660380Y-92637714D02*
X141660380Y-92637714D01*
X141660380Y-92875809D01*
X141708000Y-93018666D01*
X141803238Y-93113904D01*
X141898476Y-93161523D01*
X142088952Y-93209142D01*
X142231809Y-93209142D01*
X142422285Y-93161523D01*
X142517523Y-93113904D01*
X142612761Y-93018666D01*
X142660380Y-92875809D01*
X142660380Y-92637714D01*
X141755619Y-93590095D02*
X141708000Y-93637714D01*
X141660380Y-93732952D01*
X141660380Y-93971047D01*
X141708000Y-94066285D01*
X141755619Y-94113904D01*
X141850857Y-94161523D01*
X141946095Y-94161523D01*
X142088952Y-94113904D01*
X142660380Y-93542476D01*
X142660380Y-94161523D01*
X142660380Y-95113904D02*
X142660380Y-94542476D01*
X142660380Y-94828190D02*
X141660380Y-94828190D01*
X141803238Y-94732952D01*
X141898476Y-94637714D01*
X141946095Y-94542476D01*
X141898380Y-73333714D02*
X140898380Y-73333714D01*
X140898380Y-73571809D01*
X140946000Y-73714666D01*
X141041238Y-73809904D01*
X141136476Y-73857523D01*
X141326952Y-73905142D01*
X141469809Y-73905142D01*
X141660285Y-73857523D01*
X141755523Y-73809904D01*
X141850761Y-73714666D01*
X141898380Y-73571809D01*
X141898380Y-73333714D01*
X140993619Y-74286095D02*
X140946000Y-74333714D01*
X140898380Y-74428952D01*
X140898380Y-74667047D01*
X140946000Y-74762285D01*
X140993619Y-74809904D01*
X141088857Y-74857523D01*
X141184095Y-74857523D01*
X141326952Y-74809904D01*
X141898380Y-74238476D01*
X141898380Y-74857523D01*
X140898380Y-75476571D02*
X140898380Y-75571809D01*
X140946000Y-75667047D01*
X140993619Y-75714666D01*
X141088857Y-75762285D01*
X141279333Y-75809904D01*
X141517428Y-75809904D01*
X141707904Y-75762285D01*
X141803142Y-75714666D01*
X141850761Y-75667047D01*
X141898380Y-75571809D01*
X141898380Y-75476571D01*
X141850761Y-75381333D01*
X141803142Y-75333714D01*
X141707904Y-75286095D01*
X141517428Y-75238476D01*
X141279333Y-75238476D01*
X141088857Y-75286095D01*
X140993619Y-75333714D01*
X140946000Y-75381333D01*
X140898380Y-75476571D01*
X140120380Y-92639714D02*
X139120380Y-92639714D01*
X139120380Y-92877809D01*
X139168000Y-93020666D01*
X139263238Y-93115904D01*
X139358476Y-93163523D01*
X139548952Y-93211142D01*
X139691809Y-93211142D01*
X139882285Y-93163523D01*
X139977523Y-93115904D01*
X140072761Y-93020666D01*
X140120380Y-92877809D01*
X140120380Y-92639714D01*
X140120380Y-94163523D02*
X140120380Y-93592095D01*
X140120380Y-93877809D02*
X139120380Y-93877809D01*
X139263238Y-93782571D01*
X139358476Y-93687333D01*
X139406095Y-93592095D01*
X139548952Y-94734952D02*
X139501333Y-94639714D01*
X139453714Y-94592095D01*
X139358476Y-94544476D01*
X139310857Y-94544476D01*
X139215619Y-94592095D01*
X139168000Y-94639714D01*
X139120380Y-94734952D01*
X139120380Y-94925428D01*
X139168000Y-95020666D01*
X139215619Y-95068285D01*
X139310857Y-95115904D01*
X139358476Y-95115904D01*
X139453714Y-95068285D01*
X139501333Y-95020666D01*
X139548952Y-94925428D01*
X139548952Y-94734952D01*
X139596571Y-94639714D01*
X139644190Y-94592095D01*
X139739428Y-94544476D01*
X139929904Y-94544476D01*
X140025142Y-94592095D01*
X140072761Y-94639714D01*
X140120380Y-94734952D01*
X140120380Y-94925428D01*
X140072761Y-95020666D01*
X140025142Y-95068285D01*
X139929904Y-95115904D01*
X139739428Y-95115904D01*
X139644190Y-95068285D01*
X139596571Y-95020666D01*
X139548952Y-94925428D01*
X139358380Y-73333714D02*
X138358380Y-73333714D01*
X138358380Y-73571809D01*
X138406000Y-73714666D01*
X138501238Y-73809904D01*
X138596476Y-73857523D01*
X138786952Y-73905142D01*
X138929809Y-73905142D01*
X139120285Y-73857523D01*
X139215523Y-73809904D01*
X139310761Y-73714666D01*
X139358380Y-73571809D01*
X139358380Y-73333714D01*
X139358380Y-74857523D02*
X139358380Y-74286095D01*
X139358380Y-74571809D02*
X138358380Y-74571809D01*
X138501238Y-74476571D01*
X138596476Y-74381333D01*
X138644095Y-74286095D01*
X138358380Y-75190857D02*
X138358380Y-75857523D01*
X139358380Y-75428952D01*
X137326380Y-111435714D02*
X136326380Y-111435714D01*
X136326380Y-111673809D01*
X136374000Y-111816666D01*
X136469238Y-111911904D01*
X136564476Y-111959523D01*
X136754952Y-112007142D01*
X136897809Y-112007142D01*
X137088285Y-111959523D01*
X137183523Y-111911904D01*
X137278761Y-111816666D01*
X137326380Y-111673809D01*
X137326380Y-111435714D01*
X137326380Y-112959523D02*
X137326380Y-112388095D01*
X137326380Y-112673809D02*
X136326380Y-112673809D01*
X136469238Y-112578571D01*
X136564476Y-112483333D01*
X136612095Y-112388095D01*
X136326380Y-113864285D02*
X136326380Y-113388095D01*
X136802571Y-113340476D01*
X136754952Y-113388095D01*
X136707333Y-113483333D01*
X136707333Y-113721428D01*
X136754952Y-113816666D01*
X136802571Y-113864285D01*
X136897809Y-113911904D01*
X137135904Y-113911904D01*
X137231142Y-113864285D01*
X137278761Y-113816666D01*
X137326380Y-113721428D01*
X137326380Y-113483333D01*
X137278761Y-113388095D01*
X137231142Y-113340476D01*
X137580380Y-92639714D02*
X136580380Y-92639714D01*
X136580380Y-92877809D01*
X136628000Y-93020666D01*
X136723238Y-93115904D01*
X136818476Y-93163523D01*
X137008952Y-93211142D01*
X137151809Y-93211142D01*
X137342285Y-93163523D01*
X137437523Y-93115904D01*
X137532761Y-93020666D01*
X137580380Y-92877809D01*
X137580380Y-92639714D01*
X137580380Y-94163523D02*
X137580380Y-93592095D01*
X137580380Y-93877809D02*
X136580380Y-93877809D01*
X136723238Y-93782571D01*
X136818476Y-93687333D01*
X136866095Y-93592095D01*
X136913714Y-95020666D02*
X137580380Y-95020666D01*
X136532761Y-94782571D02*
X137247047Y-94544476D01*
X137247047Y-95163523D01*
X136818380Y-73335714D02*
X135818380Y-73335714D01*
X135818380Y-73573809D01*
X135866000Y-73716666D01*
X135961238Y-73811904D01*
X136056476Y-73859523D01*
X136246952Y-73907142D01*
X136389809Y-73907142D01*
X136580285Y-73859523D01*
X136675523Y-73811904D01*
X136770761Y-73716666D01*
X136818380Y-73573809D01*
X136818380Y-73335714D01*
X136818380Y-74859523D02*
X136818380Y-74288095D01*
X136818380Y-74573809D02*
X135818380Y-74573809D01*
X135961238Y-74478571D01*
X136056476Y-74383333D01*
X136104095Y-74288095D01*
X135818380Y-75192857D02*
X135818380Y-75811904D01*
X136199333Y-75478571D01*
X136199333Y-75621428D01*
X136246952Y-75716666D01*
X136294571Y-75764285D01*
X136389809Y-75811904D01*
X136627904Y-75811904D01*
X136723142Y-75764285D01*
X136770761Y-75716666D01*
X136818380Y-75621428D01*
X136818380Y-75335714D01*
X136770761Y-75240476D01*
X136723142Y-75192857D01*
X133770380Y-111433714D02*
X132770380Y-111433714D01*
X132770380Y-111671809D01*
X132818000Y-111814666D01*
X132913238Y-111909904D01*
X133008476Y-111957523D01*
X133198952Y-112005142D01*
X133341809Y-112005142D01*
X133532285Y-111957523D01*
X133627523Y-111909904D01*
X133722761Y-111814666D01*
X133770380Y-111671809D01*
X133770380Y-111433714D01*
X133770380Y-112957523D02*
X133770380Y-112386095D01*
X133770380Y-112671809D02*
X132770380Y-112671809D01*
X132913238Y-112576571D01*
X133008476Y-112481333D01*
X133056095Y-112386095D01*
X133770380Y-113909904D02*
X133770380Y-113338476D01*
X133770380Y-113624190D02*
X132770380Y-113624190D01*
X132913238Y-113528952D01*
X133008476Y-113433714D01*
X133056095Y-113338476D01*
X133516380Y-92637714D02*
X132516380Y-92637714D01*
X132516380Y-92875809D01*
X132564000Y-93018666D01*
X132659238Y-93113904D01*
X132754476Y-93161523D01*
X132944952Y-93209142D01*
X133087809Y-93209142D01*
X133278285Y-93161523D01*
X133373523Y-93113904D01*
X133468761Y-93018666D01*
X133516380Y-92875809D01*
X133516380Y-92637714D01*
X133516380Y-94161523D02*
X133516380Y-93590095D01*
X133516380Y-93875809D02*
X132516380Y-93875809D01*
X132659238Y-93780571D01*
X132754476Y-93685333D01*
X132802095Y-93590095D01*
X132516380Y-94780571D02*
X132516380Y-94875809D01*
X132564000Y-94971047D01*
X132611619Y-95018666D01*
X132706857Y-95066285D01*
X132897333Y-95113904D01*
X133135428Y-95113904D01*
X133325904Y-95066285D01*
X133421142Y-95018666D01*
X133468761Y-94971047D01*
X133516380Y-94875809D01*
X133516380Y-94780571D01*
X133468761Y-94685333D01*
X133421142Y-94637714D01*
X133325904Y-94590095D01*
X133135428Y-94542476D01*
X132897333Y-94542476D01*
X132706857Y-94590095D01*
X132611619Y-94637714D01*
X132564000Y-94685333D01*
X132516380Y-94780571D01*
X133770380Y-73811904D02*
X132770380Y-73811904D01*
X132770380Y-74050000D01*
X132818000Y-74192857D01*
X132913238Y-74288095D01*
X133008476Y-74335714D01*
X133198952Y-74383333D01*
X133341809Y-74383333D01*
X133532285Y-74335714D01*
X133627523Y-74288095D01*
X133722761Y-74192857D01*
X133770380Y-74050000D01*
X133770380Y-73811904D01*
X133770380Y-74859523D02*
X133770380Y-75050000D01*
X133722761Y-75145238D01*
X133675142Y-75192857D01*
X133532285Y-75288095D01*
X133341809Y-75335714D01*
X132960857Y-75335714D01*
X132865619Y-75288095D01*
X132818000Y-75240476D01*
X132770380Y-75145238D01*
X132770380Y-74954761D01*
X132818000Y-74859523D01*
X132865619Y-74811904D01*
X132960857Y-74764285D01*
X133198952Y-74764285D01*
X133294190Y-74811904D01*
X133341809Y-74859523D01*
X133389428Y-74954761D01*
X133389428Y-75145238D01*
X133341809Y-75240476D01*
X133294190Y-75288095D01*
X133198952Y-75335714D01*
X128436380Y-93113904D02*
X127436380Y-93113904D01*
X127436380Y-93352000D01*
X127484000Y-93494857D01*
X127579238Y-93590095D01*
X127674476Y-93637714D01*
X127864952Y-93685333D01*
X128007809Y-93685333D01*
X128198285Y-93637714D01*
X128293523Y-93590095D01*
X128388761Y-93494857D01*
X128436380Y-93352000D01*
X128436380Y-93113904D01*
X127436380Y-94542476D02*
X127436380Y-94352000D01*
X127484000Y-94256761D01*
X127531619Y-94209142D01*
X127674476Y-94113904D01*
X127864952Y-94066285D01*
X128245904Y-94066285D01*
X128341142Y-94113904D01*
X128388761Y-94161523D01*
X128436380Y-94256761D01*
X128436380Y-94447238D01*
X128388761Y-94542476D01*
X128341142Y-94590095D01*
X128245904Y-94637714D01*
X128007809Y-94637714D01*
X127912571Y-94590095D01*
X127864952Y-94542476D01*
X127817333Y-94447238D01*
X127817333Y-94256761D01*
X127864952Y-94161523D01*
X127912571Y-94113904D01*
X128007809Y-94066285D01*
X131230380Y-73809904D02*
X130230380Y-73809904D01*
X130230380Y-74048000D01*
X130278000Y-74190857D01*
X130373238Y-74286095D01*
X130468476Y-74333714D01*
X130658952Y-74381333D01*
X130801809Y-74381333D01*
X130992285Y-74333714D01*
X131087523Y-74286095D01*
X131182761Y-74190857D01*
X131230380Y-74048000D01*
X131230380Y-73809904D01*
X130230380Y-75286095D02*
X130230380Y-74809904D01*
X130706571Y-74762285D01*
X130658952Y-74809904D01*
X130611333Y-74905142D01*
X130611333Y-75143238D01*
X130658952Y-75238476D01*
X130706571Y-75286095D01*
X130801809Y-75333714D01*
X131039904Y-75333714D01*
X131135142Y-75286095D01*
X131182761Y-75238476D01*
X131230380Y-75143238D01*
X131230380Y-74905142D01*
X131182761Y-74809904D01*
X131135142Y-74762285D01*
X130976380Y-93113904D02*
X129976380Y-93113904D01*
X129976380Y-93352000D01*
X130024000Y-93494857D01*
X130119238Y-93590095D01*
X130214476Y-93637714D01*
X130404952Y-93685333D01*
X130547809Y-93685333D01*
X130738285Y-93637714D01*
X130833523Y-93590095D01*
X130928761Y-93494857D01*
X130976380Y-93352000D01*
X130976380Y-93113904D01*
X130071619Y-94066285D02*
X130024000Y-94113904D01*
X129976380Y-94209142D01*
X129976380Y-94447238D01*
X130024000Y-94542476D01*
X130071619Y-94590095D01*
X130166857Y-94637714D01*
X130262095Y-94637714D01*
X130404952Y-94590095D01*
X130976380Y-94018666D01*
X130976380Y-94637714D01*
X128690380Y-73809904D02*
X127690380Y-73809904D01*
X127690380Y-74048000D01*
X127738000Y-74190857D01*
X127833238Y-74286095D01*
X127928476Y-74333714D01*
X128118952Y-74381333D01*
X128261809Y-74381333D01*
X128452285Y-74333714D01*
X128547523Y-74286095D01*
X128642761Y-74190857D01*
X128690380Y-74048000D01*
X128690380Y-73809904D01*
X128690380Y-75333714D02*
X128690380Y-74762285D01*
X128690380Y-75048000D02*
X127690380Y-75048000D01*
X127833238Y-74952761D01*
X127928476Y-74857523D01*
X127976095Y-74762285D01*
%LPC*%
D12*
X169672000Y-121158000D03*
X170942000Y-121158000D03*
X172212000Y-121158000D03*
X168402000Y-121158000D03*
X167132000Y-121158000D03*
X169672000Y-123190000D03*
X170942000Y-123190000D03*
X172212000Y-123190000D03*
X168402000Y-123190000D03*
X167132000Y-123190000D03*
X190754000Y-118110000D03*
X192024000Y-118110000D03*
X195834000Y-118110000D03*
X194564000Y-118110000D03*
X193294000Y-118110000D03*
X190754000Y-123444000D03*
X192024000Y-123444000D03*
X195834000Y-123444000D03*
X194564000Y-123444000D03*
X193294000Y-123444000D03*
D13*
X173083601Y-138749202D03*
X168083601Y-136649201D03*
D14*
X173083601Y-132849202D03*
D15*
X178358601Y-132849202D03*
X167808601Y-132849202D03*
D16*
X170558601Y-137699202D03*
D17*
X170578372Y-137409186D02*
X170538830Y-137989218D01*
D16*
X176233601Y-136124202D03*
D17*
X176888596Y-135394198D02*
X175578606Y-136854206D01*
D18*
X173098601Y-131044202D03*
D19*
X174998601Y-131944202D03*
D20*
X173098601Y-133744202D03*
X173098601Y-130144202D03*
D19*
X170798601Y-131944202D03*
X171193601Y-131945042D03*
X175398601Y-131944202D03*
D21*
X176512601Y-130817202D03*
D22*
X164675073Y-129050433D03*
D23*
X164675073Y-131590433D03*
X164675073Y-134130433D03*
X164675073Y-136670433D03*
D22*
X200833607Y-129535478D03*
D23*
X200833607Y-132075478D03*
X200833607Y-134615478D03*
X200833607Y-137155478D03*
D22*
X185885167Y-124478215D03*
D23*
X183345167Y-124478215D03*
X180805167Y-124478215D03*
X178265167Y-124478215D03*
D13*
X192243850Y-138787503D03*
X187243850Y-136687502D03*
D14*
X192243850Y-132887503D03*
D15*
X197518850Y-132887503D03*
X186968850Y-132887503D03*
D16*
X189718850Y-137737503D03*
D17*
X189738621Y-137447487D02*
X189699079Y-138027519D01*
D16*
X195393850Y-136162503D03*
D17*
X196048845Y-135432499D02*
X194738855Y-136892507D01*
D18*
X192258850Y-131082503D03*
D19*
X194158850Y-131982503D03*
D20*
X192258850Y-133782503D03*
X192258850Y-130182503D03*
D19*
X189958850Y-131982503D03*
X190353850Y-131983343D03*
X194558850Y-131982503D03*
D21*
X195672850Y-130855503D03*
D24*
G36*
X121042641Y-68084297D02*
G01*
X121068778Y-68088174D01*
X121094409Y-68094594D01*
X121119288Y-68103495D01*
X121143174Y-68114793D01*
X121165837Y-68128377D01*
X121187060Y-68144117D01*
X121206639Y-68161861D01*
X121224383Y-68181440D01*
X121240123Y-68202663D01*
X121253707Y-68225326D01*
X121265005Y-68249212D01*
X121273906Y-68274091D01*
X121280326Y-68299722D01*
X121284203Y-68325859D01*
X121285500Y-68352250D01*
X121285500Y-69315750D01*
X121284203Y-69342141D01*
X121280326Y-69368278D01*
X121273906Y-69393909D01*
X121265005Y-69418788D01*
X121253707Y-69442674D01*
X121240123Y-69465337D01*
X121224383Y-69486560D01*
X121206639Y-69506139D01*
X121187060Y-69523883D01*
X121165837Y-69539623D01*
X121143174Y-69553207D01*
X121119288Y-69564505D01*
X121094409Y-69573406D01*
X121068778Y-69579826D01*
X121042641Y-69583703D01*
X121016250Y-69585000D01*
X120477750Y-69585000D01*
X120451359Y-69583703D01*
X120425222Y-69579826D01*
X120399591Y-69573406D01*
X120374712Y-69564505D01*
X120350826Y-69553207D01*
X120328163Y-69539623D01*
X120306940Y-69523883D01*
X120287361Y-69506139D01*
X120269617Y-69486560D01*
X120253877Y-69465337D01*
X120240293Y-69442674D01*
X120228995Y-69418788D01*
X120220094Y-69393909D01*
X120213674Y-69368278D01*
X120209797Y-69342141D01*
X120208500Y-69315750D01*
X120208500Y-68352250D01*
X120209797Y-68325859D01*
X120213674Y-68299722D01*
X120220094Y-68274091D01*
X120228995Y-68249212D01*
X120240293Y-68225326D01*
X120253877Y-68202663D01*
X120269617Y-68181440D01*
X120287361Y-68161861D01*
X120306940Y-68144117D01*
X120328163Y-68128377D01*
X120350826Y-68114793D01*
X120374712Y-68103495D01*
X120399591Y-68094594D01*
X120425222Y-68088174D01*
X120451359Y-68084297D01*
X120477750Y-68083000D01*
X121016250Y-68083000D01*
X121042641Y-68084297D01*
X121042641Y-68084297D01*
G37*
D25*
X120747000Y-68834000D03*
D24*
G36*
X119167641Y-68084297D02*
G01*
X119193778Y-68088174D01*
X119219409Y-68094594D01*
X119244288Y-68103495D01*
X119268174Y-68114793D01*
X119290837Y-68128377D01*
X119312060Y-68144117D01*
X119331639Y-68161861D01*
X119349383Y-68181440D01*
X119365123Y-68202663D01*
X119378707Y-68225326D01*
X119390005Y-68249212D01*
X119398906Y-68274091D01*
X119405326Y-68299722D01*
X119409203Y-68325859D01*
X119410500Y-68352250D01*
X119410500Y-69315750D01*
X119409203Y-69342141D01*
X119405326Y-69368278D01*
X119398906Y-69393909D01*
X119390005Y-69418788D01*
X119378707Y-69442674D01*
X119365123Y-69465337D01*
X119349383Y-69486560D01*
X119331639Y-69506139D01*
X119312060Y-69523883D01*
X119290837Y-69539623D01*
X119268174Y-69553207D01*
X119244288Y-69564505D01*
X119219409Y-69573406D01*
X119193778Y-69579826D01*
X119167641Y-69583703D01*
X119141250Y-69585000D01*
X118602750Y-69585000D01*
X118576359Y-69583703D01*
X118550222Y-69579826D01*
X118524591Y-69573406D01*
X118499712Y-69564505D01*
X118475826Y-69553207D01*
X118453163Y-69539623D01*
X118431940Y-69523883D01*
X118412361Y-69506139D01*
X118394617Y-69486560D01*
X118378877Y-69465337D01*
X118365293Y-69442674D01*
X118353995Y-69418788D01*
X118345094Y-69393909D01*
X118338674Y-69368278D01*
X118334797Y-69342141D01*
X118333500Y-69315750D01*
X118333500Y-68352250D01*
X118334797Y-68325859D01*
X118338674Y-68299722D01*
X118345094Y-68274091D01*
X118353995Y-68249212D01*
X118365293Y-68225326D01*
X118378877Y-68202663D01*
X118394617Y-68181440D01*
X118412361Y-68161861D01*
X118431940Y-68144117D01*
X118453163Y-68128377D01*
X118475826Y-68114793D01*
X118499712Y-68103495D01*
X118524591Y-68094594D01*
X118550222Y-68088174D01*
X118576359Y-68084297D01*
X118602750Y-68083000D01*
X119141250Y-68083000D01*
X119167641Y-68084297D01*
X119167641Y-68084297D01*
G37*
D25*
X118872000Y-68834000D03*
D26*
X123384201Y-137154355D03*
D27*
X123384201Y-137154355D02*
X123384201Y-137154355D01*
D26*
X122726801Y-134700903D03*
D27*
X122726801Y-134700903D02*
X122726801Y-134700903D01*
D26*
X122069400Y-132247452D03*
D27*
X122069400Y-132247452D02*
X122069400Y-132247452D01*
D26*
X121412000Y-129794000D03*
D24*
G36*
X120774897Y-130897495D02*
G01*
X120308505Y-129156897D01*
X122049103Y-128690505D01*
X122515495Y-130431103D01*
X120774897Y-130897495D01*
X120774897Y-130897495D01*
G37*
D26*
X98303645Y-130750201D03*
D27*
X98303645Y-130750201D02*
X98303645Y-130750201D01*
D26*
X100757097Y-130092801D03*
D27*
X100757097Y-130092801D02*
X100757097Y-130092801D01*
D26*
X103210548Y-129435400D03*
D27*
X103210548Y-129435400D02*
X103210548Y-129435400D01*
D26*
X105664000Y-128778000D03*
D24*
G36*
X106767495Y-129415103D02*
G01*
X105026897Y-129881495D01*
X104560505Y-128140897D01*
X106301103Y-127674505D01*
X106767495Y-129415103D01*
X106767495Y-129415103D01*
G37*
D26*
X88332201Y-146044355D03*
D27*
X88332201Y-146044355D02*
X88332201Y-146044355D01*
D26*
X87674801Y-143590903D03*
D27*
X87674801Y-143590903D02*
X87674801Y-143590903D01*
D26*
X87017400Y-141137452D03*
D27*
X87017400Y-141137452D02*
X87017400Y-141137452D01*
D26*
X86360000Y-138684000D03*
D24*
G36*
X85722897Y-139787495D02*
G01*
X85256505Y-138046897D01*
X86997103Y-137580505D01*
X87463495Y-139321103D01*
X85722897Y-139787495D01*
X85722897Y-139787495D01*
G37*
D21*
X116768739Y-132404748D03*
D28*
X115984387Y-133781671D03*
D29*
X116450261Y-135520337D02*
X115518513Y-132043005D01*
D28*
X111922886Y-134870817D03*
D29*
X112388760Y-136609483D02*
X111457012Y-133132151D01*
D28*
X111541128Y-134972239D03*
D29*
X112007002Y-136710905D02*
X111075254Y-133233573D01*
D28*
X113296883Y-132638288D03*
D29*
X115518512Y-132043004D02*
X111075254Y-133233572D01*
D28*
X114228632Y-136115621D03*
D29*
X116450261Y-135520337D02*
X112007003Y-136710905D01*
D28*
X115598017Y-133885199D03*
D29*
X116063891Y-135623865D02*
X115132143Y-132146533D01*
D30*
X113529821Y-133507622D03*
D31*
X115268487Y-133041748D02*
X111791155Y-133973496D01*
D16*
X117872799Y-137603127D03*
D17*
X118316537Y-136728472D02*
X117429061Y-138477782D01*
D16*
X112798810Y-140593258D03*
D17*
X112742846Y-140308007D02*
X112854774Y-140878509D01*
D32*
X108887241Y-136620270D03*
D33*
X109092500Y-136565271D02*
X108681982Y-136675269D01*
D32*
X119077759Y-133889730D03*
D33*
X119283018Y-133834731D02*
X118872500Y-133944729D01*
D14*
X113982500Y-135255000D03*
D13*
X110136383Y-140219612D03*
X115509532Y-140953962D03*
D21*
X98364521Y-106269723D03*
D19*
X97250521Y-107396723D03*
X93045521Y-107397563D03*
X92650521Y-107396723D03*
D20*
X94950521Y-105596723D03*
X94950521Y-109196723D03*
D19*
X96850521Y-107396723D03*
D18*
X94950521Y-106496723D03*
D16*
X98085521Y-111576723D03*
D17*
X98740516Y-110846719D02*
X97430526Y-112306727D01*
D16*
X92410521Y-113151723D03*
D17*
X92430292Y-112861707D02*
X92390750Y-113441739D01*
D15*
X89660521Y-108301723D03*
X100210521Y-108301723D03*
D14*
X94935521Y-108301723D03*
D13*
X89935521Y-112101722D03*
X94935521Y-114201723D03*
D34*
X159543750Y-55243750D03*
X159543750Y-47943750D03*
X155043750Y-47943750D03*
X155043750Y-55243750D03*
D35*
X93078000Y-54102000D03*
X88078000Y-54102000D03*
D36*
X88078000Y-58602000D03*
X96178000Y-52502000D03*
X93078000Y-57702000D03*
D37*
X88078000Y-49302000D03*
D21*
X136461500Y-60198000D03*
D19*
X135347500Y-61325000D03*
X131142500Y-61325840D03*
X130747500Y-61325000D03*
D20*
X133047500Y-59525000D03*
X133047500Y-63125000D03*
D19*
X134947500Y-61325000D03*
D18*
X133047500Y-60425000D03*
D16*
X136182500Y-65505000D03*
D17*
X136837495Y-64774996D02*
X135527505Y-66235004D01*
D16*
X130507500Y-67080000D03*
D17*
X130527271Y-66789984D02*
X130487729Y-67370016D01*
D15*
X127757500Y-62230000D03*
X138307500Y-62230000D03*
D14*
X133032500Y-62230000D03*
D13*
X128032500Y-66029999D03*
X133032500Y-68130000D03*
D21*
X98251447Y-137326790D03*
D28*
X97467095Y-138703713D03*
D29*
X97932969Y-140442379D02*
X97001221Y-136965047D01*
D28*
X93405594Y-139792859D03*
D29*
X93871468Y-141531525D02*
X92939720Y-138054193D01*
D28*
X93023836Y-139894281D03*
D29*
X93489710Y-141632947D02*
X92557962Y-138155615D01*
D28*
X94779591Y-137560330D03*
D29*
X97001220Y-136965046D02*
X92557962Y-138155614D01*
D28*
X95711340Y-141037663D03*
D29*
X97932969Y-140442379D02*
X93489711Y-141632947D01*
D28*
X97080725Y-138807241D03*
D29*
X97546599Y-140545907D02*
X96614851Y-137068575D01*
D30*
X95012529Y-138429664D03*
D31*
X96751195Y-137963790D02*
X93273863Y-138895538D01*
D16*
X99355507Y-142525169D03*
D17*
X99799245Y-141650514D02*
X98911769Y-143399824D01*
D16*
X94281518Y-145515300D03*
D17*
X94225554Y-145230049D02*
X94337482Y-145800551D01*
D32*
X90369949Y-141542312D03*
D33*
X90575208Y-141487313D02*
X90164690Y-141597311D01*
D32*
X100560467Y-138811772D03*
D33*
X100765726Y-138756773D02*
X100355208Y-138866771D01*
D14*
X95465208Y-140177042D03*
D13*
X91619091Y-145141654D03*
X96992240Y-145876004D03*
D21*
X193611500Y-106235500D03*
D19*
X192497500Y-107362500D03*
X188292500Y-107363340D03*
X187897500Y-107362500D03*
D20*
X190197500Y-105562500D03*
X190197500Y-109162500D03*
D19*
X192097500Y-107362500D03*
D18*
X190197500Y-106462500D03*
D16*
X193332500Y-111542500D03*
D17*
X193987495Y-110812496D02*
X192677505Y-112272504D01*
D16*
X187657500Y-113117500D03*
D17*
X187677271Y-112827484D02*
X187637729Y-113407516D01*
D15*
X184907500Y-108267500D03*
X195457500Y-108267500D03*
D14*
X190182500Y-108267500D03*
D13*
X185182500Y-112067499D03*
X190182500Y-114167500D03*
D21*
X193611500Y-87185500D03*
D19*
X192497500Y-88312500D03*
X188292500Y-88313340D03*
X187897500Y-88312500D03*
D20*
X190197500Y-86512500D03*
X190197500Y-90112500D03*
D19*
X192097500Y-88312500D03*
D18*
X190197500Y-87412500D03*
D16*
X193332500Y-92492500D03*
D17*
X193987495Y-91762496D02*
X192677505Y-93222504D01*
D16*
X187657500Y-94067500D03*
D17*
X187677271Y-93777484D02*
X187637729Y-94357516D01*
D15*
X184907500Y-89217500D03*
X195457500Y-89217500D03*
D14*
X190182500Y-89217500D03*
D13*
X185182500Y-93017499D03*
X190182500Y-95117500D03*
D21*
X193611500Y-68135500D03*
D19*
X192497500Y-69262500D03*
X188292500Y-69263340D03*
X187897500Y-69262500D03*
D20*
X190197500Y-67462500D03*
X190197500Y-71062500D03*
D19*
X192097500Y-69262500D03*
D18*
X190197500Y-68362500D03*
D16*
X193332500Y-73442500D03*
D17*
X193987495Y-72712496D02*
X192677505Y-74172504D01*
D16*
X187657500Y-75017500D03*
D17*
X187677271Y-74727484D02*
X187637729Y-75307516D01*
D15*
X184907500Y-70167500D03*
X195457500Y-70167500D03*
D14*
X190182500Y-70167500D03*
D13*
X185182500Y-73967499D03*
X190182500Y-76067500D03*
D21*
X174561500Y-109410500D03*
D19*
X173447500Y-110537500D03*
X169242500Y-110538340D03*
X168847500Y-110537500D03*
D20*
X171147500Y-108737500D03*
X171147500Y-112337500D03*
D19*
X173047500Y-110537500D03*
D18*
X171147500Y-109637500D03*
D16*
X174282500Y-114717500D03*
D17*
X174937495Y-113987496D02*
X173627505Y-115447504D01*
D16*
X168607500Y-116292500D03*
D17*
X168627271Y-116002484D02*
X168587729Y-116582516D01*
D15*
X165857500Y-111442500D03*
X176407500Y-111442500D03*
D14*
X171132500Y-111442500D03*
D13*
X166132500Y-115242499D03*
X171132500Y-117342500D03*
D21*
X174561500Y-90360500D03*
D19*
X173447500Y-91487500D03*
X169242500Y-91488340D03*
X168847500Y-91487500D03*
D20*
X171147500Y-89687500D03*
X171147500Y-93287500D03*
D19*
X173047500Y-91487500D03*
D18*
X171147500Y-90587500D03*
D16*
X174282500Y-95667500D03*
D17*
X174937495Y-94937496D02*
X173627505Y-96397504D01*
D16*
X168607500Y-97242500D03*
D17*
X168627271Y-96952484D02*
X168587729Y-97532516D01*
D15*
X165857500Y-92392500D03*
X176407500Y-92392500D03*
D14*
X171132500Y-92392500D03*
D13*
X166132500Y-96192499D03*
X171132500Y-98292500D03*
D21*
X174561500Y-71310500D03*
D19*
X173447500Y-72437500D03*
X169242500Y-72438340D03*
X168847500Y-72437500D03*
D20*
X171147500Y-70637500D03*
X171147500Y-74237500D03*
D19*
X173047500Y-72437500D03*
D18*
X171147500Y-71537500D03*
D16*
X174282500Y-76617500D03*
D17*
X174937495Y-75887496D02*
X173627505Y-77347504D01*
D16*
X168607500Y-78192500D03*
D17*
X168627271Y-77902484D02*
X168587729Y-78482516D01*
D15*
X165857500Y-73342500D03*
X176407500Y-73342500D03*
D14*
X171132500Y-73342500D03*
D13*
X166132500Y-77142499D03*
X171132500Y-79242500D03*
D21*
X155511500Y-122110500D03*
D19*
X154397500Y-123237500D03*
X150192500Y-123238340D03*
X149797500Y-123237500D03*
D20*
X152097500Y-121437500D03*
X152097500Y-125037500D03*
D19*
X153997500Y-123237500D03*
D18*
X152097500Y-122337500D03*
D16*
X155232500Y-127417500D03*
D17*
X155887495Y-126687496D02*
X154577505Y-128147504D01*
D16*
X149557500Y-128992500D03*
D17*
X149577271Y-128702484D02*
X149537729Y-129282516D01*
D15*
X146807500Y-124142500D03*
X157357500Y-124142500D03*
D14*
X152082500Y-124142500D03*
D13*
X147082500Y-127942499D03*
X152082500Y-130042500D03*
D21*
X155511500Y-103060500D03*
D19*
X154397500Y-104187500D03*
X150192500Y-104188340D03*
X149797500Y-104187500D03*
D20*
X152097500Y-102387500D03*
X152097500Y-105987500D03*
D19*
X153997500Y-104187500D03*
D18*
X152097500Y-103287500D03*
D16*
X155232500Y-108367500D03*
D17*
X155887495Y-107637496D02*
X154577505Y-109097504D01*
D16*
X149557500Y-109942500D03*
D17*
X149577271Y-109652484D02*
X149537729Y-110232516D01*
D15*
X146807500Y-105092500D03*
X157357500Y-105092500D03*
D14*
X152082500Y-105092500D03*
D13*
X147082500Y-108892499D03*
X152082500Y-110992500D03*
D21*
X155511500Y-84010500D03*
D19*
X154397500Y-85137500D03*
X150192500Y-85138340D03*
X149797500Y-85137500D03*
D20*
X152097500Y-83337500D03*
X152097500Y-86937500D03*
D19*
X153997500Y-85137500D03*
D18*
X152097500Y-84237500D03*
D16*
X155232500Y-89317500D03*
D17*
X155887495Y-88587496D02*
X154577505Y-90047504D01*
D16*
X149557500Y-90892500D03*
D17*
X149577271Y-90602484D02*
X149537729Y-91182516D01*
D15*
X146807500Y-86042500D03*
X157357500Y-86042500D03*
D14*
X152082500Y-86042500D03*
D13*
X147082500Y-89842499D03*
X152082500Y-91942500D03*
D21*
X155511500Y-64960500D03*
D19*
X154397500Y-66087500D03*
X150192500Y-66088340D03*
X149797500Y-66087500D03*
D20*
X152097500Y-64287500D03*
X152097500Y-67887500D03*
D19*
X153997500Y-66087500D03*
D18*
X152097500Y-65187500D03*
D16*
X155232500Y-70267500D03*
D17*
X155887495Y-69537496D02*
X154577505Y-70997504D01*
D16*
X149557500Y-71842500D03*
D17*
X149577271Y-71552484D02*
X149537729Y-72132516D01*
D15*
X146807500Y-66992500D03*
X157357500Y-66992500D03*
D14*
X152082500Y-66992500D03*
D13*
X147082500Y-70792499D03*
X152082500Y-72892500D03*
D21*
X136461500Y-117348000D03*
D19*
X135347500Y-118475000D03*
X131142500Y-118475840D03*
X130747500Y-118475000D03*
D20*
X133047500Y-116675000D03*
X133047500Y-120275000D03*
D19*
X134947500Y-118475000D03*
D18*
X133047500Y-117575000D03*
D16*
X136182500Y-122655000D03*
D17*
X136837495Y-121924996D02*
X135527505Y-123385004D01*
D16*
X130507500Y-124230000D03*
D17*
X130527271Y-123939984D02*
X130487729Y-124520016D01*
D15*
X127757500Y-119380000D03*
X138307500Y-119380000D03*
D14*
X133032500Y-119380000D03*
D13*
X128032500Y-123179999D03*
X133032500Y-125280000D03*
D21*
X136461500Y-98298000D03*
D19*
X135347500Y-99425000D03*
X131142500Y-99425840D03*
X130747500Y-99425000D03*
D20*
X133047500Y-97625000D03*
X133047500Y-101225000D03*
D19*
X134947500Y-99425000D03*
D18*
X133047500Y-98525000D03*
D16*
X136182500Y-103605000D03*
D17*
X136837495Y-102874996D02*
X135527505Y-104335004D01*
D16*
X130507500Y-105180000D03*
D17*
X130527271Y-104889984D02*
X130487729Y-105470016D01*
D15*
X127757500Y-100330000D03*
X138307500Y-100330000D03*
D14*
X133032500Y-100330000D03*
D13*
X128032500Y-104129999D03*
X133032500Y-106230000D03*
D21*
X136461500Y-79248000D03*
D19*
X135347500Y-80375000D03*
X131142500Y-80375840D03*
X130747500Y-80375000D03*
D20*
X133047500Y-78575000D03*
X133047500Y-82175000D03*
D19*
X134947500Y-80375000D03*
D18*
X133047500Y-79475000D03*
D16*
X136182500Y-84555000D03*
D17*
X136837495Y-83824996D02*
X135527505Y-85285004D01*
D16*
X130507500Y-86130000D03*
D17*
X130527271Y-85839984D02*
X130487729Y-86420016D01*
D15*
X127757500Y-81280000D03*
X138307500Y-81280000D03*
D14*
X133032500Y-81280000D03*
D13*
X128032500Y-85079999D03*
X133032500Y-87180000D03*
D21*
X117411500Y-110998000D03*
D19*
X116297500Y-112125000D03*
X112092500Y-112125840D03*
X111697500Y-112125000D03*
D20*
X113997500Y-110325000D03*
X113997500Y-113925000D03*
D19*
X115897500Y-112125000D03*
D18*
X113997500Y-111225000D03*
D16*
X117132500Y-116305000D03*
D17*
X117787495Y-115574996D02*
X116477505Y-117035004D01*
D16*
X111457500Y-117880000D03*
D17*
X111477271Y-117589984D02*
X111437729Y-118170016D01*
D15*
X108707500Y-113030000D03*
X119257500Y-113030000D03*
D14*
X113982500Y-113030000D03*
D13*
X108982500Y-116829999D03*
X113982500Y-118930000D03*
D21*
X117411500Y-91948000D03*
D19*
X116297500Y-93075000D03*
X112092500Y-93075840D03*
X111697500Y-93075000D03*
D20*
X113997500Y-91275000D03*
X113997500Y-94875000D03*
D19*
X115897500Y-93075000D03*
D18*
X113997500Y-92175000D03*
D16*
X117132500Y-97255000D03*
D17*
X117787495Y-96524996D02*
X116477505Y-97985004D01*
D16*
X111457500Y-98830000D03*
D17*
X111477271Y-98539984D02*
X111437729Y-99120016D01*
D15*
X108707500Y-93980000D03*
X119257500Y-93980000D03*
D14*
X113982500Y-93980000D03*
D13*
X108982500Y-97779999D03*
X113982500Y-99880000D03*
D21*
X117411500Y-72898000D03*
D19*
X116297500Y-74025000D03*
X112092500Y-74025840D03*
X111697500Y-74025000D03*
D20*
X113997500Y-72225000D03*
X113997500Y-75825000D03*
D19*
X115897500Y-74025000D03*
D18*
X113997500Y-73125000D03*
D16*
X117132500Y-78205000D03*
D17*
X117787495Y-77474996D02*
X116477505Y-78935004D01*
D16*
X111457500Y-79780000D03*
D17*
X111477271Y-79489984D02*
X111437729Y-80070016D01*
D15*
X108707500Y-74930000D03*
X119257500Y-74930000D03*
D14*
X113982500Y-74930000D03*
D13*
X108982500Y-78729999D03*
X113982500Y-80830000D03*
D21*
X98361500Y-87185500D03*
D19*
X97247500Y-88312500D03*
X93042500Y-88313340D03*
X92647500Y-88312500D03*
D20*
X94947500Y-86512500D03*
X94947500Y-90112500D03*
D19*
X96847500Y-88312500D03*
D18*
X94947500Y-87412500D03*
D16*
X98082500Y-92492500D03*
D17*
X98737495Y-91762496D02*
X97427505Y-93222504D01*
D16*
X92407500Y-94067500D03*
D17*
X92427271Y-93777484D02*
X92387729Y-94357516D01*
D15*
X89657500Y-89217500D03*
X100207500Y-89217500D03*
D14*
X94932500Y-89217500D03*
D13*
X89932500Y-93017499D03*
X94932500Y-95117500D03*
D21*
X98361500Y-68135500D03*
D19*
X97247500Y-69262500D03*
X93042500Y-69263340D03*
X92647500Y-69262500D03*
D20*
X94947500Y-67462500D03*
X94947500Y-71062500D03*
D19*
X96847500Y-69262500D03*
D18*
X94947500Y-68362500D03*
D16*
X98082500Y-73442500D03*
D17*
X98737495Y-72712496D02*
X97427505Y-74172504D01*
D16*
X92407500Y-75017500D03*
D17*
X92427271Y-74727484D02*
X92387729Y-75307516D01*
D15*
X89657500Y-70167500D03*
X100207500Y-70167500D03*
D14*
X94932500Y-70167500D03*
D13*
X89932500Y-73967499D03*
X94932500Y-76067500D03*
D24*
G36*
X100958141Y-52844297D02*
G01*
X100984278Y-52848174D01*
X101009909Y-52854594D01*
X101034788Y-52863495D01*
X101058674Y-52874793D01*
X101081337Y-52888377D01*
X101102560Y-52904117D01*
X101122139Y-52921861D01*
X101139883Y-52941440D01*
X101155623Y-52962663D01*
X101169207Y-52985326D01*
X101180505Y-53009212D01*
X101189406Y-53034091D01*
X101195826Y-53059722D01*
X101199703Y-53085859D01*
X101201000Y-53112250D01*
X101201000Y-54075750D01*
X101199703Y-54102141D01*
X101195826Y-54128278D01*
X101189406Y-54153909D01*
X101180505Y-54178788D01*
X101169207Y-54202674D01*
X101155623Y-54225337D01*
X101139883Y-54246560D01*
X101122139Y-54266139D01*
X101102560Y-54283883D01*
X101081337Y-54299623D01*
X101058674Y-54313207D01*
X101034788Y-54324505D01*
X101009909Y-54333406D01*
X100984278Y-54339826D01*
X100958141Y-54343703D01*
X100931750Y-54345000D01*
X100393250Y-54345000D01*
X100366859Y-54343703D01*
X100340722Y-54339826D01*
X100315091Y-54333406D01*
X100290212Y-54324505D01*
X100266326Y-54313207D01*
X100243663Y-54299623D01*
X100222440Y-54283883D01*
X100202861Y-54266139D01*
X100185117Y-54246560D01*
X100169377Y-54225337D01*
X100155793Y-54202674D01*
X100144495Y-54178788D01*
X100135594Y-54153909D01*
X100129174Y-54128278D01*
X100125297Y-54102141D01*
X100124000Y-54075750D01*
X100124000Y-53112250D01*
X100125297Y-53085859D01*
X100129174Y-53059722D01*
X100135594Y-53034091D01*
X100144495Y-53009212D01*
X100155793Y-52985326D01*
X100169377Y-52962663D01*
X100185117Y-52941440D01*
X100202861Y-52921861D01*
X100222440Y-52904117D01*
X100243663Y-52888377D01*
X100266326Y-52874793D01*
X100290212Y-52863495D01*
X100315091Y-52854594D01*
X100340722Y-52848174D01*
X100366859Y-52844297D01*
X100393250Y-52843000D01*
X100931750Y-52843000D01*
X100958141Y-52844297D01*
X100958141Y-52844297D01*
G37*
D25*
X100662500Y-53594000D03*
D24*
G36*
X102833141Y-52844297D02*
G01*
X102859278Y-52848174D01*
X102884909Y-52854594D01*
X102909788Y-52863495D01*
X102933674Y-52874793D01*
X102956337Y-52888377D01*
X102977560Y-52904117D01*
X102997139Y-52921861D01*
X103014883Y-52941440D01*
X103030623Y-52962663D01*
X103044207Y-52985326D01*
X103055505Y-53009212D01*
X103064406Y-53034091D01*
X103070826Y-53059722D01*
X103074703Y-53085859D01*
X103076000Y-53112250D01*
X103076000Y-54075750D01*
X103074703Y-54102141D01*
X103070826Y-54128278D01*
X103064406Y-54153909D01*
X103055505Y-54178788D01*
X103044207Y-54202674D01*
X103030623Y-54225337D01*
X103014883Y-54246560D01*
X102997139Y-54266139D01*
X102977560Y-54283883D01*
X102956337Y-54299623D01*
X102933674Y-54313207D01*
X102909788Y-54324505D01*
X102884909Y-54333406D01*
X102859278Y-54339826D01*
X102833141Y-54343703D01*
X102806750Y-54345000D01*
X102268250Y-54345000D01*
X102241859Y-54343703D01*
X102215722Y-54339826D01*
X102190091Y-54333406D01*
X102165212Y-54324505D01*
X102141326Y-54313207D01*
X102118663Y-54299623D01*
X102097440Y-54283883D01*
X102077861Y-54266139D01*
X102060117Y-54246560D01*
X102044377Y-54225337D01*
X102030793Y-54202674D01*
X102019495Y-54178788D01*
X102010594Y-54153909D01*
X102004174Y-54128278D01*
X102000297Y-54102141D01*
X101999000Y-54075750D01*
X101999000Y-53112250D01*
X102000297Y-53085859D01*
X102004174Y-53059722D01*
X102010594Y-53034091D01*
X102019495Y-53009212D01*
X102030793Y-52985326D01*
X102044377Y-52962663D01*
X102060117Y-52941440D01*
X102077861Y-52921861D01*
X102097440Y-52904117D01*
X102118663Y-52888377D01*
X102141326Y-52874793D01*
X102165212Y-52863495D01*
X102190091Y-52854594D01*
X102215722Y-52848174D01*
X102241859Y-52844297D01*
X102268250Y-52843000D01*
X102806750Y-52843000D01*
X102833141Y-52844297D01*
X102833141Y-52844297D01*
G37*
D25*
X102537500Y-53594000D03*
D24*
G36*
X118484141Y-49796297D02*
G01*
X118510278Y-49800174D01*
X118535909Y-49806594D01*
X118560788Y-49815495D01*
X118584674Y-49826793D01*
X118607337Y-49840377D01*
X118628560Y-49856117D01*
X118648139Y-49873861D01*
X118665883Y-49893440D01*
X118681623Y-49914663D01*
X118695207Y-49937326D01*
X118706505Y-49961212D01*
X118715406Y-49986091D01*
X118721826Y-50011722D01*
X118725703Y-50037859D01*
X118727000Y-50064250D01*
X118727000Y-51027750D01*
X118725703Y-51054141D01*
X118721826Y-51080278D01*
X118715406Y-51105909D01*
X118706505Y-51130788D01*
X118695207Y-51154674D01*
X118681623Y-51177337D01*
X118665883Y-51198560D01*
X118648139Y-51218139D01*
X118628560Y-51235883D01*
X118607337Y-51251623D01*
X118584674Y-51265207D01*
X118560788Y-51276505D01*
X118535909Y-51285406D01*
X118510278Y-51291826D01*
X118484141Y-51295703D01*
X118457750Y-51297000D01*
X117919250Y-51297000D01*
X117892859Y-51295703D01*
X117866722Y-51291826D01*
X117841091Y-51285406D01*
X117816212Y-51276505D01*
X117792326Y-51265207D01*
X117769663Y-51251623D01*
X117748440Y-51235883D01*
X117728861Y-51218139D01*
X117711117Y-51198560D01*
X117695377Y-51177337D01*
X117681793Y-51154674D01*
X117670495Y-51130788D01*
X117661594Y-51105909D01*
X117655174Y-51080278D01*
X117651297Y-51054141D01*
X117650000Y-51027750D01*
X117650000Y-50064250D01*
X117651297Y-50037859D01*
X117655174Y-50011722D01*
X117661594Y-49986091D01*
X117670495Y-49961212D01*
X117681793Y-49937326D01*
X117695377Y-49914663D01*
X117711117Y-49893440D01*
X117728861Y-49873861D01*
X117748440Y-49856117D01*
X117769663Y-49840377D01*
X117792326Y-49826793D01*
X117816212Y-49815495D01*
X117841091Y-49806594D01*
X117866722Y-49800174D01*
X117892859Y-49796297D01*
X117919250Y-49795000D01*
X118457750Y-49795000D01*
X118484141Y-49796297D01*
X118484141Y-49796297D01*
G37*
D25*
X118188500Y-50546000D03*
D24*
G36*
X120359141Y-49796297D02*
G01*
X120385278Y-49800174D01*
X120410909Y-49806594D01*
X120435788Y-49815495D01*
X120459674Y-49826793D01*
X120482337Y-49840377D01*
X120503560Y-49856117D01*
X120523139Y-49873861D01*
X120540883Y-49893440D01*
X120556623Y-49914663D01*
X120570207Y-49937326D01*
X120581505Y-49961212D01*
X120590406Y-49986091D01*
X120596826Y-50011722D01*
X120600703Y-50037859D01*
X120602000Y-50064250D01*
X120602000Y-51027750D01*
X120600703Y-51054141D01*
X120596826Y-51080278D01*
X120590406Y-51105909D01*
X120581505Y-51130788D01*
X120570207Y-51154674D01*
X120556623Y-51177337D01*
X120540883Y-51198560D01*
X120523139Y-51218139D01*
X120503560Y-51235883D01*
X120482337Y-51251623D01*
X120459674Y-51265207D01*
X120435788Y-51276505D01*
X120410909Y-51285406D01*
X120385278Y-51291826D01*
X120359141Y-51295703D01*
X120332750Y-51297000D01*
X119794250Y-51297000D01*
X119767859Y-51295703D01*
X119741722Y-51291826D01*
X119716091Y-51285406D01*
X119691212Y-51276505D01*
X119667326Y-51265207D01*
X119644663Y-51251623D01*
X119623440Y-51235883D01*
X119603861Y-51218139D01*
X119586117Y-51198560D01*
X119570377Y-51177337D01*
X119556793Y-51154674D01*
X119545495Y-51130788D01*
X119536594Y-51105909D01*
X119530174Y-51080278D01*
X119526297Y-51054141D01*
X119525000Y-51027750D01*
X119525000Y-50064250D01*
X119526297Y-50037859D01*
X119530174Y-50011722D01*
X119536594Y-49986091D01*
X119545495Y-49961212D01*
X119556793Y-49937326D01*
X119570377Y-49914663D01*
X119586117Y-49893440D01*
X119603861Y-49873861D01*
X119623440Y-49856117D01*
X119644663Y-49840377D01*
X119667326Y-49826793D01*
X119691212Y-49815495D01*
X119716091Y-49806594D01*
X119741722Y-49800174D01*
X119767859Y-49796297D01*
X119794250Y-49795000D01*
X120332750Y-49795000D01*
X120359141Y-49796297D01*
X120359141Y-49796297D01*
G37*
D25*
X120063500Y-50546000D03*
D38*
X132334000Y-129796000D03*
X132334000Y-133096000D03*
X126238000Y-110998000D03*
X126238000Y-114298000D03*
X128778000Y-111000000D03*
X128778000Y-114300000D03*
X129794000Y-129796000D03*
X129794000Y-133096000D03*
X134874000Y-129796000D03*
X134874000Y-133096000D03*
X137414000Y-110998000D03*
X137414000Y-114298000D03*
X139954000Y-110998000D03*
X139954000Y-114298000D03*
X137414000Y-129794000D03*
X137414000Y-133094000D03*
D24*
G36*
X107132641Y-68338297D02*
G01*
X107158778Y-68342174D01*
X107184409Y-68348594D01*
X107209288Y-68357495D01*
X107233174Y-68368793D01*
X107255837Y-68382377D01*
X107277060Y-68398117D01*
X107296639Y-68415861D01*
X107314383Y-68435440D01*
X107330123Y-68456663D01*
X107343707Y-68479326D01*
X107355005Y-68503212D01*
X107363906Y-68528091D01*
X107370326Y-68553722D01*
X107374203Y-68579859D01*
X107375500Y-68606250D01*
X107375500Y-69569750D01*
X107374203Y-69596141D01*
X107370326Y-69622278D01*
X107363906Y-69647909D01*
X107355005Y-69672788D01*
X107343707Y-69696674D01*
X107330123Y-69719337D01*
X107314383Y-69740560D01*
X107296639Y-69760139D01*
X107277060Y-69777883D01*
X107255837Y-69793623D01*
X107233174Y-69807207D01*
X107209288Y-69818505D01*
X107184409Y-69827406D01*
X107158778Y-69833826D01*
X107132641Y-69837703D01*
X107106250Y-69839000D01*
X106567750Y-69839000D01*
X106541359Y-69837703D01*
X106515222Y-69833826D01*
X106489591Y-69827406D01*
X106464712Y-69818505D01*
X106440826Y-69807207D01*
X106418163Y-69793623D01*
X106396940Y-69777883D01*
X106377361Y-69760139D01*
X106359617Y-69740560D01*
X106343877Y-69719337D01*
X106330293Y-69696674D01*
X106318995Y-69672788D01*
X106310094Y-69647909D01*
X106303674Y-69622278D01*
X106299797Y-69596141D01*
X106298500Y-69569750D01*
X106298500Y-68606250D01*
X106299797Y-68579859D01*
X106303674Y-68553722D01*
X106310094Y-68528091D01*
X106318995Y-68503212D01*
X106330293Y-68479326D01*
X106343877Y-68456663D01*
X106359617Y-68435440D01*
X106377361Y-68415861D01*
X106396940Y-68398117D01*
X106418163Y-68382377D01*
X106440826Y-68368793D01*
X106464712Y-68357495D01*
X106489591Y-68348594D01*
X106515222Y-68342174D01*
X106541359Y-68338297D01*
X106567750Y-68337000D01*
X107106250Y-68337000D01*
X107132641Y-68338297D01*
X107132641Y-68338297D01*
G37*
D25*
X106837000Y-69088000D03*
D24*
G36*
X109007641Y-68338297D02*
G01*
X109033778Y-68342174D01*
X109059409Y-68348594D01*
X109084288Y-68357495D01*
X109108174Y-68368793D01*
X109130837Y-68382377D01*
X109152060Y-68398117D01*
X109171639Y-68415861D01*
X109189383Y-68435440D01*
X109205123Y-68456663D01*
X109218707Y-68479326D01*
X109230005Y-68503212D01*
X109238906Y-68528091D01*
X109245326Y-68553722D01*
X109249203Y-68579859D01*
X109250500Y-68606250D01*
X109250500Y-69569750D01*
X109249203Y-69596141D01*
X109245326Y-69622278D01*
X109238906Y-69647909D01*
X109230005Y-69672788D01*
X109218707Y-69696674D01*
X109205123Y-69719337D01*
X109189383Y-69740560D01*
X109171639Y-69760139D01*
X109152060Y-69777883D01*
X109130837Y-69793623D01*
X109108174Y-69807207D01*
X109084288Y-69818505D01*
X109059409Y-69827406D01*
X109033778Y-69833826D01*
X109007641Y-69837703D01*
X108981250Y-69839000D01*
X108442750Y-69839000D01*
X108416359Y-69837703D01*
X108390222Y-69833826D01*
X108364591Y-69827406D01*
X108339712Y-69818505D01*
X108315826Y-69807207D01*
X108293163Y-69793623D01*
X108271940Y-69777883D01*
X108252361Y-69760139D01*
X108234617Y-69740560D01*
X108218877Y-69719337D01*
X108205293Y-69696674D01*
X108193995Y-69672788D01*
X108185094Y-69647909D01*
X108178674Y-69622278D01*
X108174797Y-69596141D01*
X108173500Y-69569750D01*
X108173500Y-68606250D01*
X108174797Y-68579859D01*
X108178674Y-68553722D01*
X108185094Y-68528091D01*
X108193995Y-68503212D01*
X108205293Y-68479326D01*
X108218877Y-68456663D01*
X108234617Y-68435440D01*
X108252361Y-68415861D01*
X108271940Y-68398117D01*
X108293163Y-68382377D01*
X108315826Y-68368793D01*
X108339712Y-68357495D01*
X108364591Y-68348594D01*
X108390222Y-68342174D01*
X108416359Y-68338297D01*
X108442750Y-68337000D01*
X108981250Y-68337000D01*
X109007641Y-68338297D01*
X109007641Y-68338297D01*
G37*
D25*
X108712000Y-69088000D03*
D24*
G36*
X106213641Y-49542297D02*
G01*
X106239778Y-49546174D01*
X106265409Y-49552594D01*
X106290288Y-49561495D01*
X106314174Y-49572793D01*
X106336837Y-49586377D01*
X106358060Y-49602117D01*
X106377639Y-49619861D01*
X106395383Y-49639440D01*
X106411123Y-49660663D01*
X106424707Y-49683326D01*
X106436005Y-49707212D01*
X106444906Y-49732091D01*
X106451326Y-49757722D01*
X106455203Y-49783859D01*
X106456500Y-49810250D01*
X106456500Y-50773750D01*
X106455203Y-50800141D01*
X106451326Y-50826278D01*
X106444906Y-50851909D01*
X106436005Y-50876788D01*
X106424707Y-50900674D01*
X106411123Y-50923337D01*
X106395383Y-50944560D01*
X106377639Y-50964139D01*
X106358060Y-50981883D01*
X106336837Y-50997623D01*
X106314174Y-51011207D01*
X106290288Y-51022505D01*
X106265409Y-51031406D01*
X106239778Y-51037826D01*
X106213641Y-51041703D01*
X106187250Y-51043000D01*
X105648750Y-51043000D01*
X105622359Y-51041703D01*
X105596222Y-51037826D01*
X105570591Y-51031406D01*
X105545712Y-51022505D01*
X105521826Y-51011207D01*
X105499163Y-50997623D01*
X105477940Y-50981883D01*
X105458361Y-50964139D01*
X105440617Y-50944560D01*
X105424877Y-50923337D01*
X105411293Y-50900674D01*
X105399995Y-50876788D01*
X105391094Y-50851909D01*
X105384674Y-50826278D01*
X105380797Y-50800141D01*
X105379500Y-50773750D01*
X105379500Y-49810250D01*
X105380797Y-49783859D01*
X105384674Y-49757722D01*
X105391094Y-49732091D01*
X105399995Y-49707212D01*
X105411293Y-49683326D01*
X105424877Y-49660663D01*
X105440617Y-49639440D01*
X105458361Y-49619861D01*
X105477940Y-49602117D01*
X105499163Y-49586377D01*
X105521826Y-49572793D01*
X105545712Y-49561495D01*
X105570591Y-49552594D01*
X105596222Y-49546174D01*
X105622359Y-49542297D01*
X105648750Y-49541000D01*
X106187250Y-49541000D01*
X106213641Y-49542297D01*
X106213641Y-49542297D01*
G37*
D25*
X105918000Y-50292000D03*
D24*
G36*
X108088641Y-49542297D02*
G01*
X108114778Y-49546174D01*
X108140409Y-49552594D01*
X108165288Y-49561495D01*
X108189174Y-49572793D01*
X108211837Y-49586377D01*
X108233060Y-49602117D01*
X108252639Y-49619861D01*
X108270383Y-49639440D01*
X108286123Y-49660663D01*
X108299707Y-49683326D01*
X108311005Y-49707212D01*
X108319906Y-49732091D01*
X108326326Y-49757722D01*
X108330203Y-49783859D01*
X108331500Y-49810250D01*
X108331500Y-50773750D01*
X108330203Y-50800141D01*
X108326326Y-50826278D01*
X108319906Y-50851909D01*
X108311005Y-50876788D01*
X108299707Y-50900674D01*
X108286123Y-50923337D01*
X108270383Y-50944560D01*
X108252639Y-50964139D01*
X108233060Y-50981883D01*
X108211837Y-50997623D01*
X108189174Y-51011207D01*
X108165288Y-51022505D01*
X108140409Y-51031406D01*
X108114778Y-51037826D01*
X108088641Y-51041703D01*
X108062250Y-51043000D01*
X107523750Y-51043000D01*
X107497359Y-51041703D01*
X107471222Y-51037826D01*
X107445591Y-51031406D01*
X107420712Y-51022505D01*
X107396826Y-51011207D01*
X107374163Y-50997623D01*
X107352940Y-50981883D01*
X107333361Y-50964139D01*
X107315617Y-50944560D01*
X107299877Y-50923337D01*
X107286293Y-50900674D01*
X107274995Y-50876788D01*
X107266094Y-50851909D01*
X107259674Y-50826278D01*
X107255797Y-50800141D01*
X107254500Y-50773750D01*
X107254500Y-49810250D01*
X107255797Y-49783859D01*
X107259674Y-49757722D01*
X107266094Y-49732091D01*
X107274995Y-49707212D01*
X107286293Y-49683326D01*
X107299877Y-49660663D01*
X107315617Y-49639440D01*
X107333361Y-49619861D01*
X107352940Y-49602117D01*
X107374163Y-49586377D01*
X107396826Y-49572793D01*
X107420712Y-49561495D01*
X107445591Y-49552594D01*
X107471222Y-49546174D01*
X107497359Y-49542297D01*
X107523750Y-49541000D01*
X108062250Y-49541000D01*
X108088641Y-49542297D01*
X108088641Y-49542297D01*
G37*
D25*
X107793000Y-50292000D03*
D24*
G36*
X102833141Y-62496297D02*
G01*
X102859278Y-62500174D01*
X102884909Y-62506594D01*
X102909788Y-62515495D01*
X102933674Y-62526793D01*
X102956337Y-62540377D01*
X102977560Y-62556117D01*
X102997139Y-62573861D01*
X103014883Y-62593440D01*
X103030623Y-62614663D01*
X103044207Y-62637326D01*
X103055505Y-62661212D01*
X103064406Y-62686091D01*
X103070826Y-62711722D01*
X103074703Y-62737859D01*
X103076000Y-62764250D01*
X103076000Y-63727750D01*
X103074703Y-63754141D01*
X103070826Y-63780278D01*
X103064406Y-63805909D01*
X103055505Y-63830788D01*
X103044207Y-63854674D01*
X103030623Y-63877337D01*
X103014883Y-63898560D01*
X102997139Y-63918139D01*
X102977560Y-63935883D01*
X102956337Y-63951623D01*
X102933674Y-63965207D01*
X102909788Y-63976505D01*
X102884909Y-63985406D01*
X102859278Y-63991826D01*
X102833141Y-63995703D01*
X102806750Y-63997000D01*
X102268250Y-63997000D01*
X102241859Y-63995703D01*
X102215722Y-63991826D01*
X102190091Y-63985406D01*
X102165212Y-63976505D01*
X102141326Y-63965207D01*
X102118663Y-63951623D01*
X102097440Y-63935883D01*
X102077861Y-63918139D01*
X102060117Y-63898560D01*
X102044377Y-63877337D01*
X102030793Y-63854674D01*
X102019495Y-63830788D01*
X102010594Y-63805909D01*
X102004174Y-63780278D01*
X102000297Y-63754141D01*
X101999000Y-63727750D01*
X101999000Y-62764250D01*
X102000297Y-62737859D01*
X102004174Y-62711722D01*
X102010594Y-62686091D01*
X102019495Y-62661212D01*
X102030793Y-62637326D01*
X102044377Y-62614663D01*
X102060117Y-62593440D01*
X102077861Y-62573861D01*
X102097440Y-62556117D01*
X102118663Y-62540377D01*
X102141326Y-62526793D01*
X102165212Y-62515495D01*
X102190091Y-62506594D01*
X102215722Y-62500174D01*
X102241859Y-62496297D01*
X102268250Y-62495000D01*
X102806750Y-62495000D01*
X102833141Y-62496297D01*
X102833141Y-62496297D01*
G37*
D25*
X102537500Y-63246000D03*
D24*
G36*
X100958141Y-62496297D02*
G01*
X100984278Y-62500174D01*
X101009909Y-62506594D01*
X101034788Y-62515495D01*
X101058674Y-62526793D01*
X101081337Y-62540377D01*
X101102560Y-62556117D01*
X101122139Y-62573861D01*
X101139883Y-62593440D01*
X101155623Y-62614663D01*
X101169207Y-62637326D01*
X101180505Y-62661212D01*
X101189406Y-62686091D01*
X101195826Y-62711722D01*
X101199703Y-62737859D01*
X101201000Y-62764250D01*
X101201000Y-63727750D01*
X101199703Y-63754141D01*
X101195826Y-63780278D01*
X101189406Y-63805909D01*
X101180505Y-63830788D01*
X101169207Y-63854674D01*
X101155623Y-63877337D01*
X101139883Y-63898560D01*
X101122139Y-63918139D01*
X101102560Y-63935883D01*
X101081337Y-63951623D01*
X101058674Y-63965207D01*
X101034788Y-63976505D01*
X101009909Y-63985406D01*
X100984278Y-63991826D01*
X100958141Y-63995703D01*
X100931750Y-63997000D01*
X100393250Y-63997000D01*
X100366859Y-63995703D01*
X100340722Y-63991826D01*
X100315091Y-63985406D01*
X100290212Y-63976505D01*
X100266326Y-63965207D01*
X100243663Y-63951623D01*
X100222440Y-63935883D01*
X100202861Y-63918139D01*
X100185117Y-63898560D01*
X100169377Y-63877337D01*
X100155793Y-63854674D01*
X100144495Y-63830788D01*
X100135594Y-63805909D01*
X100129174Y-63780278D01*
X100125297Y-63754141D01*
X100124000Y-63727750D01*
X100124000Y-62764250D01*
X100125297Y-62737859D01*
X100129174Y-62711722D01*
X100135594Y-62686091D01*
X100144495Y-62661212D01*
X100155793Y-62637326D01*
X100169377Y-62614663D01*
X100185117Y-62593440D01*
X100202861Y-62573861D01*
X100222440Y-62556117D01*
X100243663Y-62540377D01*
X100266326Y-62526793D01*
X100290212Y-62515495D01*
X100315091Y-62506594D01*
X100340722Y-62500174D01*
X100366859Y-62496297D01*
X100393250Y-62495000D01*
X100931750Y-62495000D01*
X100958141Y-62496297D01*
X100958141Y-62496297D01*
G37*
D25*
X100662500Y-63246000D03*
D24*
G36*
X133645641Y-49796297D02*
G01*
X133671778Y-49800174D01*
X133697409Y-49806594D01*
X133722288Y-49815495D01*
X133746174Y-49826793D01*
X133768837Y-49840377D01*
X133790060Y-49856117D01*
X133809639Y-49873861D01*
X133827383Y-49893440D01*
X133843123Y-49914663D01*
X133856707Y-49937326D01*
X133868005Y-49961212D01*
X133876906Y-49986091D01*
X133883326Y-50011722D01*
X133887203Y-50037859D01*
X133888500Y-50064250D01*
X133888500Y-51027750D01*
X133887203Y-51054141D01*
X133883326Y-51080278D01*
X133876906Y-51105909D01*
X133868005Y-51130788D01*
X133856707Y-51154674D01*
X133843123Y-51177337D01*
X133827383Y-51198560D01*
X133809639Y-51218139D01*
X133790060Y-51235883D01*
X133768837Y-51251623D01*
X133746174Y-51265207D01*
X133722288Y-51276505D01*
X133697409Y-51285406D01*
X133671778Y-51291826D01*
X133645641Y-51295703D01*
X133619250Y-51297000D01*
X133080750Y-51297000D01*
X133054359Y-51295703D01*
X133028222Y-51291826D01*
X133002591Y-51285406D01*
X132977712Y-51276505D01*
X132953826Y-51265207D01*
X132931163Y-51251623D01*
X132909940Y-51235883D01*
X132890361Y-51218139D01*
X132872617Y-51198560D01*
X132856877Y-51177337D01*
X132843293Y-51154674D01*
X132831995Y-51130788D01*
X132823094Y-51105909D01*
X132816674Y-51080278D01*
X132812797Y-51054141D01*
X132811500Y-51027750D01*
X132811500Y-50064250D01*
X132812797Y-50037859D01*
X132816674Y-50011722D01*
X132823094Y-49986091D01*
X132831995Y-49961212D01*
X132843293Y-49937326D01*
X132856877Y-49914663D01*
X132872617Y-49893440D01*
X132890361Y-49873861D01*
X132909940Y-49856117D01*
X132931163Y-49840377D01*
X132953826Y-49826793D01*
X132977712Y-49815495D01*
X133002591Y-49806594D01*
X133028222Y-49800174D01*
X133054359Y-49796297D01*
X133080750Y-49795000D01*
X133619250Y-49795000D01*
X133645641Y-49796297D01*
X133645641Y-49796297D01*
G37*
D25*
X133350000Y-50546000D03*
D24*
G36*
X131770641Y-49796297D02*
G01*
X131796778Y-49800174D01*
X131822409Y-49806594D01*
X131847288Y-49815495D01*
X131871174Y-49826793D01*
X131893837Y-49840377D01*
X131915060Y-49856117D01*
X131934639Y-49873861D01*
X131952383Y-49893440D01*
X131968123Y-49914663D01*
X131981707Y-49937326D01*
X131993005Y-49961212D01*
X132001906Y-49986091D01*
X132008326Y-50011722D01*
X132012203Y-50037859D01*
X132013500Y-50064250D01*
X132013500Y-51027750D01*
X132012203Y-51054141D01*
X132008326Y-51080278D01*
X132001906Y-51105909D01*
X131993005Y-51130788D01*
X131981707Y-51154674D01*
X131968123Y-51177337D01*
X131952383Y-51198560D01*
X131934639Y-51218139D01*
X131915060Y-51235883D01*
X131893837Y-51251623D01*
X131871174Y-51265207D01*
X131847288Y-51276505D01*
X131822409Y-51285406D01*
X131796778Y-51291826D01*
X131770641Y-51295703D01*
X131744250Y-51297000D01*
X131205750Y-51297000D01*
X131179359Y-51295703D01*
X131153222Y-51291826D01*
X131127591Y-51285406D01*
X131102712Y-51276505D01*
X131078826Y-51265207D01*
X131056163Y-51251623D01*
X131034940Y-51235883D01*
X131015361Y-51218139D01*
X130997617Y-51198560D01*
X130981877Y-51177337D01*
X130968293Y-51154674D01*
X130956995Y-51130788D01*
X130948094Y-51105909D01*
X130941674Y-51080278D01*
X130937797Y-51054141D01*
X130936500Y-51027750D01*
X130936500Y-50064250D01*
X130937797Y-50037859D01*
X130941674Y-50011722D01*
X130948094Y-49986091D01*
X130956995Y-49961212D01*
X130968293Y-49937326D01*
X130981877Y-49914663D01*
X130997617Y-49893440D01*
X131015361Y-49873861D01*
X131034940Y-49856117D01*
X131056163Y-49840377D01*
X131078826Y-49826793D01*
X131102712Y-49815495D01*
X131127591Y-49806594D01*
X131153222Y-49800174D01*
X131179359Y-49796297D01*
X131205750Y-49795000D01*
X131744250Y-49795000D01*
X131770641Y-49796297D01*
X131770641Y-49796297D01*
G37*
D25*
X131475000Y-50546000D03*
D24*
G36*
X149808141Y-52431547D02*
G01*
X149834278Y-52435424D01*
X149859909Y-52441844D01*
X149884788Y-52450745D01*
X149908674Y-52462043D01*
X149931337Y-52475627D01*
X149952560Y-52491367D01*
X149972139Y-52509111D01*
X149989883Y-52528690D01*
X150005623Y-52549913D01*
X150019207Y-52572576D01*
X150030505Y-52596462D01*
X150039406Y-52621341D01*
X150045826Y-52646972D01*
X150049703Y-52673109D01*
X150051000Y-52699500D01*
X150051000Y-53663000D01*
X150049703Y-53689391D01*
X150045826Y-53715528D01*
X150039406Y-53741159D01*
X150030505Y-53766038D01*
X150019207Y-53789924D01*
X150005623Y-53812587D01*
X149989883Y-53833810D01*
X149972139Y-53853389D01*
X149952560Y-53871133D01*
X149931337Y-53886873D01*
X149908674Y-53900457D01*
X149884788Y-53911755D01*
X149859909Y-53920656D01*
X149834278Y-53927076D01*
X149808141Y-53930953D01*
X149781750Y-53932250D01*
X149243250Y-53932250D01*
X149216859Y-53930953D01*
X149190722Y-53927076D01*
X149165091Y-53920656D01*
X149140212Y-53911755D01*
X149116326Y-53900457D01*
X149093663Y-53886873D01*
X149072440Y-53871133D01*
X149052861Y-53853389D01*
X149035117Y-53833810D01*
X149019377Y-53812587D01*
X149005793Y-53789924D01*
X148994495Y-53766038D01*
X148985594Y-53741159D01*
X148979174Y-53715528D01*
X148975297Y-53689391D01*
X148974000Y-53663000D01*
X148974000Y-52699500D01*
X148975297Y-52673109D01*
X148979174Y-52646972D01*
X148985594Y-52621341D01*
X148994495Y-52596462D01*
X149005793Y-52572576D01*
X149019377Y-52549913D01*
X149035117Y-52528690D01*
X149052861Y-52509111D01*
X149072440Y-52491367D01*
X149093663Y-52475627D01*
X149116326Y-52462043D01*
X149140212Y-52450745D01*
X149165091Y-52441844D01*
X149190722Y-52435424D01*
X149216859Y-52431547D01*
X149243250Y-52430250D01*
X149781750Y-52430250D01*
X149808141Y-52431547D01*
X149808141Y-52431547D01*
G37*
D25*
X149512500Y-53181250D03*
D24*
G36*
X147933141Y-52431547D02*
G01*
X147959278Y-52435424D01*
X147984909Y-52441844D01*
X148009788Y-52450745D01*
X148033674Y-52462043D01*
X148056337Y-52475627D01*
X148077560Y-52491367D01*
X148097139Y-52509111D01*
X148114883Y-52528690D01*
X148130623Y-52549913D01*
X148144207Y-52572576D01*
X148155505Y-52596462D01*
X148164406Y-52621341D01*
X148170826Y-52646972D01*
X148174703Y-52673109D01*
X148176000Y-52699500D01*
X148176000Y-53663000D01*
X148174703Y-53689391D01*
X148170826Y-53715528D01*
X148164406Y-53741159D01*
X148155505Y-53766038D01*
X148144207Y-53789924D01*
X148130623Y-53812587D01*
X148114883Y-53833810D01*
X148097139Y-53853389D01*
X148077560Y-53871133D01*
X148056337Y-53886873D01*
X148033674Y-53900457D01*
X148009788Y-53911755D01*
X147984909Y-53920656D01*
X147959278Y-53927076D01*
X147933141Y-53930953D01*
X147906750Y-53932250D01*
X147368250Y-53932250D01*
X147341859Y-53930953D01*
X147315722Y-53927076D01*
X147290091Y-53920656D01*
X147265212Y-53911755D01*
X147241326Y-53900457D01*
X147218663Y-53886873D01*
X147197440Y-53871133D01*
X147177861Y-53853389D01*
X147160117Y-53833810D01*
X147144377Y-53812587D01*
X147130793Y-53789924D01*
X147119495Y-53766038D01*
X147110594Y-53741159D01*
X147104174Y-53715528D01*
X147100297Y-53689391D01*
X147099000Y-53663000D01*
X147099000Y-52699500D01*
X147100297Y-52673109D01*
X147104174Y-52646972D01*
X147110594Y-52621341D01*
X147119495Y-52596462D01*
X147130793Y-52572576D01*
X147144377Y-52549913D01*
X147160117Y-52528690D01*
X147177861Y-52509111D01*
X147197440Y-52491367D01*
X147218663Y-52475627D01*
X147241326Y-52462043D01*
X147265212Y-52450745D01*
X147290091Y-52441844D01*
X147315722Y-52435424D01*
X147341859Y-52431547D01*
X147368250Y-52430250D01*
X147906750Y-52430250D01*
X147933141Y-52431547D01*
X147933141Y-52431547D01*
G37*
D25*
X147637500Y-53181250D03*
D39*
X100316000Y-56896000D03*
X100316000Y-59796000D03*
X102616000Y-59796000D03*
X102616000Y-56896000D03*
D40*
X119746000Y-63040000D03*
X119746000Y-62240000D03*
X119746000Y-61440000D03*
X119746000Y-60640000D03*
X119746000Y-59840000D03*
X119746000Y-59040000D03*
X119746000Y-58240000D03*
X119746000Y-57440000D03*
X119746000Y-56640000D03*
X119746000Y-55840000D03*
X119746000Y-55040000D03*
D41*
X118046000Y-53340000D03*
X117246000Y-53340000D03*
X116446000Y-53340000D03*
X115646000Y-53340000D03*
X114846000Y-53340000D03*
X114046000Y-53340000D03*
X113246000Y-53340000D03*
X112446000Y-53340000D03*
X111646000Y-53340000D03*
X110846000Y-53340000D03*
X110046000Y-53340000D03*
D40*
X108346000Y-55040000D03*
X108346000Y-55840000D03*
X108346000Y-56640000D03*
X108346000Y-57440000D03*
X108346000Y-58240000D03*
X108346000Y-59040000D03*
X108346000Y-59840000D03*
X108346000Y-60640000D03*
X108346000Y-61440000D03*
X108346000Y-62240000D03*
X108346000Y-63040000D03*
D41*
X110046000Y-64740000D03*
X110846000Y-64740000D03*
X111646000Y-64740000D03*
X112446000Y-64740000D03*
X113246000Y-64740000D03*
X114046000Y-64740000D03*
X114846000Y-64740000D03*
X115646000Y-64740000D03*
X116446000Y-64740000D03*
X117246000Y-64740000D03*
X118046000Y-64740000D03*
D24*
G36*
X149808141Y-50050297D02*
G01*
X149834278Y-50054174D01*
X149859909Y-50060594D01*
X149884788Y-50069495D01*
X149908674Y-50080793D01*
X149931337Y-50094377D01*
X149952560Y-50110117D01*
X149972139Y-50127861D01*
X149989883Y-50147440D01*
X150005623Y-50168663D01*
X150019207Y-50191326D01*
X150030505Y-50215212D01*
X150039406Y-50240091D01*
X150045826Y-50265722D01*
X150049703Y-50291859D01*
X150051000Y-50318250D01*
X150051000Y-51281750D01*
X150049703Y-51308141D01*
X150045826Y-51334278D01*
X150039406Y-51359909D01*
X150030505Y-51384788D01*
X150019207Y-51408674D01*
X150005623Y-51431337D01*
X149989883Y-51452560D01*
X149972139Y-51472139D01*
X149952560Y-51489883D01*
X149931337Y-51505623D01*
X149908674Y-51519207D01*
X149884788Y-51530505D01*
X149859909Y-51539406D01*
X149834278Y-51545826D01*
X149808141Y-51549703D01*
X149781750Y-51551000D01*
X149243250Y-51551000D01*
X149216859Y-51549703D01*
X149190722Y-51545826D01*
X149165091Y-51539406D01*
X149140212Y-51530505D01*
X149116326Y-51519207D01*
X149093663Y-51505623D01*
X149072440Y-51489883D01*
X149052861Y-51472139D01*
X149035117Y-51452560D01*
X149019377Y-51431337D01*
X149005793Y-51408674D01*
X148994495Y-51384788D01*
X148985594Y-51359909D01*
X148979174Y-51334278D01*
X148975297Y-51308141D01*
X148974000Y-51281750D01*
X148974000Y-50318250D01*
X148975297Y-50291859D01*
X148979174Y-50265722D01*
X148985594Y-50240091D01*
X148994495Y-50215212D01*
X149005793Y-50191326D01*
X149019377Y-50168663D01*
X149035117Y-50147440D01*
X149052861Y-50127861D01*
X149072440Y-50110117D01*
X149093663Y-50094377D01*
X149116326Y-50080793D01*
X149140212Y-50069495D01*
X149165091Y-50060594D01*
X149190722Y-50054174D01*
X149216859Y-50050297D01*
X149243250Y-50049000D01*
X149781750Y-50049000D01*
X149808141Y-50050297D01*
X149808141Y-50050297D01*
G37*
D25*
X149512500Y-50800000D03*
D24*
G36*
X147933141Y-50050297D02*
G01*
X147959278Y-50054174D01*
X147984909Y-50060594D01*
X148009788Y-50069495D01*
X148033674Y-50080793D01*
X148056337Y-50094377D01*
X148077560Y-50110117D01*
X148097139Y-50127861D01*
X148114883Y-50147440D01*
X148130623Y-50168663D01*
X148144207Y-50191326D01*
X148155505Y-50215212D01*
X148164406Y-50240091D01*
X148170826Y-50265722D01*
X148174703Y-50291859D01*
X148176000Y-50318250D01*
X148176000Y-51281750D01*
X148174703Y-51308141D01*
X148170826Y-51334278D01*
X148164406Y-51359909D01*
X148155505Y-51384788D01*
X148144207Y-51408674D01*
X148130623Y-51431337D01*
X148114883Y-51452560D01*
X148097139Y-51472139D01*
X148077560Y-51489883D01*
X148056337Y-51505623D01*
X148033674Y-51519207D01*
X148009788Y-51530505D01*
X147984909Y-51539406D01*
X147959278Y-51545826D01*
X147933141Y-51549703D01*
X147906750Y-51551000D01*
X147368250Y-51551000D01*
X147341859Y-51549703D01*
X147315722Y-51545826D01*
X147290091Y-51539406D01*
X147265212Y-51530505D01*
X147241326Y-51519207D01*
X147218663Y-51505623D01*
X147197440Y-51489883D01*
X147177861Y-51472139D01*
X147160117Y-51452560D01*
X147144377Y-51431337D01*
X147130793Y-51408674D01*
X147119495Y-51384788D01*
X147110594Y-51359909D01*
X147104174Y-51334278D01*
X147100297Y-51308141D01*
X147099000Y-51281750D01*
X147099000Y-50318250D01*
X147100297Y-50291859D01*
X147104174Y-50265722D01*
X147110594Y-50240091D01*
X147119495Y-50215212D01*
X147130793Y-50191326D01*
X147144377Y-50168663D01*
X147160117Y-50147440D01*
X147177861Y-50127861D01*
X147197440Y-50110117D01*
X147218663Y-50094377D01*
X147241326Y-50080793D01*
X147265212Y-50069495D01*
X147290091Y-50060594D01*
X147315722Y-50054174D01*
X147341859Y-50050297D01*
X147368250Y-50049000D01*
X147906750Y-50049000D01*
X147933141Y-50050297D01*
X147933141Y-50050297D01*
G37*
D25*
X147637500Y-50800000D03*
D24*
G36*
X102911641Y-64782297D02*
G01*
X102937778Y-64786174D01*
X102963409Y-64792594D01*
X102988288Y-64801495D01*
X103012174Y-64812793D01*
X103034837Y-64826377D01*
X103056060Y-64842117D01*
X103075639Y-64859861D01*
X103093383Y-64879440D01*
X103109123Y-64900663D01*
X103122707Y-64923326D01*
X103134005Y-64947212D01*
X103142906Y-64972091D01*
X103149326Y-64997722D01*
X103153203Y-65023859D01*
X103154500Y-65050250D01*
X103154500Y-66013750D01*
X103153203Y-66040141D01*
X103149326Y-66066278D01*
X103142906Y-66091909D01*
X103134005Y-66116788D01*
X103122707Y-66140674D01*
X103109123Y-66163337D01*
X103093383Y-66184560D01*
X103075639Y-66204139D01*
X103056060Y-66221883D01*
X103034837Y-66237623D01*
X103012174Y-66251207D01*
X102988288Y-66262505D01*
X102963409Y-66271406D01*
X102937778Y-66277826D01*
X102911641Y-66281703D01*
X102885250Y-66283000D01*
X102346750Y-66283000D01*
X102320359Y-66281703D01*
X102294222Y-66277826D01*
X102268591Y-66271406D01*
X102243712Y-66262505D01*
X102219826Y-66251207D01*
X102197163Y-66237623D01*
X102175940Y-66221883D01*
X102156361Y-66204139D01*
X102138617Y-66184560D01*
X102122877Y-66163337D01*
X102109293Y-66140674D01*
X102097995Y-66116788D01*
X102089094Y-66091909D01*
X102082674Y-66066278D01*
X102078797Y-66040141D01*
X102077500Y-66013750D01*
X102077500Y-65050250D01*
X102078797Y-65023859D01*
X102082674Y-64997722D01*
X102089094Y-64972091D01*
X102097995Y-64947212D01*
X102109293Y-64923326D01*
X102122877Y-64900663D01*
X102138617Y-64879440D01*
X102156361Y-64859861D01*
X102175940Y-64842117D01*
X102197163Y-64826377D01*
X102219826Y-64812793D01*
X102243712Y-64801495D01*
X102268591Y-64792594D01*
X102294222Y-64786174D01*
X102320359Y-64782297D01*
X102346750Y-64781000D01*
X102885250Y-64781000D01*
X102911641Y-64782297D01*
X102911641Y-64782297D01*
G37*
D25*
X102616000Y-65532000D03*
D24*
G36*
X101036641Y-64782297D02*
G01*
X101062778Y-64786174D01*
X101088409Y-64792594D01*
X101113288Y-64801495D01*
X101137174Y-64812793D01*
X101159837Y-64826377D01*
X101181060Y-64842117D01*
X101200639Y-64859861D01*
X101218383Y-64879440D01*
X101234123Y-64900663D01*
X101247707Y-64923326D01*
X101259005Y-64947212D01*
X101267906Y-64972091D01*
X101274326Y-64997722D01*
X101278203Y-65023859D01*
X101279500Y-65050250D01*
X101279500Y-66013750D01*
X101278203Y-66040141D01*
X101274326Y-66066278D01*
X101267906Y-66091909D01*
X101259005Y-66116788D01*
X101247707Y-66140674D01*
X101234123Y-66163337D01*
X101218383Y-66184560D01*
X101200639Y-66204139D01*
X101181060Y-66221883D01*
X101159837Y-66237623D01*
X101137174Y-66251207D01*
X101113288Y-66262505D01*
X101088409Y-66271406D01*
X101062778Y-66277826D01*
X101036641Y-66281703D01*
X101010250Y-66283000D01*
X100471750Y-66283000D01*
X100445359Y-66281703D01*
X100419222Y-66277826D01*
X100393591Y-66271406D01*
X100368712Y-66262505D01*
X100344826Y-66251207D01*
X100322163Y-66237623D01*
X100300940Y-66221883D01*
X100281361Y-66204139D01*
X100263617Y-66184560D01*
X100247877Y-66163337D01*
X100234293Y-66140674D01*
X100222995Y-66116788D01*
X100214094Y-66091909D01*
X100207674Y-66066278D01*
X100203797Y-66040141D01*
X100202500Y-66013750D01*
X100202500Y-65050250D01*
X100203797Y-65023859D01*
X100207674Y-64997722D01*
X100214094Y-64972091D01*
X100222995Y-64947212D01*
X100234293Y-64923326D01*
X100247877Y-64900663D01*
X100263617Y-64879440D01*
X100281361Y-64859861D01*
X100300940Y-64842117D01*
X100322163Y-64826377D01*
X100344826Y-64812793D01*
X100368712Y-64801495D01*
X100393591Y-64792594D01*
X100419222Y-64786174D01*
X100445359Y-64782297D01*
X100471750Y-64781000D01*
X101010250Y-64781000D01*
X101036641Y-64782297D01*
X101036641Y-64782297D01*
G37*
D25*
X100741000Y-65532000D03*
D24*
G36*
X150676104Y-56225302D02*
G01*
X150702352Y-56229196D01*
X150728093Y-56235643D01*
X150753078Y-56244583D01*
X150777066Y-56255928D01*
X150799826Y-56269571D01*
X150821140Y-56285378D01*
X150840802Y-56303198D01*
X150858622Y-56322860D01*
X150874429Y-56344174D01*
X150888072Y-56366934D01*
X150899417Y-56390922D01*
X150908357Y-56415907D01*
X150914804Y-56441648D01*
X150918698Y-56467896D01*
X150920000Y-56494400D01*
X150920000Y-57805600D01*
X150918698Y-57832104D01*
X150914804Y-57858352D01*
X150908357Y-57884093D01*
X150899417Y-57909078D01*
X150888072Y-57933066D01*
X150874429Y-57955826D01*
X150858622Y-57977140D01*
X150840802Y-57996802D01*
X150821140Y-58014622D01*
X150799826Y-58030429D01*
X150777066Y-58044072D01*
X150753078Y-58055417D01*
X150728093Y-58064357D01*
X150702352Y-58070804D01*
X150676104Y-58074698D01*
X150649600Y-58076000D01*
X149838400Y-58076000D01*
X149811896Y-58074698D01*
X149785648Y-58070804D01*
X149759907Y-58064357D01*
X149734922Y-58055417D01*
X149710934Y-58044072D01*
X149688174Y-58030429D01*
X149666860Y-58014622D01*
X149647198Y-57996802D01*
X149629378Y-57977140D01*
X149613571Y-57955826D01*
X149599928Y-57933066D01*
X149588583Y-57909078D01*
X149579643Y-57884093D01*
X149573196Y-57858352D01*
X149569302Y-57832104D01*
X149568000Y-57805600D01*
X149568000Y-56494400D01*
X149569302Y-56467896D01*
X149573196Y-56441648D01*
X149579643Y-56415907D01*
X149588583Y-56390922D01*
X149599928Y-56366934D01*
X149613571Y-56344174D01*
X149629378Y-56322860D01*
X149647198Y-56303198D01*
X149666860Y-56285378D01*
X149688174Y-56269571D01*
X149710934Y-56255928D01*
X149734922Y-56244583D01*
X149759907Y-56235643D01*
X149785648Y-56229196D01*
X149811896Y-56225302D01*
X149838400Y-56224000D01*
X150649600Y-56224000D01*
X150676104Y-56225302D01*
X150676104Y-56225302D01*
G37*
D42*
X150244000Y-57150000D03*
D24*
G36*
X147876104Y-56225302D02*
G01*
X147902352Y-56229196D01*
X147928093Y-56235643D01*
X147953078Y-56244583D01*
X147977066Y-56255928D01*
X147999826Y-56269571D01*
X148021140Y-56285378D01*
X148040802Y-56303198D01*
X148058622Y-56322860D01*
X148074429Y-56344174D01*
X148088072Y-56366934D01*
X148099417Y-56390922D01*
X148108357Y-56415907D01*
X148114804Y-56441648D01*
X148118698Y-56467896D01*
X148120000Y-56494400D01*
X148120000Y-57805600D01*
X148118698Y-57832104D01*
X148114804Y-57858352D01*
X148108357Y-57884093D01*
X148099417Y-57909078D01*
X148088072Y-57933066D01*
X148074429Y-57955826D01*
X148058622Y-57977140D01*
X148040802Y-57996802D01*
X148021140Y-58014622D01*
X147999826Y-58030429D01*
X147977066Y-58044072D01*
X147953078Y-58055417D01*
X147928093Y-58064357D01*
X147902352Y-58070804D01*
X147876104Y-58074698D01*
X147849600Y-58076000D01*
X147038400Y-58076000D01*
X147011896Y-58074698D01*
X146985648Y-58070804D01*
X146959907Y-58064357D01*
X146934922Y-58055417D01*
X146910934Y-58044072D01*
X146888174Y-58030429D01*
X146866860Y-58014622D01*
X146847198Y-57996802D01*
X146829378Y-57977140D01*
X146813571Y-57955826D01*
X146799928Y-57933066D01*
X146788583Y-57909078D01*
X146779643Y-57884093D01*
X146773196Y-57858352D01*
X146769302Y-57832104D01*
X146768000Y-57805600D01*
X146768000Y-56494400D01*
X146769302Y-56467896D01*
X146773196Y-56441648D01*
X146779643Y-56415907D01*
X146788583Y-56390922D01*
X146799928Y-56366934D01*
X146813571Y-56344174D01*
X146829378Y-56322860D01*
X146847198Y-56303198D01*
X146866860Y-56285378D01*
X146888174Y-56269571D01*
X146910934Y-56255928D01*
X146934922Y-56244583D01*
X146959907Y-56235643D01*
X146985648Y-56229196D01*
X147011896Y-56225302D01*
X147038400Y-56224000D01*
X147849600Y-56224000D01*
X147876104Y-56225302D01*
X147876104Y-56225302D01*
G37*
D42*
X147444000Y-57150000D03*
D24*
G36*
X115200641Y-68338297D02*
G01*
X115226778Y-68342174D01*
X115252409Y-68348594D01*
X115277288Y-68357495D01*
X115301174Y-68368793D01*
X115323837Y-68382377D01*
X115345060Y-68398117D01*
X115364639Y-68415861D01*
X115382383Y-68435440D01*
X115398123Y-68456663D01*
X115411707Y-68479326D01*
X115423005Y-68503212D01*
X115431906Y-68528091D01*
X115438326Y-68553722D01*
X115442203Y-68579859D01*
X115443500Y-68606250D01*
X115443500Y-69569750D01*
X115442203Y-69596141D01*
X115438326Y-69622278D01*
X115431906Y-69647909D01*
X115423005Y-69672788D01*
X115411707Y-69696674D01*
X115398123Y-69719337D01*
X115382383Y-69740560D01*
X115364639Y-69760139D01*
X115345060Y-69777883D01*
X115323837Y-69793623D01*
X115301174Y-69807207D01*
X115277288Y-69818505D01*
X115252409Y-69827406D01*
X115226778Y-69833826D01*
X115200641Y-69837703D01*
X115174250Y-69839000D01*
X114635750Y-69839000D01*
X114609359Y-69837703D01*
X114583222Y-69833826D01*
X114557591Y-69827406D01*
X114532712Y-69818505D01*
X114508826Y-69807207D01*
X114486163Y-69793623D01*
X114464940Y-69777883D01*
X114445361Y-69760139D01*
X114427617Y-69740560D01*
X114411877Y-69719337D01*
X114398293Y-69696674D01*
X114386995Y-69672788D01*
X114378094Y-69647909D01*
X114371674Y-69622278D01*
X114367797Y-69596141D01*
X114366500Y-69569750D01*
X114366500Y-68606250D01*
X114367797Y-68579859D01*
X114371674Y-68553722D01*
X114378094Y-68528091D01*
X114386995Y-68503212D01*
X114398293Y-68479326D01*
X114411877Y-68456663D01*
X114427617Y-68435440D01*
X114445361Y-68415861D01*
X114464940Y-68398117D01*
X114486163Y-68382377D01*
X114508826Y-68368793D01*
X114532712Y-68357495D01*
X114557591Y-68348594D01*
X114583222Y-68342174D01*
X114609359Y-68338297D01*
X114635750Y-68337000D01*
X115174250Y-68337000D01*
X115200641Y-68338297D01*
X115200641Y-68338297D01*
G37*
D25*
X114905000Y-69088000D03*
D24*
G36*
X113325641Y-68338297D02*
G01*
X113351778Y-68342174D01*
X113377409Y-68348594D01*
X113402288Y-68357495D01*
X113426174Y-68368793D01*
X113448837Y-68382377D01*
X113470060Y-68398117D01*
X113489639Y-68415861D01*
X113507383Y-68435440D01*
X113523123Y-68456663D01*
X113536707Y-68479326D01*
X113548005Y-68503212D01*
X113556906Y-68528091D01*
X113563326Y-68553722D01*
X113567203Y-68579859D01*
X113568500Y-68606250D01*
X113568500Y-69569750D01*
X113567203Y-69596141D01*
X113563326Y-69622278D01*
X113556906Y-69647909D01*
X113548005Y-69672788D01*
X113536707Y-69696674D01*
X113523123Y-69719337D01*
X113507383Y-69740560D01*
X113489639Y-69760139D01*
X113470060Y-69777883D01*
X113448837Y-69793623D01*
X113426174Y-69807207D01*
X113402288Y-69818505D01*
X113377409Y-69827406D01*
X113351778Y-69833826D01*
X113325641Y-69837703D01*
X113299250Y-69839000D01*
X112760750Y-69839000D01*
X112734359Y-69837703D01*
X112708222Y-69833826D01*
X112682591Y-69827406D01*
X112657712Y-69818505D01*
X112633826Y-69807207D01*
X112611163Y-69793623D01*
X112589940Y-69777883D01*
X112570361Y-69760139D01*
X112552617Y-69740560D01*
X112536877Y-69719337D01*
X112523293Y-69696674D01*
X112511995Y-69672788D01*
X112503094Y-69647909D01*
X112496674Y-69622278D01*
X112492797Y-69596141D01*
X112491500Y-69569750D01*
X112491500Y-68606250D01*
X112492797Y-68579859D01*
X112496674Y-68553722D01*
X112503094Y-68528091D01*
X112511995Y-68503212D01*
X112523293Y-68479326D01*
X112536877Y-68456663D01*
X112552617Y-68435440D01*
X112570361Y-68415861D01*
X112589940Y-68398117D01*
X112611163Y-68382377D01*
X112633826Y-68368793D01*
X112657712Y-68357495D01*
X112682591Y-68348594D01*
X112708222Y-68342174D01*
X112734359Y-68338297D01*
X112760750Y-68337000D01*
X113299250Y-68337000D01*
X113325641Y-68338297D01*
X113325641Y-68338297D01*
G37*
D25*
X113030000Y-69088000D03*
D24*
G36*
X97282141Y-56945297D02*
G01*
X97308278Y-56949174D01*
X97333909Y-56955594D01*
X97358788Y-56964495D01*
X97382674Y-56975793D01*
X97405337Y-56989377D01*
X97426560Y-57005117D01*
X97446139Y-57022861D01*
X97463883Y-57042440D01*
X97479623Y-57063663D01*
X97493207Y-57086326D01*
X97504505Y-57110212D01*
X97513406Y-57135091D01*
X97519826Y-57160722D01*
X97523703Y-57186859D01*
X97525000Y-57213250D01*
X97525000Y-57751750D01*
X97523703Y-57778141D01*
X97519826Y-57804278D01*
X97513406Y-57829909D01*
X97504505Y-57854788D01*
X97493207Y-57878674D01*
X97479623Y-57901337D01*
X97463883Y-57922560D01*
X97446139Y-57942139D01*
X97426560Y-57959883D01*
X97405337Y-57975623D01*
X97382674Y-57989207D01*
X97358788Y-58000505D01*
X97333909Y-58009406D01*
X97308278Y-58015826D01*
X97282141Y-58019703D01*
X97255750Y-58021000D01*
X96292250Y-58021000D01*
X96265859Y-58019703D01*
X96239722Y-58015826D01*
X96214091Y-58009406D01*
X96189212Y-58000505D01*
X96165326Y-57989207D01*
X96142663Y-57975623D01*
X96121440Y-57959883D01*
X96101861Y-57942139D01*
X96084117Y-57922560D01*
X96068377Y-57901337D01*
X96054793Y-57878674D01*
X96043495Y-57854788D01*
X96034594Y-57829909D01*
X96028174Y-57804278D01*
X96024297Y-57778141D01*
X96023000Y-57751750D01*
X96023000Y-57213250D01*
X96024297Y-57186859D01*
X96028174Y-57160722D01*
X96034594Y-57135091D01*
X96043495Y-57110212D01*
X96054793Y-57086326D01*
X96068377Y-57063663D01*
X96084117Y-57042440D01*
X96101861Y-57022861D01*
X96121440Y-57005117D01*
X96142663Y-56989377D01*
X96165326Y-56975793D01*
X96189212Y-56964495D01*
X96214091Y-56955594D01*
X96239722Y-56949174D01*
X96265859Y-56945297D01*
X96292250Y-56944000D01*
X97255750Y-56944000D01*
X97282141Y-56945297D01*
X97282141Y-56945297D01*
G37*
D25*
X96774000Y-57482500D03*
D24*
G36*
X97282141Y-58820297D02*
G01*
X97308278Y-58824174D01*
X97333909Y-58830594D01*
X97358788Y-58839495D01*
X97382674Y-58850793D01*
X97405337Y-58864377D01*
X97426560Y-58880117D01*
X97446139Y-58897861D01*
X97463883Y-58917440D01*
X97479623Y-58938663D01*
X97493207Y-58961326D01*
X97504505Y-58985212D01*
X97513406Y-59010091D01*
X97519826Y-59035722D01*
X97523703Y-59061859D01*
X97525000Y-59088250D01*
X97525000Y-59626750D01*
X97523703Y-59653141D01*
X97519826Y-59679278D01*
X97513406Y-59704909D01*
X97504505Y-59729788D01*
X97493207Y-59753674D01*
X97479623Y-59776337D01*
X97463883Y-59797560D01*
X97446139Y-59817139D01*
X97426560Y-59834883D01*
X97405337Y-59850623D01*
X97382674Y-59864207D01*
X97358788Y-59875505D01*
X97333909Y-59884406D01*
X97308278Y-59890826D01*
X97282141Y-59894703D01*
X97255750Y-59896000D01*
X96292250Y-59896000D01*
X96265859Y-59894703D01*
X96239722Y-59890826D01*
X96214091Y-59884406D01*
X96189212Y-59875505D01*
X96165326Y-59864207D01*
X96142663Y-59850623D01*
X96121440Y-59834883D01*
X96101861Y-59817139D01*
X96084117Y-59797560D01*
X96068377Y-59776337D01*
X96054793Y-59753674D01*
X96043495Y-59729788D01*
X96034594Y-59704909D01*
X96028174Y-59679278D01*
X96024297Y-59653141D01*
X96023000Y-59626750D01*
X96023000Y-59088250D01*
X96024297Y-59061859D01*
X96028174Y-59035722D01*
X96034594Y-59010091D01*
X96043495Y-58985212D01*
X96054793Y-58961326D01*
X96068377Y-58938663D01*
X96084117Y-58917440D01*
X96101861Y-58897861D01*
X96121440Y-58880117D01*
X96142663Y-58864377D01*
X96165326Y-58850793D01*
X96189212Y-58839495D01*
X96214091Y-58830594D01*
X96239722Y-58824174D01*
X96265859Y-58820297D01*
X96292250Y-58819000D01*
X97255750Y-58819000D01*
X97282141Y-58820297D01*
X97282141Y-58820297D01*
G37*
D25*
X96774000Y-59357500D03*
D38*
X140208000Y-92202000D03*
X140208000Y-95502000D03*
X139446000Y-72898000D03*
X139446000Y-76198000D03*
X137668000Y-92204000D03*
X137668000Y-95504000D03*
X136906000Y-72898000D03*
X136906000Y-76198000D03*
X134874000Y-111000000D03*
X134874000Y-114300000D03*
X135128000Y-92204000D03*
X135128000Y-95504000D03*
X134366000Y-72900000D03*
X134366000Y-76200000D03*
X131318000Y-110998000D03*
X131318000Y-114298000D03*
X131064000Y-92202000D03*
X131064000Y-95502000D03*
X131318000Y-72900000D03*
X131318000Y-76200000D03*
X125984000Y-92202000D03*
X125984000Y-95502000D03*
X128778000Y-72898000D03*
X128778000Y-76198000D03*
X128524000Y-92202000D03*
X128524000Y-95502000D03*
X126238000Y-72898000D03*
X126238000Y-76198000D03*
M02*
