M48
; DRILL file {KiCad (5.1.4)-1} date 1/12/2022 12:57:40 PM
; FORMAT={-:-/ absolute / inch / decimal}
; #@! TF.CreationDate,2022-01-12T12:57:40-05:00
; #@! TF.GenerationSoftware,Kicad,Pcbnew,(5.1.4)-1
; #@! TF.FileFunction,Plated,1,2,PTH
FMAT,2
INCH
T1C0.0394
T2C0.0433
T3C0.0472
T4C0.0630
%
G90
G05
T1
X3.9842Y-5.7184
X4.0842Y-5.7184
X4.1842Y-5.7184
X4.2842Y-5.7184
X3.4315Y-5.2701
X3.4315Y-5.3701
X3.4315Y-5.4701
X3.4315Y-5.5701
X4.8505Y-5.2673
X4.8505Y-5.3673
X4.8505Y-5.4673
X4.8505Y-5.5673
T2
X4.661Y-5.3165
X3.893Y-5.3177
T3
X4.3292Y-5.5461
X4.526Y-5.6288
X3.5612Y-5.5474
X3.758Y-5.63
T4
G00X4.4272Y-5.5796
M15
G01X4.4261Y-5.5953
M16
G05
G00X4.6724Y-5.5005
M15
G01X4.6277Y-5.5503
M16
G05
G00X3.6591Y-5.5808
M15
G01X3.6581Y-5.5965
M16
G05
G00X3.9044Y-5.5018
M15
G01X3.8597Y-5.5516
M16
G05
T0
M30
