M48
; DRILL file {KiCad (5.1.4)-1} date 11/10/2021 8:36:58 PM
; FORMAT={-:-/ absolute / inch / decimal}
; #@! TF.CreationDate,2021-11-10T20:36:58-05:00
; #@! TF.GenerationSoftware,Kicad,Pcbnew,(5.1.4)-1
; #@! TF.FileFunction,Plated,1,2,PTH
FMAT,2
INCH
T1C0.0157
T2C0.0276
T3C0.0394
T4C0.0433
T5C0.0472
T6C0.0630
%
G90
G05
T1
X3.86Y-1.99
X3.9Y-2.57
X3.91Y-2.11
X4.1211Y-1.99
X4.1211Y-2.33
X4.16Y-2.42
X4.16Y-2.51
X4.1689Y-2.1011
X4.17Y-2.04
X4.32Y-2.0
X4.34Y-2.63
X4.34Y-2.69
X4.38Y-2.68
X4.41Y-2.65
X4.4174Y-2.3874
X4.45Y-2.0
X4.47Y-2.7814
X4.47Y-2.7814
X4.49Y-1.97
X4.53Y-2.02
X4.55Y-2.66
X4.57Y-2.0435
X4.5798Y-2.7002
X4.616Y-2.636
X4.6691Y-2.61
X4.75Y-2.55
X4.7538Y-2.6538
X4.81Y-2.14
X4.81Y-2.48
X4.85Y-2.18
X4.89Y-2.1824
X4.9503Y-2.1803
X4.9503Y-2.5297
X5.07Y-2.1365
X5.07Y-2.1365
X5.08Y-2.77
X5.09Y-1.99
X5.34Y-2.77
X5.3903Y-2.1803
X5.4435Y-2.1365
X5.5499Y-5.2399
X5.56Y-2.95
X5.57Y-4.45
X5.57Y-4.45
X5.5868Y-3.7168
X5.65Y-2.25
X5.96Y-2.0
X5.96Y-2.09
X5.99Y-2.24
X6.45Y-2.48
X7.21Y-2.56
T3
X7.9068Y-5.0998
X7.9068Y-5.1998
X7.9068Y-5.2998
X7.9068Y-5.3998
X7.0183Y-4.9007
X7.1183Y-4.9007
X7.2183Y-4.9007
X7.3183Y-4.9007
X3.8702Y-5.1476
X3.9668Y-5.1218
X4.0634Y-5.0959
X4.16Y-5.07
X4.78Y-5.11
X4.8059Y-5.2066
X4.8318Y-5.3032
X4.8576Y-5.3998
X6.4833Y-5.0807
X6.4833Y-5.1807
X6.4833Y-5.2807
X6.4833Y-5.3807
X3.4Y-5.46
X3.4259Y-5.5566
X3.4518Y-5.6532
X3.4776Y-5.7498
T4
X6.1225Y-4.8075
X4.6225Y-2.87
X4.6225Y-3.62
X6.1225Y-4.0575
X4.5972Y-5.2128
X7.6225Y-3.4325
X3.8682Y-5.4066
X3.8725Y-2.6825
X6.1225Y-3.3075
X6.1225Y-2.5575
X5.3725Y-3.87
X7.7037Y-5.1518
X3.4676Y-1.941
X3.4676Y-2.3072
X3.6645Y-2.2717
X3.7865Y-2.067
X3.8726Y-4.1838
X6.9493Y-5.1503
X5.3725Y-2.37
X3.8725Y-3.4325
X7.6225Y-2.6825
X7.6225Y-4.1825
X5.3725Y-4.62
X6.8725Y-4.3075
X6.8725Y-3.5575
X6.8725Y-2.8075
X5.3725Y-3.12
X4.6225Y-4.37
T5
X5.7906Y-5.0371
X5.9875Y-5.1198
X4.2906Y-3.0996
X4.4875Y-3.1823
X4.2906Y-3.8496
X4.4875Y-3.9323
X5.7906Y-4.2871
X5.9875Y-4.3698
X4.3361Y-5.5205
X4.5476Y-5.5494
X7.2906Y-3.6621
X7.4875Y-3.7448
X3.6071Y-5.7142
X3.8186Y-5.7431
X3.5406Y-2.9121
X3.7375Y-2.9948
X5.7906Y-3.5371
X5.9875Y-3.6198
X5.7906Y-2.7871
X5.9875Y-2.8698
X5.0406Y-4.0996
X5.2375Y-4.1823
X7.3718Y-5.3814
X7.5687Y-5.4641
X3.5408Y-4.4135
X3.7376Y-4.4961
X6.6175Y-5.3799
X6.8143Y-5.4626
X5.0406Y-2.5996
X5.2375Y-2.6823
X3.5406Y-3.6621
X3.7375Y-3.7448
X7.2906Y-2.9121
X7.4875Y-2.9948
X7.2906Y-4.4121
X7.4875Y-4.4948
X5.0406Y-4.8496
X5.2375Y-4.9323
X6.5406Y-4.5371
X6.7375Y-4.6198
X6.5406Y-3.7871
X6.7375Y-3.8698
X6.5406Y-3.0371
X6.7375Y-3.1198
X5.0406Y-3.3496
X5.2375Y-3.4323
X4.2906Y-4.5996
X4.4875Y-4.6823
T2
G00X6.1277Y-1.8875
M15
G01X6.0805Y-1.8875
M16
G05
G00X6.1277Y-2.175
M15
G01X6.0805Y-2.175
M16
G05
G00X6.3049Y-1.8875
M15
G01X6.2576Y-1.8875
M16
G05
G00X6.3049Y-2.175
M15
G01X6.2576Y-2.175
M16
G05
T6
G00X5.1386Y-2.6331
M15
G01X5.1376Y-2.6488
M16
G05
G00X5.3839Y-2.554
M15
G01X5.3392Y-2.6038
M16
G05
G00X3.6386Y-3.6956
M15
G01X3.6376Y-3.7113
M16
G05
G00X3.8839Y-3.6165
M15
G01X3.8392Y-3.6663
M16
G05
G00X7.3886Y-2.9456
M15
G01X7.3876Y-2.9613
M16
G05
G00X7.6339Y-2.8665
M15
G01X7.5892Y-2.9163
M16
G05
G00X7.3886Y-4.4456
M15
G01X7.3876Y-4.4613
M16
G05
G00X7.6339Y-4.3665
M15
G01X7.5892Y-4.4163
M16
G05
G00X5.1386Y-4.8831
M15
G01X5.1376Y-4.8988
M16
G05
G00X5.3839Y-4.804
M15
G01X5.3392Y-4.8538
M16
G05
G00X6.6386Y-4.5706
M15
G01X6.6376Y-4.5863
M16
G05
G00X6.8839Y-4.4915
M15
G01X6.8392Y-4.5413
M16
G05
G00X6.6386Y-3.8206
M15
G01X6.6376Y-3.8363
M16
G05
G00X6.8839Y-3.7415
M15
G01X6.8392Y-3.7913
M16
G05
G00X6.6386Y-3.0706
M15
G01X6.6376Y-3.0863
M16
G05
G00X6.8839Y-2.9915
M15
G01X6.8392Y-3.0413
M16
G05
G00X5.1386Y-3.3831
M15
G01X5.1376Y-3.3988
M16
G05
G00X5.3839Y-3.304
M15
G01X5.3392Y-3.3538
M16
G05
G00X4.3886Y-4.6331
M15
G01X4.3876Y-4.6488
M16
G05
G00X4.6339Y-4.554
M15
G01X4.5892Y-4.6038
M16
G05
G00X5.8886Y-5.0706
M15
G01X5.8876Y-5.0863
M16
G05
G00X6.1339Y-4.9915
M15
G01X6.0892Y-5.0413
M16
G05
G00X4.3886Y-3.1331
M15
G01X4.3876Y-3.1488
M16
G05
G00X4.6339Y-3.054
M15
G01X4.5892Y-3.1038
M16
G05
G00X4.3886Y-3.8831
M15
G01X4.3876Y-3.8988
M16
G05
G00X4.6339Y-3.804
M15
G01X4.5892Y-3.8538
M16
G05
G00X5.8886Y-4.3206
M15
G01X5.8876Y-4.3363
M16
G05
G00X6.1339Y-4.2415
M15
G01X6.0892Y-4.2913
M16
G05
G00X4.4394Y-5.5274
M15
G01X4.4424Y-5.5429
M16
G05
G00X4.6558Y-5.3876
M15
G01X4.6255Y-5.4473
M16
G05
G00X7.3886Y-3.6956
M15
G01X7.3876Y-3.7113
M16
G05
G00X7.6339Y-3.6165
M15
G01X7.5892Y-3.6663
M16
G05
G00X3.7104Y-5.7212
M15
G01X3.7134Y-5.7367
M16
G05
G00X3.9268Y-5.5814
M15
G01X3.8965Y-5.6411
M16
G05
G00X3.6386Y-2.9456
M15
G01X3.6376Y-2.9613
M16
G05
G00X3.8839Y-2.8665
M15
G01X3.8392Y-2.9163
M16
G05
G00X5.8886Y-3.5706
M15
G01X5.8876Y-3.5863
M16
G05
G00X6.1339Y-3.4915
M15
G01X6.0892Y-3.5413
M16
G05
G00X5.8886Y-2.8206
M15
G01X5.8876Y-2.8363
M16
G05
G00X6.1339Y-2.7415
M15
G01X6.0892Y-2.7913
M16
G05
G00X5.1386Y-4.1331
M15
G01X5.1376Y-4.1488
M16
G05
G00X5.3839Y-4.054
M15
G01X5.3392Y-4.1038
M16
G05
G00X7.4698Y-5.4149
M15
G01X7.4687Y-5.4306
M16
G05
G00X7.715Y-5.3358
M15
G01X7.6703Y-5.3856
M16
G05
G00X3.6387Y-4.4469
M15
G01X3.6377Y-4.4626
M16
G05
G00X3.884Y-4.3679
M15
G01X3.8393Y-4.4177
M16
G05
G00X6.7154Y-5.4134
M15
G01X6.7144Y-5.4291
M16
G05
G00X6.9607Y-5.3343
M15
G01X6.916Y-5.3841
M16
G05
T0
M30
