G04 #@! TF.GenerationSoftware,KiCad,Pcbnew,(5.1.4)-1*
G04 #@! TF.CreationDate,2021-11-10T20:59:29-05:00*
G04 #@! TF.ProjectId,a44key-pcb,6134346b-6579-42d7-9063-622e6b696361,rev?*
G04 #@! TF.SameCoordinates,Original*
G04 #@! TF.FileFunction,Legend,Top*
G04 #@! TF.FilePolarity,Positive*
%FSLAX46Y46*%
G04 Gerber Fmt 4.6, Leading zero omitted, Abs format (unit mm)*
G04 Created by KiCad (PCBNEW (5.1.4)-1) date 2021-11-10 20:59:29*
%MOMM*%
%LPD*%
G04 APERTURE LIST*
%ADD10C,0.120000*%
%ADD11C,0.150000*%
%ADD12C,0.400000*%
%ADD13C,0.127000*%
%ADD14C,0.120150*%
%ADD15C,0.889400*%
%ADD16C,2.102000*%
%ADD17C,4.089800*%
%ADD18O,2.277000X1.852000*%
%ADD19C,2.352000*%
%ADD20C,2.352000*%
%ADD21O,5.202000X1.602000*%
%ADD22O,0.602000X4.202000*%
%ADD23O,5.202000X0.602000*%
%ADD24C,1.402000*%
%ADD25R,1.802000X1.802000*%
%ADD26O,1.802000X1.802000*%
%ADD27C,1.802000*%
%ADD28C,1.802000*%
%ADD29C,0.100000*%
%ADD30C,0.602000*%
%ADD31C,0.602000*%
%ADD32C,1.602000*%
%ADD33C,1.602000*%
%ADD34C,1.852000*%
%ADD35C,1.852000*%
%ADD36O,2.802000X1.802000*%
%ADD37R,2.352000X0.602000*%
%ADD38C,1.202000*%
%ADD39C,1.752000*%
%ADD40R,1.752000X1.752000*%
%ADD41R,1.902000X1.202000*%
G04 APERTURE END LIST*
D10*
X163345073Y-138000433D02*
X166005073Y-138000433D01*
X163345073Y-130320433D02*
X163345073Y-138000433D01*
X166005073Y-130320433D02*
X166005073Y-138000433D01*
X163345073Y-130320433D02*
X166005073Y-130320433D01*
X163345073Y-129050433D02*
X163345073Y-127720433D01*
X163345073Y-127720433D02*
X164675073Y-127720433D01*
X199503607Y-138485478D02*
X202163607Y-138485478D01*
X199503607Y-130805478D02*
X199503607Y-138485478D01*
X202163607Y-130805478D02*
X202163607Y-138485478D01*
X199503607Y-130805478D02*
X202163607Y-130805478D01*
X199503607Y-129535478D02*
X199503607Y-128205478D01*
X199503607Y-128205478D02*
X200833607Y-128205478D01*
X119783089Y-128853548D02*
X121067771Y-128509319D01*
X120127319Y-130138229D02*
X119783089Y-128853548D01*
X120456019Y-131364955D02*
X123025382Y-130676496D01*
X123025382Y-130676496D02*
X125013112Y-138094807D01*
X120456019Y-131364955D02*
X122443749Y-138783265D01*
X122443749Y-138783265D02*
X125013112Y-138094807D01*
X84731089Y-137743548D02*
X86015771Y-137399319D01*
X85075319Y-139028229D02*
X84731089Y-137743548D01*
X85404019Y-140254955D02*
X87973382Y-139566496D01*
X87973382Y-139566496D02*
X89961112Y-146984807D01*
X85404019Y-140254955D02*
X87391749Y-147673265D01*
X87391749Y-147673265D02*
X89961112Y-146984807D01*
D11*
X159543750Y-55443750D02*
X154093750Y-55443750D01*
X159543750Y-47743750D02*
X154093750Y-47743750D01*
X154093750Y-55443750D02*
X154093750Y-47743750D01*
D10*
X159543750Y-55403750D02*
X159543750Y-47783750D01*
D12*
X86878000Y-48602000D02*
G75*
G03X86878000Y-48602000I-200000J0D01*
G01*
D13*
X92178000Y-58402000D02*
X89128000Y-58402000D01*
X96178000Y-58402000D02*
X94078000Y-58402000D01*
X96178000Y-53752000D02*
X96178000Y-58402000D01*
X96178000Y-49402000D02*
X96178000Y-51402000D01*
X89278000Y-49402000D02*
X96178000Y-49402000D01*
X82178000Y-51102000D02*
X85178000Y-51102000D01*
X82178000Y-57102000D02*
X82178000Y-51102000D01*
X85178000Y-57102000D02*
X82178000Y-57102000D01*
X85178000Y-58402000D02*
X86928000Y-58402000D01*
X85178000Y-57102000D02*
X85178000Y-58402000D01*
X85178000Y-56352000D02*
X85178000Y-57102000D01*
X86478000Y-56352000D02*
X85178000Y-56352000D01*
X86478000Y-51852000D02*
X86478000Y-56352000D01*
X85178000Y-51852000D02*
X86478000Y-51852000D01*
X85178000Y-51102000D02*
X85178000Y-51852000D01*
X85178000Y-49402000D02*
X85178000Y-51102000D01*
X86878000Y-49402000D02*
X85178000Y-49402000D01*
D11*
X111192000Y-52772000D02*
X116392000Y-52772000D01*
X116392000Y-52772000D02*
X116392000Y-57972000D01*
X116392000Y-57972000D02*
X111192000Y-57972000D01*
X111192000Y-57972000D02*
X111192000Y-52772000D01*
X114792000Y-55372000D02*
G75*
G03X114792000Y-55372000I-1000000J0D01*
G01*
X163341739Y-127172813D02*
X163008406Y-126696623D01*
X162770311Y-127172813D02*
X162770311Y-126172813D01*
X163151263Y-126172813D01*
X163246501Y-126220433D01*
X163294120Y-126268052D01*
X163341739Y-126363290D01*
X163341739Y-126506147D01*
X163294120Y-126601385D01*
X163246501Y-126649004D01*
X163151263Y-126696623D01*
X162770311Y-126696623D01*
X163770311Y-126649004D02*
X164103644Y-126649004D01*
X164246501Y-127172813D02*
X163770311Y-127172813D01*
X163770311Y-126172813D01*
X164246501Y-126172813D01*
X165008406Y-126649004D02*
X164675073Y-126649004D01*
X164675073Y-127172813D02*
X164675073Y-126172813D01*
X165151263Y-126172813D01*
X165675073Y-126172813D02*
X165675073Y-126410909D01*
X165436977Y-126315671D02*
X165675073Y-126410909D01*
X165913168Y-126315671D01*
X165532215Y-126601385D02*
X165675073Y-126410909D01*
X165817930Y-126601385D01*
X166436977Y-126172813D02*
X166436977Y-126410909D01*
X166198882Y-126315671D02*
X166436977Y-126410909D01*
X166675073Y-126315671D01*
X166294120Y-126601385D02*
X166436977Y-126410909D01*
X166579834Y-126601385D01*
X200500273Y-126657858D02*
X200500273Y-127372144D01*
X200452654Y-127515001D01*
X200357416Y-127610239D01*
X200214559Y-127657858D01*
X200119321Y-127657858D01*
X200881226Y-126657858D02*
X201500273Y-126657858D01*
X201166940Y-127038811D01*
X201309797Y-127038811D01*
X201405035Y-127086430D01*
X201452654Y-127134049D01*
X201500273Y-127229287D01*
X201500273Y-127467382D01*
X201452654Y-127562620D01*
X201405035Y-127610239D01*
X201309797Y-127657858D01*
X201024083Y-127657858D01*
X200928845Y-127610239D01*
X200881226Y-127562620D01*
X120345242Y-127100706D02*
X120530113Y-127790653D01*
X120521090Y-127940967D01*
X120453747Y-128057610D01*
X120328082Y-128140580D01*
X120236089Y-128165230D01*
X120713214Y-127002108D02*
X121311168Y-126841887D01*
X121087790Y-127296132D01*
X121225780Y-127259158D01*
X121330097Y-127280505D01*
X121388419Y-127314176D01*
X121459064Y-127393845D01*
X121520688Y-127623827D01*
X121499341Y-127728145D01*
X121465669Y-127786466D01*
X121386001Y-127857112D01*
X121110022Y-127931060D01*
X121005705Y-127909713D01*
X120947383Y-127876041D01*
X84586135Y-137215451D02*
X84140913Y-136841759D01*
X84034178Y-137363348D02*
X83775359Y-136397422D01*
X84143330Y-136298824D01*
X84247648Y-136320171D01*
X84305969Y-136353843D01*
X84376615Y-136433511D01*
X84413589Y-136571500D01*
X84392242Y-136675818D01*
X84358570Y-136734139D01*
X84278902Y-136804785D01*
X83910930Y-136903383D01*
X84864532Y-136598567D02*
X85186507Y-136512294D01*
X85460068Y-136981281D02*
X85000103Y-137104529D01*
X84741284Y-136138603D01*
X85201249Y-136015356D01*
X86060440Y-136278125D02*
X85738464Y-136364398D01*
X85874036Y-136870359D02*
X85615217Y-135904433D01*
X86075182Y-135781186D01*
X86581143Y-135645614D02*
X86642767Y-135875596D01*
X86388135Y-135845227D02*
X86642767Y-135875596D01*
X86848100Y-135721980D01*
X86554076Y-136096556D02*
X86642767Y-135875596D01*
X86830055Y-136022608D01*
X87317087Y-135448419D02*
X87378710Y-135678401D01*
X87124078Y-135648032D02*
X87378710Y-135678401D01*
X87584043Y-135524784D01*
X87290020Y-135899361D02*
X87378710Y-135678401D01*
X87565998Y-135825413D01*
X156964130Y-53331845D02*
X157773654Y-53331845D01*
X157868892Y-53284226D01*
X157916511Y-53236607D01*
X157964130Y-53141369D01*
X157964130Y-52950892D01*
X157916511Y-52855654D01*
X157868892Y-52808035D01*
X157773654Y-52760416D01*
X156964130Y-52760416D01*
X157916511Y-52331845D02*
X157964130Y-52188988D01*
X157964130Y-51950892D01*
X157916511Y-51855654D01*
X157868892Y-51808035D01*
X157773654Y-51760416D01*
X157678416Y-51760416D01*
X157583178Y-51808035D01*
X157535559Y-51855654D01*
X157487940Y-51950892D01*
X157440321Y-52141369D01*
X157392702Y-52236607D01*
X157345083Y-52284226D01*
X157249845Y-52331845D01*
X157154607Y-52331845D01*
X157059369Y-52284226D01*
X157011750Y-52236607D01*
X156964130Y-52141369D01*
X156964130Y-51903273D01*
X157011750Y-51760416D01*
X157440321Y-50998511D02*
X157487940Y-50855654D01*
X157535559Y-50808035D01*
X157630797Y-50760416D01*
X157773654Y-50760416D01*
X157868892Y-50808035D01*
X157916511Y-50855654D01*
X157964130Y-50950892D01*
X157964130Y-51331845D01*
X156964130Y-51331845D01*
X156964130Y-50998511D01*
X157011750Y-50903273D01*
X157059369Y-50855654D01*
X157154607Y-50808035D01*
X157249845Y-50808035D01*
X157345083Y-50855654D01*
X157392702Y-50903273D01*
X157440321Y-50998511D01*
X157440321Y-51331845D01*
X157964130Y-49808035D02*
X157964130Y-50379464D01*
X157964130Y-50093750D02*
X156964130Y-50093750D01*
X157106988Y-50188988D01*
X157202226Y-50284226D01*
X157249845Y-50379464D01*
D14*
X87538097Y-47025545D02*
X87538097Y-47368829D01*
X87515212Y-47437486D01*
X87469440Y-47483257D01*
X87400783Y-47506143D01*
X87355012Y-47506143D01*
X88018695Y-47506143D02*
X87744068Y-47506143D01*
X87881381Y-47506143D02*
X87881381Y-47025545D01*
X87835610Y-47094202D01*
X87789839Y-47139973D01*
X87744068Y-47162859D01*
D11*
X112458666Y-59840761D02*
X112601523Y-59888380D01*
X112839619Y-59888380D01*
X112934857Y-59840761D01*
X112982476Y-59793142D01*
X113030095Y-59697904D01*
X113030095Y-59602666D01*
X112982476Y-59507428D01*
X112934857Y-59459809D01*
X112839619Y-59412190D01*
X112649142Y-59364571D01*
X112553904Y-59316952D01*
X112506285Y-59269333D01*
X112458666Y-59174095D01*
X112458666Y-59078857D01*
X112506285Y-58983619D01*
X112553904Y-58936000D01*
X112649142Y-58888380D01*
X112887238Y-58888380D01*
X113030095Y-58936000D01*
X113363428Y-58888380D02*
X113601523Y-59888380D01*
X113792000Y-59174095D01*
X113982476Y-59888380D01*
X114220571Y-58888380D01*
X115125333Y-59888380D02*
X114553904Y-59888380D01*
X114839619Y-59888380D02*
X114839619Y-58888380D01*
X114744380Y-59031238D01*
X114649142Y-59126476D01*
X114553904Y-59174095D01*
%LPC*%
D15*
X169672000Y-121158000D03*
X170942000Y-121158000D03*
X172212000Y-121158000D03*
X168402000Y-121158000D03*
X167132000Y-121158000D03*
X169672000Y-123190000D03*
X170942000Y-123190000D03*
X172212000Y-123190000D03*
X168402000Y-123190000D03*
X167132000Y-123190000D03*
X190754000Y-118110000D03*
X192024000Y-118110000D03*
X195834000Y-118110000D03*
X194564000Y-118110000D03*
X193294000Y-118110000D03*
X190754000Y-123444000D03*
X192024000Y-123444000D03*
X195834000Y-123444000D03*
X194564000Y-123444000D03*
X193294000Y-123444000D03*
D16*
X173083601Y-138749202D03*
X168083601Y-136649201D03*
D17*
X173083601Y-132849202D03*
D18*
X178358601Y-132849202D03*
X167808601Y-132849202D03*
D19*
X170558601Y-137699202D03*
D20*
X170578372Y-137409186D02*
X170538830Y-137989218D01*
D19*
X176233601Y-136124202D03*
D20*
X176888596Y-135394198D02*
X175578606Y-136854206D01*
D21*
X173098601Y-131044202D03*
D22*
X174998601Y-131944202D03*
D23*
X173098601Y-133744202D03*
X173098601Y-130144202D03*
D22*
X170798601Y-131944202D03*
X171193601Y-131945042D03*
X175398601Y-131944202D03*
D24*
X176512601Y-130817202D03*
D25*
X164675073Y-129050433D03*
D26*
X164675073Y-131590433D03*
X164675073Y-134130433D03*
X164675073Y-136670433D03*
D25*
X200833607Y-129535478D03*
D26*
X200833607Y-132075478D03*
X200833607Y-134615478D03*
X200833607Y-137155478D03*
D25*
X185885167Y-124478215D03*
D26*
X183345167Y-124478215D03*
X180805167Y-124478215D03*
X178265167Y-124478215D03*
D16*
X192243850Y-138787503D03*
X187243850Y-136687502D03*
D17*
X192243850Y-132887503D03*
D18*
X197518850Y-132887503D03*
X186968850Y-132887503D03*
D19*
X189718850Y-137737503D03*
D20*
X189738621Y-137447487D02*
X189699079Y-138027519D01*
D19*
X195393850Y-136162503D03*
D20*
X196048845Y-135432499D02*
X194738855Y-136892507D01*
D21*
X192258850Y-131082503D03*
D22*
X194158850Y-131982503D03*
D23*
X192258850Y-133782503D03*
X192258850Y-130182503D03*
D22*
X189958850Y-131982503D03*
X190353850Y-131983343D03*
X194558850Y-131982503D03*
D24*
X195672850Y-130855503D03*
D27*
X123384201Y-137154355D03*
D28*
X123384201Y-137154355D02*
X123384201Y-137154355D01*
D27*
X122726801Y-134700903D03*
D28*
X122726801Y-134700903D02*
X122726801Y-134700903D01*
D27*
X122069400Y-132247452D03*
D28*
X122069400Y-132247452D02*
X122069400Y-132247452D01*
D27*
X121412000Y-129794000D03*
D29*
G36*
X120774897Y-130897495D02*
G01*
X120308505Y-129156897D01*
X122049103Y-128690505D01*
X122515495Y-130431103D01*
X120774897Y-130897495D01*
X120774897Y-130897495D01*
G37*
D27*
X98303645Y-130750201D03*
D28*
X98303645Y-130750201D02*
X98303645Y-130750201D01*
D27*
X100757097Y-130092801D03*
D28*
X100757097Y-130092801D02*
X100757097Y-130092801D01*
D27*
X103210548Y-129435400D03*
D28*
X103210548Y-129435400D02*
X103210548Y-129435400D01*
D27*
X105664000Y-128778000D03*
D29*
G36*
X106767495Y-129415103D02*
G01*
X105026897Y-129881495D01*
X104560505Y-128140897D01*
X106301103Y-127674505D01*
X106767495Y-129415103D01*
X106767495Y-129415103D01*
G37*
D27*
X88332201Y-146044355D03*
D28*
X88332201Y-146044355D02*
X88332201Y-146044355D01*
D27*
X87674801Y-143590903D03*
D28*
X87674801Y-143590903D02*
X87674801Y-143590903D01*
D27*
X87017400Y-141137452D03*
D28*
X87017400Y-141137452D02*
X87017400Y-141137452D01*
D27*
X86360000Y-138684000D03*
D29*
G36*
X85722897Y-139787495D02*
G01*
X85256505Y-138046897D01*
X86997103Y-137580505D01*
X87463495Y-139321103D01*
X85722897Y-139787495D01*
X85722897Y-139787495D01*
G37*
D24*
X116768739Y-132404748D03*
D30*
X115984387Y-133781671D03*
D31*
X116450261Y-135520337D02*
X115518513Y-132043005D01*
D30*
X111922886Y-134870817D03*
D31*
X112388760Y-136609483D02*
X111457012Y-133132151D01*
D30*
X111541128Y-134972239D03*
D31*
X112007002Y-136710905D02*
X111075254Y-133233573D01*
D30*
X113296883Y-132638288D03*
D31*
X115518512Y-132043004D02*
X111075254Y-133233572D01*
D30*
X114228632Y-136115621D03*
D31*
X116450261Y-135520337D02*
X112007003Y-136710905D01*
D30*
X115598017Y-133885199D03*
D31*
X116063891Y-135623865D02*
X115132143Y-132146533D01*
D32*
X113529821Y-133507622D03*
D33*
X115268487Y-133041748D02*
X111791155Y-133973496D01*
D19*
X117872799Y-137603127D03*
D20*
X118316537Y-136728472D02*
X117429061Y-138477782D01*
D19*
X112798810Y-140593258D03*
D20*
X112742846Y-140308007D02*
X112854774Y-140878509D01*
D34*
X108887241Y-136620270D03*
D35*
X109092500Y-136565271D02*
X108681982Y-136675269D01*
D34*
X119077759Y-133889730D03*
D35*
X119283018Y-133834731D02*
X118872500Y-133944729D01*
D17*
X113982500Y-135255000D03*
D16*
X110136383Y-140219612D03*
X115509532Y-140953962D03*
D24*
X98364521Y-106269723D03*
D22*
X97250521Y-107396723D03*
X93045521Y-107397563D03*
X92650521Y-107396723D03*
D23*
X94950521Y-105596723D03*
X94950521Y-109196723D03*
D22*
X96850521Y-107396723D03*
D21*
X94950521Y-106496723D03*
D19*
X98085521Y-111576723D03*
D20*
X98740516Y-110846719D02*
X97430526Y-112306727D01*
D19*
X92410521Y-113151723D03*
D20*
X92430292Y-112861707D02*
X92390750Y-113441739D01*
D18*
X89660521Y-108301723D03*
X100210521Y-108301723D03*
D17*
X94935521Y-108301723D03*
D16*
X89935521Y-112101722D03*
X94935521Y-114201723D03*
D36*
X159543750Y-55243750D03*
X159543750Y-47943750D03*
X155043750Y-47943750D03*
X155043750Y-55243750D03*
D37*
X155043750Y-53193750D03*
X155043750Y-52393750D03*
X155043750Y-51593750D03*
X155043750Y-50793750D03*
X155043750Y-49993750D03*
D38*
X93078000Y-54102000D03*
X88078000Y-54102000D03*
D39*
X88078000Y-58602000D03*
X96178000Y-52502000D03*
X93078000Y-57702000D03*
D40*
X88078000Y-49302000D03*
D24*
X136461500Y-60198000D03*
D22*
X135347500Y-61325000D03*
X131142500Y-61325840D03*
X130747500Y-61325000D03*
D23*
X133047500Y-59525000D03*
X133047500Y-63125000D03*
D22*
X134947500Y-61325000D03*
D21*
X133047500Y-60425000D03*
D19*
X136182500Y-65505000D03*
D20*
X136837495Y-64774996D02*
X135527505Y-66235004D01*
D19*
X130507500Y-67080000D03*
D20*
X130527271Y-66789984D02*
X130487729Y-67370016D01*
D18*
X127757500Y-62230000D03*
X138307500Y-62230000D03*
D17*
X133032500Y-62230000D03*
D16*
X128032500Y-66029999D03*
X133032500Y-68130000D03*
D24*
X98251447Y-137326790D03*
D30*
X97467095Y-138703713D03*
D31*
X97932969Y-140442379D02*
X97001221Y-136965047D01*
D30*
X93405594Y-139792859D03*
D31*
X93871468Y-141531525D02*
X92939720Y-138054193D01*
D30*
X93023836Y-139894281D03*
D31*
X93489710Y-141632947D02*
X92557962Y-138155615D01*
D30*
X94779591Y-137560330D03*
D31*
X97001220Y-136965046D02*
X92557962Y-138155614D01*
D30*
X95711340Y-141037663D03*
D31*
X97932969Y-140442379D02*
X93489711Y-141632947D01*
D30*
X97080725Y-138807241D03*
D31*
X97546599Y-140545907D02*
X96614851Y-137068575D01*
D32*
X95012529Y-138429664D03*
D33*
X96751195Y-137963790D02*
X93273863Y-138895538D01*
D19*
X99355507Y-142525169D03*
D20*
X99799245Y-141650514D02*
X98911769Y-143399824D01*
D19*
X94281518Y-145515300D03*
D20*
X94225554Y-145230049D02*
X94337482Y-145800551D01*
D34*
X90369949Y-141542312D03*
D35*
X90575208Y-141487313D02*
X90164690Y-141597311D01*
D34*
X100560467Y-138811772D03*
D35*
X100765726Y-138756773D02*
X100355208Y-138866771D01*
D17*
X95465208Y-140177042D03*
D16*
X91619091Y-145141654D03*
X96992240Y-145876004D03*
D24*
X193611500Y-106235500D03*
D22*
X192497500Y-107362500D03*
X188292500Y-107363340D03*
X187897500Y-107362500D03*
D23*
X190197500Y-105562500D03*
X190197500Y-109162500D03*
D22*
X192097500Y-107362500D03*
D21*
X190197500Y-106462500D03*
D19*
X193332500Y-111542500D03*
D20*
X193987495Y-110812496D02*
X192677505Y-112272504D01*
D19*
X187657500Y-113117500D03*
D20*
X187677271Y-112827484D02*
X187637729Y-113407516D01*
D18*
X184907500Y-108267500D03*
X195457500Y-108267500D03*
D17*
X190182500Y-108267500D03*
D16*
X185182500Y-112067499D03*
X190182500Y-114167500D03*
D24*
X193611500Y-87185500D03*
D22*
X192497500Y-88312500D03*
X188292500Y-88313340D03*
X187897500Y-88312500D03*
D23*
X190197500Y-86512500D03*
X190197500Y-90112500D03*
D22*
X192097500Y-88312500D03*
D21*
X190197500Y-87412500D03*
D19*
X193332500Y-92492500D03*
D20*
X193987495Y-91762496D02*
X192677505Y-93222504D01*
D19*
X187657500Y-94067500D03*
D20*
X187677271Y-93777484D02*
X187637729Y-94357516D01*
D18*
X184907500Y-89217500D03*
X195457500Y-89217500D03*
D17*
X190182500Y-89217500D03*
D16*
X185182500Y-93017499D03*
X190182500Y-95117500D03*
D24*
X193611500Y-68135500D03*
D22*
X192497500Y-69262500D03*
X188292500Y-69263340D03*
X187897500Y-69262500D03*
D23*
X190197500Y-67462500D03*
X190197500Y-71062500D03*
D22*
X192097500Y-69262500D03*
D21*
X190197500Y-68362500D03*
D19*
X193332500Y-73442500D03*
D20*
X193987495Y-72712496D02*
X192677505Y-74172504D01*
D19*
X187657500Y-75017500D03*
D20*
X187677271Y-74727484D02*
X187637729Y-75307516D01*
D18*
X184907500Y-70167500D03*
X195457500Y-70167500D03*
D17*
X190182500Y-70167500D03*
D16*
X185182500Y-73967499D03*
X190182500Y-76067500D03*
D24*
X174561500Y-109410500D03*
D22*
X173447500Y-110537500D03*
X169242500Y-110538340D03*
X168847500Y-110537500D03*
D23*
X171147500Y-108737500D03*
X171147500Y-112337500D03*
D22*
X173047500Y-110537500D03*
D21*
X171147500Y-109637500D03*
D19*
X174282500Y-114717500D03*
D20*
X174937495Y-113987496D02*
X173627505Y-115447504D01*
D19*
X168607500Y-116292500D03*
D20*
X168627271Y-116002484D02*
X168587729Y-116582516D01*
D18*
X165857500Y-111442500D03*
X176407500Y-111442500D03*
D17*
X171132500Y-111442500D03*
D16*
X166132500Y-115242499D03*
X171132500Y-117342500D03*
D24*
X174561500Y-90360500D03*
D22*
X173447500Y-91487500D03*
X169242500Y-91488340D03*
X168847500Y-91487500D03*
D23*
X171147500Y-89687500D03*
X171147500Y-93287500D03*
D22*
X173047500Y-91487500D03*
D21*
X171147500Y-90587500D03*
D19*
X174282500Y-95667500D03*
D20*
X174937495Y-94937496D02*
X173627505Y-96397504D01*
D19*
X168607500Y-97242500D03*
D20*
X168627271Y-96952484D02*
X168587729Y-97532516D01*
D18*
X165857500Y-92392500D03*
X176407500Y-92392500D03*
D17*
X171132500Y-92392500D03*
D16*
X166132500Y-96192499D03*
X171132500Y-98292500D03*
D24*
X174561500Y-71310500D03*
D22*
X173447500Y-72437500D03*
X169242500Y-72438340D03*
X168847500Y-72437500D03*
D23*
X171147500Y-70637500D03*
X171147500Y-74237500D03*
D22*
X173047500Y-72437500D03*
D21*
X171147500Y-71537500D03*
D19*
X174282500Y-76617500D03*
D20*
X174937495Y-75887496D02*
X173627505Y-77347504D01*
D19*
X168607500Y-78192500D03*
D20*
X168627271Y-77902484D02*
X168587729Y-78482516D01*
D18*
X165857500Y-73342500D03*
X176407500Y-73342500D03*
D17*
X171132500Y-73342500D03*
D16*
X166132500Y-77142499D03*
X171132500Y-79242500D03*
D24*
X155511500Y-122110500D03*
D22*
X154397500Y-123237500D03*
X150192500Y-123238340D03*
X149797500Y-123237500D03*
D23*
X152097500Y-121437500D03*
X152097500Y-125037500D03*
D22*
X153997500Y-123237500D03*
D21*
X152097500Y-122337500D03*
D19*
X155232500Y-127417500D03*
D20*
X155887495Y-126687496D02*
X154577505Y-128147504D01*
D19*
X149557500Y-128992500D03*
D20*
X149577271Y-128702484D02*
X149537729Y-129282516D01*
D18*
X146807500Y-124142500D03*
X157357500Y-124142500D03*
D17*
X152082500Y-124142500D03*
D16*
X147082500Y-127942499D03*
X152082500Y-130042500D03*
D24*
X155511500Y-103060500D03*
D22*
X154397500Y-104187500D03*
X150192500Y-104188340D03*
X149797500Y-104187500D03*
D23*
X152097500Y-102387500D03*
X152097500Y-105987500D03*
D22*
X153997500Y-104187500D03*
D21*
X152097500Y-103287500D03*
D19*
X155232500Y-108367500D03*
D20*
X155887495Y-107637496D02*
X154577505Y-109097504D01*
D19*
X149557500Y-109942500D03*
D20*
X149577271Y-109652484D02*
X149537729Y-110232516D01*
D18*
X146807500Y-105092500D03*
X157357500Y-105092500D03*
D17*
X152082500Y-105092500D03*
D16*
X147082500Y-108892499D03*
X152082500Y-110992500D03*
D24*
X155511500Y-84010500D03*
D22*
X154397500Y-85137500D03*
X150192500Y-85138340D03*
X149797500Y-85137500D03*
D23*
X152097500Y-83337500D03*
X152097500Y-86937500D03*
D22*
X153997500Y-85137500D03*
D21*
X152097500Y-84237500D03*
D19*
X155232500Y-89317500D03*
D20*
X155887495Y-88587496D02*
X154577505Y-90047504D01*
D19*
X149557500Y-90892500D03*
D20*
X149577271Y-90602484D02*
X149537729Y-91182516D01*
D18*
X146807500Y-86042500D03*
X157357500Y-86042500D03*
D17*
X152082500Y-86042500D03*
D16*
X147082500Y-89842499D03*
X152082500Y-91942500D03*
D24*
X155511500Y-64960500D03*
D22*
X154397500Y-66087500D03*
X150192500Y-66088340D03*
X149797500Y-66087500D03*
D23*
X152097500Y-64287500D03*
X152097500Y-67887500D03*
D22*
X153997500Y-66087500D03*
D21*
X152097500Y-65187500D03*
D19*
X155232500Y-70267500D03*
D20*
X155887495Y-69537496D02*
X154577505Y-70997504D01*
D19*
X149557500Y-71842500D03*
D20*
X149577271Y-71552484D02*
X149537729Y-72132516D01*
D18*
X146807500Y-66992500D03*
X157357500Y-66992500D03*
D17*
X152082500Y-66992500D03*
D16*
X147082500Y-70792499D03*
X152082500Y-72892500D03*
D24*
X136461500Y-117348000D03*
D22*
X135347500Y-118475000D03*
X131142500Y-118475840D03*
X130747500Y-118475000D03*
D23*
X133047500Y-116675000D03*
X133047500Y-120275000D03*
D22*
X134947500Y-118475000D03*
D21*
X133047500Y-117575000D03*
D19*
X136182500Y-122655000D03*
D20*
X136837495Y-121924996D02*
X135527505Y-123385004D01*
D19*
X130507500Y-124230000D03*
D20*
X130527271Y-123939984D02*
X130487729Y-124520016D01*
D18*
X127757500Y-119380000D03*
X138307500Y-119380000D03*
D17*
X133032500Y-119380000D03*
D16*
X128032500Y-123179999D03*
X133032500Y-125280000D03*
D24*
X136461500Y-98298000D03*
D22*
X135347500Y-99425000D03*
X131142500Y-99425840D03*
X130747500Y-99425000D03*
D23*
X133047500Y-97625000D03*
X133047500Y-101225000D03*
D22*
X134947500Y-99425000D03*
D21*
X133047500Y-98525000D03*
D19*
X136182500Y-103605000D03*
D20*
X136837495Y-102874996D02*
X135527505Y-104335004D01*
D19*
X130507500Y-105180000D03*
D20*
X130527271Y-104889984D02*
X130487729Y-105470016D01*
D18*
X127757500Y-100330000D03*
X138307500Y-100330000D03*
D17*
X133032500Y-100330000D03*
D16*
X128032500Y-104129999D03*
X133032500Y-106230000D03*
D24*
X136461500Y-79248000D03*
D22*
X135347500Y-80375000D03*
X131142500Y-80375840D03*
X130747500Y-80375000D03*
D23*
X133047500Y-78575000D03*
X133047500Y-82175000D03*
D22*
X134947500Y-80375000D03*
D21*
X133047500Y-79475000D03*
D19*
X136182500Y-84555000D03*
D20*
X136837495Y-83824996D02*
X135527505Y-85285004D01*
D19*
X130507500Y-86130000D03*
D20*
X130527271Y-85839984D02*
X130487729Y-86420016D01*
D18*
X127757500Y-81280000D03*
X138307500Y-81280000D03*
D17*
X133032500Y-81280000D03*
D16*
X128032500Y-85079999D03*
X133032500Y-87180000D03*
D24*
X117411500Y-110998000D03*
D22*
X116297500Y-112125000D03*
X112092500Y-112125840D03*
X111697500Y-112125000D03*
D23*
X113997500Y-110325000D03*
X113997500Y-113925000D03*
D22*
X115897500Y-112125000D03*
D21*
X113997500Y-111225000D03*
D19*
X117132500Y-116305000D03*
D20*
X117787495Y-115574996D02*
X116477505Y-117035004D01*
D19*
X111457500Y-117880000D03*
D20*
X111477271Y-117589984D02*
X111437729Y-118170016D01*
D18*
X108707500Y-113030000D03*
X119257500Y-113030000D03*
D17*
X113982500Y-113030000D03*
D16*
X108982500Y-116829999D03*
X113982500Y-118930000D03*
D24*
X117411500Y-91948000D03*
D22*
X116297500Y-93075000D03*
X112092500Y-93075840D03*
X111697500Y-93075000D03*
D23*
X113997500Y-91275000D03*
X113997500Y-94875000D03*
D22*
X115897500Y-93075000D03*
D21*
X113997500Y-92175000D03*
D19*
X117132500Y-97255000D03*
D20*
X117787495Y-96524996D02*
X116477505Y-97985004D01*
D19*
X111457500Y-98830000D03*
D20*
X111477271Y-98539984D02*
X111437729Y-99120016D01*
D18*
X108707500Y-93980000D03*
X119257500Y-93980000D03*
D17*
X113982500Y-93980000D03*
D16*
X108982500Y-97779999D03*
X113982500Y-99880000D03*
D24*
X117411500Y-72898000D03*
D22*
X116297500Y-74025000D03*
X112092500Y-74025840D03*
X111697500Y-74025000D03*
D23*
X113997500Y-72225000D03*
X113997500Y-75825000D03*
D22*
X115897500Y-74025000D03*
D21*
X113997500Y-73125000D03*
D19*
X117132500Y-78205000D03*
D20*
X117787495Y-77474996D02*
X116477505Y-78935004D01*
D19*
X111457500Y-79780000D03*
D20*
X111477271Y-79489984D02*
X111437729Y-80070016D01*
D18*
X108707500Y-74930000D03*
X119257500Y-74930000D03*
D17*
X113982500Y-74930000D03*
D16*
X108982500Y-78729999D03*
X113982500Y-80830000D03*
D24*
X98361500Y-87185500D03*
D22*
X97247500Y-88312500D03*
X93042500Y-88313340D03*
X92647500Y-88312500D03*
D23*
X94947500Y-86512500D03*
X94947500Y-90112500D03*
D22*
X96847500Y-88312500D03*
D21*
X94947500Y-87412500D03*
D19*
X98082500Y-92492500D03*
D20*
X98737495Y-91762496D02*
X97427505Y-93222504D01*
D19*
X92407500Y-94067500D03*
D20*
X92427271Y-93777484D02*
X92387729Y-94357516D01*
D18*
X89657500Y-89217500D03*
X100207500Y-89217500D03*
D17*
X94932500Y-89217500D03*
D16*
X89932500Y-93017499D03*
X94932500Y-95117500D03*
D24*
X98361500Y-68135500D03*
D22*
X97247500Y-69262500D03*
X93042500Y-69263340D03*
X92647500Y-69262500D03*
D23*
X94947500Y-67462500D03*
X94947500Y-71062500D03*
D22*
X96847500Y-69262500D03*
D21*
X94947500Y-68362500D03*
D19*
X98082500Y-73442500D03*
D20*
X98737495Y-72712496D02*
X97427505Y-74172504D01*
D19*
X92407500Y-75017500D03*
D20*
X92427271Y-74727484D02*
X92387729Y-75307516D01*
D18*
X89657500Y-70167500D03*
X100207500Y-70167500D03*
D17*
X94932500Y-70167500D03*
D16*
X89932500Y-73967499D03*
X94932500Y-76067500D03*
D41*
X110692000Y-57222000D03*
X116892000Y-53522000D03*
X110692000Y-53522000D03*
X116892000Y-57222000D03*
M02*
