M48
; DRILL file {KiCad (5.1.4)-1} date 1/12/2022 12:55:50 PM
; FORMAT={-:-/ absolute / inch / decimal}
; #@! TF.CreationDate,2022-01-12T12:55:50-05:00
; #@! TF.GenerationSoftware,Kicad,Pcbnew,(5.1.4)-1
; #@! TF.FileFunction,NonPlated,1,2,NPTH
FMAT,2
INCH
T1C0.0197
T2C0.0433
T3C0.0591
T4C0.0689
T5C0.1570
%
G90
G05
T2
X4.06Y-2.149
X4.2569Y-2.149
T5
X3.7585Y-5.5188
X4.4875Y-2.95
X5.9875Y-4.1375
X4.4875Y-3.7
X7.4875Y-2.7625
X3.7376Y-4.2638
X5.2375Y-4.7
X5.9875Y-4.8875
X5.2375Y-3.2
X3.7375Y-3.5125
X6.7375Y-3.6375
X7.4875Y-3.5125
X6.7375Y-4.3875
X5.2375Y-3.95
X3.7375Y-2.7625
X4.4875Y-4.45
X5.2375Y-2.45
X5.9875Y-3.3875
X6.7375Y-2.8875
X5.9875Y-2.6375
X4.5Y-5.3188
X7.4875Y-4.2625
T1
G00X5.8964Y-4.8523
M15
G01X5.8964Y-4.994
M16
G05
G00X5.9121Y-4.8523
M15
G01X5.9121Y-4.994
M16
G05
G00X5.8964Y-4.8523
M15
G01X6.0775Y-4.8523
M16
G05
G00X5.8964Y-4.994
M15
G01X6.0775Y-4.994
M16
G05
G00X6.0619Y-4.8522
M15
G01X6.0619Y-4.994
M16
G05
G00X6.0775Y-4.8523
M15
G01X6.0775Y-4.994
M16
G05
G00X5.1464Y-3.1648
M15
G01X5.1464Y-3.3065
M16
G05
G00X5.1621Y-3.1648
M15
G01X5.1621Y-3.3065
M16
G05
G00X5.1464Y-3.1648
M15
G01X5.3275Y-3.1648
M16
G05
G00X5.1464Y-3.3065
M15
G01X5.3275Y-3.3065
M16
G05
G00X5.3119Y-3.1647
M15
G01X5.3119Y-3.3065
M16
G05
G00X5.3275Y-3.1648
M15
G01X5.3275Y-3.3065
M16
G05
G00X3.6464Y-3.4773
M15
G01X3.6464Y-3.619
M16
G05
G00X3.6621Y-3.4773
M15
G01X3.6621Y-3.619
M16
G05
G00X3.6464Y-3.4773
M15
G01X3.8275Y-3.4773
M16
G05
G00X3.6464Y-3.619
M15
G01X3.8275Y-3.619
M16
G05
G00X3.8119Y-3.4772
M15
G01X3.8119Y-3.619
M16
G05
G00X3.8275Y-3.4773
M15
G01X3.8275Y-3.619
M16
G05
G00X6.6464Y-3.6023
M15
G01X6.6464Y-3.744
M16
G05
G00X6.6621Y-3.6023
M15
G01X6.6621Y-3.744
M16
G05
G00X6.6464Y-3.6023
M15
G01X6.8275Y-3.6023
M16
G05
G00X6.6464Y-3.744
M15
G01X6.8275Y-3.744
M16
G05
G00X6.8119Y-3.6022
M15
G01X6.8119Y-3.744
M16
G05
G00X6.8275Y-3.6023
M15
G01X6.8275Y-3.744
M16
G05
G00X7.3964Y-3.4773
M15
G01X7.3964Y-3.619
M16
G05
G00X7.4121Y-3.4773
M15
G01X7.4121Y-3.619
M16
G05
G00X7.3964Y-3.4773
M15
G01X7.5775Y-3.4773
M16
G05
G00X7.3964Y-3.619
M15
G01X7.5775Y-3.619
M16
G05
G00X7.5619Y-3.4772
M15
G01X7.5619Y-3.619
M16
G05
G00X7.5775Y-3.4773
M15
G01X7.5775Y-3.619
M16
G05
G00X6.6464Y-4.3523
M15
G01X6.6464Y-4.494
M16
G05
G00X6.6621Y-4.3523
M15
G01X6.6621Y-4.494
M16
G05
G00X6.6464Y-4.3523
M15
G01X6.8275Y-4.3523
M16
G05
G00X6.6464Y-4.494
M15
G01X6.8275Y-4.494
M16
G05
G00X6.8119Y-4.3522
M15
G01X6.8119Y-4.494
M16
G05
G00X6.8275Y-4.3523
M15
G01X6.8275Y-4.494
M16
G05
G00X5.1464Y-3.9148
M15
G01X5.1464Y-4.0565
M16
G05
G00X5.1621Y-3.9148
M15
G01X5.1621Y-4.0565
M16
G05
G00X5.1464Y-3.9148
M15
G01X5.3275Y-3.9148
M16
G05
G00X5.1464Y-4.0565
M15
G01X5.3275Y-4.0565
M16
G05
G00X5.3119Y-3.9147
M15
G01X5.3119Y-4.0565
M16
G05
G00X5.3275Y-3.9148
M15
G01X5.3275Y-4.0565
M16
G05
G00X3.6464Y-2.7273
M15
G01X3.6464Y-2.869
M16
G05
G00X3.6621Y-2.7273
M15
G01X3.6621Y-2.869
M16
G05
G00X3.6464Y-2.7273
M15
G01X3.8275Y-2.7273
M16
G05
G00X3.6464Y-2.869
M15
G01X3.8275Y-2.869
M16
G05
G00X3.8119Y-2.7272
M15
G01X3.8119Y-2.869
M16
G05
G00X3.8275Y-2.7273
M15
G01X3.8275Y-2.869
M16
G05
G00X4.3964Y-4.4148
M15
G01X4.3964Y-4.5565
M16
G05
G00X4.4121Y-4.4148
M15
G01X4.4121Y-4.5565
M16
G05
G00X4.3964Y-4.4148
M15
G01X4.5775Y-4.4148
M16
G05
G00X4.3964Y-4.5565
M15
G01X4.5775Y-4.5565
M16
G05
G00X4.5619Y-4.4147
M15
G01X4.5619Y-4.5565
M16
G05
G00X4.5775Y-4.4148
M15
G01X4.5775Y-4.5565
M16
G05
G00X5.1464Y-2.4148
M15
G01X5.1464Y-2.5565
M16
G05
G00X5.1621Y-2.4148
M15
G01X5.1621Y-2.5565
M16
G05
G00X5.1464Y-2.4148
M15
G01X5.3275Y-2.4148
M16
G05
G00X5.1464Y-2.5565
M15
G01X5.3275Y-2.5565
M16
G05
G00X5.3119Y-2.4147
M15
G01X5.3119Y-2.5565
M16
G05
G00X5.3275Y-2.4148
M15
G01X5.3275Y-2.5565
M16
G05
G00X5.8964Y-3.3523
M15
G01X5.8964Y-3.494
M16
G05
G00X5.9121Y-3.3523
M15
G01X5.9121Y-3.494
M16
G05
G00X5.8964Y-3.3523
M15
G01X6.0775Y-3.3523
M16
G05
G00X5.8964Y-3.494
M15
G01X6.0775Y-3.494
M16
G05
G00X6.0619Y-3.3522
M15
G01X6.0619Y-3.494
M16
G05
G00X6.0775Y-3.3523
M15
G01X6.0775Y-3.494
M16
G05
G00X6.6464Y-2.8523
M15
G01X6.6464Y-2.994
M16
G05
G00X6.6621Y-2.8523
M15
G01X6.6621Y-2.994
M16
G05
G00X6.6464Y-2.8523
M15
G01X6.8275Y-2.8523
M16
G05
G00X6.6464Y-2.994
M15
G01X6.8275Y-2.994
M16
G05
G00X6.8119Y-2.8522
M15
G01X6.8119Y-2.994
M16
G05
G00X6.8275Y-2.8523
M15
G01X6.8275Y-2.994
M16
G05
G00X5.8964Y-2.6023
M15
G01X5.8964Y-2.744
M16
G05
G00X5.9121Y-2.6023
M15
G01X5.9121Y-2.744
M16
G05
G00X5.8964Y-2.6023
M15
G01X6.0775Y-2.6023
M16
G05
G00X5.8964Y-2.744
M15
G01X6.0775Y-2.744
M16
G05
G00X6.0619Y-2.6022
M15
G01X6.0619Y-2.744
M16
G05
G00X6.0775Y-2.6023
M15
G01X6.0775Y-2.744
M16
G05
G00X4.4222Y-5.3761
M15
G01X4.3855Y-5.2392
M16
G05
G00X4.4373Y-5.3721
M15
G01X4.4006Y-5.2352
M16
G05
G00X4.5605Y-5.1923
M15
G01X4.3855Y-5.2392
M16
G05
G00X4.5972Y-5.3292
M15
G01X4.4222Y-5.3761
M16
G05
G00X4.5819Y-5.3333
M15
G01X4.5453Y-5.1964
M16
G05
G00X4.5972Y-5.3292
M15
G01X4.5605Y-5.1923
M16
G05
G00X7.3964Y-4.2273
M15
G01X7.3964Y-4.369
M16
G05
G00X7.4121Y-4.2273
M15
G01X7.4121Y-4.369
M16
G05
G00X7.3964Y-4.2273
M15
G01X7.5775Y-4.2273
M16
G05
G00X7.3964Y-4.369
M15
G01X7.5775Y-4.369
M16
G05
G00X7.5619Y-4.2272
M15
G01X7.5619Y-4.369
M16
G05
G00X7.5775Y-4.2273
M15
G01X7.5775Y-4.369
M16
G05
G00X3.6807Y-5.5761
M15
G01X3.644Y-5.4392
M16
G05
G00X3.6957Y-5.5721
M15
G01X3.659Y-5.4352
M16
G05
G00X3.8189Y-5.3923
M15
G01X3.644Y-5.4392
M16
G05
G00X3.8556Y-5.5292
M15
G01X3.6807Y-5.5761
M16
G05
G00X3.8404Y-5.5333
M15
G01X3.8037Y-5.3964
M16
G05
G00X3.8556Y-5.5292
M15
G01X3.8189Y-5.3923
M16
G05
G00X4.3964Y-2.9148
M15
G01X4.3964Y-3.0565
M16
G05
G00X4.4121Y-2.9148
M15
G01X4.4121Y-3.0565
M16
G05
G00X4.3964Y-2.9148
M15
G01X4.5775Y-2.9148
M16
G05
G00X4.3964Y-3.0565
M15
G01X4.5775Y-3.0565
M16
G05
G00X4.5619Y-2.9147
M15
G01X4.5619Y-3.0565
M16
G05
G00X4.5775Y-2.9148
M15
G01X4.5775Y-3.0565
M16
G05
G00X5.8964Y-4.1023
M15
G01X5.8964Y-4.244
M16
G05
G00X5.9121Y-4.1023
M15
G01X5.9121Y-4.244
M16
G05
G00X5.8964Y-4.1023
M15
G01X6.0775Y-4.1023
M16
G05
G00X5.8964Y-4.244
M15
G01X6.0775Y-4.244
M16
G05
G00X6.0619Y-4.1022
M15
G01X6.0619Y-4.244
M16
G05
G00X6.0775Y-4.1023
M15
G01X6.0775Y-4.244
M16
G05
G00X4.3964Y-3.6648
M15
G01X4.3964Y-3.8065
M16
G05
G00X4.4121Y-3.6648
M15
G01X4.4121Y-3.8065
M16
G05
G00X4.3964Y-3.6648
M15
G01X4.5775Y-3.6648
M16
G05
G00X4.3964Y-3.8065
M15
G01X4.5775Y-3.8065
M16
G05
G00X4.5619Y-3.6647
M15
G01X4.5619Y-3.8065
M16
G05
G00X4.5775Y-3.6648
M15
G01X4.5775Y-3.8065
M16
G05
G00X7.3964Y-2.7273
M15
G01X7.3964Y-2.869
M16
G05
G00X7.4121Y-2.7273
M15
G01X7.4121Y-2.869
M16
G05
G00X7.3964Y-2.7273
M15
G01X7.5775Y-2.7273
M16
G05
G00X7.3964Y-2.869
M15
G01X7.5775Y-2.869
M16
G05
G00X7.5619Y-2.7272
M15
G01X7.5619Y-2.869
M16
G05
G00X7.5775Y-2.7273
M15
G01X7.5775Y-2.869
M16
G05
G00X3.6465Y-4.2286
M15
G01X3.6465Y-4.3703
M16
G05
G00X3.6622Y-4.2286
M15
G01X3.6622Y-4.3703
M16
G05
G00X3.6465Y-4.2286
M15
G01X3.8276Y-4.2286
M16
G05
G00X3.6465Y-4.3703
M15
G01X3.8276Y-4.3703
M16
G05
G00X3.812Y-4.2286
M15
G01X3.812Y-4.3703
M16
G05
G00X3.8276Y-4.2286
M15
G01X3.8276Y-4.3703
M16
G05
G00X5.1464Y-4.6648
M15
G01X5.1464Y-4.8065
M16
G05
G00X5.1621Y-4.6648
M15
G01X5.1621Y-4.8065
M16
G05
G00X5.1464Y-4.6648
M15
G01X5.3275Y-4.6648
M16
G05
G00X5.1464Y-4.8065
M15
G01X5.3275Y-4.8065
M16
G05
G00X5.3119Y-4.6647
M15
G01X5.3119Y-4.8065
M16
G05
G00X5.3275Y-4.6648
M15
G01X5.3275Y-4.8065
M16
G05
T3
G00X5.166Y-4.0211
M15
G01X5.3078Y-4.0211
M16
G05
G00X3.666Y-2.8336
M15
G01X3.8078Y-2.8336
M16
G05
G00X4.416Y-4.5211
M15
G01X4.5578Y-4.5211
M16
G05
G00X5.166Y-2.5211
M15
G01X5.3078Y-2.5211
M16
G05
G00X5.916Y-3.4586
M15
G01X6.0578Y-3.4586
M16
G05
G00X6.666Y-2.9586
M15
G01X6.8078Y-2.9586
M16
G05
G00X5.916Y-2.7086
M15
G01X6.0578Y-2.7086
M16
G05
G00X4.5506Y-5.2317
M15
G01X4.4137Y-5.2683
M16
G05
G00X7.416Y-4.3336
M15
G01X7.5578Y-4.3336
M16
G05
G00X3.8091Y-5.4316
M15
G01X3.6722Y-5.4683
M16
G05
G00X4.416Y-3.0211
M15
G01X4.5578Y-3.0211
M16
G05
G00X5.916Y-4.2086
M15
G01X6.0578Y-4.2086
M16
G05
G00X4.416Y-3.7711
M15
G01X4.5578Y-3.7711
M16
G05
G00X7.416Y-2.8336
M15
G01X7.5578Y-2.8336
M16
G05
G00X3.6662Y-4.3349
M15
G01X3.8079Y-4.3349
M16
G05
G00X5.166Y-4.7711
M15
G01X5.3078Y-4.7711
M16
G05
G00X5.916Y-4.9586
M15
G01X6.0578Y-4.9586
M16
G05
G00X5.166Y-3.2711
M15
G01X5.3078Y-3.2711
M16
G05
G00X3.666Y-3.5836
M15
G01X3.8078Y-3.5836
M16
G05
G00X6.666Y-3.7086
M15
G01X6.8078Y-3.7086
M16
G05
G00X7.416Y-3.5836
M15
G01X7.5578Y-3.5836
M16
G05
G00X6.666Y-4.4586
M15
G01X6.8078Y-4.4586
M16
G05
T4
G00X5.0215Y-3.2
M15
G01X5.0382Y-3.2
M16
G05
G00X5.4368Y-3.2
M15
G01X5.4535Y-3.2
M16
G05
G00X3.5215Y-3.5125
M15
G01X3.5382Y-3.5125
M16
G05
G00X3.9368Y-3.5125
M15
G01X3.9535Y-3.5125
M16
G05
G00X6.5215Y-3.6375
M15
G01X6.5382Y-3.6375
M16
G05
G00X6.9368Y-3.6375
M15
G01X6.9535Y-3.6375
M16
G05
G00X7.2715Y-3.5125
M15
G01X7.2882Y-3.5125
M16
G05
G00X7.6868Y-3.5125
M15
G01X7.7035Y-3.5125
M16
G05
G00X6.5215Y-4.3875
M15
G01X6.5382Y-4.3875
M16
G05
G00X6.9368Y-4.3875
M15
G01X6.9535Y-4.3875
M16
G05
G00X5.0215Y-3.95
M15
G01X5.0382Y-3.95
M16
G05
G00X5.4368Y-3.95
M15
G01X5.4535Y-3.95
M16
G05
G00X3.5215Y-2.7625
M15
G01X3.5382Y-2.7625
M16
G05
G00X3.9368Y-2.7625
M15
G01X3.9535Y-2.7625
M16
G05
G00X4.2715Y-4.45
M15
G01X4.2882Y-4.45
M16
G05
G00X4.6868Y-4.45
M15
G01X4.7035Y-4.45
M16
G05
G00X5.0215Y-2.45
M15
G01X5.0382Y-2.45
M16
G05
G00X5.4368Y-2.45
M15
G01X5.4535Y-2.45
M16
G05
G00X5.7715Y-3.3875
M15
G01X5.7882Y-3.3875
M16
G05
G00X6.1868Y-3.3875
M15
G01X6.2035Y-3.3875
M16
G05
G00X6.5215Y-2.8875
M15
G01X6.5382Y-2.8875
M16
G05
G00X6.9368Y-2.8875
M15
G01X6.9535Y-2.8875
M16
G05
G00X5.7715Y-2.6375
M15
G01X5.7882Y-2.6375
M16
G05
G00X6.1868Y-2.6375
M15
G01X6.2035Y-2.6375
M16
G05
G00X4.3075Y-5.3704
M15
G01X4.2913Y-5.3747
M16
G05
G00X4.7087Y-5.2629
M15
G01X4.6925Y-5.2672
M16
G05
G00X7.2715Y-4.2625
M15
G01X7.2882Y-4.2625
M16
G05
G00X7.6868Y-4.2625
M15
G01X7.7035Y-4.2625
M16
G05
G00X3.566Y-5.5704
M15
G01X3.5498Y-5.5747
M16
G05
G00X3.9672Y-5.4629
M15
G01X3.951Y-5.4672
M16
G05
G00X4.2715Y-2.95
M15
G01X4.2882Y-2.95
M16
G05
G00X4.6868Y-2.95
M15
G01X4.7035Y-2.95
M16
G05
G00X5.7715Y-4.1375
M15
G01X5.7882Y-4.1375
M16
G05
G00X6.1868Y-4.1375
M15
G01X6.2035Y-4.1375
M16
G05
G00X4.2715Y-3.7
M15
G01X4.2882Y-3.7
M16
G05
G00X4.6868Y-3.7
M15
G01X4.7035Y-3.7
M16
G05
G00X7.2715Y-2.7625
M15
G01X7.2882Y-2.7625
M16
G05
G00X7.6868Y-2.7625
M15
G01X7.7035Y-2.7625
M16
G05
G00X3.5216Y-4.2638
M15
G01X3.5383Y-4.2638
M16
G05
G00X3.9369Y-4.2638
M15
G01X3.9537Y-4.2638
M16
G05
G00X5.0215Y-4.7
M15
G01X5.0382Y-4.7
M16
G05
G00X5.4368Y-4.7
M15
G01X5.4535Y-4.7
M16
G05
G00X5.7715Y-4.8875
M15
G01X5.7882Y-4.8875
M16
G05
G00X6.1868Y-4.8875
M15
G01X6.2035Y-4.8875
M16
G05
T0
M30
