G04 #@! TF.GenerationSoftware,KiCad,Pcbnew,(5.1.4)-1*
G04 #@! TF.CreationDate,2021-10-17T20:58:04-04:00*
G04 #@! TF.ProjectId,a44key-pcb,6134346b-6579-42d7-9063-622e6b696361,rev?*
G04 #@! TF.SameCoordinates,Original*
G04 #@! TF.FileFunction,Copper,L2,Bot*
G04 #@! TF.FilePolarity,Positive*
%FSLAX46Y46*%
G04 Gerber Fmt 4.6, Leading zero omitted, Abs format (unit mm)*
G04 Created by KiCad (PCBNEW (5.1.4)-1) date 2021-10-17 20:58:04*
%MOMM*%
%LPD*%
G04 APERTURE LIST*
%ADD10C,2.250000*%
%ADD11C,2.250000*%
%ADD12C,0.100000*%
%ADD13C,0.975000*%
%ADD14R,1.200000X0.900000*%
%ADD15R,1.800000X2.100000*%
%ADD16R,0.550000X1.500000*%
%ADD17R,1.500000X0.550000*%
%ADD18O,1.800000X2.800000*%
%ADD19O,2.700000X1.700000*%
%ADD20C,0.800000*%
%ADD21C,0.381000*%
%ADD22C,0.254000*%
G04 APERTURE END LIST*
D10*
X91482409Y-134895844D03*
X91038666Y-135770497D03*
D11*
X90594922Y-136645149D02*
X91482410Y-134895845D01*
D10*
X96071151Y-132548196D03*
X96126890Y-132833491D03*
D11*
X96182629Y-133118786D02*
X96071151Y-132548196D01*
D12*
G36*
X85944142Y-102044174D02*
G01*
X85967803Y-102047684D01*
X85991007Y-102053496D01*
X86013529Y-102061554D01*
X86035153Y-102071782D01*
X86055670Y-102084079D01*
X86074883Y-102098329D01*
X86092607Y-102114393D01*
X86108671Y-102132117D01*
X86122921Y-102151330D01*
X86135218Y-102171847D01*
X86145446Y-102193471D01*
X86153504Y-102215993D01*
X86159316Y-102239197D01*
X86162826Y-102262858D01*
X86164000Y-102286750D01*
X86164000Y-103199250D01*
X86162826Y-103223142D01*
X86159316Y-103246803D01*
X86153504Y-103270007D01*
X86145446Y-103292529D01*
X86135218Y-103314153D01*
X86122921Y-103334670D01*
X86108671Y-103353883D01*
X86092607Y-103371607D01*
X86074883Y-103387671D01*
X86055670Y-103401921D01*
X86035153Y-103414218D01*
X86013529Y-103424446D01*
X85991007Y-103432504D01*
X85967803Y-103438316D01*
X85944142Y-103441826D01*
X85920250Y-103443000D01*
X85432750Y-103443000D01*
X85408858Y-103441826D01*
X85385197Y-103438316D01*
X85361993Y-103432504D01*
X85339471Y-103424446D01*
X85317847Y-103414218D01*
X85297330Y-103401921D01*
X85278117Y-103387671D01*
X85260393Y-103371607D01*
X85244329Y-103353883D01*
X85230079Y-103334670D01*
X85217782Y-103314153D01*
X85207554Y-103292529D01*
X85199496Y-103270007D01*
X85193684Y-103246803D01*
X85190174Y-103223142D01*
X85189000Y-103199250D01*
X85189000Y-102286750D01*
X85190174Y-102262858D01*
X85193684Y-102239197D01*
X85199496Y-102215993D01*
X85207554Y-102193471D01*
X85217782Y-102171847D01*
X85230079Y-102151330D01*
X85244329Y-102132117D01*
X85260393Y-102114393D01*
X85278117Y-102098329D01*
X85297330Y-102084079D01*
X85317847Y-102071782D01*
X85339471Y-102061554D01*
X85361993Y-102053496D01*
X85385197Y-102047684D01*
X85408858Y-102044174D01*
X85432750Y-102043000D01*
X85920250Y-102043000D01*
X85944142Y-102044174D01*
X85944142Y-102044174D01*
G37*
D13*
X85676500Y-102743000D03*
D12*
G36*
X87819142Y-102044174D02*
G01*
X87842803Y-102047684D01*
X87866007Y-102053496D01*
X87888529Y-102061554D01*
X87910153Y-102071782D01*
X87930670Y-102084079D01*
X87949883Y-102098329D01*
X87967607Y-102114393D01*
X87983671Y-102132117D01*
X87997921Y-102151330D01*
X88010218Y-102171847D01*
X88020446Y-102193471D01*
X88028504Y-102215993D01*
X88034316Y-102239197D01*
X88037826Y-102262858D01*
X88039000Y-102286750D01*
X88039000Y-103199250D01*
X88037826Y-103223142D01*
X88034316Y-103246803D01*
X88028504Y-103270007D01*
X88020446Y-103292529D01*
X88010218Y-103314153D01*
X87997921Y-103334670D01*
X87983671Y-103353883D01*
X87967607Y-103371607D01*
X87949883Y-103387671D01*
X87930670Y-103401921D01*
X87910153Y-103414218D01*
X87888529Y-103424446D01*
X87866007Y-103432504D01*
X87842803Y-103438316D01*
X87819142Y-103441826D01*
X87795250Y-103443000D01*
X87307750Y-103443000D01*
X87283858Y-103441826D01*
X87260197Y-103438316D01*
X87236993Y-103432504D01*
X87214471Y-103424446D01*
X87192847Y-103414218D01*
X87172330Y-103401921D01*
X87153117Y-103387671D01*
X87135393Y-103371607D01*
X87119329Y-103353883D01*
X87105079Y-103334670D01*
X87092782Y-103314153D01*
X87082554Y-103292529D01*
X87074496Y-103270007D01*
X87068684Y-103246803D01*
X87065174Y-103223142D01*
X87064000Y-103199250D01*
X87064000Y-102286750D01*
X87065174Y-102262858D01*
X87068684Y-102239197D01*
X87074496Y-102215993D01*
X87082554Y-102193471D01*
X87092782Y-102171847D01*
X87105079Y-102151330D01*
X87119329Y-102132117D01*
X87135393Y-102114393D01*
X87153117Y-102098329D01*
X87172330Y-102084079D01*
X87192847Y-102071782D01*
X87214471Y-102061554D01*
X87236993Y-102053496D01*
X87260197Y-102047684D01*
X87283858Y-102044174D01*
X87307750Y-102043000D01*
X87795250Y-102043000D01*
X87819142Y-102044174D01*
X87819142Y-102044174D01*
G37*
D13*
X87551500Y-102743000D03*
D12*
G36*
X91931642Y-130492174D02*
G01*
X91955303Y-130495684D01*
X91978507Y-130501496D01*
X92001029Y-130509554D01*
X92022653Y-130519782D01*
X92043170Y-130532079D01*
X92062383Y-130546329D01*
X92080107Y-130562393D01*
X92096171Y-130580117D01*
X92110421Y-130599330D01*
X92122718Y-130619847D01*
X92132946Y-130641471D01*
X92141004Y-130663993D01*
X92146816Y-130687197D01*
X92150326Y-130710858D01*
X92151500Y-130734750D01*
X92151500Y-131647250D01*
X92150326Y-131671142D01*
X92146816Y-131694803D01*
X92141004Y-131718007D01*
X92132946Y-131740529D01*
X92122718Y-131762153D01*
X92110421Y-131782670D01*
X92096171Y-131801883D01*
X92080107Y-131819607D01*
X92062383Y-131835671D01*
X92043170Y-131849921D01*
X92022653Y-131862218D01*
X92001029Y-131872446D01*
X91978507Y-131880504D01*
X91955303Y-131886316D01*
X91931642Y-131889826D01*
X91907750Y-131891000D01*
X91420250Y-131891000D01*
X91396358Y-131889826D01*
X91372697Y-131886316D01*
X91349493Y-131880504D01*
X91326971Y-131872446D01*
X91305347Y-131862218D01*
X91284830Y-131849921D01*
X91265617Y-131835671D01*
X91247893Y-131819607D01*
X91231829Y-131801883D01*
X91217579Y-131782670D01*
X91205282Y-131762153D01*
X91195054Y-131740529D01*
X91186996Y-131718007D01*
X91181184Y-131694803D01*
X91177674Y-131671142D01*
X91176500Y-131647250D01*
X91176500Y-130734750D01*
X91177674Y-130710858D01*
X91181184Y-130687197D01*
X91186996Y-130663993D01*
X91195054Y-130641471D01*
X91205282Y-130619847D01*
X91217579Y-130599330D01*
X91231829Y-130580117D01*
X91247893Y-130562393D01*
X91265617Y-130546329D01*
X91284830Y-130532079D01*
X91305347Y-130519782D01*
X91326971Y-130509554D01*
X91349493Y-130501496D01*
X91372697Y-130495684D01*
X91396358Y-130492174D01*
X91420250Y-130491000D01*
X91907750Y-130491000D01*
X91931642Y-130492174D01*
X91931642Y-130492174D01*
G37*
D13*
X91664000Y-131191000D03*
D12*
G36*
X90056642Y-130492174D02*
G01*
X90080303Y-130495684D01*
X90103507Y-130501496D01*
X90126029Y-130509554D01*
X90147653Y-130519782D01*
X90168170Y-130532079D01*
X90187383Y-130546329D01*
X90205107Y-130562393D01*
X90221171Y-130580117D01*
X90235421Y-130599330D01*
X90247718Y-130619847D01*
X90257946Y-130641471D01*
X90266004Y-130663993D01*
X90271816Y-130687197D01*
X90275326Y-130710858D01*
X90276500Y-130734750D01*
X90276500Y-131647250D01*
X90275326Y-131671142D01*
X90271816Y-131694803D01*
X90266004Y-131718007D01*
X90257946Y-131740529D01*
X90247718Y-131762153D01*
X90235421Y-131782670D01*
X90221171Y-131801883D01*
X90205107Y-131819607D01*
X90187383Y-131835671D01*
X90168170Y-131849921D01*
X90147653Y-131862218D01*
X90126029Y-131872446D01*
X90103507Y-131880504D01*
X90080303Y-131886316D01*
X90056642Y-131889826D01*
X90032750Y-131891000D01*
X89545250Y-131891000D01*
X89521358Y-131889826D01*
X89497697Y-131886316D01*
X89474493Y-131880504D01*
X89451971Y-131872446D01*
X89430347Y-131862218D01*
X89409830Y-131849921D01*
X89390617Y-131835671D01*
X89372893Y-131819607D01*
X89356829Y-131801883D01*
X89342579Y-131782670D01*
X89330282Y-131762153D01*
X89320054Y-131740529D01*
X89311996Y-131718007D01*
X89306184Y-131694803D01*
X89302674Y-131671142D01*
X89301500Y-131647250D01*
X89301500Y-130734750D01*
X89302674Y-130710858D01*
X89306184Y-130687197D01*
X89311996Y-130663993D01*
X89320054Y-130641471D01*
X89330282Y-130619847D01*
X89342579Y-130599330D01*
X89356829Y-130580117D01*
X89372893Y-130562393D01*
X89390617Y-130546329D01*
X89409830Y-130532079D01*
X89430347Y-130519782D01*
X89451971Y-130509554D01*
X89474493Y-130501496D01*
X89497697Y-130495684D01*
X89521358Y-130492174D01*
X89545250Y-130491000D01*
X90032750Y-130491000D01*
X90056642Y-130492174D01*
X90056642Y-130492174D01*
G37*
D13*
X89789000Y-131191000D03*
D10*
X187682500Y-104267500D03*
X187027501Y-104997500D03*
D11*
X186372500Y-105727500D02*
X187682502Y-104267500D01*
D10*
X192722500Y-103187500D03*
X192702500Y-103477500D03*
D11*
X192682500Y-103767500D02*
X192722500Y-103187500D01*
D14*
X104457500Y-128173750D03*
X104457500Y-124873750D03*
X105251250Y-113761250D03*
X105251250Y-117061250D03*
X101282500Y-113761250D03*
X101282500Y-117061250D03*
X109220000Y-128173750D03*
X109220000Y-124873750D03*
X139382500Y-123286250D03*
X139382500Y-126586250D03*
X179863750Y-114555000D03*
X179863750Y-117855000D03*
X183832500Y-114555000D03*
X183832500Y-117855000D03*
D10*
X111482500Y-109030000D03*
X110827501Y-109760000D03*
D11*
X110172500Y-110490000D02*
X111482502Y-109030000D01*
D10*
X116522500Y-107950000D03*
X116502500Y-108240000D03*
D11*
X116482500Y-108530000D02*
X116522500Y-107950000D01*
D14*
X143351250Y-123223750D03*
X143351250Y-126523750D03*
D10*
X130532500Y-115380000D03*
X129877501Y-116110000D03*
D11*
X129222500Y-116840000D02*
X130532502Y-115380000D01*
D10*
X135572500Y-114300000D03*
X135552500Y-114590000D03*
D11*
X135532500Y-114880000D02*
X135572500Y-114300000D01*
D10*
X92432500Y-104267500D03*
X91777501Y-104997500D03*
D11*
X91122500Y-105727500D02*
X92432502Y-104267500D01*
D10*
X97472500Y-103187500D03*
X97452500Y-103477500D03*
D11*
X97432500Y-103767500D02*
X97472500Y-103187500D01*
D10*
X149582500Y-120142500D03*
X148927501Y-120872500D03*
D11*
X148272500Y-121602500D02*
X149582502Y-120142500D01*
D10*
X154622500Y-119062500D03*
X154602500Y-119352500D03*
D11*
X154582500Y-119642500D02*
X154622500Y-119062500D01*
D10*
X110532409Y-132038344D03*
X110088666Y-132912997D03*
D11*
X109644922Y-133787649D02*
X110532410Y-132038345D01*
D10*
X115121151Y-129690696D03*
X115176890Y-129975991D03*
D11*
X115232629Y-130261286D02*
X115121151Y-129690696D01*
D10*
X149582500Y-101092500D03*
X148927501Y-101822500D03*
D11*
X148272500Y-102552500D02*
X149582502Y-101092500D01*
D10*
X154622500Y-100012500D03*
X154602500Y-100302500D03*
D11*
X154582500Y-100592500D02*
X154622500Y-100012500D01*
D10*
X168632500Y-107442500D03*
X167977501Y-108172500D03*
D11*
X167322500Y-108902500D02*
X168632502Y-107442500D01*
D10*
X173672500Y-106362500D03*
X173652500Y-106652500D03*
D11*
X173632500Y-106942500D02*
X173672500Y-106362500D01*
D12*
G36*
X82182642Y-130746174D02*
G01*
X82206303Y-130749684D01*
X82229507Y-130755496D01*
X82252029Y-130763554D01*
X82273653Y-130773782D01*
X82294170Y-130786079D01*
X82313383Y-130800329D01*
X82331107Y-130816393D01*
X82347171Y-130834117D01*
X82361421Y-130853330D01*
X82373718Y-130873847D01*
X82383946Y-130895471D01*
X82392004Y-130917993D01*
X82397816Y-130941197D01*
X82401326Y-130964858D01*
X82402500Y-130988750D01*
X82402500Y-131901250D01*
X82401326Y-131925142D01*
X82397816Y-131948803D01*
X82392004Y-131972007D01*
X82383946Y-131994529D01*
X82373718Y-132016153D01*
X82361421Y-132036670D01*
X82347171Y-132055883D01*
X82331107Y-132073607D01*
X82313383Y-132089671D01*
X82294170Y-132103921D01*
X82273653Y-132116218D01*
X82252029Y-132126446D01*
X82229507Y-132134504D01*
X82206303Y-132140316D01*
X82182642Y-132143826D01*
X82158750Y-132145000D01*
X81671250Y-132145000D01*
X81647358Y-132143826D01*
X81623697Y-132140316D01*
X81600493Y-132134504D01*
X81577971Y-132126446D01*
X81556347Y-132116218D01*
X81535830Y-132103921D01*
X81516617Y-132089671D01*
X81498893Y-132073607D01*
X81482829Y-132055883D01*
X81468579Y-132036670D01*
X81456282Y-132016153D01*
X81446054Y-131994529D01*
X81437996Y-131972007D01*
X81432184Y-131948803D01*
X81428674Y-131925142D01*
X81427500Y-131901250D01*
X81427500Y-130988750D01*
X81428674Y-130964858D01*
X81432184Y-130941197D01*
X81437996Y-130917993D01*
X81446054Y-130895471D01*
X81456282Y-130873847D01*
X81468579Y-130853330D01*
X81482829Y-130834117D01*
X81498893Y-130816393D01*
X81516617Y-130800329D01*
X81535830Y-130786079D01*
X81556347Y-130773782D01*
X81577971Y-130763554D01*
X81600493Y-130755496D01*
X81623697Y-130749684D01*
X81647358Y-130746174D01*
X81671250Y-130745000D01*
X82158750Y-130745000D01*
X82182642Y-130746174D01*
X82182642Y-130746174D01*
G37*
D13*
X81915000Y-131445000D03*
D12*
G36*
X80307642Y-130746174D02*
G01*
X80331303Y-130749684D01*
X80354507Y-130755496D01*
X80377029Y-130763554D01*
X80398653Y-130773782D01*
X80419170Y-130786079D01*
X80438383Y-130800329D01*
X80456107Y-130816393D01*
X80472171Y-130834117D01*
X80486421Y-130853330D01*
X80498718Y-130873847D01*
X80508946Y-130895471D01*
X80517004Y-130917993D01*
X80522816Y-130941197D01*
X80526326Y-130964858D01*
X80527500Y-130988750D01*
X80527500Y-131901250D01*
X80526326Y-131925142D01*
X80522816Y-131948803D01*
X80517004Y-131972007D01*
X80508946Y-131994529D01*
X80498718Y-132016153D01*
X80486421Y-132036670D01*
X80472171Y-132055883D01*
X80456107Y-132073607D01*
X80438383Y-132089671D01*
X80419170Y-132103921D01*
X80398653Y-132116218D01*
X80377029Y-132126446D01*
X80354507Y-132134504D01*
X80331303Y-132140316D01*
X80307642Y-132143826D01*
X80283750Y-132145000D01*
X79796250Y-132145000D01*
X79772358Y-132143826D01*
X79748697Y-132140316D01*
X79725493Y-132134504D01*
X79702971Y-132126446D01*
X79681347Y-132116218D01*
X79660830Y-132103921D01*
X79641617Y-132089671D01*
X79623893Y-132073607D01*
X79607829Y-132055883D01*
X79593579Y-132036670D01*
X79581282Y-132016153D01*
X79571054Y-131994529D01*
X79562996Y-131972007D01*
X79557184Y-131948803D01*
X79553674Y-131925142D01*
X79552500Y-131901250D01*
X79552500Y-130988750D01*
X79553674Y-130964858D01*
X79557184Y-130941197D01*
X79562996Y-130917993D01*
X79571054Y-130895471D01*
X79581282Y-130873847D01*
X79593579Y-130853330D01*
X79607829Y-130834117D01*
X79623893Y-130816393D01*
X79641617Y-130800329D01*
X79660830Y-130786079D01*
X79681347Y-130773782D01*
X79702971Y-130763554D01*
X79725493Y-130755496D01*
X79748697Y-130749684D01*
X79772358Y-130746174D01*
X79796250Y-130745000D01*
X80283750Y-130745000D01*
X80307642Y-130746174D01*
X80307642Y-130746174D01*
G37*
D13*
X80040000Y-131445000D03*
D12*
G36*
X77061142Y-115367674D02*
G01*
X77084803Y-115371184D01*
X77108007Y-115376996D01*
X77130529Y-115385054D01*
X77152153Y-115395282D01*
X77172670Y-115407579D01*
X77191883Y-115421829D01*
X77209607Y-115437893D01*
X77225671Y-115455617D01*
X77239921Y-115474830D01*
X77252218Y-115495347D01*
X77262446Y-115516971D01*
X77270504Y-115539493D01*
X77276316Y-115562697D01*
X77279826Y-115586358D01*
X77281000Y-115610250D01*
X77281000Y-116097750D01*
X77279826Y-116121642D01*
X77276316Y-116145303D01*
X77270504Y-116168507D01*
X77262446Y-116191029D01*
X77252218Y-116212653D01*
X77239921Y-116233170D01*
X77225671Y-116252383D01*
X77209607Y-116270107D01*
X77191883Y-116286171D01*
X77172670Y-116300421D01*
X77152153Y-116312718D01*
X77130529Y-116322946D01*
X77108007Y-116331004D01*
X77084803Y-116336816D01*
X77061142Y-116340326D01*
X77037250Y-116341500D01*
X76124750Y-116341500D01*
X76100858Y-116340326D01*
X76077197Y-116336816D01*
X76053993Y-116331004D01*
X76031471Y-116322946D01*
X76009847Y-116312718D01*
X75989330Y-116300421D01*
X75970117Y-116286171D01*
X75952393Y-116270107D01*
X75936329Y-116252383D01*
X75922079Y-116233170D01*
X75909782Y-116212653D01*
X75899554Y-116191029D01*
X75891496Y-116168507D01*
X75885684Y-116145303D01*
X75882174Y-116121642D01*
X75881000Y-116097750D01*
X75881000Y-115610250D01*
X75882174Y-115586358D01*
X75885684Y-115562697D01*
X75891496Y-115539493D01*
X75899554Y-115516971D01*
X75909782Y-115495347D01*
X75922079Y-115474830D01*
X75936329Y-115455617D01*
X75952393Y-115437893D01*
X75970117Y-115421829D01*
X75989330Y-115407579D01*
X76009847Y-115395282D01*
X76031471Y-115385054D01*
X76053993Y-115376996D01*
X76077197Y-115371184D01*
X76100858Y-115367674D01*
X76124750Y-115366500D01*
X77037250Y-115366500D01*
X77061142Y-115367674D01*
X77061142Y-115367674D01*
G37*
D13*
X76581000Y-115854000D03*
D12*
G36*
X77061142Y-117242674D02*
G01*
X77084803Y-117246184D01*
X77108007Y-117251996D01*
X77130529Y-117260054D01*
X77152153Y-117270282D01*
X77172670Y-117282579D01*
X77191883Y-117296829D01*
X77209607Y-117312893D01*
X77225671Y-117330617D01*
X77239921Y-117349830D01*
X77252218Y-117370347D01*
X77262446Y-117391971D01*
X77270504Y-117414493D01*
X77276316Y-117437697D01*
X77279826Y-117461358D01*
X77281000Y-117485250D01*
X77281000Y-117972750D01*
X77279826Y-117996642D01*
X77276316Y-118020303D01*
X77270504Y-118043507D01*
X77262446Y-118066029D01*
X77252218Y-118087653D01*
X77239921Y-118108170D01*
X77225671Y-118127383D01*
X77209607Y-118145107D01*
X77191883Y-118161171D01*
X77172670Y-118175421D01*
X77152153Y-118187718D01*
X77130529Y-118197946D01*
X77108007Y-118206004D01*
X77084803Y-118211816D01*
X77061142Y-118215326D01*
X77037250Y-118216500D01*
X76124750Y-118216500D01*
X76100858Y-118215326D01*
X76077197Y-118211816D01*
X76053993Y-118206004D01*
X76031471Y-118197946D01*
X76009847Y-118187718D01*
X75989330Y-118175421D01*
X75970117Y-118161171D01*
X75952393Y-118145107D01*
X75936329Y-118127383D01*
X75922079Y-118108170D01*
X75909782Y-118087653D01*
X75899554Y-118066029D01*
X75891496Y-118043507D01*
X75885684Y-118020303D01*
X75882174Y-117996642D01*
X75881000Y-117972750D01*
X75881000Y-117485250D01*
X75882174Y-117461358D01*
X75885684Y-117437697D01*
X75891496Y-117414493D01*
X75899554Y-117391971D01*
X75909782Y-117370347D01*
X75922079Y-117349830D01*
X75936329Y-117330617D01*
X75952393Y-117312893D01*
X75970117Y-117296829D01*
X75989330Y-117282579D01*
X76009847Y-117270282D01*
X76031471Y-117260054D01*
X76053993Y-117251996D01*
X76077197Y-117246184D01*
X76100858Y-117242674D01*
X76124750Y-117241500D01*
X77037250Y-117241500D01*
X77061142Y-117242674D01*
X77061142Y-117242674D01*
G37*
D13*
X76581000Y-117729000D03*
D12*
G36*
X91326642Y-112902674D02*
G01*
X91350303Y-112906184D01*
X91373507Y-112911996D01*
X91396029Y-112920054D01*
X91417653Y-112930282D01*
X91438170Y-112942579D01*
X91457383Y-112956829D01*
X91475107Y-112972893D01*
X91491171Y-112990617D01*
X91505421Y-113009830D01*
X91517718Y-113030347D01*
X91527946Y-113051971D01*
X91536004Y-113074493D01*
X91541816Y-113097697D01*
X91545326Y-113121358D01*
X91546500Y-113145250D01*
X91546500Y-114057750D01*
X91545326Y-114081642D01*
X91541816Y-114105303D01*
X91536004Y-114128507D01*
X91527946Y-114151029D01*
X91517718Y-114172653D01*
X91505421Y-114193170D01*
X91491171Y-114212383D01*
X91475107Y-114230107D01*
X91457383Y-114246171D01*
X91438170Y-114260421D01*
X91417653Y-114272718D01*
X91396029Y-114282946D01*
X91373507Y-114291004D01*
X91350303Y-114296816D01*
X91326642Y-114300326D01*
X91302750Y-114301500D01*
X90815250Y-114301500D01*
X90791358Y-114300326D01*
X90767697Y-114296816D01*
X90744493Y-114291004D01*
X90721971Y-114282946D01*
X90700347Y-114272718D01*
X90679830Y-114260421D01*
X90660617Y-114246171D01*
X90642893Y-114230107D01*
X90626829Y-114212383D01*
X90612579Y-114193170D01*
X90600282Y-114172653D01*
X90590054Y-114151029D01*
X90581996Y-114128507D01*
X90576184Y-114105303D01*
X90572674Y-114081642D01*
X90571500Y-114057750D01*
X90571500Y-113145250D01*
X90572674Y-113121358D01*
X90576184Y-113097697D01*
X90581996Y-113074493D01*
X90590054Y-113051971D01*
X90600282Y-113030347D01*
X90612579Y-113009830D01*
X90626829Y-112990617D01*
X90642893Y-112972893D01*
X90660617Y-112956829D01*
X90679830Y-112942579D01*
X90700347Y-112930282D01*
X90721971Y-112920054D01*
X90744493Y-112911996D01*
X90767697Y-112906184D01*
X90791358Y-112902674D01*
X90815250Y-112901500D01*
X91302750Y-112901500D01*
X91326642Y-112902674D01*
X91326642Y-112902674D01*
G37*
D13*
X91059000Y-113601500D03*
D12*
G36*
X93201642Y-112902674D02*
G01*
X93225303Y-112906184D01*
X93248507Y-112911996D01*
X93271029Y-112920054D01*
X93292653Y-112930282D01*
X93313170Y-112942579D01*
X93332383Y-112956829D01*
X93350107Y-112972893D01*
X93366171Y-112990617D01*
X93380421Y-113009830D01*
X93392718Y-113030347D01*
X93402946Y-113051971D01*
X93411004Y-113074493D01*
X93416816Y-113097697D01*
X93420326Y-113121358D01*
X93421500Y-113145250D01*
X93421500Y-114057750D01*
X93420326Y-114081642D01*
X93416816Y-114105303D01*
X93411004Y-114128507D01*
X93402946Y-114151029D01*
X93392718Y-114172653D01*
X93380421Y-114193170D01*
X93366171Y-114212383D01*
X93350107Y-114230107D01*
X93332383Y-114246171D01*
X93313170Y-114260421D01*
X93292653Y-114272718D01*
X93271029Y-114282946D01*
X93248507Y-114291004D01*
X93225303Y-114296816D01*
X93201642Y-114300326D01*
X93177750Y-114301500D01*
X92690250Y-114301500D01*
X92666358Y-114300326D01*
X92642697Y-114296816D01*
X92619493Y-114291004D01*
X92596971Y-114282946D01*
X92575347Y-114272718D01*
X92554830Y-114260421D01*
X92535617Y-114246171D01*
X92517893Y-114230107D01*
X92501829Y-114212383D01*
X92487579Y-114193170D01*
X92475282Y-114172653D01*
X92465054Y-114151029D01*
X92456996Y-114128507D01*
X92451184Y-114105303D01*
X92447674Y-114081642D01*
X92446500Y-114057750D01*
X92446500Y-113145250D01*
X92447674Y-113121358D01*
X92451184Y-113097697D01*
X92456996Y-113074493D01*
X92465054Y-113051971D01*
X92475282Y-113030347D01*
X92487579Y-113009830D01*
X92501829Y-112990617D01*
X92517893Y-112972893D01*
X92535617Y-112956829D01*
X92554830Y-112942579D01*
X92575347Y-112930282D01*
X92596971Y-112920054D01*
X92619493Y-112911996D01*
X92642697Y-112906184D01*
X92666358Y-112902674D01*
X92690250Y-112901500D01*
X93177750Y-112901500D01*
X93201642Y-112902674D01*
X93201642Y-112902674D01*
G37*
D13*
X92934000Y-113601500D03*
D12*
G36*
X82279642Y-112712174D02*
G01*
X82303303Y-112715684D01*
X82326507Y-112721496D01*
X82349029Y-112729554D01*
X82370653Y-112739782D01*
X82391170Y-112752079D01*
X82410383Y-112766329D01*
X82428107Y-112782393D01*
X82444171Y-112800117D01*
X82458421Y-112819330D01*
X82470718Y-112839847D01*
X82480946Y-112861471D01*
X82489004Y-112883993D01*
X82494816Y-112907197D01*
X82498326Y-112930858D01*
X82499500Y-112954750D01*
X82499500Y-113867250D01*
X82498326Y-113891142D01*
X82494816Y-113914803D01*
X82489004Y-113938007D01*
X82480946Y-113960529D01*
X82470718Y-113982153D01*
X82458421Y-114002670D01*
X82444171Y-114021883D01*
X82428107Y-114039607D01*
X82410383Y-114055671D01*
X82391170Y-114069921D01*
X82370653Y-114082218D01*
X82349029Y-114092446D01*
X82326507Y-114100504D01*
X82303303Y-114106316D01*
X82279642Y-114109826D01*
X82255750Y-114111000D01*
X81768250Y-114111000D01*
X81744358Y-114109826D01*
X81720697Y-114106316D01*
X81697493Y-114100504D01*
X81674971Y-114092446D01*
X81653347Y-114082218D01*
X81632830Y-114069921D01*
X81613617Y-114055671D01*
X81595893Y-114039607D01*
X81579829Y-114021883D01*
X81565579Y-114002670D01*
X81553282Y-113982153D01*
X81543054Y-113960529D01*
X81534996Y-113938007D01*
X81529184Y-113914803D01*
X81525674Y-113891142D01*
X81524500Y-113867250D01*
X81524500Y-112954750D01*
X81525674Y-112930858D01*
X81529184Y-112907197D01*
X81534996Y-112883993D01*
X81543054Y-112861471D01*
X81553282Y-112839847D01*
X81565579Y-112819330D01*
X81579829Y-112800117D01*
X81595893Y-112782393D01*
X81613617Y-112766329D01*
X81632830Y-112752079D01*
X81653347Y-112739782D01*
X81674971Y-112729554D01*
X81697493Y-112721496D01*
X81720697Y-112715684D01*
X81744358Y-112712174D01*
X81768250Y-112711000D01*
X82255750Y-112711000D01*
X82279642Y-112712174D01*
X82279642Y-112712174D01*
G37*
D13*
X82012000Y-113411000D03*
D12*
G36*
X80404642Y-112712174D02*
G01*
X80428303Y-112715684D01*
X80451507Y-112721496D01*
X80474029Y-112729554D01*
X80495653Y-112739782D01*
X80516170Y-112752079D01*
X80535383Y-112766329D01*
X80553107Y-112782393D01*
X80569171Y-112800117D01*
X80583421Y-112819330D01*
X80595718Y-112839847D01*
X80605946Y-112861471D01*
X80614004Y-112883993D01*
X80619816Y-112907197D01*
X80623326Y-112930858D01*
X80624500Y-112954750D01*
X80624500Y-113867250D01*
X80623326Y-113891142D01*
X80619816Y-113914803D01*
X80614004Y-113938007D01*
X80605946Y-113960529D01*
X80595718Y-113982153D01*
X80583421Y-114002670D01*
X80569171Y-114021883D01*
X80553107Y-114039607D01*
X80535383Y-114055671D01*
X80516170Y-114069921D01*
X80495653Y-114082218D01*
X80474029Y-114092446D01*
X80451507Y-114100504D01*
X80428303Y-114106316D01*
X80404642Y-114109826D01*
X80380750Y-114111000D01*
X79893250Y-114111000D01*
X79869358Y-114109826D01*
X79845697Y-114106316D01*
X79822493Y-114100504D01*
X79799971Y-114092446D01*
X79778347Y-114082218D01*
X79757830Y-114069921D01*
X79738617Y-114055671D01*
X79720893Y-114039607D01*
X79704829Y-114021883D01*
X79690579Y-114002670D01*
X79678282Y-113982153D01*
X79668054Y-113960529D01*
X79659996Y-113938007D01*
X79654184Y-113914803D01*
X79650674Y-113891142D01*
X79649500Y-113867250D01*
X79649500Y-112954750D01*
X79650674Y-112930858D01*
X79654184Y-112907197D01*
X79659996Y-112883993D01*
X79668054Y-112861471D01*
X79678282Y-112839847D01*
X79690579Y-112819330D01*
X79704829Y-112800117D01*
X79720893Y-112782393D01*
X79738617Y-112766329D01*
X79757830Y-112752079D01*
X79778347Y-112739782D01*
X79799971Y-112729554D01*
X79822493Y-112721496D01*
X79845697Y-112715684D01*
X79869358Y-112712174D01*
X79893250Y-112711000D01*
X80380750Y-112711000D01*
X80404642Y-112712174D01*
X80404642Y-112712174D01*
G37*
D13*
X80137000Y-113411000D03*
D15*
X84709000Y-109093000D03*
X84709000Y-106193000D03*
X82409000Y-106193000D03*
X82409000Y-109093000D03*
D16*
X81471000Y-127747000D03*
X82271000Y-127747000D03*
X83071000Y-127747000D03*
X83871000Y-127747000D03*
X84671000Y-127747000D03*
X85471000Y-127747000D03*
X86271000Y-127747000D03*
X87071000Y-127747000D03*
X87871000Y-127747000D03*
X88671000Y-127747000D03*
X89471000Y-127747000D03*
D17*
X91171000Y-126047000D03*
X91171000Y-125247000D03*
X91171000Y-124447000D03*
X91171000Y-123647000D03*
X91171000Y-122847000D03*
X91171000Y-122047000D03*
X91171000Y-121247000D03*
X91171000Y-120447000D03*
X91171000Y-119647000D03*
X91171000Y-118847000D03*
X91171000Y-118047000D03*
D16*
X89471000Y-116347000D03*
X88671000Y-116347000D03*
X87871000Y-116347000D03*
X87071000Y-116347000D03*
X86271000Y-116347000D03*
X85471000Y-116347000D03*
X84671000Y-116347000D03*
X83871000Y-116347000D03*
X83071000Y-116347000D03*
X82271000Y-116347000D03*
X81471000Y-116347000D03*
D17*
X79771000Y-118047000D03*
X79771000Y-118847000D03*
X79771000Y-119647000D03*
X79771000Y-120447000D03*
X79771000Y-121247000D03*
X79771000Y-122047000D03*
X79771000Y-122847000D03*
X79771000Y-123647000D03*
X79771000Y-124447000D03*
X79771000Y-125247000D03*
X79771000Y-126047000D03*
D12*
G36*
X78626642Y-112585174D02*
G01*
X78650303Y-112588684D01*
X78673507Y-112594496D01*
X78696029Y-112602554D01*
X78717653Y-112612782D01*
X78738170Y-112625079D01*
X78757383Y-112639329D01*
X78775107Y-112655393D01*
X78791171Y-112673117D01*
X78805421Y-112692330D01*
X78817718Y-112712847D01*
X78827946Y-112734471D01*
X78836004Y-112756993D01*
X78841816Y-112780197D01*
X78845326Y-112803858D01*
X78846500Y-112827750D01*
X78846500Y-113740250D01*
X78845326Y-113764142D01*
X78841816Y-113787803D01*
X78836004Y-113811007D01*
X78827946Y-113833529D01*
X78817718Y-113855153D01*
X78805421Y-113875670D01*
X78791171Y-113894883D01*
X78775107Y-113912607D01*
X78757383Y-113928671D01*
X78738170Y-113942921D01*
X78717653Y-113955218D01*
X78696029Y-113965446D01*
X78673507Y-113973504D01*
X78650303Y-113979316D01*
X78626642Y-113982826D01*
X78602750Y-113984000D01*
X78115250Y-113984000D01*
X78091358Y-113982826D01*
X78067697Y-113979316D01*
X78044493Y-113973504D01*
X78021971Y-113965446D01*
X78000347Y-113955218D01*
X77979830Y-113942921D01*
X77960617Y-113928671D01*
X77942893Y-113912607D01*
X77926829Y-113894883D01*
X77912579Y-113875670D01*
X77900282Y-113855153D01*
X77890054Y-113833529D01*
X77881996Y-113811007D01*
X77876184Y-113787803D01*
X77872674Y-113764142D01*
X77871500Y-113740250D01*
X77871500Y-112827750D01*
X77872674Y-112803858D01*
X77876184Y-112780197D01*
X77881996Y-112756993D01*
X77890054Y-112734471D01*
X77900282Y-112712847D01*
X77912579Y-112692330D01*
X77926829Y-112673117D01*
X77942893Y-112655393D01*
X77960617Y-112639329D01*
X77979830Y-112625079D01*
X78000347Y-112612782D01*
X78021971Y-112602554D01*
X78044493Y-112594496D01*
X78067697Y-112588684D01*
X78091358Y-112585174D01*
X78115250Y-112584000D01*
X78602750Y-112584000D01*
X78626642Y-112585174D01*
X78626642Y-112585174D01*
G37*
D13*
X78359000Y-113284000D03*
D12*
G36*
X76751642Y-112585174D02*
G01*
X76775303Y-112588684D01*
X76798507Y-112594496D01*
X76821029Y-112602554D01*
X76842653Y-112612782D01*
X76863170Y-112625079D01*
X76882383Y-112639329D01*
X76900107Y-112655393D01*
X76916171Y-112673117D01*
X76930421Y-112692330D01*
X76942718Y-112712847D01*
X76952946Y-112734471D01*
X76961004Y-112756993D01*
X76966816Y-112780197D01*
X76970326Y-112803858D01*
X76971500Y-112827750D01*
X76971500Y-113740250D01*
X76970326Y-113764142D01*
X76966816Y-113787803D01*
X76961004Y-113811007D01*
X76952946Y-113833529D01*
X76942718Y-113855153D01*
X76930421Y-113875670D01*
X76916171Y-113894883D01*
X76900107Y-113912607D01*
X76882383Y-113928671D01*
X76863170Y-113942921D01*
X76842653Y-113955218D01*
X76821029Y-113965446D01*
X76798507Y-113973504D01*
X76775303Y-113979316D01*
X76751642Y-113982826D01*
X76727750Y-113984000D01*
X76240250Y-113984000D01*
X76216358Y-113982826D01*
X76192697Y-113979316D01*
X76169493Y-113973504D01*
X76146971Y-113965446D01*
X76125347Y-113955218D01*
X76104830Y-113942921D01*
X76085617Y-113928671D01*
X76067893Y-113912607D01*
X76051829Y-113894883D01*
X76037579Y-113875670D01*
X76025282Y-113855153D01*
X76015054Y-113833529D01*
X76006996Y-113811007D01*
X76001184Y-113787803D01*
X75997674Y-113764142D01*
X75996500Y-113740250D01*
X75996500Y-112827750D01*
X75997674Y-112803858D01*
X76001184Y-112780197D01*
X76006996Y-112756993D01*
X76015054Y-112734471D01*
X76025282Y-112712847D01*
X76037579Y-112692330D01*
X76051829Y-112673117D01*
X76067893Y-112655393D01*
X76085617Y-112639329D01*
X76104830Y-112625079D01*
X76125347Y-112612782D01*
X76146971Y-112602554D01*
X76169493Y-112594496D01*
X76192697Y-112588684D01*
X76216358Y-112585174D01*
X76240250Y-112584000D01*
X76727750Y-112584000D01*
X76751642Y-112585174D01*
X76751642Y-112585174D01*
G37*
D13*
X76484000Y-113284000D03*
D12*
G36*
X77061142Y-121482174D02*
G01*
X77084803Y-121485684D01*
X77108007Y-121491496D01*
X77130529Y-121499554D01*
X77152153Y-121509782D01*
X77172670Y-121522079D01*
X77191883Y-121536329D01*
X77209607Y-121552393D01*
X77225671Y-121570117D01*
X77239921Y-121589330D01*
X77252218Y-121609847D01*
X77262446Y-121631471D01*
X77270504Y-121653993D01*
X77276316Y-121677197D01*
X77279826Y-121700858D01*
X77281000Y-121724750D01*
X77281000Y-122212250D01*
X77279826Y-122236142D01*
X77276316Y-122259803D01*
X77270504Y-122283007D01*
X77262446Y-122305529D01*
X77252218Y-122327153D01*
X77239921Y-122347670D01*
X77225671Y-122366883D01*
X77209607Y-122384607D01*
X77191883Y-122400671D01*
X77172670Y-122414921D01*
X77152153Y-122427218D01*
X77130529Y-122437446D01*
X77108007Y-122445504D01*
X77084803Y-122451316D01*
X77061142Y-122454826D01*
X77037250Y-122456000D01*
X76124750Y-122456000D01*
X76100858Y-122454826D01*
X76077197Y-122451316D01*
X76053993Y-122445504D01*
X76031471Y-122437446D01*
X76009847Y-122427218D01*
X75989330Y-122414921D01*
X75970117Y-122400671D01*
X75952393Y-122384607D01*
X75936329Y-122366883D01*
X75922079Y-122347670D01*
X75909782Y-122327153D01*
X75899554Y-122305529D01*
X75891496Y-122283007D01*
X75885684Y-122259803D01*
X75882174Y-122236142D01*
X75881000Y-122212250D01*
X75881000Y-121724750D01*
X75882174Y-121700858D01*
X75885684Y-121677197D01*
X75891496Y-121653993D01*
X75899554Y-121631471D01*
X75909782Y-121609847D01*
X75922079Y-121589330D01*
X75936329Y-121570117D01*
X75952393Y-121552393D01*
X75970117Y-121536329D01*
X75989330Y-121522079D01*
X76009847Y-121509782D01*
X76031471Y-121499554D01*
X76053993Y-121491496D01*
X76077197Y-121485684D01*
X76100858Y-121482174D01*
X76124750Y-121481000D01*
X77037250Y-121481000D01*
X77061142Y-121482174D01*
X77061142Y-121482174D01*
G37*
D13*
X76581000Y-121968500D03*
D12*
G36*
X77061142Y-119607174D02*
G01*
X77084803Y-119610684D01*
X77108007Y-119616496D01*
X77130529Y-119624554D01*
X77152153Y-119634782D01*
X77172670Y-119647079D01*
X77191883Y-119661329D01*
X77209607Y-119677393D01*
X77225671Y-119695117D01*
X77239921Y-119714330D01*
X77252218Y-119734847D01*
X77262446Y-119756471D01*
X77270504Y-119778993D01*
X77276316Y-119802197D01*
X77279826Y-119825858D01*
X77281000Y-119849750D01*
X77281000Y-120337250D01*
X77279826Y-120361142D01*
X77276316Y-120384803D01*
X77270504Y-120408007D01*
X77262446Y-120430529D01*
X77252218Y-120452153D01*
X77239921Y-120472670D01*
X77225671Y-120491883D01*
X77209607Y-120509607D01*
X77191883Y-120525671D01*
X77172670Y-120539921D01*
X77152153Y-120552218D01*
X77130529Y-120562446D01*
X77108007Y-120570504D01*
X77084803Y-120576316D01*
X77061142Y-120579826D01*
X77037250Y-120581000D01*
X76124750Y-120581000D01*
X76100858Y-120579826D01*
X76077197Y-120576316D01*
X76053993Y-120570504D01*
X76031471Y-120562446D01*
X76009847Y-120552218D01*
X75989330Y-120539921D01*
X75970117Y-120525671D01*
X75952393Y-120509607D01*
X75936329Y-120491883D01*
X75922079Y-120472670D01*
X75909782Y-120452153D01*
X75899554Y-120430529D01*
X75891496Y-120408007D01*
X75885684Y-120384803D01*
X75882174Y-120361142D01*
X75881000Y-120337250D01*
X75881000Y-119849750D01*
X75882174Y-119825858D01*
X75885684Y-119802197D01*
X75891496Y-119778993D01*
X75899554Y-119756471D01*
X75909782Y-119734847D01*
X75922079Y-119714330D01*
X75936329Y-119695117D01*
X75952393Y-119677393D01*
X75970117Y-119661329D01*
X75989330Y-119647079D01*
X76009847Y-119634782D01*
X76031471Y-119624554D01*
X76053993Y-119616496D01*
X76077197Y-119610684D01*
X76100858Y-119607174D01*
X76124750Y-119606000D01*
X77037250Y-119606000D01*
X77061142Y-119607174D01*
X77061142Y-119607174D01*
G37*
D13*
X76581000Y-120093500D03*
D12*
G36*
X82627142Y-102044174D02*
G01*
X82650803Y-102047684D01*
X82674007Y-102053496D01*
X82696529Y-102061554D01*
X82718153Y-102071782D01*
X82738670Y-102084079D01*
X82757883Y-102098329D01*
X82775607Y-102114393D01*
X82791671Y-102132117D01*
X82805921Y-102151330D01*
X82818218Y-102171847D01*
X82828446Y-102193471D01*
X82836504Y-102215993D01*
X82842316Y-102239197D01*
X82845826Y-102262858D01*
X82847000Y-102286750D01*
X82847000Y-103199250D01*
X82845826Y-103223142D01*
X82842316Y-103246803D01*
X82836504Y-103270007D01*
X82828446Y-103292529D01*
X82818218Y-103314153D01*
X82805921Y-103334670D01*
X82791671Y-103353883D01*
X82775607Y-103371607D01*
X82757883Y-103387671D01*
X82738670Y-103401921D01*
X82718153Y-103414218D01*
X82696529Y-103424446D01*
X82674007Y-103432504D01*
X82650803Y-103438316D01*
X82627142Y-103441826D01*
X82603250Y-103443000D01*
X82115750Y-103443000D01*
X82091858Y-103441826D01*
X82068197Y-103438316D01*
X82044993Y-103432504D01*
X82022471Y-103424446D01*
X82000847Y-103414218D01*
X81980330Y-103401921D01*
X81961117Y-103387671D01*
X81943393Y-103371607D01*
X81927329Y-103353883D01*
X81913079Y-103334670D01*
X81900782Y-103314153D01*
X81890554Y-103292529D01*
X81882496Y-103270007D01*
X81876684Y-103246803D01*
X81873174Y-103223142D01*
X81872000Y-103199250D01*
X81872000Y-102286750D01*
X81873174Y-102262858D01*
X81876684Y-102239197D01*
X81882496Y-102215993D01*
X81890554Y-102193471D01*
X81900782Y-102171847D01*
X81913079Y-102151330D01*
X81927329Y-102132117D01*
X81943393Y-102114393D01*
X81961117Y-102098329D01*
X81980330Y-102084079D01*
X82000847Y-102071782D01*
X82022471Y-102061554D01*
X82044993Y-102053496D01*
X82068197Y-102047684D01*
X82091858Y-102044174D01*
X82115750Y-102043000D01*
X82603250Y-102043000D01*
X82627142Y-102044174D01*
X82627142Y-102044174D01*
G37*
D13*
X82359500Y-102743000D03*
D12*
G36*
X80752142Y-102044174D02*
G01*
X80775803Y-102047684D01*
X80799007Y-102053496D01*
X80821529Y-102061554D01*
X80843153Y-102071782D01*
X80863670Y-102084079D01*
X80882883Y-102098329D01*
X80900607Y-102114393D01*
X80916671Y-102132117D01*
X80930921Y-102151330D01*
X80943218Y-102171847D01*
X80953446Y-102193471D01*
X80961504Y-102215993D01*
X80967316Y-102239197D01*
X80970826Y-102262858D01*
X80972000Y-102286750D01*
X80972000Y-103199250D01*
X80970826Y-103223142D01*
X80967316Y-103246803D01*
X80961504Y-103270007D01*
X80953446Y-103292529D01*
X80943218Y-103314153D01*
X80930921Y-103334670D01*
X80916671Y-103353883D01*
X80900607Y-103371607D01*
X80882883Y-103387671D01*
X80863670Y-103401921D01*
X80843153Y-103414218D01*
X80821529Y-103424446D01*
X80799007Y-103432504D01*
X80775803Y-103438316D01*
X80752142Y-103441826D01*
X80728250Y-103443000D01*
X80240750Y-103443000D01*
X80216858Y-103441826D01*
X80193197Y-103438316D01*
X80169993Y-103432504D01*
X80147471Y-103424446D01*
X80125847Y-103414218D01*
X80105330Y-103401921D01*
X80086117Y-103387671D01*
X80068393Y-103371607D01*
X80052329Y-103353883D01*
X80038079Y-103334670D01*
X80025782Y-103314153D01*
X80015554Y-103292529D01*
X80007496Y-103270007D01*
X80001684Y-103246803D01*
X79998174Y-103223142D01*
X79997000Y-103199250D01*
X79997000Y-102286750D01*
X79998174Y-102262858D01*
X80001684Y-102239197D01*
X80007496Y-102215993D01*
X80015554Y-102193471D01*
X80025782Y-102171847D01*
X80038079Y-102151330D01*
X80052329Y-102132117D01*
X80068393Y-102114393D01*
X80086117Y-102098329D01*
X80105330Y-102084079D01*
X80125847Y-102071782D01*
X80147471Y-102061554D01*
X80169993Y-102053496D01*
X80193197Y-102047684D01*
X80216858Y-102044174D01*
X80240750Y-102043000D01*
X80728250Y-102043000D01*
X80752142Y-102044174D01*
X80752142Y-102044174D01*
G37*
D13*
X80484500Y-102743000D03*
D18*
X84840000Y-55118000D03*
X90340000Y-55118000D03*
X86640000Y-53118000D03*
X81140000Y-53118000D03*
X78740000Y-55118000D03*
D19*
X77533500Y-72613500D03*
X77533500Y-79913500D03*
X82033500Y-79913500D03*
X82033500Y-72613500D03*
D10*
X187682500Y-85217500D03*
X187027501Y-85947500D03*
D11*
X186372500Y-86677500D02*
X187682502Y-85217500D01*
D10*
X192722500Y-84137500D03*
X192702500Y-84427500D03*
D11*
X192682500Y-84717500D02*
X192722500Y-84137500D01*
D10*
X187682500Y-66167500D03*
X187027501Y-66897500D03*
D11*
X186372500Y-67627500D02*
X187682502Y-66167500D01*
D10*
X192722500Y-65087500D03*
X192702500Y-65377500D03*
D11*
X192682500Y-65667500D02*
X192722500Y-65087500D01*
D10*
X168632500Y-88392500D03*
X167977501Y-89122500D03*
D11*
X167322500Y-89852500D02*
X168632502Y-88392500D01*
D10*
X173672500Y-87312500D03*
X173652500Y-87602500D03*
D11*
X173632500Y-87892500D02*
X173672500Y-87312500D01*
D10*
X168632500Y-69342500D03*
X167977501Y-70072500D03*
D11*
X167322500Y-70802500D02*
X168632502Y-69342500D01*
D10*
X173672500Y-68262500D03*
X173652500Y-68552500D03*
D11*
X173632500Y-68842500D02*
X173672500Y-68262500D01*
D10*
X149582500Y-82042500D03*
X148927501Y-82772500D03*
D11*
X148272500Y-83502500D02*
X149582502Y-82042500D01*
D10*
X154622500Y-80962500D03*
X154602500Y-81252500D03*
D11*
X154582500Y-81542500D02*
X154622500Y-80962500D01*
D10*
X149582500Y-62992500D03*
X148927501Y-63722500D03*
D11*
X148272500Y-64452500D02*
X149582502Y-62992500D01*
D10*
X154622500Y-61912500D03*
X154602500Y-62202500D03*
D11*
X154582500Y-62492500D02*
X154622500Y-61912500D01*
D10*
X130532500Y-96330000D03*
X129877501Y-97060000D03*
D11*
X129222500Y-97790000D02*
X130532502Y-96330000D01*
D10*
X135572500Y-95250000D03*
X135552500Y-95540000D03*
D11*
X135532500Y-95830000D02*
X135572500Y-95250000D01*
D10*
X130532500Y-77280000D03*
X129877501Y-78010000D03*
D11*
X129222500Y-78740000D02*
X130532502Y-77280000D01*
D10*
X135572500Y-76200000D03*
X135552500Y-76490000D03*
D11*
X135532500Y-76780000D02*
X135572500Y-76200000D01*
D10*
X130532500Y-58230000D03*
X129877501Y-58960000D03*
D11*
X129222500Y-59690000D02*
X130532502Y-58230000D01*
D10*
X135572500Y-57150000D03*
X135552500Y-57440000D03*
D11*
X135532500Y-57730000D02*
X135572500Y-57150000D01*
D10*
X111482500Y-89980000D03*
X110827501Y-90710000D03*
D11*
X110172500Y-91440000D02*
X111482502Y-89980000D01*
D10*
X116522500Y-88900000D03*
X116502500Y-89190000D03*
D11*
X116482500Y-89480000D02*
X116522500Y-88900000D01*
D10*
X111482500Y-70930000D03*
X110827501Y-71660000D03*
D11*
X110172500Y-72390000D02*
X111482502Y-70930000D01*
D10*
X116522500Y-69850000D03*
X116502500Y-70140000D03*
D11*
X116482500Y-70430000D02*
X116522500Y-69850000D01*
D10*
X92432500Y-85217500D03*
X91777501Y-85947500D03*
D11*
X91122500Y-86677500D02*
X92432502Y-85217500D01*
D10*
X97472500Y-84137500D03*
X97452500Y-84427500D03*
D11*
X97432500Y-84717500D02*
X97472500Y-84137500D01*
D10*
X92432500Y-66167500D03*
X91777501Y-66897500D03*
D11*
X91122500Y-67627500D02*
X92432502Y-66167500D01*
D10*
X97472500Y-65087500D03*
X97452500Y-65377500D03*
D11*
X97432500Y-65667500D02*
X97472500Y-65087500D01*
D14*
X183832500Y-95505000D03*
X183832500Y-98805000D03*
X184626250Y-76455000D03*
X184626250Y-79755000D03*
X179863750Y-95505000D03*
X179863750Y-98805000D03*
X180657500Y-76455000D03*
X180657500Y-79755000D03*
X143351250Y-105030000D03*
X143351250Y-108330000D03*
X143351250Y-85980000D03*
X143351250Y-89280000D03*
X144145000Y-66930000D03*
X144145000Y-70230000D03*
X139382500Y-105030000D03*
X139382500Y-108330000D03*
X139382500Y-85980000D03*
X139382500Y-89280000D03*
X140176250Y-66930000D03*
X140176250Y-70230000D03*
X105251250Y-93917500D03*
X105251250Y-97217500D03*
X106045000Y-74867500D03*
X106045000Y-78167500D03*
X101282500Y-93917500D03*
X101282500Y-97217500D03*
X102076250Y-74867500D03*
X102076250Y-78167500D03*
D20*
X84252000Y-77863500D03*
X83172500Y-90538500D03*
X77597000Y-127508000D03*
X92934000Y-115413000D03*
X77343000Y-111506000D03*
X77343000Y-66548000D03*
X77343000Y-124841000D03*
X76581000Y-123825000D03*
X79671980Y-115019020D03*
X87312500Y-112458500D03*
D21*
X84709000Y-106440098D02*
X82409000Y-108740098D01*
X84709000Y-106193000D02*
X84709000Y-106440098D01*
X84376500Y-105860500D02*
X84709000Y-106193000D01*
X83947000Y-100457000D02*
X84376500Y-100886500D01*
X82409000Y-108740098D02*
X82409000Y-109093000D01*
X81915000Y-131445000D02*
X81915000Y-130645000D01*
X82271000Y-128878000D02*
X82271000Y-127747000D01*
X82271000Y-130289000D02*
X82271000Y-128878000D01*
X81915000Y-130645000D02*
X82271000Y-130289000D01*
X76581000Y-121968500D02*
X75486500Y-121968500D01*
X75486500Y-121968500D02*
X74803000Y-121285000D01*
X74803000Y-121285000D02*
X74803000Y-117632000D01*
X74803000Y-117632000D02*
X76581000Y-115854000D01*
X88671000Y-130073000D02*
X89789000Y-131191000D01*
X88671000Y-127747000D02*
X88671000Y-130073000D01*
X77518500Y-121968500D02*
X76581000Y-121968500D01*
X79771000Y-122847000D02*
X78397000Y-122847000D01*
X78397000Y-122847000D02*
X77518500Y-121968500D01*
X74803000Y-128397000D02*
X74803000Y-121285000D01*
X79629000Y-133223000D02*
X74803000Y-128397000D01*
X81915000Y-131445000D02*
X80137000Y-133223000D01*
X80137000Y-133223000D02*
X79629000Y-133223000D01*
X83947000Y-100457000D02*
X79121000Y-100457000D01*
X78359000Y-101219000D02*
X78359000Y-102997000D01*
X79121000Y-100457000D02*
X78359000Y-101219000D01*
X84361500Y-102743000D02*
X84376500Y-102728000D01*
X82359500Y-102743000D02*
X84361500Y-102743000D01*
X84376500Y-102489000D02*
X84376500Y-102728000D01*
X84376500Y-102728000D02*
X84376500Y-105860500D01*
X84391500Y-102743000D02*
X84376500Y-102728000D01*
X85676500Y-102743000D02*
X84391500Y-102743000D01*
X80276500Y-111963000D02*
X78359000Y-110045500D01*
X83871000Y-111963000D02*
X80276500Y-111963000D01*
X78359000Y-108409500D02*
X78359000Y-107823000D01*
X78359000Y-107823000D02*
X78359000Y-102997000D01*
X82612000Y-113398500D02*
X83871000Y-113398500D01*
X82599500Y-113411000D02*
X82612000Y-113398500D01*
X82012000Y-113411000D02*
X82599500Y-113411000D01*
X83871000Y-116347000D02*
X83871000Y-113398500D01*
X83871000Y-113398500D02*
X83871000Y-111963000D01*
X92302000Y-118047000D02*
X92302500Y-118046500D01*
X91171000Y-118047000D02*
X92302000Y-118047000D01*
X92302500Y-118046500D02*
X92302500Y-117946000D01*
X91059000Y-115062000D02*
X91059000Y-113601500D01*
X92302500Y-118046500D02*
X92302500Y-116305500D01*
X92302500Y-116305500D02*
X91059000Y-115062000D01*
X84376500Y-97503020D02*
X84376500Y-101140500D01*
X84252000Y-97378520D02*
X84376500Y-97503020D01*
X84376500Y-100886500D02*
X84376500Y-101140500D01*
X84376500Y-101140500D02*
X84376500Y-102489000D01*
X78359000Y-109791500D02*
X78359000Y-107823000D01*
X78359000Y-110045500D02*
X78359000Y-109791500D01*
X74803000Y-111379000D02*
X74803000Y-117632000D01*
X78359000Y-109791500D02*
X76390500Y-109791500D01*
X76390500Y-109791500D02*
X74803000Y-111379000D01*
X84252000Y-90538500D02*
X83172500Y-90538500D01*
X84252000Y-90538500D02*
X84252000Y-97378520D01*
X84252000Y-77863500D02*
X84252000Y-90538500D01*
X80040000Y-131445000D02*
X81471000Y-130014000D01*
X81471000Y-130014000D02*
X81471000Y-127747000D01*
X78640000Y-125247000D02*
X77597000Y-126290000D01*
X79771000Y-125247000D02*
X78640000Y-125247000D01*
X77597000Y-129002000D02*
X80040000Y-131445000D01*
X78640000Y-121247000D02*
X77851000Y-120458000D01*
X79771000Y-121247000D02*
X78640000Y-121247000D01*
X77851000Y-118999000D02*
X76581000Y-117729000D01*
X77851000Y-120458000D02*
X77851000Y-118999000D01*
X77137237Y-117172763D02*
X77723737Y-117172763D01*
X76581000Y-117729000D02*
X77137237Y-117172763D01*
X80693237Y-113967237D02*
X80137000Y-113411000D01*
X81227510Y-114501510D02*
X80693237Y-113967237D01*
X82153412Y-114501510D02*
X81227510Y-114501510D01*
X83071000Y-115419098D02*
X82153412Y-114501510D01*
X83071000Y-116347000D02*
X83071000Y-115419098D01*
X80082980Y-113411000D02*
X78177980Y-111506000D01*
X80137000Y-113411000D02*
X80082980Y-113411000D01*
X76484000Y-111599500D02*
X76484000Y-113284000D01*
X76390500Y-111506000D02*
X76484000Y-111599500D01*
X78176000Y-116720500D02*
X78176000Y-116070500D01*
X78176000Y-116720500D02*
X77723737Y-117172763D01*
X78359000Y-116537500D02*
X78176000Y-116720500D01*
X77040237Y-113840237D02*
X76484000Y-113284000D01*
X78105000Y-114905000D02*
X77040237Y-113840237D01*
X78105000Y-115999500D02*
X78105000Y-114905000D01*
X78176000Y-116070500D02*
X78105000Y-115999500D01*
X77597000Y-127508000D02*
X77597000Y-129002000D01*
X77597000Y-126290000D02*
X77597000Y-127508000D01*
X91171000Y-118847000D02*
X92875500Y-118847000D01*
X92875500Y-118847000D02*
X92934000Y-118788500D01*
X92934000Y-115413000D02*
X92934000Y-113601500D01*
X92934000Y-118788500D02*
X92934000Y-115413000D01*
X76771500Y-111506000D02*
X77343000Y-111506000D01*
X76771500Y-111506000D02*
X76390500Y-111506000D01*
X77533500Y-111506000D02*
X77343000Y-111506000D01*
X78177980Y-111506000D02*
X77533500Y-111506000D01*
X77343000Y-67113685D02*
X77533500Y-67304185D01*
X77343000Y-66548000D02*
X77343000Y-67113685D01*
X77533500Y-67304185D02*
X77533500Y-69596000D01*
X85344000Y-93980000D02*
X89027000Y-97663000D01*
X85344000Y-69596000D02*
X85344000Y-93980000D01*
X85344000Y-69596000D02*
X85725000Y-69596000D01*
X77533500Y-69596000D02*
X85344000Y-69596000D01*
X89027000Y-97663000D02*
X89027000Y-105346500D01*
X88069010Y-106304490D02*
X88069010Y-111511490D01*
X89027000Y-105346500D02*
X88069010Y-106304490D01*
X90843990Y-111511490D02*
X92934000Y-113601500D01*
X88069010Y-111511490D02*
X90843990Y-111511490D01*
D22*
X85120000Y-108682000D02*
X84709000Y-109093000D01*
X85471000Y-115343000D02*
X85471000Y-116347000D01*
X85471000Y-111159000D02*
X85471000Y-115343000D01*
X84709000Y-110397000D02*
X85471000Y-111159000D01*
X84709000Y-109093000D02*
X84709000Y-110397000D01*
X85863000Y-109093000D02*
X84709000Y-109093000D01*
X87551500Y-107404500D02*
X85863000Y-109093000D01*
X87551500Y-102743000D02*
X87551500Y-107404500D01*
X82501500Y-106100500D02*
X82409000Y-106193000D01*
X84671000Y-115343000D02*
X84709000Y-115305000D01*
X84455000Y-111125000D02*
X84671000Y-111341000D01*
X84671000Y-111341000D02*
X84671000Y-115481000D01*
X80645000Y-111125000D02*
X84455000Y-111125000D01*
X84671000Y-115481000D02*
X84671000Y-115343000D01*
X84671000Y-116347000D02*
X84671000Y-115481000D01*
X82409000Y-106193000D02*
X80497000Y-106193000D01*
X80497000Y-106193000D02*
X79883000Y-106807000D01*
X79883000Y-106807000D02*
X79883000Y-110363000D01*
X79883000Y-110363000D02*
X80645000Y-111125000D01*
X81255000Y-106193000D02*
X82409000Y-106193000D01*
X80484500Y-105422500D02*
X81255000Y-106193000D01*
X80484500Y-102743000D02*
X80484500Y-105422500D01*
X78534500Y-122047000D02*
X76581000Y-120093500D01*
X79771000Y-122047000D02*
X78534500Y-122047000D01*
X102076250Y-74867500D02*
X102076250Y-73342500D01*
X102076250Y-73342500D02*
X103981250Y-71437500D01*
X103981250Y-71437500D02*
X103981250Y-65881250D01*
X98012500Y-65087500D02*
X97432500Y-65667500D01*
X103187500Y-65087500D02*
X98012500Y-65087500D01*
X103981250Y-65881250D02*
X103187500Y-65087500D01*
X140176250Y-70230000D02*
X144145000Y-70230000D01*
X144999000Y-70230000D02*
X147794000Y-73025000D01*
X144145000Y-70230000D02*
X144999000Y-70230000D01*
X147794000Y-73025000D02*
X160337500Y-73025000D01*
X167067500Y-79755000D02*
X180657500Y-79755000D01*
X160337500Y-73025000D02*
X167067500Y-79755000D01*
X181511500Y-79755000D02*
X184626250Y-79755000D01*
X180657500Y-79755000D02*
X181511500Y-79755000D01*
X102930250Y-78167500D02*
X106045000Y-78167500D01*
X102076250Y-78167500D02*
X102930250Y-78167500D01*
X130588750Y-70230000D02*
X140176250Y-70230000D01*
X120650000Y-80168750D02*
X130588750Y-70230000D01*
X120650000Y-80962500D02*
X120650000Y-80168750D01*
X109694000Y-80962500D02*
X120650000Y-80962500D01*
X106045000Y-78167500D02*
X106899000Y-78167500D01*
X106899000Y-78167500D02*
X109694000Y-80962500D01*
X101432500Y-93917500D02*
X101282500Y-93917500D01*
X103981250Y-91368750D02*
X101432500Y-93917500D01*
X103981250Y-85725000D02*
X103981250Y-91368750D01*
X97432500Y-84717500D02*
X102973750Y-84717500D01*
X102973750Y-84717500D02*
X103981250Y-85725000D01*
X180717750Y-98805000D02*
X181131500Y-99218750D01*
X179863750Y-98805000D02*
X180717750Y-98805000D01*
X181545250Y-98805000D02*
X183832500Y-98805000D01*
X181131500Y-99218750D02*
X181545250Y-98805000D01*
X140236500Y-89280000D02*
X143351250Y-89280000D01*
X139382500Y-89280000D02*
X140236500Y-89280000D01*
X144205250Y-89280000D02*
X146206500Y-91281250D01*
X143351250Y-89280000D02*
X144205250Y-89280000D01*
X146206500Y-91281250D02*
X157162500Y-91281250D01*
X164686250Y-98805000D02*
X179863750Y-98805000D01*
X157162500Y-91281250D02*
X164686250Y-98805000D01*
X101432500Y-97217500D02*
X105251250Y-97217500D01*
X101282500Y-97217500D02*
X101432500Y-97217500D01*
X131382500Y-89280000D02*
X139382500Y-89280000D01*
X120650000Y-100012500D02*
X131382500Y-89280000D01*
X108900250Y-100012500D02*
X120650000Y-100012500D01*
X105251250Y-97217500D02*
X106105250Y-97217500D01*
X106105250Y-97217500D02*
X108900250Y-100012500D01*
X102421000Y-110304000D02*
X103981250Y-108743750D01*
X103981250Y-108743750D02*
X103981250Y-103981250D01*
X103187500Y-103187500D02*
X97472500Y-103187500D01*
X103981250Y-103981250D02*
X103187500Y-103187500D01*
X101282500Y-113761250D02*
X101282500Y-113057250D01*
X101282500Y-113057250D02*
X102421000Y-111918750D01*
X102421000Y-111918750D02*
X102421000Y-110304000D01*
X143351250Y-108330000D02*
X139382500Y-108330000D01*
X143351250Y-108330000D02*
X146038962Y-108330000D01*
X133763750Y-108330000D02*
X139382500Y-108330000D01*
X150421462Y-112712500D02*
X160337500Y-112712500D01*
X165480000Y-117855000D02*
X179863750Y-117855000D01*
X146038962Y-108330000D02*
X150421462Y-112712500D01*
X160337500Y-112712500D02*
X165480000Y-117855000D01*
X101282500Y-117061250D02*
X102136500Y-117061250D01*
X102136500Y-117061250D02*
X105251250Y-117061250D01*
X105251250Y-117061250D02*
X106105250Y-117061250D01*
X123031250Y-119062500D02*
X133763750Y-108330000D01*
X106105250Y-117061250D02*
X108106500Y-119062500D01*
X108106500Y-119062500D02*
X123031250Y-119062500D01*
X183832500Y-117855000D02*
X179863750Y-117855000D01*
X104457500Y-128173750D02*
X104307500Y-128173750D01*
X104307500Y-128173750D02*
X99362464Y-133118786D01*
X143351250Y-126523750D02*
X139445000Y-126523750D01*
X139445000Y-126523750D02*
X139382500Y-126586250D01*
X123031250Y-124618750D02*
X122776250Y-124873750D01*
X122776250Y-124873750D02*
X109220000Y-124873750D01*
X124998750Y-126586250D02*
X123031250Y-124618750D01*
X139382500Y-126586250D02*
X124998750Y-126586250D01*
X109220000Y-124873750D02*
X108366000Y-124873750D01*
X108366000Y-124873750D02*
X104457500Y-124873750D01*
X106045000Y-74867500D02*
X106045000Y-70167500D01*
X106045000Y-70167500D02*
X108743750Y-67468750D01*
X114141250Y-67468750D02*
X116522500Y-69850000D01*
X108743750Y-67468750D02*
X114141250Y-67468750D01*
X105401250Y-93917500D02*
X107156250Y-92162500D01*
X105251250Y-93917500D02*
X105401250Y-93917500D01*
X107156250Y-92162500D02*
X107156250Y-86518750D01*
X107156250Y-86518750D02*
X115887500Y-86518750D01*
X116522500Y-89440000D02*
X116482500Y-89480000D01*
X116522500Y-87153750D02*
X116522500Y-89440000D01*
X115887500Y-86518750D02*
X116522500Y-87153750D01*
X105251250Y-109855000D02*
X109537500Y-105568750D01*
X109537500Y-105568750D02*
X115093750Y-105568750D01*
X116482500Y-107910000D02*
X116482500Y-108530000D01*
X115093750Y-106521250D02*
X116482500Y-107910000D01*
X115093750Y-105568750D02*
X115093750Y-106521250D01*
X105251250Y-113761250D02*
X105251250Y-109855000D01*
X109220000Y-128173750D02*
X113604205Y-128173750D01*
X113604205Y-128173750D02*
X115232629Y-129802174D01*
X115232629Y-129802174D02*
X115232629Y-130261286D01*
X140176250Y-66930000D02*
X140176250Y-65405000D01*
X140176250Y-65405000D02*
X142081250Y-63500000D01*
X142081250Y-63500000D02*
X142081250Y-59531250D01*
X136152500Y-57730000D02*
X135532500Y-57730000D01*
X137953750Y-59531250D02*
X136152500Y-57730000D01*
X142081250Y-59531250D02*
X137953750Y-59531250D01*
X140493750Y-76200000D02*
X135572500Y-76200000D01*
X141287500Y-76993750D02*
X140493750Y-76200000D01*
X141287500Y-82550000D02*
X141287500Y-76993750D01*
X139382500Y-85980000D02*
X139382500Y-84455000D01*
X139382500Y-84455000D02*
X141287500Y-82550000D01*
X137160000Y-96837500D02*
X135572500Y-95250000D01*
X141287500Y-96837500D02*
X137160000Y-96837500D01*
X141287500Y-103275000D02*
X141287500Y-96837500D01*
X139382500Y-105030000D02*
X139532500Y-105030000D01*
X139532500Y-105030000D02*
X141287500Y-103275000D01*
X139382500Y-123286250D02*
X139382500Y-122555000D01*
X139382500Y-122555000D02*
X142081250Y-119856250D01*
X142081250Y-119856250D02*
X142081250Y-118268750D01*
X142081250Y-118268750D02*
X140493750Y-116681250D01*
X140493750Y-114300000D02*
X135572500Y-114300000D01*
X140493750Y-116681250D02*
X140493750Y-114300000D01*
X144145000Y-66930000D02*
X144145000Y-62230000D01*
X144145000Y-62230000D02*
X146843750Y-59531250D01*
X154582500Y-61872500D02*
X154582500Y-62492500D01*
X152241250Y-59531250D02*
X154582500Y-61872500D01*
X146843750Y-59531250D02*
X152241250Y-59531250D01*
X143351250Y-85980000D02*
X143351250Y-81280000D01*
X143351250Y-81280000D02*
X146050000Y-78581250D01*
X152241250Y-78581250D02*
X154622500Y-80962500D01*
X146050000Y-78581250D02*
X152241250Y-78581250D01*
X152877501Y-98887501D02*
X154582500Y-100592500D01*
X148789749Y-98887501D02*
X152877501Y-98887501D01*
X143351250Y-104326000D02*
X148789749Y-98887501D01*
X143351250Y-105030000D02*
X143351250Y-104326000D01*
X150653750Y-115093750D02*
X154582500Y-119022500D01*
X146050000Y-115093750D02*
X150653750Y-115093750D01*
X154582500Y-119022500D02*
X154582500Y-119642500D01*
X143668750Y-117475000D02*
X146050000Y-115093750D01*
X143351250Y-123223750D02*
X143351250Y-122519750D01*
X143351250Y-122519750D02*
X143668750Y-122202250D01*
X143668750Y-122202250D02*
X143668750Y-117475000D01*
X180657500Y-75751000D02*
X179387500Y-74481000D01*
X180657500Y-76455000D02*
X180657500Y-75751000D01*
X179387500Y-74481000D02*
X179387500Y-69056250D01*
X174212500Y-68262500D02*
X173632500Y-68842500D01*
X178593750Y-68262500D02*
X174212500Y-68262500D01*
X179387500Y-69056250D02*
X178593750Y-68262500D01*
X175736250Y-89376250D02*
X173672500Y-87312500D01*
X179863750Y-95505000D02*
X179863750Y-89376250D01*
X179863750Y-89376250D02*
X175736250Y-89376250D01*
X179863750Y-114555000D02*
X179863750Y-112553750D01*
X179863750Y-112553750D02*
X173672500Y-106362500D01*
X193302500Y-65667500D02*
X192682500Y-65667500D01*
X195103750Y-67468750D02*
X193302500Y-65667500D01*
X184626250Y-76455000D02*
X184776250Y-76455000D01*
X184776250Y-76455000D02*
X187412500Y-73818750D01*
X187412500Y-73818750D02*
X197643750Y-73818750D01*
X198437500Y-73025000D02*
X198437500Y-67468750D01*
X197643750Y-73818750D02*
X198437500Y-73025000D01*
X198437500Y-67468750D02*
X195103750Y-67468750D01*
X193302500Y-84717500D02*
X192682500Y-84717500D01*
X194310000Y-85725000D02*
X193302500Y-84717500D01*
X198437500Y-85725000D02*
X194310000Y-85725000D01*
X198437500Y-92868750D02*
X198437500Y-85725000D01*
X195801250Y-95505000D02*
X198437500Y-92868750D01*
X183832500Y-95505000D02*
X195801250Y-95505000D01*
X183832500Y-114555000D02*
X190753962Y-114555000D01*
X190753962Y-114555000D02*
X192682500Y-112626462D01*
X192682500Y-112626462D02*
X192682500Y-103767500D01*
X79771000Y-124447000D02*
X77737000Y-124447000D01*
X77737000Y-124447000D02*
X77343000Y-124841000D01*
X79771000Y-123647000D02*
X76759000Y-123647000D01*
X76759000Y-123647000D02*
X76581000Y-123825000D01*
X78359000Y-114427000D02*
X78359000Y-113284000D01*
X78951020Y-115019020D02*
X78359000Y-114427000D01*
X82271000Y-116347000D02*
X82271000Y-115533398D01*
X82271000Y-115533398D02*
X81756622Y-115019020D01*
X79671980Y-115019020D02*
X78951020Y-115019020D01*
X81756622Y-115019020D02*
X79671980Y-115019020D01*
X91171000Y-126047000D02*
X92519000Y-126047000D01*
X92519000Y-126047000D02*
X92583000Y-126111000D01*
X92583000Y-130272000D02*
X91664000Y-131191000D01*
X92583000Y-126111000D02*
X92583000Y-130272000D01*
X86271000Y-116347000D02*
X86271000Y-112433000D01*
X86271000Y-112433000D02*
X86296500Y-112458500D01*
X86296500Y-112458500D02*
X87312500Y-112458500D01*
G36*
X95577646Y-105715424D02*
G01*
X95191424Y-105638600D01*
X94673576Y-105638600D01*
X94165678Y-105739627D01*
X93687249Y-105937799D01*
X93256674Y-106225500D01*
X92890500Y-106591674D01*
X92602799Y-107022249D01*
X92404627Y-107500678D01*
X92303600Y-108008576D01*
X92303600Y-108526424D01*
X92404627Y-109034322D01*
X92602799Y-109512751D01*
X92890500Y-109943326D01*
X93256674Y-110309500D01*
X93687249Y-110597201D01*
X94165678Y-110795373D01*
X94673576Y-110896400D01*
X95191424Y-110896400D01*
X95587148Y-110817686D01*
X95624438Y-130842573D01*
X95557778Y-130855832D01*
X95480269Y-130887937D01*
X95399941Y-130912006D01*
X95320545Y-130954097D01*
X95237478Y-130988504D01*
X95167721Y-131035114D01*
X95093633Y-131074391D01*
X95023971Y-131131165D01*
X94949216Y-131181115D01*
X94889893Y-131240438D01*
X94824890Y-131293415D01*
X94767643Y-131362688D01*
X94704070Y-131426261D01*
X94657461Y-131496015D01*
X94604041Y-131560658D01*
X94561409Y-131639768D01*
X94511459Y-131714523D01*
X94479353Y-131792033D01*
X94439572Y-131865853D01*
X94413191Y-131951763D01*
X94378787Y-132034823D01*
X94362421Y-132117100D01*
X94337803Y-132197270D01*
X94328689Y-132286680D01*
X94311151Y-132374851D01*
X94311151Y-132458743D01*
X94302647Y-132542172D01*
X94311151Y-132631636D01*
X94311151Y-132721541D01*
X94344438Y-132888885D01*
X94471865Y-133541111D01*
X94546439Y-133789997D01*
X94708824Y-134096304D01*
X94825120Y-134239000D01*
X93116205Y-134239000D01*
X93101263Y-134205001D01*
X93042101Y-134062171D01*
X93031555Y-134046388D01*
X93023927Y-134029031D01*
X92935395Y-133902475D01*
X92849490Y-133773909D01*
X92836068Y-133760487D01*
X92825200Y-133744951D01*
X92713687Y-133638106D01*
X92604344Y-133528763D01*
X92588558Y-133518215D01*
X92574870Y-133505100D01*
X92444673Y-133422074D01*
X92316082Y-133336152D01*
X92298541Y-133328886D01*
X92282558Y-133318694D01*
X92138673Y-133262667D01*
X91995782Y-133203480D01*
X91977159Y-133199776D01*
X91959496Y-133192898D01*
X91807451Y-133166018D01*
X91655754Y-133135844D01*
X91636768Y-133135844D01*
X91618101Y-133132544D01*
X91463740Y-133135844D01*
X91309064Y-133135844D01*
X91290438Y-133139549D01*
X91271490Y-133139954D01*
X91120745Y-133173303D01*
X90969036Y-133203480D01*
X90951493Y-133210746D01*
X90932985Y-133214841D01*
X90791640Y-133276959D01*
X90648736Y-133336152D01*
X90632946Y-133346703D01*
X90615595Y-133354328D01*
X90489082Y-133442830D01*
X90360474Y-133528763D01*
X90347048Y-133542189D01*
X90331515Y-133553055D01*
X90224704Y-133664533D01*
X90115328Y-133773909D01*
X90104776Y-133789701D01*
X90091665Y-133803385D01*
X90008659Y-133933550D01*
X89922717Y-134062171D01*
X89882248Y-134159873D01*
X89842104Y-134239000D01*
X75540832Y-134239000D01*
X75297500Y-133265673D01*
X75297500Y-122711409D01*
X75350463Y-122810494D01*
X75429815Y-122907185D01*
X75526506Y-122986537D01*
X75636820Y-123045502D01*
X75756518Y-123081812D01*
X75851156Y-123091133D01*
X75777063Y-123165226D01*
X75663795Y-123334744D01*
X75585774Y-123523102D01*
X75546000Y-123723061D01*
X75546000Y-123926939D01*
X75585774Y-124126898D01*
X75663795Y-124315256D01*
X75777063Y-124484774D01*
X75921226Y-124628937D01*
X76090744Y-124742205D01*
X76279102Y-124820226D01*
X76308000Y-124825974D01*
X76308000Y-124942939D01*
X76347774Y-125142898D01*
X76425795Y-125331256D01*
X76539063Y-125500774D01*
X76683226Y-125644937D01*
X76852744Y-125758205D01*
X76936917Y-125793071D01*
X76907301Y-125829158D01*
X76870706Y-125897622D01*
X76830647Y-125972567D01*
X76783444Y-126128175D01*
X76780303Y-126160072D01*
X76767506Y-126290000D01*
X76771500Y-126330551D01*
X76771500Y-126880497D01*
X76679795Y-127017744D01*
X76601774Y-127206102D01*
X76562000Y-127406061D01*
X76562000Y-127609939D01*
X76601774Y-127809898D01*
X76679795Y-127998256D01*
X76771500Y-128135503D01*
X76771501Y-128961440D01*
X76767506Y-129002000D01*
X76783445Y-129163826D01*
X76830647Y-129319433D01*
X76907301Y-129462842D01*
X76942978Y-129506314D01*
X77010460Y-129588541D01*
X77041961Y-129614393D01*
X78914428Y-131486862D01*
X78914428Y-131901250D01*
X78931372Y-132073285D01*
X78981553Y-132238709D01*
X79063042Y-132391164D01*
X79172708Y-132524792D01*
X79306336Y-132634458D01*
X79458791Y-132715947D01*
X79624215Y-132766128D01*
X79796250Y-132783072D01*
X80283750Y-132783072D01*
X80455785Y-132766128D01*
X80621209Y-132715947D01*
X80773664Y-132634458D01*
X80907292Y-132524792D01*
X80912508Y-132518436D01*
X80976315Y-132596185D01*
X81073006Y-132675537D01*
X81183320Y-132734502D01*
X81303018Y-132770812D01*
X81427500Y-132783072D01*
X81629250Y-132780000D01*
X81788000Y-132621250D01*
X81788000Y-131572000D01*
X82042000Y-131572000D01*
X82042000Y-132621250D01*
X82200750Y-132780000D01*
X82402500Y-132783072D01*
X82526982Y-132770812D01*
X82646680Y-132734502D01*
X82756994Y-132675537D01*
X82853685Y-132596185D01*
X82933037Y-132499494D01*
X82992002Y-132389180D01*
X83028312Y-132269482D01*
X83040572Y-132145000D01*
X83038689Y-131891000D01*
X88663428Y-131891000D01*
X88675688Y-132015482D01*
X88711998Y-132135180D01*
X88770963Y-132245494D01*
X88850315Y-132342185D01*
X88947006Y-132421537D01*
X89057320Y-132480502D01*
X89177018Y-132516812D01*
X89301500Y-132529072D01*
X89503250Y-132526000D01*
X89662000Y-132367250D01*
X89662000Y-131318000D01*
X88825250Y-131318000D01*
X88666500Y-131476750D01*
X88663428Y-131891000D01*
X83038689Y-131891000D01*
X83037500Y-131730750D01*
X82878750Y-131572000D01*
X82042000Y-131572000D01*
X81788000Y-131572000D01*
X81768000Y-131572000D01*
X81768000Y-131318000D01*
X81788000Y-131318000D01*
X81788000Y-131298000D01*
X82042000Y-131298000D01*
X82042000Y-131318000D01*
X82878750Y-131318000D01*
X83037500Y-131159250D01*
X83040572Y-130745000D01*
X83028312Y-130620518D01*
X82992002Y-130500820D01*
X82986754Y-130491000D01*
X88663428Y-130491000D01*
X88666500Y-130905250D01*
X88825250Y-131064000D01*
X89662000Y-131064000D01*
X89662000Y-130014750D01*
X89503250Y-129856000D01*
X89301500Y-129852928D01*
X89177018Y-129865188D01*
X89057320Y-129901498D01*
X88947006Y-129960463D01*
X88850315Y-130039815D01*
X88770963Y-130136506D01*
X88711998Y-130246820D01*
X88675688Y-130366518D01*
X88663428Y-130491000D01*
X82986754Y-130491000D01*
X82933037Y-130390506D01*
X82853685Y-130293815D01*
X82756994Y-130214463D01*
X82646680Y-130155498D01*
X82526982Y-130119188D01*
X82402500Y-130106928D01*
X82291175Y-130108623D01*
X82296500Y-130054553D01*
X82296500Y-130054551D01*
X82300494Y-130014000D01*
X82296500Y-129973450D01*
X82296500Y-129132000D01*
X82398002Y-129132000D01*
X82398002Y-128991834D01*
X82441506Y-129027537D01*
X82464667Y-129039917D01*
X82556750Y-129132000D01*
X82670337Y-129122454D01*
X82671518Y-129122812D01*
X82796000Y-129135072D01*
X83346000Y-129135072D01*
X83470482Y-129122812D01*
X83471000Y-129122655D01*
X83471518Y-129122812D01*
X83596000Y-129135072D01*
X84146000Y-129135072D01*
X84270482Y-129122812D01*
X84271000Y-129122655D01*
X84271518Y-129122812D01*
X84396000Y-129135072D01*
X84946000Y-129135072D01*
X85070482Y-129122812D01*
X85071000Y-129122655D01*
X85071518Y-129122812D01*
X85196000Y-129135072D01*
X85746000Y-129135072D01*
X85870482Y-129122812D01*
X85871000Y-129122655D01*
X85871518Y-129122812D01*
X85996000Y-129135072D01*
X86546000Y-129135072D01*
X86670482Y-129122812D01*
X86671000Y-129122655D01*
X86671518Y-129122812D01*
X86796000Y-129135072D01*
X87346000Y-129135072D01*
X87470482Y-129122812D01*
X87471000Y-129122655D01*
X87471518Y-129122812D01*
X87596000Y-129135072D01*
X88146000Y-129135072D01*
X88270482Y-129122812D01*
X88271663Y-129122454D01*
X88385250Y-129132000D01*
X88477333Y-129039917D01*
X88500494Y-129027537D01*
X88597185Y-128948185D01*
X88671000Y-128858241D01*
X88744815Y-128948185D01*
X88841506Y-129027537D01*
X88864667Y-129039917D01*
X88956750Y-129132000D01*
X89070337Y-129122454D01*
X89071518Y-129122812D01*
X89196000Y-129135072D01*
X89746000Y-129135072D01*
X89870482Y-129122812D01*
X89990180Y-129086502D01*
X90100494Y-129027537D01*
X90197185Y-128948185D01*
X90276537Y-128851494D01*
X90335502Y-128741180D01*
X90371812Y-128621482D01*
X90384072Y-128497000D01*
X90384072Y-126997000D01*
X90380038Y-126956038D01*
X90421000Y-126960072D01*
X91821000Y-126960072D01*
X91821001Y-129852928D01*
X91420250Y-129852928D01*
X91248215Y-129869872D01*
X91082791Y-129920053D01*
X90930336Y-130001542D01*
X90796708Y-130111208D01*
X90791492Y-130117564D01*
X90727685Y-130039815D01*
X90630994Y-129960463D01*
X90520680Y-129901498D01*
X90400982Y-129865188D01*
X90276500Y-129852928D01*
X90074750Y-129856000D01*
X89916000Y-130014750D01*
X89916000Y-131064000D01*
X89936000Y-131064000D01*
X89936000Y-131318000D01*
X89916000Y-131318000D01*
X89916000Y-132367250D01*
X90074750Y-132526000D01*
X90276500Y-132529072D01*
X90400982Y-132516812D01*
X90520680Y-132480502D01*
X90630994Y-132421537D01*
X90727685Y-132342185D01*
X90791492Y-132264436D01*
X90796708Y-132270792D01*
X90930336Y-132380458D01*
X91082791Y-132461947D01*
X91248215Y-132512128D01*
X91420250Y-132529072D01*
X91907750Y-132529072D01*
X92079785Y-132512128D01*
X92245209Y-132461947D01*
X92397664Y-132380458D01*
X92531292Y-132270792D01*
X92640958Y-132137164D01*
X92722447Y-131984709D01*
X92772628Y-131819285D01*
X92789572Y-131647250D01*
X92789572Y-131143059D01*
X93095351Y-130837279D01*
X93124422Y-130813422D01*
X93219645Y-130697392D01*
X93290402Y-130565015D01*
X93333974Y-130421378D01*
X93345000Y-130309426D01*
X93345000Y-130309424D01*
X93348686Y-130272001D01*
X93345000Y-130234578D01*
X93345000Y-126148423D01*
X93348686Y-126111000D01*
X93342928Y-126052537D01*
X93333974Y-125961622D01*
X93290402Y-125817985D01*
X93219645Y-125685608D01*
X93124422Y-125569578D01*
X93095344Y-125545715D01*
X93084286Y-125534656D01*
X93060422Y-125505578D01*
X92944392Y-125410355D01*
X92812015Y-125339598D01*
X92668378Y-125296026D01*
X92559072Y-125285261D01*
X92559072Y-124972000D01*
X92546812Y-124847518D01*
X92546655Y-124847000D01*
X92546812Y-124846482D01*
X92559072Y-124722000D01*
X92559072Y-124172000D01*
X92546812Y-124047518D01*
X92546655Y-124047000D01*
X92546812Y-124046482D01*
X92559072Y-123922000D01*
X92559072Y-123372000D01*
X92546812Y-123247518D01*
X92546655Y-123247000D01*
X92546812Y-123246482D01*
X92559072Y-123122000D01*
X92559072Y-122572000D01*
X92546812Y-122447518D01*
X92546655Y-122447000D01*
X92546812Y-122446482D01*
X92559072Y-122322000D01*
X92559072Y-121772000D01*
X92546812Y-121647518D01*
X92546655Y-121647000D01*
X92546812Y-121646482D01*
X92559072Y-121522000D01*
X92559072Y-120972000D01*
X92546812Y-120847518D01*
X92546655Y-120847000D01*
X92546812Y-120846482D01*
X92559072Y-120722000D01*
X92559072Y-120172000D01*
X92546812Y-120047518D01*
X92546655Y-120047000D01*
X92546812Y-120046482D01*
X92559072Y-119922000D01*
X92559072Y-119672500D01*
X92834950Y-119672500D01*
X92875500Y-119676494D01*
X92916050Y-119672500D01*
X92916053Y-119672500D01*
X93037326Y-119660556D01*
X93192934Y-119613353D01*
X93336342Y-119536699D01*
X93462041Y-119433541D01*
X93487898Y-119402034D01*
X93489035Y-119400897D01*
X93520541Y-119375041D01*
X93623699Y-119249342D01*
X93700353Y-119105934D01*
X93747556Y-118950326D01*
X93759500Y-118829053D01*
X93759500Y-118829041D01*
X93763493Y-118788501D01*
X93759500Y-118747961D01*
X93759500Y-116040503D01*
X93851205Y-115903256D01*
X93929226Y-115714898D01*
X93969000Y-115514939D01*
X93969000Y-115311061D01*
X93929226Y-115111102D01*
X93851205Y-114922744D01*
X93759500Y-114785497D01*
X93759500Y-114715590D01*
X93801292Y-114681292D01*
X93910958Y-114547664D01*
X93992447Y-114395209D01*
X94042628Y-114229785D01*
X94059572Y-114057750D01*
X94059572Y-113145250D01*
X94042628Y-112973215D01*
X93992447Y-112807791D01*
X93910958Y-112655336D01*
X93801292Y-112521708D01*
X93667664Y-112412042D01*
X93515209Y-112330553D01*
X93349785Y-112280372D01*
X93177750Y-112263428D01*
X92763361Y-112263428D01*
X91456388Y-110956456D01*
X91430531Y-110924949D01*
X91304832Y-110821791D01*
X91161424Y-110745137D01*
X91005816Y-110697934D01*
X90884543Y-110685990D01*
X90884540Y-110685990D01*
X90843990Y-110681996D01*
X90803440Y-110685990D01*
X88894510Y-110685990D01*
X88894510Y-109443453D01*
X89137247Y-109605644D01*
X89412049Y-109719471D01*
X89703778Y-109777500D01*
X90001222Y-109777500D01*
X90292951Y-109719471D01*
X90567753Y-109605644D01*
X90815069Y-109440393D01*
X91025393Y-109230069D01*
X91190644Y-108982753D01*
X91304471Y-108707951D01*
X91362500Y-108416222D01*
X91362500Y-108118778D01*
X91304471Y-107827049D01*
X91190644Y-107552247D01*
X91149314Y-107490392D01*
X91218126Y-107493427D01*
X91560804Y-107440839D01*
X91886639Y-107322409D01*
X92183107Y-107142687D01*
X92374743Y-106967242D01*
X93710700Y-105478316D01*
X93799581Y-105389435D01*
X93874327Y-105277570D01*
X93953944Y-105169087D01*
X93970479Y-105133669D01*
X93992192Y-105101173D01*
X94043675Y-104976882D01*
X94100601Y-104854945D01*
X94109910Y-104816976D01*
X94124864Y-104780873D01*
X94151110Y-104648926D01*
X94183153Y-104518227D01*
X94184875Y-104479177D01*
X94192500Y-104440845D01*
X94192500Y-104306302D01*
X94198429Y-104171874D01*
X94192500Y-104133239D01*
X94192500Y-104094155D01*
X94166251Y-103962191D01*
X94145841Y-103829196D01*
X94132489Y-103792461D01*
X94124864Y-103754127D01*
X94073374Y-103629820D01*
X94027411Y-103503361D01*
X94007150Y-103469938D01*
X93992192Y-103433827D01*
X93917435Y-103321946D01*
X93847689Y-103206893D01*
X93821298Y-103178066D01*
X93799581Y-103145565D01*
X93704434Y-103050418D01*
X93613583Y-102951183D01*
X93582075Y-102928059D01*
X93554435Y-102900419D01*
X93442550Y-102825659D01*
X93334088Y-102746058D01*
X93298676Y-102729526D01*
X93266173Y-102707808D01*
X93141853Y-102656313D01*
X93019946Y-102599401D01*
X92981986Y-102590095D01*
X92945873Y-102575136D01*
X92813888Y-102548882D01*
X92683228Y-102516849D01*
X92644189Y-102515127D01*
X92605845Y-102507500D01*
X92471258Y-102507500D01*
X92336875Y-102501573D01*
X92298253Y-102507500D01*
X92259155Y-102507500D01*
X92127144Y-102533759D01*
X91994197Y-102554161D01*
X91957476Y-102567508D01*
X91919127Y-102575136D01*
X91794769Y-102626647D01*
X91668363Y-102672591D01*
X91634954Y-102692844D01*
X91598827Y-102707808D01*
X91486900Y-102782595D01*
X91371894Y-102852313D01*
X91343078Y-102878695D01*
X91310565Y-102900419D01*
X91215387Y-102995597D01*
X91180258Y-103027758D01*
X91154337Y-103056647D01*
X91065419Y-103145565D01*
X91038773Y-103185443D01*
X89852500Y-104507548D01*
X89852500Y-100393500D01*
X95567736Y-100393500D01*
X95577646Y-105715424D01*
X95577646Y-105715424D01*
G37*
X95577646Y-105715424D02*
X95191424Y-105638600D01*
X94673576Y-105638600D01*
X94165678Y-105739627D01*
X93687249Y-105937799D01*
X93256674Y-106225500D01*
X92890500Y-106591674D01*
X92602799Y-107022249D01*
X92404627Y-107500678D01*
X92303600Y-108008576D01*
X92303600Y-108526424D01*
X92404627Y-109034322D01*
X92602799Y-109512751D01*
X92890500Y-109943326D01*
X93256674Y-110309500D01*
X93687249Y-110597201D01*
X94165678Y-110795373D01*
X94673576Y-110896400D01*
X95191424Y-110896400D01*
X95587148Y-110817686D01*
X95624438Y-130842573D01*
X95557778Y-130855832D01*
X95480269Y-130887937D01*
X95399941Y-130912006D01*
X95320545Y-130954097D01*
X95237478Y-130988504D01*
X95167721Y-131035114D01*
X95093633Y-131074391D01*
X95023971Y-131131165D01*
X94949216Y-131181115D01*
X94889893Y-131240438D01*
X94824890Y-131293415D01*
X94767643Y-131362688D01*
X94704070Y-131426261D01*
X94657461Y-131496015D01*
X94604041Y-131560658D01*
X94561409Y-131639768D01*
X94511459Y-131714523D01*
X94479353Y-131792033D01*
X94439572Y-131865853D01*
X94413191Y-131951763D01*
X94378787Y-132034823D01*
X94362421Y-132117100D01*
X94337803Y-132197270D01*
X94328689Y-132286680D01*
X94311151Y-132374851D01*
X94311151Y-132458743D01*
X94302647Y-132542172D01*
X94311151Y-132631636D01*
X94311151Y-132721541D01*
X94344438Y-132888885D01*
X94471865Y-133541111D01*
X94546439Y-133789997D01*
X94708824Y-134096304D01*
X94825120Y-134239000D01*
X93116205Y-134239000D01*
X93101263Y-134205001D01*
X93042101Y-134062171D01*
X93031555Y-134046388D01*
X93023927Y-134029031D01*
X92935395Y-133902475D01*
X92849490Y-133773909D01*
X92836068Y-133760487D01*
X92825200Y-133744951D01*
X92713687Y-133638106D01*
X92604344Y-133528763D01*
X92588558Y-133518215D01*
X92574870Y-133505100D01*
X92444673Y-133422074D01*
X92316082Y-133336152D01*
X92298541Y-133328886D01*
X92282558Y-133318694D01*
X92138673Y-133262667D01*
X91995782Y-133203480D01*
X91977159Y-133199776D01*
X91959496Y-133192898D01*
X91807451Y-133166018D01*
X91655754Y-133135844D01*
X91636768Y-133135844D01*
X91618101Y-133132544D01*
X91463740Y-133135844D01*
X91309064Y-133135844D01*
X91290438Y-133139549D01*
X91271490Y-133139954D01*
X91120745Y-133173303D01*
X90969036Y-133203480D01*
X90951493Y-133210746D01*
X90932985Y-133214841D01*
X90791640Y-133276959D01*
X90648736Y-133336152D01*
X90632946Y-133346703D01*
X90615595Y-133354328D01*
X90489082Y-133442830D01*
X90360474Y-133528763D01*
X90347048Y-133542189D01*
X90331515Y-133553055D01*
X90224704Y-133664533D01*
X90115328Y-133773909D01*
X90104776Y-133789701D01*
X90091665Y-133803385D01*
X90008659Y-133933550D01*
X89922717Y-134062171D01*
X89882248Y-134159873D01*
X89842104Y-134239000D01*
X75540832Y-134239000D01*
X75297500Y-133265673D01*
X75297500Y-122711409D01*
X75350463Y-122810494D01*
X75429815Y-122907185D01*
X75526506Y-122986537D01*
X75636820Y-123045502D01*
X75756518Y-123081812D01*
X75851156Y-123091133D01*
X75777063Y-123165226D01*
X75663795Y-123334744D01*
X75585774Y-123523102D01*
X75546000Y-123723061D01*
X75546000Y-123926939D01*
X75585774Y-124126898D01*
X75663795Y-124315256D01*
X75777063Y-124484774D01*
X75921226Y-124628937D01*
X76090744Y-124742205D01*
X76279102Y-124820226D01*
X76308000Y-124825974D01*
X76308000Y-124942939D01*
X76347774Y-125142898D01*
X76425795Y-125331256D01*
X76539063Y-125500774D01*
X76683226Y-125644937D01*
X76852744Y-125758205D01*
X76936917Y-125793071D01*
X76907301Y-125829158D01*
X76870706Y-125897622D01*
X76830647Y-125972567D01*
X76783444Y-126128175D01*
X76780303Y-126160072D01*
X76767506Y-126290000D01*
X76771500Y-126330551D01*
X76771500Y-126880497D01*
X76679795Y-127017744D01*
X76601774Y-127206102D01*
X76562000Y-127406061D01*
X76562000Y-127609939D01*
X76601774Y-127809898D01*
X76679795Y-127998256D01*
X76771500Y-128135503D01*
X76771501Y-128961440D01*
X76767506Y-129002000D01*
X76783445Y-129163826D01*
X76830647Y-129319433D01*
X76907301Y-129462842D01*
X76942978Y-129506314D01*
X77010460Y-129588541D01*
X77041961Y-129614393D01*
X78914428Y-131486862D01*
X78914428Y-131901250D01*
X78931372Y-132073285D01*
X78981553Y-132238709D01*
X79063042Y-132391164D01*
X79172708Y-132524792D01*
X79306336Y-132634458D01*
X79458791Y-132715947D01*
X79624215Y-132766128D01*
X79796250Y-132783072D01*
X80283750Y-132783072D01*
X80455785Y-132766128D01*
X80621209Y-132715947D01*
X80773664Y-132634458D01*
X80907292Y-132524792D01*
X80912508Y-132518436D01*
X80976315Y-132596185D01*
X81073006Y-132675537D01*
X81183320Y-132734502D01*
X81303018Y-132770812D01*
X81427500Y-132783072D01*
X81629250Y-132780000D01*
X81788000Y-132621250D01*
X81788000Y-131572000D01*
X82042000Y-131572000D01*
X82042000Y-132621250D01*
X82200750Y-132780000D01*
X82402500Y-132783072D01*
X82526982Y-132770812D01*
X82646680Y-132734502D01*
X82756994Y-132675537D01*
X82853685Y-132596185D01*
X82933037Y-132499494D01*
X82992002Y-132389180D01*
X83028312Y-132269482D01*
X83040572Y-132145000D01*
X83038689Y-131891000D01*
X88663428Y-131891000D01*
X88675688Y-132015482D01*
X88711998Y-132135180D01*
X88770963Y-132245494D01*
X88850315Y-132342185D01*
X88947006Y-132421537D01*
X89057320Y-132480502D01*
X89177018Y-132516812D01*
X89301500Y-132529072D01*
X89503250Y-132526000D01*
X89662000Y-132367250D01*
X89662000Y-131318000D01*
X88825250Y-131318000D01*
X88666500Y-131476750D01*
X88663428Y-131891000D01*
X83038689Y-131891000D01*
X83037500Y-131730750D01*
X82878750Y-131572000D01*
X82042000Y-131572000D01*
X81788000Y-131572000D01*
X81768000Y-131572000D01*
X81768000Y-131318000D01*
X81788000Y-131318000D01*
X81788000Y-131298000D01*
X82042000Y-131298000D01*
X82042000Y-131318000D01*
X82878750Y-131318000D01*
X83037500Y-131159250D01*
X83040572Y-130745000D01*
X83028312Y-130620518D01*
X82992002Y-130500820D01*
X82986754Y-130491000D01*
X88663428Y-130491000D01*
X88666500Y-130905250D01*
X88825250Y-131064000D01*
X89662000Y-131064000D01*
X89662000Y-130014750D01*
X89503250Y-129856000D01*
X89301500Y-129852928D01*
X89177018Y-129865188D01*
X89057320Y-129901498D01*
X88947006Y-129960463D01*
X88850315Y-130039815D01*
X88770963Y-130136506D01*
X88711998Y-130246820D01*
X88675688Y-130366518D01*
X88663428Y-130491000D01*
X82986754Y-130491000D01*
X82933037Y-130390506D01*
X82853685Y-130293815D01*
X82756994Y-130214463D01*
X82646680Y-130155498D01*
X82526982Y-130119188D01*
X82402500Y-130106928D01*
X82291175Y-130108623D01*
X82296500Y-130054553D01*
X82296500Y-130054551D01*
X82300494Y-130014000D01*
X82296500Y-129973450D01*
X82296500Y-129132000D01*
X82398002Y-129132000D01*
X82398002Y-128991834D01*
X82441506Y-129027537D01*
X82464667Y-129039917D01*
X82556750Y-129132000D01*
X82670337Y-129122454D01*
X82671518Y-129122812D01*
X82796000Y-129135072D01*
X83346000Y-129135072D01*
X83470482Y-129122812D01*
X83471000Y-129122655D01*
X83471518Y-129122812D01*
X83596000Y-129135072D01*
X84146000Y-129135072D01*
X84270482Y-129122812D01*
X84271000Y-129122655D01*
X84271518Y-129122812D01*
X84396000Y-129135072D01*
X84946000Y-129135072D01*
X85070482Y-129122812D01*
X85071000Y-129122655D01*
X85071518Y-129122812D01*
X85196000Y-129135072D01*
X85746000Y-129135072D01*
X85870482Y-129122812D01*
X85871000Y-129122655D01*
X85871518Y-129122812D01*
X85996000Y-129135072D01*
X86546000Y-129135072D01*
X86670482Y-129122812D01*
X86671000Y-129122655D01*
X86671518Y-129122812D01*
X86796000Y-129135072D01*
X87346000Y-129135072D01*
X87470482Y-129122812D01*
X87471000Y-129122655D01*
X87471518Y-129122812D01*
X87596000Y-129135072D01*
X88146000Y-129135072D01*
X88270482Y-129122812D01*
X88271663Y-129122454D01*
X88385250Y-129132000D01*
X88477333Y-129039917D01*
X88500494Y-129027537D01*
X88597185Y-128948185D01*
X88671000Y-128858241D01*
X88744815Y-128948185D01*
X88841506Y-129027537D01*
X88864667Y-129039917D01*
X88956750Y-129132000D01*
X89070337Y-129122454D01*
X89071518Y-129122812D01*
X89196000Y-129135072D01*
X89746000Y-129135072D01*
X89870482Y-129122812D01*
X89990180Y-129086502D01*
X90100494Y-129027537D01*
X90197185Y-128948185D01*
X90276537Y-128851494D01*
X90335502Y-128741180D01*
X90371812Y-128621482D01*
X90384072Y-128497000D01*
X90384072Y-126997000D01*
X90380038Y-126956038D01*
X90421000Y-126960072D01*
X91821000Y-126960072D01*
X91821001Y-129852928D01*
X91420250Y-129852928D01*
X91248215Y-129869872D01*
X91082791Y-129920053D01*
X90930336Y-130001542D01*
X90796708Y-130111208D01*
X90791492Y-130117564D01*
X90727685Y-130039815D01*
X90630994Y-129960463D01*
X90520680Y-129901498D01*
X90400982Y-129865188D01*
X90276500Y-129852928D01*
X90074750Y-129856000D01*
X89916000Y-130014750D01*
X89916000Y-131064000D01*
X89936000Y-131064000D01*
X89936000Y-131318000D01*
X89916000Y-131318000D01*
X89916000Y-132367250D01*
X90074750Y-132526000D01*
X90276500Y-132529072D01*
X90400982Y-132516812D01*
X90520680Y-132480502D01*
X90630994Y-132421537D01*
X90727685Y-132342185D01*
X90791492Y-132264436D01*
X90796708Y-132270792D01*
X90930336Y-132380458D01*
X91082791Y-132461947D01*
X91248215Y-132512128D01*
X91420250Y-132529072D01*
X91907750Y-132529072D01*
X92079785Y-132512128D01*
X92245209Y-132461947D01*
X92397664Y-132380458D01*
X92531292Y-132270792D01*
X92640958Y-132137164D01*
X92722447Y-131984709D01*
X92772628Y-131819285D01*
X92789572Y-131647250D01*
X92789572Y-131143059D01*
X93095351Y-130837279D01*
X93124422Y-130813422D01*
X93219645Y-130697392D01*
X93290402Y-130565015D01*
X93333974Y-130421378D01*
X93345000Y-130309426D01*
X93345000Y-130309424D01*
X93348686Y-130272001D01*
X93345000Y-130234578D01*
X93345000Y-126148423D01*
X93348686Y-126111000D01*
X93342928Y-126052537D01*
X93333974Y-125961622D01*
X93290402Y-125817985D01*
X93219645Y-125685608D01*
X93124422Y-125569578D01*
X93095344Y-125545715D01*
X93084286Y-125534656D01*
X93060422Y-125505578D01*
X92944392Y-125410355D01*
X92812015Y-125339598D01*
X92668378Y-125296026D01*
X92559072Y-125285261D01*
X92559072Y-124972000D01*
X92546812Y-124847518D01*
X92546655Y-124847000D01*
X92546812Y-124846482D01*
X92559072Y-124722000D01*
X92559072Y-124172000D01*
X92546812Y-124047518D01*
X92546655Y-124047000D01*
X92546812Y-124046482D01*
X92559072Y-123922000D01*
X92559072Y-123372000D01*
X92546812Y-123247518D01*
X92546655Y-123247000D01*
X92546812Y-123246482D01*
X92559072Y-123122000D01*
X92559072Y-122572000D01*
X92546812Y-122447518D01*
X92546655Y-122447000D01*
X92546812Y-122446482D01*
X92559072Y-122322000D01*
X92559072Y-121772000D01*
X92546812Y-121647518D01*
X92546655Y-121647000D01*
X92546812Y-121646482D01*
X92559072Y-121522000D01*
X92559072Y-120972000D01*
X92546812Y-120847518D01*
X92546655Y-120847000D01*
X92546812Y-120846482D01*
X92559072Y-120722000D01*
X92559072Y-120172000D01*
X92546812Y-120047518D01*
X92546655Y-120047000D01*
X92546812Y-120046482D01*
X92559072Y-119922000D01*
X92559072Y-119672500D01*
X92834950Y-119672500D01*
X92875500Y-119676494D01*
X92916050Y-119672500D01*
X92916053Y-119672500D01*
X93037326Y-119660556D01*
X93192934Y-119613353D01*
X93336342Y-119536699D01*
X93462041Y-119433541D01*
X93487898Y-119402034D01*
X93489035Y-119400897D01*
X93520541Y-119375041D01*
X93623699Y-119249342D01*
X93700353Y-119105934D01*
X93747556Y-118950326D01*
X93759500Y-118829053D01*
X93759500Y-118829041D01*
X93763493Y-118788501D01*
X93759500Y-118747961D01*
X93759500Y-116040503D01*
X93851205Y-115903256D01*
X93929226Y-115714898D01*
X93969000Y-115514939D01*
X93969000Y-115311061D01*
X93929226Y-115111102D01*
X93851205Y-114922744D01*
X93759500Y-114785497D01*
X93759500Y-114715590D01*
X93801292Y-114681292D01*
X93910958Y-114547664D01*
X93992447Y-114395209D01*
X94042628Y-114229785D01*
X94059572Y-114057750D01*
X94059572Y-113145250D01*
X94042628Y-112973215D01*
X93992447Y-112807791D01*
X93910958Y-112655336D01*
X93801292Y-112521708D01*
X93667664Y-112412042D01*
X93515209Y-112330553D01*
X93349785Y-112280372D01*
X93177750Y-112263428D01*
X92763361Y-112263428D01*
X91456388Y-110956456D01*
X91430531Y-110924949D01*
X91304832Y-110821791D01*
X91161424Y-110745137D01*
X91005816Y-110697934D01*
X90884543Y-110685990D01*
X90884540Y-110685990D01*
X90843990Y-110681996D01*
X90803440Y-110685990D01*
X88894510Y-110685990D01*
X88894510Y-109443453D01*
X89137247Y-109605644D01*
X89412049Y-109719471D01*
X89703778Y-109777500D01*
X90001222Y-109777500D01*
X90292951Y-109719471D01*
X90567753Y-109605644D01*
X90815069Y-109440393D01*
X91025393Y-109230069D01*
X91190644Y-108982753D01*
X91304471Y-108707951D01*
X91362500Y-108416222D01*
X91362500Y-108118778D01*
X91304471Y-107827049D01*
X91190644Y-107552247D01*
X91149314Y-107490392D01*
X91218126Y-107493427D01*
X91560804Y-107440839D01*
X91886639Y-107322409D01*
X92183107Y-107142687D01*
X92374743Y-106967242D01*
X93710700Y-105478316D01*
X93799581Y-105389435D01*
X93874327Y-105277570D01*
X93953944Y-105169087D01*
X93970479Y-105133669D01*
X93992192Y-105101173D01*
X94043675Y-104976882D01*
X94100601Y-104854945D01*
X94109910Y-104816976D01*
X94124864Y-104780873D01*
X94151110Y-104648926D01*
X94183153Y-104518227D01*
X94184875Y-104479177D01*
X94192500Y-104440845D01*
X94192500Y-104306302D01*
X94198429Y-104171874D01*
X94192500Y-104133239D01*
X94192500Y-104094155D01*
X94166251Y-103962191D01*
X94145841Y-103829196D01*
X94132489Y-103792461D01*
X94124864Y-103754127D01*
X94073374Y-103629820D01*
X94027411Y-103503361D01*
X94007150Y-103469938D01*
X93992192Y-103433827D01*
X93917435Y-103321946D01*
X93847689Y-103206893D01*
X93821298Y-103178066D01*
X93799581Y-103145565D01*
X93704434Y-103050418D01*
X93613583Y-102951183D01*
X93582075Y-102928059D01*
X93554435Y-102900419D01*
X93442550Y-102825659D01*
X93334088Y-102746058D01*
X93298676Y-102729526D01*
X93266173Y-102707808D01*
X93141853Y-102656313D01*
X93019946Y-102599401D01*
X92981986Y-102590095D01*
X92945873Y-102575136D01*
X92813888Y-102548882D01*
X92683228Y-102516849D01*
X92644189Y-102515127D01*
X92605845Y-102507500D01*
X92471258Y-102507500D01*
X92336875Y-102501573D01*
X92298253Y-102507500D01*
X92259155Y-102507500D01*
X92127144Y-102533759D01*
X91994197Y-102554161D01*
X91957476Y-102567508D01*
X91919127Y-102575136D01*
X91794769Y-102626647D01*
X91668363Y-102672591D01*
X91634954Y-102692844D01*
X91598827Y-102707808D01*
X91486900Y-102782595D01*
X91371894Y-102852313D01*
X91343078Y-102878695D01*
X91310565Y-102900419D01*
X91215387Y-102995597D01*
X91180258Y-103027758D01*
X91154337Y-103056647D01*
X91065419Y-103145565D01*
X91038773Y-103185443D01*
X89852500Y-104507548D01*
X89852500Y-100393500D01*
X95567736Y-100393500D01*
X95577646Y-105715424D01*
G36*
X90217006Y-112370963D02*
G01*
X90120315Y-112450315D01*
X90040963Y-112547006D01*
X89981998Y-112657320D01*
X89945688Y-112777018D01*
X89933428Y-112901500D01*
X89936500Y-113315750D01*
X90095250Y-113474500D01*
X90932000Y-113474500D01*
X90932000Y-113454500D01*
X91186000Y-113454500D01*
X91186000Y-113474500D01*
X91206000Y-113474500D01*
X91206000Y-113728500D01*
X91186000Y-113728500D01*
X91186000Y-114777750D01*
X91344750Y-114936500D01*
X91546500Y-114939572D01*
X91670982Y-114927312D01*
X91790680Y-114891002D01*
X91900994Y-114832037D01*
X91997685Y-114752685D01*
X92061492Y-114674936D01*
X92066708Y-114681292D01*
X92108500Y-114715590D01*
X92108500Y-114785497D01*
X92016795Y-114922744D01*
X91938774Y-115111102D01*
X91899000Y-115311061D01*
X91899000Y-115514939D01*
X91938774Y-115714898D01*
X92016795Y-115903256D01*
X92108501Y-116040504D01*
X92108500Y-117165279D01*
X92042329Y-117145570D01*
X91917787Y-117133936D01*
X91456750Y-117137000D01*
X91298000Y-117295750D01*
X91298000Y-117920000D01*
X91318000Y-117920000D01*
X91318000Y-117933928D01*
X90421000Y-117933928D01*
X90296518Y-117946188D01*
X90176820Y-117982498D01*
X90066506Y-118041463D01*
X89969815Y-118120815D01*
X89890463Y-118217506D01*
X89878083Y-118240667D01*
X89786000Y-118332750D01*
X89795546Y-118446337D01*
X89795188Y-118447518D01*
X89782928Y-118572000D01*
X89782928Y-119122000D01*
X89795188Y-119246482D01*
X89795345Y-119247000D01*
X89795188Y-119247518D01*
X89782928Y-119372000D01*
X89782928Y-119922000D01*
X89795188Y-120046482D01*
X89795345Y-120047000D01*
X89795188Y-120047518D01*
X89782928Y-120172000D01*
X89782928Y-120722000D01*
X89795188Y-120846482D01*
X89795345Y-120847000D01*
X89795188Y-120847518D01*
X89782928Y-120972000D01*
X89782928Y-121522000D01*
X89795188Y-121646482D01*
X89795345Y-121647000D01*
X89795188Y-121647518D01*
X89782928Y-121772000D01*
X89782928Y-122322000D01*
X89795188Y-122446482D01*
X89795345Y-122447000D01*
X89795188Y-122447518D01*
X89782928Y-122572000D01*
X89782928Y-123122000D01*
X89795188Y-123246482D01*
X89795345Y-123247000D01*
X89795188Y-123247518D01*
X89782928Y-123372000D01*
X89782928Y-123922000D01*
X89795188Y-124046482D01*
X89795345Y-124047000D01*
X89795188Y-124047518D01*
X89782928Y-124172000D01*
X89782928Y-124722000D01*
X89795188Y-124846482D01*
X89795345Y-124847000D01*
X89795188Y-124847518D01*
X89782928Y-124972000D01*
X89782928Y-125522000D01*
X89795188Y-125646482D01*
X89795345Y-125647000D01*
X89795188Y-125647518D01*
X89782928Y-125772000D01*
X89782928Y-126322000D01*
X89786962Y-126362962D01*
X89746000Y-126358928D01*
X89196000Y-126358928D01*
X89071518Y-126371188D01*
X89070337Y-126371546D01*
X88956750Y-126362000D01*
X88864667Y-126454083D01*
X88841506Y-126466463D01*
X88744815Y-126545815D01*
X88671000Y-126635759D01*
X88597185Y-126545815D01*
X88500494Y-126466463D01*
X88477333Y-126454083D01*
X88385250Y-126362000D01*
X88271663Y-126371546D01*
X88270482Y-126371188D01*
X88146000Y-126358928D01*
X87596000Y-126358928D01*
X87471518Y-126371188D01*
X87471000Y-126371345D01*
X87470482Y-126371188D01*
X87346000Y-126358928D01*
X86796000Y-126358928D01*
X86671518Y-126371188D01*
X86671000Y-126371345D01*
X86670482Y-126371188D01*
X86546000Y-126358928D01*
X85996000Y-126358928D01*
X85871518Y-126371188D01*
X85871000Y-126371345D01*
X85870482Y-126371188D01*
X85746000Y-126358928D01*
X85196000Y-126358928D01*
X85071518Y-126371188D01*
X85071000Y-126371345D01*
X85070482Y-126371188D01*
X84946000Y-126358928D01*
X84396000Y-126358928D01*
X84271518Y-126371188D01*
X84271000Y-126371345D01*
X84270482Y-126371188D01*
X84146000Y-126358928D01*
X83596000Y-126358928D01*
X83471518Y-126371188D01*
X83471000Y-126371345D01*
X83470482Y-126371188D01*
X83346000Y-126358928D01*
X82796000Y-126358928D01*
X82671518Y-126371188D01*
X82670337Y-126371546D01*
X82556750Y-126362000D01*
X82464667Y-126454083D01*
X82441506Y-126466463D01*
X82344815Y-126545815D01*
X82271000Y-126635759D01*
X82197185Y-126545815D01*
X82100494Y-126466463D01*
X82077333Y-126454083D01*
X81985250Y-126362000D01*
X81871663Y-126371546D01*
X81870482Y-126371188D01*
X81746000Y-126358928D01*
X81196000Y-126358928D01*
X81155038Y-126362962D01*
X81159072Y-126322000D01*
X81159072Y-125772000D01*
X81146812Y-125647518D01*
X81146655Y-125647000D01*
X81146812Y-125646482D01*
X81159072Y-125522000D01*
X81159072Y-124972000D01*
X81146812Y-124847518D01*
X81146655Y-124847000D01*
X81146812Y-124846482D01*
X81159072Y-124722000D01*
X81159072Y-124172000D01*
X81146812Y-124047518D01*
X81146655Y-124047000D01*
X81146812Y-124046482D01*
X81159072Y-123922000D01*
X81159072Y-123372000D01*
X81146812Y-123247518D01*
X81146454Y-123246337D01*
X81156000Y-123132750D01*
X81063917Y-123040667D01*
X81051537Y-123017506D01*
X80972185Y-122920815D01*
X80882241Y-122847000D01*
X80972185Y-122773185D01*
X81051537Y-122676494D01*
X81063917Y-122653333D01*
X81156000Y-122561250D01*
X81146454Y-122447663D01*
X81146812Y-122446482D01*
X81159072Y-122322000D01*
X81159072Y-121772000D01*
X81146812Y-121647518D01*
X81146655Y-121647000D01*
X81146812Y-121646482D01*
X81159072Y-121522000D01*
X81159072Y-120972000D01*
X81146812Y-120847518D01*
X81146655Y-120847000D01*
X81146812Y-120846482D01*
X81159072Y-120722000D01*
X81159072Y-120172000D01*
X81146812Y-120047518D01*
X81146655Y-120047000D01*
X81146812Y-120046482D01*
X81159072Y-119922000D01*
X81159072Y-119372000D01*
X81146812Y-119247518D01*
X81146655Y-119247000D01*
X81146812Y-119246482D01*
X81159072Y-119122000D01*
X81159072Y-118572000D01*
X81146812Y-118447518D01*
X81146655Y-118447000D01*
X81146812Y-118446482D01*
X81159072Y-118322000D01*
X81159072Y-117772000D01*
X81155038Y-117731038D01*
X81196000Y-117735072D01*
X81746000Y-117735072D01*
X81870482Y-117722812D01*
X81871000Y-117722655D01*
X81871518Y-117722812D01*
X81996000Y-117735072D01*
X82546000Y-117735072D01*
X82670482Y-117722812D01*
X82671000Y-117722655D01*
X82671518Y-117722812D01*
X82796000Y-117735072D01*
X83346000Y-117735072D01*
X83470482Y-117722812D01*
X83471663Y-117722454D01*
X83585250Y-117732000D01*
X83677333Y-117639917D01*
X83700494Y-117627537D01*
X83797185Y-117548185D01*
X83871000Y-117458241D01*
X83944815Y-117548185D01*
X84041506Y-117627537D01*
X84064667Y-117639917D01*
X84156750Y-117732000D01*
X84270337Y-117722454D01*
X84271518Y-117722812D01*
X84396000Y-117735072D01*
X84946000Y-117735072D01*
X85070482Y-117722812D01*
X85071000Y-117722655D01*
X85071518Y-117722812D01*
X85196000Y-117735072D01*
X85746000Y-117735072D01*
X85870482Y-117722812D01*
X85871000Y-117722655D01*
X85871518Y-117722812D01*
X85996000Y-117735072D01*
X86546000Y-117735072D01*
X86670482Y-117722812D01*
X86671000Y-117722655D01*
X86671518Y-117722812D01*
X86796000Y-117735072D01*
X87346000Y-117735072D01*
X87470482Y-117722812D01*
X87471000Y-117722655D01*
X87471518Y-117722812D01*
X87596000Y-117735072D01*
X88146000Y-117735072D01*
X88270482Y-117722812D01*
X88271000Y-117722655D01*
X88271518Y-117722812D01*
X88396000Y-117735072D01*
X88946000Y-117735072D01*
X89070482Y-117722812D01*
X89071000Y-117722655D01*
X89071518Y-117722812D01*
X89196000Y-117735072D01*
X89746000Y-117735072D01*
X89788552Y-117730881D01*
X89786000Y-117761250D01*
X89944750Y-117920000D01*
X91044000Y-117920000D01*
X91044000Y-117295750D01*
X90885250Y-117137000D01*
X90424213Y-117133936D01*
X90380028Y-117138064D01*
X90384072Y-117097000D01*
X90384072Y-115597000D01*
X90371812Y-115472518D01*
X90335502Y-115352820D01*
X90276537Y-115242506D01*
X90197185Y-115145815D01*
X90100494Y-115066463D01*
X89990180Y-115007498D01*
X89870482Y-114971188D01*
X89746000Y-114958928D01*
X89196000Y-114958928D01*
X89071518Y-114971188D01*
X89071000Y-114971345D01*
X89070482Y-114971188D01*
X88946000Y-114958928D01*
X88396000Y-114958928D01*
X88271518Y-114971188D01*
X88271000Y-114971345D01*
X88270482Y-114971188D01*
X88146000Y-114958928D01*
X87596000Y-114958928D01*
X87471518Y-114971188D01*
X87471000Y-114971345D01*
X87470482Y-114971188D01*
X87346000Y-114958928D01*
X87033000Y-114958928D01*
X87033000Y-114301500D01*
X89933428Y-114301500D01*
X89945688Y-114425982D01*
X89981998Y-114545680D01*
X90040963Y-114655994D01*
X90120315Y-114752685D01*
X90217006Y-114832037D01*
X90327320Y-114891002D01*
X90447018Y-114927312D01*
X90571500Y-114939572D01*
X90773250Y-114936500D01*
X90932000Y-114777750D01*
X90932000Y-113728500D01*
X90095250Y-113728500D01*
X89936500Y-113887250D01*
X89933428Y-114301500D01*
X87033000Y-114301500D01*
X87033000Y-113458181D01*
X87210561Y-113493500D01*
X87414439Y-113493500D01*
X87614398Y-113453726D01*
X87802756Y-113375705D01*
X87972274Y-113262437D01*
X88116437Y-113118274D01*
X88229705Y-112948756D01*
X88307726Y-112760398D01*
X88347500Y-112560439D01*
X88347500Y-112356561D01*
X88343607Y-112336990D01*
X90280564Y-112336990D01*
X90217006Y-112370963D01*
X90217006Y-112370963D01*
G37*
X90217006Y-112370963D02*
X90120315Y-112450315D01*
X90040963Y-112547006D01*
X89981998Y-112657320D01*
X89945688Y-112777018D01*
X89933428Y-112901500D01*
X89936500Y-113315750D01*
X90095250Y-113474500D01*
X90932000Y-113474500D01*
X90932000Y-113454500D01*
X91186000Y-113454500D01*
X91186000Y-113474500D01*
X91206000Y-113474500D01*
X91206000Y-113728500D01*
X91186000Y-113728500D01*
X91186000Y-114777750D01*
X91344750Y-114936500D01*
X91546500Y-114939572D01*
X91670982Y-114927312D01*
X91790680Y-114891002D01*
X91900994Y-114832037D01*
X91997685Y-114752685D01*
X92061492Y-114674936D01*
X92066708Y-114681292D01*
X92108500Y-114715590D01*
X92108500Y-114785497D01*
X92016795Y-114922744D01*
X91938774Y-115111102D01*
X91899000Y-115311061D01*
X91899000Y-115514939D01*
X91938774Y-115714898D01*
X92016795Y-115903256D01*
X92108501Y-116040504D01*
X92108500Y-117165279D01*
X92042329Y-117145570D01*
X91917787Y-117133936D01*
X91456750Y-117137000D01*
X91298000Y-117295750D01*
X91298000Y-117920000D01*
X91318000Y-117920000D01*
X91318000Y-117933928D01*
X90421000Y-117933928D01*
X90296518Y-117946188D01*
X90176820Y-117982498D01*
X90066506Y-118041463D01*
X89969815Y-118120815D01*
X89890463Y-118217506D01*
X89878083Y-118240667D01*
X89786000Y-118332750D01*
X89795546Y-118446337D01*
X89795188Y-118447518D01*
X89782928Y-118572000D01*
X89782928Y-119122000D01*
X89795188Y-119246482D01*
X89795345Y-119247000D01*
X89795188Y-119247518D01*
X89782928Y-119372000D01*
X89782928Y-119922000D01*
X89795188Y-120046482D01*
X89795345Y-120047000D01*
X89795188Y-120047518D01*
X89782928Y-120172000D01*
X89782928Y-120722000D01*
X89795188Y-120846482D01*
X89795345Y-120847000D01*
X89795188Y-120847518D01*
X89782928Y-120972000D01*
X89782928Y-121522000D01*
X89795188Y-121646482D01*
X89795345Y-121647000D01*
X89795188Y-121647518D01*
X89782928Y-121772000D01*
X89782928Y-122322000D01*
X89795188Y-122446482D01*
X89795345Y-122447000D01*
X89795188Y-122447518D01*
X89782928Y-122572000D01*
X89782928Y-123122000D01*
X89795188Y-123246482D01*
X89795345Y-123247000D01*
X89795188Y-123247518D01*
X89782928Y-123372000D01*
X89782928Y-123922000D01*
X89795188Y-124046482D01*
X89795345Y-124047000D01*
X89795188Y-124047518D01*
X89782928Y-124172000D01*
X89782928Y-124722000D01*
X89795188Y-124846482D01*
X89795345Y-124847000D01*
X89795188Y-124847518D01*
X89782928Y-124972000D01*
X89782928Y-125522000D01*
X89795188Y-125646482D01*
X89795345Y-125647000D01*
X89795188Y-125647518D01*
X89782928Y-125772000D01*
X89782928Y-126322000D01*
X89786962Y-126362962D01*
X89746000Y-126358928D01*
X89196000Y-126358928D01*
X89071518Y-126371188D01*
X89070337Y-126371546D01*
X88956750Y-126362000D01*
X88864667Y-126454083D01*
X88841506Y-126466463D01*
X88744815Y-126545815D01*
X88671000Y-126635759D01*
X88597185Y-126545815D01*
X88500494Y-126466463D01*
X88477333Y-126454083D01*
X88385250Y-126362000D01*
X88271663Y-126371546D01*
X88270482Y-126371188D01*
X88146000Y-126358928D01*
X87596000Y-126358928D01*
X87471518Y-126371188D01*
X87471000Y-126371345D01*
X87470482Y-126371188D01*
X87346000Y-126358928D01*
X86796000Y-126358928D01*
X86671518Y-126371188D01*
X86671000Y-126371345D01*
X86670482Y-126371188D01*
X86546000Y-126358928D01*
X85996000Y-126358928D01*
X85871518Y-126371188D01*
X85871000Y-126371345D01*
X85870482Y-126371188D01*
X85746000Y-126358928D01*
X85196000Y-126358928D01*
X85071518Y-126371188D01*
X85071000Y-126371345D01*
X85070482Y-126371188D01*
X84946000Y-126358928D01*
X84396000Y-126358928D01*
X84271518Y-126371188D01*
X84271000Y-126371345D01*
X84270482Y-126371188D01*
X84146000Y-126358928D01*
X83596000Y-126358928D01*
X83471518Y-126371188D01*
X83471000Y-126371345D01*
X83470482Y-126371188D01*
X83346000Y-126358928D01*
X82796000Y-126358928D01*
X82671518Y-126371188D01*
X82670337Y-126371546D01*
X82556750Y-126362000D01*
X82464667Y-126454083D01*
X82441506Y-126466463D01*
X82344815Y-126545815D01*
X82271000Y-126635759D01*
X82197185Y-126545815D01*
X82100494Y-126466463D01*
X82077333Y-126454083D01*
X81985250Y-126362000D01*
X81871663Y-126371546D01*
X81870482Y-126371188D01*
X81746000Y-126358928D01*
X81196000Y-126358928D01*
X81155038Y-126362962D01*
X81159072Y-126322000D01*
X81159072Y-125772000D01*
X81146812Y-125647518D01*
X81146655Y-125647000D01*
X81146812Y-125646482D01*
X81159072Y-125522000D01*
X81159072Y-124972000D01*
X81146812Y-124847518D01*
X81146655Y-124847000D01*
X81146812Y-124846482D01*
X81159072Y-124722000D01*
X81159072Y-124172000D01*
X81146812Y-124047518D01*
X81146655Y-124047000D01*
X81146812Y-124046482D01*
X81159072Y-123922000D01*
X81159072Y-123372000D01*
X81146812Y-123247518D01*
X81146454Y-123246337D01*
X81156000Y-123132750D01*
X81063917Y-123040667D01*
X81051537Y-123017506D01*
X80972185Y-122920815D01*
X80882241Y-122847000D01*
X80972185Y-122773185D01*
X81051537Y-122676494D01*
X81063917Y-122653333D01*
X81156000Y-122561250D01*
X81146454Y-122447663D01*
X81146812Y-122446482D01*
X81159072Y-122322000D01*
X81159072Y-121772000D01*
X81146812Y-121647518D01*
X81146655Y-121647000D01*
X81146812Y-121646482D01*
X81159072Y-121522000D01*
X81159072Y-120972000D01*
X81146812Y-120847518D01*
X81146655Y-120847000D01*
X81146812Y-120846482D01*
X81159072Y-120722000D01*
X81159072Y-120172000D01*
X81146812Y-120047518D01*
X81146655Y-120047000D01*
X81146812Y-120046482D01*
X81159072Y-119922000D01*
X81159072Y-119372000D01*
X81146812Y-119247518D01*
X81146655Y-119247000D01*
X81146812Y-119246482D01*
X81159072Y-119122000D01*
X81159072Y-118572000D01*
X81146812Y-118447518D01*
X81146655Y-118447000D01*
X81146812Y-118446482D01*
X81159072Y-118322000D01*
X81159072Y-117772000D01*
X81155038Y-117731038D01*
X81196000Y-117735072D01*
X81746000Y-117735072D01*
X81870482Y-117722812D01*
X81871000Y-117722655D01*
X81871518Y-117722812D01*
X81996000Y-117735072D01*
X82546000Y-117735072D01*
X82670482Y-117722812D01*
X82671000Y-117722655D01*
X82671518Y-117722812D01*
X82796000Y-117735072D01*
X83346000Y-117735072D01*
X83470482Y-117722812D01*
X83471663Y-117722454D01*
X83585250Y-117732000D01*
X83677333Y-117639917D01*
X83700494Y-117627537D01*
X83797185Y-117548185D01*
X83871000Y-117458241D01*
X83944815Y-117548185D01*
X84041506Y-117627537D01*
X84064667Y-117639917D01*
X84156750Y-117732000D01*
X84270337Y-117722454D01*
X84271518Y-117722812D01*
X84396000Y-117735072D01*
X84946000Y-117735072D01*
X85070482Y-117722812D01*
X85071000Y-117722655D01*
X85071518Y-117722812D01*
X85196000Y-117735072D01*
X85746000Y-117735072D01*
X85870482Y-117722812D01*
X85871000Y-117722655D01*
X85871518Y-117722812D01*
X85996000Y-117735072D01*
X86546000Y-117735072D01*
X86670482Y-117722812D01*
X86671000Y-117722655D01*
X86671518Y-117722812D01*
X86796000Y-117735072D01*
X87346000Y-117735072D01*
X87470482Y-117722812D01*
X87471000Y-117722655D01*
X87471518Y-117722812D01*
X87596000Y-117735072D01*
X88146000Y-117735072D01*
X88270482Y-117722812D01*
X88271000Y-117722655D01*
X88271518Y-117722812D01*
X88396000Y-117735072D01*
X88946000Y-117735072D01*
X89070482Y-117722812D01*
X89071000Y-117722655D01*
X89071518Y-117722812D01*
X89196000Y-117735072D01*
X89746000Y-117735072D01*
X89788552Y-117730881D01*
X89786000Y-117761250D01*
X89944750Y-117920000D01*
X91044000Y-117920000D01*
X91044000Y-117295750D01*
X90885250Y-117137000D01*
X90424213Y-117133936D01*
X90380028Y-117138064D01*
X90384072Y-117097000D01*
X90384072Y-115597000D01*
X90371812Y-115472518D01*
X90335502Y-115352820D01*
X90276537Y-115242506D01*
X90197185Y-115145815D01*
X90100494Y-115066463D01*
X89990180Y-115007498D01*
X89870482Y-114971188D01*
X89746000Y-114958928D01*
X89196000Y-114958928D01*
X89071518Y-114971188D01*
X89071000Y-114971345D01*
X89070482Y-114971188D01*
X88946000Y-114958928D01*
X88396000Y-114958928D01*
X88271518Y-114971188D01*
X88271000Y-114971345D01*
X88270482Y-114971188D01*
X88146000Y-114958928D01*
X87596000Y-114958928D01*
X87471518Y-114971188D01*
X87471000Y-114971345D01*
X87470482Y-114971188D01*
X87346000Y-114958928D01*
X87033000Y-114958928D01*
X87033000Y-114301500D01*
X89933428Y-114301500D01*
X89945688Y-114425982D01*
X89981998Y-114545680D01*
X90040963Y-114655994D01*
X90120315Y-114752685D01*
X90217006Y-114832037D01*
X90327320Y-114891002D01*
X90447018Y-114927312D01*
X90571500Y-114939572D01*
X90773250Y-114936500D01*
X90932000Y-114777750D01*
X90932000Y-113728500D01*
X90095250Y-113728500D01*
X89936500Y-113887250D01*
X89933428Y-114301500D01*
X87033000Y-114301500D01*
X87033000Y-113458181D01*
X87210561Y-113493500D01*
X87414439Y-113493500D01*
X87614398Y-113453726D01*
X87802756Y-113375705D01*
X87972274Y-113262437D01*
X88116437Y-113118274D01*
X88229705Y-112948756D01*
X88307726Y-112760398D01*
X88347500Y-112560439D01*
X88347500Y-112356561D01*
X88343607Y-112336990D01*
X90280564Y-112336990D01*
X90217006Y-112370963D01*
G36*
X77969221Y-122559352D02*
G01*
X77993078Y-122588422D01*
X78109108Y-122683645D01*
X78241485Y-122754402D01*
X78385122Y-122797974D01*
X78497074Y-122809000D01*
X78497076Y-122809000D01*
X78534499Y-122812686D01*
X78571922Y-122809000D01*
X78613456Y-122809000D01*
X78659759Y-122847000D01*
X78613456Y-122885000D01*
X77750392Y-122885000D01*
X77811537Y-122810494D01*
X77870502Y-122700180D01*
X77906812Y-122580482D01*
X77914302Y-122504433D01*
X77969221Y-122559352D01*
X77969221Y-122559352D01*
G37*
X77969221Y-122559352D02*
X77993078Y-122588422D01*
X78109108Y-122683645D01*
X78241485Y-122754402D01*
X78385122Y-122797974D01*
X78497074Y-122809000D01*
X78497076Y-122809000D01*
X78534499Y-122812686D01*
X78571922Y-122809000D01*
X78613456Y-122809000D01*
X78659759Y-122847000D01*
X78613456Y-122885000D01*
X77750392Y-122885000D01*
X77811537Y-122810494D01*
X77870502Y-122700180D01*
X77906812Y-122580482D01*
X77914302Y-122504433D01*
X77969221Y-122559352D01*
G36*
X75297500Y-122202750D02*
G01*
X75297500Y-122095502D01*
X75404748Y-122095502D01*
X75297500Y-122202750D01*
X75297500Y-122202750D01*
G37*
X75297500Y-122202750D02*
X75297500Y-122095502D01*
X75404748Y-122095502D01*
X75297500Y-122202750D01*
G36*
X76708000Y-121841500D02*
G01*
X76728000Y-121841500D01*
X76728000Y-122095500D01*
X76708000Y-122095500D01*
X76708000Y-122115500D01*
X76454000Y-122115500D01*
X76454000Y-122095500D01*
X76434000Y-122095500D01*
X76434000Y-121841500D01*
X76454000Y-121841500D01*
X76454000Y-121821500D01*
X76708000Y-121821500D01*
X76708000Y-121841500D01*
X76708000Y-121841500D01*
G37*
X76708000Y-121841500D02*
X76728000Y-121841500D01*
X76728000Y-122095500D01*
X76708000Y-122095500D01*
X76708000Y-122115500D01*
X76454000Y-122115500D01*
X76454000Y-122095500D01*
X76434000Y-122095500D01*
X76434000Y-121841500D01*
X76454000Y-121841500D01*
X76454000Y-121821500D01*
X76708000Y-121821500D01*
X76708000Y-121841500D01*
G36*
X75404748Y-121841498D02*
G01*
X75297500Y-121841498D01*
X75297500Y-121734250D01*
X75404748Y-121841498D01*
X75404748Y-121841498D01*
G37*
X75404748Y-121841498D02*
X75297500Y-121841498D01*
X75297500Y-121734250D01*
X75404748Y-121841498D01*
G36*
X88201501Y-101508823D02*
G01*
X88132709Y-101472053D01*
X87967285Y-101421872D01*
X87795250Y-101404928D01*
X87307750Y-101404928D01*
X87135715Y-101421872D01*
X86970291Y-101472053D01*
X86817836Y-101553542D01*
X86684208Y-101663208D01*
X86678992Y-101669564D01*
X86615185Y-101591815D01*
X86518494Y-101512463D01*
X86408180Y-101453498D01*
X86288482Y-101417188D01*
X86164000Y-101404928D01*
X85962250Y-101408000D01*
X85803500Y-101566750D01*
X85803500Y-102616000D01*
X85823500Y-102616000D01*
X85823500Y-102870000D01*
X85803500Y-102870000D01*
X85803500Y-103919250D01*
X85962250Y-104078000D01*
X86164000Y-104081072D01*
X86288482Y-104068812D01*
X86408180Y-104032502D01*
X86518494Y-103973537D01*
X86615185Y-103894185D01*
X86678992Y-103816436D01*
X86684208Y-103822792D01*
X86789500Y-103909203D01*
X86789501Y-107088869D01*
X86157067Y-107721303D01*
X86139537Y-107688506D01*
X86102191Y-107643000D01*
X86139537Y-107597494D01*
X86198502Y-107487180D01*
X86234812Y-107367482D01*
X86247072Y-107243000D01*
X86244000Y-106478750D01*
X86085250Y-106320000D01*
X84836000Y-106320000D01*
X84836000Y-106340000D01*
X84582000Y-106340000D01*
X84582000Y-106320000D01*
X84562000Y-106320000D01*
X84562000Y-106066000D01*
X84582000Y-106066000D01*
X84582000Y-104666750D01*
X84836000Y-104666750D01*
X84836000Y-106066000D01*
X86085250Y-106066000D01*
X86244000Y-105907250D01*
X86247072Y-105143000D01*
X86234812Y-105018518D01*
X86198502Y-104898820D01*
X86139537Y-104788506D01*
X86060185Y-104691815D01*
X85963494Y-104612463D01*
X85853180Y-104553498D01*
X85733482Y-104517188D01*
X85609000Y-104504928D01*
X84994750Y-104508000D01*
X84836000Y-104666750D01*
X84582000Y-104666750D01*
X84423250Y-104508000D01*
X83809000Y-104504928D01*
X83684518Y-104517188D01*
X83564820Y-104553498D01*
X83559000Y-104556609D01*
X83553180Y-104553498D01*
X83433482Y-104517188D01*
X83309000Y-104504928D01*
X81509000Y-104504928D01*
X81384518Y-104517188D01*
X81264820Y-104553498D01*
X81246500Y-104563290D01*
X81246500Y-103909203D01*
X81351792Y-103822792D01*
X81357008Y-103816436D01*
X81420815Y-103894185D01*
X81517506Y-103973537D01*
X81627820Y-104032502D01*
X81747518Y-104068812D01*
X81872000Y-104081072D01*
X82073750Y-104078000D01*
X82232500Y-103919250D01*
X82232500Y-102870000D01*
X82486500Y-102870000D01*
X82486500Y-103919250D01*
X82645250Y-104078000D01*
X82847000Y-104081072D01*
X82971482Y-104068812D01*
X83091180Y-104032502D01*
X83201494Y-103973537D01*
X83298185Y-103894185D01*
X83377537Y-103797494D01*
X83436502Y-103687180D01*
X83472812Y-103567482D01*
X83485072Y-103443000D01*
X84550928Y-103443000D01*
X84563188Y-103567482D01*
X84599498Y-103687180D01*
X84658463Y-103797494D01*
X84737815Y-103894185D01*
X84834506Y-103973537D01*
X84944820Y-104032502D01*
X85064518Y-104068812D01*
X85189000Y-104081072D01*
X85390750Y-104078000D01*
X85549500Y-103919250D01*
X85549500Y-102870000D01*
X84712750Y-102870000D01*
X84554000Y-103028750D01*
X84550928Y-103443000D01*
X83485072Y-103443000D01*
X83482000Y-103028750D01*
X83323250Y-102870000D01*
X82486500Y-102870000D01*
X82232500Y-102870000D01*
X82212500Y-102870000D01*
X82212500Y-102616000D01*
X82232500Y-102616000D01*
X82232500Y-101566750D01*
X82486500Y-101566750D01*
X82486500Y-102616000D01*
X83323250Y-102616000D01*
X83482000Y-102457250D01*
X83485072Y-102043000D01*
X84550928Y-102043000D01*
X84554000Y-102457250D01*
X84712750Y-102616000D01*
X85549500Y-102616000D01*
X85549500Y-101566750D01*
X85390750Y-101408000D01*
X85189000Y-101404928D01*
X85064518Y-101417188D01*
X84944820Y-101453498D01*
X84834506Y-101512463D01*
X84737815Y-101591815D01*
X84658463Y-101688506D01*
X84599498Y-101798820D01*
X84563188Y-101918518D01*
X84550928Y-102043000D01*
X83485072Y-102043000D01*
X83472812Y-101918518D01*
X83436502Y-101798820D01*
X83377537Y-101688506D01*
X83298185Y-101591815D01*
X83201494Y-101512463D01*
X83091180Y-101453498D01*
X82971482Y-101417188D01*
X82847000Y-101404928D01*
X82645250Y-101408000D01*
X82486500Y-101566750D01*
X82232500Y-101566750D01*
X82073750Y-101408000D01*
X81872000Y-101404928D01*
X81747518Y-101417188D01*
X81627820Y-101453498D01*
X81517506Y-101512463D01*
X81420815Y-101591815D01*
X81357008Y-101669564D01*
X81351792Y-101663208D01*
X81218164Y-101553542D01*
X81065709Y-101472053D01*
X80900285Y-101421872D01*
X80728250Y-101404928D01*
X80240750Y-101404928D01*
X80068715Y-101421872D01*
X79903291Y-101472053D01*
X79750836Y-101553542D01*
X79617208Y-101663208D01*
X79507542Y-101796836D01*
X79426053Y-101949291D01*
X79375872Y-102114715D01*
X79358928Y-102286750D01*
X79358928Y-103199250D01*
X79375872Y-103371285D01*
X79426053Y-103536709D01*
X79507542Y-103689164D01*
X79617208Y-103822792D01*
X79722500Y-103909204D01*
X79722501Y-105385067D01*
X79718814Y-105422500D01*
X79733527Y-105571878D01*
X79777099Y-105715515D01*
X79818813Y-105793557D01*
X79370653Y-106241717D01*
X79341578Y-106265578D01*
X79296916Y-106320000D01*
X79246355Y-106381608D01*
X79239991Y-106393515D01*
X79175598Y-106513986D01*
X79132026Y-106657623D01*
X79121000Y-106769574D01*
X79117314Y-106807000D01*
X79121000Y-106844423D01*
X79121001Y-110325567D01*
X79117314Y-110363000D01*
X79132027Y-110512378D01*
X79175599Y-110656015D01*
X79246355Y-110788392D01*
X79317721Y-110875351D01*
X79341579Y-110904422D01*
X79370649Y-110928279D01*
X80079720Y-111637351D01*
X80103578Y-111666422D01*
X80132648Y-111690279D01*
X80219607Y-111761645D01*
X80284546Y-111796355D01*
X80351985Y-111832402D01*
X80495622Y-111875974D01*
X80607574Y-111887000D01*
X80607577Y-111887000D01*
X80645000Y-111890686D01*
X80682423Y-111887000D01*
X83909000Y-111887000D01*
X83909001Y-115189455D01*
X83876133Y-115229505D01*
X83837353Y-115101664D01*
X83760699Y-114958256D01*
X83657541Y-114832557D01*
X83626039Y-114806704D01*
X83108905Y-114289570D01*
X83125312Y-114235482D01*
X83137572Y-114111000D01*
X83134500Y-113696750D01*
X82975750Y-113538000D01*
X82139000Y-113538000D01*
X82139000Y-113558000D01*
X81885000Y-113558000D01*
X81885000Y-113538000D01*
X81865000Y-113538000D01*
X81865000Y-113284000D01*
X81885000Y-113284000D01*
X81885000Y-112234750D01*
X82139000Y-112234750D01*
X82139000Y-113284000D01*
X82975750Y-113284000D01*
X83134500Y-113125250D01*
X83137572Y-112711000D01*
X83125312Y-112586518D01*
X83089002Y-112466820D01*
X83030037Y-112356506D01*
X82950685Y-112259815D01*
X82853994Y-112180463D01*
X82743680Y-112121498D01*
X82623982Y-112085188D01*
X82499500Y-112072928D01*
X82297750Y-112076000D01*
X82139000Y-112234750D01*
X81885000Y-112234750D01*
X81726250Y-112076000D01*
X81524500Y-112072928D01*
X81400018Y-112085188D01*
X81280320Y-112121498D01*
X81170006Y-112180463D01*
X81073315Y-112259815D01*
X81009508Y-112337564D01*
X81004292Y-112331208D01*
X80870664Y-112221542D01*
X80718209Y-112140053D01*
X80552785Y-112089872D01*
X80380750Y-112072928D01*
X79912341Y-112072928D01*
X78790378Y-110950966D01*
X78764521Y-110919459D01*
X78638822Y-110816301D01*
X78495414Y-110739647D01*
X78339806Y-110692444D01*
X78218533Y-110680500D01*
X78218530Y-110680500D01*
X78177980Y-110676506D01*
X78137430Y-110680500D01*
X77970503Y-110680500D01*
X77833256Y-110588795D01*
X77644898Y-110510774D01*
X77444939Y-110471000D01*
X77241061Y-110471000D01*
X77041102Y-110510774D01*
X76852744Y-110588795D01*
X76715497Y-110680500D01*
X76431050Y-110680500D01*
X76390500Y-110676506D01*
X76349950Y-110680500D01*
X76349947Y-110680500D01*
X76228674Y-110692444D01*
X76073066Y-110739647D01*
X75929658Y-110816301D01*
X75803959Y-110919459D01*
X75700801Y-111045158D01*
X75624147Y-111188566D01*
X75576944Y-111344174D01*
X75561006Y-111506000D01*
X75576944Y-111667826D01*
X75624147Y-111823434D01*
X75658500Y-111887704D01*
X75658500Y-112169910D01*
X75616708Y-112204208D01*
X75507042Y-112337836D01*
X75425553Y-112490291D01*
X75375372Y-112655715D01*
X75358428Y-112827750D01*
X75358428Y-113740250D01*
X75375372Y-113912285D01*
X75425553Y-114077709D01*
X75507042Y-114230164D01*
X75616708Y-114363792D01*
X75750336Y-114473458D01*
X75902791Y-114554947D01*
X76068215Y-114605128D01*
X76240250Y-114622072D01*
X76654640Y-114622072D01*
X76815409Y-114782841D01*
X76708000Y-114890250D01*
X76708000Y-115727000D01*
X76728000Y-115727000D01*
X76728000Y-115981000D01*
X76708000Y-115981000D01*
X76708000Y-116001000D01*
X76454000Y-116001000D01*
X76454000Y-115981000D01*
X76434000Y-115981000D01*
X76434000Y-115727000D01*
X76454000Y-115727000D01*
X76454000Y-114890250D01*
X76295250Y-114731500D01*
X75881000Y-114728428D01*
X75756518Y-114740688D01*
X75636820Y-114776998D01*
X75526506Y-114835963D01*
X75429815Y-114915315D01*
X75350463Y-115012006D01*
X75297500Y-115111091D01*
X75297500Y-100393500D01*
X88201501Y-100393500D01*
X88201501Y-101508823D01*
X88201501Y-101508823D01*
G37*
X88201501Y-101508823D02*
X88132709Y-101472053D01*
X87967285Y-101421872D01*
X87795250Y-101404928D01*
X87307750Y-101404928D01*
X87135715Y-101421872D01*
X86970291Y-101472053D01*
X86817836Y-101553542D01*
X86684208Y-101663208D01*
X86678992Y-101669564D01*
X86615185Y-101591815D01*
X86518494Y-101512463D01*
X86408180Y-101453498D01*
X86288482Y-101417188D01*
X86164000Y-101404928D01*
X85962250Y-101408000D01*
X85803500Y-101566750D01*
X85803500Y-102616000D01*
X85823500Y-102616000D01*
X85823500Y-102870000D01*
X85803500Y-102870000D01*
X85803500Y-103919250D01*
X85962250Y-104078000D01*
X86164000Y-104081072D01*
X86288482Y-104068812D01*
X86408180Y-104032502D01*
X86518494Y-103973537D01*
X86615185Y-103894185D01*
X86678992Y-103816436D01*
X86684208Y-103822792D01*
X86789500Y-103909203D01*
X86789501Y-107088869D01*
X86157067Y-107721303D01*
X86139537Y-107688506D01*
X86102191Y-107643000D01*
X86139537Y-107597494D01*
X86198502Y-107487180D01*
X86234812Y-107367482D01*
X86247072Y-107243000D01*
X86244000Y-106478750D01*
X86085250Y-106320000D01*
X84836000Y-106320000D01*
X84836000Y-106340000D01*
X84582000Y-106340000D01*
X84582000Y-106320000D01*
X84562000Y-106320000D01*
X84562000Y-106066000D01*
X84582000Y-106066000D01*
X84582000Y-104666750D01*
X84836000Y-104666750D01*
X84836000Y-106066000D01*
X86085250Y-106066000D01*
X86244000Y-105907250D01*
X86247072Y-105143000D01*
X86234812Y-105018518D01*
X86198502Y-104898820D01*
X86139537Y-104788506D01*
X86060185Y-104691815D01*
X85963494Y-104612463D01*
X85853180Y-104553498D01*
X85733482Y-104517188D01*
X85609000Y-104504928D01*
X84994750Y-104508000D01*
X84836000Y-104666750D01*
X84582000Y-104666750D01*
X84423250Y-104508000D01*
X83809000Y-104504928D01*
X83684518Y-104517188D01*
X83564820Y-104553498D01*
X83559000Y-104556609D01*
X83553180Y-104553498D01*
X83433482Y-104517188D01*
X83309000Y-104504928D01*
X81509000Y-104504928D01*
X81384518Y-104517188D01*
X81264820Y-104553498D01*
X81246500Y-104563290D01*
X81246500Y-103909203D01*
X81351792Y-103822792D01*
X81357008Y-103816436D01*
X81420815Y-103894185D01*
X81517506Y-103973537D01*
X81627820Y-104032502D01*
X81747518Y-104068812D01*
X81872000Y-104081072D01*
X82073750Y-104078000D01*
X82232500Y-103919250D01*
X82232500Y-102870000D01*
X82486500Y-102870000D01*
X82486500Y-103919250D01*
X82645250Y-104078000D01*
X82847000Y-104081072D01*
X82971482Y-104068812D01*
X83091180Y-104032502D01*
X83201494Y-103973537D01*
X83298185Y-103894185D01*
X83377537Y-103797494D01*
X83436502Y-103687180D01*
X83472812Y-103567482D01*
X83485072Y-103443000D01*
X84550928Y-103443000D01*
X84563188Y-103567482D01*
X84599498Y-103687180D01*
X84658463Y-103797494D01*
X84737815Y-103894185D01*
X84834506Y-103973537D01*
X84944820Y-104032502D01*
X85064518Y-104068812D01*
X85189000Y-104081072D01*
X85390750Y-104078000D01*
X85549500Y-103919250D01*
X85549500Y-102870000D01*
X84712750Y-102870000D01*
X84554000Y-103028750D01*
X84550928Y-103443000D01*
X83485072Y-103443000D01*
X83482000Y-103028750D01*
X83323250Y-102870000D01*
X82486500Y-102870000D01*
X82232500Y-102870000D01*
X82212500Y-102870000D01*
X82212500Y-102616000D01*
X82232500Y-102616000D01*
X82232500Y-101566750D01*
X82486500Y-101566750D01*
X82486500Y-102616000D01*
X83323250Y-102616000D01*
X83482000Y-102457250D01*
X83485072Y-102043000D01*
X84550928Y-102043000D01*
X84554000Y-102457250D01*
X84712750Y-102616000D01*
X85549500Y-102616000D01*
X85549500Y-101566750D01*
X85390750Y-101408000D01*
X85189000Y-101404928D01*
X85064518Y-101417188D01*
X84944820Y-101453498D01*
X84834506Y-101512463D01*
X84737815Y-101591815D01*
X84658463Y-101688506D01*
X84599498Y-101798820D01*
X84563188Y-101918518D01*
X84550928Y-102043000D01*
X83485072Y-102043000D01*
X83472812Y-101918518D01*
X83436502Y-101798820D01*
X83377537Y-101688506D01*
X83298185Y-101591815D01*
X83201494Y-101512463D01*
X83091180Y-101453498D01*
X82971482Y-101417188D01*
X82847000Y-101404928D01*
X82645250Y-101408000D01*
X82486500Y-101566750D01*
X82232500Y-101566750D01*
X82073750Y-101408000D01*
X81872000Y-101404928D01*
X81747518Y-101417188D01*
X81627820Y-101453498D01*
X81517506Y-101512463D01*
X81420815Y-101591815D01*
X81357008Y-101669564D01*
X81351792Y-101663208D01*
X81218164Y-101553542D01*
X81065709Y-101472053D01*
X80900285Y-101421872D01*
X80728250Y-101404928D01*
X80240750Y-101404928D01*
X80068715Y-101421872D01*
X79903291Y-101472053D01*
X79750836Y-101553542D01*
X79617208Y-101663208D01*
X79507542Y-101796836D01*
X79426053Y-101949291D01*
X79375872Y-102114715D01*
X79358928Y-102286750D01*
X79358928Y-103199250D01*
X79375872Y-103371285D01*
X79426053Y-103536709D01*
X79507542Y-103689164D01*
X79617208Y-103822792D01*
X79722500Y-103909204D01*
X79722501Y-105385067D01*
X79718814Y-105422500D01*
X79733527Y-105571878D01*
X79777099Y-105715515D01*
X79818813Y-105793557D01*
X79370653Y-106241717D01*
X79341578Y-106265578D01*
X79296916Y-106320000D01*
X79246355Y-106381608D01*
X79239991Y-106393515D01*
X79175598Y-106513986D01*
X79132026Y-106657623D01*
X79121000Y-106769574D01*
X79117314Y-106807000D01*
X79121000Y-106844423D01*
X79121001Y-110325567D01*
X79117314Y-110363000D01*
X79132027Y-110512378D01*
X79175599Y-110656015D01*
X79246355Y-110788392D01*
X79317721Y-110875351D01*
X79341579Y-110904422D01*
X79370649Y-110928279D01*
X80079720Y-111637351D01*
X80103578Y-111666422D01*
X80132648Y-111690279D01*
X80219607Y-111761645D01*
X80284546Y-111796355D01*
X80351985Y-111832402D01*
X80495622Y-111875974D01*
X80607574Y-111887000D01*
X80607577Y-111887000D01*
X80645000Y-111890686D01*
X80682423Y-111887000D01*
X83909000Y-111887000D01*
X83909001Y-115189455D01*
X83876133Y-115229505D01*
X83837353Y-115101664D01*
X83760699Y-114958256D01*
X83657541Y-114832557D01*
X83626039Y-114806704D01*
X83108905Y-114289570D01*
X83125312Y-114235482D01*
X83137572Y-114111000D01*
X83134500Y-113696750D01*
X82975750Y-113538000D01*
X82139000Y-113538000D01*
X82139000Y-113558000D01*
X81885000Y-113558000D01*
X81885000Y-113538000D01*
X81865000Y-113538000D01*
X81865000Y-113284000D01*
X81885000Y-113284000D01*
X81885000Y-112234750D01*
X82139000Y-112234750D01*
X82139000Y-113284000D01*
X82975750Y-113284000D01*
X83134500Y-113125250D01*
X83137572Y-112711000D01*
X83125312Y-112586518D01*
X83089002Y-112466820D01*
X83030037Y-112356506D01*
X82950685Y-112259815D01*
X82853994Y-112180463D01*
X82743680Y-112121498D01*
X82623982Y-112085188D01*
X82499500Y-112072928D01*
X82297750Y-112076000D01*
X82139000Y-112234750D01*
X81885000Y-112234750D01*
X81726250Y-112076000D01*
X81524500Y-112072928D01*
X81400018Y-112085188D01*
X81280320Y-112121498D01*
X81170006Y-112180463D01*
X81073315Y-112259815D01*
X81009508Y-112337564D01*
X81004292Y-112331208D01*
X80870664Y-112221542D01*
X80718209Y-112140053D01*
X80552785Y-112089872D01*
X80380750Y-112072928D01*
X79912341Y-112072928D01*
X78790378Y-110950966D01*
X78764521Y-110919459D01*
X78638822Y-110816301D01*
X78495414Y-110739647D01*
X78339806Y-110692444D01*
X78218533Y-110680500D01*
X78218530Y-110680500D01*
X78177980Y-110676506D01*
X78137430Y-110680500D01*
X77970503Y-110680500D01*
X77833256Y-110588795D01*
X77644898Y-110510774D01*
X77444939Y-110471000D01*
X77241061Y-110471000D01*
X77041102Y-110510774D01*
X76852744Y-110588795D01*
X76715497Y-110680500D01*
X76431050Y-110680500D01*
X76390500Y-110676506D01*
X76349950Y-110680500D01*
X76349947Y-110680500D01*
X76228674Y-110692444D01*
X76073066Y-110739647D01*
X75929658Y-110816301D01*
X75803959Y-110919459D01*
X75700801Y-111045158D01*
X75624147Y-111188566D01*
X75576944Y-111344174D01*
X75561006Y-111506000D01*
X75576944Y-111667826D01*
X75624147Y-111823434D01*
X75658500Y-111887704D01*
X75658500Y-112169910D01*
X75616708Y-112204208D01*
X75507042Y-112337836D01*
X75425553Y-112490291D01*
X75375372Y-112655715D01*
X75358428Y-112827750D01*
X75358428Y-113740250D01*
X75375372Y-113912285D01*
X75425553Y-114077709D01*
X75507042Y-114230164D01*
X75616708Y-114363792D01*
X75750336Y-114473458D01*
X75902791Y-114554947D01*
X76068215Y-114605128D01*
X76240250Y-114622072D01*
X76654640Y-114622072D01*
X76815409Y-114782841D01*
X76708000Y-114890250D01*
X76708000Y-115727000D01*
X76728000Y-115727000D01*
X76728000Y-115981000D01*
X76708000Y-115981000D01*
X76708000Y-116001000D01*
X76454000Y-116001000D01*
X76454000Y-115981000D01*
X76434000Y-115981000D01*
X76434000Y-115727000D01*
X76454000Y-115727000D01*
X76454000Y-114890250D01*
X76295250Y-114731500D01*
X75881000Y-114728428D01*
X75756518Y-114740688D01*
X75636820Y-114776998D01*
X75526506Y-114835963D01*
X75429815Y-114915315D01*
X75350463Y-115012006D01*
X75297500Y-115111091D01*
X75297500Y-100393500D01*
X88201501Y-100393500D01*
X88201501Y-101508823D01*
G36*
X80870928Y-107243000D02*
G01*
X80883188Y-107367482D01*
X80919498Y-107487180D01*
X80978463Y-107597494D01*
X81015809Y-107643000D01*
X80978463Y-107688506D01*
X80919498Y-107798820D01*
X80883188Y-107918518D01*
X80870928Y-108043000D01*
X80874000Y-108807250D01*
X81032750Y-108966000D01*
X82282000Y-108966000D01*
X82282000Y-108946000D01*
X82536000Y-108946000D01*
X82536000Y-108966000D01*
X82556000Y-108966000D01*
X82556000Y-109220000D01*
X82536000Y-109220000D01*
X82536000Y-109240000D01*
X82282000Y-109240000D01*
X82282000Y-109220000D01*
X81032750Y-109220000D01*
X80874000Y-109378750D01*
X80870928Y-110143000D01*
X80883188Y-110267482D01*
X80891059Y-110293428D01*
X80645000Y-110047370D01*
X80645000Y-107122630D01*
X80812631Y-106955000D01*
X80870928Y-106955000D01*
X80870928Y-107243000D01*
X80870928Y-107243000D01*
G37*
X80870928Y-107243000D02*
X80883188Y-107367482D01*
X80919498Y-107487180D01*
X80978463Y-107597494D01*
X81015809Y-107643000D01*
X80978463Y-107688506D01*
X80919498Y-107798820D01*
X80883188Y-107918518D01*
X80870928Y-108043000D01*
X80874000Y-108807250D01*
X81032750Y-108966000D01*
X82282000Y-108966000D01*
X82282000Y-108946000D01*
X82536000Y-108946000D01*
X82536000Y-108966000D01*
X82556000Y-108966000D01*
X82556000Y-109220000D01*
X82536000Y-109220000D01*
X82536000Y-109240000D01*
X82282000Y-109240000D01*
X82282000Y-109220000D01*
X81032750Y-109220000D01*
X80874000Y-109378750D01*
X80870928Y-110143000D01*
X80883188Y-110267482D01*
X80891059Y-110293428D01*
X80645000Y-110047370D01*
X80645000Y-107122630D01*
X80812631Y-106955000D01*
X80870928Y-106955000D01*
X80870928Y-107243000D01*
M02*
