M48
; DRILL file {KiCad (5.1.4)-1} date 10/17/2021 8:40:16 PM
; FORMAT={-:-/ absolute / inch / decimal}
; #@! TF.CreationDate,2021-10-17T20:40:16-04:00
; #@! TF.GenerationSoftware,Kicad,Pcbnew,(5.1.4)-1
; #@! TF.FileFunction,Plated,1,2,PTH
FMAT,2
INCH
T1C0.0157
T2C0.0276
T3C0.0394
T4C0.0579
%
G90
G05
T1
X3.015Y-4.875
X3.045Y-2.62
X3.045Y-4.39
X3.045Y-4.915
X3.055Y-5.02
X3.1367Y-4.5283
X3.2745Y-3.5645
X3.317Y-3.0655
X3.4375Y-4.4275
X3.6588Y-4.5438
T4
X3.5667Y-5.3797
X3.6017Y-5.3109
X3.7823Y-5.2184
X3.7867Y-5.2409
X5.8375Y-4.7875
X5.8891Y-4.73
X6.0859Y-4.7103
X6.0875Y-4.6875
X7.3375Y-3.4125
X7.3891Y-3.355
X7.5859Y-3.3353
X7.5875Y-3.3125
X7.3375Y-2.6625
X7.3891Y-2.605
X7.5859Y-2.5853
X7.5875Y-2.5625
X6.5875Y-3.5375
X6.6391Y-3.48
X6.8359Y-3.4603
X6.8375Y-3.4375
X6.5875Y-4.2875
X6.6391Y-4.23
X6.8359Y-4.2103
X6.8375Y-4.1875
X3.5875Y-3.4125
X3.6391Y-3.355
X3.8359Y-3.3353
X3.8375Y-3.3125
X4.3375Y-2.85
X4.3891Y-2.7925
X4.5859Y-2.7728
X4.5875Y-2.75
X5.0875Y-3.85
X5.1391Y-3.7925
X5.3359Y-3.7728
X5.3375Y-3.75
X5.0875Y-2.35
X5.1391Y-2.2925
X5.3359Y-2.2728
X5.3375Y-2.25
X4.3375Y-3.6
X4.3891Y-3.5425
X4.5859Y-3.5228
X4.5875Y-3.5
X6.5875Y-2.7875
X6.6391Y-2.73
X6.8359Y-2.7103
X6.8375Y-2.6875
X5.8375Y-4.0375
X5.8891Y-3.98
X6.0859Y-3.9603
X6.0875Y-3.9375
X3.5875Y-2.6625
X3.6391Y-2.605
X3.8359Y-2.5853
X3.8375Y-2.5625
X4.3375Y-4.35
X4.3891Y-4.2925
X4.5859Y-4.2728
X4.5875Y-4.25
X5.8375Y-2.5375
X5.8891Y-2.48
X6.0859Y-2.4603
X6.0875Y-2.4375
X5.8375Y-3.2875
X5.8891Y-3.23
X6.0859Y-3.2103
X6.0875Y-3.1875
X3.5875Y-4.1625
X3.6391Y-4.105
X3.8359Y-4.0853
X3.8375Y-4.0625
X4.3167Y-5.2672
X4.3517Y-5.1984
X4.5323Y-5.1059
X4.5367Y-5.1284
X7.3375Y-4.1625
X7.3891Y-4.105
X7.5859Y-4.0853
X7.5875Y-4.0625
X5.0875Y-3.1
X5.1391Y-3.0425
X5.3359Y-3.0228
X5.3375Y-3.0
X5.0875Y-4.6
X5.1391Y-4.5425
X5.3359Y-4.5228
X5.3375Y-4.5
T2
G00X3.0289Y-2.8588
M15
G01X3.0761Y-2.8588
M16
G05
G00X3.0289Y-3.1462
M15
G01X3.0761Y-3.1462
M16
G05
G00X3.206Y-2.8588
M15
G01X3.2533Y-2.8588
M16
G05
G00X3.206Y-3.1462
M15
G01X3.2533Y-3.1462
M16
G05
T3
G00X3.3Y-2.1897
M15
G01X3.3Y-2.1503
M16
G05
G00X3.3945Y-2.1109
M15
G01X3.3945Y-2.0716
M16
G05
G00X3.5402Y-2.1897
M15
G01X3.5402Y-2.1503
M16
G05
G00X3.611Y-2.1109
M15
G01X3.611Y-2.0716
M16
G05
G00X3.7567Y-2.1897
M15
G01X3.7567Y-2.1503
M16
G05
T0
M30
