M48
; DRILL file {KiCad (5.1.4)-1} date 1/12/2022 12:55:50 PM
; FORMAT={-:-/ absolute / inch / decimal}
; #@! TF.CreationDate,2022-01-12T12:55:50-05:00
; #@! TF.GenerationSoftware,Kicad,Pcbnew,(5.1.4)-1
; #@! TF.FileFunction,Plated,1,2,PTH
FMAT,2
INCH
T1C0.0157
T2C0.0276
T3C0.0394
T4C0.0433
T5C0.0472
T6C0.0630
%
G90
G05
T1
X3.37Y-5.15
X3.3973Y-5.1216
X3.46Y-3.85
X3.5098Y-4.5398
X3.5198Y-3.2202
X3.52Y-3.84
X3.58Y-4.61
X3.58Y-5.13
X3.63Y-4.56
X3.63Y-4.7413
X3.63Y-5.1013
X3.69Y-4.92
X3.72Y-4.52
X3.8Y-4.61
X3.8Y-4.61
X3.86Y-4.43
X3.92Y-4.37
X3.93Y-5.32
X3.95Y-4.92
X3.9752Y-4.4081
X4.05Y-5.36
X4.07Y-4.41
X4.09Y-5.2713
X4.12Y-2.49
X4.12Y-5.59
X4.14Y-4.53
X4.14Y-4.59
X4.15Y-2.52
X4.15Y-4.7713
X4.2524Y-2.5935
X4.2524Y-2.5935
X4.2972Y-4.9272
X4.49Y-4.68
X4.55Y-2.34
X4.65Y-2.33
X4.7286Y-2.31
X4.74Y-2.56
X4.83Y-4.81
X4.86Y-4.44
X4.86Y-4.84
X4.9Y-2.94
X5.08Y-4.87
X6.4Y-3.01
X7.15Y-3.89
T3
X4.06Y-5.77
X4.1566Y-5.7441
X4.2532Y-5.7182
X4.3498Y-5.6924
X4.78Y-5.11
X4.8059Y-5.2066
X4.8318Y-5.3032
X4.8576Y-5.3998
X3.41Y-5.48
X3.4359Y-5.5766
X3.4618Y-5.6732
X3.4876Y-5.7698
T4
X3.8682Y-5.4066
X4.3525Y-3.03
X5.8525Y-4.2175
X4.3525Y-3.78
X7.3525Y-2.8425
X3.6026Y-4.3438
X5.1025Y-4.78
X5.8525Y-4.9675
X5.1025Y-3.28
X3.6025Y-3.5925
X4.06Y-1.96
X4.06Y-2.3261
X4.2569Y-2.2907
X4.3789Y-2.086
X6.6025Y-3.7175
X7.3525Y-3.5925
X6.6025Y-4.4675
X5.1025Y-4.03
X3.6025Y-2.8425
X4.3525Y-4.53
X5.1025Y-2.53
X5.8525Y-3.4675
X6.6025Y-2.9675
X5.8525Y-2.7175
X4.6097Y-5.2066
X7.3525Y-4.3425
T5
X3.7375Y-3.2802
X3.9344Y-3.3629
X6.7375Y-3.4052
X6.9344Y-3.4879
X7.4875Y-3.2802
X7.6844Y-3.3629
X6.7375Y-4.1552
X6.9344Y-4.2379
X5.2375Y-3.7177
X5.4344Y-3.8004
X3.7375Y-2.5302
X3.9344Y-2.6129
X4.4875Y-4.2177
X4.6844Y-4.3004
X5.2375Y-2.2177
X5.4344Y-2.3004
X5.9875Y-3.1552
X6.1844Y-3.2379
X6.7375Y-2.6552
X6.9344Y-2.7379
X5.9875Y-2.4052
X6.1844Y-2.4879
X4.3486Y-5.5143
X4.5601Y-5.5432
X7.4875Y-4.0302
X7.6844Y-4.1129
X3.6071Y-5.7142
X3.8186Y-5.7431
X4.4875Y-2.7177
X4.6844Y-2.8004
X5.9875Y-3.9052
X6.1844Y-3.9879
X4.4875Y-3.4677
X4.6844Y-3.5504
X7.4875Y-2.5302
X7.6844Y-2.6129
X3.7376Y-4.0316
X3.9345Y-4.1142
X5.2375Y-4.4677
X5.4344Y-4.5504
X5.9875Y-4.6552
X6.1844Y-4.7379
X5.2375Y-2.9677
X5.4344Y-3.0504
T2
G00X4.4926Y-2.0364
M15
G01X4.4926Y-2.0836
M16
G05
G00X4.4926Y-2.2135
M15
G01X4.4926Y-2.2608
M16
G05
G00X4.78Y-2.0364
M15
G01X4.78Y-2.0836
M16
G05
G00X4.78Y-2.2135
M15
G01X4.78Y-2.2608
M16
G05
T6
G00X4.3411Y-4.346
M15
G01X4.3858Y-4.2962
M16
G05
G00X4.5864Y-4.2669
M15
G01X4.5874Y-4.2512
M16
G05
G00X5.0911Y-2.346
M15
G01X5.1358Y-2.2962
M16
G05
G00X5.3364Y-2.2669
M15
G01X5.3374Y-2.2512
M16
G05
G00X5.8411Y-3.2835
M15
G01X5.8858Y-3.2337
M16
G05
G00X6.0864Y-3.2044
M15
G01X6.0874Y-3.1887
M16
G05
G00X6.5911Y-2.7835
M15
G01X6.6358Y-2.7337
M16
G05
G00X6.8364Y-2.7044
M15
G01X6.8374Y-2.6887
M16
G05
G00X5.8411Y-2.5335
M15
G01X5.8858Y-2.4837
M16
G05
G00X6.0864Y-2.4544
M15
G01X6.0874Y-2.4387
M16
G05
G00X4.4519Y-5.5212
M15
G01X4.4549Y-5.5367
M16
G05
G00X4.6683Y-5.3814
M15
G01X4.638Y-5.4411
M16
G05
G00X7.3411Y-4.1585
M15
G01X7.3858Y-4.1087
M16
G05
G00X7.5864Y-4.0794
M15
G01X7.5874Y-4.0637
M16
G05
G00X3.7104Y-5.7212
M15
G01X3.7134Y-5.7367
M16
G05
G00X3.9268Y-5.5814
M15
G01X3.8965Y-5.6411
M16
G05
G00X4.3411Y-2.846
M15
G01X4.3858Y-2.7962
M16
G05
G00X4.5864Y-2.7669
M15
G01X4.5874Y-2.7512
M16
G05
G00X5.8411Y-4.0335
M15
G01X5.8858Y-3.9837
M16
G05
G00X6.0864Y-3.9544
M15
G01X6.0874Y-3.9387
M16
G05
G00X4.3411Y-3.596
M15
G01X4.3858Y-3.5462
M16
G05
G00X4.5864Y-3.5169
M15
G01X4.5874Y-3.5012
M16
G05
G00X7.3411Y-2.6585
M15
G01X7.3858Y-2.6087
M16
G05
G00X7.5864Y-2.5794
M15
G01X7.5874Y-2.5637
M16
G05
G00X3.5913Y-4.1598
M15
G01X3.636Y-4.11
M16
G05
G00X3.8365Y-4.0808
M15
G01X3.8376Y-4.065
M16
G05
G00X5.0911Y-4.596
M15
G01X5.1358Y-4.5462
M16
G05
G00X5.3364Y-4.5169
M15
G01X5.3374Y-4.5012
M16
G05
G00X5.8411Y-4.7835
M15
G01X5.8858Y-4.7337
M16
G05
G00X6.0864Y-4.7044
M15
G01X6.0874Y-4.6887
M16
G05
G00X5.0911Y-3.096
M15
G01X5.1358Y-3.0462
M16
G05
G00X5.3364Y-3.0169
M15
G01X5.3374Y-3.0012
M16
G05
G00X3.5911Y-3.4085
M15
G01X3.6358Y-3.3587
M16
G05
G00X3.8364Y-3.3294
M15
G01X3.8374Y-3.3137
M16
G05
G00X6.5911Y-3.5335
M15
G01X6.6358Y-3.4837
M16
G05
G00X6.8364Y-3.4544
M15
G01X6.8374Y-3.4387
M16
G05
G00X7.3411Y-3.4085
M15
G01X7.3858Y-3.3587
M16
G05
G00X7.5864Y-3.3294
M15
G01X7.5874Y-3.3137
M16
G05
G00X6.5911Y-4.2835
M15
G01X6.6358Y-4.2337
M16
G05
G00X6.8364Y-4.2044
M15
G01X6.8374Y-4.1887
M16
G05
G00X5.0911Y-3.846
M15
G01X5.1358Y-3.7962
M16
G05
G00X5.3364Y-3.7669
M15
G01X5.3374Y-3.7512
M16
G05
G00X3.5911Y-2.6585
M15
G01X3.6358Y-2.6087
M16
G05
G00X3.8364Y-2.5794
M15
G01X3.8374Y-2.5637
M16
G05
T0
M30
