G04 #@! TF.GenerationSoftware,KiCad,Pcbnew,(5.1.4)-1*
G04 #@! TF.CreationDate,2021-10-17T20:40:10-04:00*
G04 #@! TF.ProjectId,a44key-pcb,6134346b-6579-42d7-9063-622e6b696361,rev?*
G04 #@! TF.SameCoordinates,Original*
G04 #@! TF.FileFunction,Legend,Top*
G04 #@! TF.FilePolarity,Positive*
%FSLAX46Y46*%
G04 Gerber Fmt 4.6, Leading zero omitted, Abs format (unit mm)*
G04 Created by KiCad (PCBNEW (5.1.4)-1) date 2021-10-17 20:40:10*
%MOMM*%
%LPD*%
G04 APERTURE LIST*
%ADD10C,0.120000*%
%ADD11C,0.150000*%
%ADD12C,1.852000*%
%ADD13C,4.089800*%
%ADD14C,0.100000*%
%ADD15C,1.077000*%
%ADD16R,1.202000X1.902000*%
%ADD17C,1.352000*%
%ADD18O,1.902000X2.902000*%
%ADD19O,2.802000X1.802000*%
%ADD20R,2.352000X0.602000*%
G04 APERTURE END LIST*
D10*
X80083922Y-89419500D02*
X80601078Y-89419500D01*
X80083922Y-87999500D02*
X80601078Y-87999500D01*
X79956922Y-86498500D02*
X80474078Y-86498500D01*
X79956922Y-85078500D02*
X80474078Y-85078500D01*
D11*
X77609000Y-98854500D02*
X77609000Y-93654500D01*
X77609000Y-93654500D02*
X82809000Y-93654500D01*
X82809000Y-93654500D02*
X82809000Y-98854500D01*
X82809000Y-98854500D02*
X77609000Y-98854500D01*
X81209000Y-96254500D02*
G75*
G03X81209000Y-96254500I-1000000J0D01*
G01*
D10*
X80039936Y-66188000D02*
X81244064Y-66188000D01*
X80039936Y-64368000D02*
X81244064Y-64368000D01*
X82500000Y-57338000D02*
X78500000Y-57338000D01*
X82500000Y-59238000D02*
X82500000Y-57338000D01*
X96740000Y-59238000D02*
X82500000Y-59238000D01*
X96740000Y-50798000D02*
X96740000Y-59238000D01*
X82500000Y-50798000D02*
X96740000Y-50798000D01*
X82500000Y-51098000D02*
X82500000Y-50798000D01*
X78500000Y-51098000D02*
X82500000Y-51098000D01*
X78500000Y-57338000D02*
X78500000Y-51098000D01*
D11*
X77533500Y-72413500D02*
X82983500Y-72413500D01*
X77533500Y-80113500D02*
X82983500Y-80113500D01*
X82983500Y-72413500D02*
X82983500Y-80113500D01*
X80175833Y-87511880D02*
X79842500Y-87035690D01*
X79604404Y-87511880D02*
X79604404Y-86511880D01*
X79985357Y-86511880D01*
X80080595Y-86559500D01*
X80128214Y-86607119D01*
X80175833Y-86702357D01*
X80175833Y-86845214D01*
X80128214Y-86940452D01*
X80080595Y-86988071D01*
X79985357Y-87035690D01*
X79604404Y-87035690D01*
X81128214Y-87511880D02*
X80556785Y-87511880D01*
X80842500Y-87511880D02*
X80842500Y-86511880D01*
X80747261Y-86654738D01*
X80652023Y-86749976D01*
X80556785Y-86797595D01*
X80048833Y-84590880D02*
X79715500Y-84114690D01*
X79477404Y-84590880D02*
X79477404Y-83590880D01*
X79858357Y-83590880D01*
X79953595Y-83638500D01*
X80001214Y-83686119D01*
X80048833Y-83781357D01*
X80048833Y-83924214D01*
X80001214Y-84019452D01*
X79953595Y-84067071D01*
X79858357Y-84114690D01*
X79477404Y-84114690D01*
X80429785Y-83686119D02*
X80477404Y-83638500D01*
X80572642Y-83590880D01*
X80810738Y-83590880D01*
X80905976Y-83638500D01*
X80953595Y-83686119D01*
X81001214Y-83781357D01*
X81001214Y-83876595D01*
X80953595Y-84019452D01*
X80382166Y-84590880D01*
X81001214Y-84590880D01*
X84677761Y-97587833D02*
X84725380Y-97444976D01*
X84725380Y-97206880D01*
X84677761Y-97111642D01*
X84630142Y-97064023D01*
X84534904Y-97016404D01*
X84439666Y-97016404D01*
X84344428Y-97064023D01*
X84296809Y-97111642D01*
X84249190Y-97206880D01*
X84201571Y-97397357D01*
X84153952Y-97492595D01*
X84106333Y-97540214D01*
X84011095Y-97587833D01*
X83915857Y-97587833D01*
X83820619Y-97540214D01*
X83773000Y-97492595D01*
X83725380Y-97397357D01*
X83725380Y-97159261D01*
X83773000Y-97016404D01*
X83725380Y-96683071D02*
X84725380Y-96444976D01*
X84011095Y-96254500D01*
X84725380Y-96064023D01*
X83725380Y-95825928D01*
X84725380Y-94921166D02*
X84725380Y-95492595D01*
X84725380Y-95206880D02*
X83725380Y-95206880D01*
X83868238Y-95302119D01*
X83963476Y-95397357D01*
X84011095Y-95492595D01*
X80308666Y-63386571D02*
X79975333Y-63386571D01*
X79975333Y-63910380D02*
X79975333Y-62910380D01*
X80451523Y-62910380D01*
X81356285Y-63910380D02*
X80784857Y-63910380D01*
X81070571Y-63910380D02*
X81070571Y-62910380D01*
X80975333Y-63053238D01*
X80880095Y-63148476D01*
X80784857Y-63196095D01*
X76822380Y-55351333D02*
X77536666Y-55351333D01*
X77679523Y-55398952D01*
X77774761Y-55494190D01*
X77822380Y-55637047D01*
X77822380Y-55732285D01*
X77822380Y-54351333D02*
X77822380Y-54922761D01*
X77822380Y-54637047D02*
X76822380Y-54637047D01*
X76965238Y-54732285D01*
X77060476Y-54827523D01*
X77108095Y-54922761D01*
X79017880Y-78001595D02*
X79827404Y-78001595D01*
X79922642Y-77953976D01*
X79970261Y-77906357D01*
X80017880Y-77811119D01*
X80017880Y-77620642D01*
X79970261Y-77525404D01*
X79922642Y-77477785D01*
X79827404Y-77430166D01*
X79017880Y-77430166D01*
X79970261Y-77001595D02*
X80017880Y-76858738D01*
X80017880Y-76620642D01*
X79970261Y-76525404D01*
X79922642Y-76477785D01*
X79827404Y-76430166D01*
X79732166Y-76430166D01*
X79636928Y-76477785D01*
X79589309Y-76525404D01*
X79541690Y-76620642D01*
X79494071Y-76811119D01*
X79446452Y-76906357D01*
X79398833Y-76953976D01*
X79303595Y-77001595D01*
X79208357Y-77001595D01*
X79113119Y-76953976D01*
X79065500Y-76906357D01*
X79017880Y-76811119D01*
X79017880Y-76573023D01*
X79065500Y-76430166D01*
X79494071Y-75668261D02*
X79541690Y-75525404D01*
X79589309Y-75477785D01*
X79684547Y-75430166D01*
X79827404Y-75430166D01*
X79922642Y-75477785D01*
X79970261Y-75525404D01*
X80017880Y-75620642D01*
X80017880Y-76001595D01*
X79017880Y-76001595D01*
X79017880Y-75668261D01*
X79065500Y-75573023D01*
X79113119Y-75525404D01*
X79208357Y-75477785D01*
X79303595Y-75477785D01*
X79398833Y-75525404D01*
X79446452Y-75573023D01*
X79494071Y-75668261D01*
X79494071Y-76001595D01*
X80017880Y-74477785D02*
X80017880Y-75049214D01*
X80017880Y-74763500D02*
X79017880Y-74763500D01*
X79160738Y-74858738D01*
X79255976Y-74953976D01*
X79303595Y-75049214D01*
%LPC*%
D12*
X195262500Y-108267500D03*
X185102500Y-108267500D03*
D13*
X190182500Y-108267500D03*
D12*
X119062500Y-113030000D03*
X108902500Y-113030000D03*
D13*
X113982500Y-113030000D03*
D12*
X138112500Y-119380000D03*
X127952500Y-119380000D03*
D13*
X133032500Y-119380000D03*
D12*
X99839403Y-136797699D03*
X90025597Y-139427301D03*
D13*
X94932500Y-138112500D03*
D12*
X100012500Y-108267500D03*
X89852500Y-108267500D03*
D13*
X94932500Y-108267500D03*
D12*
X157162500Y-124142500D03*
X147002500Y-124142500D03*
D13*
X152082500Y-124142500D03*
D12*
X118889403Y-133940199D03*
X109075597Y-136569801D03*
D13*
X113982500Y-135255000D03*
D12*
X157162500Y-105092500D03*
X147002500Y-105092500D03*
D13*
X152082500Y-105092500D03*
D12*
X176212500Y-111442500D03*
X166052500Y-111442500D03*
D13*
X171132500Y-111442500D03*
D14*
G36*
X81575641Y-87959797D02*
G01*
X81601778Y-87963674D01*
X81627409Y-87970094D01*
X81652288Y-87978995D01*
X81676174Y-87990293D01*
X81698837Y-88003877D01*
X81720060Y-88019617D01*
X81739639Y-88037361D01*
X81757383Y-88056940D01*
X81773123Y-88078163D01*
X81786707Y-88100826D01*
X81798005Y-88124712D01*
X81806906Y-88149591D01*
X81813326Y-88175222D01*
X81817203Y-88201359D01*
X81818500Y-88227750D01*
X81818500Y-89191250D01*
X81817203Y-89217641D01*
X81813326Y-89243778D01*
X81806906Y-89269409D01*
X81798005Y-89294288D01*
X81786707Y-89318174D01*
X81773123Y-89340837D01*
X81757383Y-89362060D01*
X81739639Y-89381639D01*
X81720060Y-89399383D01*
X81698837Y-89415123D01*
X81676174Y-89428707D01*
X81652288Y-89440005D01*
X81627409Y-89448906D01*
X81601778Y-89455326D01*
X81575641Y-89459203D01*
X81549250Y-89460500D01*
X81010750Y-89460500D01*
X80984359Y-89459203D01*
X80958222Y-89455326D01*
X80932591Y-89448906D01*
X80907712Y-89440005D01*
X80883826Y-89428707D01*
X80861163Y-89415123D01*
X80839940Y-89399383D01*
X80820361Y-89381639D01*
X80802617Y-89362060D01*
X80786877Y-89340837D01*
X80773293Y-89318174D01*
X80761995Y-89294288D01*
X80753094Y-89269409D01*
X80746674Y-89243778D01*
X80742797Y-89217641D01*
X80741500Y-89191250D01*
X80741500Y-88227750D01*
X80742797Y-88201359D01*
X80746674Y-88175222D01*
X80753094Y-88149591D01*
X80761995Y-88124712D01*
X80773293Y-88100826D01*
X80786877Y-88078163D01*
X80802617Y-88056940D01*
X80820361Y-88037361D01*
X80839940Y-88019617D01*
X80861163Y-88003877D01*
X80883826Y-87990293D01*
X80907712Y-87978995D01*
X80932591Y-87970094D01*
X80958222Y-87963674D01*
X80984359Y-87959797D01*
X81010750Y-87958500D01*
X81549250Y-87958500D01*
X81575641Y-87959797D01*
X81575641Y-87959797D01*
G37*
D15*
X81280000Y-88709500D03*
D14*
G36*
X79700641Y-87959797D02*
G01*
X79726778Y-87963674D01*
X79752409Y-87970094D01*
X79777288Y-87978995D01*
X79801174Y-87990293D01*
X79823837Y-88003877D01*
X79845060Y-88019617D01*
X79864639Y-88037361D01*
X79882383Y-88056940D01*
X79898123Y-88078163D01*
X79911707Y-88100826D01*
X79923005Y-88124712D01*
X79931906Y-88149591D01*
X79938326Y-88175222D01*
X79942203Y-88201359D01*
X79943500Y-88227750D01*
X79943500Y-89191250D01*
X79942203Y-89217641D01*
X79938326Y-89243778D01*
X79931906Y-89269409D01*
X79923005Y-89294288D01*
X79911707Y-89318174D01*
X79898123Y-89340837D01*
X79882383Y-89362060D01*
X79864639Y-89381639D01*
X79845060Y-89399383D01*
X79823837Y-89415123D01*
X79801174Y-89428707D01*
X79777288Y-89440005D01*
X79752409Y-89448906D01*
X79726778Y-89455326D01*
X79700641Y-89459203D01*
X79674250Y-89460500D01*
X79135750Y-89460500D01*
X79109359Y-89459203D01*
X79083222Y-89455326D01*
X79057591Y-89448906D01*
X79032712Y-89440005D01*
X79008826Y-89428707D01*
X78986163Y-89415123D01*
X78964940Y-89399383D01*
X78945361Y-89381639D01*
X78927617Y-89362060D01*
X78911877Y-89340837D01*
X78898293Y-89318174D01*
X78886995Y-89294288D01*
X78878094Y-89269409D01*
X78871674Y-89243778D01*
X78867797Y-89217641D01*
X78866500Y-89191250D01*
X78866500Y-88227750D01*
X78867797Y-88201359D01*
X78871674Y-88175222D01*
X78878094Y-88149591D01*
X78886995Y-88124712D01*
X78898293Y-88100826D01*
X78911877Y-88078163D01*
X78927617Y-88056940D01*
X78945361Y-88037361D01*
X78964940Y-88019617D01*
X78986163Y-88003877D01*
X79008826Y-87990293D01*
X79032712Y-87978995D01*
X79057591Y-87970094D01*
X79083222Y-87963674D01*
X79109359Y-87959797D01*
X79135750Y-87958500D01*
X79674250Y-87958500D01*
X79700641Y-87959797D01*
X79700641Y-87959797D01*
G37*
D15*
X79405000Y-88709500D03*
D14*
G36*
X81448641Y-85038797D02*
G01*
X81474778Y-85042674D01*
X81500409Y-85049094D01*
X81525288Y-85057995D01*
X81549174Y-85069293D01*
X81571837Y-85082877D01*
X81593060Y-85098617D01*
X81612639Y-85116361D01*
X81630383Y-85135940D01*
X81646123Y-85157163D01*
X81659707Y-85179826D01*
X81671005Y-85203712D01*
X81679906Y-85228591D01*
X81686326Y-85254222D01*
X81690203Y-85280359D01*
X81691500Y-85306750D01*
X81691500Y-86270250D01*
X81690203Y-86296641D01*
X81686326Y-86322778D01*
X81679906Y-86348409D01*
X81671005Y-86373288D01*
X81659707Y-86397174D01*
X81646123Y-86419837D01*
X81630383Y-86441060D01*
X81612639Y-86460639D01*
X81593060Y-86478383D01*
X81571837Y-86494123D01*
X81549174Y-86507707D01*
X81525288Y-86519005D01*
X81500409Y-86527906D01*
X81474778Y-86534326D01*
X81448641Y-86538203D01*
X81422250Y-86539500D01*
X80883750Y-86539500D01*
X80857359Y-86538203D01*
X80831222Y-86534326D01*
X80805591Y-86527906D01*
X80780712Y-86519005D01*
X80756826Y-86507707D01*
X80734163Y-86494123D01*
X80712940Y-86478383D01*
X80693361Y-86460639D01*
X80675617Y-86441060D01*
X80659877Y-86419837D01*
X80646293Y-86397174D01*
X80634995Y-86373288D01*
X80626094Y-86348409D01*
X80619674Y-86322778D01*
X80615797Y-86296641D01*
X80614500Y-86270250D01*
X80614500Y-85306750D01*
X80615797Y-85280359D01*
X80619674Y-85254222D01*
X80626094Y-85228591D01*
X80634995Y-85203712D01*
X80646293Y-85179826D01*
X80659877Y-85157163D01*
X80675617Y-85135940D01*
X80693361Y-85116361D01*
X80712940Y-85098617D01*
X80734163Y-85082877D01*
X80756826Y-85069293D01*
X80780712Y-85057995D01*
X80805591Y-85049094D01*
X80831222Y-85042674D01*
X80857359Y-85038797D01*
X80883750Y-85037500D01*
X81422250Y-85037500D01*
X81448641Y-85038797D01*
X81448641Y-85038797D01*
G37*
D15*
X81153000Y-85788500D03*
D14*
G36*
X79573641Y-85038797D02*
G01*
X79599778Y-85042674D01*
X79625409Y-85049094D01*
X79650288Y-85057995D01*
X79674174Y-85069293D01*
X79696837Y-85082877D01*
X79718060Y-85098617D01*
X79737639Y-85116361D01*
X79755383Y-85135940D01*
X79771123Y-85157163D01*
X79784707Y-85179826D01*
X79796005Y-85203712D01*
X79804906Y-85228591D01*
X79811326Y-85254222D01*
X79815203Y-85280359D01*
X79816500Y-85306750D01*
X79816500Y-86270250D01*
X79815203Y-86296641D01*
X79811326Y-86322778D01*
X79804906Y-86348409D01*
X79796005Y-86373288D01*
X79784707Y-86397174D01*
X79771123Y-86419837D01*
X79755383Y-86441060D01*
X79737639Y-86460639D01*
X79718060Y-86478383D01*
X79696837Y-86494123D01*
X79674174Y-86507707D01*
X79650288Y-86519005D01*
X79625409Y-86527906D01*
X79599778Y-86534326D01*
X79573641Y-86538203D01*
X79547250Y-86539500D01*
X79008750Y-86539500D01*
X78982359Y-86538203D01*
X78956222Y-86534326D01*
X78930591Y-86527906D01*
X78905712Y-86519005D01*
X78881826Y-86507707D01*
X78859163Y-86494123D01*
X78837940Y-86478383D01*
X78818361Y-86460639D01*
X78800617Y-86441060D01*
X78784877Y-86419837D01*
X78771293Y-86397174D01*
X78759995Y-86373288D01*
X78751094Y-86348409D01*
X78744674Y-86322778D01*
X78740797Y-86296641D01*
X78739500Y-86270250D01*
X78739500Y-85306750D01*
X78740797Y-85280359D01*
X78744674Y-85254222D01*
X78751094Y-85228591D01*
X78759995Y-85203712D01*
X78771293Y-85179826D01*
X78784877Y-85157163D01*
X78800617Y-85135940D01*
X78818361Y-85116361D01*
X78837940Y-85098617D01*
X78859163Y-85082877D01*
X78881826Y-85069293D01*
X78905712Y-85057995D01*
X78930591Y-85049094D01*
X78956222Y-85042674D01*
X78982359Y-85038797D01*
X79008750Y-85037500D01*
X79547250Y-85037500D01*
X79573641Y-85038797D01*
X79573641Y-85038797D01*
G37*
D15*
X79278000Y-85788500D03*
D16*
X82059000Y-99354500D03*
X78359000Y-93154500D03*
X78359000Y-99354500D03*
X82059000Y-93154500D03*
D14*
G36*
X82474104Y-64353302D02*
G01*
X82500352Y-64357196D01*
X82526093Y-64363643D01*
X82551078Y-64372583D01*
X82575066Y-64383928D01*
X82597826Y-64397571D01*
X82619140Y-64413378D01*
X82638802Y-64431198D01*
X82656622Y-64450860D01*
X82672429Y-64472174D01*
X82686072Y-64494934D01*
X82697417Y-64518922D01*
X82706357Y-64543907D01*
X82712804Y-64569648D01*
X82716698Y-64595896D01*
X82718000Y-64622400D01*
X82718000Y-65933600D01*
X82716698Y-65960104D01*
X82712804Y-65986352D01*
X82706357Y-66012093D01*
X82697417Y-66037078D01*
X82686072Y-66061066D01*
X82672429Y-66083826D01*
X82656622Y-66105140D01*
X82638802Y-66124802D01*
X82619140Y-66142622D01*
X82597826Y-66158429D01*
X82575066Y-66172072D01*
X82551078Y-66183417D01*
X82526093Y-66192357D01*
X82500352Y-66198804D01*
X82474104Y-66202698D01*
X82447600Y-66204000D01*
X81636400Y-66204000D01*
X81609896Y-66202698D01*
X81583648Y-66198804D01*
X81557907Y-66192357D01*
X81532922Y-66183417D01*
X81508934Y-66172072D01*
X81486174Y-66158429D01*
X81464860Y-66142622D01*
X81445198Y-66124802D01*
X81427378Y-66105140D01*
X81411571Y-66083826D01*
X81397928Y-66061066D01*
X81386583Y-66037078D01*
X81377643Y-66012093D01*
X81371196Y-65986352D01*
X81367302Y-65960104D01*
X81366000Y-65933600D01*
X81366000Y-64622400D01*
X81367302Y-64595896D01*
X81371196Y-64569648D01*
X81377643Y-64543907D01*
X81386583Y-64518922D01*
X81397928Y-64494934D01*
X81411571Y-64472174D01*
X81427378Y-64450860D01*
X81445198Y-64431198D01*
X81464860Y-64413378D01*
X81486174Y-64397571D01*
X81508934Y-64383928D01*
X81532922Y-64372583D01*
X81557907Y-64363643D01*
X81583648Y-64357196D01*
X81609896Y-64353302D01*
X81636400Y-64352000D01*
X82447600Y-64352000D01*
X82474104Y-64353302D01*
X82474104Y-64353302D01*
G37*
D17*
X82042000Y-65278000D03*
D14*
G36*
X79674104Y-64353302D02*
G01*
X79700352Y-64357196D01*
X79726093Y-64363643D01*
X79751078Y-64372583D01*
X79775066Y-64383928D01*
X79797826Y-64397571D01*
X79819140Y-64413378D01*
X79838802Y-64431198D01*
X79856622Y-64450860D01*
X79872429Y-64472174D01*
X79886072Y-64494934D01*
X79897417Y-64518922D01*
X79906357Y-64543907D01*
X79912804Y-64569648D01*
X79916698Y-64595896D01*
X79918000Y-64622400D01*
X79918000Y-65933600D01*
X79916698Y-65960104D01*
X79912804Y-65986352D01*
X79906357Y-66012093D01*
X79897417Y-66037078D01*
X79886072Y-66061066D01*
X79872429Y-66083826D01*
X79856622Y-66105140D01*
X79838802Y-66124802D01*
X79819140Y-66142622D01*
X79797826Y-66158429D01*
X79775066Y-66172072D01*
X79751078Y-66183417D01*
X79726093Y-66192357D01*
X79700352Y-66198804D01*
X79674104Y-66202698D01*
X79647600Y-66204000D01*
X78836400Y-66204000D01*
X78809896Y-66202698D01*
X78783648Y-66198804D01*
X78757907Y-66192357D01*
X78732922Y-66183417D01*
X78708934Y-66172072D01*
X78686174Y-66158429D01*
X78664860Y-66142622D01*
X78645198Y-66124802D01*
X78627378Y-66105140D01*
X78611571Y-66083826D01*
X78597928Y-66061066D01*
X78586583Y-66037078D01*
X78577643Y-66012093D01*
X78571196Y-65986352D01*
X78567302Y-65960104D01*
X78566000Y-65933600D01*
X78566000Y-64622400D01*
X78567302Y-64595896D01*
X78571196Y-64569648D01*
X78577643Y-64543907D01*
X78586583Y-64518922D01*
X78597928Y-64494934D01*
X78611571Y-64472174D01*
X78627378Y-64450860D01*
X78645198Y-64431198D01*
X78664860Y-64413378D01*
X78686174Y-64397571D01*
X78708934Y-64383928D01*
X78732922Y-64372583D01*
X78757907Y-64363643D01*
X78783648Y-64357196D01*
X78809896Y-64353302D01*
X78836400Y-64352000D01*
X79647600Y-64352000D01*
X79674104Y-64353302D01*
X79674104Y-64353302D01*
G37*
D17*
X79242000Y-65278000D03*
D18*
X89920000Y-55118000D03*
X95420000Y-55118000D03*
X91720000Y-53118000D03*
X86220000Y-53118000D03*
X83820000Y-55118000D03*
D19*
X77533500Y-72613500D03*
X77533500Y-79913500D03*
X82033500Y-79913500D03*
X82033500Y-72613500D03*
D20*
X82033500Y-74663500D03*
X82033500Y-75463500D03*
X82033500Y-76263500D03*
X82033500Y-77063500D03*
X82033500Y-77863500D03*
D12*
X195262500Y-89217500D03*
X185102500Y-89217500D03*
D13*
X190182500Y-89217500D03*
D12*
X195262500Y-70167500D03*
X185102500Y-70167500D03*
D13*
X190182500Y-70167500D03*
D12*
X176212500Y-92392500D03*
X166052500Y-92392500D03*
D13*
X171132500Y-92392500D03*
D12*
X176212500Y-73342500D03*
X166052500Y-73342500D03*
D13*
X171132500Y-73342500D03*
D12*
X157162500Y-86042500D03*
X147002500Y-86042500D03*
D13*
X152082500Y-86042500D03*
D12*
X157162500Y-66992500D03*
X147002500Y-66992500D03*
D13*
X152082500Y-66992500D03*
D12*
X138112500Y-100330000D03*
X127952500Y-100330000D03*
D13*
X133032500Y-100330000D03*
D12*
X138112500Y-81280000D03*
X127952500Y-81280000D03*
D13*
X133032500Y-81280000D03*
D12*
X138112500Y-62230000D03*
X127952500Y-62230000D03*
D13*
X133032500Y-62230000D03*
D12*
X119062500Y-93980000D03*
X108902500Y-93980000D03*
D13*
X113982500Y-93980000D03*
D12*
X119062500Y-74930000D03*
X108902500Y-74930000D03*
D13*
X113982500Y-74930000D03*
D12*
X100012500Y-89217500D03*
X89852500Y-89217500D03*
D13*
X94932500Y-89217500D03*
D12*
X100012500Y-70167500D03*
X89852500Y-70167500D03*
D13*
X94932500Y-70167500D03*
M02*
