G04 #@! TF.GenerationSoftware,KiCad,Pcbnew,(5.1.4)-1*
G04 #@! TF.CreationDate,2021-10-22T09:47:44-04:00*
G04 #@! TF.ProjectId,a44key-pcb,6134346b-6579-42d7-9063-622e6b696361,rev?*
G04 #@! TF.SameCoordinates,Original*
G04 #@! TF.FileFunction,Legend,Bot*
G04 #@! TF.FilePolarity,Positive*
%FSLAX46Y46*%
G04 Gerber Fmt 4.6, Leading zero omitted, Abs format (unit mm)*
G04 Created by KiCad (PCBNEW (5.1.4)-1) date 2021-10-22 09:47:44*
%MOMM*%
%LPD*%
G04 APERTURE LIST*
%ADD10C,0.120000*%
%ADD11C,0.150000*%
%ADD12O,2.802000X1.802000*%
%ADD13C,1.202000*%
%ADD14C,1.752000*%
%ADD15R,1.752000X1.752000*%
%ADD16C,1.402000*%
%ADD17O,0.602000X4.202000*%
%ADD18O,5.202000X0.602000*%
%ADD19O,5.202000X1.602000*%
%ADD20C,2.352000*%
%ADD21C,2.352000*%
%ADD22O,2.277000X1.852000*%
%ADD23C,4.089800*%
%ADD24C,2.102000*%
%ADD25C,0.602000*%
%ADD26C,0.602000*%
%ADD27C,1.602000*%
%ADD28C,1.602000*%
%ADD29C,1.852000*%
%ADD30C,1.852000*%
%ADD31C,0.100000*%
%ADD32C,1.077000*%
%ADD33R,1.302000X1.002000*%
%ADD34R,2.202000X1.902000*%
%ADD35C,0.652000*%
%ADD36C,1.352000*%
G04 APERTURE END LIST*
D10*
X159543750Y-55403750D02*
X159543750Y-47783750D01*
X159543750Y-47783750D02*
X159543750Y-55403750D01*
X159543750Y-47783750D02*
X159543750Y-55403750D01*
X123509204Y-57735112D02*
X123874888Y-58100796D01*
X122505112Y-58739204D02*
X122870796Y-59104888D01*
X107737525Y-69177709D02*
X108103209Y-68812025D01*
X108741617Y-70181801D02*
X109107301Y-69816117D01*
X134858000Y-129981250D02*
X134858000Y-126081250D01*
X132858000Y-129981250D02*
X132858000Y-126081250D01*
X134858000Y-129981250D02*
X132858000Y-129981250D01*
X126412500Y-110993750D02*
X126412500Y-107093750D01*
X124412500Y-110993750D02*
X124412500Y-107093750D01*
X126412500Y-110993750D02*
X124412500Y-110993750D01*
X129587500Y-110931250D02*
X129587500Y-107031250D01*
X127587500Y-110931250D02*
X127587500Y-107031250D01*
X129587500Y-110931250D02*
X127587500Y-110931250D01*
X131302000Y-130043750D02*
X131302000Y-126143750D01*
X129302000Y-130043750D02*
X129302000Y-126143750D01*
X131302000Y-130043750D02*
X129302000Y-130043750D01*
X138160000Y-129981250D02*
X138160000Y-126081250D01*
X136160000Y-129981250D02*
X136160000Y-126081250D01*
X138160000Y-129981250D02*
X136160000Y-129981250D01*
X142287500Y-110931250D02*
X142287500Y-107031250D01*
X140287500Y-110931250D02*
X140287500Y-107031250D01*
X142287500Y-110931250D02*
X140287500Y-110931250D01*
X139112500Y-110931250D02*
X139112500Y-107031250D01*
X137112500Y-110931250D02*
X137112500Y-107031250D01*
X139112500Y-110931250D02*
X137112500Y-110931250D01*
X141493750Y-129981250D02*
X141493750Y-126081250D01*
X139493750Y-129981250D02*
X139493750Y-126081250D01*
X141493750Y-129981250D02*
X139493750Y-129981250D01*
X106193975Y-69153204D02*
X105828291Y-69518888D01*
X105189883Y-68149112D02*
X104824199Y-68514796D01*
X115040025Y-50071883D02*
X115405709Y-49706199D01*
X116044117Y-51075975D02*
X116409801Y-50710291D01*
X101312117Y-62406199D02*
X101677801Y-62771883D01*
X100308025Y-63410291D02*
X100673709Y-63775975D01*
X99824133Y-57171975D02*
X99458449Y-56806291D01*
X100828225Y-56167883D02*
X100462541Y-55802199D01*
X148316422Y-52471250D02*
X148833578Y-52471250D01*
X148316422Y-53891250D02*
X148833578Y-53891250D01*
X119018478Y-51282132D02*
X124418478Y-51282132D01*
X119018478Y-55782132D02*
X119018478Y-51282132D01*
D11*
X103937169Y-58730294D02*
X103035608Y-57828732D01*
X110849138Y-66455435D02*
X110371841Y-65978138D01*
X118167693Y-59136880D02*
X117690396Y-58659583D01*
X110849138Y-51818325D02*
X111326435Y-52295622D01*
X103530583Y-59136880D02*
X104007880Y-59614177D01*
X110849138Y-51818325D02*
X110371841Y-52295622D01*
X118167693Y-59136880D02*
X117690396Y-59614177D01*
X110849138Y-66455435D02*
X111326435Y-65978138D01*
X103530583Y-59136880D02*
X103937169Y-58730294D01*
D10*
X148316422Y-50090000D02*
X148833578Y-50090000D01*
X148316422Y-51510000D02*
X148833578Y-51510000D01*
X121138422Y-48280250D02*
X121655578Y-48280250D01*
X121138422Y-49700250D02*
X121655578Y-49700250D01*
X148241936Y-56240000D02*
X149446064Y-56240000D01*
X148241936Y-58060000D02*
X149446064Y-58060000D01*
X104173883Y-52853975D02*
X103808199Y-52488291D01*
X105177975Y-51849883D02*
X104812291Y-51484199D01*
X128589204Y-52655112D02*
X128954888Y-53020796D01*
X127585112Y-53659204D02*
X127950796Y-54024888D01*
X141303250Y-91721500D02*
X141303250Y-87821500D01*
X139303250Y-91721500D02*
X139303250Y-87821500D01*
X141303250Y-91721500D02*
X139303250Y-91721500D01*
X139112500Y-73625000D02*
X139112500Y-69725000D01*
X137112500Y-73625000D02*
X137112500Y-69725000D01*
X139112500Y-73625000D02*
X137112500Y-73625000D01*
X143684500Y-91784000D02*
X143684500Y-87884000D01*
X141684500Y-91784000D02*
X141684500Y-87884000D01*
X143684500Y-91784000D02*
X141684500Y-91784000D01*
X142287500Y-73625000D02*
X142287500Y-69725000D01*
X140287500Y-73625000D02*
X140287500Y-69725000D01*
X142287500Y-73625000D02*
X140287500Y-73625000D01*
X135937500Y-110993750D02*
X135937500Y-107093750D01*
X133937500Y-110993750D02*
X133937500Y-107093750D01*
X135937500Y-110993750D02*
X133937500Y-110993750D01*
X138922000Y-91784000D02*
X138922000Y-87884000D01*
X136922000Y-91784000D02*
X136922000Y-87884000D01*
X138922000Y-91784000D02*
X136922000Y-91784000D01*
X135937500Y-73687500D02*
X135937500Y-69787500D01*
X133937500Y-73687500D02*
X133937500Y-69787500D01*
X135937500Y-73687500D02*
X133937500Y-73687500D01*
X132762500Y-110993750D02*
X132762500Y-107093750D01*
X130762500Y-110993750D02*
X130762500Y-107093750D01*
X132762500Y-110993750D02*
X130762500Y-110993750D01*
X128603250Y-90134000D02*
X128603250Y-86234000D01*
X126603250Y-90134000D02*
X126603250Y-86234000D01*
X128603250Y-90134000D02*
X126603250Y-90134000D01*
X132762500Y-73625000D02*
X132762500Y-69725000D01*
X130762500Y-73625000D02*
X130762500Y-69725000D01*
X132762500Y-73625000D02*
X130762500Y-73625000D01*
X123840750Y-90071500D02*
X123840750Y-86171500D01*
X121840750Y-90071500D02*
X121840750Y-86171500D01*
X123840750Y-90071500D02*
X121840750Y-90071500D01*
X130032000Y-73625000D02*
X130032000Y-69725000D01*
X128032000Y-73625000D02*
X128032000Y-69725000D01*
X130032000Y-73625000D02*
X128032000Y-73625000D01*
X126222000Y-90196500D02*
X126222000Y-86296500D01*
X124222000Y-90196500D02*
X124222000Y-86296500D01*
X126222000Y-90196500D02*
X124222000Y-90196500D01*
X127492000Y-73625000D02*
X127492000Y-69725000D01*
X125492000Y-73625000D02*
X125492000Y-69725000D01*
X127492000Y-73625000D02*
X125492000Y-73625000D01*
D11*
X121888586Y-59957115D02*
X121888586Y-60024458D01*
X121955930Y-60159145D01*
X122023274Y-60226489D01*
X122157961Y-60293832D01*
X122292648Y-60293832D01*
X122393663Y-60260161D01*
X122562022Y-60159145D01*
X122663037Y-60058130D01*
X122764052Y-59889771D01*
X122797724Y-59788756D01*
X122797724Y-59654069D01*
X122730380Y-59519382D01*
X122663037Y-59452038D01*
X122528350Y-59384695D01*
X122461006Y-59384695D01*
X122191632Y-59115321D02*
X122191632Y-59047977D01*
X122157961Y-58946962D01*
X121989602Y-58778603D01*
X121888586Y-58744932D01*
X121821243Y-58744932D01*
X121720228Y-58778603D01*
X121652884Y-58845947D01*
X121585541Y-58980634D01*
X121585541Y-59788756D01*
X121147808Y-59351023D01*
X110026871Y-70865669D02*
X109925856Y-70293249D01*
X110430932Y-70461608D02*
X109723826Y-69754501D01*
X109454451Y-70023875D01*
X109420780Y-70124890D01*
X109420780Y-70192234D01*
X109454451Y-70293249D01*
X109555467Y-70394264D01*
X109656482Y-70427936D01*
X109723826Y-70427936D01*
X109824841Y-70394264D01*
X110094215Y-70124890D01*
X108949375Y-71000356D02*
X109420780Y-71471761D01*
X108848360Y-70562623D02*
X109521795Y-70899341D01*
X109084062Y-71337074D01*
X136310380Y-126993154D02*
X135310380Y-126993154D01*
X135310380Y-127231250D01*
X135358000Y-127374107D01*
X135453238Y-127469345D01*
X135548476Y-127516964D01*
X135738952Y-127564583D01*
X135881809Y-127564583D01*
X136072285Y-127516964D01*
X136167523Y-127469345D01*
X136262761Y-127374107D01*
X136310380Y-127231250D01*
X136310380Y-126993154D01*
X135643714Y-128421726D02*
X136310380Y-128421726D01*
X135262761Y-128183630D02*
X135977047Y-127945535D01*
X135977047Y-128564583D01*
X127864880Y-108005654D02*
X126864880Y-108005654D01*
X126864880Y-108243750D01*
X126912500Y-108386607D01*
X127007738Y-108481845D01*
X127102976Y-108529464D01*
X127293452Y-108577083D01*
X127436309Y-108577083D01*
X127626785Y-108529464D01*
X127722023Y-108481845D01*
X127817261Y-108386607D01*
X127864880Y-108243750D01*
X127864880Y-108005654D01*
X126864880Y-108910416D02*
X126864880Y-109577083D01*
X127864880Y-109148511D01*
X131039880Y-107943154D02*
X130039880Y-107943154D01*
X130039880Y-108181250D01*
X130087500Y-108324107D01*
X130182738Y-108419345D01*
X130277976Y-108466964D01*
X130468452Y-108514583D01*
X130611309Y-108514583D01*
X130801785Y-108466964D01*
X130897023Y-108419345D01*
X130992261Y-108324107D01*
X131039880Y-108181250D01*
X131039880Y-107943154D01*
X130039880Y-108847916D02*
X130039880Y-109466964D01*
X130420833Y-109133630D01*
X130420833Y-109276488D01*
X130468452Y-109371726D01*
X130516071Y-109419345D01*
X130611309Y-109466964D01*
X130849404Y-109466964D01*
X130944642Y-109419345D01*
X130992261Y-109371726D01*
X131039880Y-109276488D01*
X131039880Y-108990773D01*
X130992261Y-108895535D01*
X130944642Y-108847916D01*
X132754380Y-127055654D02*
X131754380Y-127055654D01*
X131754380Y-127293750D01*
X131802000Y-127436607D01*
X131897238Y-127531845D01*
X131992476Y-127579464D01*
X132182952Y-127627083D01*
X132325809Y-127627083D01*
X132516285Y-127579464D01*
X132611523Y-127531845D01*
X132706761Y-127436607D01*
X132754380Y-127293750D01*
X132754380Y-127055654D01*
X132182952Y-128198511D02*
X132135333Y-128103273D01*
X132087714Y-128055654D01*
X131992476Y-128008035D01*
X131944857Y-128008035D01*
X131849619Y-128055654D01*
X131802000Y-128103273D01*
X131754380Y-128198511D01*
X131754380Y-128388988D01*
X131802000Y-128484226D01*
X131849619Y-128531845D01*
X131944857Y-128579464D01*
X131992476Y-128579464D01*
X132087714Y-128531845D01*
X132135333Y-128484226D01*
X132182952Y-128388988D01*
X132182952Y-128198511D01*
X132230571Y-128103273D01*
X132278190Y-128055654D01*
X132373428Y-128008035D01*
X132563904Y-128008035D01*
X132659142Y-128055654D01*
X132706761Y-128103273D01*
X132754380Y-128198511D01*
X132754380Y-128388988D01*
X132706761Y-128484226D01*
X132659142Y-128531845D01*
X132563904Y-128579464D01*
X132373428Y-128579464D01*
X132278190Y-128531845D01*
X132230571Y-128484226D01*
X132182952Y-128388988D01*
X139612380Y-126516964D02*
X138612380Y-126516964D01*
X138612380Y-126755059D01*
X138660000Y-126897916D01*
X138755238Y-126993154D01*
X138850476Y-127040773D01*
X139040952Y-127088392D01*
X139183809Y-127088392D01*
X139374285Y-127040773D01*
X139469523Y-126993154D01*
X139564761Y-126897916D01*
X139612380Y-126755059D01*
X139612380Y-126516964D01*
X139612380Y-128040773D02*
X139612380Y-127469345D01*
X139612380Y-127755059D02*
X138612380Y-127755059D01*
X138755238Y-127659821D01*
X138850476Y-127564583D01*
X138898095Y-127469345D01*
X138707619Y-128421726D02*
X138660000Y-128469345D01*
X138612380Y-128564583D01*
X138612380Y-128802678D01*
X138660000Y-128897916D01*
X138707619Y-128945535D01*
X138802857Y-128993154D01*
X138898095Y-128993154D01*
X139040952Y-128945535D01*
X139612380Y-128374107D01*
X139612380Y-128993154D01*
X143739880Y-107466964D02*
X142739880Y-107466964D01*
X142739880Y-107705059D01*
X142787500Y-107847916D01*
X142882738Y-107943154D01*
X142977976Y-107990773D01*
X143168452Y-108038392D01*
X143311309Y-108038392D01*
X143501785Y-107990773D01*
X143597023Y-107943154D01*
X143692261Y-107847916D01*
X143739880Y-107705059D01*
X143739880Y-107466964D01*
X143739880Y-108990773D02*
X143739880Y-108419345D01*
X143739880Y-108705059D02*
X142739880Y-108705059D01*
X142882738Y-108609821D01*
X142977976Y-108514583D01*
X143025595Y-108419345D01*
X143739880Y-109466964D02*
X143739880Y-109657440D01*
X143692261Y-109752678D01*
X143644642Y-109800297D01*
X143501785Y-109895535D01*
X143311309Y-109943154D01*
X142930357Y-109943154D01*
X142835119Y-109895535D01*
X142787500Y-109847916D01*
X142739880Y-109752678D01*
X142739880Y-109562202D01*
X142787500Y-109466964D01*
X142835119Y-109419345D01*
X142930357Y-109371726D01*
X143168452Y-109371726D01*
X143263690Y-109419345D01*
X143311309Y-109466964D01*
X143358928Y-109562202D01*
X143358928Y-109752678D01*
X143311309Y-109847916D01*
X143263690Y-109895535D01*
X143168452Y-109943154D01*
X140564880Y-107466964D02*
X139564880Y-107466964D01*
X139564880Y-107705059D01*
X139612500Y-107847916D01*
X139707738Y-107943154D01*
X139802976Y-107990773D01*
X139993452Y-108038392D01*
X140136309Y-108038392D01*
X140326785Y-107990773D01*
X140422023Y-107943154D01*
X140517261Y-107847916D01*
X140564880Y-107705059D01*
X140564880Y-107466964D01*
X139660119Y-108419345D02*
X139612500Y-108466964D01*
X139564880Y-108562202D01*
X139564880Y-108800297D01*
X139612500Y-108895535D01*
X139660119Y-108943154D01*
X139755357Y-108990773D01*
X139850595Y-108990773D01*
X139993452Y-108943154D01*
X140564880Y-108371726D01*
X140564880Y-108990773D01*
X139660119Y-109371726D02*
X139612500Y-109419345D01*
X139564880Y-109514583D01*
X139564880Y-109752678D01*
X139612500Y-109847916D01*
X139660119Y-109895535D01*
X139755357Y-109943154D01*
X139850595Y-109943154D01*
X139993452Y-109895535D01*
X140564880Y-109324107D01*
X140564880Y-109943154D01*
X142946130Y-126516964D02*
X141946130Y-126516964D01*
X141946130Y-126755059D01*
X141993750Y-126897916D01*
X142088988Y-126993154D01*
X142184226Y-127040773D01*
X142374702Y-127088392D01*
X142517559Y-127088392D01*
X142708035Y-127040773D01*
X142803273Y-126993154D01*
X142898511Y-126897916D01*
X142946130Y-126755059D01*
X142946130Y-126516964D01*
X142946130Y-128040773D02*
X142946130Y-127469345D01*
X142946130Y-127755059D02*
X141946130Y-127755059D01*
X142088988Y-127659821D01*
X142184226Y-127564583D01*
X142231845Y-127469345D01*
X141946130Y-128897916D02*
X141946130Y-128707440D01*
X141993750Y-128612202D01*
X142041369Y-128564583D01*
X142184226Y-128469345D01*
X142374702Y-128421726D01*
X142755654Y-128421726D01*
X142850892Y-128469345D01*
X142898511Y-128516964D01*
X142946130Y-128612202D01*
X142946130Y-128802678D01*
X142898511Y-128897916D01*
X142850892Y-128945535D01*
X142755654Y-128993154D01*
X142517559Y-128993154D01*
X142422321Y-128945535D01*
X142374702Y-128897916D01*
X142327083Y-128802678D01*
X142327083Y-128612202D01*
X142374702Y-128516964D01*
X142422321Y-128469345D01*
X142517559Y-128421726D01*
X104712750Y-67801961D02*
X104780093Y-67801961D01*
X104914780Y-67734617D01*
X104982124Y-67667274D01*
X105049467Y-67532586D01*
X105049467Y-67397899D01*
X105015796Y-67296884D01*
X104914780Y-67128525D01*
X104813765Y-67027510D01*
X104645406Y-66926495D01*
X104544391Y-66892823D01*
X104409704Y-66892823D01*
X104275017Y-66960167D01*
X104207673Y-67027510D01*
X104140330Y-67162197D01*
X104140330Y-67229541D01*
X104106658Y-68542739D02*
X104510719Y-68138678D01*
X104308689Y-68340709D02*
X103601582Y-67633602D01*
X103769941Y-67667274D01*
X103904628Y-67667274D01*
X104005643Y-67633602D01*
X117262028Y-51692500D02*
X117329371Y-51692500D01*
X117464058Y-51625156D01*
X117531402Y-51557813D01*
X117598745Y-51423125D01*
X117598745Y-51288438D01*
X117565074Y-51187423D01*
X117464058Y-51019064D01*
X117363043Y-50918049D01*
X117194684Y-50817034D01*
X117093669Y-50783362D01*
X116958982Y-50783362D01*
X116824295Y-50850706D01*
X116756951Y-50918049D01*
X116689608Y-51052736D01*
X116689608Y-51120080D01*
X116251875Y-51894530D02*
X116723280Y-52365935D01*
X116150860Y-51456797D02*
X116824295Y-51793515D01*
X116386562Y-52231248D01*
X99691499Y-64628202D02*
X99691499Y-64695545D01*
X99758843Y-64830232D01*
X99826187Y-64897576D01*
X99960874Y-64964919D01*
X100095561Y-64964919D01*
X100196576Y-64931248D01*
X100364935Y-64830232D01*
X100465950Y-64729217D01*
X100566965Y-64560858D01*
X100600637Y-64459843D01*
X100600637Y-64325156D01*
X100533293Y-64190469D01*
X100465950Y-64123125D01*
X100331263Y-64055782D01*
X100263919Y-64055782D01*
X99691499Y-63348675D02*
X100028217Y-63685393D01*
X99725171Y-64055782D01*
X99725171Y-63988438D01*
X99691499Y-63887423D01*
X99523141Y-63719064D01*
X99422125Y-63685393D01*
X99354782Y-63685393D01*
X99253767Y-63719064D01*
X99085408Y-63887423D01*
X99051736Y-63988438D01*
X99051736Y-64055782D01*
X99085408Y-64156797D01*
X99253767Y-64325156D01*
X99354782Y-64358828D01*
X99422125Y-64358828D01*
X101175375Y-55690750D02*
X101175375Y-55758093D01*
X101242719Y-55892780D01*
X101310063Y-55960124D01*
X101444750Y-56027467D01*
X101579437Y-56027467D01*
X101680452Y-55993796D01*
X101848811Y-55892780D01*
X101949826Y-55791765D01*
X102050841Y-55623406D01*
X102084513Y-55522391D01*
X102084513Y-55387704D01*
X102017169Y-55253017D01*
X101949826Y-55185673D01*
X101815139Y-55118330D01*
X101747795Y-55118330D01*
X101579437Y-54815284D02*
X101108032Y-54343880D01*
X100703971Y-55354032D01*
X148741666Y-55283630D02*
X149075000Y-54807440D01*
X149313095Y-55283630D02*
X149313095Y-54283630D01*
X148932142Y-54283630D01*
X148836904Y-54331250D01*
X148789285Y-54378869D01*
X148741666Y-54474107D01*
X148741666Y-54616964D01*
X148789285Y-54712202D01*
X148836904Y-54759821D01*
X148932142Y-54807440D01*
X149313095Y-54807440D01*
X147789285Y-55283630D02*
X148360714Y-55283630D01*
X148075000Y-55283630D02*
X148075000Y-54283630D01*
X148170238Y-54426488D01*
X148265476Y-54521726D01*
X148360714Y-54569345D01*
X122194668Y-56558322D02*
X122194668Y-57034512D01*
X122528001Y-56034512D02*
X122194668Y-56558322D01*
X121861335Y-56034512D01*
X121004192Y-57034512D02*
X121575620Y-57034512D01*
X121289906Y-57034512D02*
X121289906Y-56034512D01*
X121385144Y-56177370D01*
X121480382Y-56272608D01*
X121575620Y-56320227D01*
X106507165Y-64556348D02*
X105934745Y-65128768D01*
X105833730Y-65162440D01*
X105766386Y-65162440D01*
X105665371Y-65128768D01*
X105530684Y-64994081D01*
X105497012Y-64893066D01*
X105497012Y-64825722D01*
X105530684Y-64724707D01*
X106103104Y-64152287D01*
X104688890Y-64152287D02*
X105092951Y-64556348D01*
X104890921Y-64354318D02*
X105598027Y-63647211D01*
X105564356Y-63815570D01*
X105564356Y-63950257D01*
X105598027Y-64051272D01*
X148741666Y-52902380D02*
X149075000Y-52426190D01*
X149313095Y-52902380D02*
X149313095Y-51902380D01*
X148932142Y-51902380D01*
X148836904Y-51950000D01*
X148789285Y-51997619D01*
X148741666Y-52092857D01*
X148741666Y-52235714D01*
X148789285Y-52330952D01*
X148836904Y-52378571D01*
X148932142Y-52426190D01*
X149313095Y-52426190D01*
X148360714Y-51997619D02*
X148313095Y-51950000D01*
X148217857Y-51902380D01*
X147979761Y-51902380D01*
X147884523Y-51950000D01*
X147836904Y-51997619D01*
X147789285Y-52092857D01*
X147789285Y-52188095D01*
X147836904Y-52330952D01*
X148408333Y-52902380D01*
X147789285Y-52902380D01*
X121563666Y-51092630D02*
X121897000Y-50616440D01*
X122135095Y-51092630D02*
X122135095Y-50092630D01*
X121754142Y-50092630D01*
X121658904Y-50140250D01*
X121611285Y-50187869D01*
X121563666Y-50283107D01*
X121563666Y-50425964D01*
X121611285Y-50521202D01*
X121658904Y-50568821D01*
X121754142Y-50616440D01*
X122135095Y-50616440D01*
X121230333Y-50092630D02*
X120611285Y-50092630D01*
X120944619Y-50473583D01*
X120801761Y-50473583D01*
X120706523Y-50521202D01*
X120658904Y-50568821D01*
X120611285Y-50664059D01*
X120611285Y-50902154D01*
X120658904Y-50997392D01*
X120706523Y-51045011D01*
X120801761Y-51092630D01*
X121087476Y-51092630D01*
X121182714Y-51045011D01*
X121230333Y-50997392D01*
X149177333Y-58898571D02*
X149510666Y-58898571D01*
X149510666Y-59422380D02*
X149510666Y-58422380D01*
X149034476Y-58422380D01*
X148129714Y-59422380D02*
X148701142Y-59422380D01*
X148415428Y-59422380D02*
X148415428Y-58422380D01*
X148510666Y-58565238D01*
X148605904Y-58660476D01*
X148701142Y-58708095D01*
X105525125Y-51372750D02*
X105525125Y-51440093D01*
X105592469Y-51574780D01*
X105659813Y-51642124D01*
X105794500Y-51709467D01*
X105929187Y-51709467D01*
X106030202Y-51675796D01*
X106198561Y-51574780D01*
X106299576Y-51473765D01*
X106400591Y-51305406D01*
X106434263Y-51204391D01*
X106434263Y-51069704D01*
X106366919Y-50935017D01*
X106299576Y-50867673D01*
X106164889Y-50800330D01*
X106097545Y-50800330D01*
X105558797Y-50126895D02*
X105693484Y-50261582D01*
X105727156Y-50362597D01*
X105727156Y-50429941D01*
X105693484Y-50598299D01*
X105592469Y-50766658D01*
X105323095Y-51036032D01*
X105222080Y-51069704D01*
X105154736Y-51069704D01*
X105053721Y-51036032D01*
X104919034Y-50901345D01*
X104885362Y-50800330D01*
X104885362Y-50732986D01*
X104919034Y-50631971D01*
X105087393Y-50463612D01*
X105188408Y-50429941D01*
X105255751Y-50429941D01*
X105356767Y-50463612D01*
X105491454Y-50598299D01*
X105525125Y-50699315D01*
X105525125Y-50766658D01*
X105491454Y-50867673D01*
X126968586Y-54877115D02*
X126968586Y-54944458D01*
X127035930Y-55079145D01*
X127103274Y-55146489D01*
X127237961Y-55213832D01*
X127372648Y-55213832D01*
X127473663Y-55180161D01*
X127642022Y-55079145D01*
X127743037Y-54978130D01*
X127844052Y-54809771D01*
X127877724Y-54708756D01*
X127877724Y-54574069D01*
X127810380Y-54439382D01*
X127743037Y-54372038D01*
X127608350Y-54304695D01*
X127541006Y-54304695D01*
X127372648Y-54001649D02*
X126934915Y-53563916D01*
X126901243Y-54068993D01*
X126800228Y-53967977D01*
X126699212Y-53934306D01*
X126631869Y-53934306D01*
X126530854Y-53967977D01*
X126362495Y-54136336D01*
X126328823Y-54237351D01*
X126328823Y-54304695D01*
X126362495Y-54405710D01*
X126564525Y-54607741D01*
X126665541Y-54641413D01*
X126732884Y-54641413D01*
X142755630Y-88257214D02*
X141755630Y-88257214D01*
X141755630Y-88495309D01*
X141803250Y-88638166D01*
X141898488Y-88733404D01*
X141993726Y-88781023D01*
X142184202Y-88828642D01*
X142327059Y-88828642D01*
X142517535Y-88781023D01*
X142612773Y-88733404D01*
X142708011Y-88638166D01*
X142755630Y-88495309D01*
X142755630Y-88257214D01*
X141850869Y-89209595D02*
X141803250Y-89257214D01*
X141755630Y-89352452D01*
X141755630Y-89590547D01*
X141803250Y-89685785D01*
X141850869Y-89733404D01*
X141946107Y-89781023D01*
X142041345Y-89781023D01*
X142184202Y-89733404D01*
X142755630Y-89161976D01*
X142755630Y-89781023D01*
X142755630Y-90733404D02*
X142755630Y-90161976D01*
X142755630Y-90447690D02*
X141755630Y-90447690D01*
X141898488Y-90352452D01*
X141993726Y-90257214D01*
X142041345Y-90161976D01*
X140564880Y-70160714D02*
X139564880Y-70160714D01*
X139564880Y-70398809D01*
X139612500Y-70541666D01*
X139707738Y-70636904D01*
X139802976Y-70684523D01*
X139993452Y-70732142D01*
X140136309Y-70732142D01*
X140326785Y-70684523D01*
X140422023Y-70636904D01*
X140517261Y-70541666D01*
X140564880Y-70398809D01*
X140564880Y-70160714D01*
X139660119Y-71113095D02*
X139612500Y-71160714D01*
X139564880Y-71255952D01*
X139564880Y-71494047D01*
X139612500Y-71589285D01*
X139660119Y-71636904D01*
X139755357Y-71684523D01*
X139850595Y-71684523D01*
X139993452Y-71636904D01*
X140564880Y-71065476D01*
X140564880Y-71684523D01*
X139564880Y-72303571D02*
X139564880Y-72398809D01*
X139612500Y-72494047D01*
X139660119Y-72541666D01*
X139755357Y-72589285D01*
X139945833Y-72636904D01*
X140183928Y-72636904D01*
X140374404Y-72589285D01*
X140469642Y-72541666D01*
X140517261Y-72494047D01*
X140564880Y-72398809D01*
X140564880Y-72303571D01*
X140517261Y-72208333D01*
X140469642Y-72160714D01*
X140374404Y-72113095D01*
X140183928Y-72065476D01*
X139945833Y-72065476D01*
X139755357Y-72113095D01*
X139660119Y-72160714D01*
X139612500Y-72208333D01*
X139564880Y-72303571D01*
X145136880Y-88319714D02*
X144136880Y-88319714D01*
X144136880Y-88557809D01*
X144184500Y-88700666D01*
X144279738Y-88795904D01*
X144374976Y-88843523D01*
X144565452Y-88891142D01*
X144708309Y-88891142D01*
X144898785Y-88843523D01*
X144994023Y-88795904D01*
X145089261Y-88700666D01*
X145136880Y-88557809D01*
X145136880Y-88319714D01*
X145136880Y-89843523D02*
X145136880Y-89272095D01*
X145136880Y-89557809D02*
X144136880Y-89557809D01*
X144279738Y-89462571D01*
X144374976Y-89367333D01*
X144422595Y-89272095D01*
X144565452Y-90414952D02*
X144517833Y-90319714D01*
X144470214Y-90272095D01*
X144374976Y-90224476D01*
X144327357Y-90224476D01*
X144232119Y-90272095D01*
X144184500Y-90319714D01*
X144136880Y-90414952D01*
X144136880Y-90605428D01*
X144184500Y-90700666D01*
X144232119Y-90748285D01*
X144327357Y-90795904D01*
X144374976Y-90795904D01*
X144470214Y-90748285D01*
X144517833Y-90700666D01*
X144565452Y-90605428D01*
X144565452Y-90414952D01*
X144613071Y-90319714D01*
X144660690Y-90272095D01*
X144755928Y-90224476D01*
X144946404Y-90224476D01*
X145041642Y-90272095D01*
X145089261Y-90319714D01*
X145136880Y-90414952D01*
X145136880Y-90605428D01*
X145089261Y-90700666D01*
X145041642Y-90748285D01*
X144946404Y-90795904D01*
X144755928Y-90795904D01*
X144660690Y-90748285D01*
X144613071Y-90700666D01*
X144565452Y-90605428D01*
X143739880Y-70160714D02*
X142739880Y-70160714D01*
X142739880Y-70398809D01*
X142787500Y-70541666D01*
X142882738Y-70636904D01*
X142977976Y-70684523D01*
X143168452Y-70732142D01*
X143311309Y-70732142D01*
X143501785Y-70684523D01*
X143597023Y-70636904D01*
X143692261Y-70541666D01*
X143739880Y-70398809D01*
X143739880Y-70160714D01*
X143739880Y-71684523D02*
X143739880Y-71113095D01*
X143739880Y-71398809D02*
X142739880Y-71398809D01*
X142882738Y-71303571D01*
X142977976Y-71208333D01*
X143025595Y-71113095D01*
X142739880Y-72017857D02*
X142739880Y-72684523D01*
X143739880Y-72255952D01*
X137389880Y-107529464D02*
X136389880Y-107529464D01*
X136389880Y-107767559D01*
X136437500Y-107910416D01*
X136532738Y-108005654D01*
X136627976Y-108053273D01*
X136818452Y-108100892D01*
X136961309Y-108100892D01*
X137151785Y-108053273D01*
X137247023Y-108005654D01*
X137342261Y-107910416D01*
X137389880Y-107767559D01*
X137389880Y-107529464D01*
X137389880Y-109053273D02*
X137389880Y-108481845D01*
X137389880Y-108767559D02*
X136389880Y-108767559D01*
X136532738Y-108672321D01*
X136627976Y-108577083D01*
X136675595Y-108481845D01*
X136389880Y-109958035D02*
X136389880Y-109481845D01*
X136866071Y-109434226D01*
X136818452Y-109481845D01*
X136770833Y-109577083D01*
X136770833Y-109815178D01*
X136818452Y-109910416D01*
X136866071Y-109958035D01*
X136961309Y-110005654D01*
X137199404Y-110005654D01*
X137294642Y-109958035D01*
X137342261Y-109910416D01*
X137389880Y-109815178D01*
X137389880Y-109577083D01*
X137342261Y-109481845D01*
X137294642Y-109434226D01*
X140374380Y-88319714D02*
X139374380Y-88319714D01*
X139374380Y-88557809D01*
X139422000Y-88700666D01*
X139517238Y-88795904D01*
X139612476Y-88843523D01*
X139802952Y-88891142D01*
X139945809Y-88891142D01*
X140136285Y-88843523D01*
X140231523Y-88795904D01*
X140326761Y-88700666D01*
X140374380Y-88557809D01*
X140374380Y-88319714D01*
X140374380Y-89843523D02*
X140374380Y-89272095D01*
X140374380Y-89557809D02*
X139374380Y-89557809D01*
X139517238Y-89462571D01*
X139612476Y-89367333D01*
X139660095Y-89272095D01*
X139707714Y-90700666D02*
X140374380Y-90700666D01*
X139326761Y-90462571D02*
X140041047Y-90224476D01*
X140041047Y-90843523D01*
X137389880Y-70223214D02*
X136389880Y-70223214D01*
X136389880Y-70461309D01*
X136437500Y-70604166D01*
X136532738Y-70699404D01*
X136627976Y-70747023D01*
X136818452Y-70794642D01*
X136961309Y-70794642D01*
X137151785Y-70747023D01*
X137247023Y-70699404D01*
X137342261Y-70604166D01*
X137389880Y-70461309D01*
X137389880Y-70223214D01*
X137389880Y-71747023D02*
X137389880Y-71175595D01*
X137389880Y-71461309D02*
X136389880Y-71461309D01*
X136532738Y-71366071D01*
X136627976Y-71270833D01*
X136675595Y-71175595D01*
X136389880Y-72080357D02*
X136389880Y-72699404D01*
X136770833Y-72366071D01*
X136770833Y-72508928D01*
X136818452Y-72604166D01*
X136866071Y-72651785D01*
X136961309Y-72699404D01*
X137199404Y-72699404D01*
X137294642Y-72651785D01*
X137342261Y-72604166D01*
X137389880Y-72508928D01*
X137389880Y-72223214D01*
X137342261Y-72127976D01*
X137294642Y-72080357D01*
X134214880Y-107529464D02*
X133214880Y-107529464D01*
X133214880Y-107767559D01*
X133262500Y-107910416D01*
X133357738Y-108005654D01*
X133452976Y-108053273D01*
X133643452Y-108100892D01*
X133786309Y-108100892D01*
X133976785Y-108053273D01*
X134072023Y-108005654D01*
X134167261Y-107910416D01*
X134214880Y-107767559D01*
X134214880Y-107529464D01*
X134214880Y-109053273D02*
X134214880Y-108481845D01*
X134214880Y-108767559D02*
X133214880Y-108767559D01*
X133357738Y-108672321D01*
X133452976Y-108577083D01*
X133500595Y-108481845D01*
X134214880Y-110005654D02*
X134214880Y-109434226D01*
X134214880Y-109719940D02*
X133214880Y-109719940D01*
X133357738Y-109624702D01*
X133452976Y-109529464D01*
X133500595Y-109434226D01*
X130055630Y-86669714D02*
X129055630Y-86669714D01*
X129055630Y-86907809D01*
X129103250Y-87050666D01*
X129198488Y-87145904D01*
X129293726Y-87193523D01*
X129484202Y-87241142D01*
X129627059Y-87241142D01*
X129817535Y-87193523D01*
X129912773Y-87145904D01*
X130008011Y-87050666D01*
X130055630Y-86907809D01*
X130055630Y-86669714D01*
X130055630Y-88193523D02*
X130055630Y-87622095D01*
X130055630Y-87907809D02*
X129055630Y-87907809D01*
X129198488Y-87812571D01*
X129293726Y-87717333D01*
X129341345Y-87622095D01*
X129055630Y-88812571D02*
X129055630Y-88907809D01*
X129103250Y-89003047D01*
X129150869Y-89050666D01*
X129246107Y-89098285D01*
X129436583Y-89145904D01*
X129674678Y-89145904D01*
X129865154Y-89098285D01*
X129960392Y-89050666D01*
X130008011Y-89003047D01*
X130055630Y-88907809D01*
X130055630Y-88812571D01*
X130008011Y-88717333D01*
X129960392Y-88669714D01*
X129865154Y-88622095D01*
X129674678Y-88574476D01*
X129436583Y-88574476D01*
X129246107Y-88622095D01*
X129150869Y-88669714D01*
X129103250Y-88717333D01*
X129055630Y-88812571D01*
X134214880Y-70636904D02*
X133214880Y-70636904D01*
X133214880Y-70875000D01*
X133262500Y-71017857D01*
X133357738Y-71113095D01*
X133452976Y-71160714D01*
X133643452Y-71208333D01*
X133786309Y-71208333D01*
X133976785Y-71160714D01*
X134072023Y-71113095D01*
X134167261Y-71017857D01*
X134214880Y-70875000D01*
X134214880Y-70636904D01*
X134214880Y-71684523D02*
X134214880Y-71875000D01*
X134167261Y-71970238D01*
X134119642Y-72017857D01*
X133976785Y-72113095D01*
X133786309Y-72160714D01*
X133405357Y-72160714D01*
X133310119Y-72113095D01*
X133262500Y-72065476D01*
X133214880Y-71970238D01*
X133214880Y-71779761D01*
X133262500Y-71684523D01*
X133310119Y-71636904D01*
X133405357Y-71589285D01*
X133643452Y-71589285D01*
X133738690Y-71636904D01*
X133786309Y-71684523D01*
X133833928Y-71779761D01*
X133833928Y-71970238D01*
X133786309Y-72065476D01*
X133738690Y-72113095D01*
X133643452Y-72160714D01*
X125293130Y-87083404D02*
X124293130Y-87083404D01*
X124293130Y-87321500D01*
X124340750Y-87464357D01*
X124435988Y-87559595D01*
X124531226Y-87607214D01*
X124721702Y-87654833D01*
X124864559Y-87654833D01*
X125055035Y-87607214D01*
X125150273Y-87559595D01*
X125245511Y-87464357D01*
X125293130Y-87321500D01*
X125293130Y-87083404D01*
X124293130Y-88511976D02*
X124293130Y-88321500D01*
X124340750Y-88226261D01*
X124388369Y-88178642D01*
X124531226Y-88083404D01*
X124721702Y-88035785D01*
X125102654Y-88035785D01*
X125197892Y-88083404D01*
X125245511Y-88131023D01*
X125293130Y-88226261D01*
X125293130Y-88416738D01*
X125245511Y-88511976D01*
X125197892Y-88559595D01*
X125102654Y-88607214D01*
X124864559Y-88607214D01*
X124769321Y-88559595D01*
X124721702Y-88511976D01*
X124674083Y-88416738D01*
X124674083Y-88226261D01*
X124721702Y-88131023D01*
X124769321Y-88083404D01*
X124864559Y-88035785D01*
X131484380Y-70636904D02*
X130484380Y-70636904D01*
X130484380Y-70875000D01*
X130532000Y-71017857D01*
X130627238Y-71113095D01*
X130722476Y-71160714D01*
X130912952Y-71208333D01*
X131055809Y-71208333D01*
X131246285Y-71160714D01*
X131341523Y-71113095D01*
X131436761Y-71017857D01*
X131484380Y-70875000D01*
X131484380Y-70636904D01*
X130484380Y-72113095D02*
X130484380Y-71636904D01*
X130960571Y-71589285D01*
X130912952Y-71636904D01*
X130865333Y-71732142D01*
X130865333Y-71970238D01*
X130912952Y-72065476D01*
X130960571Y-72113095D01*
X131055809Y-72160714D01*
X131293904Y-72160714D01*
X131389142Y-72113095D01*
X131436761Y-72065476D01*
X131484380Y-71970238D01*
X131484380Y-71732142D01*
X131436761Y-71636904D01*
X131389142Y-71589285D01*
X127674380Y-87208404D02*
X126674380Y-87208404D01*
X126674380Y-87446500D01*
X126722000Y-87589357D01*
X126817238Y-87684595D01*
X126912476Y-87732214D01*
X127102952Y-87779833D01*
X127245809Y-87779833D01*
X127436285Y-87732214D01*
X127531523Y-87684595D01*
X127626761Y-87589357D01*
X127674380Y-87446500D01*
X127674380Y-87208404D01*
X126769619Y-88160785D02*
X126722000Y-88208404D01*
X126674380Y-88303642D01*
X126674380Y-88541738D01*
X126722000Y-88636976D01*
X126769619Y-88684595D01*
X126864857Y-88732214D01*
X126960095Y-88732214D01*
X127102952Y-88684595D01*
X127674380Y-88113166D01*
X127674380Y-88732214D01*
X128944380Y-70636904D02*
X127944380Y-70636904D01*
X127944380Y-70875000D01*
X127992000Y-71017857D01*
X128087238Y-71113095D01*
X128182476Y-71160714D01*
X128372952Y-71208333D01*
X128515809Y-71208333D01*
X128706285Y-71160714D01*
X128801523Y-71113095D01*
X128896761Y-71017857D01*
X128944380Y-70875000D01*
X128944380Y-70636904D01*
X128944380Y-72160714D02*
X128944380Y-71589285D01*
X128944380Y-71875000D02*
X127944380Y-71875000D01*
X128087238Y-71779761D01*
X128182476Y-71684523D01*
X128230095Y-71589285D01*
%LPC*%
D12*
X159543750Y-55243750D03*
X159543750Y-47943750D03*
X155043750Y-47943750D03*
X155043750Y-55243750D03*
D13*
X93681250Y-53975000D03*
X88681250Y-53975000D03*
D14*
X88681250Y-58475000D03*
X96781250Y-52375000D03*
X93681250Y-57575000D03*
D15*
X88681250Y-49175000D03*
D16*
X129603500Y-64262000D03*
D17*
X130717500Y-63135000D03*
X134922500Y-63134160D03*
X135317500Y-63135000D03*
D18*
X133017500Y-64935000D03*
X133017500Y-61335000D03*
D17*
X131117500Y-63135000D03*
D19*
X133017500Y-64035000D03*
D20*
X129882500Y-58955000D03*
D21*
X129227505Y-59685004D02*
X130537495Y-58224996D01*
D20*
X135557500Y-57380000D03*
D21*
X135537729Y-57670016D02*
X135577271Y-57089984D01*
D22*
X138307500Y-62230000D03*
X127757500Y-62230000D03*
D23*
X133032500Y-62230000D03*
D24*
X138032500Y-58430001D03*
X133032500Y-56330000D03*
D16*
X98251447Y-137326790D03*
D25*
X97467095Y-138703713D03*
D26*
X97932969Y-140442379D02*
X97001221Y-136965047D01*
D25*
X93405594Y-139792859D03*
D26*
X93871468Y-141531525D02*
X92939720Y-138054193D01*
D25*
X93023836Y-139894281D03*
D26*
X93489710Y-141632947D02*
X92557962Y-138155615D01*
D25*
X94779591Y-137560330D03*
D26*
X97001220Y-136965046D02*
X92557962Y-138155614D01*
D25*
X95711340Y-141037663D03*
D26*
X97932969Y-140442379D02*
X93489711Y-141632947D01*
D25*
X97080725Y-138807241D03*
D26*
X97546599Y-140545907D02*
X96614851Y-137068575D01*
D27*
X95012529Y-138429664D03*
D28*
X96751195Y-137963790D02*
X93273863Y-138895538D01*
D20*
X99355507Y-142525169D03*
D21*
X99799245Y-141650514D02*
X98911769Y-143399824D01*
D20*
X94281518Y-145515300D03*
D21*
X94225554Y-145230049D02*
X94337482Y-145800551D01*
D29*
X90369949Y-141542312D03*
D30*
X90575208Y-141487313D02*
X90164690Y-141597311D01*
D29*
X100560467Y-138811772D03*
D30*
X100765726Y-138756773D02*
X100355208Y-138866771D01*
D23*
X95465208Y-140177042D03*
D24*
X91619091Y-145141654D03*
X96992240Y-145876004D03*
D16*
X186753500Y-110299500D03*
D17*
X187867500Y-109172500D03*
X192072500Y-109171660D03*
X192467500Y-109172500D03*
D18*
X190167500Y-110972500D03*
X190167500Y-107372500D03*
D17*
X188267500Y-109172500D03*
D19*
X190167500Y-110072500D03*
D20*
X187032500Y-104992500D03*
D21*
X186377505Y-105722504D02*
X187687495Y-104262496D01*
D20*
X192707500Y-103417500D03*
D21*
X192687729Y-103707516D02*
X192727271Y-103127484D01*
D22*
X195457500Y-108267500D03*
X184907500Y-108267500D03*
D23*
X190182500Y-108267500D03*
D24*
X195182500Y-104467501D03*
X190182500Y-102367500D03*
D16*
X186753500Y-91249500D03*
D17*
X187867500Y-90122500D03*
X192072500Y-90121660D03*
X192467500Y-90122500D03*
D18*
X190167500Y-91922500D03*
X190167500Y-88322500D03*
D17*
X188267500Y-90122500D03*
D19*
X190167500Y-91022500D03*
D20*
X187032500Y-85942500D03*
D21*
X186377505Y-86672504D02*
X187687495Y-85212496D01*
D20*
X192707500Y-84367500D03*
D21*
X192687729Y-84657516D02*
X192727271Y-84077484D01*
D22*
X195457500Y-89217500D03*
X184907500Y-89217500D03*
D23*
X190182500Y-89217500D03*
D24*
X195182500Y-85417501D03*
X190182500Y-83317500D03*
D16*
X186753500Y-72199500D03*
D17*
X187867500Y-71072500D03*
X192072500Y-71071660D03*
X192467500Y-71072500D03*
D18*
X190167500Y-72872500D03*
X190167500Y-69272500D03*
D17*
X188267500Y-71072500D03*
D19*
X190167500Y-71972500D03*
D20*
X187032500Y-66892500D03*
D21*
X186377505Y-67622504D02*
X187687495Y-66162496D01*
D20*
X192707500Y-65317500D03*
D21*
X192687729Y-65607516D02*
X192727271Y-65027484D01*
D22*
X195457500Y-70167500D03*
X184907500Y-70167500D03*
D23*
X190182500Y-70167500D03*
D24*
X195182500Y-66367501D03*
X190182500Y-64267500D03*
D16*
X167703500Y-113474500D03*
D17*
X168817500Y-112347500D03*
X173022500Y-112346660D03*
X173417500Y-112347500D03*
D18*
X171117500Y-114147500D03*
X171117500Y-110547500D03*
D17*
X169217500Y-112347500D03*
D19*
X171117500Y-113247500D03*
D20*
X167982500Y-108167500D03*
D21*
X167327505Y-108897504D02*
X168637495Y-107437496D01*
D20*
X173657500Y-106592500D03*
D21*
X173637729Y-106882516D02*
X173677271Y-106302484D01*
D22*
X176407500Y-111442500D03*
X165857500Y-111442500D03*
D23*
X171132500Y-111442500D03*
D24*
X176132500Y-107642501D03*
X171132500Y-105542500D03*
D16*
X167703500Y-94424500D03*
D17*
X168817500Y-93297500D03*
X173022500Y-93296660D03*
X173417500Y-93297500D03*
D18*
X171117500Y-95097500D03*
X171117500Y-91497500D03*
D17*
X169217500Y-93297500D03*
D19*
X171117500Y-94197500D03*
D20*
X167982500Y-89117500D03*
D21*
X167327505Y-89847504D02*
X168637495Y-88387496D01*
D20*
X173657500Y-87542500D03*
D21*
X173637729Y-87832516D02*
X173677271Y-87252484D01*
D22*
X176407500Y-92392500D03*
X165857500Y-92392500D03*
D23*
X171132500Y-92392500D03*
D24*
X176132500Y-88592501D03*
X171132500Y-86492500D03*
D16*
X167703500Y-75374500D03*
D17*
X168817500Y-74247500D03*
X173022500Y-74246660D03*
X173417500Y-74247500D03*
D18*
X171117500Y-76047500D03*
X171117500Y-72447500D03*
D17*
X169217500Y-74247500D03*
D19*
X171117500Y-75147500D03*
D20*
X167982500Y-70067500D03*
D21*
X167327505Y-70797504D02*
X168637495Y-69337496D01*
D20*
X173657500Y-68492500D03*
D21*
X173637729Y-68782516D02*
X173677271Y-68202484D01*
D22*
X176407500Y-73342500D03*
X165857500Y-73342500D03*
D23*
X171132500Y-73342500D03*
D24*
X176132500Y-69542501D03*
X171132500Y-67442500D03*
D16*
X148653500Y-126174500D03*
D17*
X149767500Y-125047500D03*
X153972500Y-125046660D03*
X154367500Y-125047500D03*
D18*
X152067500Y-126847500D03*
X152067500Y-123247500D03*
D17*
X150167500Y-125047500D03*
D19*
X152067500Y-125947500D03*
D20*
X148932500Y-120867500D03*
D21*
X148277505Y-121597504D02*
X149587495Y-120137496D01*
D20*
X154607500Y-119292500D03*
D21*
X154587729Y-119582516D02*
X154627271Y-119002484D01*
D22*
X157357500Y-124142500D03*
X146807500Y-124142500D03*
D23*
X152082500Y-124142500D03*
D24*
X157082500Y-120342501D03*
X152082500Y-118242500D03*
D16*
X148653500Y-107124500D03*
D17*
X149767500Y-105997500D03*
X153972500Y-105996660D03*
X154367500Y-105997500D03*
D18*
X152067500Y-107797500D03*
X152067500Y-104197500D03*
D17*
X150167500Y-105997500D03*
D19*
X152067500Y-106897500D03*
D20*
X148932500Y-101817500D03*
D21*
X148277505Y-102547504D02*
X149587495Y-101087496D01*
D20*
X154607500Y-100242500D03*
D21*
X154587729Y-100532516D02*
X154627271Y-99952484D01*
D22*
X157357500Y-105092500D03*
X146807500Y-105092500D03*
D23*
X152082500Y-105092500D03*
D24*
X157082500Y-101292501D03*
X152082500Y-99192500D03*
D16*
X148653500Y-88074500D03*
D17*
X149767500Y-86947500D03*
X153972500Y-86946660D03*
X154367500Y-86947500D03*
D18*
X152067500Y-88747500D03*
X152067500Y-85147500D03*
D17*
X150167500Y-86947500D03*
D19*
X152067500Y-87847500D03*
D20*
X148932500Y-82767500D03*
D21*
X148277505Y-83497504D02*
X149587495Y-82037496D01*
D20*
X154607500Y-81192500D03*
D21*
X154587729Y-81482516D02*
X154627271Y-80902484D01*
D22*
X157357500Y-86042500D03*
X146807500Y-86042500D03*
D23*
X152082500Y-86042500D03*
D24*
X157082500Y-82242501D03*
X152082500Y-80142500D03*
D16*
X148653500Y-69024500D03*
D17*
X149767500Y-67897500D03*
X153972500Y-67896660D03*
X154367500Y-67897500D03*
D18*
X152067500Y-69697500D03*
X152067500Y-66097500D03*
D17*
X150167500Y-67897500D03*
D19*
X152067500Y-68797500D03*
D20*
X148932500Y-63717500D03*
D21*
X148277505Y-64447504D02*
X149587495Y-62987496D01*
D20*
X154607500Y-62142500D03*
D21*
X154587729Y-62432516D02*
X154627271Y-61852484D01*
D22*
X157357500Y-66992500D03*
X146807500Y-66992500D03*
D23*
X152082500Y-66992500D03*
D24*
X157082500Y-63192501D03*
X152082500Y-61092500D03*
D16*
X129603500Y-121412000D03*
D17*
X130717500Y-120285000D03*
X134922500Y-120284160D03*
X135317500Y-120285000D03*
D18*
X133017500Y-122085000D03*
X133017500Y-118485000D03*
D17*
X131117500Y-120285000D03*
D19*
X133017500Y-121185000D03*
D20*
X129882500Y-116105000D03*
D21*
X129227505Y-116835004D02*
X130537495Y-115374996D01*
D20*
X135557500Y-114530000D03*
D21*
X135537729Y-114820016D02*
X135577271Y-114239984D01*
D22*
X138307500Y-119380000D03*
X127757500Y-119380000D03*
D23*
X133032500Y-119380000D03*
D24*
X138032500Y-115580001D03*
X133032500Y-113480000D03*
D16*
X129603500Y-102362000D03*
D17*
X130717500Y-101235000D03*
X134922500Y-101234160D03*
X135317500Y-101235000D03*
D18*
X133017500Y-103035000D03*
X133017500Y-99435000D03*
D17*
X131117500Y-101235000D03*
D19*
X133017500Y-102135000D03*
D20*
X129882500Y-97055000D03*
D21*
X129227505Y-97785004D02*
X130537495Y-96324996D01*
D20*
X135557500Y-95480000D03*
D21*
X135537729Y-95770016D02*
X135577271Y-95189984D01*
D22*
X138307500Y-100330000D03*
X127757500Y-100330000D03*
D23*
X133032500Y-100330000D03*
D24*
X138032500Y-96530001D03*
X133032500Y-94430000D03*
D16*
X129603500Y-83312000D03*
D17*
X130717500Y-82185000D03*
X134922500Y-82184160D03*
X135317500Y-82185000D03*
D18*
X133017500Y-83985000D03*
X133017500Y-80385000D03*
D17*
X131117500Y-82185000D03*
D19*
X133017500Y-83085000D03*
D20*
X129882500Y-78005000D03*
D21*
X129227505Y-78735004D02*
X130537495Y-77274996D01*
D20*
X135557500Y-76430000D03*
D21*
X135537729Y-76720016D02*
X135577271Y-76139984D01*
D22*
X138307500Y-81280000D03*
X127757500Y-81280000D03*
D23*
X133032500Y-81280000D03*
D24*
X138032500Y-77480001D03*
X133032500Y-75380000D03*
D16*
X116768739Y-132404748D03*
D25*
X115984387Y-133781671D03*
D26*
X116450261Y-135520337D02*
X115518513Y-132043005D01*
D25*
X111922886Y-134870817D03*
D26*
X112388760Y-136609483D02*
X111457012Y-133132151D01*
D25*
X111541128Y-134972239D03*
D26*
X112007002Y-136710905D02*
X111075254Y-133233573D01*
D25*
X113296883Y-132638288D03*
D26*
X115518512Y-132043004D02*
X111075254Y-133233572D01*
D25*
X114228632Y-136115621D03*
D26*
X116450261Y-135520337D02*
X112007003Y-136710905D01*
D25*
X115598017Y-133885199D03*
D26*
X116063891Y-135623865D02*
X115132143Y-132146533D01*
D27*
X113529821Y-133507622D03*
D28*
X115268487Y-133041748D02*
X111791155Y-133973496D01*
D20*
X117872799Y-137603127D03*
D21*
X118316537Y-136728472D02*
X117429061Y-138477782D01*
D20*
X112798810Y-140593258D03*
D21*
X112742846Y-140308007D02*
X112854774Y-140878509D01*
D29*
X108887241Y-136620270D03*
D30*
X109092500Y-136565271D02*
X108681982Y-136675269D01*
D29*
X119077759Y-133889730D03*
D30*
X119283018Y-133834731D02*
X118872500Y-133944729D01*
D23*
X113982500Y-135255000D03*
D24*
X110136383Y-140219612D03*
X115509532Y-140953962D03*
D16*
X110553500Y-115062000D03*
D17*
X111667500Y-113935000D03*
X115872500Y-113934160D03*
X116267500Y-113935000D03*
D18*
X113967500Y-115735000D03*
X113967500Y-112135000D03*
D17*
X112067500Y-113935000D03*
D19*
X113967500Y-114835000D03*
D20*
X110832500Y-109755000D03*
D21*
X110177505Y-110485004D02*
X111487495Y-109024996D01*
D20*
X116507500Y-108180000D03*
D21*
X116487729Y-108470016D02*
X116527271Y-107889984D01*
D22*
X119257500Y-113030000D03*
X108707500Y-113030000D03*
D23*
X113982500Y-113030000D03*
D24*
X118982500Y-109230001D03*
X113982500Y-107130000D03*
D16*
X110553500Y-96012000D03*
D17*
X111667500Y-94885000D03*
X115872500Y-94884160D03*
X116267500Y-94885000D03*
D18*
X113967500Y-96685000D03*
X113967500Y-93085000D03*
D17*
X112067500Y-94885000D03*
D19*
X113967500Y-95785000D03*
D20*
X110832500Y-90705000D03*
D21*
X110177505Y-91435004D02*
X111487495Y-89974996D01*
D20*
X116507500Y-89130000D03*
D21*
X116487729Y-89420016D02*
X116527271Y-88839984D01*
D22*
X119257500Y-93980000D03*
X108707500Y-93980000D03*
D23*
X113982500Y-93980000D03*
D24*
X118982500Y-90180001D03*
X113982500Y-88080000D03*
D16*
X110553500Y-76962000D03*
D17*
X111667500Y-75835000D03*
X115872500Y-75834160D03*
X116267500Y-75835000D03*
D18*
X113967500Y-77635000D03*
X113967500Y-74035000D03*
D17*
X112067500Y-75835000D03*
D19*
X113967500Y-76735000D03*
D20*
X110832500Y-71655000D03*
D21*
X110177505Y-72385004D02*
X111487495Y-70924996D01*
D20*
X116507500Y-70080000D03*
D21*
X116487729Y-70370016D02*
X116527271Y-69789984D01*
D22*
X119257500Y-74930000D03*
X108707500Y-74930000D03*
D23*
X113982500Y-74930000D03*
D24*
X118982500Y-71130001D03*
X113982500Y-69030000D03*
D16*
X91506521Y-110333723D03*
D17*
X92620521Y-109206723D03*
X96825521Y-109205883D03*
X97220521Y-109206723D03*
D18*
X94920521Y-111006723D03*
X94920521Y-107406723D03*
D17*
X93020521Y-109206723D03*
D19*
X94920521Y-110106723D03*
D20*
X91785521Y-105026723D03*
D21*
X91130526Y-105756727D02*
X92440516Y-104296719D01*
D20*
X97460521Y-103451723D03*
D21*
X97440750Y-103741739D02*
X97480292Y-103161707D01*
D22*
X100210521Y-108301723D03*
X89660521Y-108301723D03*
D23*
X94935521Y-108301723D03*
D24*
X99935521Y-104501724D03*
X94935521Y-102401723D03*
D16*
X91503500Y-91249500D03*
D17*
X92617500Y-90122500D03*
X96822500Y-90121660D03*
X97217500Y-90122500D03*
D18*
X94917500Y-91922500D03*
X94917500Y-88322500D03*
D17*
X93017500Y-90122500D03*
D19*
X94917500Y-91022500D03*
D20*
X91782500Y-85942500D03*
D21*
X91127505Y-86672504D02*
X92437495Y-85212496D01*
D20*
X97457500Y-84367500D03*
D21*
X97437729Y-84657516D02*
X97477271Y-84077484D01*
D22*
X100207500Y-89217500D03*
X89657500Y-89217500D03*
D23*
X94932500Y-89217500D03*
D24*
X99932500Y-85417501D03*
X94932500Y-83317500D03*
D16*
X91503500Y-72199500D03*
D17*
X92617500Y-71072500D03*
X96822500Y-71071660D03*
X97217500Y-71072500D03*
D18*
X94917500Y-72872500D03*
X94917500Y-69272500D03*
D17*
X93017500Y-71072500D03*
D19*
X94917500Y-71972500D03*
D20*
X91782500Y-66892500D03*
D21*
X91127505Y-67622504D02*
X92437495Y-66162496D01*
D20*
X97457500Y-65317500D03*
D21*
X97437729Y-65607516D02*
X97477271Y-65027484D01*
D22*
X100207500Y-70167500D03*
X89657500Y-70167500D03*
D23*
X94932500Y-70167500D03*
D24*
X99932500Y-66367501D03*
X94932500Y-64267500D03*
D31*
G36*
X124029564Y-58283923D02*
G01*
X124055701Y-58287800D01*
X124081332Y-58294220D01*
X124106211Y-58303121D01*
X124130097Y-58314419D01*
X124152760Y-58328003D01*
X124173983Y-58343743D01*
X124193562Y-58361487D01*
X124574339Y-58742264D01*
X124592083Y-58761843D01*
X124607823Y-58783066D01*
X124621407Y-58805729D01*
X124632705Y-58829615D01*
X124641606Y-58854494D01*
X124648026Y-58880125D01*
X124651903Y-58906262D01*
X124653200Y-58932653D01*
X124651903Y-58959044D01*
X124648026Y-58985181D01*
X124641606Y-59010812D01*
X124632705Y-59035691D01*
X124621407Y-59059577D01*
X124607823Y-59082240D01*
X124592083Y-59103463D01*
X124574339Y-59123042D01*
X123893042Y-59804339D01*
X123873463Y-59822083D01*
X123852240Y-59837823D01*
X123829577Y-59851407D01*
X123805691Y-59862705D01*
X123780812Y-59871606D01*
X123755181Y-59878026D01*
X123729044Y-59881903D01*
X123702653Y-59883200D01*
X123676262Y-59881903D01*
X123650125Y-59878026D01*
X123624494Y-59871606D01*
X123599615Y-59862705D01*
X123575729Y-59851407D01*
X123553066Y-59837823D01*
X123531843Y-59822083D01*
X123512264Y-59804339D01*
X123131487Y-59423562D01*
X123113743Y-59403983D01*
X123098003Y-59382760D01*
X123084419Y-59360097D01*
X123073121Y-59336211D01*
X123064220Y-59311332D01*
X123057800Y-59285701D01*
X123053923Y-59259564D01*
X123052626Y-59233173D01*
X123053923Y-59206782D01*
X123057800Y-59180645D01*
X123064220Y-59155014D01*
X123073121Y-59130135D01*
X123084419Y-59106249D01*
X123098003Y-59083586D01*
X123113743Y-59062363D01*
X123131487Y-59042784D01*
X123812784Y-58361487D01*
X123832363Y-58343743D01*
X123853586Y-58328003D01*
X123876249Y-58314419D01*
X123900135Y-58303121D01*
X123925014Y-58294220D01*
X123950645Y-58287800D01*
X123976782Y-58283923D01*
X124003173Y-58282626D01*
X124029564Y-58283923D01*
X124029564Y-58283923D01*
G37*
D32*
X123852913Y-59082913D03*
D31*
G36*
X122703738Y-56958097D02*
G01*
X122729875Y-56961974D01*
X122755506Y-56968394D01*
X122780385Y-56977295D01*
X122804271Y-56988593D01*
X122826934Y-57002177D01*
X122848157Y-57017917D01*
X122867736Y-57035661D01*
X123248513Y-57416438D01*
X123266257Y-57436017D01*
X123281997Y-57457240D01*
X123295581Y-57479903D01*
X123306879Y-57503789D01*
X123315780Y-57528668D01*
X123322200Y-57554299D01*
X123326077Y-57580436D01*
X123327374Y-57606827D01*
X123326077Y-57633218D01*
X123322200Y-57659355D01*
X123315780Y-57684986D01*
X123306879Y-57709865D01*
X123295581Y-57733751D01*
X123281997Y-57756414D01*
X123266257Y-57777637D01*
X123248513Y-57797216D01*
X122567216Y-58478513D01*
X122547637Y-58496257D01*
X122526414Y-58511997D01*
X122503751Y-58525581D01*
X122479865Y-58536879D01*
X122454986Y-58545780D01*
X122429355Y-58552200D01*
X122403218Y-58556077D01*
X122376827Y-58557374D01*
X122350436Y-58556077D01*
X122324299Y-58552200D01*
X122298668Y-58545780D01*
X122273789Y-58536879D01*
X122249903Y-58525581D01*
X122227240Y-58511997D01*
X122206017Y-58496257D01*
X122186438Y-58478513D01*
X121805661Y-58097736D01*
X121787917Y-58078157D01*
X121772177Y-58056934D01*
X121758593Y-58034271D01*
X121747295Y-58010385D01*
X121738394Y-57985506D01*
X121731974Y-57959875D01*
X121728097Y-57933738D01*
X121726800Y-57907347D01*
X121728097Y-57880956D01*
X121731974Y-57854819D01*
X121738394Y-57829188D01*
X121747295Y-57804309D01*
X121758593Y-57780423D01*
X121772177Y-57757760D01*
X121787917Y-57736537D01*
X121805661Y-57716958D01*
X122486958Y-57035661D01*
X122506537Y-57017917D01*
X122527760Y-57002177D01*
X122550423Y-56988593D01*
X122574309Y-56977295D01*
X122599188Y-56968394D01*
X122624819Y-56961974D01*
X122650956Y-56958097D01*
X122677347Y-56956800D01*
X122703738Y-56958097D01*
X122703738Y-56958097D01*
G37*
D32*
X122527087Y-57757087D03*
D31*
G36*
X108961457Y-68035010D02*
G01*
X108987594Y-68038887D01*
X109013225Y-68045307D01*
X109038104Y-68054208D01*
X109061990Y-68065506D01*
X109084653Y-68079090D01*
X109105876Y-68094830D01*
X109125455Y-68112574D01*
X109806752Y-68793871D01*
X109824496Y-68813450D01*
X109840236Y-68834673D01*
X109853820Y-68857336D01*
X109865118Y-68881222D01*
X109874019Y-68906101D01*
X109880439Y-68931732D01*
X109884316Y-68957869D01*
X109885613Y-68984260D01*
X109884316Y-69010651D01*
X109880439Y-69036788D01*
X109874019Y-69062419D01*
X109865118Y-69087298D01*
X109853820Y-69111184D01*
X109840236Y-69133847D01*
X109824496Y-69155070D01*
X109806752Y-69174649D01*
X109425975Y-69555426D01*
X109406396Y-69573170D01*
X109385173Y-69588910D01*
X109362510Y-69602494D01*
X109338624Y-69613792D01*
X109313745Y-69622693D01*
X109288114Y-69629113D01*
X109261977Y-69632990D01*
X109235586Y-69634287D01*
X109209195Y-69632990D01*
X109183058Y-69629113D01*
X109157427Y-69622693D01*
X109132548Y-69613792D01*
X109108662Y-69602494D01*
X109085999Y-69588910D01*
X109064776Y-69573170D01*
X109045197Y-69555426D01*
X108363900Y-68874129D01*
X108346156Y-68854550D01*
X108330416Y-68833327D01*
X108316832Y-68810664D01*
X108305534Y-68786778D01*
X108296633Y-68761899D01*
X108290213Y-68736268D01*
X108286336Y-68710131D01*
X108285039Y-68683740D01*
X108286336Y-68657349D01*
X108290213Y-68631212D01*
X108296633Y-68605581D01*
X108305534Y-68580702D01*
X108316832Y-68556816D01*
X108330416Y-68534153D01*
X108346156Y-68512930D01*
X108363900Y-68493351D01*
X108744677Y-68112574D01*
X108764256Y-68094830D01*
X108785479Y-68079090D01*
X108808142Y-68065506D01*
X108832028Y-68054208D01*
X108856907Y-68045307D01*
X108882538Y-68038887D01*
X108908675Y-68035010D01*
X108935066Y-68033713D01*
X108961457Y-68035010D01*
X108961457Y-68035010D01*
G37*
D32*
X109085326Y-68834000D03*
D31*
G36*
X107635631Y-69360836D02*
G01*
X107661768Y-69364713D01*
X107687399Y-69371133D01*
X107712278Y-69380034D01*
X107736164Y-69391332D01*
X107758827Y-69404916D01*
X107780050Y-69420656D01*
X107799629Y-69438400D01*
X108480926Y-70119697D01*
X108498670Y-70139276D01*
X108514410Y-70160499D01*
X108527994Y-70183162D01*
X108539292Y-70207048D01*
X108548193Y-70231927D01*
X108554613Y-70257558D01*
X108558490Y-70283695D01*
X108559787Y-70310086D01*
X108558490Y-70336477D01*
X108554613Y-70362614D01*
X108548193Y-70388245D01*
X108539292Y-70413124D01*
X108527994Y-70437010D01*
X108514410Y-70459673D01*
X108498670Y-70480896D01*
X108480926Y-70500475D01*
X108100149Y-70881252D01*
X108080570Y-70898996D01*
X108059347Y-70914736D01*
X108036684Y-70928320D01*
X108012798Y-70939618D01*
X107987919Y-70948519D01*
X107962288Y-70954939D01*
X107936151Y-70958816D01*
X107909760Y-70960113D01*
X107883369Y-70958816D01*
X107857232Y-70954939D01*
X107831601Y-70948519D01*
X107806722Y-70939618D01*
X107782836Y-70928320D01*
X107760173Y-70914736D01*
X107738950Y-70898996D01*
X107719371Y-70881252D01*
X107038074Y-70199955D01*
X107020330Y-70180376D01*
X107004590Y-70159153D01*
X106991006Y-70136490D01*
X106979708Y-70112604D01*
X106970807Y-70087725D01*
X106964387Y-70062094D01*
X106960510Y-70035957D01*
X106959213Y-70009566D01*
X106960510Y-69983175D01*
X106964387Y-69957038D01*
X106970807Y-69931407D01*
X106979708Y-69906528D01*
X106991006Y-69882642D01*
X107004590Y-69859979D01*
X107020330Y-69838756D01*
X107038074Y-69819177D01*
X107418851Y-69438400D01*
X107438430Y-69420656D01*
X107459653Y-69404916D01*
X107482316Y-69391332D01*
X107506202Y-69380034D01*
X107531081Y-69371133D01*
X107556712Y-69364713D01*
X107582849Y-69360836D01*
X107609240Y-69359539D01*
X107635631Y-69360836D01*
X107635631Y-69360836D01*
G37*
D32*
X107759500Y-70159826D03*
D33*
X133858000Y-126081250D03*
X133858000Y-129381250D03*
X125412500Y-107093750D03*
X125412500Y-110393750D03*
X128587500Y-107031250D03*
X128587500Y-110331250D03*
X130302000Y-126143750D03*
X130302000Y-129443750D03*
X137160000Y-126081250D03*
X137160000Y-129381250D03*
X141287500Y-107031250D03*
X141287500Y-110331250D03*
X138112500Y-107031250D03*
X138112500Y-110331250D03*
X140493750Y-126081250D03*
X140493750Y-129381250D03*
D31*
G36*
X104722305Y-68697923D02*
G01*
X104748442Y-68701800D01*
X104774073Y-68708220D01*
X104798952Y-68717121D01*
X104822838Y-68728419D01*
X104845501Y-68742003D01*
X104866724Y-68757743D01*
X104886303Y-68775487D01*
X105567600Y-69456784D01*
X105585344Y-69476363D01*
X105601084Y-69497586D01*
X105614668Y-69520249D01*
X105625966Y-69544135D01*
X105634867Y-69569014D01*
X105641287Y-69594645D01*
X105645164Y-69620782D01*
X105646461Y-69647173D01*
X105645164Y-69673564D01*
X105641287Y-69699701D01*
X105634867Y-69725332D01*
X105625966Y-69750211D01*
X105614668Y-69774097D01*
X105601084Y-69796760D01*
X105585344Y-69817983D01*
X105567600Y-69837562D01*
X105186823Y-70218339D01*
X105167244Y-70236083D01*
X105146021Y-70251823D01*
X105123358Y-70265407D01*
X105099472Y-70276705D01*
X105074593Y-70285606D01*
X105048962Y-70292026D01*
X105022825Y-70295903D01*
X104996434Y-70297200D01*
X104970043Y-70295903D01*
X104943906Y-70292026D01*
X104918275Y-70285606D01*
X104893396Y-70276705D01*
X104869510Y-70265407D01*
X104846847Y-70251823D01*
X104825624Y-70236083D01*
X104806045Y-70218339D01*
X104124748Y-69537042D01*
X104107004Y-69517463D01*
X104091264Y-69496240D01*
X104077680Y-69473577D01*
X104066382Y-69449691D01*
X104057481Y-69424812D01*
X104051061Y-69399181D01*
X104047184Y-69373044D01*
X104045887Y-69346653D01*
X104047184Y-69320262D01*
X104051061Y-69294125D01*
X104057481Y-69268494D01*
X104066382Y-69243615D01*
X104077680Y-69219729D01*
X104091264Y-69197066D01*
X104107004Y-69175843D01*
X104124748Y-69156264D01*
X104505525Y-68775487D01*
X104525104Y-68757743D01*
X104546327Y-68742003D01*
X104568990Y-68728419D01*
X104592876Y-68717121D01*
X104617755Y-68708220D01*
X104643386Y-68701800D01*
X104669523Y-68697923D01*
X104695914Y-68696626D01*
X104722305Y-68697923D01*
X104722305Y-68697923D01*
G37*
D32*
X104846174Y-69496913D03*
D31*
G36*
X106048131Y-67372097D02*
G01*
X106074268Y-67375974D01*
X106099899Y-67382394D01*
X106124778Y-67391295D01*
X106148664Y-67402593D01*
X106171327Y-67416177D01*
X106192550Y-67431917D01*
X106212129Y-67449661D01*
X106893426Y-68130958D01*
X106911170Y-68150537D01*
X106926910Y-68171760D01*
X106940494Y-68194423D01*
X106951792Y-68218309D01*
X106960693Y-68243188D01*
X106967113Y-68268819D01*
X106970990Y-68294956D01*
X106972287Y-68321347D01*
X106970990Y-68347738D01*
X106967113Y-68373875D01*
X106960693Y-68399506D01*
X106951792Y-68424385D01*
X106940494Y-68448271D01*
X106926910Y-68470934D01*
X106911170Y-68492157D01*
X106893426Y-68511736D01*
X106512649Y-68892513D01*
X106493070Y-68910257D01*
X106471847Y-68925997D01*
X106449184Y-68939581D01*
X106425298Y-68950879D01*
X106400419Y-68959780D01*
X106374788Y-68966200D01*
X106348651Y-68970077D01*
X106322260Y-68971374D01*
X106295869Y-68970077D01*
X106269732Y-68966200D01*
X106244101Y-68959780D01*
X106219222Y-68950879D01*
X106195336Y-68939581D01*
X106172673Y-68925997D01*
X106151450Y-68910257D01*
X106131871Y-68892513D01*
X105450574Y-68211216D01*
X105432830Y-68191637D01*
X105417090Y-68170414D01*
X105403506Y-68147751D01*
X105392208Y-68123865D01*
X105383307Y-68098986D01*
X105376887Y-68073355D01*
X105373010Y-68047218D01*
X105371713Y-68020827D01*
X105373010Y-67994436D01*
X105376887Y-67968299D01*
X105383307Y-67942668D01*
X105392208Y-67917789D01*
X105403506Y-67893903D01*
X105417090Y-67871240D01*
X105432830Y-67850017D01*
X105450574Y-67830438D01*
X105831351Y-67449661D01*
X105850930Y-67431917D01*
X105872153Y-67416177D01*
X105894816Y-67402593D01*
X105918702Y-67391295D01*
X105943581Y-67382394D01*
X105969212Y-67375974D01*
X105995349Y-67372097D01*
X106021740Y-67370800D01*
X106048131Y-67372097D01*
X106048131Y-67372097D01*
G37*
D32*
X106172000Y-68171087D03*
D31*
G36*
X116263957Y-48929184D02*
G01*
X116290094Y-48933061D01*
X116315725Y-48939481D01*
X116340604Y-48948382D01*
X116364490Y-48959680D01*
X116387153Y-48973264D01*
X116408376Y-48989004D01*
X116427955Y-49006748D01*
X117109252Y-49688045D01*
X117126996Y-49707624D01*
X117142736Y-49728847D01*
X117156320Y-49751510D01*
X117167618Y-49775396D01*
X117176519Y-49800275D01*
X117182939Y-49825906D01*
X117186816Y-49852043D01*
X117188113Y-49878434D01*
X117186816Y-49904825D01*
X117182939Y-49930962D01*
X117176519Y-49956593D01*
X117167618Y-49981472D01*
X117156320Y-50005358D01*
X117142736Y-50028021D01*
X117126996Y-50049244D01*
X117109252Y-50068823D01*
X116728475Y-50449600D01*
X116708896Y-50467344D01*
X116687673Y-50483084D01*
X116665010Y-50496668D01*
X116641124Y-50507966D01*
X116616245Y-50516867D01*
X116590614Y-50523287D01*
X116564477Y-50527164D01*
X116538086Y-50528461D01*
X116511695Y-50527164D01*
X116485558Y-50523287D01*
X116459927Y-50516867D01*
X116435048Y-50507966D01*
X116411162Y-50496668D01*
X116388499Y-50483084D01*
X116367276Y-50467344D01*
X116347697Y-50449600D01*
X115666400Y-49768303D01*
X115648656Y-49748724D01*
X115632916Y-49727501D01*
X115619332Y-49704838D01*
X115608034Y-49680952D01*
X115599133Y-49656073D01*
X115592713Y-49630442D01*
X115588836Y-49604305D01*
X115587539Y-49577914D01*
X115588836Y-49551523D01*
X115592713Y-49525386D01*
X115599133Y-49499755D01*
X115608034Y-49474876D01*
X115619332Y-49450990D01*
X115632916Y-49428327D01*
X115648656Y-49407104D01*
X115666400Y-49387525D01*
X116047177Y-49006748D01*
X116066756Y-48989004D01*
X116087979Y-48973264D01*
X116110642Y-48959680D01*
X116134528Y-48948382D01*
X116159407Y-48939481D01*
X116185038Y-48933061D01*
X116211175Y-48929184D01*
X116237566Y-48927887D01*
X116263957Y-48929184D01*
X116263957Y-48929184D01*
G37*
D32*
X116387826Y-49728174D03*
D31*
G36*
X114938131Y-50255010D02*
G01*
X114964268Y-50258887D01*
X114989899Y-50265307D01*
X115014778Y-50274208D01*
X115038664Y-50285506D01*
X115061327Y-50299090D01*
X115082550Y-50314830D01*
X115102129Y-50332574D01*
X115783426Y-51013871D01*
X115801170Y-51033450D01*
X115816910Y-51054673D01*
X115830494Y-51077336D01*
X115841792Y-51101222D01*
X115850693Y-51126101D01*
X115857113Y-51151732D01*
X115860990Y-51177869D01*
X115862287Y-51204260D01*
X115860990Y-51230651D01*
X115857113Y-51256788D01*
X115850693Y-51282419D01*
X115841792Y-51307298D01*
X115830494Y-51331184D01*
X115816910Y-51353847D01*
X115801170Y-51375070D01*
X115783426Y-51394649D01*
X115402649Y-51775426D01*
X115383070Y-51793170D01*
X115361847Y-51808910D01*
X115339184Y-51822494D01*
X115315298Y-51833792D01*
X115290419Y-51842693D01*
X115264788Y-51849113D01*
X115238651Y-51852990D01*
X115212260Y-51854287D01*
X115185869Y-51852990D01*
X115159732Y-51849113D01*
X115134101Y-51842693D01*
X115109222Y-51833792D01*
X115085336Y-51822494D01*
X115062673Y-51808910D01*
X115041450Y-51793170D01*
X115021871Y-51775426D01*
X114340574Y-51094129D01*
X114322830Y-51074550D01*
X114307090Y-51053327D01*
X114293506Y-51030664D01*
X114282208Y-51006778D01*
X114273307Y-50981899D01*
X114266887Y-50956268D01*
X114263010Y-50930131D01*
X114261713Y-50903740D01*
X114263010Y-50877349D01*
X114266887Y-50851212D01*
X114273307Y-50825581D01*
X114282208Y-50800702D01*
X114293506Y-50776816D01*
X114307090Y-50754153D01*
X114322830Y-50732930D01*
X114340574Y-50713351D01*
X114721351Y-50332574D01*
X114740930Y-50314830D01*
X114762153Y-50299090D01*
X114784816Y-50285506D01*
X114808702Y-50274208D01*
X114833581Y-50265307D01*
X114859212Y-50258887D01*
X114885349Y-50255010D01*
X114911740Y-50253713D01*
X114938131Y-50255010D01*
X114938131Y-50255010D01*
G37*
D32*
X115062000Y-51054000D03*
D31*
G36*
X101832477Y-62955010D02*
G01*
X101858614Y-62958887D01*
X101884245Y-62965307D01*
X101909124Y-62974208D01*
X101933010Y-62985506D01*
X101955673Y-62999090D01*
X101976896Y-63014830D01*
X101996475Y-63032574D01*
X102377252Y-63413351D01*
X102394996Y-63432930D01*
X102410736Y-63454153D01*
X102424320Y-63476816D01*
X102435618Y-63500702D01*
X102444519Y-63525581D01*
X102450939Y-63551212D01*
X102454816Y-63577349D01*
X102456113Y-63603740D01*
X102454816Y-63630131D01*
X102450939Y-63656268D01*
X102444519Y-63681899D01*
X102435618Y-63706778D01*
X102424320Y-63730664D01*
X102410736Y-63753327D01*
X102394996Y-63774550D01*
X102377252Y-63794129D01*
X101695955Y-64475426D01*
X101676376Y-64493170D01*
X101655153Y-64508910D01*
X101632490Y-64522494D01*
X101608604Y-64533792D01*
X101583725Y-64542693D01*
X101558094Y-64549113D01*
X101531957Y-64552990D01*
X101505566Y-64554287D01*
X101479175Y-64552990D01*
X101453038Y-64549113D01*
X101427407Y-64542693D01*
X101402528Y-64533792D01*
X101378642Y-64522494D01*
X101355979Y-64508910D01*
X101334756Y-64493170D01*
X101315177Y-64475426D01*
X100934400Y-64094649D01*
X100916656Y-64075070D01*
X100900916Y-64053847D01*
X100887332Y-64031184D01*
X100876034Y-64007298D01*
X100867133Y-63982419D01*
X100860713Y-63956788D01*
X100856836Y-63930651D01*
X100855539Y-63904260D01*
X100856836Y-63877869D01*
X100860713Y-63851732D01*
X100867133Y-63826101D01*
X100876034Y-63801222D01*
X100887332Y-63777336D01*
X100900916Y-63754673D01*
X100916656Y-63733450D01*
X100934400Y-63713871D01*
X101615697Y-63032574D01*
X101635276Y-63014830D01*
X101656499Y-62999090D01*
X101679162Y-62985506D01*
X101703048Y-62974208D01*
X101727927Y-62965307D01*
X101753558Y-62958887D01*
X101779695Y-62955010D01*
X101806086Y-62953713D01*
X101832477Y-62955010D01*
X101832477Y-62955010D01*
G37*
D32*
X101655826Y-63754000D03*
D31*
G36*
X100506651Y-61629184D02*
G01*
X100532788Y-61633061D01*
X100558419Y-61639481D01*
X100583298Y-61648382D01*
X100607184Y-61659680D01*
X100629847Y-61673264D01*
X100651070Y-61689004D01*
X100670649Y-61706748D01*
X101051426Y-62087525D01*
X101069170Y-62107104D01*
X101084910Y-62128327D01*
X101098494Y-62150990D01*
X101109792Y-62174876D01*
X101118693Y-62199755D01*
X101125113Y-62225386D01*
X101128990Y-62251523D01*
X101130287Y-62277914D01*
X101128990Y-62304305D01*
X101125113Y-62330442D01*
X101118693Y-62356073D01*
X101109792Y-62380952D01*
X101098494Y-62404838D01*
X101084910Y-62427501D01*
X101069170Y-62448724D01*
X101051426Y-62468303D01*
X100370129Y-63149600D01*
X100350550Y-63167344D01*
X100329327Y-63183084D01*
X100306664Y-63196668D01*
X100282778Y-63207966D01*
X100257899Y-63216867D01*
X100232268Y-63223287D01*
X100206131Y-63227164D01*
X100179740Y-63228461D01*
X100153349Y-63227164D01*
X100127212Y-63223287D01*
X100101581Y-63216867D01*
X100076702Y-63207966D01*
X100052816Y-63196668D01*
X100030153Y-63183084D01*
X100008930Y-63167344D01*
X99989351Y-63149600D01*
X99608574Y-62768823D01*
X99590830Y-62749244D01*
X99575090Y-62728021D01*
X99561506Y-62705358D01*
X99550208Y-62681472D01*
X99541307Y-62656593D01*
X99534887Y-62630962D01*
X99531010Y-62604825D01*
X99529713Y-62578434D01*
X99531010Y-62552043D01*
X99534887Y-62525906D01*
X99541307Y-62500275D01*
X99550208Y-62475396D01*
X99561506Y-62451510D01*
X99575090Y-62428847D01*
X99590830Y-62407624D01*
X99608574Y-62388045D01*
X100289871Y-61706748D01*
X100309450Y-61689004D01*
X100330673Y-61673264D01*
X100353336Y-61659680D01*
X100377222Y-61648382D01*
X100402101Y-61639481D01*
X100427732Y-61633061D01*
X100453869Y-61629184D01*
X100480260Y-61627887D01*
X100506651Y-61629184D01*
X100506651Y-61629184D01*
G37*
D32*
X100330000Y-62428174D03*
D31*
G36*
X99657075Y-55025184D02*
G01*
X99683212Y-55029061D01*
X99708843Y-55035481D01*
X99733722Y-55044382D01*
X99757608Y-55055680D01*
X99780271Y-55069264D01*
X99801494Y-55085004D01*
X99821073Y-55102748D01*
X100201850Y-55483525D01*
X100219594Y-55503104D01*
X100235334Y-55524327D01*
X100248918Y-55546990D01*
X100260216Y-55570876D01*
X100269117Y-55595755D01*
X100275537Y-55621386D01*
X100279414Y-55647523D01*
X100280711Y-55673914D01*
X100279414Y-55700305D01*
X100275537Y-55726442D01*
X100269117Y-55752073D01*
X100260216Y-55776952D01*
X100248918Y-55800838D01*
X100235334Y-55823501D01*
X100219594Y-55844724D01*
X100201850Y-55864303D01*
X99520553Y-56545600D01*
X99500974Y-56563344D01*
X99479751Y-56579084D01*
X99457088Y-56592668D01*
X99433202Y-56603966D01*
X99408323Y-56612867D01*
X99382692Y-56619287D01*
X99356555Y-56623164D01*
X99330164Y-56624461D01*
X99303773Y-56623164D01*
X99277636Y-56619287D01*
X99252005Y-56612867D01*
X99227126Y-56603966D01*
X99203240Y-56592668D01*
X99180577Y-56579084D01*
X99159354Y-56563344D01*
X99139775Y-56545600D01*
X98758998Y-56164823D01*
X98741254Y-56145244D01*
X98725514Y-56124021D01*
X98711930Y-56101358D01*
X98700632Y-56077472D01*
X98691731Y-56052593D01*
X98685311Y-56026962D01*
X98681434Y-56000825D01*
X98680137Y-55974434D01*
X98681434Y-55948043D01*
X98685311Y-55921906D01*
X98691731Y-55896275D01*
X98700632Y-55871396D01*
X98711930Y-55847510D01*
X98725514Y-55824847D01*
X98741254Y-55803624D01*
X98758998Y-55784045D01*
X99440295Y-55102748D01*
X99459874Y-55085004D01*
X99481097Y-55069264D01*
X99503760Y-55055680D01*
X99527646Y-55044382D01*
X99552525Y-55035481D01*
X99578156Y-55029061D01*
X99604293Y-55025184D01*
X99630684Y-55023887D01*
X99657075Y-55025184D01*
X99657075Y-55025184D01*
G37*
D32*
X99480424Y-55824174D03*
D31*
G36*
X100982901Y-56351010D02*
G01*
X101009038Y-56354887D01*
X101034669Y-56361307D01*
X101059548Y-56370208D01*
X101083434Y-56381506D01*
X101106097Y-56395090D01*
X101127320Y-56410830D01*
X101146899Y-56428574D01*
X101527676Y-56809351D01*
X101545420Y-56828930D01*
X101561160Y-56850153D01*
X101574744Y-56872816D01*
X101586042Y-56896702D01*
X101594943Y-56921581D01*
X101601363Y-56947212D01*
X101605240Y-56973349D01*
X101606537Y-56999740D01*
X101605240Y-57026131D01*
X101601363Y-57052268D01*
X101594943Y-57077899D01*
X101586042Y-57102778D01*
X101574744Y-57126664D01*
X101561160Y-57149327D01*
X101545420Y-57170550D01*
X101527676Y-57190129D01*
X100846379Y-57871426D01*
X100826800Y-57889170D01*
X100805577Y-57904910D01*
X100782914Y-57918494D01*
X100759028Y-57929792D01*
X100734149Y-57938693D01*
X100708518Y-57945113D01*
X100682381Y-57948990D01*
X100655990Y-57950287D01*
X100629599Y-57948990D01*
X100603462Y-57945113D01*
X100577831Y-57938693D01*
X100552952Y-57929792D01*
X100529066Y-57918494D01*
X100506403Y-57904910D01*
X100485180Y-57889170D01*
X100465601Y-57871426D01*
X100084824Y-57490649D01*
X100067080Y-57471070D01*
X100051340Y-57449847D01*
X100037756Y-57427184D01*
X100026458Y-57403298D01*
X100017557Y-57378419D01*
X100011137Y-57352788D01*
X100007260Y-57326651D01*
X100005963Y-57300260D01*
X100007260Y-57273869D01*
X100011137Y-57247732D01*
X100017557Y-57222101D01*
X100026458Y-57197222D01*
X100037756Y-57173336D01*
X100051340Y-57150673D01*
X100067080Y-57129450D01*
X100084824Y-57109871D01*
X100766121Y-56428574D01*
X100785700Y-56410830D01*
X100806923Y-56395090D01*
X100829586Y-56381506D01*
X100853472Y-56370208D01*
X100878351Y-56361307D01*
X100903982Y-56354887D01*
X100930119Y-56351010D01*
X100956510Y-56349713D01*
X100982901Y-56351010D01*
X100982901Y-56351010D01*
G37*
D32*
X100806250Y-57150000D03*
D31*
G36*
X149808141Y-52431547D02*
G01*
X149834278Y-52435424D01*
X149859909Y-52441844D01*
X149884788Y-52450745D01*
X149908674Y-52462043D01*
X149931337Y-52475627D01*
X149952560Y-52491367D01*
X149972139Y-52509111D01*
X149989883Y-52528690D01*
X150005623Y-52549913D01*
X150019207Y-52572576D01*
X150030505Y-52596462D01*
X150039406Y-52621341D01*
X150045826Y-52646972D01*
X150049703Y-52673109D01*
X150051000Y-52699500D01*
X150051000Y-53663000D01*
X150049703Y-53689391D01*
X150045826Y-53715528D01*
X150039406Y-53741159D01*
X150030505Y-53766038D01*
X150019207Y-53789924D01*
X150005623Y-53812587D01*
X149989883Y-53833810D01*
X149972139Y-53853389D01*
X149952560Y-53871133D01*
X149931337Y-53886873D01*
X149908674Y-53900457D01*
X149884788Y-53911755D01*
X149859909Y-53920656D01*
X149834278Y-53927076D01*
X149808141Y-53930953D01*
X149781750Y-53932250D01*
X149243250Y-53932250D01*
X149216859Y-53930953D01*
X149190722Y-53927076D01*
X149165091Y-53920656D01*
X149140212Y-53911755D01*
X149116326Y-53900457D01*
X149093663Y-53886873D01*
X149072440Y-53871133D01*
X149052861Y-53853389D01*
X149035117Y-53833810D01*
X149019377Y-53812587D01*
X149005793Y-53789924D01*
X148994495Y-53766038D01*
X148985594Y-53741159D01*
X148979174Y-53715528D01*
X148975297Y-53689391D01*
X148974000Y-53663000D01*
X148974000Y-52699500D01*
X148975297Y-52673109D01*
X148979174Y-52646972D01*
X148985594Y-52621341D01*
X148994495Y-52596462D01*
X149005793Y-52572576D01*
X149019377Y-52549913D01*
X149035117Y-52528690D01*
X149052861Y-52509111D01*
X149072440Y-52491367D01*
X149093663Y-52475627D01*
X149116326Y-52462043D01*
X149140212Y-52450745D01*
X149165091Y-52441844D01*
X149190722Y-52435424D01*
X149216859Y-52431547D01*
X149243250Y-52430250D01*
X149781750Y-52430250D01*
X149808141Y-52431547D01*
X149808141Y-52431547D01*
G37*
D32*
X149512500Y-53181250D03*
D31*
G36*
X147933141Y-52431547D02*
G01*
X147959278Y-52435424D01*
X147984909Y-52441844D01*
X148009788Y-52450745D01*
X148033674Y-52462043D01*
X148056337Y-52475627D01*
X148077560Y-52491367D01*
X148097139Y-52509111D01*
X148114883Y-52528690D01*
X148130623Y-52549913D01*
X148144207Y-52572576D01*
X148155505Y-52596462D01*
X148164406Y-52621341D01*
X148170826Y-52646972D01*
X148174703Y-52673109D01*
X148176000Y-52699500D01*
X148176000Y-53663000D01*
X148174703Y-53689391D01*
X148170826Y-53715528D01*
X148164406Y-53741159D01*
X148155505Y-53766038D01*
X148144207Y-53789924D01*
X148130623Y-53812587D01*
X148114883Y-53833810D01*
X148097139Y-53853389D01*
X148077560Y-53871133D01*
X148056337Y-53886873D01*
X148033674Y-53900457D01*
X148009788Y-53911755D01*
X147984909Y-53920656D01*
X147959278Y-53927076D01*
X147933141Y-53930953D01*
X147906750Y-53932250D01*
X147368250Y-53932250D01*
X147341859Y-53930953D01*
X147315722Y-53927076D01*
X147290091Y-53920656D01*
X147265212Y-53911755D01*
X147241326Y-53900457D01*
X147218663Y-53886873D01*
X147197440Y-53871133D01*
X147177861Y-53853389D01*
X147160117Y-53833810D01*
X147144377Y-53812587D01*
X147130793Y-53789924D01*
X147119495Y-53766038D01*
X147110594Y-53741159D01*
X147104174Y-53715528D01*
X147100297Y-53689391D01*
X147099000Y-53663000D01*
X147099000Y-52699500D01*
X147100297Y-52673109D01*
X147104174Y-52646972D01*
X147110594Y-52621341D01*
X147119495Y-52596462D01*
X147130793Y-52572576D01*
X147144377Y-52549913D01*
X147160117Y-52528690D01*
X147177861Y-52509111D01*
X147197440Y-52491367D01*
X147218663Y-52475627D01*
X147241326Y-52462043D01*
X147265212Y-52450745D01*
X147290091Y-52441844D01*
X147315722Y-52435424D01*
X147341859Y-52431547D01*
X147368250Y-52430250D01*
X147906750Y-52430250D01*
X147933141Y-52431547D01*
X147933141Y-52431547D01*
G37*
D32*
X147637500Y-53181250D03*
D34*
X120268478Y-54682132D03*
X123168478Y-54682132D03*
X123168478Y-52382132D03*
X120268478Y-52382132D03*
D35*
X103990202Y-60338962D03*
D31*
G36*
X104326078Y-59542053D02*
G01*
X104787111Y-60003086D01*
X103654326Y-61135871D01*
X103193293Y-60674838D01*
X104326078Y-59542053D01*
X104326078Y-59542053D01*
G37*
D35*
X104555888Y-60904647D03*
D31*
G36*
X104891764Y-60107738D02*
G01*
X105352797Y-60568771D01*
X104220012Y-61701556D01*
X103758979Y-61240523D01*
X104891764Y-60107738D01*
X104891764Y-60107738D01*
G37*
D35*
X105121573Y-61470332D03*
D31*
G36*
X105457449Y-60673423D02*
G01*
X105918482Y-61134456D01*
X104785697Y-62267241D01*
X104324664Y-61806208D01*
X105457449Y-60673423D01*
X105457449Y-60673423D01*
G37*
D35*
X105687258Y-62036018D03*
D31*
G36*
X106023134Y-61239109D02*
G01*
X106484167Y-61700142D01*
X105351382Y-62832927D01*
X104890349Y-62371894D01*
X106023134Y-61239109D01*
X106023134Y-61239109D01*
G37*
D35*
X106252944Y-62601703D03*
D31*
G36*
X106588820Y-61804794D02*
G01*
X107049853Y-62265827D01*
X105917068Y-63398612D01*
X105456035Y-62937579D01*
X106588820Y-61804794D01*
X106588820Y-61804794D01*
G37*
D35*
X106818629Y-63167389D03*
D31*
G36*
X107154505Y-62370480D02*
G01*
X107615538Y-62831513D01*
X106482753Y-63964298D01*
X106021720Y-63503265D01*
X107154505Y-62370480D01*
X107154505Y-62370480D01*
G37*
D35*
X107384315Y-63733074D03*
D31*
G36*
X107720191Y-62936165D02*
G01*
X108181224Y-63397198D01*
X107048439Y-64529983D01*
X106587406Y-64068950D01*
X107720191Y-62936165D01*
X107720191Y-62936165D01*
G37*
D35*
X107950000Y-64298760D03*
D31*
G36*
X108285876Y-63501851D02*
G01*
X108746909Y-63962884D01*
X107614124Y-65095669D01*
X107153091Y-64634636D01*
X108285876Y-63501851D01*
X108285876Y-63501851D01*
G37*
D35*
X108515686Y-64864445D03*
D31*
G36*
X108851562Y-64067536D02*
G01*
X109312595Y-64528569D01*
X108179810Y-65661354D01*
X107718777Y-65200321D01*
X108851562Y-64067536D01*
X108851562Y-64067536D01*
G37*
D35*
X109081371Y-65430130D03*
D31*
G36*
X109417247Y-64633221D02*
G01*
X109878280Y-65094254D01*
X108745495Y-66227039D01*
X108284462Y-65766006D01*
X109417247Y-64633221D01*
X109417247Y-64633221D01*
G37*
D35*
X109647056Y-65995816D03*
D31*
G36*
X109982932Y-65198907D02*
G01*
X110443965Y-65659940D01*
X109311180Y-66792725D01*
X108850147Y-66331692D01*
X109982932Y-65198907D01*
X109982932Y-65198907D01*
G37*
D35*
X112051220Y-65995816D03*
D31*
G36*
X111254311Y-65659940D02*
G01*
X111715344Y-65198907D01*
X112848129Y-66331692D01*
X112387096Y-66792725D01*
X111254311Y-65659940D01*
X111254311Y-65659940D01*
G37*
D35*
X112616905Y-65430130D03*
D31*
G36*
X111819996Y-65094254D02*
G01*
X112281029Y-64633221D01*
X113413814Y-65766006D01*
X112952781Y-66227039D01*
X111819996Y-65094254D01*
X111819996Y-65094254D01*
G37*
D35*
X113182590Y-64864445D03*
D31*
G36*
X112385681Y-64528569D02*
G01*
X112846714Y-64067536D01*
X113979499Y-65200321D01*
X113518466Y-65661354D01*
X112385681Y-64528569D01*
X112385681Y-64528569D01*
G37*
D35*
X113748276Y-64298760D03*
D31*
G36*
X112951367Y-63962884D02*
G01*
X113412400Y-63501851D01*
X114545185Y-64634636D01*
X114084152Y-65095669D01*
X112951367Y-63962884D01*
X112951367Y-63962884D01*
G37*
D35*
X114313961Y-63733074D03*
D31*
G36*
X113517052Y-63397198D02*
G01*
X113978085Y-62936165D01*
X115110870Y-64068950D01*
X114649837Y-64529983D01*
X113517052Y-63397198D01*
X113517052Y-63397198D01*
G37*
D35*
X114879647Y-63167389D03*
D31*
G36*
X114082738Y-62831513D02*
G01*
X114543771Y-62370480D01*
X115676556Y-63503265D01*
X115215523Y-63964298D01*
X114082738Y-62831513D01*
X114082738Y-62831513D01*
G37*
D35*
X115445332Y-62601703D03*
D31*
G36*
X114648423Y-62265827D02*
G01*
X115109456Y-61804794D01*
X116242241Y-62937579D01*
X115781208Y-63398612D01*
X114648423Y-62265827D01*
X114648423Y-62265827D01*
G37*
D35*
X116011018Y-62036018D03*
D31*
G36*
X115214109Y-61700142D02*
G01*
X115675142Y-61239109D01*
X116807927Y-62371894D01*
X116346894Y-62832927D01*
X115214109Y-61700142D01*
X115214109Y-61700142D01*
G37*
D35*
X116576703Y-61470332D03*
D31*
G36*
X115779794Y-61134456D02*
G01*
X116240827Y-60673423D01*
X117373612Y-61806208D01*
X116912579Y-62267241D01*
X115779794Y-61134456D01*
X115779794Y-61134456D01*
G37*
D35*
X117142388Y-60904647D03*
D31*
G36*
X116345479Y-60568771D02*
G01*
X116806512Y-60107738D01*
X117939297Y-61240523D01*
X117478264Y-61701556D01*
X116345479Y-60568771D01*
X116345479Y-60568771D01*
G37*
D35*
X117708074Y-60338962D03*
D31*
G36*
X116911165Y-60003086D02*
G01*
X117372198Y-59542053D01*
X118504983Y-60674838D01*
X118043950Y-61135871D01*
X116911165Y-60003086D01*
X116911165Y-60003086D01*
G37*
D35*
X117708074Y-57934798D03*
D31*
G36*
X118043950Y-57137889D02*
G01*
X118504983Y-57598922D01*
X117372198Y-58731707D01*
X116911165Y-58270674D01*
X118043950Y-57137889D01*
X118043950Y-57137889D01*
G37*
D35*
X117142388Y-57369113D03*
D31*
G36*
X117478264Y-56572204D02*
G01*
X117939297Y-57033237D01*
X116806512Y-58166022D01*
X116345479Y-57704989D01*
X117478264Y-56572204D01*
X117478264Y-56572204D01*
G37*
D35*
X116576703Y-56803428D03*
D31*
G36*
X116912579Y-56006519D02*
G01*
X117373612Y-56467552D01*
X116240827Y-57600337D01*
X115779794Y-57139304D01*
X116912579Y-56006519D01*
X116912579Y-56006519D01*
G37*
D35*
X116011018Y-56237742D03*
D31*
G36*
X116346894Y-55440833D02*
G01*
X116807927Y-55901866D01*
X115675142Y-57034651D01*
X115214109Y-56573618D01*
X116346894Y-55440833D01*
X116346894Y-55440833D01*
G37*
D35*
X115445332Y-55672057D03*
D31*
G36*
X115781208Y-54875148D02*
G01*
X116242241Y-55336181D01*
X115109456Y-56468966D01*
X114648423Y-56007933D01*
X115781208Y-54875148D01*
X115781208Y-54875148D01*
G37*
D35*
X114879647Y-55106371D03*
D31*
G36*
X115215523Y-54309462D02*
G01*
X115676556Y-54770495D01*
X114543771Y-55903280D01*
X114082738Y-55442247D01*
X115215523Y-54309462D01*
X115215523Y-54309462D01*
G37*
D35*
X114313961Y-54540686D03*
D31*
G36*
X114649837Y-53743777D02*
G01*
X115110870Y-54204810D01*
X113978085Y-55337595D01*
X113517052Y-54876562D01*
X114649837Y-53743777D01*
X114649837Y-53743777D01*
G37*
D35*
X113748276Y-53975000D03*
D31*
G36*
X114084152Y-53178091D02*
G01*
X114545185Y-53639124D01*
X113412400Y-54771909D01*
X112951367Y-54310876D01*
X114084152Y-53178091D01*
X114084152Y-53178091D01*
G37*
D35*
X113182590Y-53409315D03*
D31*
G36*
X113518466Y-52612406D02*
G01*
X113979499Y-53073439D01*
X112846714Y-54206224D01*
X112385681Y-53745191D01*
X113518466Y-52612406D01*
X113518466Y-52612406D01*
G37*
D35*
X112616905Y-52843630D03*
D31*
G36*
X112952781Y-52046721D02*
G01*
X113413814Y-52507754D01*
X112281029Y-53640539D01*
X111819996Y-53179506D01*
X112952781Y-52046721D01*
X112952781Y-52046721D01*
G37*
D35*
X112051220Y-52277944D03*
D31*
G36*
X112387096Y-51481035D02*
G01*
X112848129Y-51942068D01*
X111715344Y-53074853D01*
X111254311Y-52613820D01*
X112387096Y-51481035D01*
X112387096Y-51481035D01*
G37*
D35*
X109647056Y-52277944D03*
D31*
G36*
X108850147Y-51942068D02*
G01*
X109311180Y-51481035D01*
X110443965Y-52613820D01*
X109982932Y-53074853D01*
X108850147Y-51942068D01*
X108850147Y-51942068D01*
G37*
D35*
X109081371Y-52843630D03*
D31*
G36*
X108284462Y-52507754D02*
G01*
X108745495Y-52046721D01*
X109878280Y-53179506D01*
X109417247Y-53640539D01*
X108284462Y-52507754D01*
X108284462Y-52507754D01*
G37*
D35*
X108515686Y-53409315D03*
D31*
G36*
X107718777Y-53073439D02*
G01*
X108179810Y-52612406D01*
X109312595Y-53745191D01*
X108851562Y-54206224D01*
X107718777Y-53073439D01*
X107718777Y-53073439D01*
G37*
D35*
X107950000Y-53975000D03*
D31*
G36*
X107153091Y-53639124D02*
G01*
X107614124Y-53178091D01*
X108746909Y-54310876D01*
X108285876Y-54771909D01*
X107153091Y-53639124D01*
X107153091Y-53639124D01*
G37*
D35*
X107384315Y-54540686D03*
D31*
G36*
X106587406Y-54204810D02*
G01*
X107048439Y-53743777D01*
X108181224Y-54876562D01*
X107720191Y-55337595D01*
X106587406Y-54204810D01*
X106587406Y-54204810D01*
G37*
D35*
X106818629Y-55106371D03*
D31*
G36*
X106021720Y-54770495D02*
G01*
X106482753Y-54309462D01*
X107615538Y-55442247D01*
X107154505Y-55903280D01*
X106021720Y-54770495D01*
X106021720Y-54770495D01*
G37*
D35*
X106252944Y-55672057D03*
D31*
G36*
X105456035Y-55336181D02*
G01*
X105917068Y-54875148D01*
X107049853Y-56007933D01*
X106588820Y-56468966D01*
X105456035Y-55336181D01*
X105456035Y-55336181D01*
G37*
D35*
X105687258Y-56237742D03*
D31*
G36*
X104890349Y-55901866D02*
G01*
X105351382Y-55440833D01*
X106484167Y-56573618D01*
X106023134Y-57034651D01*
X104890349Y-55901866D01*
X104890349Y-55901866D01*
G37*
D35*
X105121573Y-56803428D03*
D31*
G36*
X104324664Y-56467552D02*
G01*
X104785697Y-56006519D01*
X105918482Y-57139304D01*
X105457449Y-57600337D01*
X104324664Y-56467552D01*
X104324664Y-56467552D01*
G37*
D35*
X104555888Y-57369113D03*
D31*
G36*
X103758979Y-57033237D02*
G01*
X104220012Y-56572204D01*
X105352797Y-57704989D01*
X104891764Y-58166022D01*
X103758979Y-57033237D01*
X103758979Y-57033237D01*
G37*
D35*
X103990202Y-57934798D03*
D31*
G36*
X103193293Y-57598922D02*
G01*
X103654326Y-57137889D01*
X104787111Y-58270674D01*
X104326078Y-58731707D01*
X103193293Y-57598922D01*
X103193293Y-57598922D01*
G37*
G36*
X149808141Y-50050297D02*
G01*
X149834278Y-50054174D01*
X149859909Y-50060594D01*
X149884788Y-50069495D01*
X149908674Y-50080793D01*
X149931337Y-50094377D01*
X149952560Y-50110117D01*
X149972139Y-50127861D01*
X149989883Y-50147440D01*
X150005623Y-50168663D01*
X150019207Y-50191326D01*
X150030505Y-50215212D01*
X150039406Y-50240091D01*
X150045826Y-50265722D01*
X150049703Y-50291859D01*
X150051000Y-50318250D01*
X150051000Y-51281750D01*
X150049703Y-51308141D01*
X150045826Y-51334278D01*
X150039406Y-51359909D01*
X150030505Y-51384788D01*
X150019207Y-51408674D01*
X150005623Y-51431337D01*
X149989883Y-51452560D01*
X149972139Y-51472139D01*
X149952560Y-51489883D01*
X149931337Y-51505623D01*
X149908674Y-51519207D01*
X149884788Y-51530505D01*
X149859909Y-51539406D01*
X149834278Y-51545826D01*
X149808141Y-51549703D01*
X149781750Y-51551000D01*
X149243250Y-51551000D01*
X149216859Y-51549703D01*
X149190722Y-51545826D01*
X149165091Y-51539406D01*
X149140212Y-51530505D01*
X149116326Y-51519207D01*
X149093663Y-51505623D01*
X149072440Y-51489883D01*
X149052861Y-51472139D01*
X149035117Y-51452560D01*
X149019377Y-51431337D01*
X149005793Y-51408674D01*
X148994495Y-51384788D01*
X148985594Y-51359909D01*
X148979174Y-51334278D01*
X148975297Y-51308141D01*
X148974000Y-51281750D01*
X148974000Y-50318250D01*
X148975297Y-50291859D01*
X148979174Y-50265722D01*
X148985594Y-50240091D01*
X148994495Y-50215212D01*
X149005793Y-50191326D01*
X149019377Y-50168663D01*
X149035117Y-50147440D01*
X149052861Y-50127861D01*
X149072440Y-50110117D01*
X149093663Y-50094377D01*
X149116326Y-50080793D01*
X149140212Y-50069495D01*
X149165091Y-50060594D01*
X149190722Y-50054174D01*
X149216859Y-50050297D01*
X149243250Y-50049000D01*
X149781750Y-50049000D01*
X149808141Y-50050297D01*
X149808141Y-50050297D01*
G37*
D32*
X149512500Y-50800000D03*
D31*
G36*
X147933141Y-50050297D02*
G01*
X147959278Y-50054174D01*
X147984909Y-50060594D01*
X148009788Y-50069495D01*
X148033674Y-50080793D01*
X148056337Y-50094377D01*
X148077560Y-50110117D01*
X148097139Y-50127861D01*
X148114883Y-50147440D01*
X148130623Y-50168663D01*
X148144207Y-50191326D01*
X148155505Y-50215212D01*
X148164406Y-50240091D01*
X148170826Y-50265722D01*
X148174703Y-50291859D01*
X148176000Y-50318250D01*
X148176000Y-51281750D01*
X148174703Y-51308141D01*
X148170826Y-51334278D01*
X148164406Y-51359909D01*
X148155505Y-51384788D01*
X148144207Y-51408674D01*
X148130623Y-51431337D01*
X148114883Y-51452560D01*
X148097139Y-51472139D01*
X148077560Y-51489883D01*
X148056337Y-51505623D01*
X148033674Y-51519207D01*
X148009788Y-51530505D01*
X147984909Y-51539406D01*
X147959278Y-51545826D01*
X147933141Y-51549703D01*
X147906750Y-51551000D01*
X147368250Y-51551000D01*
X147341859Y-51549703D01*
X147315722Y-51545826D01*
X147290091Y-51539406D01*
X147265212Y-51530505D01*
X147241326Y-51519207D01*
X147218663Y-51505623D01*
X147197440Y-51489883D01*
X147177861Y-51472139D01*
X147160117Y-51452560D01*
X147144377Y-51431337D01*
X147130793Y-51408674D01*
X147119495Y-51384788D01*
X147110594Y-51359909D01*
X147104174Y-51334278D01*
X147100297Y-51308141D01*
X147099000Y-51281750D01*
X147099000Y-50318250D01*
X147100297Y-50291859D01*
X147104174Y-50265722D01*
X147110594Y-50240091D01*
X147119495Y-50215212D01*
X147130793Y-50191326D01*
X147144377Y-50168663D01*
X147160117Y-50147440D01*
X147177861Y-50127861D01*
X147197440Y-50110117D01*
X147218663Y-50094377D01*
X147241326Y-50080793D01*
X147265212Y-50069495D01*
X147290091Y-50060594D01*
X147315722Y-50054174D01*
X147341859Y-50050297D01*
X147368250Y-50049000D01*
X147906750Y-50049000D01*
X147933141Y-50050297D01*
X147933141Y-50050297D01*
G37*
D32*
X147637500Y-50800000D03*
D31*
G36*
X122630141Y-48240547D02*
G01*
X122656278Y-48244424D01*
X122681909Y-48250844D01*
X122706788Y-48259745D01*
X122730674Y-48271043D01*
X122753337Y-48284627D01*
X122774560Y-48300367D01*
X122794139Y-48318111D01*
X122811883Y-48337690D01*
X122827623Y-48358913D01*
X122841207Y-48381576D01*
X122852505Y-48405462D01*
X122861406Y-48430341D01*
X122867826Y-48455972D01*
X122871703Y-48482109D01*
X122873000Y-48508500D01*
X122873000Y-49472000D01*
X122871703Y-49498391D01*
X122867826Y-49524528D01*
X122861406Y-49550159D01*
X122852505Y-49575038D01*
X122841207Y-49598924D01*
X122827623Y-49621587D01*
X122811883Y-49642810D01*
X122794139Y-49662389D01*
X122774560Y-49680133D01*
X122753337Y-49695873D01*
X122730674Y-49709457D01*
X122706788Y-49720755D01*
X122681909Y-49729656D01*
X122656278Y-49736076D01*
X122630141Y-49739953D01*
X122603750Y-49741250D01*
X122065250Y-49741250D01*
X122038859Y-49739953D01*
X122012722Y-49736076D01*
X121987091Y-49729656D01*
X121962212Y-49720755D01*
X121938326Y-49709457D01*
X121915663Y-49695873D01*
X121894440Y-49680133D01*
X121874861Y-49662389D01*
X121857117Y-49642810D01*
X121841377Y-49621587D01*
X121827793Y-49598924D01*
X121816495Y-49575038D01*
X121807594Y-49550159D01*
X121801174Y-49524528D01*
X121797297Y-49498391D01*
X121796000Y-49472000D01*
X121796000Y-48508500D01*
X121797297Y-48482109D01*
X121801174Y-48455972D01*
X121807594Y-48430341D01*
X121816495Y-48405462D01*
X121827793Y-48381576D01*
X121841377Y-48358913D01*
X121857117Y-48337690D01*
X121874861Y-48318111D01*
X121894440Y-48300367D01*
X121915663Y-48284627D01*
X121938326Y-48271043D01*
X121962212Y-48259745D01*
X121987091Y-48250844D01*
X122012722Y-48244424D01*
X122038859Y-48240547D01*
X122065250Y-48239250D01*
X122603750Y-48239250D01*
X122630141Y-48240547D01*
X122630141Y-48240547D01*
G37*
D32*
X122334500Y-48990250D03*
D31*
G36*
X120755141Y-48240547D02*
G01*
X120781278Y-48244424D01*
X120806909Y-48250844D01*
X120831788Y-48259745D01*
X120855674Y-48271043D01*
X120878337Y-48284627D01*
X120899560Y-48300367D01*
X120919139Y-48318111D01*
X120936883Y-48337690D01*
X120952623Y-48358913D01*
X120966207Y-48381576D01*
X120977505Y-48405462D01*
X120986406Y-48430341D01*
X120992826Y-48455972D01*
X120996703Y-48482109D01*
X120998000Y-48508500D01*
X120998000Y-49472000D01*
X120996703Y-49498391D01*
X120992826Y-49524528D01*
X120986406Y-49550159D01*
X120977505Y-49575038D01*
X120966207Y-49598924D01*
X120952623Y-49621587D01*
X120936883Y-49642810D01*
X120919139Y-49662389D01*
X120899560Y-49680133D01*
X120878337Y-49695873D01*
X120855674Y-49709457D01*
X120831788Y-49720755D01*
X120806909Y-49729656D01*
X120781278Y-49736076D01*
X120755141Y-49739953D01*
X120728750Y-49741250D01*
X120190250Y-49741250D01*
X120163859Y-49739953D01*
X120137722Y-49736076D01*
X120112091Y-49729656D01*
X120087212Y-49720755D01*
X120063326Y-49709457D01*
X120040663Y-49695873D01*
X120019440Y-49680133D01*
X119999861Y-49662389D01*
X119982117Y-49642810D01*
X119966377Y-49621587D01*
X119952793Y-49598924D01*
X119941495Y-49575038D01*
X119932594Y-49550159D01*
X119926174Y-49524528D01*
X119922297Y-49498391D01*
X119921000Y-49472000D01*
X119921000Y-48508500D01*
X119922297Y-48482109D01*
X119926174Y-48455972D01*
X119932594Y-48430341D01*
X119941495Y-48405462D01*
X119952793Y-48381576D01*
X119966377Y-48358913D01*
X119982117Y-48337690D01*
X119999861Y-48318111D01*
X120019440Y-48300367D01*
X120040663Y-48284627D01*
X120063326Y-48271043D01*
X120087212Y-48259745D01*
X120112091Y-48250844D01*
X120137722Y-48244424D01*
X120163859Y-48240547D01*
X120190250Y-48239250D01*
X120728750Y-48239250D01*
X120755141Y-48240547D01*
X120755141Y-48240547D01*
G37*
D32*
X120459500Y-48990250D03*
D31*
G36*
X150676104Y-56225302D02*
G01*
X150702352Y-56229196D01*
X150728093Y-56235643D01*
X150753078Y-56244583D01*
X150777066Y-56255928D01*
X150799826Y-56269571D01*
X150821140Y-56285378D01*
X150840802Y-56303198D01*
X150858622Y-56322860D01*
X150874429Y-56344174D01*
X150888072Y-56366934D01*
X150899417Y-56390922D01*
X150908357Y-56415907D01*
X150914804Y-56441648D01*
X150918698Y-56467896D01*
X150920000Y-56494400D01*
X150920000Y-57805600D01*
X150918698Y-57832104D01*
X150914804Y-57858352D01*
X150908357Y-57884093D01*
X150899417Y-57909078D01*
X150888072Y-57933066D01*
X150874429Y-57955826D01*
X150858622Y-57977140D01*
X150840802Y-57996802D01*
X150821140Y-58014622D01*
X150799826Y-58030429D01*
X150777066Y-58044072D01*
X150753078Y-58055417D01*
X150728093Y-58064357D01*
X150702352Y-58070804D01*
X150676104Y-58074698D01*
X150649600Y-58076000D01*
X149838400Y-58076000D01*
X149811896Y-58074698D01*
X149785648Y-58070804D01*
X149759907Y-58064357D01*
X149734922Y-58055417D01*
X149710934Y-58044072D01*
X149688174Y-58030429D01*
X149666860Y-58014622D01*
X149647198Y-57996802D01*
X149629378Y-57977140D01*
X149613571Y-57955826D01*
X149599928Y-57933066D01*
X149588583Y-57909078D01*
X149579643Y-57884093D01*
X149573196Y-57858352D01*
X149569302Y-57832104D01*
X149568000Y-57805600D01*
X149568000Y-56494400D01*
X149569302Y-56467896D01*
X149573196Y-56441648D01*
X149579643Y-56415907D01*
X149588583Y-56390922D01*
X149599928Y-56366934D01*
X149613571Y-56344174D01*
X149629378Y-56322860D01*
X149647198Y-56303198D01*
X149666860Y-56285378D01*
X149688174Y-56269571D01*
X149710934Y-56255928D01*
X149734922Y-56244583D01*
X149759907Y-56235643D01*
X149785648Y-56229196D01*
X149811896Y-56225302D01*
X149838400Y-56224000D01*
X150649600Y-56224000D01*
X150676104Y-56225302D01*
X150676104Y-56225302D01*
G37*
D36*
X150244000Y-57150000D03*
D31*
G36*
X147876104Y-56225302D02*
G01*
X147902352Y-56229196D01*
X147928093Y-56235643D01*
X147953078Y-56244583D01*
X147977066Y-56255928D01*
X147999826Y-56269571D01*
X148021140Y-56285378D01*
X148040802Y-56303198D01*
X148058622Y-56322860D01*
X148074429Y-56344174D01*
X148088072Y-56366934D01*
X148099417Y-56390922D01*
X148108357Y-56415907D01*
X148114804Y-56441648D01*
X148118698Y-56467896D01*
X148120000Y-56494400D01*
X148120000Y-57805600D01*
X148118698Y-57832104D01*
X148114804Y-57858352D01*
X148108357Y-57884093D01*
X148099417Y-57909078D01*
X148088072Y-57933066D01*
X148074429Y-57955826D01*
X148058622Y-57977140D01*
X148040802Y-57996802D01*
X148021140Y-58014622D01*
X147999826Y-58030429D01*
X147977066Y-58044072D01*
X147953078Y-58055417D01*
X147928093Y-58064357D01*
X147902352Y-58070804D01*
X147876104Y-58074698D01*
X147849600Y-58076000D01*
X147038400Y-58076000D01*
X147011896Y-58074698D01*
X146985648Y-58070804D01*
X146959907Y-58064357D01*
X146934922Y-58055417D01*
X146910934Y-58044072D01*
X146888174Y-58030429D01*
X146866860Y-58014622D01*
X146847198Y-57996802D01*
X146829378Y-57977140D01*
X146813571Y-57955826D01*
X146799928Y-57933066D01*
X146788583Y-57909078D01*
X146779643Y-57884093D01*
X146773196Y-57858352D01*
X146769302Y-57832104D01*
X146768000Y-57805600D01*
X146768000Y-56494400D01*
X146769302Y-56467896D01*
X146773196Y-56441648D01*
X146779643Y-56415907D01*
X146788583Y-56390922D01*
X146799928Y-56366934D01*
X146813571Y-56344174D01*
X146829378Y-56322860D01*
X146847198Y-56303198D01*
X146866860Y-56285378D01*
X146888174Y-56269571D01*
X146910934Y-56255928D01*
X146934922Y-56244583D01*
X146959907Y-56235643D01*
X146985648Y-56229196D01*
X147011896Y-56225302D01*
X147038400Y-56224000D01*
X147849600Y-56224000D01*
X147876104Y-56225302D01*
X147876104Y-56225302D01*
G37*
D36*
X147444000Y-57150000D03*
D31*
G36*
X104006825Y-50707184D02*
G01*
X104032962Y-50711061D01*
X104058593Y-50717481D01*
X104083472Y-50726382D01*
X104107358Y-50737680D01*
X104130021Y-50751264D01*
X104151244Y-50767004D01*
X104170823Y-50784748D01*
X104551600Y-51165525D01*
X104569344Y-51185104D01*
X104585084Y-51206327D01*
X104598668Y-51228990D01*
X104609966Y-51252876D01*
X104618867Y-51277755D01*
X104625287Y-51303386D01*
X104629164Y-51329523D01*
X104630461Y-51355914D01*
X104629164Y-51382305D01*
X104625287Y-51408442D01*
X104618867Y-51434073D01*
X104609966Y-51458952D01*
X104598668Y-51482838D01*
X104585084Y-51505501D01*
X104569344Y-51526724D01*
X104551600Y-51546303D01*
X103870303Y-52227600D01*
X103850724Y-52245344D01*
X103829501Y-52261084D01*
X103806838Y-52274668D01*
X103782952Y-52285966D01*
X103758073Y-52294867D01*
X103732442Y-52301287D01*
X103706305Y-52305164D01*
X103679914Y-52306461D01*
X103653523Y-52305164D01*
X103627386Y-52301287D01*
X103601755Y-52294867D01*
X103576876Y-52285966D01*
X103552990Y-52274668D01*
X103530327Y-52261084D01*
X103509104Y-52245344D01*
X103489525Y-52227600D01*
X103108748Y-51846823D01*
X103091004Y-51827244D01*
X103075264Y-51806021D01*
X103061680Y-51783358D01*
X103050382Y-51759472D01*
X103041481Y-51734593D01*
X103035061Y-51708962D01*
X103031184Y-51682825D01*
X103029887Y-51656434D01*
X103031184Y-51630043D01*
X103035061Y-51603906D01*
X103041481Y-51578275D01*
X103050382Y-51553396D01*
X103061680Y-51529510D01*
X103075264Y-51506847D01*
X103091004Y-51485624D01*
X103108748Y-51466045D01*
X103790045Y-50784748D01*
X103809624Y-50767004D01*
X103830847Y-50751264D01*
X103853510Y-50737680D01*
X103877396Y-50726382D01*
X103902275Y-50717481D01*
X103927906Y-50711061D01*
X103954043Y-50707184D01*
X103980434Y-50705887D01*
X104006825Y-50707184D01*
X104006825Y-50707184D01*
G37*
D32*
X103830174Y-51506174D03*
D31*
G36*
X105332651Y-52033010D02*
G01*
X105358788Y-52036887D01*
X105384419Y-52043307D01*
X105409298Y-52052208D01*
X105433184Y-52063506D01*
X105455847Y-52077090D01*
X105477070Y-52092830D01*
X105496649Y-52110574D01*
X105877426Y-52491351D01*
X105895170Y-52510930D01*
X105910910Y-52532153D01*
X105924494Y-52554816D01*
X105935792Y-52578702D01*
X105944693Y-52603581D01*
X105951113Y-52629212D01*
X105954990Y-52655349D01*
X105956287Y-52681740D01*
X105954990Y-52708131D01*
X105951113Y-52734268D01*
X105944693Y-52759899D01*
X105935792Y-52784778D01*
X105924494Y-52808664D01*
X105910910Y-52831327D01*
X105895170Y-52852550D01*
X105877426Y-52872129D01*
X105196129Y-53553426D01*
X105176550Y-53571170D01*
X105155327Y-53586910D01*
X105132664Y-53600494D01*
X105108778Y-53611792D01*
X105083899Y-53620693D01*
X105058268Y-53627113D01*
X105032131Y-53630990D01*
X105005740Y-53632287D01*
X104979349Y-53630990D01*
X104953212Y-53627113D01*
X104927581Y-53620693D01*
X104902702Y-53611792D01*
X104878816Y-53600494D01*
X104856153Y-53586910D01*
X104834930Y-53571170D01*
X104815351Y-53553426D01*
X104434574Y-53172649D01*
X104416830Y-53153070D01*
X104401090Y-53131847D01*
X104387506Y-53109184D01*
X104376208Y-53085298D01*
X104367307Y-53060419D01*
X104360887Y-53034788D01*
X104357010Y-53008651D01*
X104355713Y-52982260D01*
X104357010Y-52955869D01*
X104360887Y-52929732D01*
X104367307Y-52904101D01*
X104376208Y-52879222D01*
X104387506Y-52855336D01*
X104401090Y-52832673D01*
X104416830Y-52811450D01*
X104434574Y-52791871D01*
X105115871Y-52110574D01*
X105135450Y-52092830D01*
X105156673Y-52077090D01*
X105179336Y-52063506D01*
X105203222Y-52052208D01*
X105228101Y-52043307D01*
X105253732Y-52036887D01*
X105279869Y-52033010D01*
X105306260Y-52031713D01*
X105332651Y-52033010D01*
X105332651Y-52033010D01*
G37*
D32*
X105156000Y-52832000D03*
D31*
G36*
X129109564Y-53203923D02*
G01*
X129135701Y-53207800D01*
X129161332Y-53214220D01*
X129186211Y-53223121D01*
X129210097Y-53234419D01*
X129232760Y-53248003D01*
X129253983Y-53263743D01*
X129273562Y-53281487D01*
X129654339Y-53662264D01*
X129672083Y-53681843D01*
X129687823Y-53703066D01*
X129701407Y-53725729D01*
X129712705Y-53749615D01*
X129721606Y-53774494D01*
X129728026Y-53800125D01*
X129731903Y-53826262D01*
X129733200Y-53852653D01*
X129731903Y-53879044D01*
X129728026Y-53905181D01*
X129721606Y-53930812D01*
X129712705Y-53955691D01*
X129701407Y-53979577D01*
X129687823Y-54002240D01*
X129672083Y-54023463D01*
X129654339Y-54043042D01*
X128973042Y-54724339D01*
X128953463Y-54742083D01*
X128932240Y-54757823D01*
X128909577Y-54771407D01*
X128885691Y-54782705D01*
X128860812Y-54791606D01*
X128835181Y-54798026D01*
X128809044Y-54801903D01*
X128782653Y-54803200D01*
X128756262Y-54801903D01*
X128730125Y-54798026D01*
X128704494Y-54791606D01*
X128679615Y-54782705D01*
X128655729Y-54771407D01*
X128633066Y-54757823D01*
X128611843Y-54742083D01*
X128592264Y-54724339D01*
X128211487Y-54343562D01*
X128193743Y-54323983D01*
X128178003Y-54302760D01*
X128164419Y-54280097D01*
X128153121Y-54256211D01*
X128144220Y-54231332D01*
X128137800Y-54205701D01*
X128133923Y-54179564D01*
X128132626Y-54153173D01*
X128133923Y-54126782D01*
X128137800Y-54100645D01*
X128144220Y-54075014D01*
X128153121Y-54050135D01*
X128164419Y-54026249D01*
X128178003Y-54003586D01*
X128193743Y-53982363D01*
X128211487Y-53962784D01*
X128892784Y-53281487D01*
X128912363Y-53263743D01*
X128933586Y-53248003D01*
X128956249Y-53234419D01*
X128980135Y-53223121D01*
X129005014Y-53214220D01*
X129030645Y-53207800D01*
X129056782Y-53203923D01*
X129083173Y-53202626D01*
X129109564Y-53203923D01*
X129109564Y-53203923D01*
G37*
D32*
X128932913Y-54002913D03*
D31*
G36*
X127783738Y-51878097D02*
G01*
X127809875Y-51881974D01*
X127835506Y-51888394D01*
X127860385Y-51897295D01*
X127884271Y-51908593D01*
X127906934Y-51922177D01*
X127928157Y-51937917D01*
X127947736Y-51955661D01*
X128328513Y-52336438D01*
X128346257Y-52356017D01*
X128361997Y-52377240D01*
X128375581Y-52399903D01*
X128386879Y-52423789D01*
X128395780Y-52448668D01*
X128402200Y-52474299D01*
X128406077Y-52500436D01*
X128407374Y-52526827D01*
X128406077Y-52553218D01*
X128402200Y-52579355D01*
X128395780Y-52604986D01*
X128386879Y-52629865D01*
X128375581Y-52653751D01*
X128361997Y-52676414D01*
X128346257Y-52697637D01*
X128328513Y-52717216D01*
X127647216Y-53398513D01*
X127627637Y-53416257D01*
X127606414Y-53431997D01*
X127583751Y-53445581D01*
X127559865Y-53456879D01*
X127534986Y-53465780D01*
X127509355Y-53472200D01*
X127483218Y-53476077D01*
X127456827Y-53477374D01*
X127430436Y-53476077D01*
X127404299Y-53472200D01*
X127378668Y-53465780D01*
X127353789Y-53456879D01*
X127329903Y-53445581D01*
X127307240Y-53431997D01*
X127286017Y-53416257D01*
X127266438Y-53398513D01*
X126885661Y-53017736D01*
X126867917Y-52998157D01*
X126852177Y-52976934D01*
X126838593Y-52954271D01*
X126827295Y-52930385D01*
X126818394Y-52905506D01*
X126811974Y-52879875D01*
X126808097Y-52853738D01*
X126806800Y-52827347D01*
X126808097Y-52800956D01*
X126811974Y-52774819D01*
X126818394Y-52749188D01*
X126827295Y-52724309D01*
X126838593Y-52700423D01*
X126852177Y-52677760D01*
X126867917Y-52656537D01*
X126885661Y-52636958D01*
X127566958Y-51955661D01*
X127586537Y-51937917D01*
X127607760Y-51922177D01*
X127630423Y-51908593D01*
X127654309Y-51897295D01*
X127679188Y-51888394D01*
X127704819Y-51881974D01*
X127730956Y-51878097D01*
X127757347Y-51876800D01*
X127783738Y-51878097D01*
X127783738Y-51878097D01*
G37*
D32*
X127607087Y-52677087D03*
D33*
X140303250Y-87821500D03*
X140303250Y-91121500D03*
X138112500Y-69725000D03*
X138112500Y-73025000D03*
X142684500Y-87884000D03*
X142684500Y-91184000D03*
X141287500Y-69725000D03*
X141287500Y-73025000D03*
X134937500Y-107093750D03*
X134937500Y-110393750D03*
X137922000Y-87884000D03*
X137922000Y-91184000D03*
X134937500Y-69787500D03*
X134937500Y-73087500D03*
X131762500Y-107093750D03*
X131762500Y-110393750D03*
X127603250Y-86234000D03*
X127603250Y-89534000D03*
X131762500Y-69725000D03*
X131762500Y-73025000D03*
X122840750Y-86171500D03*
X122840750Y-89471500D03*
X129032000Y-69725000D03*
X129032000Y-73025000D03*
X125222000Y-86296500D03*
X125222000Y-89596500D03*
X126492000Y-69725000D03*
X126492000Y-73025000D03*
M02*
