G04 #@! TF.GenerationSoftware,KiCad,Pcbnew,(5.1.4)-1*
G04 #@! TF.CreationDate,2021-10-22T09:47:44-04:00*
G04 #@! TF.ProjectId,a44key-pcb,6134346b-6579-42d7-9063-622e6b696361,rev?*
G04 #@! TF.SameCoordinates,Original*
G04 #@! TF.FileFunction,Profile,NP*
%FSLAX46Y46*%
G04 Gerber Fmt 4.6, Leading zero omitted, Abs format (unit mm)*
G04 Created by KiCad (PCBNEW (5.1.4)-1) date 2021-10-22 09:47:44*
%MOMM*%
%LPD*%
G04 APERTURE LIST*
%ADD10C,0.050000*%
G04 APERTURE END LIST*
D10*
X85090000Y-48641000D02*
X87376000Y-46355000D01*
X85090000Y-117475000D02*
X85090000Y-48641000D01*
X160782000Y-46355000D02*
X87376000Y-46355000D01*
X160782000Y-46355000D02*
X161925000Y-47498000D01*
X161925000Y-57531000D02*
X161925000Y-47498000D01*
X164846000Y-60325000D02*
X161925000Y-57531000D01*
X198755000Y-60325000D02*
X164846000Y-60325000D01*
X198755000Y-60325000D02*
X200025000Y-61595000D01*
X200025000Y-61595000D02*
X200025000Y-116332000D01*
X200025000Y-116332000D02*
X198247000Y-118110000D01*
X198247000Y-118110000D02*
X183007000Y-118110000D01*
X180721000Y-121285000D02*
X183007000Y-118110000D01*
X180721000Y-121285000D02*
X163576000Y-121285000D01*
X162052000Y-123063000D02*
X163576000Y-121285000D01*
X162052000Y-132969000D02*
X162052000Y-123063000D01*
X156210000Y-134112000D02*
X160782000Y-134112000D01*
X160782000Y-134112000D02*
X162052000Y-132969000D01*
X89916000Y-151892000D02*
X156210000Y-134112000D01*
X89916000Y-151892000D02*
X87884000Y-150749000D01*
X83439000Y-134112000D02*
X87884000Y-150749000D01*
X83439000Y-134112000D02*
X83439000Y-119126000D01*
X83439000Y-119126000D02*
X85090000Y-117475000D01*
M02*
