M48
; DRILL file {KiCad (5.1.4)-1} date 11/10/2021 8:59:34 PM
; FORMAT={-:-/ absolute / inch / decimal}
; #@! TF.CreationDate,2021-11-10T20:59:34-05:00
; #@! TF.GenerationSoftware,Kicad,Pcbnew,(5.1.4)-1
; #@! TF.FileFunction,NonPlated,1,2,NPTH
FMAT,2
INCH
T1C0.0197
T2C0.0310
T3C0.0433
T4C0.0591
T5C0.0689
T6C0.1570
%
G90
G05
T2
X7.51Y-4.65
X7.56Y-4.65
X7.61Y-4.65
X7.66Y-4.65
X7.71Y-4.65
X7.51Y-4.86
X7.56Y-4.86
X7.61Y-4.86
X7.66Y-4.86
X7.71Y-4.86
X6.58Y-4.77
X6.63Y-4.77
X6.68Y-4.77
X6.73Y-4.77
X6.78Y-4.77
X6.58Y-4.85
X6.63Y-4.85
X6.68Y-4.85
X6.73Y-4.85
X6.78Y-4.85
T3
X3.4676Y-2.13
X3.6645Y-2.13
T6
X5.9875Y-3.3875
X6.7375Y-4.3875
X5.2375Y-2.45
X4.4875Y-3.7
X7.4875Y-2.7625
X3.7375Y-3.5125
X5.9875Y-4.1375
X7.5687Y-5.2318
X5.9875Y-2.6375
X5.9875Y-4.8875
X7.4875Y-3.5125
X4.4875Y-2.95
X4.4875Y-5.325
X3.7585Y-5.5188
X3.7375Y-2.7625
X7.4875Y-4.2625
X6.8143Y-5.2303
X5.2375Y-4.7
X5.2375Y-3.95
X3.7376Y-4.2638
X5.2375Y-3.2
X6.7375Y-3.6375
X4.4875Y-4.45
X6.7375Y-2.8875
T1
G00X5.8975Y-2.6727
M15
G01X5.8975Y-2.531
M16
G05
G00X5.9131Y-2.6728
M15
G01X5.9131Y-2.531
M16
G05
G00X6.0786Y-2.531
M15
G01X5.8975Y-2.531
M16
G05
G00X6.0786Y-2.6727
M15
G01X5.8975Y-2.6727
M16
G05
G00X6.0629Y-2.6727
M15
G01X6.0629Y-2.531
M16
G05
G00X6.0786Y-2.6727
M15
G01X6.0786Y-2.531
M16
G05
G00X5.8975Y-4.9227
M15
G01X5.8975Y-4.781
M16
G05
G00X5.9131Y-4.9228
M15
G01X5.9131Y-4.781
M16
G05
G00X6.0786Y-4.781
M15
G01X5.8975Y-4.781
M16
G05
G00X6.0786Y-4.9227
M15
G01X5.8975Y-4.9227
M16
G05
G00X6.0629Y-4.9227
M15
G01X6.0629Y-4.781
M16
G05
G00X6.0786Y-4.9227
M15
G01X6.0786Y-4.781
M16
G05
G00X7.3975Y-3.5477
M15
G01X7.3975Y-3.406
M16
G05
G00X7.4131Y-3.5478
M15
G01X7.4131Y-3.406
M16
G05
G00X7.5786Y-3.406
M15
G01X7.3975Y-3.406
M16
G05
G00X7.5786Y-3.5477
M15
G01X7.3975Y-3.5477
M16
G05
G00X7.5629Y-3.5477
M15
G01X7.5629Y-3.406
M16
G05
G00X7.5786Y-3.5477
M15
G01X7.5786Y-3.406
M16
G05
G00X4.3975Y-2.9852
M15
G01X4.3975Y-2.8435
M16
G05
G00X4.4131Y-2.9853
M15
G01X4.4131Y-2.8435
M16
G05
G00X4.5786Y-2.8435
M15
G01X4.3975Y-2.8435
M16
G05
G00X4.5786Y-2.9852
M15
G01X4.3975Y-2.9852
M16
G05
G00X4.5629Y-2.9852
M15
G01X4.5629Y-2.8435
M16
G05
G00X4.5786Y-2.9852
M15
G01X4.5786Y-2.8435
M16
G05
G00X4.4097Y-5.3823
M15
G01X4.373Y-5.2454
M16
G05
G00X4.4248Y-5.3783
M15
G01X4.3881Y-5.2414
M16
G05
G00X4.548Y-5.1985
M15
G01X4.373Y-5.2454
M16
G05
G00X4.5847Y-5.3354
M15
G01X4.4097Y-5.3823
M16
G05
G00X4.5694Y-5.3395
M15
G01X4.5328Y-5.2026
M16
G05
G00X4.5847Y-5.3354
M15
G01X4.548Y-5.1985
M16
G05
G00X3.6807Y-5.5761
M15
G01X3.644Y-5.4392
M16
G05
G00X3.6957Y-5.5721
M15
G01X3.659Y-5.4352
M16
G05
G00X3.8189Y-5.3923
M15
G01X3.644Y-5.4392
M16
G05
G00X3.8556Y-5.5292
M15
G01X3.6807Y-5.5761
M16
G05
G00X3.8404Y-5.5333
M15
G01X3.8037Y-5.3964
M16
G05
G00X3.8556Y-5.5292
M15
G01X3.8189Y-5.3923
M16
G05
G00X3.6475Y-2.7977
M15
G01X3.6475Y-2.656
M16
G05
G00X3.6631Y-2.7978
M15
G01X3.6631Y-2.656
M16
G05
G00X3.8286Y-2.656
M15
G01X3.6475Y-2.656
M16
G05
G00X3.8286Y-2.7977
M15
G01X3.6475Y-2.7977
M16
G05
G00X3.8129Y-2.7977
M15
G01X3.8129Y-2.656
M16
G05
G00X3.8286Y-2.7977
M15
G01X3.8286Y-2.656
M16
G05
G00X7.3975Y-4.2977
M15
G01X7.3975Y-4.156
M16
G05
G00X7.4131Y-4.2978
M15
G01X7.4131Y-4.156
M16
G05
G00X7.5786Y-4.156
M15
G01X7.3975Y-4.156
M16
G05
G00X7.5786Y-4.2977
M15
G01X7.3975Y-4.2977
M16
G05
G00X7.5629Y-4.2977
M15
G01X7.5629Y-4.156
M16
G05
G00X7.5786Y-4.2977
M15
G01X7.5786Y-4.156
M16
G05
G00X6.7244Y-5.2655
M15
G01X6.7244Y-5.1238
M16
G05
G00X6.7399Y-5.2656
M15
G01X6.7399Y-5.1238
M16
G05
G00X6.9055Y-5.1238
M15
G01X6.7244Y-5.1238
M16
G05
G00X6.9055Y-5.2655
M15
G01X6.7244Y-5.2655
M16
G05
G00X6.8897Y-5.2655
M15
G01X6.8897Y-5.1238
M16
G05
G00X6.9055Y-5.2655
M15
G01X6.9055Y-5.1238
M16
G05
G00X5.1475Y-4.7352
M15
G01X5.1475Y-4.5935
M16
G05
G00X5.1631Y-4.7353
M15
G01X5.1631Y-4.5935
M16
G05
G00X5.3286Y-4.5935
M15
G01X5.1475Y-4.5935
M16
G05
G00X5.3286Y-4.7352
M15
G01X5.1475Y-4.7352
M16
G05
G00X5.3129Y-4.7352
M15
G01X5.3129Y-4.5935
M16
G05
G00X5.3286Y-4.7352
M15
G01X5.3286Y-4.5935
M16
G05
G00X5.1475Y-3.9852
M15
G01X5.1475Y-3.8435
M16
G05
G00X5.1631Y-3.9853
M15
G01X5.1631Y-3.8435
M16
G05
G00X5.3286Y-3.8435
M15
G01X5.1475Y-3.8435
M16
G05
G00X5.3286Y-3.9852
M15
G01X5.1475Y-3.9852
M16
G05
G00X5.3129Y-3.9852
M15
G01X5.3129Y-3.8435
M16
G05
G00X5.3286Y-3.9852
M15
G01X5.3286Y-3.8435
M16
G05
G00X3.6477Y-4.2991
M15
G01X3.6477Y-4.1574
M16
G05
G00X3.6632Y-4.2991
M15
G01X3.6632Y-4.1574
M16
G05
G00X3.8288Y-4.1574
M15
G01X3.6477Y-4.1574
M16
G05
G00X3.8288Y-4.2991
M15
G01X3.6477Y-4.2991
M16
G05
G00X3.813Y-4.2991
M15
G01X3.813Y-4.1574
M16
G05
G00X3.8288Y-4.2991
M15
G01X3.8288Y-4.1574
M16
G05
G00X5.1475Y-3.2352
M15
G01X5.1475Y-3.0935
M16
G05
G00X5.1631Y-3.2353
M15
G01X5.1631Y-3.0935
M16
G05
G00X5.3286Y-3.0935
M15
G01X5.1475Y-3.0935
M16
G05
G00X5.3286Y-3.2352
M15
G01X5.1475Y-3.2352
M16
G05
G00X5.3129Y-3.2352
M15
G01X5.3129Y-3.0935
M16
G05
G00X5.3286Y-3.2352
M15
G01X5.3286Y-3.0935
M16
G05
G00X6.6475Y-3.6727
M15
G01X6.6475Y-3.531
M16
G05
G00X6.6631Y-3.6728
M15
G01X6.6631Y-3.531
M16
G05
G00X6.8286Y-3.531
M15
G01X6.6475Y-3.531
M16
G05
G00X6.8286Y-3.6727
M15
G01X6.6475Y-3.6727
M16
G05
G00X6.8129Y-3.6727
M15
G01X6.8129Y-3.531
M16
G05
G00X6.8286Y-3.6727
M15
G01X6.8286Y-3.531
M16
G05
G00X4.3975Y-4.4852
M15
G01X4.3975Y-4.3435
M16
G05
G00X4.4131Y-4.4853
M15
G01X4.4131Y-4.3435
M16
G05
G00X4.5786Y-4.3435
M15
G01X4.3975Y-4.3435
M16
G05
G00X4.5786Y-4.4852
M15
G01X4.3975Y-4.4852
M16
G05
G00X4.5629Y-4.4852
M15
G01X4.5629Y-4.3435
M16
G05
G00X4.5786Y-4.4852
M15
G01X4.5786Y-4.3435
M16
G05
G00X6.6475Y-2.9227
M15
G01X6.6475Y-2.781
M16
G05
G00X6.6631Y-2.9228
M15
G01X6.6631Y-2.781
M16
G05
G00X6.8286Y-2.781
M15
G01X6.6475Y-2.781
M16
G05
G00X6.8286Y-2.9227
M15
G01X6.6475Y-2.9227
M16
G05
G00X6.8129Y-2.9227
M15
G01X6.8129Y-2.781
M16
G05
G00X6.8286Y-2.9227
M15
G01X6.8286Y-2.781
M16
G05
G00X5.8975Y-3.4227
M15
G01X5.8975Y-3.281
M16
G05
G00X5.9131Y-3.4228
M15
G01X5.9131Y-3.281
M16
G05
G00X6.0786Y-3.281
M15
G01X5.8975Y-3.281
M16
G05
G00X6.0786Y-3.4227
M15
G01X5.8975Y-3.4227
M16
G05
G00X6.0629Y-3.4227
M15
G01X6.0629Y-3.281
M16
G05
G00X6.0786Y-3.4227
M15
G01X6.0786Y-3.281
M16
G05
G00X6.6475Y-4.4227
M15
G01X6.6475Y-4.281
M16
G05
G00X6.6631Y-4.4228
M15
G01X6.6631Y-4.281
M16
G05
G00X6.8286Y-4.281
M15
G01X6.6475Y-4.281
M16
G05
G00X6.8286Y-4.4227
M15
G01X6.6475Y-4.4227
M16
G05
G00X6.8129Y-4.4227
M15
G01X6.8129Y-4.281
M16
G05
G00X6.8286Y-4.4227
M15
G01X6.8286Y-4.281
M16
G05
G00X5.1475Y-2.4852
M15
G01X5.1475Y-2.3435
M16
G05
G00X5.1631Y-2.4853
M15
G01X5.1631Y-2.3435
M16
G05
G00X5.3286Y-2.3435
M15
G01X5.1475Y-2.3435
M16
G05
G00X5.3286Y-2.4852
M15
G01X5.1475Y-2.4852
M16
G05
G00X5.3129Y-2.4852
M15
G01X5.3129Y-2.3435
M16
G05
G00X5.3286Y-2.4852
M15
G01X5.3286Y-2.3435
M16
G05
G00X4.3975Y-3.7352
M15
G01X4.3975Y-3.5935
M16
G05
G00X4.4131Y-3.7353
M15
G01X4.4131Y-3.5935
M16
G05
G00X4.5786Y-3.5935
M15
G01X4.3975Y-3.5935
M16
G05
G00X4.5786Y-3.7352
M15
G01X4.3975Y-3.7352
M16
G05
G00X4.5629Y-3.7352
M15
G01X4.5629Y-3.5935
M16
G05
G00X4.5786Y-3.7352
M15
G01X4.5786Y-3.5935
M16
G05
G00X7.3975Y-2.7977
M15
G01X7.3975Y-2.656
M16
G05
G00X7.4131Y-2.7978
M15
G01X7.4131Y-2.656
M16
G05
G00X7.5786Y-2.656
M15
G01X7.3975Y-2.656
M16
G05
G00X7.5786Y-2.7977
M15
G01X7.3975Y-2.7977
M16
G05
G00X7.5629Y-2.7977
M15
G01X7.5629Y-2.656
M16
G05
G00X7.5786Y-2.7977
M15
G01X7.5786Y-2.656
M16
G05
G00X3.6475Y-3.5477
M15
G01X3.6475Y-3.406
M16
G05
G00X3.6631Y-3.5478
M15
G01X3.6631Y-3.406
M16
G05
G00X3.8286Y-3.406
M15
G01X3.6475Y-3.406
M16
G05
G00X3.8286Y-3.5477
M15
G01X3.6475Y-3.5477
M16
G05
G00X3.8129Y-3.5477
M15
G01X3.8129Y-3.406
M16
G05
G00X3.8286Y-3.5477
M15
G01X3.8286Y-3.406
M16
G05
G00X5.8975Y-4.1727
M15
G01X5.8975Y-4.031
M16
G05
G00X5.9131Y-4.1728
M15
G01X5.9131Y-4.031
M16
G05
G00X6.0786Y-4.031
M15
G01X5.8975Y-4.031
M16
G05
G00X6.0786Y-4.1727
M15
G01X5.8975Y-4.1727
M16
G05
G00X6.0629Y-4.1727
M15
G01X6.0629Y-4.031
M16
G05
G00X6.0786Y-4.1727
M15
G01X6.0786Y-4.031
M16
G05
G00X7.4787Y-5.267
M15
G01X7.4787Y-5.1253
M16
G05
G00X7.4942Y-5.2671
M15
G01X7.4942Y-5.1253
M16
G05
G00X7.6598Y-5.1253
M15
G01X7.4787Y-5.1253
M16
G05
G00X7.6598Y-5.267
M15
G01X7.4787Y-5.267
M16
G05
G00X7.644Y-5.267
M15
G01X7.644Y-5.1253
M16
G05
G00X7.6598Y-5.267
M15
G01X7.6598Y-5.1253
M16
G05
T4
G00X6.059Y-3.3164
M15
G01X5.9172Y-3.3164
M16
G05
G00X6.809Y-4.3164
M15
G01X6.6672Y-4.3164
M16
G05
G00X5.309Y-2.3789
M15
G01X5.1672Y-2.3789
M16
G05
G00X4.559Y-3.6289
M15
G01X4.4172Y-3.6289
M16
G05
G00X7.559Y-2.6914
M15
G01X7.4172Y-2.6914
M16
G05
G00X3.809Y-3.4414
M15
G01X3.6672Y-3.4414
M16
G05
G00X6.059Y-4.0664
M15
G01X5.9172Y-4.0664
M16
G05
G00X7.6401Y-5.1607
M15
G01X7.4984Y-5.1607
M16
G05
G00X6.059Y-2.5664
M15
G01X5.9172Y-2.5664
M16
G05
G00X6.059Y-4.8164
M15
G01X5.9172Y-4.8164
M16
G05
G00X7.559Y-3.4414
M15
G01X7.4172Y-3.4414
M16
G05
G00X4.559Y-2.8789
M15
G01X4.4172Y-2.8789
M16
G05
G00X4.5381Y-5.2379
M15
G01X4.4012Y-5.2745
M16
G05
G00X3.8091Y-5.4316
M15
G01X3.6722Y-5.4683
M16
G05
G00X3.809Y-2.6914
M15
G01X3.6672Y-2.6914
M16
G05
G00X7.559Y-4.1914
M15
G01X7.4172Y-4.1914
M16
G05
G00X6.8858Y-5.1592
M15
G01X6.744Y-5.1592
M16
G05
G00X5.309Y-4.6289
M15
G01X5.1672Y-4.6289
M16
G05
G00X5.309Y-3.8789
M15
G01X5.1672Y-3.8789
M16
G05
G00X3.8091Y-4.1928
M15
G01X3.6673Y-4.1928
M16
G05
G00X5.309Y-3.1289
M15
G01X5.1672Y-3.1289
M16
G05
G00X6.809Y-3.5664
M15
G01X6.6672Y-3.5664
M16
G05
G00X4.559Y-4.3789
M15
G01X4.4172Y-4.3789
M16
G05
G00X6.809Y-2.8164
M15
G01X6.6672Y-2.8164
M16
G05
T5
G00X5.0382Y-3.95
M15
G01X5.0215Y-3.95
M16
G05
G00X5.4535Y-3.95
M15
G01X5.4368Y-3.95
M16
G05
G00X3.5383Y-4.2638
M15
G01X3.5216Y-4.2638
M16
G05
G00X3.9537Y-4.2638
M15
G01X3.9369Y-4.2638
M16
G05
G00X5.0382Y-3.2
M15
G01X5.0215Y-3.2
M16
G05
G00X5.4535Y-3.2
M15
G01X5.4368Y-3.2
M16
G05
G00X6.5382Y-3.6375
M15
G01X6.5215Y-3.6375
M16
G05
G00X6.9535Y-3.6375
M15
G01X6.9368Y-3.6375
M16
G05
G00X4.2882Y-4.45
M15
G01X4.2715Y-4.45
M16
G05
G00X4.7035Y-4.45
M15
G01X4.6868Y-4.45
M16
G05
G00X6.5382Y-2.8875
M15
G01X6.5215Y-2.8875
M16
G05
G00X6.9535Y-2.8875
M15
G01X6.9368Y-2.8875
M16
G05
G00X5.7882Y-3.3875
M15
G01X5.7715Y-3.3875
M16
G05
G00X6.2035Y-3.3875
M15
G01X6.1868Y-3.3875
M16
G05
G00X6.5382Y-4.3875
M15
G01X6.5215Y-4.3875
M16
G05
G00X6.9535Y-4.3875
M15
G01X6.9368Y-4.3875
M16
G05
G00X5.0382Y-2.45
M15
G01X5.0215Y-2.45
M16
G05
G00X5.4535Y-2.45
M15
G01X5.4368Y-2.45
M16
G05
G00X4.2882Y-3.7
M15
G01X4.2715Y-3.7
M16
G05
G00X4.7035Y-3.7
M15
G01X4.6868Y-3.7
M16
G05
G00X7.2882Y-2.7625
M15
G01X7.2715Y-2.7625
M16
G05
G00X7.7035Y-2.7625
M15
G01X7.6868Y-2.7625
M16
G05
G00X3.5382Y-3.5125
M15
G01X3.5215Y-3.5125
M16
G05
G00X3.9535Y-3.5125
M15
G01X3.9368Y-3.5125
M16
G05
G00X5.7882Y-4.1375
M15
G01X5.7715Y-4.1375
M16
G05
G00X6.2035Y-4.1375
M15
G01X6.1868Y-4.1375
M16
G05
G00X7.3693Y-5.2318
M15
G01X7.3526Y-5.2318
M16
G05
G00X7.7847Y-5.2318
M15
G01X7.768Y-5.2318
M16
G05
G00X5.7882Y-2.6375
M15
G01X5.7715Y-2.6375
M16
G05
G00X6.2035Y-2.6375
M15
G01X6.1868Y-2.6375
M16
G05
G00X5.7882Y-4.8875
M15
G01X5.7715Y-4.8875
M16
G05
G00X6.2035Y-4.8875
M15
G01X6.1868Y-4.8875
M16
G05
G00X7.2882Y-3.5125
M15
G01X7.2715Y-3.5125
M16
G05
G00X7.7035Y-3.5125
M15
G01X7.6868Y-3.5125
M16
G05
G00X4.2882Y-2.95
M15
G01X4.2715Y-2.95
M16
G05
G00X4.7035Y-2.95
M15
G01X4.6868Y-2.95
M16
G05
G00X4.295Y-5.3766
M15
G01X4.2788Y-5.3809
M16
G05
G00X4.6962Y-5.2691
M15
G01X4.68Y-5.2734
M16
G05
G00X3.566Y-5.5704
M15
G01X3.5498Y-5.5747
M16
G05
G00X3.9672Y-5.4629
M15
G01X3.951Y-5.4672
M16
G05
G00X3.5382Y-2.7625
M15
G01X3.5215Y-2.7625
M16
G05
G00X3.9535Y-2.7625
M15
G01X3.9368Y-2.7625
M16
G05
G00X7.2882Y-4.2625
M15
G01X7.2715Y-4.2625
M16
G05
G00X7.7035Y-4.2625
M15
G01X7.6868Y-4.2625
M16
G05
G00X6.615Y-5.2303
M15
G01X6.5983Y-5.2303
M16
G05
G00X7.0304Y-5.2303
M15
G01X7.0136Y-5.2303
M16
G05
G00X5.0382Y-4.7
M15
G01X5.0215Y-4.7
M16
G05
G00X5.4535Y-4.7
M15
G01X5.4368Y-4.7
M16
G05
T0
M30
