M48
; DRILL file {KiCad (5.1.4)-1} date 10/22/2021 9:48:14 AM
; FORMAT={-:-/ absolute / inch / decimal}
; #@! TF.CreationDate,2021-10-22T09:48:14-04:00
; #@! TF.GenerationSoftware,Kicad,Pcbnew,(5.1.4)-1
; #@! TF.FileFunction,Plated,1,2,PTH
FMAT,2
INCH
T1C0.0157
T2C0.0276
T3C0.0433
T4C0.0472
T5C0.0630
%
G90
G05
T1
X3.928Y-2.062
X3.93Y-2.36
X3.936Y-1.936
X3.9672Y-2.1472
X3.98Y-3.06
X3.9978Y-2.41
X4.05Y-2.15
X4.05Y-2.2
X4.07Y-2.52
X4.0862Y-3.8662
X4.1175Y-1.8975
X4.1201Y-2.66
X4.1487Y-2.5537
X4.18Y-2.01
X4.18Y-2.585
X4.2256Y-2.0156
X4.2626Y-1.9873
X4.2737Y-3.96
X4.305Y-3.8975
X4.5855Y-2.0218
X4.61Y-2.16
X4.6423Y-2.0877
X4.68Y-1.8975
X4.68Y-2.71
X4.7425Y-2.6787
X4.7425Y-2.7301
X4.7737Y-2.585
X4.7737Y-2.6475
X4.8Y-2.4
X4.8065Y-3.21
X4.93Y-1.9287
X4.93Y-4.4287
X4.93Y-4.4287
X4.9612Y-2.96
X5.1175Y-5.1787
X5.2737Y-1.9374
X5.38Y-2.01
X5.38Y-2.06
X5.4925Y-2.1475
X5.5862Y-2.1162
X5.8987Y-1.9374
X5.9688Y-1.9062
X5.9688Y-2.0
X5.9688Y-2.0938
X5.99Y-2.24
T3
X4.3525Y-3.03
X7.3525Y-2.8425
X5.8525Y-3.4675
X6.6025Y-2.9675
X5.1025Y-3.28
X5.8525Y-4.2175
X4.3525Y-4.53
X7.3525Y-4.3425
X3.6025Y-2.8425
X3.6026Y-4.3438
X3.4914Y-1.936
X3.4914Y-2.3022
X3.6882Y-2.2667
X3.8103Y-2.062
X5.1025Y-2.53
X6.6025Y-4.4675
X5.1025Y-4.03
X4.5972Y-5.2128
X4.3525Y-3.78
X7.3525Y-3.5925
X3.6025Y-3.5925
X6.6025Y-3.7175
X5.8525Y-2.7175
X5.8525Y-4.9675
X5.1025Y-4.78
X3.8682Y-5.4066
T4
X7.4875Y-3.2802
X7.6844Y-3.3629
X3.7375Y-3.2802
X3.9344Y-3.3629
X6.7375Y-3.4052
X6.9344Y-3.4879
X5.9875Y-2.4052
X6.1844Y-2.4879
X5.9875Y-4.6552
X6.1844Y-4.7379
X5.2375Y-4.4677
X5.4344Y-4.5504
X3.6071Y-5.7142
X3.8186Y-5.7431
X4.4875Y-2.7177
X4.6844Y-2.8004
X7.4875Y-2.5302
X7.6844Y-2.6129
X5.9875Y-3.1552
X6.1844Y-3.2379
X6.7375Y-2.6552
X6.9344Y-2.7379
X5.2375Y-2.9677
X5.4344Y-3.0504
X5.9875Y-3.9052
X6.1844Y-3.9879
X4.4875Y-4.2177
X4.6844Y-4.3004
X7.4875Y-4.0302
X7.6844Y-4.1129
X3.7375Y-2.5302
X3.9344Y-2.6129
X3.7376Y-4.0316
X3.9345Y-4.1142
X5.2375Y-2.2177
X5.4344Y-2.3004
X6.7375Y-4.1552
X6.9344Y-4.2379
X5.2375Y-3.7177
X5.4344Y-3.8004
X4.3361Y-5.5205
X4.5476Y-5.5494
X4.4875Y-3.4677
X4.6844Y-3.5504
T2
G00X6.1277Y-1.8875
M15
G01X6.0805Y-1.8875
M16
G05
G00X6.1277Y-2.175
M15
G01X6.0805Y-2.175
M16
G05
G00X6.3049Y-1.8875
M15
G01X6.2576Y-1.8875
M16
G05
G00X6.3049Y-2.175
M15
G01X6.2576Y-2.175
M16
G05
T5
G00X7.3411Y-3.4085
M15
G01X7.3858Y-3.3587
M16
G05
G00X7.5864Y-3.3294
M15
G01X7.5874Y-3.3137
M16
G05
G00X3.5911Y-3.4085
M15
G01X3.6358Y-3.3587
M16
G05
G00X3.8364Y-3.3294
M15
G01X3.8374Y-3.3137
M16
G05
G00X6.5911Y-3.5335
M15
G01X6.6358Y-3.4837
M16
G05
G00X6.8364Y-3.4544
M15
G01X6.8374Y-3.4387
M16
G05
G00X5.8411Y-2.5335
M15
G01X5.8858Y-2.4837
M16
G05
G00X6.0864Y-2.4544
M15
G01X6.0874Y-2.4387
M16
G05
G00X5.8411Y-4.7835
M15
G01X5.8858Y-4.7337
M16
G05
G00X6.0864Y-4.7044
M15
G01X6.0874Y-4.6887
M16
G05
G00X5.0911Y-4.596
M15
G01X5.1358Y-4.5462
M16
G05
G00X5.3364Y-4.5169
M15
G01X5.3374Y-4.5012
M16
G05
G00X3.7104Y-5.7212
M15
G01X3.7134Y-5.7367
M16
G05
G00X3.9268Y-5.5814
M15
G01X3.8965Y-5.6411
M16
G05
G00X4.3411Y-2.846
M15
G01X4.3858Y-2.7962
M16
G05
G00X4.5864Y-2.7669
M15
G01X4.5874Y-2.7512
M16
G05
G00X7.3411Y-2.6585
M15
G01X7.3858Y-2.6087
M16
G05
G00X7.5864Y-2.5794
M15
G01X7.5874Y-2.5637
M16
G05
G00X5.8411Y-3.2835
M15
G01X5.8858Y-3.2337
M16
G05
G00X6.0864Y-3.2044
M15
G01X6.0874Y-3.1887
M16
G05
G00X6.5911Y-2.7835
M15
G01X6.6358Y-2.7337
M16
G05
G00X6.8364Y-2.7044
M15
G01X6.8374Y-2.6887
M16
G05
G00X5.0911Y-3.096
M15
G01X5.1358Y-3.0462
M16
G05
G00X5.3364Y-3.0169
M15
G01X5.3374Y-3.0012
M16
G05
G00X5.8411Y-4.0335
M15
G01X5.8858Y-3.9837
M16
G05
G00X6.0864Y-3.9544
M15
G01X6.0874Y-3.9387
M16
G05
G00X4.3411Y-4.346
M15
G01X4.3858Y-4.2962
M16
G05
G00X4.5864Y-4.2669
M15
G01X4.5874Y-4.2512
M16
G05
G00X7.3411Y-4.1585
M15
G01X7.3858Y-4.1087
M16
G05
G00X7.5864Y-4.0794
M15
G01X7.5874Y-4.0637
M16
G05
G00X3.5911Y-2.6585
M15
G01X3.6358Y-2.6087
M16
G05
G00X3.8364Y-2.5794
M15
G01X3.8374Y-2.5637
M16
G05
G00X3.5913Y-4.1598
M15
G01X3.636Y-4.11
M16
G05
G00X3.8365Y-4.0808
M15
G01X3.8376Y-4.065
M16
G05
G00X5.0911Y-2.346
M15
G01X5.1358Y-2.2962
M16
G05
G00X5.3364Y-2.2669
M15
G01X5.3374Y-2.2512
M16
G05
G00X6.5911Y-4.2835
M15
G01X6.6358Y-4.2337
M16
G05
G00X6.8364Y-4.2044
M15
G01X6.8374Y-4.1887
M16
G05
G00X5.0911Y-3.846
M15
G01X5.1358Y-3.7962
M16
G05
G00X5.3364Y-3.7669
M15
G01X5.3374Y-3.7512
M16
G05
G00X4.4394Y-5.5274
M15
G01X4.4424Y-5.5429
M16
G05
G00X4.6558Y-5.3876
M15
G01X4.6255Y-5.4473
M16
G05
G00X4.3411Y-3.596
M15
G01X4.3858Y-3.5462
M16
G05
G00X4.5864Y-3.5169
M15
G01X4.5874Y-3.5012
M16
G05
T0
M30
