G04 #@! TF.GenerationSoftware,KiCad,Pcbnew,(5.1.4)-1*
G04 #@! TF.CreationDate,2021-11-10T20:59:29-05:00*
G04 #@! TF.ProjectId,a44key-pcb,6134346b-6579-42d7-9063-622e6b696361,rev?*
G04 #@! TF.SameCoordinates,Original*
G04 #@! TF.FileFunction,Copper,L1,Top*
G04 #@! TF.FilePolarity,Positive*
%FSLAX46Y46*%
G04 Gerber Fmt 4.6, Leading zero omitted, Abs format (unit mm)*
G04 Created by KiCad (PCBNEW (5.1.4)-1) date 2021-11-10 20:59:29*
%MOMM*%
%LPD*%
G04 APERTURE LIST*
%ADD10C,2.000000*%
%ADD11C,2.250000*%
%ADD12C,2.250000*%
%ADD13C,1.300000*%
%ADD14R,1.700000X1.700000*%
%ADD15O,1.700000X1.700000*%
%ADD16C,1.700000*%
%ADD17C,1.700000*%
%ADD18C,0.100000*%
%ADD19O,2.700000X1.700000*%
%ADD20R,2.250000X0.500000*%
%ADD21C,1.650000*%
%ADD22R,1.650000X1.650000*%
%ADD23R,1.800000X1.100000*%
%ADD24C,0.800000*%
%ADD25C,0.254000*%
%ADD26C,0.381000*%
%ADD27C,0.508000*%
G04 APERTURE END LIST*
D10*
X173083601Y-138749202D03*
X168083601Y-136649201D03*
D11*
X170558601Y-137699202D03*
D12*
X170578372Y-137409186D02*
X170538830Y-137989218D01*
D11*
X176233601Y-136124202D03*
D12*
X176888596Y-135394198D02*
X175578606Y-136854206D01*
D13*
X176512601Y-130817202D03*
D14*
X164675073Y-129050433D03*
D15*
X164675073Y-131590433D03*
X164675073Y-134130433D03*
X164675073Y-136670433D03*
D14*
X200833607Y-129535478D03*
D15*
X200833607Y-132075478D03*
X200833607Y-134615478D03*
X200833607Y-137155478D03*
D14*
X185885167Y-124478215D03*
D15*
X183345167Y-124478215D03*
X180805167Y-124478215D03*
X178265167Y-124478215D03*
D10*
X192243850Y-138787503D03*
X187243850Y-136687502D03*
D11*
X189718850Y-137737503D03*
D12*
X189738621Y-137447487D02*
X189699079Y-138027519D01*
D11*
X195393850Y-136162503D03*
D12*
X196048845Y-135432499D02*
X194738855Y-136892507D01*
D13*
X195672850Y-130855503D03*
D16*
X123384201Y-137154355D03*
D17*
X123384201Y-137154355D02*
X123384201Y-137154355D01*
D16*
X122726801Y-134700903D03*
D17*
X122726801Y-134700903D02*
X122726801Y-134700903D01*
D16*
X122069400Y-132247452D03*
D17*
X122069400Y-132247452D02*
X122069400Y-132247452D01*
D16*
X121412000Y-129794000D03*
D18*
G36*
X120810959Y-130835033D02*
G01*
X120370967Y-129192959D01*
X122013041Y-128752967D01*
X122453033Y-130395041D01*
X120810959Y-130835033D01*
X120810959Y-130835033D01*
G37*
D16*
X98303645Y-130750201D03*
D17*
X98303645Y-130750201D02*
X98303645Y-130750201D01*
D16*
X100757097Y-130092801D03*
D17*
X100757097Y-130092801D02*
X100757097Y-130092801D01*
D16*
X103210548Y-129435400D03*
D17*
X103210548Y-129435400D02*
X103210548Y-129435400D01*
D16*
X105664000Y-128778000D03*
D18*
G36*
X106705033Y-129379041D02*
G01*
X105062959Y-129819033D01*
X104622967Y-128176959D01*
X106265041Y-127736967D01*
X106705033Y-129379041D01*
X106705033Y-129379041D01*
G37*
D16*
X88332201Y-146044355D03*
D17*
X88332201Y-146044355D02*
X88332201Y-146044355D01*
D16*
X87674801Y-143590903D03*
D17*
X87674801Y-143590903D02*
X87674801Y-143590903D01*
D16*
X87017400Y-141137452D03*
D17*
X87017400Y-141137452D02*
X87017400Y-141137452D01*
D16*
X86360000Y-138684000D03*
D18*
G36*
X85758959Y-139725033D02*
G01*
X85318967Y-138082959D01*
X86961041Y-137642967D01*
X87401033Y-139285041D01*
X85758959Y-139725033D01*
X85758959Y-139725033D01*
G37*
D13*
X116768739Y-132404748D03*
D11*
X117872799Y-137603127D03*
D12*
X118316537Y-136728472D02*
X117429061Y-138477782D01*
D11*
X112798810Y-140593258D03*
D12*
X112742846Y-140308007D02*
X112854774Y-140878509D01*
D10*
X110136383Y-140219612D03*
X115509532Y-140953962D03*
D13*
X98364521Y-106269723D03*
D11*
X98085521Y-111576723D03*
D12*
X98740516Y-110846719D02*
X97430526Y-112306727D01*
D11*
X92410521Y-113151723D03*
D12*
X92430292Y-112861707D02*
X92390750Y-113441739D01*
D10*
X89935521Y-112101722D03*
X94935521Y-114201723D03*
D19*
X159543750Y-55243750D03*
X159543750Y-47943750D03*
X155043750Y-47943750D03*
X155043750Y-55243750D03*
D20*
X155043750Y-53193750D03*
X155043750Y-52393750D03*
X155043750Y-51593750D03*
X155043750Y-50793750D03*
X155043750Y-49993750D03*
D21*
X88078000Y-58602000D03*
X96178000Y-52502000D03*
X93078000Y-57702000D03*
D22*
X88078000Y-49302000D03*
D13*
X136461500Y-60198000D03*
D11*
X136182500Y-65505000D03*
D12*
X136837495Y-64774996D02*
X135527505Y-66235004D01*
D11*
X130507500Y-67080000D03*
D12*
X130527271Y-66789984D02*
X130487729Y-67370016D01*
D10*
X128032500Y-66029999D03*
X133032500Y-68130000D03*
D13*
X98251447Y-137326790D03*
D11*
X99355507Y-142525169D03*
D12*
X99799245Y-141650514D02*
X98911769Y-143399824D01*
D11*
X94281518Y-145515300D03*
D12*
X94225554Y-145230049D02*
X94337482Y-145800551D01*
D10*
X91619091Y-145141654D03*
X96992240Y-145876004D03*
D13*
X193611500Y-106235500D03*
D11*
X193332500Y-111542500D03*
D12*
X193987495Y-110812496D02*
X192677505Y-112272504D01*
D11*
X187657500Y-113117500D03*
D12*
X187677271Y-112827484D02*
X187637729Y-113407516D01*
D10*
X185182500Y-112067499D03*
X190182500Y-114167500D03*
D13*
X193611500Y-87185500D03*
D11*
X193332500Y-92492500D03*
D12*
X193987495Y-91762496D02*
X192677505Y-93222504D01*
D11*
X187657500Y-94067500D03*
D12*
X187677271Y-93777484D02*
X187637729Y-94357516D01*
D10*
X185182500Y-93017499D03*
X190182500Y-95117500D03*
D13*
X193611500Y-68135500D03*
D11*
X193332500Y-73442500D03*
D12*
X193987495Y-72712496D02*
X192677505Y-74172504D01*
D11*
X187657500Y-75017500D03*
D12*
X187677271Y-74727484D02*
X187637729Y-75307516D01*
D10*
X185182500Y-73967499D03*
X190182500Y-76067500D03*
D13*
X174561500Y-109410500D03*
D11*
X174282500Y-114717500D03*
D12*
X174937495Y-113987496D02*
X173627505Y-115447504D01*
D11*
X168607500Y-116292500D03*
D12*
X168627271Y-116002484D02*
X168587729Y-116582516D01*
D10*
X166132500Y-115242499D03*
X171132500Y-117342500D03*
D13*
X174561500Y-90360500D03*
D11*
X174282500Y-95667500D03*
D12*
X174937495Y-94937496D02*
X173627505Y-96397504D01*
D11*
X168607500Y-97242500D03*
D12*
X168627271Y-96952484D02*
X168587729Y-97532516D01*
D10*
X166132500Y-96192499D03*
X171132500Y-98292500D03*
D13*
X174561500Y-71310500D03*
D11*
X174282500Y-76617500D03*
D12*
X174937495Y-75887496D02*
X173627505Y-77347504D01*
D11*
X168607500Y-78192500D03*
D12*
X168627271Y-77902484D02*
X168587729Y-78482516D01*
D10*
X166132500Y-77142499D03*
X171132500Y-79242500D03*
D13*
X155511500Y-122110500D03*
D11*
X155232500Y-127417500D03*
D12*
X155887495Y-126687496D02*
X154577505Y-128147504D01*
D11*
X149557500Y-128992500D03*
D12*
X149577271Y-128702484D02*
X149537729Y-129282516D01*
D10*
X147082500Y-127942499D03*
X152082500Y-130042500D03*
D13*
X155511500Y-103060500D03*
D11*
X155232500Y-108367500D03*
D12*
X155887495Y-107637496D02*
X154577505Y-109097504D01*
D11*
X149557500Y-109942500D03*
D12*
X149577271Y-109652484D02*
X149537729Y-110232516D01*
D10*
X147082500Y-108892499D03*
X152082500Y-110992500D03*
D13*
X155511500Y-84010500D03*
D11*
X155232500Y-89317500D03*
D12*
X155887495Y-88587496D02*
X154577505Y-90047504D01*
D11*
X149557500Y-90892500D03*
D12*
X149577271Y-90602484D02*
X149537729Y-91182516D01*
D10*
X147082500Y-89842499D03*
X152082500Y-91942500D03*
D13*
X155511500Y-64960500D03*
D11*
X155232500Y-70267500D03*
D12*
X155887495Y-69537496D02*
X154577505Y-70997504D01*
D11*
X149557500Y-71842500D03*
D12*
X149577271Y-71552484D02*
X149537729Y-72132516D01*
D10*
X147082500Y-70792499D03*
X152082500Y-72892500D03*
D13*
X136461500Y-117348000D03*
D11*
X136182500Y-122655000D03*
D12*
X136837495Y-121924996D02*
X135527505Y-123385004D01*
D11*
X130507500Y-124230000D03*
D12*
X130527271Y-123939984D02*
X130487729Y-124520016D01*
D10*
X128032500Y-123179999D03*
X133032500Y-125280000D03*
D13*
X136461500Y-98298000D03*
D11*
X136182500Y-103605000D03*
D12*
X136837495Y-102874996D02*
X135527505Y-104335004D01*
D11*
X130507500Y-105180000D03*
D12*
X130527271Y-104889984D02*
X130487729Y-105470016D01*
D10*
X128032500Y-104129999D03*
X133032500Y-106230000D03*
D13*
X136461500Y-79248000D03*
D11*
X136182500Y-84555000D03*
D12*
X136837495Y-83824996D02*
X135527505Y-85285004D01*
D11*
X130507500Y-86130000D03*
D12*
X130527271Y-85839984D02*
X130487729Y-86420016D01*
D10*
X128032500Y-85079999D03*
X133032500Y-87180000D03*
D13*
X117411500Y-110998000D03*
D11*
X117132500Y-116305000D03*
D12*
X117787495Y-115574996D02*
X116477505Y-117035004D01*
D11*
X111457500Y-117880000D03*
D12*
X111477271Y-117589984D02*
X111437729Y-118170016D01*
D10*
X108982500Y-116829999D03*
X113982500Y-118930000D03*
D13*
X117411500Y-91948000D03*
D11*
X117132500Y-97255000D03*
D12*
X117787495Y-96524996D02*
X116477505Y-97985004D01*
D11*
X111457500Y-98830000D03*
D12*
X111477271Y-98539984D02*
X111437729Y-99120016D01*
D10*
X108982500Y-97779999D03*
X113982500Y-99880000D03*
D13*
X117411500Y-72898000D03*
D11*
X117132500Y-78205000D03*
D12*
X117787495Y-77474996D02*
X116477505Y-78935004D01*
D11*
X111457500Y-79780000D03*
D12*
X111477271Y-79489984D02*
X111437729Y-80070016D01*
D10*
X108982500Y-78729999D03*
X113982500Y-80830000D03*
D13*
X98361500Y-87185500D03*
D11*
X98082500Y-92492500D03*
D12*
X98737495Y-91762496D02*
X97427505Y-93222504D01*
D11*
X92407500Y-94067500D03*
D12*
X92427271Y-93777484D02*
X92387729Y-94357516D01*
D10*
X89932500Y-93017499D03*
X94932500Y-95117500D03*
D13*
X98361500Y-68135500D03*
D11*
X98082500Y-73442500D03*
D12*
X98737495Y-72712496D02*
X97427505Y-74172504D01*
D11*
X92407500Y-75017500D03*
D12*
X92427271Y-74727484D02*
X92387729Y-75307516D01*
D10*
X89932500Y-73967499D03*
X94932500Y-76067500D03*
D23*
X110692000Y-57222000D03*
X116892000Y-53522000D03*
X110692000Y-53522000D03*
X116892000Y-57222000D03*
D24*
X112202000Y-60640000D03*
X104676500Y-59182000D03*
X104676500Y-50546000D03*
X105889500Y-53368500D03*
X120747000Y-67407000D03*
X120650000Y-64770000D03*
X99314000Y-53594000D03*
X141224000Y-74930000D03*
X113030000Y-50800000D03*
X141904000Y-94406000D03*
X136913066Y-55379066D03*
X125737066Y-55379066D03*
X125737066Y-64254934D03*
X118596000Y-66294000D03*
X141478000Y-113030000D03*
X141478000Y-113030000D03*
X114046000Y-50038000D03*
X115062000Y-51308000D03*
X128778000Y-54267010D03*
X128778000Y-54267010D03*
X138264990Y-54267010D03*
X140968000Y-133094000D03*
X152146000Y-56896000D03*
X116078000Y-51904000D03*
X98044000Y-50546000D03*
X105918000Y-51816000D03*
X111252000Y-68072000D03*
X110236000Y-66802000D03*
X112014000Y-67310000D03*
X113538000Y-70647000D03*
X113538000Y-70647000D03*
X129032000Y-70358000D03*
X135636000Y-70358000D03*
X163830000Y-62992000D03*
X183134000Y-65024000D03*
X151384000Y-53086000D03*
X116325933Y-68586067D03*
X124206000Y-55431962D03*
X151384000Y-50800000D03*
X115570000Y-67564000D03*
X123190000Y-55372000D03*
X105664000Y-63754000D03*
X143510000Y-57150000D03*
X109728000Y-50800000D03*
X122174000Y-54356000D03*
X105664000Y-61468000D03*
X122174000Y-62992000D03*
X117246000Y-66954000D03*
X129286000Y-50546000D03*
X99060000Y-65278000D03*
X110236000Y-68326000D03*
D25*
X180863312Y-133740620D02*
X181708350Y-135204269D01*
X181708350Y-135204269D02*
X187243850Y-136687501D01*
X182835513Y-126380265D02*
X180863312Y-133740620D01*
X183345166Y-124478214D02*
X182835513Y-126380265D01*
X196220174Y-129088193D02*
X196132897Y-129138582D01*
X191019800Y-126905876D02*
X195681358Y-128154937D01*
X195681358Y-128154937D02*
X196220174Y-129088193D01*
X196132897Y-129138582D02*
X195672849Y-130855502D01*
X182835513Y-126380265D02*
X183492735Y-127518607D01*
X187093013Y-140579465D02*
X191018535Y-141631306D01*
X197862410Y-137679993D02*
X199095203Y-133079146D01*
X191018535Y-141631306D02*
X197862410Y-137679993D01*
X176233601Y-136124202D02*
X186037422Y-138751128D01*
X186037422Y-138751128D02*
X187093013Y-140579465D01*
X175978000Y-137078120D02*
X176233601Y-136124202D01*
X173083601Y-138749202D02*
X175978000Y-137078120D01*
X199095203Y-133079146D02*
X200833606Y-132075478D01*
X187908948Y-128701928D02*
X191019800Y-126905876D01*
X183492735Y-127518607D02*
X187908948Y-128701928D01*
D26*
X116892000Y-58153000D02*
X116892000Y-57222000D01*
X114405000Y-60640000D02*
X116892000Y-58153000D01*
X112202000Y-60640000D02*
X114405000Y-60640000D01*
X121412000Y-129794000D02*
X123952000Y-129794000D01*
X123952000Y-129794000D02*
X125984000Y-131826000D01*
X125984000Y-134554556D02*
X123384201Y-137154355D01*
X125984000Y-131826000D02*
X125984000Y-134554556D01*
X104676500Y-53368500D02*
X105889500Y-53368500D01*
X104676500Y-53368500D02*
X104676500Y-59182000D01*
X104676500Y-50546000D02*
X104676500Y-53368500D01*
X155043750Y-47943750D02*
X159543750Y-47943750D01*
X159543750Y-47943750D02*
X159543750Y-55243750D01*
X157812750Y-55243750D02*
X155043750Y-55243750D01*
X159543750Y-55243750D02*
X157812750Y-55243750D01*
D27*
X154476250Y-49993750D02*
X154432000Y-50038000D01*
X155043750Y-49993750D02*
X154476250Y-49993750D01*
X152996500Y-50038000D02*
X150902250Y-47943750D01*
X154432000Y-50038000D02*
X152996500Y-50038000D01*
X88078000Y-49302000D02*
X88926000Y-49302000D01*
X88078000Y-49302000D02*
X89411000Y-49302000D01*
X89411000Y-49302000D02*
X90769250Y-47943750D01*
X97344250Y-47943750D02*
X155043750Y-47943750D01*
X90769250Y-47943750D02*
X97344250Y-47943750D01*
X120747000Y-66841315D02*
X120650000Y-66744315D01*
X120747000Y-67407000D02*
X120747000Y-66841315D01*
X120650000Y-66744315D02*
X120650000Y-64770000D01*
D25*
X141849989Y-74304011D02*
X141224000Y-74930000D01*
X114494038Y-50800000D02*
X114713039Y-50580999D01*
X113030000Y-50800000D02*
X114494038Y-50800000D01*
X114713039Y-50580999D02*
X124360932Y-50580999D01*
X124360932Y-50580999D02*
X127319943Y-53540010D01*
X127319943Y-53540010D02*
X133684076Y-53540010D01*
X141849989Y-61705923D02*
X141849989Y-74304011D01*
X133684076Y-53540010D02*
X141849989Y-61705923D01*
X142303999Y-61517867D02*
X141678009Y-60891877D01*
X141904000Y-94406000D02*
X142303999Y-94006001D01*
X142303999Y-94006001D02*
X142303999Y-61517867D01*
X141678009Y-60891877D02*
X136913066Y-56126934D01*
X136913066Y-56126934D02*
X136913066Y-55379066D01*
X125737066Y-55379066D02*
X125737066Y-64254934D01*
X142758009Y-111749991D02*
X141478000Y-113030000D01*
X142758009Y-60148047D02*
X142758009Y-111749991D01*
X135695962Y-53086000D02*
X142758009Y-60148047D01*
X127508000Y-53086000D02*
X135695962Y-53086000D01*
X124460000Y-50038000D02*
X127508000Y-53086000D01*
X114046000Y-50038000D02*
X124460000Y-50038000D01*
X115881685Y-51054000D02*
X124191867Y-51054000D01*
X115062000Y-51308000D02*
X115627685Y-51308000D01*
X115627685Y-51308000D02*
X115881685Y-51054000D01*
X124191867Y-51054000D02*
X127131886Y-53994020D01*
X127131886Y-53994020D02*
X128670020Y-53994020D01*
X128670020Y-53994020D02*
X128778000Y-54102000D01*
X128778000Y-54102000D02*
X128778000Y-54267010D01*
X143212019Y-112819981D02*
X140916010Y-115115990D01*
X140916010Y-115115990D02*
X140916010Y-129487990D01*
X143212019Y-59959990D02*
X143212019Y-112819981D01*
X143212018Y-59214038D02*
X143212019Y-59959990D01*
X138264990Y-54267010D02*
X143212018Y-59214038D01*
X140968000Y-129539980D02*
X140968000Y-133094000D01*
X140916010Y-129487990D02*
X140968000Y-129539980D01*
D26*
X154168750Y-53193750D02*
X152146000Y-55216500D01*
X155043750Y-53193750D02*
X154168750Y-53193750D01*
X152146000Y-55216500D02*
X152146000Y-56896000D01*
D25*
X89932500Y-73967499D02*
X89932500Y-75421500D01*
X91360520Y-112101722D02*
X92410521Y-113151723D01*
X89935521Y-112101722D02*
X91360520Y-112101722D01*
X90982501Y-94067500D02*
X92407500Y-94067500D01*
X89932500Y-93017499D02*
X90982501Y-94067500D01*
X91357499Y-73967499D02*
X92407500Y-75017500D01*
X89932500Y-73967499D02*
X91357499Y-73967499D01*
X89932500Y-73967499D02*
X87699999Y-76200000D01*
X87699999Y-109866200D02*
X89935521Y-112101722D01*
X87699999Y-109658001D02*
X87699999Y-109866200D01*
X101028500Y-68135500D02*
X98361500Y-68135500D01*
X87699999Y-113353999D02*
X90678000Y-116332000D01*
X87699999Y-109658001D02*
X87699999Y-113353999D01*
X101092000Y-68072000D02*
X101028500Y-68135500D01*
X90678000Y-116332000D02*
X100076000Y-116332000D01*
X100076000Y-116332000D02*
X102362000Y-114046000D01*
X102362000Y-69342000D02*
X101092000Y-68072000D01*
X102362000Y-102272244D02*
X102362000Y-101600000D01*
X98364521Y-106269723D02*
X102362000Y-102272244D01*
X102362000Y-83185000D02*
X102362000Y-82804000D01*
X98361500Y-87185500D02*
X102362000Y-83185000D01*
X102362000Y-101600000D02*
X102362000Y-82804000D01*
X102362000Y-82804000D02*
X102362000Y-69342000D01*
X102362000Y-109220000D02*
X102362000Y-113284000D01*
X102362000Y-119380000D02*
X102362000Y-109220000D01*
X100757097Y-120984903D02*
X102362000Y-119380000D01*
X100757097Y-130092801D02*
X100757097Y-120984903D01*
X102362000Y-114046000D02*
X102362000Y-113284000D01*
X102362000Y-113284000D02*
X102362000Y-101600000D01*
X115512315Y-51904000D02*
X115346315Y-52070000D01*
X116078000Y-51904000D02*
X115512315Y-51904000D01*
X115346315Y-52070000D02*
X114554000Y-52070000D01*
X114554000Y-52070000D02*
X114300000Y-51816000D01*
X114300000Y-51816000D02*
X105918000Y-51816000D01*
X101092000Y-68072000D02*
X100330000Y-68072000D01*
X100330000Y-68072000D02*
X98044000Y-65786000D01*
X98044000Y-65786000D02*
X98044000Y-50546000D01*
X87699999Y-90784998D02*
X87699999Y-90493999D01*
X89932500Y-93017499D02*
X87699999Y-90784998D01*
X87699999Y-76200000D02*
X87699999Y-90493999D01*
X87699999Y-90493999D02*
X87699999Y-109658001D01*
X116768739Y-130627261D02*
X116768739Y-132404748D01*
X103210548Y-131404548D02*
X104140000Y-132334000D01*
X103210548Y-129435400D02*
X103210548Y-131404548D01*
X116840000Y-130556000D02*
X116768739Y-130627261D01*
X104140000Y-132334000D02*
X108712000Y-132334000D01*
X108712000Y-132334000D02*
X111252000Y-129794000D01*
X111252000Y-129794000D02*
X116078000Y-129794000D01*
X116078000Y-129794000D02*
X116840000Y-130556000D01*
X103210548Y-131404548D02*
X103210548Y-139024548D01*
X104405612Y-140219612D02*
X110136383Y-140219612D01*
X103210548Y-139024548D02*
X104405612Y-140219612D01*
X110032501Y-117880000D02*
X111457500Y-117880000D01*
X108982500Y-116829999D02*
X110032501Y-117880000D01*
X110032501Y-79780000D02*
X111457500Y-79780000D01*
X108982500Y-78729999D02*
X110032501Y-79780000D01*
X110407499Y-97779999D02*
X111457500Y-98830000D01*
X108982500Y-97779999D02*
X110407499Y-97779999D01*
X108982500Y-78729999D02*
X106934000Y-80778499D01*
X106934000Y-114781499D02*
X108982500Y-116829999D01*
X106934000Y-95731499D02*
X106934000Y-94742000D01*
X108982500Y-97779999D02*
X106934000Y-95731499D01*
X106934000Y-80778499D02*
X106934000Y-94742000D01*
X106934000Y-114554000D02*
X106934000Y-114781499D01*
X106934000Y-94742000D02*
X106934000Y-114554000D01*
X120142000Y-72898000D02*
X117411500Y-72898000D01*
X106934000Y-117856000D02*
X109728000Y-120650000D01*
X119634000Y-120650000D02*
X121412000Y-118872000D01*
X109728000Y-120650000D02*
X119634000Y-120650000D01*
X121412000Y-74168000D02*
X120142000Y-72898000D01*
X121412000Y-87947500D02*
X121412000Y-87630000D01*
X117411500Y-91948000D02*
X121412000Y-87947500D01*
X121412000Y-87630000D02*
X121412000Y-74168000D01*
X121412000Y-106997500D02*
X121412000Y-106426000D01*
X117411500Y-110998000D02*
X121412000Y-106997500D01*
X121412000Y-118872000D02*
X121412000Y-106426000D01*
X121412000Y-106426000D02*
X121412000Y-87630000D01*
X106934000Y-114554000D02*
X106934000Y-117602000D01*
X106934000Y-117602000D02*
X106934000Y-117856000D01*
X106934000Y-122936000D02*
X106934000Y-117602000D01*
X103210548Y-129435400D02*
X103210548Y-126659452D01*
X103210548Y-126659452D02*
X106934000Y-122936000D01*
X111252000Y-68072000D02*
X111252000Y-70104000D01*
X111252000Y-70104000D02*
X112522000Y-71374000D01*
X112522000Y-71374000D02*
X120396000Y-71374000D01*
X121412000Y-72390000D02*
X121412000Y-74168000D01*
X120396000Y-71374000D02*
X121412000Y-72390000D01*
X129457499Y-85079999D02*
X130507500Y-86130000D01*
X128032500Y-85079999D02*
X129457499Y-85079999D01*
X129082501Y-105180000D02*
X130507500Y-105180000D01*
X128032500Y-104129999D02*
X129082501Y-105180000D01*
X129082501Y-124230000D02*
X130507500Y-124230000D01*
X128032500Y-123179999D02*
X129082501Y-124230000D01*
X128032500Y-85079999D02*
X125730000Y-87382499D01*
X125730000Y-120877499D02*
X128032500Y-123179999D01*
X125730000Y-101827499D02*
X125730000Y-101092000D01*
X128032500Y-104129999D02*
X125730000Y-101827499D01*
X125730000Y-87382499D02*
X125730000Y-101092000D01*
X125730000Y-120396000D02*
X125730000Y-123952000D01*
X125730000Y-120396000D02*
X125730000Y-120877499D01*
X125730000Y-101092000D02*
X125730000Y-120396000D01*
X125730000Y-123952000D02*
X129286000Y-127508000D01*
X129286000Y-127508000D02*
X137668000Y-127508000D01*
X137668000Y-127508000D02*
X140462000Y-124714000D01*
X140462000Y-67310000D02*
X140462000Y-62472102D01*
X136461500Y-60198000D02*
X139700000Y-60198000D01*
X140462000Y-60960000D02*
X140462000Y-62472102D01*
X139700000Y-60198000D02*
X140462000Y-60960000D01*
X140462000Y-94297500D02*
X140462000Y-93726000D01*
X136461500Y-98298000D02*
X140462000Y-94297500D01*
X140462000Y-113347500D02*
X140462000Y-112776000D01*
X136461500Y-117348000D02*
X140462000Y-113347500D01*
X140462000Y-124714000D02*
X140462000Y-112776000D01*
X140462000Y-112776000D02*
X140462000Y-93726000D01*
X140271500Y-75438000D02*
X140462000Y-75438000D01*
X136461500Y-79248000D02*
X140271500Y-75438000D01*
X140462000Y-93726000D02*
X140462000Y-75438000D01*
X140462000Y-75438000D02*
X140462000Y-67310000D01*
X129457499Y-66029999D02*
X130507500Y-67080000D01*
X128032500Y-66029999D02*
X129457499Y-66029999D01*
X111665039Y-66582999D02*
X112362961Y-66582999D01*
X110236000Y-66802000D02*
X111446038Y-66802000D01*
X111446038Y-66802000D02*
X111665039Y-66582999D01*
X125730000Y-87382499D02*
X125730000Y-68332499D01*
X123802970Y-70259530D02*
X125860250Y-68202250D01*
X116923434Y-70259530D02*
X123802970Y-70259530D01*
X113943923Y-67280019D02*
X116923434Y-70259530D01*
X112362961Y-66582999D02*
X113059981Y-67280019D01*
X125730000Y-68332499D02*
X125860250Y-68202250D01*
X113059981Y-67280019D02*
X113943923Y-67280019D01*
X125860250Y-68202250D02*
X128032500Y-66029999D01*
X147082500Y-127942499D02*
X144526000Y-125385999D01*
X144526000Y-73348999D02*
X147082500Y-70792499D01*
X144526000Y-87285999D02*
X144526000Y-86360000D01*
X147082500Y-89842499D02*
X144526000Y-87285999D01*
X144526000Y-86360000D02*
X144526000Y-73348999D01*
X144526000Y-106335999D02*
X144526000Y-105918000D01*
X147082500Y-108892499D02*
X144526000Y-106335999D01*
X144526000Y-105918000D02*
X144526000Y-86360000D01*
X144526000Y-125222000D02*
X144526000Y-129032000D01*
X144526000Y-125222000D02*
X144526000Y-105918000D01*
X144526000Y-125385999D02*
X144526000Y-125222000D01*
X144526000Y-129032000D02*
X147574000Y-132080000D01*
X147574000Y-132080000D02*
X156718000Y-132080000D01*
X156718000Y-132080000D02*
X159512000Y-129286000D01*
X158432500Y-64960500D02*
X155511500Y-64960500D01*
X159512000Y-66040000D02*
X158432500Y-64960500D01*
X155511500Y-84010500D02*
X159512000Y-80010000D01*
X159512000Y-80010000D02*
X159512000Y-66040000D01*
X159512000Y-99060000D02*
X159512000Y-98552000D01*
X155511500Y-103060500D02*
X159512000Y-99060000D01*
X159512000Y-98552000D02*
X159512000Y-80010000D01*
X155511500Y-122110500D02*
X159512000Y-118110000D01*
X159512000Y-129286000D02*
X159512000Y-118110000D01*
X159512000Y-118110000D02*
X159512000Y-98552000D01*
X148507499Y-70792499D02*
X149557500Y-71842500D01*
X147082500Y-70792499D02*
X148507499Y-70792499D01*
X112014000Y-67310000D02*
X112014000Y-70104000D01*
X112014000Y-70104000D02*
X112014000Y-70223934D01*
X112014000Y-70223934D02*
X112656066Y-70866000D01*
X112656066Y-70866000D02*
X113319000Y-70866000D01*
X113319000Y-70866000D02*
X113538000Y-70647000D01*
X129032000Y-70358000D02*
X135636000Y-70358000D01*
X148507499Y-89842499D02*
X149557500Y-90892500D01*
X147082500Y-89842499D02*
X148507499Y-89842499D01*
X148507499Y-108892499D02*
X149557500Y-109942500D01*
X147082500Y-108892499D02*
X148507499Y-108892499D01*
X148132501Y-128992500D02*
X149557500Y-128992500D01*
X147082500Y-127942499D02*
X148132501Y-128992500D01*
X166132500Y-77142499D02*
X163830000Y-79444999D01*
X163830000Y-112939999D02*
X166132500Y-115242499D01*
X163920001Y-93980000D02*
X163830000Y-93980000D01*
X166132500Y-96192499D02*
X163920001Y-93980000D01*
X163830000Y-79444999D02*
X163830000Y-93980000D01*
X163830000Y-112522000D02*
X163830000Y-117094000D01*
X163830000Y-112522000D02*
X163830000Y-112939999D01*
X163830000Y-93980000D02*
X163830000Y-112522000D01*
X163830000Y-117094000D02*
X166116000Y-119380000D01*
X166116000Y-119380000D02*
X176530000Y-119380000D01*
X176530000Y-119380000D02*
X178816000Y-117094000D01*
X177482500Y-71310500D02*
X174561500Y-71310500D01*
X178816000Y-72644000D02*
X177482500Y-71310500D01*
X178816000Y-86106000D02*
X178816000Y-85852000D01*
X174561500Y-90360500D02*
X178816000Y-86106000D01*
X178816000Y-85852000D02*
X178816000Y-72644000D01*
X178562000Y-105410000D02*
X178816000Y-105410000D01*
X174561500Y-109410500D02*
X178562000Y-105410000D01*
X178816000Y-117094000D02*
X178816000Y-105410000D01*
X178816000Y-105410000D02*
X178816000Y-85852000D01*
X163830000Y-65532000D02*
X163830000Y-62992000D01*
X163830000Y-65532000D02*
X163830000Y-65278000D01*
X163830000Y-79444999D02*
X163830000Y-65532000D01*
X167557499Y-77142499D02*
X168607500Y-78192500D01*
X166132500Y-77142499D02*
X167557499Y-77142499D01*
X167182501Y-116292500D02*
X168607500Y-116292500D01*
X166132500Y-115242499D02*
X167182501Y-116292500D01*
X167557499Y-96192499D02*
X168607500Y-97242500D01*
X166132500Y-96192499D02*
X167557499Y-96192499D01*
X185182500Y-73967499D02*
X183134000Y-76015999D01*
X183134000Y-110018999D02*
X185182500Y-112067499D01*
X183134000Y-90968999D02*
X183134000Y-90678000D01*
X185182500Y-93017499D02*
X183134000Y-90968999D01*
X183134000Y-76015999D02*
X183134000Y-90678000D01*
X183134000Y-90678000D02*
X183134000Y-110018999D01*
X196405500Y-68135500D02*
X193611500Y-68135500D01*
X183134000Y-113284000D02*
X186182000Y-116332000D01*
X183134000Y-110018999D02*
X183134000Y-113284000D01*
X186182000Y-116332000D02*
X194310000Y-116332000D01*
X194310000Y-116332000D02*
X197612000Y-113030000D01*
X197612000Y-69342000D02*
X196405500Y-68135500D01*
X197485000Y-83312000D02*
X197612000Y-83312000D01*
X193611500Y-87185500D02*
X197485000Y-83312000D01*
X197612000Y-83312000D02*
X197612000Y-69342000D01*
X197612000Y-102235000D02*
X197612000Y-101854000D01*
X193611500Y-106235500D02*
X197612000Y-102235000D01*
X197612000Y-113030000D02*
X197612000Y-101854000D01*
X197612000Y-101854000D02*
X197612000Y-83312000D01*
X183134000Y-76015999D02*
X183134000Y-65024000D01*
X186607499Y-112067499D02*
X187657500Y-113117500D01*
X185182500Y-112067499D02*
X186607499Y-112067499D01*
X186607499Y-93017499D02*
X185182500Y-93017499D01*
X187657500Y-94067500D02*
X186607499Y-93017499D01*
X186607499Y-73967499D02*
X187657500Y-75017500D01*
X185182500Y-73967499D02*
X186607499Y-73967499D01*
X152076250Y-52393750D02*
X155043750Y-52393750D01*
X151384000Y-53086000D02*
X152076250Y-52393750D01*
X116332000Y-68580000D02*
X116705934Y-68580000D01*
X116325933Y-68586067D02*
X116332000Y-68580000D01*
X121814416Y-69805520D02*
X123644010Y-67975926D01*
X116705934Y-68580000D02*
X117931453Y-69805520D01*
X117931453Y-69805520D02*
X121814416Y-69805520D01*
X123644010Y-55993952D02*
X124206000Y-55431962D01*
X123644010Y-67975926D02*
X123644010Y-55993952D01*
X152177750Y-51593750D02*
X155043750Y-51593750D01*
X151384000Y-50800000D02*
X152177750Y-51593750D01*
X116332000Y-67564000D02*
X115570000Y-67564000D01*
X118119510Y-69351510D02*
X116332000Y-67564000D01*
X123190000Y-67787869D02*
X121626359Y-69351510D01*
X121626359Y-69351510D02*
X118119510Y-69351510D01*
X123190000Y-67787869D02*
X123190000Y-62230000D01*
X123190000Y-62230000D02*
X123190000Y-55372000D01*
X109538000Y-53522000D02*
X106680000Y-56380000D01*
X110692000Y-53522000D02*
X109538000Y-53522000D01*
X106680000Y-56380000D02*
X106680000Y-62738000D01*
X106680000Y-62738000D02*
X105664000Y-63754000D01*
D26*
X90678000Y-55302000D02*
X93078000Y-57702000D01*
X90678000Y-51562000D02*
X90678000Y-55302000D01*
X93472000Y-48768000D02*
X90678000Y-51562000D01*
X143510000Y-57150000D02*
X143510000Y-50800000D01*
X143510000Y-50800000D02*
X141478000Y-48768000D01*
X109728000Y-50800000D02*
X109728000Y-48768000D01*
X122174000Y-48768000D02*
X109728000Y-48768000D01*
X109728000Y-48768000D02*
X105664000Y-48768000D01*
X122174000Y-62992000D02*
X122174000Y-54356000D01*
X129286000Y-48768000D02*
X129286000Y-50546000D01*
X129286000Y-48768000D02*
X122174000Y-48768000D01*
X141478000Y-48768000D02*
X129286000Y-48768000D01*
X103886000Y-48768000D02*
X93472000Y-48768000D01*
X105664000Y-48768000D02*
X103886000Y-48768000D01*
X103886000Y-65532000D02*
X106172000Y-67818000D01*
X103886000Y-61468000D02*
X105664000Y-61468000D01*
X103886000Y-48768000D02*
X103886000Y-61468000D01*
X103886000Y-65278000D02*
X99060000Y-65278000D01*
X103886000Y-65278000D02*
X103886000Y-65532000D01*
X103886000Y-61468000D02*
X103886000Y-65278000D01*
X106172000Y-67818000D02*
X109728000Y-67818000D01*
X109728000Y-67818000D02*
X110236000Y-68326000D01*
X122174000Y-65532000D02*
X122174000Y-62992000D01*
X122174000Y-68072000D02*
X122174000Y-65532000D01*
X121412000Y-68834000D02*
X122174000Y-68072000D01*
X118560315Y-68834000D02*
X121412000Y-68834000D01*
X117246000Y-66954000D02*
X117246000Y-67519685D01*
X117246000Y-67519685D02*
X118560315Y-68834000D01*
D25*
X99355507Y-143512737D02*
X99355507Y-142525169D01*
X96992240Y-145876004D02*
X99355507Y-143512737D01*
X120650000Y-133666852D02*
X122069400Y-132247452D01*
X120650000Y-138430000D02*
X120650000Y-133666852D01*
X115062000Y-144018000D02*
X120650000Y-138430000D01*
X110998000Y-144018000D02*
X115062000Y-144018000D01*
X99355507Y-142525169D02*
X109505169Y-142525169D01*
X109505169Y-142525169D02*
X110998000Y-144018000D01*
M02*
