G04 #@! TF.GenerationSoftware,KiCad,Pcbnew,(5.1.4)-1*
G04 #@! TF.CreationDate,2022-01-12T12:57:33-05:00*
G04 #@! TF.ProjectId,a44key-pcb-thumbs,6134346b-6579-42d7-9063-622d7468756d,rev?*
G04 #@! TF.SameCoordinates,Original*
G04 #@! TF.FileFunction,Copper,L2,Bot*
G04 #@! TF.FilePolarity,Positive*
%FSLAX46Y46*%
G04 Gerber Fmt 4.6, Leading zero omitted, Abs format (unit mm)*
G04 Created by KiCad (PCBNEW (5.1.4)-1) date 2022-01-12 12:57:33*
%MOMM*%
%LPD*%
G04 APERTURE LIST*
%ADD10C,1.300000*%
%ADD11C,2.250000*%
%ADD12C,2.250000*%
%ADD13C,2.000000*%
%ADD14O,1.700000X1.700000*%
%ADD15R,1.700000X1.700000*%
%ADD16C,0.254000*%
G04 APERTURE END LIST*
D10*
X118390348Y-135038919D03*
D11*
X118111348Y-140345919D03*
D12*
X118766343Y-139615915D02*
X117456353Y-141075923D01*
D11*
X112436348Y-141920919D03*
D12*
X112456119Y-141630903D02*
X112416577Y-142210935D01*
D13*
X109961348Y-140870918D03*
X114961348Y-142970919D03*
D14*
X87158959Y-141480357D03*
X87158959Y-138940357D03*
X87158959Y-136400357D03*
D15*
X87158959Y-133860357D03*
D14*
X123203628Y-141408971D03*
X123203628Y-138868971D03*
X123203628Y-136328971D03*
D15*
X123203628Y-133788971D03*
D14*
X101199934Y-145248469D03*
X103739934Y-145248469D03*
X106279934Y-145248469D03*
D15*
X108819934Y-145248469D03*
D10*
X98882622Y-135070695D03*
D11*
X98603622Y-140377695D03*
D12*
X99258617Y-139647691D02*
X97948627Y-141107699D01*
D11*
X92928622Y-141952695D03*
D12*
X92948393Y-141662679D02*
X92908851Y-142242711D01*
D13*
X90453622Y-140902694D03*
X95453622Y-143002695D03*
D16*
X88361040Y-138940357D02*
X88363397Y-138938000D01*
X87158959Y-138940357D02*
X88361040Y-138940357D01*
X90678000Y-138938000D02*
X92202000Y-137414000D01*
X88363397Y-138938000D02*
X90678000Y-138938000D01*
X92202000Y-137414000D02*
X92202000Y-133350000D01*
X92202000Y-133350000D02*
X93218000Y-132334000D01*
X93218000Y-132334000D02*
X105664000Y-132334000D01*
X105664000Y-132334000D02*
X107188000Y-133858000D01*
X107188000Y-138097570D02*
X109961348Y-140870918D01*
X107188000Y-133858000D02*
X107188000Y-138097570D01*
X121920000Y-137585343D02*
X123203628Y-138868971D01*
X121920000Y-136338653D02*
X121920000Y-137585343D01*
X118390348Y-135038919D02*
X120620266Y-135038919D01*
X120620266Y-135038919D02*
X121920000Y-136338653D01*
X118390348Y-134119681D02*
X118390348Y-135038919D01*
X116604667Y-132334000D02*
X118390348Y-134119681D01*
X107188000Y-133858000D02*
X108712000Y-132334000D01*
X108712000Y-132334000D02*
X116604667Y-132334000D01*
M02*
