G04 #@! TF.GenerationSoftware,KiCad,Pcbnew,(5.1.4)-1*
G04 #@! TF.CreationDate,2022-01-12T12:55:42-05:00*
G04 #@! TF.ProjectId,a44key-pcb,6134346b-6579-42d7-9063-622e6b696361,rev?*
G04 #@! TF.SameCoordinates,Original*
G04 #@! TF.FileFunction,Copper,L2,Bot*
G04 #@! TF.FilePolarity,Positive*
%FSLAX46Y46*%
G04 Gerber Fmt 4.6, Leading zero omitted, Abs format (unit mm)*
G04 Created by KiCad (PCBNEW (5.1.4)-1) date 2022-01-12 12:55:42*
%MOMM*%
%LPD*%
G04 APERTURE LIST*
%ADD10R,1.500000X1.000000*%
%ADD11C,2.000000*%
%ADD12C,2.250000*%
%ADD13C,2.250000*%
%ADD14C,1.300000*%
%ADD15C,1.700000*%
%ADD16C,1.700000*%
%ADD17C,0.100000*%
%ADD18C,0.975000*%
%ADD19R,1.500000X0.550000*%
%ADD20R,0.550000X1.500000*%
%ADD21O,1.700000X2.700000*%
%ADD22R,1.200000X0.900000*%
%ADD23R,1.800000X2.100000*%
%ADD24C,1.250000*%
%ADD25R,1.650000X1.650000*%
%ADD26C,1.650000*%
%ADD27C,0.800000*%
%ADD28C,0.500000*%
%ADD29C,0.254000*%
G04 APERTURE END LIST*
D10*
X93980000Y-132274000D03*
X93980000Y-133574000D03*
X93980000Y-134874000D03*
D11*
X113982500Y-88080000D03*
X118982500Y-90180001D03*
D12*
X116507500Y-89130000D03*
D13*
X116487729Y-89420016D02*
X116527271Y-88839984D01*
D12*
X110832500Y-90705000D03*
D13*
X110177505Y-91435004D02*
X111487495Y-89974996D01*
D14*
X110553500Y-96012000D03*
D11*
X190182500Y-102367500D03*
X195182500Y-104467501D03*
D12*
X192707500Y-103417500D03*
D13*
X192687729Y-103707516D02*
X192727271Y-103127484D01*
D12*
X187032500Y-104992500D03*
D13*
X186377505Y-105722504D02*
X187687495Y-104262496D01*
D14*
X186753500Y-110299500D03*
D11*
X190182500Y-83317500D03*
X195182500Y-85417501D03*
D12*
X192707500Y-84367500D03*
D13*
X192687729Y-84657516D02*
X192727271Y-84077484D01*
D12*
X187032500Y-85942500D03*
D13*
X186377505Y-86672504D02*
X187687495Y-85212496D01*
D14*
X186753500Y-91249500D03*
X117086239Y-132247126D03*
D12*
X118190299Y-137445505D03*
D13*
X118634037Y-136570850D02*
X117746561Y-138320160D01*
D12*
X113116310Y-140435636D03*
D13*
X113060346Y-140150385D02*
X113172274Y-140720887D01*
D11*
X110453883Y-140061990D03*
X115827032Y-140796340D03*
D15*
X88586201Y-146552355D03*
D16*
X88586201Y-146552355D02*
X88586201Y-146552355D01*
D15*
X87928801Y-144098903D03*
D16*
X87928801Y-144098903D02*
X87928801Y-144098903D01*
D15*
X87271400Y-141645452D03*
D16*
X87271400Y-141645452D02*
X87271400Y-141645452D01*
D15*
X86614000Y-139192000D03*
D17*
G36*
X86012959Y-140233033D02*
G01*
X85572967Y-138590959D01*
X87215041Y-138150967D01*
X87655033Y-139793041D01*
X86012959Y-140233033D01*
X86012959Y-140233033D01*
G37*
G36*
X117066142Y-118131674D02*
G01*
X117089803Y-118135184D01*
X117113007Y-118140996D01*
X117135529Y-118149054D01*
X117157153Y-118159282D01*
X117177670Y-118171579D01*
X117196883Y-118185829D01*
X117214607Y-118201893D01*
X117230671Y-118219617D01*
X117244921Y-118238830D01*
X117257218Y-118259347D01*
X117267446Y-118280971D01*
X117275504Y-118303493D01*
X117281316Y-118326697D01*
X117284826Y-118350358D01*
X117286000Y-118374250D01*
X117286000Y-118861750D01*
X117284826Y-118885642D01*
X117281316Y-118909303D01*
X117275504Y-118932507D01*
X117267446Y-118955029D01*
X117257218Y-118976653D01*
X117244921Y-118997170D01*
X117230671Y-119016383D01*
X117214607Y-119034107D01*
X117196883Y-119050171D01*
X117177670Y-119064421D01*
X117157153Y-119076718D01*
X117135529Y-119086946D01*
X117113007Y-119095004D01*
X117089803Y-119100816D01*
X117066142Y-119104326D01*
X117042250Y-119105500D01*
X116129750Y-119105500D01*
X116105858Y-119104326D01*
X116082197Y-119100816D01*
X116058993Y-119095004D01*
X116036471Y-119086946D01*
X116014847Y-119076718D01*
X115994330Y-119064421D01*
X115975117Y-119050171D01*
X115957393Y-119034107D01*
X115941329Y-119016383D01*
X115927079Y-118997170D01*
X115914782Y-118976653D01*
X115904554Y-118955029D01*
X115896496Y-118932507D01*
X115890684Y-118909303D01*
X115887174Y-118885642D01*
X115886000Y-118861750D01*
X115886000Y-118374250D01*
X115887174Y-118350358D01*
X115890684Y-118326697D01*
X115896496Y-118303493D01*
X115904554Y-118280971D01*
X115914782Y-118259347D01*
X115927079Y-118238830D01*
X115941329Y-118219617D01*
X115957393Y-118201893D01*
X115975117Y-118185829D01*
X115994330Y-118171579D01*
X116014847Y-118159282D01*
X116036471Y-118149054D01*
X116058993Y-118140996D01*
X116082197Y-118135184D01*
X116105858Y-118131674D01*
X116129750Y-118130500D01*
X117042250Y-118130500D01*
X117066142Y-118131674D01*
X117066142Y-118131674D01*
G37*
D18*
X116586000Y-118618000D03*
D17*
G36*
X117066142Y-120006674D02*
G01*
X117089803Y-120010184D01*
X117113007Y-120015996D01*
X117135529Y-120024054D01*
X117157153Y-120034282D01*
X117177670Y-120046579D01*
X117196883Y-120060829D01*
X117214607Y-120076893D01*
X117230671Y-120094617D01*
X117244921Y-120113830D01*
X117257218Y-120134347D01*
X117267446Y-120155971D01*
X117275504Y-120178493D01*
X117281316Y-120201697D01*
X117284826Y-120225358D01*
X117286000Y-120249250D01*
X117286000Y-120736750D01*
X117284826Y-120760642D01*
X117281316Y-120784303D01*
X117275504Y-120807507D01*
X117267446Y-120830029D01*
X117257218Y-120851653D01*
X117244921Y-120872170D01*
X117230671Y-120891383D01*
X117214607Y-120909107D01*
X117196883Y-120925171D01*
X117177670Y-120939421D01*
X117157153Y-120951718D01*
X117135529Y-120961946D01*
X117113007Y-120970004D01*
X117089803Y-120975816D01*
X117066142Y-120979326D01*
X117042250Y-120980500D01*
X116129750Y-120980500D01*
X116105858Y-120979326D01*
X116082197Y-120975816D01*
X116058993Y-120970004D01*
X116036471Y-120961946D01*
X116014847Y-120951718D01*
X115994330Y-120939421D01*
X115975117Y-120925171D01*
X115957393Y-120909107D01*
X115941329Y-120891383D01*
X115927079Y-120872170D01*
X115914782Y-120851653D01*
X115904554Y-120830029D01*
X115896496Y-120807507D01*
X115890684Y-120784303D01*
X115887174Y-120760642D01*
X115886000Y-120736750D01*
X115886000Y-120249250D01*
X115887174Y-120225358D01*
X115890684Y-120201697D01*
X115896496Y-120178493D01*
X115904554Y-120155971D01*
X115914782Y-120134347D01*
X115927079Y-120113830D01*
X115941329Y-120094617D01*
X115957393Y-120076893D01*
X115975117Y-120060829D01*
X115994330Y-120046579D01*
X116014847Y-120034282D01*
X116036471Y-120024054D01*
X116058993Y-120015996D01*
X116082197Y-120010184D01*
X116105858Y-120006674D01*
X116129750Y-120005500D01*
X117042250Y-120005500D01*
X117066142Y-120006674D01*
X117066142Y-120006674D01*
G37*
D18*
X116586000Y-120493000D03*
D17*
G36*
X94206142Y-121465674D02*
G01*
X94229803Y-121469184D01*
X94253007Y-121474996D01*
X94275529Y-121483054D01*
X94297153Y-121493282D01*
X94317670Y-121505579D01*
X94336883Y-121519829D01*
X94354607Y-121535893D01*
X94370671Y-121553617D01*
X94384921Y-121572830D01*
X94397218Y-121593347D01*
X94407446Y-121614971D01*
X94415504Y-121637493D01*
X94421316Y-121660697D01*
X94424826Y-121684358D01*
X94426000Y-121708250D01*
X94426000Y-122195750D01*
X94424826Y-122219642D01*
X94421316Y-122243303D01*
X94415504Y-122266507D01*
X94407446Y-122289029D01*
X94397218Y-122310653D01*
X94384921Y-122331170D01*
X94370671Y-122350383D01*
X94354607Y-122368107D01*
X94336883Y-122384171D01*
X94317670Y-122398421D01*
X94297153Y-122410718D01*
X94275529Y-122420946D01*
X94253007Y-122429004D01*
X94229803Y-122434816D01*
X94206142Y-122438326D01*
X94182250Y-122439500D01*
X93269750Y-122439500D01*
X93245858Y-122438326D01*
X93222197Y-122434816D01*
X93198993Y-122429004D01*
X93176471Y-122420946D01*
X93154847Y-122410718D01*
X93134330Y-122398421D01*
X93115117Y-122384171D01*
X93097393Y-122368107D01*
X93081329Y-122350383D01*
X93067079Y-122331170D01*
X93054782Y-122310653D01*
X93044554Y-122289029D01*
X93036496Y-122266507D01*
X93030684Y-122243303D01*
X93027174Y-122219642D01*
X93026000Y-122195750D01*
X93026000Y-121708250D01*
X93027174Y-121684358D01*
X93030684Y-121660697D01*
X93036496Y-121637493D01*
X93044554Y-121614971D01*
X93054782Y-121593347D01*
X93067079Y-121572830D01*
X93081329Y-121553617D01*
X93097393Y-121535893D01*
X93115117Y-121519829D01*
X93134330Y-121505579D01*
X93154847Y-121493282D01*
X93176471Y-121483054D01*
X93198993Y-121474996D01*
X93222197Y-121469184D01*
X93245858Y-121465674D01*
X93269750Y-121464500D01*
X94182250Y-121464500D01*
X94206142Y-121465674D01*
X94206142Y-121465674D01*
G37*
D18*
X93726000Y-121952000D03*
D17*
G36*
X94206142Y-123340674D02*
G01*
X94229803Y-123344184D01*
X94253007Y-123349996D01*
X94275529Y-123358054D01*
X94297153Y-123368282D01*
X94317670Y-123380579D01*
X94336883Y-123394829D01*
X94354607Y-123410893D01*
X94370671Y-123428617D01*
X94384921Y-123447830D01*
X94397218Y-123468347D01*
X94407446Y-123489971D01*
X94415504Y-123512493D01*
X94421316Y-123535697D01*
X94424826Y-123559358D01*
X94426000Y-123583250D01*
X94426000Y-124070750D01*
X94424826Y-124094642D01*
X94421316Y-124118303D01*
X94415504Y-124141507D01*
X94407446Y-124164029D01*
X94397218Y-124185653D01*
X94384921Y-124206170D01*
X94370671Y-124225383D01*
X94354607Y-124243107D01*
X94336883Y-124259171D01*
X94317670Y-124273421D01*
X94297153Y-124285718D01*
X94275529Y-124295946D01*
X94253007Y-124304004D01*
X94229803Y-124309816D01*
X94206142Y-124313326D01*
X94182250Y-124314500D01*
X93269750Y-124314500D01*
X93245858Y-124313326D01*
X93222197Y-124309816D01*
X93198993Y-124304004D01*
X93176471Y-124295946D01*
X93154847Y-124285718D01*
X93134330Y-124273421D01*
X93115117Y-124259171D01*
X93097393Y-124243107D01*
X93081329Y-124225383D01*
X93067079Y-124206170D01*
X93054782Y-124185653D01*
X93044554Y-124164029D01*
X93036496Y-124141507D01*
X93030684Y-124118303D01*
X93027174Y-124094642D01*
X93026000Y-124070750D01*
X93026000Y-123583250D01*
X93027174Y-123559358D01*
X93030684Y-123535697D01*
X93036496Y-123512493D01*
X93044554Y-123489971D01*
X93054782Y-123468347D01*
X93067079Y-123447830D01*
X93081329Y-123428617D01*
X93097393Y-123410893D01*
X93115117Y-123394829D01*
X93134330Y-123380579D01*
X93154847Y-123368282D01*
X93176471Y-123358054D01*
X93198993Y-123349996D01*
X93222197Y-123344184D01*
X93245858Y-123340674D01*
X93269750Y-123339500D01*
X94182250Y-123339500D01*
X94206142Y-123340674D01*
X94206142Y-123340674D01*
G37*
D18*
X93726000Y-123827000D03*
D17*
G36*
X103604142Y-113240674D02*
G01*
X103627803Y-113244184D01*
X103651007Y-113249996D01*
X103673529Y-113258054D01*
X103695153Y-113268282D01*
X103715670Y-113280579D01*
X103734883Y-113294829D01*
X103752607Y-113310893D01*
X103768671Y-113328617D01*
X103782921Y-113347830D01*
X103795218Y-113368347D01*
X103805446Y-113389971D01*
X103813504Y-113412493D01*
X103819316Y-113435697D01*
X103822826Y-113459358D01*
X103824000Y-113483250D01*
X103824000Y-113970750D01*
X103822826Y-113994642D01*
X103819316Y-114018303D01*
X103813504Y-114041507D01*
X103805446Y-114064029D01*
X103795218Y-114085653D01*
X103782921Y-114106170D01*
X103768671Y-114125383D01*
X103752607Y-114143107D01*
X103734883Y-114159171D01*
X103715670Y-114173421D01*
X103695153Y-114185718D01*
X103673529Y-114195946D01*
X103651007Y-114204004D01*
X103627803Y-114209816D01*
X103604142Y-114213326D01*
X103580250Y-114214500D01*
X102667750Y-114214500D01*
X102643858Y-114213326D01*
X102620197Y-114209816D01*
X102596993Y-114204004D01*
X102574471Y-114195946D01*
X102552847Y-114185718D01*
X102532330Y-114173421D01*
X102513117Y-114159171D01*
X102495393Y-114143107D01*
X102479329Y-114125383D01*
X102465079Y-114106170D01*
X102452782Y-114085653D01*
X102442554Y-114064029D01*
X102434496Y-114041507D01*
X102428684Y-114018303D01*
X102425174Y-113994642D01*
X102424000Y-113970750D01*
X102424000Y-113483250D01*
X102425174Y-113459358D01*
X102428684Y-113435697D01*
X102434496Y-113412493D01*
X102442554Y-113389971D01*
X102452782Y-113368347D01*
X102465079Y-113347830D01*
X102479329Y-113328617D01*
X102495393Y-113310893D01*
X102513117Y-113294829D01*
X102532330Y-113280579D01*
X102552847Y-113268282D01*
X102574471Y-113258054D01*
X102596993Y-113249996D01*
X102620197Y-113244184D01*
X102643858Y-113240674D01*
X102667750Y-113239500D01*
X103580250Y-113239500D01*
X103604142Y-113240674D01*
X103604142Y-113240674D01*
G37*
D18*
X103124000Y-113727000D03*
D17*
G36*
X103604142Y-115115674D02*
G01*
X103627803Y-115119184D01*
X103651007Y-115124996D01*
X103673529Y-115133054D01*
X103695153Y-115143282D01*
X103715670Y-115155579D01*
X103734883Y-115169829D01*
X103752607Y-115185893D01*
X103768671Y-115203617D01*
X103782921Y-115222830D01*
X103795218Y-115243347D01*
X103805446Y-115264971D01*
X103813504Y-115287493D01*
X103819316Y-115310697D01*
X103822826Y-115334358D01*
X103824000Y-115358250D01*
X103824000Y-115845750D01*
X103822826Y-115869642D01*
X103819316Y-115893303D01*
X103813504Y-115916507D01*
X103805446Y-115939029D01*
X103795218Y-115960653D01*
X103782921Y-115981170D01*
X103768671Y-116000383D01*
X103752607Y-116018107D01*
X103734883Y-116034171D01*
X103715670Y-116048421D01*
X103695153Y-116060718D01*
X103673529Y-116070946D01*
X103651007Y-116079004D01*
X103627803Y-116084816D01*
X103604142Y-116088326D01*
X103580250Y-116089500D01*
X102667750Y-116089500D01*
X102643858Y-116088326D01*
X102620197Y-116084816D01*
X102596993Y-116079004D01*
X102574471Y-116070946D01*
X102552847Y-116060718D01*
X102532330Y-116048421D01*
X102513117Y-116034171D01*
X102495393Y-116018107D01*
X102479329Y-116000383D01*
X102465079Y-115981170D01*
X102452782Y-115960653D01*
X102442554Y-115939029D01*
X102434496Y-115916507D01*
X102428684Y-115893303D01*
X102425174Y-115869642D01*
X102424000Y-115845750D01*
X102424000Y-115358250D01*
X102425174Y-115334358D01*
X102428684Y-115310697D01*
X102434496Y-115287493D01*
X102442554Y-115264971D01*
X102452782Y-115243347D01*
X102465079Y-115222830D01*
X102479329Y-115203617D01*
X102495393Y-115185893D01*
X102513117Y-115169829D01*
X102532330Y-115155579D01*
X102552847Y-115143282D01*
X102574471Y-115133054D01*
X102596993Y-115124996D01*
X102620197Y-115119184D01*
X102643858Y-115115674D01*
X102667750Y-115114500D01*
X103580250Y-115114500D01*
X103604142Y-115115674D01*
X103604142Y-115115674D01*
G37*
D18*
X103124000Y-115602000D03*
D19*
X96078000Y-120350000D03*
X96078000Y-121150000D03*
X96078000Y-121950000D03*
X96078000Y-122750000D03*
X96078000Y-123550000D03*
X96078000Y-124350000D03*
X96078000Y-125150000D03*
X96078000Y-125950000D03*
X96078000Y-126750000D03*
X96078000Y-127550000D03*
X96078000Y-128350000D03*
D20*
X97778000Y-130050000D03*
X98578000Y-130050000D03*
X99378000Y-130050000D03*
X100178000Y-130050000D03*
X100978000Y-130050000D03*
X101778000Y-130050000D03*
X102578000Y-130050000D03*
X103378000Y-130050000D03*
X104178000Y-130050000D03*
X104978000Y-130050000D03*
X105778000Y-130050000D03*
D19*
X107478000Y-128350000D03*
X107478000Y-127550000D03*
X107478000Y-126750000D03*
X107478000Y-125950000D03*
X107478000Y-125150000D03*
X107478000Y-124350000D03*
X107478000Y-123550000D03*
X107478000Y-122750000D03*
X107478000Y-121950000D03*
X107478000Y-121150000D03*
X107478000Y-120350000D03*
D20*
X105778000Y-118650000D03*
X104978000Y-118650000D03*
X104178000Y-118650000D03*
X103378000Y-118650000D03*
X102578000Y-118650000D03*
X101778000Y-118650000D03*
X100978000Y-118650000D03*
X100178000Y-118650000D03*
X99378000Y-118650000D03*
X98578000Y-118650000D03*
X97778000Y-118650000D03*
D17*
G36*
X106107142Y-131667174D02*
G01*
X106130803Y-131670684D01*
X106154007Y-131676496D01*
X106176529Y-131684554D01*
X106198153Y-131694782D01*
X106218670Y-131707079D01*
X106237883Y-131721329D01*
X106255607Y-131737393D01*
X106271671Y-131755117D01*
X106285921Y-131774330D01*
X106298218Y-131794847D01*
X106308446Y-131816471D01*
X106316504Y-131838993D01*
X106322316Y-131862197D01*
X106325826Y-131885858D01*
X106327000Y-131909750D01*
X106327000Y-132822250D01*
X106325826Y-132846142D01*
X106322316Y-132869803D01*
X106316504Y-132893007D01*
X106308446Y-132915529D01*
X106298218Y-132937153D01*
X106285921Y-132957670D01*
X106271671Y-132976883D01*
X106255607Y-132994607D01*
X106237883Y-133010671D01*
X106218670Y-133024921D01*
X106198153Y-133037218D01*
X106176529Y-133047446D01*
X106154007Y-133055504D01*
X106130803Y-133061316D01*
X106107142Y-133064826D01*
X106083250Y-133066000D01*
X105595750Y-133066000D01*
X105571858Y-133064826D01*
X105548197Y-133061316D01*
X105524993Y-133055504D01*
X105502471Y-133047446D01*
X105480847Y-133037218D01*
X105460330Y-133024921D01*
X105441117Y-133010671D01*
X105423393Y-132994607D01*
X105407329Y-132976883D01*
X105393079Y-132957670D01*
X105380782Y-132937153D01*
X105370554Y-132915529D01*
X105362496Y-132893007D01*
X105356684Y-132869803D01*
X105353174Y-132846142D01*
X105352000Y-132822250D01*
X105352000Y-131909750D01*
X105353174Y-131885858D01*
X105356684Y-131862197D01*
X105362496Y-131838993D01*
X105370554Y-131816471D01*
X105380782Y-131794847D01*
X105393079Y-131774330D01*
X105407329Y-131755117D01*
X105423393Y-131737393D01*
X105441117Y-131721329D01*
X105460330Y-131707079D01*
X105480847Y-131694782D01*
X105502471Y-131684554D01*
X105524993Y-131676496D01*
X105548197Y-131670684D01*
X105571858Y-131667174D01*
X105595750Y-131666000D01*
X106083250Y-131666000D01*
X106107142Y-131667174D01*
X106107142Y-131667174D01*
G37*
D18*
X105839500Y-132366000D03*
D17*
G36*
X104232142Y-131667174D02*
G01*
X104255803Y-131670684D01*
X104279007Y-131676496D01*
X104301529Y-131684554D01*
X104323153Y-131694782D01*
X104343670Y-131707079D01*
X104362883Y-131721329D01*
X104380607Y-131737393D01*
X104396671Y-131755117D01*
X104410921Y-131774330D01*
X104423218Y-131794847D01*
X104433446Y-131816471D01*
X104441504Y-131838993D01*
X104447316Y-131862197D01*
X104450826Y-131885858D01*
X104452000Y-131909750D01*
X104452000Y-132822250D01*
X104450826Y-132846142D01*
X104447316Y-132869803D01*
X104441504Y-132893007D01*
X104433446Y-132915529D01*
X104423218Y-132937153D01*
X104410921Y-132957670D01*
X104396671Y-132976883D01*
X104380607Y-132994607D01*
X104362883Y-133010671D01*
X104343670Y-133024921D01*
X104323153Y-133037218D01*
X104301529Y-133047446D01*
X104279007Y-133055504D01*
X104255803Y-133061316D01*
X104232142Y-133064826D01*
X104208250Y-133066000D01*
X103720750Y-133066000D01*
X103696858Y-133064826D01*
X103673197Y-133061316D01*
X103649993Y-133055504D01*
X103627471Y-133047446D01*
X103605847Y-133037218D01*
X103585330Y-133024921D01*
X103566117Y-133010671D01*
X103548393Y-132994607D01*
X103532329Y-132976883D01*
X103518079Y-132957670D01*
X103505782Y-132937153D01*
X103495554Y-132915529D01*
X103487496Y-132893007D01*
X103481684Y-132869803D01*
X103478174Y-132846142D01*
X103477000Y-132822250D01*
X103477000Y-131909750D01*
X103478174Y-131885858D01*
X103481684Y-131862197D01*
X103487496Y-131838993D01*
X103495554Y-131816471D01*
X103505782Y-131794847D01*
X103518079Y-131774330D01*
X103532329Y-131755117D01*
X103548393Y-131737393D01*
X103566117Y-131721329D01*
X103585330Y-131707079D01*
X103605847Y-131694782D01*
X103627471Y-131684554D01*
X103649993Y-131676496D01*
X103673197Y-131670684D01*
X103696858Y-131667174D01*
X103720750Y-131666000D01*
X104208250Y-131666000D01*
X104232142Y-131667174D01*
X104232142Y-131667174D01*
G37*
D18*
X103964500Y-132366000D03*
D15*
X123384201Y-137154355D03*
D16*
X123384201Y-137154355D02*
X123384201Y-137154355D01*
D15*
X122726801Y-134700903D03*
D16*
X122726801Y-134700903D02*
X122726801Y-134700903D01*
D15*
X122069400Y-132247452D03*
D16*
X122069400Y-132247452D02*
X122069400Y-132247452D01*
D15*
X121412000Y-129794000D03*
D17*
G36*
X120810959Y-130835033D02*
G01*
X120370967Y-129192959D01*
X122013041Y-128752967D01*
X122453033Y-130395041D01*
X120810959Y-130835033D01*
X120810959Y-130835033D01*
G37*
D15*
X103124000Y-146558000D03*
D16*
X103124000Y-146558000D02*
X103124000Y-146558000D01*
D15*
X105577452Y-145900600D03*
D16*
X105577452Y-145900600D02*
X105577452Y-145900600D01*
D15*
X108030903Y-145243199D03*
D16*
X108030903Y-145243199D02*
X108030903Y-145243199D01*
D15*
X110484355Y-144585799D03*
D17*
G36*
X109443322Y-143984758D02*
G01*
X111085396Y-143544766D01*
X111525388Y-145186840D01*
X109883314Y-145626832D01*
X109443322Y-143984758D01*
X109443322Y-143984758D01*
G37*
D21*
X121412000Y-52324000D03*
X114112000Y-52324000D03*
X114112000Y-56824000D03*
X121412000Y-56824000D03*
D17*
G36*
X117066142Y-126037674D02*
G01*
X117089803Y-126041184D01*
X117113007Y-126046996D01*
X117135529Y-126055054D01*
X117157153Y-126065282D01*
X117177670Y-126077579D01*
X117196883Y-126091829D01*
X117214607Y-126107893D01*
X117230671Y-126125617D01*
X117244921Y-126144830D01*
X117257218Y-126165347D01*
X117267446Y-126186971D01*
X117275504Y-126209493D01*
X117281316Y-126232697D01*
X117284826Y-126256358D01*
X117286000Y-126280250D01*
X117286000Y-126767750D01*
X117284826Y-126791642D01*
X117281316Y-126815303D01*
X117275504Y-126838507D01*
X117267446Y-126861029D01*
X117257218Y-126882653D01*
X117244921Y-126903170D01*
X117230671Y-126922383D01*
X117214607Y-126940107D01*
X117196883Y-126956171D01*
X117177670Y-126970421D01*
X117157153Y-126982718D01*
X117135529Y-126992946D01*
X117113007Y-127001004D01*
X117089803Y-127006816D01*
X117066142Y-127010326D01*
X117042250Y-127011500D01*
X116129750Y-127011500D01*
X116105858Y-127010326D01*
X116082197Y-127006816D01*
X116058993Y-127001004D01*
X116036471Y-126992946D01*
X116014847Y-126982718D01*
X115994330Y-126970421D01*
X115975117Y-126956171D01*
X115957393Y-126940107D01*
X115941329Y-126922383D01*
X115927079Y-126903170D01*
X115914782Y-126882653D01*
X115904554Y-126861029D01*
X115896496Y-126838507D01*
X115890684Y-126815303D01*
X115887174Y-126791642D01*
X115886000Y-126767750D01*
X115886000Y-126280250D01*
X115887174Y-126256358D01*
X115890684Y-126232697D01*
X115896496Y-126209493D01*
X115904554Y-126186971D01*
X115914782Y-126165347D01*
X115927079Y-126144830D01*
X115941329Y-126125617D01*
X115957393Y-126107893D01*
X115975117Y-126091829D01*
X115994330Y-126077579D01*
X116014847Y-126065282D01*
X116036471Y-126055054D01*
X116058993Y-126046996D01*
X116082197Y-126041184D01*
X116105858Y-126037674D01*
X116129750Y-126036500D01*
X117042250Y-126036500D01*
X117066142Y-126037674D01*
X117066142Y-126037674D01*
G37*
D18*
X116586000Y-126524000D03*
D17*
G36*
X117066142Y-127912674D02*
G01*
X117089803Y-127916184D01*
X117113007Y-127921996D01*
X117135529Y-127930054D01*
X117157153Y-127940282D01*
X117177670Y-127952579D01*
X117196883Y-127966829D01*
X117214607Y-127982893D01*
X117230671Y-128000617D01*
X117244921Y-128019830D01*
X117257218Y-128040347D01*
X117267446Y-128061971D01*
X117275504Y-128084493D01*
X117281316Y-128107697D01*
X117284826Y-128131358D01*
X117286000Y-128155250D01*
X117286000Y-128642750D01*
X117284826Y-128666642D01*
X117281316Y-128690303D01*
X117275504Y-128713507D01*
X117267446Y-128736029D01*
X117257218Y-128757653D01*
X117244921Y-128778170D01*
X117230671Y-128797383D01*
X117214607Y-128815107D01*
X117196883Y-128831171D01*
X117177670Y-128845421D01*
X117157153Y-128857718D01*
X117135529Y-128867946D01*
X117113007Y-128876004D01*
X117089803Y-128881816D01*
X117066142Y-128885326D01*
X117042250Y-128886500D01*
X116129750Y-128886500D01*
X116105858Y-128885326D01*
X116082197Y-128881816D01*
X116058993Y-128876004D01*
X116036471Y-128867946D01*
X116014847Y-128857718D01*
X115994330Y-128845421D01*
X115975117Y-128831171D01*
X115957393Y-128815107D01*
X115941329Y-128797383D01*
X115927079Y-128778170D01*
X115914782Y-128757653D01*
X115904554Y-128736029D01*
X115896496Y-128713507D01*
X115890684Y-128690303D01*
X115887174Y-128666642D01*
X115886000Y-128642750D01*
X115886000Y-128155250D01*
X115887174Y-128131358D01*
X115890684Y-128107697D01*
X115896496Y-128084493D01*
X115904554Y-128061971D01*
X115914782Y-128040347D01*
X115927079Y-128019830D01*
X115941329Y-128000617D01*
X115957393Y-127982893D01*
X115975117Y-127966829D01*
X115994330Y-127952579D01*
X116014847Y-127940282D01*
X116036471Y-127930054D01*
X116058993Y-127921996D01*
X116082197Y-127916184D01*
X116105858Y-127912674D01*
X116129750Y-127911500D01*
X117042250Y-127911500D01*
X117066142Y-127912674D01*
X117066142Y-127912674D01*
G37*
D18*
X116586000Y-128399000D03*
D17*
G36*
X98270142Y-131672174D02*
G01*
X98293803Y-131675684D01*
X98317007Y-131681496D01*
X98339529Y-131689554D01*
X98361153Y-131699782D01*
X98381670Y-131712079D01*
X98400883Y-131726329D01*
X98418607Y-131742393D01*
X98434671Y-131760117D01*
X98448921Y-131779330D01*
X98461218Y-131799847D01*
X98471446Y-131821471D01*
X98479504Y-131843993D01*
X98485316Y-131867197D01*
X98488826Y-131890858D01*
X98490000Y-131914750D01*
X98490000Y-132402250D01*
X98488826Y-132426142D01*
X98485316Y-132449803D01*
X98479504Y-132473007D01*
X98471446Y-132495529D01*
X98461218Y-132517153D01*
X98448921Y-132537670D01*
X98434671Y-132556883D01*
X98418607Y-132574607D01*
X98400883Y-132590671D01*
X98381670Y-132604921D01*
X98361153Y-132617218D01*
X98339529Y-132627446D01*
X98317007Y-132635504D01*
X98293803Y-132641316D01*
X98270142Y-132644826D01*
X98246250Y-132646000D01*
X97333750Y-132646000D01*
X97309858Y-132644826D01*
X97286197Y-132641316D01*
X97262993Y-132635504D01*
X97240471Y-132627446D01*
X97218847Y-132617218D01*
X97198330Y-132604921D01*
X97179117Y-132590671D01*
X97161393Y-132574607D01*
X97145329Y-132556883D01*
X97131079Y-132537670D01*
X97118782Y-132517153D01*
X97108554Y-132495529D01*
X97100496Y-132473007D01*
X97094684Y-132449803D01*
X97091174Y-132426142D01*
X97090000Y-132402250D01*
X97090000Y-131914750D01*
X97091174Y-131890858D01*
X97094684Y-131867197D01*
X97100496Y-131843993D01*
X97108554Y-131821471D01*
X97118782Y-131799847D01*
X97131079Y-131779330D01*
X97145329Y-131760117D01*
X97161393Y-131742393D01*
X97179117Y-131726329D01*
X97198330Y-131712079D01*
X97218847Y-131699782D01*
X97240471Y-131689554D01*
X97262993Y-131681496D01*
X97286197Y-131675684D01*
X97309858Y-131672174D01*
X97333750Y-131671000D01*
X98246250Y-131671000D01*
X98270142Y-131672174D01*
X98270142Y-131672174D01*
G37*
D18*
X97790000Y-132158500D03*
D17*
G36*
X98270142Y-133547174D02*
G01*
X98293803Y-133550684D01*
X98317007Y-133556496D01*
X98339529Y-133564554D01*
X98361153Y-133574782D01*
X98381670Y-133587079D01*
X98400883Y-133601329D01*
X98418607Y-133617393D01*
X98434671Y-133635117D01*
X98448921Y-133654330D01*
X98461218Y-133674847D01*
X98471446Y-133696471D01*
X98479504Y-133718993D01*
X98485316Y-133742197D01*
X98488826Y-133765858D01*
X98490000Y-133789750D01*
X98490000Y-134277250D01*
X98488826Y-134301142D01*
X98485316Y-134324803D01*
X98479504Y-134348007D01*
X98471446Y-134370529D01*
X98461218Y-134392153D01*
X98448921Y-134412670D01*
X98434671Y-134431883D01*
X98418607Y-134449607D01*
X98400883Y-134465671D01*
X98381670Y-134479921D01*
X98361153Y-134492218D01*
X98339529Y-134502446D01*
X98317007Y-134510504D01*
X98293803Y-134516316D01*
X98270142Y-134519826D01*
X98246250Y-134521000D01*
X97333750Y-134521000D01*
X97309858Y-134519826D01*
X97286197Y-134516316D01*
X97262993Y-134510504D01*
X97240471Y-134502446D01*
X97218847Y-134492218D01*
X97198330Y-134479921D01*
X97179117Y-134465671D01*
X97161393Y-134449607D01*
X97145329Y-134431883D01*
X97131079Y-134412670D01*
X97118782Y-134392153D01*
X97108554Y-134370529D01*
X97100496Y-134348007D01*
X97094684Y-134324803D01*
X97091174Y-134301142D01*
X97090000Y-134277250D01*
X97090000Y-133789750D01*
X97091174Y-133765858D01*
X97094684Y-133742197D01*
X97100496Y-133718993D01*
X97108554Y-133696471D01*
X97118782Y-133674847D01*
X97131079Y-133654330D01*
X97145329Y-133635117D01*
X97161393Y-133617393D01*
X97179117Y-133601329D01*
X97198330Y-133587079D01*
X97218847Y-133574782D01*
X97240471Y-133564554D01*
X97262993Y-133556496D01*
X97286197Y-133550684D01*
X97309858Y-133547174D01*
X97333750Y-133546000D01*
X98246250Y-133546000D01*
X98270142Y-133547174D01*
X98270142Y-133547174D01*
G37*
D18*
X97790000Y-134033500D03*
D22*
X132334000Y-126492000D03*
X132334000Y-129792000D03*
X125730000Y-107442000D03*
X125730000Y-110742000D03*
X128270000Y-107442000D03*
X128270000Y-110742000D03*
X129794000Y-126492000D03*
X129794000Y-129792000D03*
X134874000Y-126492000D03*
X134874000Y-129792000D03*
X135890000Y-107442000D03*
X135890000Y-110742000D03*
X138430000Y-107442000D03*
X138430000Y-110742000D03*
X137414000Y-126492000D03*
X137414000Y-129792000D03*
D17*
G36*
X94206142Y-127307674D02*
G01*
X94229803Y-127311184D01*
X94253007Y-127316996D01*
X94275529Y-127325054D01*
X94297153Y-127335282D01*
X94317670Y-127347579D01*
X94336883Y-127361829D01*
X94354607Y-127377893D01*
X94370671Y-127395617D01*
X94384921Y-127414830D01*
X94397218Y-127435347D01*
X94407446Y-127456971D01*
X94415504Y-127479493D01*
X94421316Y-127502697D01*
X94424826Y-127526358D01*
X94426000Y-127550250D01*
X94426000Y-128037750D01*
X94424826Y-128061642D01*
X94421316Y-128085303D01*
X94415504Y-128108507D01*
X94407446Y-128131029D01*
X94397218Y-128152653D01*
X94384921Y-128173170D01*
X94370671Y-128192383D01*
X94354607Y-128210107D01*
X94336883Y-128226171D01*
X94317670Y-128240421D01*
X94297153Y-128252718D01*
X94275529Y-128262946D01*
X94253007Y-128271004D01*
X94229803Y-128276816D01*
X94206142Y-128280326D01*
X94182250Y-128281500D01*
X93269750Y-128281500D01*
X93245858Y-128280326D01*
X93222197Y-128276816D01*
X93198993Y-128271004D01*
X93176471Y-128262946D01*
X93154847Y-128252718D01*
X93134330Y-128240421D01*
X93115117Y-128226171D01*
X93097393Y-128210107D01*
X93081329Y-128192383D01*
X93067079Y-128173170D01*
X93054782Y-128152653D01*
X93044554Y-128131029D01*
X93036496Y-128108507D01*
X93030684Y-128085303D01*
X93027174Y-128061642D01*
X93026000Y-128037750D01*
X93026000Y-127550250D01*
X93027174Y-127526358D01*
X93030684Y-127502697D01*
X93036496Y-127479493D01*
X93044554Y-127456971D01*
X93054782Y-127435347D01*
X93067079Y-127414830D01*
X93081329Y-127395617D01*
X93097393Y-127377893D01*
X93115117Y-127361829D01*
X93134330Y-127347579D01*
X93154847Y-127335282D01*
X93176471Y-127325054D01*
X93198993Y-127316996D01*
X93222197Y-127311184D01*
X93245858Y-127307674D01*
X93269750Y-127306500D01*
X94182250Y-127306500D01*
X94206142Y-127307674D01*
X94206142Y-127307674D01*
G37*
D18*
X93726000Y-127794000D03*
D17*
G36*
X94206142Y-129182674D02*
G01*
X94229803Y-129186184D01*
X94253007Y-129191996D01*
X94275529Y-129200054D01*
X94297153Y-129210282D01*
X94317670Y-129222579D01*
X94336883Y-129236829D01*
X94354607Y-129252893D01*
X94370671Y-129270617D01*
X94384921Y-129289830D01*
X94397218Y-129310347D01*
X94407446Y-129331971D01*
X94415504Y-129354493D01*
X94421316Y-129377697D01*
X94424826Y-129401358D01*
X94426000Y-129425250D01*
X94426000Y-129912750D01*
X94424826Y-129936642D01*
X94421316Y-129960303D01*
X94415504Y-129983507D01*
X94407446Y-130006029D01*
X94397218Y-130027653D01*
X94384921Y-130048170D01*
X94370671Y-130067383D01*
X94354607Y-130085107D01*
X94336883Y-130101171D01*
X94317670Y-130115421D01*
X94297153Y-130127718D01*
X94275529Y-130137946D01*
X94253007Y-130146004D01*
X94229803Y-130151816D01*
X94206142Y-130155326D01*
X94182250Y-130156500D01*
X93269750Y-130156500D01*
X93245858Y-130155326D01*
X93222197Y-130151816D01*
X93198993Y-130146004D01*
X93176471Y-130137946D01*
X93154847Y-130127718D01*
X93134330Y-130115421D01*
X93115117Y-130101171D01*
X93097393Y-130085107D01*
X93081329Y-130067383D01*
X93067079Y-130048170D01*
X93054782Y-130027653D01*
X93044554Y-130006029D01*
X93036496Y-129983507D01*
X93030684Y-129960303D01*
X93027174Y-129936642D01*
X93026000Y-129912750D01*
X93026000Y-129425250D01*
X93027174Y-129401358D01*
X93030684Y-129377697D01*
X93036496Y-129354493D01*
X93044554Y-129331971D01*
X93054782Y-129310347D01*
X93067079Y-129289830D01*
X93081329Y-129270617D01*
X93097393Y-129252893D01*
X93115117Y-129236829D01*
X93134330Y-129222579D01*
X93154847Y-129210282D01*
X93176471Y-129200054D01*
X93198993Y-129191996D01*
X93222197Y-129186184D01*
X93245858Y-129182674D01*
X93269750Y-129181500D01*
X94182250Y-129181500D01*
X94206142Y-129182674D01*
X94206142Y-129182674D01*
G37*
D18*
X93726000Y-129669000D03*
D17*
G36*
X112789642Y-119983174D02*
G01*
X112813303Y-119986684D01*
X112836507Y-119992496D01*
X112859029Y-120000554D01*
X112880653Y-120010782D01*
X112901170Y-120023079D01*
X112920383Y-120037329D01*
X112938107Y-120053393D01*
X112954171Y-120071117D01*
X112968421Y-120090330D01*
X112980718Y-120110847D01*
X112990946Y-120132471D01*
X112999004Y-120154993D01*
X113004816Y-120178197D01*
X113008326Y-120201858D01*
X113009500Y-120225750D01*
X113009500Y-121138250D01*
X113008326Y-121162142D01*
X113004816Y-121185803D01*
X112999004Y-121209007D01*
X112990946Y-121231529D01*
X112980718Y-121253153D01*
X112968421Y-121273670D01*
X112954171Y-121292883D01*
X112938107Y-121310607D01*
X112920383Y-121326671D01*
X112901170Y-121340921D01*
X112880653Y-121353218D01*
X112859029Y-121363446D01*
X112836507Y-121371504D01*
X112813303Y-121377316D01*
X112789642Y-121380826D01*
X112765750Y-121382000D01*
X112278250Y-121382000D01*
X112254358Y-121380826D01*
X112230697Y-121377316D01*
X112207493Y-121371504D01*
X112184971Y-121363446D01*
X112163347Y-121353218D01*
X112142830Y-121340921D01*
X112123617Y-121326671D01*
X112105893Y-121310607D01*
X112089829Y-121292883D01*
X112075579Y-121273670D01*
X112063282Y-121253153D01*
X112053054Y-121231529D01*
X112044996Y-121209007D01*
X112039184Y-121185803D01*
X112035674Y-121162142D01*
X112034500Y-121138250D01*
X112034500Y-120225750D01*
X112035674Y-120201858D01*
X112039184Y-120178197D01*
X112044996Y-120154993D01*
X112053054Y-120132471D01*
X112063282Y-120110847D01*
X112075579Y-120090330D01*
X112089829Y-120071117D01*
X112105893Y-120053393D01*
X112123617Y-120037329D01*
X112142830Y-120023079D01*
X112163347Y-120010782D01*
X112184971Y-120000554D01*
X112207493Y-119992496D01*
X112230697Y-119986684D01*
X112254358Y-119983174D01*
X112278250Y-119982000D01*
X112765750Y-119982000D01*
X112789642Y-119983174D01*
X112789642Y-119983174D01*
G37*
D18*
X112522000Y-120682000D03*
D17*
G36*
X110914642Y-119983174D02*
G01*
X110938303Y-119986684D01*
X110961507Y-119992496D01*
X110984029Y-120000554D01*
X111005653Y-120010782D01*
X111026170Y-120023079D01*
X111045383Y-120037329D01*
X111063107Y-120053393D01*
X111079171Y-120071117D01*
X111093421Y-120090330D01*
X111105718Y-120110847D01*
X111115946Y-120132471D01*
X111124004Y-120154993D01*
X111129816Y-120178197D01*
X111133326Y-120201858D01*
X111134500Y-120225750D01*
X111134500Y-121138250D01*
X111133326Y-121162142D01*
X111129816Y-121185803D01*
X111124004Y-121209007D01*
X111115946Y-121231529D01*
X111105718Y-121253153D01*
X111093421Y-121273670D01*
X111079171Y-121292883D01*
X111063107Y-121310607D01*
X111045383Y-121326671D01*
X111026170Y-121340921D01*
X111005653Y-121353218D01*
X110984029Y-121363446D01*
X110961507Y-121371504D01*
X110938303Y-121377316D01*
X110914642Y-121380826D01*
X110890750Y-121382000D01*
X110403250Y-121382000D01*
X110379358Y-121380826D01*
X110355697Y-121377316D01*
X110332493Y-121371504D01*
X110309971Y-121363446D01*
X110288347Y-121353218D01*
X110267830Y-121340921D01*
X110248617Y-121326671D01*
X110230893Y-121310607D01*
X110214829Y-121292883D01*
X110200579Y-121273670D01*
X110188282Y-121253153D01*
X110178054Y-121231529D01*
X110169996Y-121209007D01*
X110164184Y-121185803D01*
X110160674Y-121162142D01*
X110159500Y-121138250D01*
X110159500Y-120225750D01*
X110160674Y-120201858D01*
X110164184Y-120178197D01*
X110169996Y-120154993D01*
X110178054Y-120132471D01*
X110188282Y-120110847D01*
X110200579Y-120090330D01*
X110214829Y-120071117D01*
X110230893Y-120053393D01*
X110248617Y-120037329D01*
X110267830Y-120023079D01*
X110288347Y-120010782D01*
X110309971Y-120000554D01*
X110332493Y-119992496D01*
X110355697Y-119986684D01*
X110379358Y-119983174D01*
X110403250Y-119982000D01*
X110890750Y-119982000D01*
X110914642Y-119983174D01*
X110914642Y-119983174D01*
G37*
D18*
X110647000Y-120682000D03*
D17*
G36*
X94206142Y-117988174D02*
G01*
X94229803Y-117991684D01*
X94253007Y-117997496D01*
X94275529Y-118005554D01*
X94297153Y-118015782D01*
X94317670Y-118028079D01*
X94336883Y-118042329D01*
X94354607Y-118058393D01*
X94370671Y-118076117D01*
X94384921Y-118095330D01*
X94397218Y-118115847D01*
X94407446Y-118137471D01*
X94415504Y-118159993D01*
X94421316Y-118183197D01*
X94424826Y-118206858D01*
X94426000Y-118230750D01*
X94426000Y-118718250D01*
X94424826Y-118742142D01*
X94421316Y-118765803D01*
X94415504Y-118789007D01*
X94407446Y-118811529D01*
X94397218Y-118833153D01*
X94384921Y-118853670D01*
X94370671Y-118872883D01*
X94354607Y-118890607D01*
X94336883Y-118906671D01*
X94317670Y-118920921D01*
X94297153Y-118933218D01*
X94275529Y-118943446D01*
X94253007Y-118951504D01*
X94229803Y-118957316D01*
X94206142Y-118960826D01*
X94182250Y-118962000D01*
X93269750Y-118962000D01*
X93245858Y-118960826D01*
X93222197Y-118957316D01*
X93198993Y-118951504D01*
X93176471Y-118943446D01*
X93154847Y-118933218D01*
X93134330Y-118920921D01*
X93115117Y-118906671D01*
X93097393Y-118890607D01*
X93081329Y-118872883D01*
X93067079Y-118853670D01*
X93054782Y-118833153D01*
X93044554Y-118811529D01*
X93036496Y-118789007D01*
X93030684Y-118765803D01*
X93027174Y-118742142D01*
X93026000Y-118718250D01*
X93026000Y-118230750D01*
X93027174Y-118206858D01*
X93030684Y-118183197D01*
X93036496Y-118159993D01*
X93044554Y-118137471D01*
X93054782Y-118115847D01*
X93067079Y-118095330D01*
X93081329Y-118076117D01*
X93097393Y-118058393D01*
X93115117Y-118042329D01*
X93134330Y-118028079D01*
X93154847Y-118015782D01*
X93176471Y-118005554D01*
X93198993Y-117997496D01*
X93222197Y-117991684D01*
X93245858Y-117988174D01*
X93269750Y-117987000D01*
X94182250Y-117987000D01*
X94206142Y-117988174D01*
X94206142Y-117988174D01*
G37*
D18*
X93726000Y-118474500D03*
D17*
G36*
X94206142Y-119863174D02*
G01*
X94229803Y-119866684D01*
X94253007Y-119872496D01*
X94275529Y-119880554D01*
X94297153Y-119890782D01*
X94317670Y-119903079D01*
X94336883Y-119917329D01*
X94354607Y-119933393D01*
X94370671Y-119951117D01*
X94384921Y-119970330D01*
X94397218Y-119990847D01*
X94407446Y-120012471D01*
X94415504Y-120034993D01*
X94421316Y-120058197D01*
X94424826Y-120081858D01*
X94426000Y-120105750D01*
X94426000Y-120593250D01*
X94424826Y-120617142D01*
X94421316Y-120640803D01*
X94415504Y-120664007D01*
X94407446Y-120686529D01*
X94397218Y-120708153D01*
X94384921Y-120728670D01*
X94370671Y-120747883D01*
X94354607Y-120765607D01*
X94336883Y-120781671D01*
X94317670Y-120795921D01*
X94297153Y-120808218D01*
X94275529Y-120818446D01*
X94253007Y-120826504D01*
X94229803Y-120832316D01*
X94206142Y-120835826D01*
X94182250Y-120837000D01*
X93269750Y-120837000D01*
X93245858Y-120835826D01*
X93222197Y-120832316D01*
X93198993Y-120826504D01*
X93176471Y-120818446D01*
X93154847Y-120808218D01*
X93134330Y-120795921D01*
X93115117Y-120781671D01*
X93097393Y-120765607D01*
X93081329Y-120747883D01*
X93067079Y-120728670D01*
X93054782Y-120708153D01*
X93044554Y-120686529D01*
X93036496Y-120664007D01*
X93030684Y-120640803D01*
X93027174Y-120617142D01*
X93026000Y-120593250D01*
X93026000Y-120105750D01*
X93027174Y-120081858D01*
X93030684Y-120058197D01*
X93036496Y-120034993D01*
X93044554Y-120012471D01*
X93054782Y-119990847D01*
X93067079Y-119970330D01*
X93081329Y-119951117D01*
X93097393Y-119933393D01*
X93115117Y-119917329D01*
X93134330Y-119903079D01*
X93154847Y-119890782D01*
X93176471Y-119880554D01*
X93198993Y-119872496D01*
X93222197Y-119866684D01*
X93245858Y-119863174D01*
X93269750Y-119862000D01*
X94182250Y-119862000D01*
X94206142Y-119863174D01*
X94206142Y-119863174D01*
G37*
D18*
X93726000Y-120349500D03*
D17*
G36*
X97000142Y-113162174D02*
G01*
X97023803Y-113165684D01*
X97047007Y-113171496D01*
X97069529Y-113179554D01*
X97091153Y-113189782D01*
X97111670Y-113202079D01*
X97130883Y-113216329D01*
X97148607Y-113232393D01*
X97164671Y-113250117D01*
X97178921Y-113269330D01*
X97191218Y-113289847D01*
X97201446Y-113311471D01*
X97209504Y-113333993D01*
X97215316Y-113357197D01*
X97218826Y-113380858D01*
X97220000Y-113404750D01*
X97220000Y-113892250D01*
X97218826Y-113916142D01*
X97215316Y-113939803D01*
X97209504Y-113963007D01*
X97201446Y-113985529D01*
X97191218Y-114007153D01*
X97178921Y-114027670D01*
X97164671Y-114046883D01*
X97148607Y-114064607D01*
X97130883Y-114080671D01*
X97111670Y-114094921D01*
X97091153Y-114107218D01*
X97069529Y-114117446D01*
X97047007Y-114125504D01*
X97023803Y-114131316D01*
X97000142Y-114134826D01*
X96976250Y-114136000D01*
X96063750Y-114136000D01*
X96039858Y-114134826D01*
X96016197Y-114131316D01*
X95992993Y-114125504D01*
X95970471Y-114117446D01*
X95948847Y-114107218D01*
X95928330Y-114094921D01*
X95909117Y-114080671D01*
X95891393Y-114064607D01*
X95875329Y-114046883D01*
X95861079Y-114027670D01*
X95848782Y-114007153D01*
X95838554Y-113985529D01*
X95830496Y-113963007D01*
X95824684Y-113939803D01*
X95821174Y-113916142D01*
X95820000Y-113892250D01*
X95820000Y-113404750D01*
X95821174Y-113380858D01*
X95824684Y-113357197D01*
X95830496Y-113333993D01*
X95838554Y-113311471D01*
X95848782Y-113289847D01*
X95861079Y-113269330D01*
X95875329Y-113250117D01*
X95891393Y-113232393D01*
X95909117Y-113216329D01*
X95928330Y-113202079D01*
X95948847Y-113189782D01*
X95970471Y-113179554D01*
X95992993Y-113171496D01*
X96016197Y-113165684D01*
X96039858Y-113162174D01*
X96063750Y-113161000D01*
X96976250Y-113161000D01*
X97000142Y-113162174D01*
X97000142Y-113162174D01*
G37*
D18*
X96520000Y-113648500D03*
D17*
G36*
X97000142Y-115037174D02*
G01*
X97023803Y-115040684D01*
X97047007Y-115046496D01*
X97069529Y-115054554D01*
X97091153Y-115064782D01*
X97111670Y-115077079D01*
X97130883Y-115091329D01*
X97148607Y-115107393D01*
X97164671Y-115125117D01*
X97178921Y-115144330D01*
X97191218Y-115164847D01*
X97201446Y-115186471D01*
X97209504Y-115208993D01*
X97215316Y-115232197D01*
X97218826Y-115255858D01*
X97220000Y-115279750D01*
X97220000Y-115767250D01*
X97218826Y-115791142D01*
X97215316Y-115814803D01*
X97209504Y-115838007D01*
X97201446Y-115860529D01*
X97191218Y-115882153D01*
X97178921Y-115902670D01*
X97164671Y-115921883D01*
X97148607Y-115939607D01*
X97130883Y-115955671D01*
X97111670Y-115969921D01*
X97091153Y-115982218D01*
X97069529Y-115992446D01*
X97047007Y-116000504D01*
X97023803Y-116006316D01*
X97000142Y-116009826D01*
X96976250Y-116011000D01*
X96063750Y-116011000D01*
X96039858Y-116009826D01*
X96016197Y-116006316D01*
X95992993Y-116000504D01*
X95970471Y-115992446D01*
X95948847Y-115982218D01*
X95928330Y-115969921D01*
X95909117Y-115955671D01*
X95891393Y-115939607D01*
X95875329Y-115921883D01*
X95861079Y-115902670D01*
X95848782Y-115882153D01*
X95838554Y-115860529D01*
X95830496Y-115838007D01*
X95824684Y-115814803D01*
X95821174Y-115791142D01*
X95820000Y-115767250D01*
X95820000Y-115279750D01*
X95821174Y-115255858D01*
X95824684Y-115232197D01*
X95830496Y-115208993D01*
X95838554Y-115186471D01*
X95848782Y-115164847D01*
X95861079Y-115144330D01*
X95875329Y-115125117D01*
X95891393Y-115107393D01*
X95909117Y-115091329D01*
X95928330Y-115077079D01*
X95948847Y-115064782D01*
X95970471Y-115054554D01*
X95992993Y-115046496D01*
X96016197Y-115040684D01*
X96039858Y-115037174D01*
X96063750Y-115036000D01*
X96976250Y-115036000D01*
X97000142Y-115037174D01*
X97000142Y-115037174D01*
G37*
D18*
X96520000Y-115523500D03*
D17*
G36*
X118336142Y-60806174D02*
G01*
X118359803Y-60809684D01*
X118383007Y-60815496D01*
X118405529Y-60823554D01*
X118427153Y-60833782D01*
X118447670Y-60846079D01*
X118466883Y-60860329D01*
X118484607Y-60876393D01*
X118500671Y-60894117D01*
X118514921Y-60913330D01*
X118527218Y-60933847D01*
X118537446Y-60955471D01*
X118545504Y-60977993D01*
X118551316Y-61001197D01*
X118554826Y-61024858D01*
X118556000Y-61048750D01*
X118556000Y-61536250D01*
X118554826Y-61560142D01*
X118551316Y-61583803D01*
X118545504Y-61607007D01*
X118537446Y-61629529D01*
X118527218Y-61651153D01*
X118514921Y-61671670D01*
X118500671Y-61690883D01*
X118484607Y-61708607D01*
X118466883Y-61724671D01*
X118447670Y-61738921D01*
X118427153Y-61751218D01*
X118405529Y-61761446D01*
X118383007Y-61769504D01*
X118359803Y-61775316D01*
X118336142Y-61778826D01*
X118312250Y-61780000D01*
X117399750Y-61780000D01*
X117375858Y-61778826D01*
X117352197Y-61775316D01*
X117328993Y-61769504D01*
X117306471Y-61761446D01*
X117284847Y-61751218D01*
X117264330Y-61738921D01*
X117245117Y-61724671D01*
X117227393Y-61708607D01*
X117211329Y-61690883D01*
X117197079Y-61671670D01*
X117184782Y-61651153D01*
X117174554Y-61629529D01*
X117166496Y-61607007D01*
X117160684Y-61583803D01*
X117157174Y-61560142D01*
X117156000Y-61536250D01*
X117156000Y-61048750D01*
X117157174Y-61024858D01*
X117160684Y-61001197D01*
X117166496Y-60977993D01*
X117174554Y-60955471D01*
X117184782Y-60933847D01*
X117197079Y-60913330D01*
X117211329Y-60894117D01*
X117227393Y-60876393D01*
X117245117Y-60860329D01*
X117264330Y-60846079D01*
X117284847Y-60833782D01*
X117306471Y-60823554D01*
X117328993Y-60815496D01*
X117352197Y-60809684D01*
X117375858Y-60806174D01*
X117399750Y-60805000D01*
X118312250Y-60805000D01*
X118336142Y-60806174D01*
X118336142Y-60806174D01*
G37*
D18*
X117856000Y-61292500D03*
D17*
G36*
X118336142Y-62681174D02*
G01*
X118359803Y-62684684D01*
X118383007Y-62690496D01*
X118405529Y-62698554D01*
X118427153Y-62708782D01*
X118447670Y-62721079D01*
X118466883Y-62735329D01*
X118484607Y-62751393D01*
X118500671Y-62769117D01*
X118514921Y-62788330D01*
X118527218Y-62808847D01*
X118537446Y-62830471D01*
X118545504Y-62852993D01*
X118551316Y-62876197D01*
X118554826Y-62899858D01*
X118556000Y-62923750D01*
X118556000Y-63411250D01*
X118554826Y-63435142D01*
X118551316Y-63458803D01*
X118545504Y-63482007D01*
X118537446Y-63504529D01*
X118527218Y-63526153D01*
X118514921Y-63546670D01*
X118500671Y-63565883D01*
X118484607Y-63583607D01*
X118466883Y-63599671D01*
X118447670Y-63613921D01*
X118427153Y-63626218D01*
X118405529Y-63636446D01*
X118383007Y-63644504D01*
X118359803Y-63650316D01*
X118336142Y-63653826D01*
X118312250Y-63655000D01*
X117399750Y-63655000D01*
X117375858Y-63653826D01*
X117352197Y-63650316D01*
X117328993Y-63644504D01*
X117306471Y-63636446D01*
X117284847Y-63626218D01*
X117264330Y-63613921D01*
X117245117Y-63599671D01*
X117227393Y-63583607D01*
X117211329Y-63565883D01*
X117197079Y-63546670D01*
X117184782Y-63526153D01*
X117174554Y-63504529D01*
X117166496Y-63482007D01*
X117160684Y-63458803D01*
X117157174Y-63435142D01*
X117156000Y-63411250D01*
X117156000Y-62923750D01*
X117157174Y-62899858D01*
X117160684Y-62876197D01*
X117166496Y-62852993D01*
X117174554Y-62830471D01*
X117184782Y-62808847D01*
X117197079Y-62788330D01*
X117211329Y-62769117D01*
X117227393Y-62751393D01*
X117245117Y-62735329D01*
X117264330Y-62721079D01*
X117284847Y-62708782D01*
X117306471Y-62698554D01*
X117328993Y-62690496D01*
X117352197Y-62684684D01*
X117375858Y-62681174D01*
X117399750Y-62680000D01*
X118312250Y-62680000D01*
X118336142Y-62681174D01*
X118336142Y-62681174D01*
G37*
D18*
X117856000Y-63167500D03*
D23*
X113806000Y-127392000D03*
X113806000Y-124492000D03*
X111506000Y-124492000D03*
X111506000Y-127392000D03*
D17*
G36*
X116050142Y-60806174D02*
G01*
X116073803Y-60809684D01*
X116097007Y-60815496D01*
X116119529Y-60823554D01*
X116141153Y-60833782D01*
X116161670Y-60846079D01*
X116180883Y-60860329D01*
X116198607Y-60876393D01*
X116214671Y-60894117D01*
X116228921Y-60913330D01*
X116241218Y-60933847D01*
X116251446Y-60955471D01*
X116259504Y-60977993D01*
X116265316Y-61001197D01*
X116268826Y-61024858D01*
X116270000Y-61048750D01*
X116270000Y-61536250D01*
X116268826Y-61560142D01*
X116265316Y-61583803D01*
X116259504Y-61607007D01*
X116251446Y-61629529D01*
X116241218Y-61651153D01*
X116228921Y-61671670D01*
X116214671Y-61690883D01*
X116198607Y-61708607D01*
X116180883Y-61724671D01*
X116161670Y-61738921D01*
X116141153Y-61751218D01*
X116119529Y-61761446D01*
X116097007Y-61769504D01*
X116073803Y-61775316D01*
X116050142Y-61778826D01*
X116026250Y-61780000D01*
X115113750Y-61780000D01*
X115089858Y-61778826D01*
X115066197Y-61775316D01*
X115042993Y-61769504D01*
X115020471Y-61761446D01*
X114998847Y-61751218D01*
X114978330Y-61738921D01*
X114959117Y-61724671D01*
X114941393Y-61708607D01*
X114925329Y-61690883D01*
X114911079Y-61671670D01*
X114898782Y-61651153D01*
X114888554Y-61629529D01*
X114880496Y-61607007D01*
X114874684Y-61583803D01*
X114871174Y-61560142D01*
X114870000Y-61536250D01*
X114870000Y-61048750D01*
X114871174Y-61024858D01*
X114874684Y-61001197D01*
X114880496Y-60977993D01*
X114888554Y-60955471D01*
X114898782Y-60933847D01*
X114911079Y-60913330D01*
X114925329Y-60894117D01*
X114941393Y-60876393D01*
X114959117Y-60860329D01*
X114978330Y-60846079D01*
X114998847Y-60833782D01*
X115020471Y-60823554D01*
X115042993Y-60815496D01*
X115066197Y-60809684D01*
X115089858Y-60806174D01*
X115113750Y-60805000D01*
X116026250Y-60805000D01*
X116050142Y-60806174D01*
X116050142Y-60806174D01*
G37*
D18*
X115570000Y-61292500D03*
D17*
G36*
X116050142Y-62681174D02*
G01*
X116073803Y-62684684D01*
X116097007Y-62690496D01*
X116119529Y-62698554D01*
X116141153Y-62708782D01*
X116161670Y-62721079D01*
X116180883Y-62735329D01*
X116198607Y-62751393D01*
X116214671Y-62769117D01*
X116228921Y-62788330D01*
X116241218Y-62808847D01*
X116251446Y-62830471D01*
X116259504Y-62852993D01*
X116265316Y-62876197D01*
X116268826Y-62899858D01*
X116270000Y-62923750D01*
X116270000Y-63411250D01*
X116268826Y-63435142D01*
X116265316Y-63458803D01*
X116259504Y-63482007D01*
X116251446Y-63504529D01*
X116241218Y-63526153D01*
X116228921Y-63546670D01*
X116214671Y-63565883D01*
X116198607Y-63583607D01*
X116180883Y-63599671D01*
X116161670Y-63613921D01*
X116141153Y-63626218D01*
X116119529Y-63636446D01*
X116097007Y-63644504D01*
X116073803Y-63650316D01*
X116050142Y-63653826D01*
X116026250Y-63655000D01*
X115113750Y-63655000D01*
X115089858Y-63653826D01*
X115066197Y-63650316D01*
X115042993Y-63644504D01*
X115020471Y-63636446D01*
X114998847Y-63626218D01*
X114978330Y-63613921D01*
X114959117Y-63599671D01*
X114941393Y-63583607D01*
X114925329Y-63565883D01*
X114911079Y-63546670D01*
X114898782Y-63526153D01*
X114888554Y-63504529D01*
X114880496Y-63482007D01*
X114874684Y-63458803D01*
X114871174Y-63435142D01*
X114870000Y-63411250D01*
X114870000Y-62923750D01*
X114871174Y-62899858D01*
X114874684Y-62876197D01*
X114880496Y-62852993D01*
X114888554Y-62830471D01*
X114898782Y-62808847D01*
X114911079Y-62788330D01*
X114925329Y-62769117D01*
X114941393Y-62751393D01*
X114959117Y-62735329D01*
X114978330Y-62721079D01*
X114998847Y-62708782D01*
X115020471Y-62698554D01*
X115042993Y-62690496D01*
X115066197Y-62684684D01*
X115089858Y-62681174D01*
X115113750Y-62680000D01*
X116026250Y-62680000D01*
X116050142Y-62681174D01*
X116050142Y-62681174D01*
G37*
D18*
X115570000Y-63167500D03*
D17*
G36*
X111011642Y-117951174D02*
G01*
X111035303Y-117954684D01*
X111058507Y-117960496D01*
X111081029Y-117968554D01*
X111102653Y-117978782D01*
X111123170Y-117991079D01*
X111142383Y-118005329D01*
X111160107Y-118021393D01*
X111176171Y-118039117D01*
X111190421Y-118058330D01*
X111202718Y-118078847D01*
X111212946Y-118100471D01*
X111221004Y-118122993D01*
X111226816Y-118146197D01*
X111230326Y-118169858D01*
X111231500Y-118193750D01*
X111231500Y-119106250D01*
X111230326Y-119130142D01*
X111226816Y-119153803D01*
X111221004Y-119177007D01*
X111212946Y-119199529D01*
X111202718Y-119221153D01*
X111190421Y-119241670D01*
X111176171Y-119260883D01*
X111160107Y-119278607D01*
X111142383Y-119294671D01*
X111123170Y-119308921D01*
X111102653Y-119321218D01*
X111081029Y-119331446D01*
X111058507Y-119339504D01*
X111035303Y-119345316D01*
X111011642Y-119348826D01*
X110987750Y-119350000D01*
X110500250Y-119350000D01*
X110476358Y-119348826D01*
X110452697Y-119345316D01*
X110429493Y-119339504D01*
X110406971Y-119331446D01*
X110385347Y-119321218D01*
X110364830Y-119308921D01*
X110345617Y-119294671D01*
X110327893Y-119278607D01*
X110311829Y-119260883D01*
X110297579Y-119241670D01*
X110285282Y-119221153D01*
X110275054Y-119199529D01*
X110266996Y-119177007D01*
X110261184Y-119153803D01*
X110257674Y-119130142D01*
X110256500Y-119106250D01*
X110256500Y-118193750D01*
X110257674Y-118169858D01*
X110261184Y-118146197D01*
X110266996Y-118122993D01*
X110275054Y-118100471D01*
X110285282Y-118078847D01*
X110297579Y-118058330D01*
X110311829Y-118039117D01*
X110327893Y-118021393D01*
X110345617Y-118005329D01*
X110364830Y-117991079D01*
X110385347Y-117978782D01*
X110406971Y-117968554D01*
X110429493Y-117960496D01*
X110452697Y-117954684D01*
X110476358Y-117951174D01*
X110500250Y-117950000D01*
X110987750Y-117950000D01*
X111011642Y-117951174D01*
X111011642Y-117951174D01*
G37*
D18*
X110744000Y-118650000D03*
D17*
G36*
X112886642Y-117951174D02*
G01*
X112910303Y-117954684D01*
X112933507Y-117960496D01*
X112956029Y-117968554D01*
X112977653Y-117978782D01*
X112998170Y-117991079D01*
X113017383Y-118005329D01*
X113035107Y-118021393D01*
X113051171Y-118039117D01*
X113065421Y-118058330D01*
X113077718Y-118078847D01*
X113087946Y-118100471D01*
X113096004Y-118122993D01*
X113101816Y-118146197D01*
X113105326Y-118169858D01*
X113106500Y-118193750D01*
X113106500Y-119106250D01*
X113105326Y-119130142D01*
X113101816Y-119153803D01*
X113096004Y-119177007D01*
X113087946Y-119199529D01*
X113077718Y-119221153D01*
X113065421Y-119241670D01*
X113051171Y-119260883D01*
X113035107Y-119278607D01*
X113017383Y-119294671D01*
X112998170Y-119308921D01*
X112977653Y-119321218D01*
X112956029Y-119331446D01*
X112933507Y-119339504D01*
X112910303Y-119345316D01*
X112886642Y-119348826D01*
X112862750Y-119350000D01*
X112375250Y-119350000D01*
X112351358Y-119348826D01*
X112327697Y-119345316D01*
X112304493Y-119339504D01*
X112281971Y-119331446D01*
X112260347Y-119321218D01*
X112239830Y-119308921D01*
X112220617Y-119294671D01*
X112202893Y-119278607D01*
X112186829Y-119260883D01*
X112172579Y-119241670D01*
X112160282Y-119221153D01*
X112150054Y-119199529D01*
X112141996Y-119177007D01*
X112136184Y-119153803D01*
X112132674Y-119130142D01*
X112131500Y-119106250D01*
X112131500Y-118193750D01*
X112132674Y-118169858D01*
X112136184Y-118146197D01*
X112141996Y-118122993D01*
X112150054Y-118100471D01*
X112160282Y-118078847D01*
X112172579Y-118058330D01*
X112186829Y-118039117D01*
X112202893Y-118021393D01*
X112220617Y-118005329D01*
X112239830Y-117991079D01*
X112260347Y-117978782D01*
X112281971Y-117968554D01*
X112304493Y-117960496D01*
X112327697Y-117954684D01*
X112351358Y-117951174D01*
X112375250Y-117950000D01*
X112862750Y-117950000D01*
X112886642Y-117951174D01*
X112886642Y-117951174D01*
G37*
D18*
X112619000Y-118650000D03*
D17*
G36*
X121045504Y-60330204D02*
G01*
X121069773Y-60333804D01*
X121093571Y-60339765D01*
X121116671Y-60348030D01*
X121138849Y-60358520D01*
X121159893Y-60371133D01*
X121179598Y-60385747D01*
X121197777Y-60402223D01*
X121214253Y-60420402D01*
X121228867Y-60440107D01*
X121241480Y-60461151D01*
X121251970Y-60483329D01*
X121260235Y-60506429D01*
X121266196Y-60530227D01*
X121269796Y-60554496D01*
X121271000Y-60579000D01*
X121271000Y-61329000D01*
X121269796Y-61353504D01*
X121266196Y-61377773D01*
X121260235Y-61401571D01*
X121251970Y-61424671D01*
X121241480Y-61446849D01*
X121228867Y-61467893D01*
X121214253Y-61487598D01*
X121197777Y-61505777D01*
X121179598Y-61522253D01*
X121159893Y-61536867D01*
X121138849Y-61549480D01*
X121116671Y-61559970D01*
X121093571Y-61568235D01*
X121069773Y-61574196D01*
X121045504Y-61577796D01*
X121021000Y-61579000D01*
X119771000Y-61579000D01*
X119746496Y-61577796D01*
X119722227Y-61574196D01*
X119698429Y-61568235D01*
X119675329Y-61559970D01*
X119653151Y-61549480D01*
X119632107Y-61536867D01*
X119612402Y-61522253D01*
X119594223Y-61505777D01*
X119577747Y-61487598D01*
X119563133Y-61467893D01*
X119550520Y-61446849D01*
X119540030Y-61424671D01*
X119531765Y-61401571D01*
X119525804Y-61377773D01*
X119522204Y-61353504D01*
X119521000Y-61329000D01*
X119521000Y-60579000D01*
X119522204Y-60554496D01*
X119525804Y-60530227D01*
X119531765Y-60506429D01*
X119540030Y-60483329D01*
X119550520Y-60461151D01*
X119563133Y-60440107D01*
X119577747Y-60420402D01*
X119594223Y-60402223D01*
X119612402Y-60385747D01*
X119632107Y-60371133D01*
X119653151Y-60358520D01*
X119675329Y-60348030D01*
X119698429Y-60339765D01*
X119722227Y-60333804D01*
X119746496Y-60330204D01*
X119771000Y-60329000D01*
X121021000Y-60329000D01*
X121045504Y-60330204D01*
X121045504Y-60330204D01*
G37*
D24*
X120396000Y-60954000D03*
D17*
G36*
X121045504Y-63130204D02*
G01*
X121069773Y-63133804D01*
X121093571Y-63139765D01*
X121116671Y-63148030D01*
X121138849Y-63158520D01*
X121159893Y-63171133D01*
X121179598Y-63185747D01*
X121197777Y-63202223D01*
X121214253Y-63220402D01*
X121228867Y-63240107D01*
X121241480Y-63261151D01*
X121251970Y-63283329D01*
X121260235Y-63306429D01*
X121266196Y-63330227D01*
X121269796Y-63354496D01*
X121271000Y-63379000D01*
X121271000Y-64129000D01*
X121269796Y-64153504D01*
X121266196Y-64177773D01*
X121260235Y-64201571D01*
X121251970Y-64224671D01*
X121241480Y-64246849D01*
X121228867Y-64267893D01*
X121214253Y-64287598D01*
X121197777Y-64305777D01*
X121179598Y-64322253D01*
X121159893Y-64336867D01*
X121138849Y-64349480D01*
X121116671Y-64359970D01*
X121093571Y-64368235D01*
X121069773Y-64374196D01*
X121045504Y-64377796D01*
X121021000Y-64379000D01*
X119771000Y-64379000D01*
X119746496Y-64377796D01*
X119722227Y-64374196D01*
X119698429Y-64368235D01*
X119675329Y-64359970D01*
X119653151Y-64349480D01*
X119632107Y-64336867D01*
X119612402Y-64322253D01*
X119594223Y-64305777D01*
X119577747Y-64287598D01*
X119563133Y-64267893D01*
X119550520Y-64246849D01*
X119540030Y-64224671D01*
X119531765Y-64201571D01*
X119525804Y-64177773D01*
X119522204Y-64153504D01*
X119521000Y-64129000D01*
X119521000Y-63379000D01*
X119522204Y-63354496D01*
X119525804Y-63330227D01*
X119531765Y-63306429D01*
X119540030Y-63283329D01*
X119550520Y-63261151D01*
X119563133Y-63240107D01*
X119577747Y-63220402D01*
X119594223Y-63202223D01*
X119612402Y-63185747D01*
X119632107Y-63171133D01*
X119653151Y-63158520D01*
X119675329Y-63148030D01*
X119698429Y-63139765D01*
X119722227Y-63133804D01*
X119746496Y-63130204D01*
X119771000Y-63129000D01*
X121021000Y-63129000D01*
X121045504Y-63130204D01*
X121045504Y-63130204D01*
G37*
D24*
X120396000Y-63754000D03*
D17*
G36*
X101572142Y-113240674D02*
G01*
X101595803Y-113244184D01*
X101619007Y-113249996D01*
X101641529Y-113258054D01*
X101663153Y-113268282D01*
X101683670Y-113280579D01*
X101702883Y-113294829D01*
X101720607Y-113310893D01*
X101736671Y-113328617D01*
X101750921Y-113347830D01*
X101763218Y-113368347D01*
X101773446Y-113389971D01*
X101781504Y-113412493D01*
X101787316Y-113435697D01*
X101790826Y-113459358D01*
X101792000Y-113483250D01*
X101792000Y-113970750D01*
X101790826Y-113994642D01*
X101787316Y-114018303D01*
X101781504Y-114041507D01*
X101773446Y-114064029D01*
X101763218Y-114085653D01*
X101750921Y-114106170D01*
X101736671Y-114125383D01*
X101720607Y-114143107D01*
X101702883Y-114159171D01*
X101683670Y-114173421D01*
X101663153Y-114185718D01*
X101641529Y-114195946D01*
X101619007Y-114204004D01*
X101595803Y-114209816D01*
X101572142Y-114213326D01*
X101548250Y-114214500D01*
X100635750Y-114214500D01*
X100611858Y-114213326D01*
X100588197Y-114209816D01*
X100564993Y-114204004D01*
X100542471Y-114195946D01*
X100520847Y-114185718D01*
X100500330Y-114173421D01*
X100481117Y-114159171D01*
X100463393Y-114143107D01*
X100447329Y-114125383D01*
X100433079Y-114106170D01*
X100420782Y-114085653D01*
X100410554Y-114064029D01*
X100402496Y-114041507D01*
X100396684Y-114018303D01*
X100393174Y-113994642D01*
X100392000Y-113970750D01*
X100392000Y-113483250D01*
X100393174Y-113459358D01*
X100396684Y-113435697D01*
X100402496Y-113412493D01*
X100410554Y-113389971D01*
X100420782Y-113368347D01*
X100433079Y-113347830D01*
X100447329Y-113328617D01*
X100463393Y-113310893D01*
X100481117Y-113294829D01*
X100500330Y-113280579D01*
X100520847Y-113268282D01*
X100542471Y-113258054D01*
X100564993Y-113249996D01*
X100588197Y-113244184D01*
X100611858Y-113240674D01*
X100635750Y-113239500D01*
X101548250Y-113239500D01*
X101572142Y-113240674D01*
X101572142Y-113240674D01*
G37*
D18*
X101092000Y-113727000D03*
D17*
G36*
X101572142Y-115115674D02*
G01*
X101595803Y-115119184D01*
X101619007Y-115124996D01*
X101641529Y-115133054D01*
X101663153Y-115143282D01*
X101683670Y-115155579D01*
X101702883Y-115169829D01*
X101720607Y-115185893D01*
X101736671Y-115203617D01*
X101750921Y-115222830D01*
X101763218Y-115243347D01*
X101773446Y-115264971D01*
X101781504Y-115287493D01*
X101787316Y-115310697D01*
X101790826Y-115334358D01*
X101792000Y-115358250D01*
X101792000Y-115845750D01*
X101790826Y-115869642D01*
X101787316Y-115893303D01*
X101781504Y-115916507D01*
X101773446Y-115939029D01*
X101763218Y-115960653D01*
X101750921Y-115981170D01*
X101736671Y-116000383D01*
X101720607Y-116018107D01*
X101702883Y-116034171D01*
X101683670Y-116048421D01*
X101663153Y-116060718D01*
X101641529Y-116070946D01*
X101619007Y-116079004D01*
X101595803Y-116084816D01*
X101572142Y-116088326D01*
X101548250Y-116089500D01*
X100635750Y-116089500D01*
X100611858Y-116088326D01*
X100588197Y-116084816D01*
X100564993Y-116079004D01*
X100542471Y-116070946D01*
X100520847Y-116060718D01*
X100500330Y-116048421D01*
X100481117Y-116034171D01*
X100463393Y-116018107D01*
X100447329Y-116000383D01*
X100433079Y-115981170D01*
X100420782Y-115960653D01*
X100410554Y-115939029D01*
X100402496Y-115916507D01*
X100396684Y-115893303D01*
X100393174Y-115869642D01*
X100392000Y-115845750D01*
X100392000Y-115358250D01*
X100393174Y-115334358D01*
X100396684Y-115310697D01*
X100402496Y-115287493D01*
X100410554Y-115264971D01*
X100420782Y-115243347D01*
X100433079Y-115222830D01*
X100447329Y-115203617D01*
X100463393Y-115185893D01*
X100481117Y-115169829D01*
X100500330Y-115155579D01*
X100520847Y-115143282D01*
X100542471Y-115133054D01*
X100564993Y-115124996D01*
X100588197Y-115119184D01*
X100611858Y-115115674D01*
X100635750Y-115114500D01*
X101548250Y-115114500D01*
X101572142Y-115115674D01*
X101572142Y-115115674D01*
G37*
D18*
X101092000Y-115602000D03*
D17*
G36*
X117066142Y-124259674D02*
G01*
X117089803Y-124263184D01*
X117113007Y-124268996D01*
X117135529Y-124277054D01*
X117157153Y-124287282D01*
X117177670Y-124299579D01*
X117196883Y-124313829D01*
X117214607Y-124329893D01*
X117230671Y-124347617D01*
X117244921Y-124366830D01*
X117257218Y-124387347D01*
X117267446Y-124408971D01*
X117275504Y-124431493D01*
X117281316Y-124454697D01*
X117284826Y-124478358D01*
X117286000Y-124502250D01*
X117286000Y-124989750D01*
X117284826Y-125013642D01*
X117281316Y-125037303D01*
X117275504Y-125060507D01*
X117267446Y-125083029D01*
X117257218Y-125104653D01*
X117244921Y-125125170D01*
X117230671Y-125144383D01*
X117214607Y-125162107D01*
X117196883Y-125178171D01*
X117177670Y-125192421D01*
X117157153Y-125204718D01*
X117135529Y-125214946D01*
X117113007Y-125223004D01*
X117089803Y-125228816D01*
X117066142Y-125232326D01*
X117042250Y-125233500D01*
X116129750Y-125233500D01*
X116105858Y-125232326D01*
X116082197Y-125228816D01*
X116058993Y-125223004D01*
X116036471Y-125214946D01*
X116014847Y-125204718D01*
X115994330Y-125192421D01*
X115975117Y-125178171D01*
X115957393Y-125162107D01*
X115941329Y-125144383D01*
X115927079Y-125125170D01*
X115914782Y-125104653D01*
X115904554Y-125083029D01*
X115896496Y-125060507D01*
X115890684Y-125037303D01*
X115887174Y-125013642D01*
X115886000Y-124989750D01*
X115886000Y-124502250D01*
X115887174Y-124478358D01*
X115890684Y-124454697D01*
X115896496Y-124431493D01*
X115904554Y-124408971D01*
X115914782Y-124387347D01*
X115927079Y-124366830D01*
X115941329Y-124347617D01*
X115957393Y-124329893D01*
X115975117Y-124313829D01*
X115994330Y-124299579D01*
X116014847Y-124287282D01*
X116036471Y-124277054D01*
X116058993Y-124268996D01*
X116082197Y-124263184D01*
X116105858Y-124259674D01*
X116129750Y-124258500D01*
X117042250Y-124258500D01*
X117066142Y-124259674D01*
X117066142Y-124259674D01*
G37*
D18*
X116586000Y-124746000D03*
D17*
G36*
X117066142Y-122384674D02*
G01*
X117089803Y-122388184D01*
X117113007Y-122393996D01*
X117135529Y-122402054D01*
X117157153Y-122412282D01*
X117177670Y-122424579D01*
X117196883Y-122438829D01*
X117214607Y-122454893D01*
X117230671Y-122472617D01*
X117244921Y-122491830D01*
X117257218Y-122512347D01*
X117267446Y-122533971D01*
X117275504Y-122556493D01*
X117281316Y-122579697D01*
X117284826Y-122603358D01*
X117286000Y-122627250D01*
X117286000Y-123114750D01*
X117284826Y-123138642D01*
X117281316Y-123162303D01*
X117275504Y-123185507D01*
X117267446Y-123208029D01*
X117257218Y-123229653D01*
X117244921Y-123250170D01*
X117230671Y-123269383D01*
X117214607Y-123287107D01*
X117196883Y-123303171D01*
X117177670Y-123317421D01*
X117157153Y-123329718D01*
X117135529Y-123339946D01*
X117113007Y-123348004D01*
X117089803Y-123353816D01*
X117066142Y-123357326D01*
X117042250Y-123358500D01*
X116129750Y-123358500D01*
X116105858Y-123357326D01*
X116082197Y-123353816D01*
X116058993Y-123348004D01*
X116036471Y-123339946D01*
X116014847Y-123329718D01*
X115994330Y-123317421D01*
X115975117Y-123303171D01*
X115957393Y-123287107D01*
X115941329Y-123269383D01*
X115927079Y-123250170D01*
X115914782Y-123229653D01*
X115904554Y-123208029D01*
X115896496Y-123185507D01*
X115890684Y-123162303D01*
X115887174Y-123138642D01*
X115886000Y-123114750D01*
X115886000Y-122627250D01*
X115887174Y-122603358D01*
X115890684Y-122579697D01*
X115896496Y-122556493D01*
X115904554Y-122533971D01*
X115914782Y-122512347D01*
X115927079Y-122491830D01*
X115941329Y-122472617D01*
X115957393Y-122454893D01*
X115975117Y-122438829D01*
X115994330Y-122424579D01*
X116014847Y-122412282D01*
X116036471Y-122402054D01*
X116058993Y-122393996D01*
X116082197Y-122388184D01*
X116105858Y-122384674D01*
X116129750Y-122383500D01*
X117042250Y-122383500D01*
X117066142Y-122384674D01*
X117066142Y-122384674D01*
G37*
D18*
X116586000Y-122871000D03*
D22*
X138176000Y-88648000D03*
X138176000Y-91948000D03*
X138176000Y-69088000D03*
X138176000Y-72388000D03*
X135636000Y-88648000D03*
X135636000Y-91948000D03*
X135636000Y-69090000D03*
X135636000Y-72390000D03*
X133350000Y-107442000D03*
X133350000Y-110742000D03*
X133096000Y-88648000D03*
X133096000Y-91948000D03*
X133096000Y-69090000D03*
X133096000Y-72390000D03*
X130810000Y-107442000D03*
X130810000Y-110742000D03*
X130556000Y-88648000D03*
X130556000Y-91948000D03*
X130556000Y-69090000D03*
X130556000Y-72390000D03*
X125476000Y-88648000D03*
X125476000Y-91948000D03*
X128016000Y-69090000D03*
X128016000Y-72390000D03*
X128016000Y-88648000D03*
X128016000Y-91948000D03*
X125476000Y-69090000D03*
X125476000Y-72390000D03*
D11*
X94935521Y-102401723D03*
X99935521Y-104501724D03*
D12*
X97460521Y-103451723D03*
D13*
X97440750Y-103741739D02*
X97480292Y-103161707D01*
D12*
X91785521Y-105026723D03*
D13*
X91130526Y-105756727D02*
X92440516Y-104296719D01*
D14*
X91506521Y-110333723D03*
D25*
X103124000Y-49784000D03*
D26*
X108124000Y-58184000D03*
X111224000Y-52984000D03*
X103124000Y-59084000D03*
D11*
X133032500Y-56330000D03*
X138032500Y-58430001D03*
D12*
X135557500Y-57380000D03*
D13*
X135537729Y-57670016D02*
X135577271Y-57089984D01*
D12*
X129882500Y-58955000D03*
D13*
X129227505Y-59685004D02*
X130537495Y-58224996D01*
D14*
X129603500Y-64262000D03*
X98251447Y-137326790D03*
D12*
X99355507Y-142525169D03*
D13*
X99799245Y-141650514D02*
X98911769Y-143399824D01*
D12*
X94281518Y-145515300D03*
D13*
X94225554Y-145230049D02*
X94337482Y-145800551D01*
D11*
X91619091Y-145141654D03*
X96992240Y-145876004D03*
X190182500Y-64267500D03*
X195182500Y-66367501D03*
D12*
X192707500Y-65317500D03*
D13*
X192687729Y-65607516D02*
X192727271Y-65027484D01*
D12*
X187032500Y-66892500D03*
D13*
X186377505Y-67622504D02*
X187687495Y-66162496D01*
D14*
X186753500Y-72199500D03*
D11*
X171132500Y-105542500D03*
X176132500Y-107642501D03*
D12*
X173657500Y-106592500D03*
D13*
X173637729Y-106882516D02*
X173677271Y-106302484D01*
D12*
X167982500Y-108167500D03*
D13*
X167327505Y-108897504D02*
X168637495Y-107437496D01*
D14*
X167703500Y-113474500D03*
D11*
X171132500Y-86492500D03*
X176132500Y-88592501D03*
D12*
X173657500Y-87542500D03*
D13*
X173637729Y-87832516D02*
X173677271Y-87252484D01*
D12*
X167982500Y-89117500D03*
D13*
X167327505Y-89847504D02*
X168637495Y-88387496D01*
D14*
X167703500Y-94424500D03*
D11*
X171132500Y-67442500D03*
X176132500Y-69542501D03*
D12*
X173657500Y-68492500D03*
D13*
X173637729Y-68782516D02*
X173677271Y-68202484D01*
D12*
X167982500Y-70067500D03*
D13*
X167327505Y-70797504D02*
X168637495Y-69337496D01*
D14*
X167703500Y-75374500D03*
D11*
X152082500Y-118242500D03*
X157082500Y-120342501D03*
D12*
X154607500Y-119292500D03*
D13*
X154587729Y-119582516D02*
X154627271Y-119002484D01*
D12*
X148932500Y-120867500D03*
D13*
X148277505Y-121597504D02*
X149587495Y-120137496D01*
D14*
X148653500Y-126174500D03*
D11*
X152082500Y-99192500D03*
X157082500Y-101292501D03*
D12*
X154607500Y-100242500D03*
D13*
X154587729Y-100532516D02*
X154627271Y-99952484D01*
D12*
X148932500Y-101817500D03*
D13*
X148277505Y-102547504D02*
X149587495Y-101087496D01*
D14*
X148653500Y-107124500D03*
D11*
X152082500Y-80142500D03*
X157082500Y-82242501D03*
D12*
X154607500Y-81192500D03*
D13*
X154587729Y-81482516D02*
X154627271Y-80902484D01*
D12*
X148932500Y-82767500D03*
D13*
X148277505Y-83497504D02*
X149587495Y-82037496D01*
D14*
X148653500Y-88074500D03*
D11*
X152082500Y-61092500D03*
X157082500Y-63192501D03*
D12*
X154607500Y-62142500D03*
D13*
X154587729Y-62432516D02*
X154627271Y-61852484D01*
D12*
X148932500Y-63717500D03*
D13*
X148277505Y-64447504D02*
X149587495Y-62987496D01*
D14*
X148653500Y-69024500D03*
D11*
X133032500Y-113480000D03*
X138032500Y-115580001D03*
D12*
X135557500Y-114530000D03*
D13*
X135537729Y-114820016D02*
X135577271Y-114239984D01*
D12*
X129882500Y-116105000D03*
D13*
X129227505Y-116835004D02*
X130537495Y-115374996D01*
D14*
X129603500Y-121412000D03*
D11*
X133032500Y-94430000D03*
X138032500Y-96530001D03*
D12*
X135557500Y-95480000D03*
D13*
X135537729Y-95770016D02*
X135577271Y-95189984D01*
D12*
X129882500Y-97055000D03*
D13*
X129227505Y-97785004D02*
X130537495Y-96324996D01*
D14*
X129603500Y-102362000D03*
D11*
X133032500Y-75380000D03*
X138032500Y-77480001D03*
D12*
X135557500Y-76430000D03*
D13*
X135537729Y-76720016D02*
X135577271Y-76139984D01*
D12*
X129882500Y-78005000D03*
D13*
X129227505Y-78735004D02*
X130537495Y-77274996D01*
D14*
X129603500Y-83312000D03*
D11*
X113982500Y-107130000D03*
X118982500Y-109230001D03*
D12*
X116507500Y-108180000D03*
D13*
X116487729Y-108470016D02*
X116527271Y-107889984D01*
D12*
X110832500Y-109755000D03*
D13*
X110177505Y-110485004D02*
X111487495Y-109024996D01*
D14*
X110553500Y-115062000D03*
D11*
X113982500Y-69030000D03*
X118982500Y-71130001D03*
D12*
X116507500Y-70080000D03*
D13*
X116487729Y-70370016D02*
X116527271Y-69789984D01*
D12*
X110832500Y-71655000D03*
D13*
X110177505Y-72385004D02*
X111487495Y-70924996D01*
D14*
X110553500Y-76962000D03*
D11*
X94932500Y-83317500D03*
X99932500Y-85417501D03*
D12*
X97457500Y-84367500D03*
D13*
X97437729Y-84657516D02*
X97477271Y-84077484D01*
D12*
X91782500Y-85942500D03*
D13*
X91127505Y-86672504D02*
X92437495Y-85212496D01*
D14*
X91503500Y-91249500D03*
D11*
X94932500Y-64267500D03*
X99932500Y-66367501D03*
D12*
X97457500Y-65317500D03*
D13*
X97437729Y-65607516D02*
X97477271Y-65027484D01*
D12*
X91782500Y-66892500D03*
D13*
X91127505Y-67622504D02*
X92437495Y-66162496D01*
D14*
X91503500Y-72199500D03*
D27*
X100970432Y-111966336D03*
X93726000Y-124968000D03*
X100330000Y-124968000D03*
X90932000Y-130302000D03*
X122682000Y-122174000D03*
X124460000Y-74676000D03*
X96520000Y-117094000D03*
X96520000Y-117094000D03*
X89408012Y-97536000D03*
X90931998Y-117094000D03*
X89147924Y-115309928D03*
X123444000Y-112775996D03*
X123444000Y-122936010D03*
X102870000Y-136144000D03*
X104648000Y-141986000D03*
X129032000Y-123698004D03*
X103886000Y-133890000D03*
X92202000Y-120428000D03*
X92202000Y-129572000D03*
X114046000Y-118871984D03*
X120396000Y-65024000D03*
X92202000Y-115823978D03*
X99822000Y-135128000D03*
X105156000Y-115062000D03*
X105156006Y-116586000D03*
X162560000Y-76454000D03*
X89401923Y-81794071D03*
X85598000Y-130810000D03*
X181610000Y-98806000D03*
X87884000Y-97790000D03*
X86290390Y-130088460D03*
X118110000Y-59182000D03*
X98044000Y-112522000D03*
X105410000Y-64007994D03*
X115570000Y-59436000D03*
X99568000Y-110998000D03*
X104648000Y-63246000D03*
X105410000Y-121190000D03*
X109148000Y-125150000D03*
X108011007Y-65874000D03*
X108011007Y-65874000D03*
X120106000Y-58674000D03*
X94487986Y-114808000D03*
X103378000Y-112014000D03*
D28*
X92456000Y-127794000D02*
X93726000Y-127794000D01*
X117736010Y-124865990D02*
X117616020Y-124746000D01*
X109438000Y-122750000D02*
X109982000Y-122206000D01*
X107478000Y-122750000D02*
X109438000Y-122750000D01*
X109982000Y-122206000D02*
X112522000Y-122206000D01*
X112522000Y-122206000D02*
X112522000Y-120682000D01*
X105778000Y-130050000D02*
X105778000Y-132304500D01*
X105778000Y-132304500D02*
X105839500Y-132366000D01*
X102870000Y-113727000D02*
X101092000Y-113727000D01*
X100978000Y-117266000D02*
X99822000Y-116110000D01*
X100978000Y-118650000D02*
X100978000Y-117266000D01*
X99822000Y-116110000D02*
X99822000Y-113824000D01*
X99822000Y-113824000D02*
X99919000Y-113727000D01*
X99919000Y-113727000D02*
X101092000Y-113727000D01*
X105778000Y-130050000D02*
X105778000Y-129712000D01*
X97338000Y-127540000D02*
X97790000Y-127540000D01*
X97790000Y-127540000D02*
X98552000Y-127540000D01*
X95906499Y-118474500D02*
X98078999Y-120647001D01*
X98078999Y-120647001D02*
X98338000Y-120906001D01*
X96078000Y-121150000D02*
X98004000Y-121150000D01*
X98004000Y-121150000D02*
X98338000Y-121150000D01*
X98078999Y-120647001D02*
X98078999Y-121075001D01*
X98078999Y-121075001D02*
X98004000Y-121150000D01*
X98338000Y-121150000D02*
X100116000Y-121150000D01*
X93726000Y-118474500D02*
X95906499Y-118474500D01*
X98338000Y-120906001D02*
X98338000Y-121150000D01*
X98552000Y-127540000D02*
X100584000Y-127540000D01*
X96078000Y-127550000D02*
X93970000Y-127550000D01*
X93970000Y-127550000D02*
X93726000Y-127794000D01*
X116586000Y-124746000D02*
X117616020Y-124746000D01*
X105778000Y-128800000D02*
X105778000Y-129178000D01*
X100116000Y-121150000D02*
X100370000Y-121150000D01*
X100370000Y-121150000D02*
X100798000Y-121150000D01*
X100978000Y-118650000D02*
X100978000Y-120568000D01*
X100978000Y-120568000D02*
X100978000Y-121330000D01*
X100370000Y-121150000D02*
X100396000Y-121150000D01*
X100396000Y-121150000D02*
X100978000Y-120568000D01*
X100116000Y-121150000D02*
X100570000Y-121150000D01*
X100570000Y-121150000D02*
X100978000Y-121558000D01*
X101408000Y-122750000D02*
X101818000Y-122750000D01*
X101818000Y-122750000D02*
X107478000Y-122750000D01*
X100978000Y-123362000D02*
X100978000Y-121558000D01*
X101818000Y-122750000D02*
X101590000Y-122750000D01*
X101590000Y-122750000D02*
X100978000Y-123362000D01*
X101372000Y-127540000D02*
X100584000Y-127540000D01*
X104518000Y-127540000D02*
X101372000Y-127540000D01*
X101372000Y-127540000D02*
X100978000Y-127146000D01*
X105778000Y-130050000D02*
X105778000Y-128800000D01*
X105778000Y-128800000D02*
X104518000Y-127540000D01*
X100978000Y-121558000D02*
X100978000Y-122320000D01*
X100978000Y-121330000D02*
X100978000Y-121558000D01*
X100584000Y-127540000D02*
X100978000Y-127146000D01*
X96078000Y-127550000D02*
X97328000Y-127550000D01*
X97328000Y-127550000D02*
X97338000Y-127540000D01*
X100798000Y-121150000D02*
X100978000Y-121330000D01*
X100978000Y-122320000D02*
X101408000Y-122750000D01*
X96520000Y-113648500D02*
X94135498Y-113648500D01*
X94135498Y-113648500D02*
X93169763Y-114614235D01*
X93169763Y-117918263D02*
X93726000Y-118474500D01*
X93169763Y-114614235D02*
X93169763Y-117918263D01*
X101092000Y-113727000D02*
X101092000Y-112087904D01*
X101092000Y-112087904D02*
X100970432Y-111966336D01*
X117736010Y-125102010D02*
X117736010Y-124865990D01*
X116397000Y-120682000D02*
X116586000Y-120493000D01*
X112522000Y-120682000D02*
X116397000Y-120682000D01*
X117736010Y-121643010D02*
X116586000Y-120493000D01*
X117736010Y-124865990D02*
X117736010Y-121643010D01*
X93726000Y-123827000D02*
X93726000Y-124968000D01*
X100978000Y-124885685D02*
X100978000Y-124828000D01*
X100895685Y-124968000D02*
X100978000Y-124885685D01*
X100330000Y-124968000D02*
X100895685Y-124968000D01*
X100978000Y-127146000D02*
X100978000Y-124828000D01*
X100978000Y-124828000D02*
X100978000Y-123362000D01*
X92456000Y-127794000D02*
X90932000Y-129318000D01*
X90932000Y-129318000D02*
X90932000Y-129736315D01*
X90932000Y-129736315D02*
X90932000Y-130302000D01*
X117736010Y-124865990D02*
X117736010Y-126389990D01*
X117602000Y-126524000D02*
X117736010Y-126389990D01*
X116586000Y-126524000D02*
X117602000Y-126524000D01*
X92730000Y-134874000D02*
X93980000Y-134874000D01*
X90932000Y-133076000D02*
X92730000Y-134874000D01*
X90932000Y-130302000D02*
X90932000Y-133076000D01*
D29*
X110352000Y-127392000D02*
X109982000Y-127022000D01*
X111506000Y-127392000D02*
X110352000Y-127392000D01*
X109982000Y-127022000D02*
X109982000Y-124703001D01*
X109982000Y-124703001D02*
X109628999Y-124350000D01*
X109628999Y-124350000D02*
X107478000Y-124350000D01*
X116586000Y-128399000D02*
X115921000Y-129064000D01*
X115921000Y-129064000D02*
X111874000Y-129064000D01*
X111874000Y-129064000D02*
X111506000Y-128696000D01*
X111506000Y-128696000D02*
X111506000Y-127392000D01*
X109909398Y-123550000D02*
X110491398Y-122968000D01*
X107478000Y-123550000D02*
X109909398Y-123550000D01*
X110491398Y-122968000D02*
X113586000Y-122968000D01*
X113586000Y-122968000D02*
X113806000Y-123188000D01*
X113806000Y-124492000D02*
X113806000Y-123188000D01*
X113806000Y-123188000D02*
X114123000Y-122871000D01*
X114123000Y-122871000D02*
X116586000Y-122871000D01*
X101778000Y-118650000D02*
X101778000Y-116288000D01*
X101778000Y-116288000D02*
X101092000Y-115602000D01*
X94932500Y-64267500D02*
X92307500Y-66892500D01*
X92307500Y-66892500D02*
X91782500Y-66892500D01*
X95192000Y-64008000D02*
X94932500Y-64267500D01*
X95192000Y-63812000D02*
X95192000Y-64008000D01*
X122310066Y-69090000D02*
X119821067Y-66601001D01*
X119821067Y-66601001D02*
X105074935Y-66601001D01*
X125476000Y-69090000D02*
X122310066Y-69090000D01*
X105074935Y-66601001D02*
X100957934Y-62484000D01*
X100957934Y-62484000D02*
X96520000Y-62484000D01*
X96520000Y-62484000D02*
X95192000Y-63812000D01*
X125478000Y-72388000D02*
X125476000Y-72390000D01*
X138176000Y-72388000D02*
X125478000Y-72388000D01*
X125476000Y-73660000D02*
X125476000Y-72390000D01*
X124460000Y-74676000D02*
X125476000Y-73660000D01*
X122682000Y-124206000D02*
X122682000Y-122174000D01*
X117369990Y-129518010D02*
X122682000Y-124206000D01*
X103537039Y-134617001D02*
X105920999Y-134617001D01*
X102578000Y-133657962D02*
X103537039Y-134617001D01*
X111019990Y-129518010D02*
X117369990Y-129518010D01*
X105920999Y-134617001D02*
X111019990Y-129518010D01*
X102578000Y-130050000D02*
X102578000Y-133657962D01*
X94932500Y-83317500D02*
X92307500Y-85942500D01*
X92307500Y-85942500D02*
X91782500Y-85942500D01*
X95932499Y-82317501D02*
X94932500Y-83317500D01*
X121535501Y-82317501D02*
X95932499Y-82317501D01*
X127866000Y-88648000D02*
X121535501Y-82317501D01*
X128016000Y-88648000D02*
X127866000Y-88648000D01*
X97778000Y-118175000D02*
X96697000Y-117094000D01*
X97778000Y-118650000D02*
X97778000Y-118175000D01*
X96697000Y-117094000D02*
X96520000Y-117094000D01*
X138176000Y-91948000D02*
X125476000Y-91948000D01*
X125326000Y-91948000D02*
X119338001Y-97935999D01*
X125476000Y-91948000D02*
X125326000Y-91948000D01*
X89808011Y-97935999D02*
X89408012Y-97536000D01*
X119338001Y-97935999D02*
X89808011Y-97935999D01*
X90531997Y-116694001D02*
X89147924Y-115309928D01*
X90931998Y-117094000D02*
X90531997Y-116694001D01*
X94935521Y-102401723D02*
X92310521Y-105026723D01*
X92310521Y-105026723D02*
X91785521Y-105026723D01*
X95935520Y-101401724D02*
X94935521Y-102401723D01*
X121375724Y-101401724D02*
X95935520Y-101401724D01*
X127416000Y-107442000D02*
X121375724Y-101401724D01*
X128270000Y-107442000D02*
X127416000Y-107442000D01*
X137576000Y-110742000D02*
X125730000Y-110742000D01*
X138430000Y-110742000D02*
X137576000Y-110742000D01*
X125730000Y-110742000D02*
X125580000Y-110742000D01*
X125580000Y-110742000D02*
X123546004Y-112775996D01*
X123546004Y-112775996D02*
X123444000Y-112775996D01*
X101778000Y-130050000D02*
X101778000Y-133500028D01*
X123444000Y-124086068D02*
X123444000Y-123501695D01*
X123444000Y-123501695D02*
X123444000Y-122936010D01*
X101778000Y-133500028D02*
X103348982Y-135071012D01*
X117558048Y-129972020D02*
X123444000Y-124086068D01*
X106214853Y-135071011D02*
X111313843Y-129972021D01*
X111313843Y-129972021D02*
X117558048Y-129972020D01*
X103348982Y-135071012D02*
X106214853Y-135071011D01*
X100978000Y-130050000D02*
X100978000Y-134252000D01*
X100978000Y-134252000D02*
X102870000Y-136144000D01*
X134874000Y-129794000D02*
X134874000Y-129796000D01*
X134874000Y-129796000D02*
X134724000Y-129796000D01*
X137414000Y-129792000D02*
X129794000Y-129792000D01*
X129794000Y-130556000D02*
X129794000Y-129792000D01*
X105410000Y-142748000D02*
X117602000Y-142748000D01*
X104648000Y-141986000D02*
X105410000Y-142748000D01*
X121412000Y-138938000D02*
X125222000Y-138938000D01*
X117602000Y-142748000D02*
X121412000Y-138938000D01*
X125222000Y-138938000D02*
X125222000Y-135128000D01*
X125222000Y-135128000D02*
X129794000Y-130556000D01*
X113982500Y-69030000D02*
X111357500Y-71655000D01*
X111357500Y-71655000D02*
X110832500Y-71655000D01*
X128016000Y-69794000D02*
X127198000Y-70612000D01*
X128016000Y-69090000D02*
X128016000Y-69794000D01*
X127198000Y-70612000D02*
X123190000Y-70612000D01*
X120608001Y-68030001D02*
X123190000Y-70612000D01*
X114982499Y-68030001D02*
X120608001Y-68030001D01*
X113982500Y-69030000D02*
X114982499Y-68030001D01*
X113982500Y-88080000D02*
X111357500Y-90705000D01*
X111357500Y-90705000D02*
X110832500Y-90705000D01*
X114982499Y-87080001D02*
X113982500Y-88080000D01*
X123054001Y-87080001D02*
X114982499Y-87080001D01*
X124622000Y-88648000D02*
X123054001Y-87080001D01*
X125476000Y-88648000D02*
X124622000Y-88648000D01*
X113982500Y-107130000D02*
X111357500Y-109755000D01*
X111357500Y-109755000D02*
X110832500Y-109755000D01*
X114982499Y-106130001D02*
X113982500Y-107130000D01*
X124268001Y-106130001D02*
X114982499Y-106130001D01*
X125730000Y-107442000D02*
X125580000Y-107442000D01*
X125580000Y-107442000D02*
X124268001Y-106130001D01*
X133032500Y-56330000D02*
X130407500Y-58955000D01*
X130407500Y-58955000D02*
X129882500Y-58955000D01*
X126465000Y-58955000D02*
X129882500Y-58955000D01*
X125222000Y-60198000D02*
X126465000Y-58955000D01*
X125222000Y-63052000D02*
X125222000Y-60198000D01*
X130556000Y-69090000D02*
X130556000Y-68386000D01*
X130556000Y-68386000D02*
X125222000Y-63052000D01*
X133032500Y-75380000D02*
X132646000Y-75380000D01*
X132646000Y-75380000D02*
X132603001Y-75422999D01*
X132603001Y-75422999D02*
X132603001Y-76892842D01*
X132603001Y-76892842D02*
X131490843Y-78005000D01*
X131490843Y-78005000D02*
X129882500Y-78005000D01*
X126465000Y-78005000D02*
X129882500Y-78005000D01*
X125476000Y-78994000D02*
X126465000Y-78005000D01*
X125476000Y-82804000D02*
X125476000Y-78994000D01*
X130556000Y-88648000D02*
X130556000Y-87884000D01*
X130556000Y-87884000D02*
X125476000Y-82804000D01*
X133032500Y-94430000D02*
X130407500Y-97055000D01*
X130407500Y-97055000D02*
X129882500Y-97055000D01*
X126465000Y-97055000D02*
X129882500Y-97055000D01*
X125476000Y-98044000D02*
X126465000Y-97055000D01*
X125476000Y-102362000D02*
X125476000Y-98044000D01*
X130810000Y-107442000D02*
X130556000Y-107442000D01*
X130556000Y-107442000D02*
X125476000Y-102362000D01*
X133032500Y-113480000D02*
X130407500Y-116105000D01*
X130407500Y-116105000D02*
X129882500Y-116105000D01*
X129032000Y-123698004D02*
X134366004Y-123698004D01*
X134874000Y-124206000D02*
X134874000Y-126492000D01*
X134366004Y-123698004D02*
X134874000Y-124206000D01*
X146340500Y-63717500D02*
X148932500Y-63717500D01*
X142748000Y-67310000D02*
X146340500Y-63717500D01*
X134366000Y-67310000D02*
X142748000Y-67310000D01*
X133096000Y-69090000D02*
X133096000Y-68580000D01*
X133096000Y-68580000D02*
X134366000Y-67310000D01*
X149457500Y-63717500D02*
X148932500Y-63717500D01*
X152082500Y-61092500D02*
X149457500Y-63717500D01*
X152082500Y-80142500D02*
X149457500Y-82767500D01*
X149457500Y-82767500D02*
X148932500Y-82767500D01*
X147324157Y-82767500D02*
X148932500Y-82767500D01*
X143477657Y-86614000D02*
X147324157Y-82767500D01*
X134874000Y-86614000D02*
X143477657Y-86614000D01*
X133096000Y-88648000D02*
X133096000Y-88392000D01*
X133096000Y-88392000D02*
X134874000Y-86614000D01*
X152082500Y-99192500D02*
X149457500Y-101817500D01*
X149457500Y-101817500D02*
X148932500Y-101817500D01*
X147324157Y-101817500D02*
X148932500Y-101817500D01*
X143731657Y-105410000D02*
X147324157Y-101817500D01*
X134620000Y-105410000D02*
X143731657Y-105410000D01*
X133350000Y-107442000D02*
X133350000Y-106680000D01*
X133350000Y-106680000D02*
X134620000Y-105410000D01*
X152082500Y-118242500D02*
X149457500Y-120867500D01*
X149457500Y-120867500D02*
X148932500Y-120867500D01*
X137414000Y-124968000D02*
X137414000Y-126492000D01*
X148932500Y-120867500D02*
X141514500Y-120867500D01*
X141514500Y-120867500D02*
X137414000Y-124968000D01*
X171132500Y-67442500D02*
X168507500Y-70067500D01*
X168507500Y-70067500D02*
X167982500Y-70067500D01*
X164120500Y-70067500D02*
X166374157Y-70067500D01*
X135636000Y-69850000D02*
X136652000Y-70866000D01*
X135636000Y-69090000D02*
X135636000Y-69850000D01*
X166374157Y-70067500D02*
X167982500Y-70067500D01*
X136652000Y-70866000D02*
X139700000Y-70866000D01*
X139700000Y-70866000D02*
X141170010Y-72336010D01*
X141170010Y-72336010D02*
X161851990Y-72336010D01*
X161851990Y-72336010D02*
X164120500Y-70067500D01*
X171132500Y-86492500D02*
X168507500Y-89117500D01*
X168507500Y-89117500D02*
X167982500Y-89117500D01*
X167692000Y-89408000D02*
X167982500Y-89117500D01*
X163830000Y-89408000D02*
X167692000Y-89408000D01*
X135636000Y-89662000D02*
X136144000Y-90170000D01*
X135636000Y-88648000D02*
X135636000Y-89662000D01*
X136144000Y-90170000D02*
X139954000Y-90170000D01*
X139954000Y-90170000D02*
X140662010Y-90878010D01*
X140662010Y-90878010D02*
X162359990Y-90878010D01*
X162359990Y-90878010D02*
X163830000Y-89408000D01*
X171132500Y-105542500D02*
X168507500Y-108167500D01*
X168507500Y-108167500D02*
X167982500Y-108167500D01*
X167692000Y-108458000D02*
X167982500Y-108167500D01*
X163576000Y-108458000D02*
X167692000Y-108458000D01*
X135890000Y-108204000D02*
X136398000Y-108712000D01*
X135890000Y-107442000D02*
X135890000Y-108204000D01*
X136398000Y-108712000D02*
X139651601Y-108712000D01*
X139651601Y-108712000D02*
X141121611Y-110182010D01*
X141121611Y-110182010D02*
X161851990Y-110182010D01*
X161851990Y-110182010D02*
X163576000Y-108458000D01*
X190182500Y-64267500D02*
X187557500Y-66892500D01*
X187557500Y-66892500D02*
X187032500Y-66892500D01*
X167894000Y-65278000D02*
X185418000Y-65278000D01*
X185418000Y-65278000D02*
X187032500Y-66892500D01*
X161290000Y-71882000D02*
X167894000Y-65278000D01*
X141824000Y-71882000D02*
X161290000Y-71882000D01*
X139030000Y-69088000D02*
X141824000Y-71882000D01*
X138176000Y-69088000D02*
X139030000Y-69088000D01*
X190182500Y-83317500D02*
X187557500Y-85942500D01*
X187557500Y-85942500D02*
X187032500Y-85942500D01*
X140850067Y-90423999D02*
X161798001Y-90423999D01*
X167146870Y-85075130D02*
X186165130Y-85075130D01*
X139074068Y-88648000D02*
X140850067Y-90423999D01*
X138176000Y-88648000D02*
X139074068Y-88648000D01*
X186165130Y-85075130D02*
X187032500Y-85942500D01*
X161798001Y-90423999D02*
X167146870Y-85075130D01*
X190182500Y-102367500D02*
X187557500Y-104992500D01*
X187557500Y-104992500D02*
X187032500Y-104992500D01*
X161544000Y-109728000D02*
X167894000Y-103378000D01*
X167894000Y-103378000D02*
X185418000Y-103378000D01*
X139284000Y-107442000D02*
X141570000Y-109728000D01*
X141570000Y-109728000D02*
X161544000Y-109728000D01*
X185418000Y-103378000D02*
X187032500Y-104992500D01*
X138430000Y-107442000D02*
X139284000Y-107442000D01*
D28*
X112219500Y-119109500D02*
X110647000Y-120682000D01*
X112619000Y-118710000D02*
X112219500Y-119109500D01*
X112171000Y-119061000D02*
X112219500Y-119109500D01*
X112619000Y-118650000D02*
X112619000Y-118710000D01*
X107478000Y-121950000D02*
X109248038Y-121950000D01*
X109248038Y-121950000D02*
X109959801Y-121238237D01*
X109959801Y-121238237D02*
X110090763Y-121238237D01*
X110090763Y-121238237D02*
X110647000Y-120682000D01*
X103886000Y-133890000D02*
X103886000Y-132444500D01*
X103886000Y-132444500D02*
X103964500Y-132366000D01*
X104978000Y-130050000D02*
X104978000Y-131352500D01*
X104978000Y-131352500D02*
X103964500Y-132366000D01*
X92202000Y-120428000D02*
X93647500Y-120428000D01*
X93647500Y-120428000D02*
X93726000Y-120349500D01*
X93726000Y-129669000D02*
X92299000Y-129669000D01*
X92299000Y-129669000D02*
X92202000Y-129572000D01*
X96078000Y-128350000D02*
X95045000Y-128350000D01*
X95045000Y-128350000D02*
X93726000Y-129669000D01*
X93726000Y-120349500D02*
X96077500Y-120349500D01*
X96077500Y-120349500D02*
X96078000Y-120350000D01*
X112840984Y-118871984D02*
X112619000Y-118650000D01*
X114046000Y-118871984D02*
X112840984Y-118871984D01*
X120396000Y-63754000D02*
X120396000Y-65024000D01*
X92202000Y-120428000D02*
X92202000Y-115823978D01*
X92202000Y-130496000D02*
X93980000Y-132274000D01*
X92202000Y-129572000D02*
X92202000Y-130496000D01*
D29*
X97460521Y-103451723D02*
X98885520Y-103451723D01*
X98885520Y-103451723D02*
X99935521Y-104501724D01*
X97457500Y-84367500D02*
X98882499Y-84367500D01*
X98882499Y-84367500D02*
X99932500Y-85417501D01*
X97457500Y-65317500D02*
X98507501Y-66367501D01*
X98507501Y-66367501D02*
X99932500Y-66367501D01*
X99355507Y-142525169D02*
X96992240Y-144888436D01*
X96992240Y-144888436D02*
X96992240Y-145876004D01*
X100178000Y-134772000D02*
X99822000Y-135128000D01*
X100178000Y-130050000D02*
X100178000Y-134772000D01*
X116507500Y-108180000D02*
X117557501Y-109230001D01*
X117557501Y-109230001D02*
X118982500Y-109230001D01*
X116507500Y-89130000D02*
X117932499Y-89130000D01*
X117932499Y-89130000D02*
X118982500Y-90180001D01*
X116507500Y-70080000D02*
X117932499Y-70080000D01*
X117932499Y-70080000D02*
X118982500Y-71130001D01*
X105156000Y-115062000D02*
X110553500Y-115062000D01*
X104978000Y-118650000D02*
X104978000Y-116764006D01*
X104978000Y-116764006D02*
X105156006Y-116586000D01*
X135557500Y-95480000D02*
X136982499Y-95480000D01*
X136982499Y-95480000D02*
X138032500Y-96530001D01*
X138032500Y-115580001D02*
X136607501Y-115580001D01*
X136607501Y-115580001D02*
X135557500Y-114530000D01*
X135557500Y-76430000D02*
X136607501Y-77480001D01*
X136607501Y-77480001D02*
X138032500Y-77480001D01*
X135557500Y-57380000D02*
X136982499Y-57380000D01*
X136982499Y-57380000D02*
X138032500Y-58430001D01*
X135128000Y-95504000D02*
X135982000Y-95504000D01*
X139032499Y-97530000D02*
X138032500Y-96530001D01*
X129603500Y-102737015D02*
X131260485Y-104394000D01*
X129603500Y-102362000D02*
X129603500Y-102737015D01*
X131260485Y-104394000D02*
X138176000Y-104394000D01*
X138176000Y-104394000D02*
X140462000Y-102108000D01*
X140462000Y-102108000D02*
X140462000Y-98959501D01*
X140462000Y-98959501D02*
X139032499Y-97530000D01*
X129603500Y-84231238D02*
X129603500Y-83312000D01*
X130970262Y-85598000D02*
X129603500Y-84231238D01*
X137414000Y-85598000D02*
X130970262Y-85598000D01*
X140462000Y-82550000D02*
X137414000Y-85598000D01*
X138032500Y-77480001D02*
X140462000Y-79909501D01*
X140462000Y-79909501D02*
X140462000Y-82550000D01*
X129603500Y-65181238D02*
X129603500Y-64262000D01*
X130970262Y-66548000D02*
X129603500Y-65181238D01*
X137668000Y-66548000D02*
X130970262Y-66548000D01*
X140462000Y-63754000D02*
X137668000Y-66548000D01*
X138032500Y-58430001D02*
X140462000Y-60859501D01*
X140462000Y-60859501D02*
X140462000Y-63754000D01*
X128684262Y-121412000D02*
X129603500Y-121412000D01*
X127000000Y-121412000D02*
X128684262Y-121412000D01*
X122682000Y-117094000D02*
X127000000Y-121412000D01*
X106330000Y-117094000D02*
X122682000Y-117094000D01*
X105778000Y-118650000D02*
X105778000Y-117646000D01*
X105778000Y-117646000D02*
X106330000Y-117094000D01*
X157082500Y-120342501D02*
X155657501Y-120342501D01*
X155657501Y-120342501D02*
X154607500Y-119292500D01*
X157082500Y-101292501D02*
X155657501Y-101292501D01*
X155657501Y-101292501D02*
X154607500Y-100242500D01*
X157082500Y-82242501D02*
X156032499Y-81192500D01*
X156032499Y-81192500D02*
X154607500Y-81192500D01*
X157082500Y-63192501D02*
X155657501Y-63192501D01*
X155657501Y-63192501D02*
X154607500Y-62142500D01*
X154607500Y-117781939D02*
X154607500Y-119292500D01*
X127508000Y-111760000D02*
X148585561Y-111760000D01*
X104178000Y-116488036D02*
X104807037Y-115858999D01*
X104178000Y-118650000D02*
X104178000Y-116488036D01*
X104807037Y-115858999D02*
X107476999Y-115858999D01*
X148585561Y-111760000D02*
X154607500Y-117781939D01*
X107476999Y-115858999D02*
X108204000Y-116586000D01*
X108204000Y-116586000D02*
X122682000Y-116586000D01*
X122682000Y-116586000D02*
X127508000Y-111760000D01*
X173657500Y-106592500D02*
X174707501Y-107642501D01*
X174707501Y-107642501D02*
X176132500Y-107642501D01*
X173657500Y-68492500D02*
X175082499Y-68492500D01*
X175082499Y-68492500D02*
X176132500Y-69542501D01*
X173657500Y-87542500D02*
X174707501Y-88592501D01*
X174707501Y-88592501D02*
X176132500Y-88592501D01*
X129032000Y-73660000D02*
X120897929Y-81794071D01*
X120897929Y-81794071D02*
X89967608Y-81794071D01*
X159766000Y-73660000D02*
X129032000Y-73660000D01*
X162560000Y-76454000D02*
X159766000Y-73660000D01*
X89967608Y-81794071D02*
X89401923Y-81794071D01*
X90733964Y-126750000D02*
X86273965Y-131209999D01*
X96078000Y-126750000D02*
X90733964Y-126750000D01*
X86273965Y-131209999D02*
X85997999Y-131209999D01*
X85997999Y-131209999D02*
X85598000Y-130810000D01*
X192707500Y-103417500D02*
X194132499Y-103417500D01*
X194132499Y-103417500D02*
X195182500Y-104467501D01*
X192707500Y-65317500D02*
X193757501Y-66367501D01*
X193757501Y-66367501D02*
X195182500Y-66367501D01*
X195182500Y-85417501D02*
X193757501Y-85417501D01*
X193757501Y-85417501D02*
X192707500Y-84367500D01*
X124829001Y-93102999D02*
X119488001Y-98443999D01*
X88283999Y-98189999D02*
X87884000Y-97790000D01*
X161682999Y-93102999D02*
X124829001Y-93102999D01*
X167386000Y-98806000D02*
X161682999Y-93102999D01*
X119488001Y-98443999D02*
X88537999Y-98443999D01*
X88537999Y-98443999D02*
X88283999Y-98189999D01*
X181610000Y-98806000D02*
X167386000Y-98806000D01*
X96078000Y-125950000D02*
X90428850Y-125950000D01*
X90428850Y-125950000D02*
X86690389Y-129688461D01*
X86690389Y-129688461D02*
X86290390Y-130088460D01*
X118110000Y-61038500D02*
X117856000Y-61292500D01*
X118110000Y-59182000D02*
X118110000Y-61038500D01*
X98044000Y-116312000D02*
X98044000Y-112776000D01*
X99378000Y-118650000D02*
X99378000Y-117646000D01*
X99378000Y-117646000D02*
X98044000Y-116312000D01*
X98044000Y-112776000D02*
X98044000Y-112522000D01*
X117856000Y-63167500D02*
X117015506Y-64007994D01*
X105975685Y-64007994D02*
X105410000Y-64007994D01*
X117015506Y-64007994D02*
X105975685Y-64007994D01*
X115570000Y-61038500D02*
X115316000Y-61292500D01*
X115570000Y-61292500D02*
X115570000Y-59436000D01*
X100178000Y-118650000D02*
X100178000Y-117646000D01*
X100178000Y-117646000D02*
X98806000Y-116274000D01*
X98806000Y-116274000D02*
X98806000Y-111760000D01*
X99168001Y-111397999D02*
X99568000Y-110998000D01*
X98806000Y-111760000D02*
X99168001Y-111397999D01*
X104726500Y-63167500D02*
X104648000Y-63246000D01*
X115570000Y-63167500D02*
X104726500Y-63167500D01*
X106434000Y-121190000D02*
X105410000Y-121190000D01*
X107478000Y-121150000D02*
X106474000Y-121150000D01*
X106474000Y-121150000D02*
X106434000Y-121190000D01*
X107478000Y-121150000D02*
X109232024Y-121150000D01*
X109232024Y-121150000D02*
X109832490Y-120549534D01*
X109832490Y-120549534D02*
X109832490Y-119561510D01*
X109832490Y-119561510D02*
X110744000Y-118650000D01*
X97778000Y-130050000D02*
X97778000Y-132045500D01*
X97778000Y-132045500D02*
X97711500Y-132112000D01*
X107478000Y-125150000D02*
X109148000Y-125150000D01*
X107299001Y-59008999D02*
X108124000Y-58184000D01*
X103378000Y-62930000D02*
X107299001Y-59008999D01*
X103378000Y-64262000D02*
X103378000Y-62930000D01*
X108011007Y-65874000D02*
X104990000Y-65874000D01*
X104990000Y-65874000D02*
X103378000Y-64262000D01*
D28*
X102870000Y-115602000D02*
X102578000Y-115894000D01*
X102578000Y-115894000D02*
X102578000Y-118650000D01*
X120106000Y-58674000D02*
X120106000Y-60664000D01*
X120106000Y-60664000D02*
X120396000Y-60954000D01*
X97076237Y-116079737D02*
X96520000Y-115523500D01*
X97076237Y-116160253D02*
X97076237Y-116079737D01*
X98578000Y-117662016D02*
X97076237Y-116160253D01*
X98578000Y-118650000D02*
X98578000Y-117662016D01*
X95053671Y-114808000D02*
X94487986Y-114808000D01*
X95804500Y-114808000D02*
X95053671Y-114808000D01*
X96520000Y-115523500D02*
X95804500Y-114808000D01*
X104274010Y-112910010D02*
X103777999Y-112413999D01*
X104274010Y-114451990D02*
X104274010Y-112910010D01*
X103124000Y-115602000D02*
X104274010Y-114451990D01*
X103777999Y-112413999D02*
X103378000Y-112014000D01*
D29*
X94281518Y-145515300D02*
X91992737Y-145515300D01*
X91992737Y-145515300D02*
X91619091Y-145141654D01*
X88051452Y-141645452D02*
X87271400Y-141645452D01*
X91619091Y-145141654D02*
X91547654Y-145141654D01*
X91547654Y-145141654D02*
X88051452Y-141645452D01*
X88121399Y-140795453D02*
X87271400Y-141645452D01*
X93026852Y-135890000D02*
X88121399Y-140795453D01*
X97683329Y-135890000D02*
X93026852Y-135890000D01*
X98251447Y-137326790D02*
X98251447Y-136458118D01*
X98251447Y-136458118D02*
X97683329Y-135890000D01*
X104601142Y-137326790D02*
X99170685Y-137326790D01*
X99170685Y-137326790D02*
X98251447Y-137326790D01*
X111371932Y-130556000D02*
X104601142Y-137326790D01*
X120069462Y-130556000D02*
X111371932Y-130556000D01*
X120675505Y-131162043D02*
X120069462Y-130556000D01*
X120983991Y-131162043D02*
X120675505Y-131162043D01*
X122069400Y-132247452D02*
X120983991Y-131162043D01*
X132334000Y-125222000D02*
X132334000Y-126492000D01*
X131826000Y-124714000D02*
X132334000Y-125222000D01*
X126746000Y-124714000D02*
X131826000Y-124714000D01*
X125297856Y-126162144D02*
X126746000Y-124714000D01*
X122069400Y-132247452D02*
X125297856Y-129018996D01*
X125297856Y-129018996D02*
X125297856Y-126162144D01*
X110827529Y-140435636D02*
X110453883Y-140061990D01*
X113116310Y-140435636D02*
X110827529Y-140435636D01*
X122601097Y-134700903D02*
X122428000Y-134874000D01*
X122726801Y-134700903D02*
X122601097Y-134700903D01*
X88778800Y-144948902D02*
X87928801Y-144098903D01*
X91657898Y-147828000D02*
X88778800Y-144948902D01*
X97282000Y-147828000D02*
X91657898Y-147828000D01*
X110453883Y-140061990D02*
X105048010Y-140061990D01*
X105048010Y-140061990D02*
X97282000Y-147828000D01*
X111506000Y-131064000D02*
X105048010Y-137521990D01*
X116625556Y-131064000D02*
X111506000Y-131064000D01*
X117086239Y-131524683D02*
X116625556Y-131064000D01*
X117086239Y-132247126D02*
X117086239Y-131524683D01*
X105048010Y-137521990D02*
X105048010Y-140061990D01*
X129794000Y-125788000D02*
X129794000Y-126492000D01*
X129174010Y-125168010D02*
X129794000Y-125788000D01*
X128323990Y-125168010D02*
X129174010Y-125168010D01*
X127631704Y-125860296D02*
X128323990Y-125168010D01*
X127631704Y-129796000D02*
X127631704Y-125860296D01*
X122726801Y-134700903D02*
X127631704Y-129796000D01*
X121876802Y-135550902D02*
X122726801Y-134700903D01*
X110453883Y-140061990D02*
X112631893Y-142240000D01*
X117467932Y-142240000D02*
X120650000Y-139057932D01*
X120650000Y-136777704D02*
X121876802Y-135550902D01*
X120650000Y-139057932D02*
X120650000Y-136777704D01*
X112631893Y-142240000D02*
X117467932Y-142240000D01*
X93726000Y-121952000D02*
X96076000Y-121952000D01*
X96076000Y-121952000D02*
X96078000Y-121950000D01*
X116029763Y-118061763D02*
X116586000Y-118618000D01*
X115590990Y-117622990D02*
X116029763Y-118061763D01*
X109676010Y-117622990D02*
X115590990Y-117622990D01*
X107478000Y-119821000D02*
X109676010Y-117622990D01*
X107478000Y-120350000D02*
X107478000Y-119821000D01*
X121412000Y-55220000D02*
X121412000Y-52324000D01*
X121412000Y-56824000D02*
X121412000Y-55220000D01*
X121412000Y-52324000D02*
X114112000Y-52324000D01*
X114112000Y-53928000D02*
X114112000Y-56824000D01*
X114112000Y-52324000D02*
X114112000Y-53928000D01*
X97330500Y-133574000D02*
X97790000Y-134033500D01*
X93980000Y-133574000D02*
X97330500Y-133574000D01*
M02*
