G04 #@! TF.GenerationSoftware,KiCad,Pcbnew,(5.1.4)-1*
G04 #@! TF.CreationDate,2022-01-12T13:07:32-05:00*
G04 #@! TF.ProjectId,a44key-pcb,6134346b-6579-42d7-9063-622e6b696361,rev?*
G04 #@! TF.SameCoordinates,Original*
G04 #@! TF.FileFunction,Legend,Top*
G04 #@! TF.FilePolarity,Positive*
%FSLAX46Y46*%
G04 Gerber Fmt 4.6, Leading zero omitted, Abs format (unit mm)*
G04 Created by KiCad (PCBNEW (5.1.4)-1) date 2022-01-12 13:07:32*
%MOMM*%
%LPD*%
G04 APERTURE LIST*
%ADD10C,0.120000*%
%ADD11C,0.150000*%
%ADD12C,0.127000*%
%ADD13C,0.400000*%
%ADD14C,0.120150*%
%ADD15C,2.102000*%
%ADD16C,4.089800*%
%ADD17O,2.277000X1.852000*%
%ADD18C,2.352000*%
%ADD19C,2.352000*%
%ADD20O,5.202000X1.602000*%
%ADD21O,0.602000X4.202000*%
%ADD22O,5.202000X0.602000*%
%ADD23C,1.402000*%
%ADD24C,0.602000*%
%ADD25C,0.602000*%
%ADD26C,1.602000*%
%ADD27C,1.602000*%
%ADD28C,1.852000*%
%ADD29C,1.852000*%
%ADD30C,1.802000*%
%ADD31C,1.802000*%
%ADD32C,0.100000*%
%ADD33O,1.802000X2.802000*%
%ADD34R,0.602000X2.352000*%
%ADD35R,1.202000X1.902000*%
%ADD36R,1.752000X1.752000*%
%ADD37C,1.752000*%
%ADD38C,1.202000*%
G04 APERTURE END LIST*
D10*
X84985089Y-138251548D02*
X86269771Y-137907319D01*
X85329319Y-139536229D02*
X84985089Y-138251548D01*
X85658019Y-140762955D02*
X88227382Y-140074496D01*
X88227382Y-140074496D02*
X90215112Y-147492807D01*
X85658019Y-140762955D02*
X87645749Y-148181265D01*
X87645749Y-148181265D02*
X90215112Y-147492807D01*
X119783089Y-128853548D02*
X121067771Y-128509319D01*
X120127319Y-130138229D02*
X119783089Y-128853548D01*
X120456019Y-131364955D02*
X123025382Y-130676496D01*
X123025382Y-130676496D02*
X125013112Y-138094807D01*
X120456019Y-131364955D02*
X122443749Y-138783265D01*
X122443749Y-138783265D02*
X125013112Y-138094807D01*
X111424807Y-142956888D02*
X111769036Y-144241570D01*
X110140126Y-143301118D02*
X111424807Y-142956888D01*
X108913400Y-143629818D02*
X109601859Y-146199181D01*
X109601859Y-146199181D02*
X102183548Y-148186911D01*
X108913400Y-143629818D02*
X101495090Y-145617548D01*
X101495090Y-145617548D02*
X102183548Y-148186911D01*
D11*
X121612000Y-52324000D02*
X121612000Y-57774000D01*
X113912000Y-52324000D02*
X113912000Y-57774000D01*
X121612000Y-57774000D02*
X113912000Y-57774000D01*
X91246000Y-121860000D02*
X91246000Y-127060000D01*
X91246000Y-127060000D02*
X86046000Y-127060000D01*
X86046000Y-127060000D02*
X86046000Y-121860000D01*
X86046000Y-121860000D02*
X91246000Y-121860000D01*
X89646000Y-124460000D02*
G75*
G03X89646000Y-124460000I-1000000J0D01*
G01*
D12*
X101924000Y-49884000D02*
X100224000Y-49884000D01*
X100224000Y-49884000D02*
X100224000Y-51584000D01*
X100224000Y-51584000D02*
X100224000Y-52334000D01*
X100224000Y-52334000D02*
X101524000Y-52334000D01*
X101524000Y-52334000D02*
X101524000Y-56834000D01*
X101524000Y-56834000D02*
X100224000Y-56834000D01*
X100224000Y-56834000D02*
X100224000Y-57584000D01*
X100224000Y-57584000D02*
X100224000Y-58884000D01*
X100224000Y-58884000D02*
X101974000Y-58884000D01*
X100224000Y-57584000D02*
X97224000Y-57584000D01*
X97224000Y-57584000D02*
X97224000Y-51584000D01*
X97224000Y-51584000D02*
X100224000Y-51584000D01*
X104324000Y-49884000D02*
X111224000Y-49884000D01*
X111224000Y-49884000D02*
X111224000Y-51884000D01*
X111224000Y-54234000D02*
X111224000Y-58884000D01*
X111224000Y-58884000D02*
X109124000Y-58884000D01*
X107224000Y-58884000D02*
X104174000Y-58884000D01*
D13*
X101924000Y-49084000D02*
G75*
G03X101924000Y-49084000I-200000J0D01*
G01*
D11*
X85547242Y-136498706D02*
X85732113Y-137188653D01*
X85723090Y-137338967D01*
X85655747Y-137455610D01*
X85530082Y-137538580D01*
X85438089Y-137563230D01*
X86507448Y-136586512D02*
X86679994Y-137230462D01*
X86178868Y-136280164D02*
X86133756Y-137031734D01*
X86731710Y-136871513D01*
X120345242Y-127100706D02*
X120530113Y-127790653D01*
X120521090Y-127940967D01*
X120453747Y-128057610D01*
X120328082Y-128140580D01*
X120236089Y-128165230D01*
X120713214Y-127002108D02*
X121311168Y-126841887D01*
X121087790Y-127296132D01*
X121225780Y-127259158D01*
X121330097Y-127280505D01*
X121388419Y-127314176D01*
X121459064Y-127393845D01*
X121520688Y-127623827D01*
X121499341Y-127728145D01*
X121465669Y-127786466D01*
X121386001Y-127857112D01*
X121110022Y-127931060D01*
X121005705Y-127909713D01*
X120947383Y-127876041D01*
X113177648Y-143519041D02*
X112487701Y-143703912D01*
X112337387Y-143694889D01*
X112220744Y-143627546D01*
X112137774Y-143501881D01*
X112113124Y-143409888D01*
X113196577Y-143957659D02*
X113254899Y-143991330D01*
X113325544Y-144070999D01*
X113387168Y-144300981D01*
X113365821Y-144405299D01*
X113332149Y-144463620D01*
X113252481Y-144534266D01*
X113160488Y-144558915D01*
X113010174Y-144549893D01*
X112310320Y-144145832D01*
X112470541Y-144743786D01*
X116023904Y-53808380D02*
X116023904Y-54617904D01*
X116071523Y-54713142D01*
X116119142Y-54760761D01*
X116214380Y-54808380D01*
X116404857Y-54808380D01*
X116500095Y-54760761D01*
X116547714Y-54713142D01*
X116595333Y-54617904D01*
X116595333Y-53808380D01*
X117023904Y-54760761D02*
X117166761Y-54808380D01*
X117404857Y-54808380D01*
X117500095Y-54760761D01*
X117547714Y-54713142D01*
X117595333Y-54617904D01*
X117595333Y-54522666D01*
X117547714Y-54427428D01*
X117500095Y-54379809D01*
X117404857Y-54332190D01*
X117214380Y-54284571D01*
X117119142Y-54236952D01*
X117071523Y-54189333D01*
X117023904Y-54094095D01*
X117023904Y-53998857D01*
X117071523Y-53903619D01*
X117119142Y-53856000D01*
X117214380Y-53808380D01*
X117452476Y-53808380D01*
X117595333Y-53856000D01*
X118357238Y-54284571D02*
X118500095Y-54332190D01*
X118547714Y-54379809D01*
X118595333Y-54475047D01*
X118595333Y-54617904D01*
X118547714Y-54713142D01*
X118500095Y-54760761D01*
X118404857Y-54808380D01*
X118023904Y-54808380D01*
X118023904Y-53808380D01*
X118357238Y-53808380D01*
X118452476Y-53856000D01*
X118500095Y-53903619D01*
X118547714Y-53998857D01*
X118547714Y-54094095D01*
X118500095Y-54189333D01*
X118452476Y-54236952D01*
X118357238Y-54284571D01*
X118023904Y-54284571D01*
X119547714Y-54808380D02*
X118976285Y-54808380D01*
X119262000Y-54808380D02*
X119262000Y-53808380D01*
X119166761Y-53951238D01*
X119071523Y-54046476D01*
X118976285Y-54094095D01*
X84986761Y-125793333D02*
X85034380Y-125650476D01*
X85034380Y-125412380D01*
X84986761Y-125317142D01*
X84939142Y-125269523D01*
X84843904Y-125221904D01*
X84748666Y-125221904D01*
X84653428Y-125269523D01*
X84605809Y-125317142D01*
X84558190Y-125412380D01*
X84510571Y-125602857D01*
X84462952Y-125698095D01*
X84415333Y-125745714D01*
X84320095Y-125793333D01*
X84224857Y-125793333D01*
X84129619Y-125745714D01*
X84082000Y-125698095D01*
X84034380Y-125602857D01*
X84034380Y-125364761D01*
X84082000Y-125221904D01*
X84034380Y-124888571D02*
X85034380Y-124650476D01*
X84320095Y-124460000D01*
X85034380Y-124269523D01*
X84034380Y-124031428D01*
X85034380Y-123126666D02*
X85034380Y-123698095D01*
X85034380Y-123412380D02*
X84034380Y-123412380D01*
X84177238Y-123507619D01*
X84272476Y-123602857D01*
X84320095Y-123698095D01*
D14*
X102584097Y-47507545D02*
X102584097Y-47850829D01*
X102561212Y-47919486D01*
X102515440Y-47965257D01*
X102446783Y-47988143D01*
X102401012Y-47988143D01*
X103064695Y-47988143D02*
X102790068Y-47988143D01*
X102927381Y-47988143D02*
X102927381Y-47507545D01*
X102881610Y-47576202D01*
X102835839Y-47621973D01*
X102790068Y-47644859D01*
D11*
%LPC*%
D15*
X113982500Y-88080000D03*
X118982500Y-90180001D03*
D16*
X113982500Y-93980000D03*
D17*
X108707500Y-93980000D03*
X119257500Y-93980000D03*
D18*
X116507500Y-89130000D03*
D19*
X116487729Y-89420016D02*
X116527271Y-88839984D01*
D18*
X110832500Y-90705000D03*
D19*
X110177505Y-91435004D02*
X111487495Y-89974996D01*
D20*
X113967500Y-95785000D03*
D21*
X112067500Y-94885000D03*
D22*
X113967500Y-93085000D03*
X113967500Y-96685000D03*
D21*
X116267500Y-94885000D03*
X115872500Y-94884160D03*
X111667500Y-94885000D03*
D23*
X110553500Y-96012000D03*
D15*
X190182500Y-102367500D03*
X195182500Y-104467501D03*
D16*
X190182500Y-108267500D03*
D17*
X184907500Y-108267500D03*
X195457500Y-108267500D03*
D18*
X192707500Y-103417500D03*
D19*
X192687729Y-103707516D02*
X192727271Y-103127484D01*
D18*
X187032500Y-104992500D03*
D19*
X186377505Y-105722504D02*
X187687495Y-104262496D01*
D20*
X190167500Y-110072500D03*
D21*
X188267500Y-109172500D03*
D22*
X190167500Y-107372500D03*
X190167500Y-110972500D03*
D21*
X192467500Y-109172500D03*
X192072500Y-109171660D03*
X187867500Y-109172500D03*
D23*
X186753500Y-110299500D03*
D15*
X190182500Y-83317500D03*
X195182500Y-85417501D03*
D16*
X190182500Y-89217500D03*
D17*
X184907500Y-89217500D03*
X195457500Y-89217500D03*
D18*
X192707500Y-84367500D03*
D19*
X192687729Y-84657516D02*
X192727271Y-84077484D01*
D18*
X187032500Y-85942500D03*
D19*
X186377505Y-86672504D02*
X187687495Y-85212496D01*
D20*
X190167500Y-91022500D03*
D21*
X188267500Y-90122500D03*
D22*
X190167500Y-88322500D03*
X190167500Y-91922500D03*
D21*
X192467500Y-90122500D03*
X192072500Y-90121660D03*
X187867500Y-90122500D03*
D23*
X186753500Y-91249500D03*
X117086239Y-132247126D03*
D24*
X116301887Y-133624049D03*
D25*
X116767761Y-135362715D02*
X115836013Y-131885383D01*
D24*
X112240386Y-134713195D03*
D25*
X112706260Y-136451861D02*
X111774512Y-132974529D01*
D24*
X111858628Y-134814617D03*
D25*
X112324502Y-136553283D02*
X111392754Y-133075951D01*
D24*
X113614383Y-132480666D03*
D25*
X115836012Y-131885382D02*
X111392754Y-133075950D01*
D24*
X114546132Y-135957999D03*
D25*
X116767761Y-135362715D02*
X112324503Y-136553283D01*
D24*
X115915517Y-133727577D03*
D25*
X116381391Y-135466243D02*
X115449643Y-131988911D01*
D26*
X113847321Y-133350000D03*
D27*
X115585987Y-132884126D02*
X112108655Y-133815874D01*
D18*
X118190299Y-137445505D03*
D19*
X118634037Y-136570850D02*
X117746561Y-138320160D01*
D18*
X113116310Y-140435636D03*
D19*
X113060346Y-140150385D02*
X113172274Y-140720887D01*
D28*
X109204741Y-136462648D03*
D29*
X109410000Y-136407649D02*
X108999482Y-136517647D01*
D28*
X119395259Y-133732108D03*
D29*
X119600518Y-133677109D02*
X119190000Y-133787107D01*
D16*
X114300000Y-135097378D03*
D15*
X110453883Y-140061990D03*
X115827032Y-140796340D03*
D30*
X88586201Y-146552355D03*
D31*
X88586201Y-146552355D02*
X88586201Y-146552355D01*
D30*
X87928801Y-144098903D03*
D31*
X87928801Y-144098903D02*
X87928801Y-144098903D01*
D30*
X87271400Y-141645452D03*
D31*
X87271400Y-141645452D02*
X87271400Y-141645452D01*
D30*
X86614000Y-139192000D03*
D32*
G36*
X85976897Y-140295495D02*
G01*
X85510505Y-138554897D01*
X87251103Y-138088505D01*
X87717495Y-139829103D01*
X85976897Y-140295495D01*
X85976897Y-140295495D01*
G37*
D30*
X123384201Y-137154355D03*
D31*
X123384201Y-137154355D02*
X123384201Y-137154355D01*
D30*
X122726801Y-134700903D03*
D31*
X122726801Y-134700903D02*
X122726801Y-134700903D01*
D30*
X122069400Y-132247452D03*
D31*
X122069400Y-132247452D02*
X122069400Y-132247452D01*
D30*
X121412000Y-129794000D03*
D32*
G36*
X120774897Y-130897495D02*
G01*
X120308505Y-129156897D01*
X122049103Y-128690505D01*
X122515495Y-130431103D01*
X120774897Y-130897495D01*
X120774897Y-130897495D01*
G37*
D30*
X103124000Y-146558000D03*
D31*
X103124000Y-146558000D02*
X103124000Y-146558000D01*
D30*
X105577452Y-145900600D03*
D31*
X105577452Y-145900600D02*
X105577452Y-145900600D01*
D30*
X108030903Y-145243199D03*
D31*
X108030903Y-145243199D02*
X108030903Y-145243199D01*
D30*
X110484355Y-144585799D03*
D32*
G36*
X109380860Y-143948696D02*
G01*
X111121458Y-143482304D01*
X111587850Y-145222902D01*
X109847252Y-145689294D01*
X109380860Y-143948696D01*
X109380860Y-143948696D01*
G37*
D33*
X121412000Y-52324000D03*
X114112000Y-52324000D03*
X114112000Y-56824000D03*
X121412000Y-56824000D03*
D34*
X119362000Y-56824000D03*
X118562000Y-56824000D03*
X117762000Y-56824000D03*
X116962000Y-56824000D03*
X116162000Y-56824000D03*
D35*
X86796000Y-121360000D03*
X90496000Y-127560000D03*
X90496000Y-121360000D03*
X86796000Y-127560000D03*
D15*
X94935521Y-102401723D03*
X99935521Y-104501724D03*
D16*
X94935521Y-108301723D03*
D17*
X89660521Y-108301723D03*
X100210521Y-108301723D03*
D18*
X97460521Y-103451723D03*
D19*
X97440750Y-103741739D02*
X97480292Y-103161707D01*
D18*
X91785521Y-105026723D03*
D19*
X91130526Y-105756727D02*
X92440516Y-104296719D01*
D20*
X94920521Y-110106723D03*
D21*
X93020521Y-109206723D03*
D22*
X94920521Y-107406723D03*
X94920521Y-111006723D03*
D21*
X97220521Y-109206723D03*
X96825521Y-109205883D03*
X92620521Y-109206723D03*
D23*
X91506521Y-110333723D03*
D36*
X103124000Y-49784000D03*
D37*
X108124000Y-58184000D03*
X111224000Y-52984000D03*
X103124000Y-59084000D03*
D38*
X103124000Y-54584000D03*
X108124000Y-54584000D03*
D15*
X133032500Y-56330000D03*
X138032500Y-58430001D03*
D16*
X133032500Y-62230000D03*
D17*
X127757500Y-62230000D03*
X138307500Y-62230000D03*
D18*
X135557500Y-57380000D03*
D19*
X135537729Y-57670016D02*
X135577271Y-57089984D01*
D18*
X129882500Y-58955000D03*
D19*
X129227505Y-59685004D02*
X130537495Y-58224996D01*
D20*
X133017500Y-64035000D03*
D21*
X131117500Y-63135000D03*
D22*
X133017500Y-61335000D03*
X133017500Y-64935000D03*
D21*
X135317500Y-63135000D03*
X134922500Y-63134160D03*
X130717500Y-63135000D03*
D23*
X129603500Y-64262000D03*
X98251447Y-137326790D03*
D24*
X97467095Y-138703713D03*
D25*
X97932969Y-140442379D02*
X97001221Y-136965047D01*
D24*
X93405594Y-139792859D03*
D25*
X93871468Y-141531525D02*
X92939720Y-138054193D01*
D24*
X93023836Y-139894281D03*
D25*
X93489710Y-141632947D02*
X92557962Y-138155615D01*
D24*
X94779591Y-137560330D03*
D25*
X97001220Y-136965046D02*
X92557962Y-138155614D01*
D24*
X95711340Y-141037663D03*
D25*
X97932969Y-140442379D02*
X93489711Y-141632947D01*
D24*
X97080725Y-138807241D03*
D25*
X97546599Y-140545907D02*
X96614851Y-137068575D01*
D26*
X95012529Y-138429664D03*
D27*
X96751195Y-137963790D02*
X93273863Y-138895538D01*
D18*
X99355507Y-142525169D03*
D19*
X99799245Y-141650514D02*
X98911769Y-143399824D01*
D18*
X94281518Y-145515300D03*
D19*
X94225554Y-145230049D02*
X94337482Y-145800551D01*
D28*
X90369949Y-141542312D03*
D29*
X90575208Y-141487313D02*
X90164690Y-141597311D01*
D28*
X100560467Y-138811772D03*
D29*
X100765726Y-138756773D02*
X100355208Y-138866771D01*
D16*
X95465208Y-140177042D03*
D15*
X91619091Y-145141654D03*
X96992240Y-145876004D03*
X190182500Y-64267500D03*
X195182500Y-66367501D03*
D16*
X190182500Y-70167500D03*
D17*
X184907500Y-70167500D03*
X195457500Y-70167500D03*
D18*
X192707500Y-65317500D03*
D19*
X192687729Y-65607516D02*
X192727271Y-65027484D01*
D18*
X187032500Y-66892500D03*
D19*
X186377505Y-67622504D02*
X187687495Y-66162496D01*
D20*
X190167500Y-71972500D03*
D21*
X188267500Y-71072500D03*
D22*
X190167500Y-69272500D03*
X190167500Y-72872500D03*
D21*
X192467500Y-71072500D03*
X192072500Y-71071660D03*
X187867500Y-71072500D03*
D23*
X186753500Y-72199500D03*
D15*
X171132500Y-105542500D03*
X176132500Y-107642501D03*
D16*
X171132500Y-111442500D03*
D17*
X165857500Y-111442500D03*
X176407500Y-111442500D03*
D18*
X173657500Y-106592500D03*
D19*
X173637729Y-106882516D02*
X173677271Y-106302484D01*
D18*
X167982500Y-108167500D03*
D19*
X167327505Y-108897504D02*
X168637495Y-107437496D01*
D20*
X171117500Y-113247500D03*
D21*
X169217500Y-112347500D03*
D22*
X171117500Y-110547500D03*
X171117500Y-114147500D03*
D21*
X173417500Y-112347500D03*
X173022500Y-112346660D03*
X168817500Y-112347500D03*
D23*
X167703500Y-113474500D03*
D15*
X171132500Y-86492500D03*
X176132500Y-88592501D03*
D16*
X171132500Y-92392500D03*
D17*
X165857500Y-92392500D03*
X176407500Y-92392500D03*
D18*
X173657500Y-87542500D03*
D19*
X173637729Y-87832516D02*
X173677271Y-87252484D01*
D18*
X167982500Y-89117500D03*
D19*
X167327505Y-89847504D02*
X168637495Y-88387496D01*
D20*
X171117500Y-94197500D03*
D21*
X169217500Y-93297500D03*
D22*
X171117500Y-91497500D03*
X171117500Y-95097500D03*
D21*
X173417500Y-93297500D03*
X173022500Y-93296660D03*
X168817500Y-93297500D03*
D23*
X167703500Y-94424500D03*
D15*
X171132500Y-67442500D03*
X176132500Y-69542501D03*
D16*
X171132500Y-73342500D03*
D17*
X165857500Y-73342500D03*
X176407500Y-73342500D03*
D18*
X173657500Y-68492500D03*
D19*
X173637729Y-68782516D02*
X173677271Y-68202484D01*
D18*
X167982500Y-70067500D03*
D19*
X167327505Y-70797504D02*
X168637495Y-69337496D01*
D20*
X171117500Y-75147500D03*
D21*
X169217500Y-74247500D03*
D22*
X171117500Y-72447500D03*
X171117500Y-76047500D03*
D21*
X173417500Y-74247500D03*
X173022500Y-74246660D03*
X168817500Y-74247500D03*
D23*
X167703500Y-75374500D03*
D15*
X152082500Y-118242500D03*
X157082500Y-120342501D03*
D16*
X152082500Y-124142500D03*
D17*
X146807500Y-124142500D03*
X157357500Y-124142500D03*
D18*
X154607500Y-119292500D03*
D19*
X154587729Y-119582516D02*
X154627271Y-119002484D01*
D18*
X148932500Y-120867500D03*
D19*
X148277505Y-121597504D02*
X149587495Y-120137496D01*
D20*
X152067500Y-125947500D03*
D21*
X150167500Y-125047500D03*
D22*
X152067500Y-123247500D03*
X152067500Y-126847500D03*
D21*
X154367500Y-125047500D03*
X153972500Y-125046660D03*
X149767500Y-125047500D03*
D23*
X148653500Y-126174500D03*
D15*
X152082500Y-99192500D03*
X157082500Y-101292501D03*
D16*
X152082500Y-105092500D03*
D17*
X146807500Y-105092500D03*
X157357500Y-105092500D03*
D18*
X154607500Y-100242500D03*
D19*
X154587729Y-100532516D02*
X154627271Y-99952484D01*
D18*
X148932500Y-101817500D03*
D19*
X148277505Y-102547504D02*
X149587495Y-101087496D01*
D20*
X152067500Y-106897500D03*
D21*
X150167500Y-105997500D03*
D22*
X152067500Y-104197500D03*
X152067500Y-107797500D03*
D21*
X154367500Y-105997500D03*
X153972500Y-105996660D03*
X149767500Y-105997500D03*
D23*
X148653500Y-107124500D03*
D15*
X152082500Y-80142500D03*
X157082500Y-82242501D03*
D16*
X152082500Y-86042500D03*
D17*
X146807500Y-86042500D03*
X157357500Y-86042500D03*
D18*
X154607500Y-81192500D03*
D19*
X154587729Y-81482516D02*
X154627271Y-80902484D01*
D18*
X148932500Y-82767500D03*
D19*
X148277505Y-83497504D02*
X149587495Y-82037496D01*
D20*
X152067500Y-87847500D03*
D21*
X150167500Y-86947500D03*
D22*
X152067500Y-85147500D03*
X152067500Y-88747500D03*
D21*
X154367500Y-86947500D03*
X153972500Y-86946660D03*
X149767500Y-86947500D03*
D23*
X148653500Y-88074500D03*
D15*
X152082500Y-61092500D03*
X157082500Y-63192501D03*
D16*
X152082500Y-66992500D03*
D17*
X146807500Y-66992500D03*
X157357500Y-66992500D03*
D18*
X154607500Y-62142500D03*
D19*
X154587729Y-62432516D02*
X154627271Y-61852484D01*
D18*
X148932500Y-63717500D03*
D19*
X148277505Y-64447504D02*
X149587495Y-62987496D01*
D20*
X152067500Y-68797500D03*
D21*
X150167500Y-67897500D03*
D22*
X152067500Y-66097500D03*
X152067500Y-69697500D03*
D21*
X154367500Y-67897500D03*
X153972500Y-67896660D03*
X149767500Y-67897500D03*
D23*
X148653500Y-69024500D03*
D15*
X133032500Y-113480000D03*
X138032500Y-115580001D03*
D16*
X133032500Y-119380000D03*
D17*
X127757500Y-119380000D03*
X138307500Y-119380000D03*
D18*
X135557500Y-114530000D03*
D19*
X135537729Y-114820016D02*
X135577271Y-114239984D01*
D18*
X129882500Y-116105000D03*
D19*
X129227505Y-116835004D02*
X130537495Y-115374996D01*
D20*
X133017500Y-121185000D03*
D21*
X131117500Y-120285000D03*
D22*
X133017500Y-118485000D03*
X133017500Y-122085000D03*
D21*
X135317500Y-120285000D03*
X134922500Y-120284160D03*
X130717500Y-120285000D03*
D23*
X129603500Y-121412000D03*
D15*
X133032500Y-94430000D03*
X138032500Y-96530001D03*
D16*
X133032500Y-100330000D03*
D17*
X127757500Y-100330000D03*
X138307500Y-100330000D03*
D18*
X135557500Y-95480000D03*
D19*
X135537729Y-95770016D02*
X135577271Y-95189984D01*
D18*
X129882500Y-97055000D03*
D19*
X129227505Y-97785004D02*
X130537495Y-96324996D01*
D20*
X133017500Y-102135000D03*
D21*
X131117500Y-101235000D03*
D22*
X133017500Y-99435000D03*
X133017500Y-103035000D03*
D21*
X135317500Y-101235000D03*
X134922500Y-101234160D03*
X130717500Y-101235000D03*
D23*
X129603500Y-102362000D03*
D15*
X133032500Y-75380000D03*
X138032500Y-77480001D03*
D16*
X133032500Y-81280000D03*
D17*
X127757500Y-81280000D03*
X138307500Y-81280000D03*
D18*
X135557500Y-76430000D03*
D19*
X135537729Y-76720016D02*
X135577271Y-76139984D01*
D18*
X129882500Y-78005000D03*
D19*
X129227505Y-78735004D02*
X130537495Y-77274996D01*
D20*
X133017500Y-83085000D03*
D21*
X131117500Y-82185000D03*
D22*
X133017500Y-80385000D03*
X133017500Y-83985000D03*
D21*
X135317500Y-82185000D03*
X134922500Y-82184160D03*
X130717500Y-82185000D03*
D23*
X129603500Y-83312000D03*
D15*
X113982500Y-107130000D03*
X118982500Y-109230001D03*
D16*
X113982500Y-113030000D03*
D17*
X108707500Y-113030000D03*
X119257500Y-113030000D03*
D18*
X116507500Y-108180000D03*
D19*
X116487729Y-108470016D02*
X116527271Y-107889984D01*
D18*
X110832500Y-109755000D03*
D19*
X110177505Y-110485004D02*
X111487495Y-109024996D01*
D20*
X113967500Y-114835000D03*
D21*
X112067500Y-113935000D03*
D22*
X113967500Y-112135000D03*
X113967500Y-115735000D03*
D21*
X116267500Y-113935000D03*
X115872500Y-113934160D03*
X111667500Y-113935000D03*
D23*
X110553500Y-115062000D03*
D15*
X113982500Y-69030000D03*
X118982500Y-71130001D03*
D16*
X113982500Y-74930000D03*
D17*
X108707500Y-74930000D03*
X119257500Y-74930000D03*
D18*
X116507500Y-70080000D03*
D19*
X116487729Y-70370016D02*
X116527271Y-69789984D01*
D18*
X110832500Y-71655000D03*
D19*
X110177505Y-72385004D02*
X111487495Y-70924996D01*
D20*
X113967500Y-76735000D03*
D21*
X112067500Y-75835000D03*
D22*
X113967500Y-74035000D03*
X113967500Y-77635000D03*
D21*
X116267500Y-75835000D03*
X115872500Y-75834160D03*
X111667500Y-75835000D03*
D23*
X110553500Y-76962000D03*
D15*
X94932500Y-83317500D03*
X99932500Y-85417501D03*
D16*
X94932500Y-89217500D03*
D17*
X89657500Y-89217500D03*
X100207500Y-89217500D03*
D18*
X97457500Y-84367500D03*
D19*
X97437729Y-84657516D02*
X97477271Y-84077484D01*
D18*
X91782500Y-85942500D03*
D19*
X91127505Y-86672504D02*
X92437495Y-85212496D01*
D20*
X94917500Y-91022500D03*
D21*
X93017500Y-90122500D03*
D22*
X94917500Y-88322500D03*
X94917500Y-91922500D03*
D21*
X97217500Y-90122500D03*
X96822500Y-90121660D03*
X92617500Y-90122500D03*
D23*
X91503500Y-91249500D03*
D15*
X94932500Y-64267500D03*
X99932500Y-66367501D03*
D16*
X94932500Y-70167500D03*
D17*
X89657500Y-70167500D03*
X100207500Y-70167500D03*
D18*
X97457500Y-65317500D03*
D19*
X97437729Y-65607516D02*
X97477271Y-65027484D01*
D18*
X91782500Y-66892500D03*
D19*
X91127505Y-67622504D02*
X92437495Y-66162496D01*
D20*
X94917500Y-71972500D03*
D21*
X93017500Y-71072500D03*
D22*
X94917500Y-69272500D03*
X94917500Y-72872500D03*
D21*
X97217500Y-71072500D03*
X96822500Y-71071660D03*
X92617500Y-71072500D03*
D23*
X91503500Y-72199500D03*
M02*
