G04 #@! TF.GenerationSoftware,KiCad,Pcbnew,(5.1.4)-1*
G04 #@! TF.CreationDate,2022-01-24T16:56:21-05:00*
G04 #@! TF.ProjectId,a44key-pcb,6134346b-6579-42d7-9063-622e6b696361,rev?*
G04 #@! TF.SameCoordinates,Original*
G04 #@! TF.FileFunction,Legend,Bot*
G04 #@! TF.FilePolarity,Positive*
%FSLAX46Y46*%
G04 Gerber Fmt 4.6, Leading zero omitted, Abs format (unit mm)*
G04 Created by KiCad (PCBNEW (5.1.4)-1) date 2022-01-24 16:56:21*
%MOMM*%
%LPD*%
G04 APERTURE LIST*
%ADD10C,0.120000*%
%ADD11C,0.150000*%
%ADD12R,1.602000X1.102000*%
%ADD13C,2.102000*%
%ADD14C,4.089800*%
%ADD15O,2.277000X1.852000*%
%ADD16C,2.352000*%
%ADD17C,2.352000*%
%ADD18O,5.202000X1.602000*%
%ADD19O,0.602000X4.202000*%
%ADD20O,5.202000X0.602000*%
%ADD21C,1.402000*%
%ADD22C,0.602000*%
%ADD23C,0.602000*%
%ADD24C,1.602000*%
%ADD25C,1.602000*%
%ADD26C,1.852000*%
%ADD27C,1.852000*%
%ADD28C,1.802000*%
%ADD29C,1.802000*%
%ADD30C,0.100000*%
%ADD31C,1.077000*%
%ADD32R,1.602000X0.652000*%
%ADD33R,0.652000X1.602000*%
%ADD34O,1.802000X2.802000*%
%ADD35R,1.302000X1.002000*%
%ADD36R,1.902000X2.202000*%
%ADD37C,1.352000*%
%ADD38R,1.752000X1.752000*%
%ADD39C,1.752000*%
%ADD40C,1.202000*%
G04 APERTURE END LIST*
D10*
X121142000Y-122416000D02*
X121142000Y-118316000D01*
X121142000Y-118316000D02*
X119142000Y-118316000D01*
X119142000Y-118316000D02*
X119142000Y-122416000D01*
X119142000Y-122416000D02*
X121142000Y-122416000D01*
X118942000Y-121666000D02*
X118642000Y-121966000D01*
X118642000Y-121966000D02*
X118642000Y-121366000D01*
X118942000Y-121666000D02*
X118642000Y-121366000D01*
X115876000Y-119384578D02*
X115876000Y-118867422D01*
X117296000Y-119384578D02*
X117296000Y-118867422D01*
X93016000Y-123148078D02*
X93016000Y-122630922D01*
X94436000Y-123148078D02*
X94436000Y-122630922D01*
X102414000Y-114923078D02*
X102414000Y-114405922D01*
X103834000Y-114923078D02*
X103834000Y-114405922D01*
D11*
X97178000Y-119175000D02*
X97178000Y-117900000D01*
X96603000Y-129525000D02*
X96603000Y-128850000D01*
X106953000Y-129525000D02*
X106953000Y-128850000D01*
X106953000Y-119175000D02*
X106953000Y-119850000D01*
X96603000Y-119175000D02*
X96603000Y-119850000D01*
X106953000Y-119175000D02*
X106278000Y-119175000D01*
X106953000Y-129525000D02*
X106278000Y-129525000D01*
X96603000Y-129525000D02*
X97278000Y-129525000D01*
X96603000Y-119175000D02*
X97178000Y-119175000D01*
D10*
X104643422Y-131656000D02*
X105160578Y-131656000D01*
X104643422Y-133076000D02*
X105160578Y-133076000D01*
X115876000Y-127720078D02*
X115876000Y-127202922D01*
X117296000Y-127720078D02*
X117296000Y-127202922D01*
X96515422Y-131624000D02*
X97032578Y-131624000D01*
X96515422Y-133044000D02*
X97032578Y-133044000D01*
X133334000Y-130392000D02*
X133334000Y-126492000D01*
X131334000Y-130392000D02*
X131334000Y-126492000D01*
X133334000Y-130392000D02*
X131334000Y-130392000D01*
X126730000Y-111342000D02*
X126730000Y-107442000D01*
X124730000Y-111342000D02*
X124730000Y-107442000D01*
X126730000Y-111342000D02*
X124730000Y-111342000D01*
X129270000Y-111342000D02*
X129270000Y-107442000D01*
X127270000Y-111342000D02*
X127270000Y-107442000D01*
X129270000Y-111342000D02*
X127270000Y-111342000D01*
X130794000Y-130392000D02*
X130794000Y-126492000D01*
X128794000Y-130392000D02*
X128794000Y-126492000D01*
X130794000Y-130392000D02*
X128794000Y-130392000D01*
X135874000Y-130392000D02*
X135874000Y-126492000D01*
X133874000Y-130392000D02*
X133874000Y-126492000D01*
X135874000Y-130392000D02*
X133874000Y-130392000D01*
X136890000Y-111342000D02*
X136890000Y-107442000D01*
X134890000Y-111342000D02*
X134890000Y-107442000D01*
X136890000Y-111342000D02*
X134890000Y-111342000D01*
X139430000Y-111342000D02*
X139430000Y-107442000D01*
X137430000Y-111342000D02*
X137430000Y-107442000D01*
X139430000Y-111342000D02*
X137430000Y-111342000D01*
X138414000Y-130392000D02*
X138414000Y-126492000D01*
X136414000Y-130392000D02*
X136414000Y-126492000D01*
X138414000Y-130392000D02*
X136414000Y-130392000D01*
X93016000Y-128990078D02*
X93016000Y-128472922D01*
X94436000Y-128990078D02*
X94436000Y-128472922D01*
X111325922Y-119972000D02*
X111843078Y-119972000D01*
X111325922Y-121392000D02*
X111843078Y-121392000D01*
X93016000Y-119670578D02*
X93016000Y-119153422D01*
X94436000Y-119670578D02*
X94436000Y-119153422D01*
X95810000Y-114844578D02*
X95810000Y-114327422D01*
X97230000Y-114844578D02*
X97230000Y-114327422D01*
X117146000Y-62488578D02*
X117146000Y-61971422D01*
X118566000Y-62488578D02*
X118566000Y-61971422D01*
X110406000Y-128642000D02*
X110406000Y-123242000D01*
X114906000Y-128642000D02*
X110406000Y-128642000D01*
X114860000Y-62488578D02*
X114860000Y-61971422D01*
X116280000Y-62488578D02*
X116280000Y-61971422D01*
X111940078Y-119360000D02*
X111422922Y-119360000D01*
X111940078Y-117940000D02*
X111422922Y-117940000D01*
X119486000Y-62956064D02*
X119486000Y-61751936D01*
X121306000Y-62956064D02*
X121306000Y-61751936D01*
X100382000Y-114923078D02*
X100382000Y-114405922D01*
X101802000Y-114923078D02*
X101802000Y-114405922D01*
X117296000Y-123549922D02*
X117296000Y-124067078D01*
X115876000Y-123549922D02*
X115876000Y-124067078D01*
X139176000Y-92548000D02*
X139176000Y-88648000D01*
X137176000Y-92548000D02*
X137176000Y-88648000D01*
X139176000Y-92548000D02*
X137176000Y-92548000D01*
X139176000Y-72988000D02*
X139176000Y-69088000D01*
X137176000Y-72988000D02*
X137176000Y-69088000D01*
X139176000Y-72988000D02*
X137176000Y-72988000D01*
X136636000Y-92548000D02*
X136636000Y-88648000D01*
X134636000Y-92548000D02*
X134636000Y-88648000D01*
X136636000Y-92548000D02*
X134636000Y-92548000D01*
X136636000Y-72990000D02*
X136636000Y-69090000D01*
X134636000Y-72990000D02*
X134636000Y-69090000D01*
X136636000Y-72990000D02*
X134636000Y-72990000D01*
X134350000Y-111342000D02*
X134350000Y-107442000D01*
X132350000Y-111342000D02*
X132350000Y-107442000D01*
X134350000Y-111342000D02*
X132350000Y-111342000D01*
X134096000Y-92548000D02*
X134096000Y-88648000D01*
X132096000Y-92548000D02*
X132096000Y-88648000D01*
X134096000Y-92548000D02*
X132096000Y-92548000D01*
X134096000Y-72990000D02*
X134096000Y-69090000D01*
X132096000Y-72990000D02*
X132096000Y-69090000D01*
X134096000Y-72990000D02*
X132096000Y-72990000D01*
X131810000Y-111342000D02*
X131810000Y-107442000D01*
X129810000Y-111342000D02*
X129810000Y-107442000D01*
X131810000Y-111342000D02*
X129810000Y-111342000D01*
X131556000Y-92548000D02*
X131556000Y-88648000D01*
X129556000Y-92548000D02*
X129556000Y-88648000D01*
X131556000Y-92548000D02*
X129556000Y-92548000D01*
X131556000Y-72990000D02*
X131556000Y-69090000D01*
X129556000Y-72990000D02*
X129556000Y-69090000D01*
X131556000Y-72990000D02*
X129556000Y-72990000D01*
X126476000Y-92548000D02*
X126476000Y-88648000D01*
X124476000Y-92548000D02*
X124476000Y-88648000D01*
X126476000Y-92548000D02*
X124476000Y-92548000D01*
X129016000Y-72990000D02*
X129016000Y-69090000D01*
X127016000Y-72990000D02*
X127016000Y-69090000D01*
X129016000Y-72990000D02*
X127016000Y-72990000D01*
X129016000Y-92548000D02*
X129016000Y-88648000D01*
X127016000Y-92548000D02*
X127016000Y-88648000D01*
X129016000Y-92548000D02*
X127016000Y-92548000D01*
X126476000Y-72990000D02*
X126476000Y-69090000D01*
X124476000Y-72990000D02*
X124476000Y-69090000D01*
X126476000Y-72990000D02*
X124476000Y-72990000D01*
D11*
X122394380Y-116746952D02*
X121918190Y-116413619D01*
X122394380Y-116175523D02*
X121394380Y-116175523D01*
X121394380Y-116556476D01*
X121442000Y-116651714D01*
X121489619Y-116699333D01*
X121584857Y-116746952D01*
X121727714Y-116746952D01*
X121822952Y-116699333D01*
X121870571Y-116651714D01*
X121918190Y-116556476D01*
X121918190Y-116175523D01*
X122394380Y-117175523D02*
X121727714Y-117175523D01*
X121394380Y-117175523D02*
X121442000Y-117127904D01*
X121489619Y-117175523D01*
X121442000Y-117223142D01*
X121394380Y-117175523D01*
X121489619Y-117175523D01*
X121727714Y-118080285D02*
X122537238Y-118080285D01*
X122632476Y-118032666D01*
X122680095Y-117985047D01*
X122727714Y-117889809D01*
X122727714Y-117746952D01*
X122680095Y-117651714D01*
X122346761Y-118080285D02*
X122394380Y-117985047D01*
X122394380Y-117794571D01*
X122346761Y-117699333D01*
X122299142Y-117651714D01*
X122203904Y-117604095D01*
X121918190Y-117604095D01*
X121822952Y-117651714D01*
X121775333Y-117699333D01*
X121727714Y-117794571D01*
X121727714Y-117985047D01*
X121775333Y-118080285D01*
X122394380Y-118556476D02*
X121394380Y-118556476D01*
X122394380Y-118985047D02*
X121870571Y-118985047D01*
X121775333Y-118937428D01*
X121727714Y-118842190D01*
X121727714Y-118699333D01*
X121775333Y-118604095D01*
X121822952Y-118556476D01*
X121727714Y-119318380D02*
X121727714Y-119699333D01*
X121394380Y-119461238D02*
X122251523Y-119461238D01*
X122346761Y-119508857D01*
X122394380Y-119604095D01*
X122394380Y-119699333D01*
X122013428Y-120032666D02*
X122013428Y-120794571D01*
X122394380Y-121746952D02*
X122394380Y-121270761D01*
X121394380Y-121270761D01*
X122346761Y-122461238D02*
X122394380Y-122366000D01*
X122394380Y-122175523D01*
X122346761Y-122080285D01*
X122251523Y-122032666D01*
X121870571Y-122032666D01*
X121775333Y-122080285D01*
X121727714Y-122175523D01*
X121727714Y-122366000D01*
X121775333Y-122461238D01*
X121870571Y-122508857D01*
X121965809Y-122508857D01*
X122061047Y-122032666D01*
X121727714Y-122794571D02*
X121727714Y-123175523D01*
X122394380Y-122937428D02*
X121537238Y-122937428D01*
X121442000Y-122985047D01*
X121394380Y-123080285D01*
X121394380Y-123175523D01*
X121727714Y-123366000D02*
X121727714Y-123746952D01*
X121394380Y-123508857D02*
X122251523Y-123508857D01*
X122346761Y-123556476D01*
X122394380Y-123651714D01*
X122394380Y-123746952D01*
X122394380Y-124604095D02*
X122394380Y-124032666D01*
X122394380Y-124318380D02*
X121394380Y-124318380D01*
X121537238Y-124223142D01*
X121632476Y-124127904D01*
X121680095Y-124032666D01*
X118816380Y-118197333D02*
X118340190Y-117864000D01*
X118816380Y-117625904D02*
X117816380Y-117625904D01*
X117816380Y-118006857D01*
X117864000Y-118102095D01*
X117911619Y-118149714D01*
X118006857Y-118197333D01*
X118149714Y-118197333D01*
X118244952Y-118149714D01*
X118292571Y-118102095D01*
X118340190Y-118006857D01*
X118340190Y-117625904D01*
X117816380Y-119102095D02*
X117816380Y-118625904D01*
X118292571Y-118578285D01*
X118244952Y-118625904D01*
X118197333Y-118721142D01*
X118197333Y-118959238D01*
X118244952Y-119054476D01*
X118292571Y-119102095D01*
X118387809Y-119149714D01*
X118625904Y-119149714D01*
X118721142Y-119102095D01*
X118768761Y-119054476D01*
X118816380Y-118959238D01*
X118816380Y-118721142D01*
X118768761Y-118625904D01*
X118721142Y-118578285D01*
X92559142Y-121785142D02*
X92606761Y-121737523D01*
X92654380Y-121594666D01*
X92654380Y-121499428D01*
X92606761Y-121356571D01*
X92511523Y-121261333D01*
X92416285Y-121213714D01*
X92225809Y-121166095D01*
X92082952Y-121166095D01*
X91892476Y-121213714D01*
X91797238Y-121261333D01*
X91702000Y-121356571D01*
X91654380Y-121499428D01*
X91654380Y-121594666D01*
X91702000Y-121737523D01*
X91749619Y-121785142D01*
X92654380Y-122737523D02*
X92654380Y-122166095D01*
X92654380Y-122451809D02*
X91654380Y-122451809D01*
X91797238Y-122356571D01*
X91892476Y-122261333D01*
X91940095Y-122166095D01*
X92654380Y-123689904D02*
X92654380Y-123118476D01*
X92654380Y-123404190D02*
X91654380Y-123404190D01*
X91797238Y-123308952D01*
X91892476Y-123213714D01*
X91940095Y-123118476D01*
X103481142Y-111593333D02*
X103528761Y-111545714D01*
X103576380Y-111402857D01*
X103576380Y-111307619D01*
X103528761Y-111164761D01*
X103433523Y-111069523D01*
X103338285Y-111021904D01*
X103147809Y-110974285D01*
X103004952Y-110974285D01*
X102814476Y-111021904D01*
X102719238Y-111069523D01*
X102624000Y-111164761D01*
X102576380Y-111307619D01*
X102576380Y-111402857D01*
X102624000Y-111545714D01*
X102671619Y-111593333D01*
X103576380Y-112069523D02*
X103576380Y-112260000D01*
X103528761Y-112355238D01*
X103481142Y-112402857D01*
X103338285Y-112498095D01*
X103147809Y-112545714D01*
X102766857Y-112545714D01*
X102671619Y-112498095D01*
X102624000Y-112450476D01*
X102576380Y-112355238D01*
X102576380Y-112164761D01*
X102624000Y-112069523D01*
X102671619Y-112021904D01*
X102766857Y-111974285D01*
X103004952Y-111974285D01*
X103100190Y-112021904D01*
X103147809Y-112069523D01*
X103195428Y-112164761D01*
X103195428Y-112355238D01*
X103147809Y-112450476D01*
X103100190Y-112498095D01*
X103004952Y-112545714D01*
X98766380Y-123588095D02*
X99575904Y-123588095D01*
X99671142Y-123635714D01*
X99718761Y-123683333D01*
X99766380Y-123778571D01*
X99766380Y-123969047D01*
X99718761Y-124064285D01*
X99671142Y-124111904D01*
X99575904Y-124159523D01*
X98766380Y-124159523D01*
X99766380Y-125159523D02*
X99766380Y-124588095D01*
X99766380Y-124873809D02*
X98766380Y-124873809D01*
X98909238Y-124778571D01*
X99004476Y-124683333D01*
X99052095Y-124588095D01*
X105068666Y-134373142D02*
X105116285Y-134420761D01*
X105259142Y-134468380D01*
X105354380Y-134468380D01*
X105497238Y-134420761D01*
X105592476Y-134325523D01*
X105640095Y-134230285D01*
X105687714Y-134039809D01*
X105687714Y-133896952D01*
X105640095Y-133706476D01*
X105592476Y-133611238D01*
X105497238Y-133516000D01*
X105354380Y-133468380D01*
X105259142Y-133468380D01*
X105116285Y-133516000D01*
X105068666Y-133563619D01*
X104497238Y-133896952D02*
X104592476Y-133849333D01*
X104640095Y-133801714D01*
X104687714Y-133706476D01*
X104687714Y-133658857D01*
X104640095Y-133563619D01*
X104592476Y-133516000D01*
X104497238Y-133468380D01*
X104306761Y-133468380D01*
X104211523Y-133516000D01*
X104163904Y-133563619D01*
X104116285Y-133658857D01*
X104116285Y-133706476D01*
X104163904Y-133801714D01*
X104211523Y-133849333D01*
X104306761Y-133896952D01*
X104497238Y-133896952D01*
X104592476Y-133944571D01*
X104640095Y-133992190D01*
X104687714Y-134087428D01*
X104687714Y-134277904D01*
X104640095Y-134373142D01*
X104592476Y-134420761D01*
X104497238Y-134468380D01*
X104306761Y-134468380D01*
X104211523Y-134420761D01*
X104163904Y-134373142D01*
X104116285Y-134277904D01*
X104116285Y-134087428D01*
X104163904Y-133992190D01*
X104211523Y-133944571D01*
X104306761Y-133896952D01*
X118975142Y-127341333D02*
X119022761Y-127293714D01*
X119070380Y-127150857D01*
X119070380Y-127055619D01*
X119022761Y-126912761D01*
X118927523Y-126817523D01*
X118832285Y-126769904D01*
X118641809Y-126722285D01*
X118498952Y-126722285D01*
X118308476Y-126769904D01*
X118213238Y-126817523D01*
X118118000Y-126912761D01*
X118070380Y-127055619D01*
X118070380Y-127150857D01*
X118118000Y-127293714D01*
X118165619Y-127341333D01*
X118165619Y-127722285D02*
X118118000Y-127769904D01*
X118070380Y-127865142D01*
X118070380Y-128103238D01*
X118118000Y-128198476D01*
X118165619Y-128246095D01*
X118260857Y-128293714D01*
X118356095Y-128293714D01*
X118498952Y-128246095D01*
X119070380Y-127674666D01*
X119070380Y-128293714D01*
X96940666Y-134436380D02*
X97274000Y-133960190D01*
X97512095Y-134436380D02*
X97512095Y-133436380D01*
X97131142Y-133436380D01*
X97035904Y-133484000D01*
X96988285Y-133531619D01*
X96940666Y-133626857D01*
X96940666Y-133769714D01*
X96988285Y-133864952D01*
X97035904Y-133912571D01*
X97131142Y-133960190D01*
X97512095Y-133960190D01*
X96083523Y-133769714D02*
X96083523Y-134436380D01*
X96321619Y-133388761D02*
X96559714Y-134103047D01*
X95940666Y-134103047D01*
X132532380Y-122703904D02*
X131532380Y-122703904D01*
X131532380Y-122942000D01*
X131580000Y-123084857D01*
X131675238Y-123180095D01*
X131770476Y-123227714D01*
X131960952Y-123275333D01*
X132103809Y-123275333D01*
X132294285Y-123227714D01*
X132389523Y-123180095D01*
X132484761Y-123084857D01*
X132532380Y-122942000D01*
X132532380Y-122703904D01*
X131865714Y-124132476D02*
X132532380Y-124132476D01*
X131484761Y-123894380D02*
X132199047Y-123656285D01*
X132199047Y-124275333D01*
X126436380Y-103909904D02*
X125436380Y-103909904D01*
X125436380Y-104148000D01*
X125484000Y-104290857D01*
X125579238Y-104386095D01*
X125674476Y-104433714D01*
X125864952Y-104481333D01*
X126007809Y-104481333D01*
X126198285Y-104433714D01*
X126293523Y-104386095D01*
X126388761Y-104290857D01*
X126436380Y-104148000D01*
X126436380Y-103909904D01*
X125436380Y-104814666D02*
X125436380Y-105481333D01*
X126436380Y-105052761D01*
X128722380Y-103909904D02*
X127722380Y-103909904D01*
X127722380Y-104148000D01*
X127770000Y-104290857D01*
X127865238Y-104386095D01*
X127960476Y-104433714D01*
X128150952Y-104481333D01*
X128293809Y-104481333D01*
X128484285Y-104433714D01*
X128579523Y-104386095D01*
X128674761Y-104290857D01*
X128722380Y-104148000D01*
X128722380Y-103909904D01*
X127722380Y-104814666D02*
X127722380Y-105433714D01*
X128103333Y-105100380D01*
X128103333Y-105243238D01*
X128150952Y-105338476D01*
X128198571Y-105386095D01*
X128293809Y-105433714D01*
X128531904Y-105433714D01*
X128627142Y-105386095D01*
X128674761Y-105338476D01*
X128722380Y-105243238D01*
X128722380Y-104957523D01*
X128674761Y-104862285D01*
X128627142Y-104814666D01*
X130246380Y-122703904D02*
X129246380Y-122703904D01*
X129246380Y-122942000D01*
X129294000Y-123084857D01*
X129389238Y-123180095D01*
X129484476Y-123227714D01*
X129674952Y-123275333D01*
X129817809Y-123275333D01*
X130008285Y-123227714D01*
X130103523Y-123180095D01*
X130198761Y-123084857D01*
X130246380Y-122942000D01*
X130246380Y-122703904D01*
X129674952Y-123846761D02*
X129627333Y-123751523D01*
X129579714Y-123703904D01*
X129484476Y-123656285D01*
X129436857Y-123656285D01*
X129341619Y-123703904D01*
X129294000Y-123751523D01*
X129246380Y-123846761D01*
X129246380Y-124037238D01*
X129294000Y-124132476D01*
X129341619Y-124180095D01*
X129436857Y-124227714D01*
X129484476Y-124227714D01*
X129579714Y-124180095D01*
X129627333Y-124132476D01*
X129674952Y-124037238D01*
X129674952Y-123846761D01*
X129722571Y-123751523D01*
X129770190Y-123703904D01*
X129865428Y-123656285D01*
X130055904Y-123656285D01*
X130151142Y-123703904D01*
X130198761Y-123751523D01*
X130246380Y-123846761D01*
X130246380Y-124037238D01*
X130198761Y-124132476D01*
X130151142Y-124180095D01*
X130055904Y-124227714D01*
X129865428Y-124227714D01*
X129770190Y-124180095D01*
X129722571Y-124132476D01*
X129674952Y-124037238D01*
X135072380Y-122735714D02*
X134072380Y-122735714D01*
X134072380Y-122973809D01*
X134120000Y-123116666D01*
X134215238Y-123211904D01*
X134310476Y-123259523D01*
X134500952Y-123307142D01*
X134643809Y-123307142D01*
X134834285Y-123259523D01*
X134929523Y-123211904D01*
X135024761Y-123116666D01*
X135072380Y-122973809D01*
X135072380Y-122735714D01*
X135072380Y-124259523D02*
X135072380Y-123688095D01*
X135072380Y-123973809D02*
X134072380Y-123973809D01*
X134215238Y-123878571D01*
X134310476Y-123783333D01*
X134358095Y-123688095D01*
X134167619Y-124640476D02*
X134120000Y-124688095D01*
X134072380Y-124783333D01*
X134072380Y-125021428D01*
X134120000Y-125116666D01*
X134167619Y-125164285D01*
X134262857Y-125211904D01*
X134358095Y-125211904D01*
X134500952Y-125164285D01*
X135072380Y-124592857D01*
X135072380Y-125211904D01*
X136596380Y-103687714D02*
X135596380Y-103687714D01*
X135596380Y-103925809D01*
X135644000Y-104068666D01*
X135739238Y-104163904D01*
X135834476Y-104211523D01*
X136024952Y-104259142D01*
X136167809Y-104259142D01*
X136358285Y-104211523D01*
X136453523Y-104163904D01*
X136548761Y-104068666D01*
X136596380Y-103925809D01*
X136596380Y-103687714D01*
X136596380Y-105211523D02*
X136596380Y-104640095D01*
X136596380Y-104925809D02*
X135596380Y-104925809D01*
X135739238Y-104830571D01*
X135834476Y-104735333D01*
X135882095Y-104640095D01*
X136596380Y-105687714D02*
X136596380Y-105878190D01*
X136548761Y-105973428D01*
X136501142Y-106021047D01*
X136358285Y-106116285D01*
X136167809Y-106163904D01*
X135786857Y-106163904D01*
X135691619Y-106116285D01*
X135644000Y-106068666D01*
X135596380Y-105973428D01*
X135596380Y-105782952D01*
X135644000Y-105687714D01*
X135691619Y-105640095D01*
X135786857Y-105592476D01*
X136024952Y-105592476D01*
X136120190Y-105640095D01*
X136167809Y-105687714D01*
X136215428Y-105782952D01*
X136215428Y-105973428D01*
X136167809Y-106068666D01*
X136120190Y-106116285D01*
X136024952Y-106163904D01*
X138882380Y-103687714D02*
X137882380Y-103687714D01*
X137882380Y-103925809D01*
X137930000Y-104068666D01*
X138025238Y-104163904D01*
X138120476Y-104211523D01*
X138310952Y-104259142D01*
X138453809Y-104259142D01*
X138644285Y-104211523D01*
X138739523Y-104163904D01*
X138834761Y-104068666D01*
X138882380Y-103925809D01*
X138882380Y-103687714D01*
X137977619Y-104640095D02*
X137930000Y-104687714D01*
X137882380Y-104782952D01*
X137882380Y-105021047D01*
X137930000Y-105116285D01*
X137977619Y-105163904D01*
X138072857Y-105211523D01*
X138168095Y-105211523D01*
X138310952Y-105163904D01*
X138882380Y-104592476D01*
X138882380Y-105211523D01*
X137977619Y-105592476D02*
X137930000Y-105640095D01*
X137882380Y-105735333D01*
X137882380Y-105973428D01*
X137930000Y-106068666D01*
X137977619Y-106116285D01*
X138072857Y-106163904D01*
X138168095Y-106163904D01*
X138310952Y-106116285D01*
X138882380Y-105544857D01*
X138882380Y-106163904D01*
X137866380Y-122737714D02*
X136866380Y-122737714D01*
X136866380Y-122975809D01*
X136914000Y-123118666D01*
X137009238Y-123213904D01*
X137104476Y-123261523D01*
X137294952Y-123309142D01*
X137437809Y-123309142D01*
X137628285Y-123261523D01*
X137723523Y-123213904D01*
X137818761Y-123118666D01*
X137866380Y-122975809D01*
X137866380Y-122737714D01*
X137866380Y-124261523D02*
X137866380Y-123690095D01*
X137866380Y-123975809D02*
X136866380Y-123975809D01*
X137009238Y-123880571D01*
X137104476Y-123785333D01*
X137152095Y-123690095D01*
X136866380Y-125118666D02*
X136866380Y-124928190D01*
X136914000Y-124832952D01*
X136961619Y-124785333D01*
X137104476Y-124690095D01*
X137294952Y-124642476D01*
X137675904Y-124642476D01*
X137771142Y-124690095D01*
X137818761Y-124737714D01*
X137866380Y-124832952D01*
X137866380Y-125023428D01*
X137818761Y-125118666D01*
X137771142Y-125166285D01*
X137675904Y-125213904D01*
X137437809Y-125213904D01*
X137342571Y-125166285D01*
X137294952Y-125118666D01*
X137247333Y-125023428D01*
X137247333Y-124832952D01*
X137294952Y-124737714D01*
X137342571Y-124690095D01*
X137437809Y-124642476D01*
X92559142Y-127341333D02*
X92606761Y-127293714D01*
X92654380Y-127150857D01*
X92654380Y-127055619D01*
X92606761Y-126912761D01*
X92511523Y-126817523D01*
X92416285Y-126769904D01*
X92225809Y-126722285D01*
X92082952Y-126722285D01*
X91892476Y-126769904D01*
X91797238Y-126817523D01*
X91702000Y-126912761D01*
X91654380Y-127055619D01*
X91654380Y-127150857D01*
X91702000Y-127293714D01*
X91749619Y-127341333D01*
X92654380Y-128293714D02*
X92654380Y-127722285D01*
X92654380Y-128008000D02*
X91654380Y-128008000D01*
X91797238Y-127912761D01*
X91892476Y-127817523D01*
X91940095Y-127722285D01*
X114466666Y-121007142D02*
X114514285Y-121054761D01*
X114657142Y-121102380D01*
X114752380Y-121102380D01*
X114895238Y-121054761D01*
X114990476Y-120959523D01*
X115038095Y-120864285D01*
X115085714Y-120673809D01*
X115085714Y-120530952D01*
X115038095Y-120340476D01*
X114990476Y-120245238D01*
X114895238Y-120150000D01*
X114752380Y-120102380D01*
X114657142Y-120102380D01*
X114514285Y-120150000D01*
X114466666Y-120197619D01*
X113609523Y-120435714D02*
X113609523Y-121102380D01*
X113847619Y-120054761D02*
X114085714Y-120769047D01*
X113466666Y-120769047D01*
X91860666Y-119483142D02*
X91908285Y-119530761D01*
X92051142Y-119578380D01*
X92146380Y-119578380D01*
X92289238Y-119530761D01*
X92384476Y-119435523D01*
X92432095Y-119340285D01*
X92479714Y-119149809D01*
X92479714Y-119006952D01*
X92432095Y-118816476D01*
X92384476Y-118721238D01*
X92289238Y-118626000D01*
X92146380Y-118578380D01*
X92051142Y-118578380D01*
X91908285Y-118626000D01*
X91860666Y-118673619D01*
X90955904Y-118578380D02*
X91432095Y-118578380D01*
X91479714Y-119054571D01*
X91432095Y-119006952D01*
X91336857Y-118959333D01*
X91098761Y-118959333D01*
X91003523Y-119006952D01*
X90955904Y-119054571D01*
X90908285Y-119149809D01*
X90908285Y-119387904D01*
X90955904Y-119483142D01*
X91003523Y-119530761D01*
X91098761Y-119578380D01*
X91336857Y-119578380D01*
X91432095Y-119530761D01*
X91479714Y-119483142D01*
X98527142Y-114419333D02*
X98574761Y-114371714D01*
X98622380Y-114228857D01*
X98622380Y-114133619D01*
X98574761Y-113990761D01*
X98479523Y-113895523D01*
X98384285Y-113847904D01*
X98193809Y-113800285D01*
X98050952Y-113800285D01*
X97860476Y-113847904D01*
X97765238Y-113895523D01*
X97670000Y-113990761D01*
X97622380Y-114133619D01*
X97622380Y-114228857D01*
X97670000Y-114371714D01*
X97717619Y-114419333D01*
X97622380Y-114752666D02*
X97622380Y-115419333D01*
X98622380Y-114990761D01*
X118308380Y-65111333D02*
X117832190Y-64778000D01*
X118308380Y-64539904D02*
X117308380Y-64539904D01*
X117308380Y-64920857D01*
X117356000Y-65016095D01*
X117403619Y-65063714D01*
X117498857Y-65111333D01*
X117641714Y-65111333D01*
X117736952Y-65063714D01*
X117784571Y-65016095D01*
X117832190Y-64920857D01*
X117832190Y-64539904D01*
X118308380Y-66063714D02*
X118308380Y-65492285D01*
X118308380Y-65778000D02*
X117308380Y-65778000D01*
X117451238Y-65682761D01*
X117546476Y-65587523D01*
X117594095Y-65492285D01*
X112244190Y-129571809D02*
X112720380Y-129571809D01*
X111720380Y-129238476D02*
X112244190Y-129571809D01*
X111720380Y-129905142D01*
X112720380Y-130762285D02*
X112720380Y-130190857D01*
X112720380Y-130476571D02*
X111720380Y-130476571D01*
X111863238Y-130381333D01*
X111958476Y-130286095D01*
X112006095Y-130190857D01*
X116022380Y-65111333D02*
X115546190Y-64778000D01*
X116022380Y-64539904D02*
X115022380Y-64539904D01*
X115022380Y-64920857D01*
X115070000Y-65016095D01*
X115117619Y-65063714D01*
X115212857Y-65111333D01*
X115355714Y-65111333D01*
X115450952Y-65063714D01*
X115498571Y-65016095D01*
X115546190Y-64920857D01*
X115546190Y-64539904D01*
X115117619Y-65492285D02*
X115070000Y-65539904D01*
X115022380Y-65635142D01*
X115022380Y-65873238D01*
X115070000Y-65968476D01*
X115117619Y-66016095D01*
X115212857Y-66063714D01*
X115308095Y-66063714D01*
X115450952Y-66016095D01*
X116022380Y-65444666D01*
X116022380Y-66063714D01*
X114466666Y-119070380D02*
X114800000Y-118594190D01*
X115038095Y-119070380D02*
X115038095Y-118070380D01*
X114657142Y-118070380D01*
X114561904Y-118118000D01*
X114514285Y-118165619D01*
X114466666Y-118260857D01*
X114466666Y-118403714D01*
X114514285Y-118498952D01*
X114561904Y-118546571D01*
X114657142Y-118594190D01*
X115038095Y-118594190D01*
X114133333Y-118070380D02*
X113514285Y-118070380D01*
X113847619Y-118451333D01*
X113704761Y-118451333D01*
X113609523Y-118498952D01*
X113561904Y-118546571D01*
X113514285Y-118641809D01*
X113514285Y-118879904D01*
X113561904Y-118975142D01*
X113609523Y-119022761D01*
X113704761Y-119070380D01*
X113990476Y-119070380D01*
X114085714Y-119022761D01*
X114133333Y-118975142D01*
X120070571Y-65706666D02*
X120070571Y-65373333D01*
X120594380Y-65373333D02*
X119594380Y-65373333D01*
X119594380Y-65849523D01*
X120594380Y-66754285D02*
X120594380Y-66182857D01*
X120594380Y-66468571D02*
X119594380Y-66468571D01*
X119737238Y-66373333D01*
X119832476Y-66278095D01*
X119880095Y-66182857D01*
X101449142Y-111593333D02*
X101496761Y-111545714D01*
X101544380Y-111402857D01*
X101544380Y-111307619D01*
X101496761Y-111164761D01*
X101401523Y-111069523D01*
X101306285Y-111021904D01*
X101115809Y-110974285D01*
X100972952Y-110974285D01*
X100782476Y-111021904D01*
X100687238Y-111069523D01*
X100592000Y-111164761D01*
X100544380Y-111307619D01*
X100544380Y-111402857D01*
X100592000Y-111545714D01*
X100639619Y-111593333D01*
X100544380Y-112450476D02*
X100544380Y-112260000D01*
X100592000Y-112164761D01*
X100639619Y-112117142D01*
X100782476Y-112021904D01*
X100972952Y-111974285D01*
X101353904Y-111974285D01*
X101449142Y-112021904D01*
X101496761Y-112069523D01*
X101544380Y-112164761D01*
X101544380Y-112355238D01*
X101496761Y-112450476D01*
X101449142Y-112498095D01*
X101353904Y-112545714D01*
X101115809Y-112545714D01*
X101020571Y-112498095D01*
X100972952Y-112450476D01*
X100925333Y-112355238D01*
X100925333Y-112164761D01*
X100972952Y-112069523D01*
X101020571Y-112021904D01*
X101115809Y-111974285D01*
X118975142Y-123531333D02*
X119022761Y-123483714D01*
X119070380Y-123340857D01*
X119070380Y-123245619D01*
X119022761Y-123102761D01*
X118927523Y-123007523D01*
X118832285Y-122959904D01*
X118641809Y-122912285D01*
X118498952Y-122912285D01*
X118308476Y-122959904D01*
X118213238Y-123007523D01*
X118118000Y-123102761D01*
X118070380Y-123245619D01*
X118070380Y-123340857D01*
X118118000Y-123483714D01*
X118165619Y-123531333D01*
X118070380Y-123864666D02*
X118070380Y-124483714D01*
X118451333Y-124150380D01*
X118451333Y-124293238D01*
X118498952Y-124388476D01*
X118546571Y-124436095D01*
X118641809Y-124483714D01*
X118879904Y-124483714D01*
X118975142Y-124436095D01*
X119022761Y-124388476D01*
X119070380Y-124293238D01*
X119070380Y-124007523D01*
X119022761Y-123912285D01*
X118975142Y-123864666D01*
X138374380Y-85145714D02*
X137374380Y-85145714D01*
X137374380Y-85383809D01*
X137422000Y-85526666D01*
X137517238Y-85621904D01*
X137612476Y-85669523D01*
X137802952Y-85717142D01*
X137945809Y-85717142D01*
X138136285Y-85669523D01*
X138231523Y-85621904D01*
X138326761Y-85526666D01*
X138374380Y-85383809D01*
X138374380Y-85145714D01*
X137469619Y-86098095D02*
X137422000Y-86145714D01*
X137374380Y-86240952D01*
X137374380Y-86479047D01*
X137422000Y-86574285D01*
X137469619Y-86621904D01*
X137564857Y-86669523D01*
X137660095Y-86669523D01*
X137802952Y-86621904D01*
X138374380Y-86050476D01*
X138374380Y-86669523D01*
X138374380Y-87621904D02*
X138374380Y-87050476D01*
X138374380Y-87336190D02*
X137374380Y-87336190D01*
X137517238Y-87240952D01*
X137612476Y-87145714D01*
X137660095Y-87050476D01*
X138628380Y-65587714D02*
X137628380Y-65587714D01*
X137628380Y-65825809D01*
X137676000Y-65968666D01*
X137771238Y-66063904D01*
X137866476Y-66111523D01*
X138056952Y-66159142D01*
X138199809Y-66159142D01*
X138390285Y-66111523D01*
X138485523Y-66063904D01*
X138580761Y-65968666D01*
X138628380Y-65825809D01*
X138628380Y-65587714D01*
X137723619Y-66540095D02*
X137676000Y-66587714D01*
X137628380Y-66682952D01*
X137628380Y-66921047D01*
X137676000Y-67016285D01*
X137723619Y-67063904D01*
X137818857Y-67111523D01*
X137914095Y-67111523D01*
X138056952Y-67063904D01*
X138628380Y-66492476D01*
X138628380Y-67111523D01*
X137628380Y-67730571D02*
X137628380Y-67825809D01*
X137676000Y-67921047D01*
X137723619Y-67968666D01*
X137818857Y-68016285D01*
X138009333Y-68063904D01*
X138247428Y-68063904D01*
X138437904Y-68016285D01*
X138533142Y-67968666D01*
X138580761Y-67921047D01*
X138628380Y-67825809D01*
X138628380Y-67730571D01*
X138580761Y-67635333D01*
X138533142Y-67587714D01*
X138437904Y-67540095D01*
X138247428Y-67492476D01*
X138009333Y-67492476D01*
X137818857Y-67540095D01*
X137723619Y-67587714D01*
X137676000Y-67635333D01*
X137628380Y-67730571D01*
X136088380Y-85145714D02*
X135088380Y-85145714D01*
X135088380Y-85383809D01*
X135136000Y-85526666D01*
X135231238Y-85621904D01*
X135326476Y-85669523D01*
X135516952Y-85717142D01*
X135659809Y-85717142D01*
X135850285Y-85669523D01*
X135945523Y-85621904D01*
X136040761Y-85526666D01*
X136088380Y-85383809D01*
X136088380Y-85145714D01*
X136088380Y-86669523D02*
X136088380Y-86098095D01*
X136088380Y-86383809D02*
X135088380Y-86383809D01*
X135231238Y-86288571D01*
X135326476Y-86193333D01*
X135374095Y-86098095D01*
X135516952Y-87240952D02*
X135469333Y-87145714D01*
X135421714Y-87098095D01*
X135326476Y-87050476D01*
X135278857Y-87050476D01*
X135183619Y-87098095D01*
X135136000Y-87145714D01*
X135088380Y-87240952D01*
X135088380Y-87431428D01*
X135136000Y-87526666D01*
X135183619Y-87574285D01*
X135278857Y-87621904D01*
X135326476Y-87621904D01*
X135421714Y-87574285D01*
X135469333Y-87526666D01*
X135516952Y-87431428D01*
X135516952Y-87240952D01*
X135564571Y-87145714D01*
X135612190Y-87098095D01*
X135707428Y-87050476D01*
X135897904Y-87050476D01*
X135993142Y-87098095D01*
X136040761Y-87145714D01*
X136088380Y-87240952D01*
X136088380Y-87431428D01*
X136040761Y-87526666D01*
X135993142Y-87574285D01*
X135897904Y-87621904D01*
X135707428Y-87621904D01*
X135612190Y-87574285D01*
X135564571Y-87526666D01*
X135516952Y-87431428D01*
X136088380Y-65841714D02*
X135088380Y-65841714D01*
X135088380Y-66079809D01*
X135136000Y-66222666D01*
X135231238Y-66317904D01*
X135326476Y-66365523D01*
X135516952Y-66413142D01*
X135659809Y-66413142D01*
X135850285Y-66365523D01*
X135945523Y-66317904D01*
X136040761Y-66222666D01*
X136088380Y-66079809D01*
X136088380Y-65841714D01*
X136088380Y-67365523D02*
X136088380Y-66794095D01*
X136088380Y-67079809D02*
X135088380Y-67079809D01*
X135231238Y-66984571D01*
X135326476Y-66889333D01*
X135374095Y-66794095D01*
X135088380Y-67698857D02*
X135088380Y-68365523D01*
X136088380Y-67936952D01*
X133802380Y-103941714D02*
X132802380Y-103941714D01*
X132802380Y-104179809D01*
X132850000Y-104322666D01*
X132945238Y-104417904D01*
X133040476Y-104465523D01*
X133230952Y-104513142D01*
X133373809Y-104513142D01*
X133564285Y-104465523D01*
X133659523Y-104417904D01*
X133754761Y-104322666D01*
X133802380Y-104179809D01*
X133802380Y-103941714D01*
X133802380Y-105465523D02*
X133802380Y-104894095D01*
X133802380Y-105179809D02*
X132802380Y-105179809D01*
X132945238Y-105084571D01*
X133040476Y-104989333D01*
X133088095Y-104894095D01*
X132802380Y-106370285D02*
X132802380Y-105894095D01*
X133278571Y-105846476D01*
X133230952Y-105894095D01*
X133183333Y-105989333D01*
X133183333Y-106227428D01*
X133230952Y-106322666D01*
X133278571Y-106370285D01*
X133373809Y-106417904D01*
X133611904Y-106417904D01*
X133707142Y-106370285D01*
X133754761Y-106322666D01*
X133802380Y-106227428D01*
X133802380Y-105989333D01*
X133754761Y-105894095D01*
X133707142Y-105846476D01*
X133548380Y-85145714D02*
X132548380Y-85145714D01*
X132548380Y-85383809D01*
X132596000Y-85526666D01*
X132691238Y-85621904D01*
X132786476Y-85669523D01*
X132976952Y-85717142D01*
X133119809Y-85717142D01*
X133310285Y-85669523D01*
X133405523Y-85621904D01*
X133500761Y-85526666D01*
X133548380Y-85383809D01*
X133548380Y-85145714D01*
X133548380Y-86669523D02*
X133548380Y-86098095D01*
X133548380Y-86383809D02*
X132548380Y-86383809D01*
X132691238Y-86288571D01*
X132786476Y-86193333D01*
X132834095Y-86098095D01*
X132881714Y-87526666D02*
X133548380Y-87526666D01*
X132500761Y-87288571D02*
X133215047Y-87050476D01*
X133215047Y-87669523D01*
X133548380Y-65841714D02*
X132548380Y-65841714D01*
X132548380Y-66079809D01*
X132596000Y-66222666D01*
X132691238Y-66317904D01*
X132786476Y-66365523D01*
X132976952Y-66413142D01*
X133119809Y-66413142D01*
X133310285Y-66365523D01*
X133405523Y-66317904D01*
X133500761Y-66222666D01*
X133548380Y-66079809D01*
X133548380Y-65841714D01*
X133548380Y-67365523D02*
X133548380Y-66794095D01*
X133548380Y-67079809D02*
X132548380Y-67079809D01*
X132691238Y-66984571D01*
X132786476Y-66889333D01*
X132834095Y-66794095D01*
X132548380Y-67698857D02*
X132548380Y-68317904D01*
X132929333Y-67984571D01*
X132929333Y-68127428D01*
X132976952Y-68222666D01*
X133024571Y-68270285D01*
X133119809Y-68317904D01*
X133357904Y-68317904D01*
X133453142Y-68270285D01*
X133500761Y-68222666D01*
X133548380Y-68127428D01*
X133548380Y-67841714D01*
X133500761Y-67746476D01*
X133453142Y-67698857D01*
X131262380Y-103941714D02*
X130262380Y-103941714D01*
X130262380Y-104179809D01*
X130310000Y-104322666D01*
X130405238Y-104417904D01*
X130500476Y-104465523D01*
X130690952Y-104513142D01*
X130833809Y-104513142D01*
X131024285Y-104465523D01*
X131119523Y-104417904D01*
X131214761Y-104322666D01*
X131262380Y-104179809D01*
X131262380Y-103941714D01*
X131262380Y-105465523D02*
X131262380Y-104894095D01*
X131262380Y-105179809D02*
X130262380Y-105179809D01*
X130405238Y-105084571D01*
X130500476Y-104989333D01*
X130548095Y-104894095D01*
X131262380Y-106417904D02*
X131262380Y-105846476D01*
X131262380Y-106132190D02*
X130262380Y-106132190D01*
X130405238Y-106036952D01*
X130500476Y-105941714D01*
X130548095Y-105846476D01*
X131008380Y-85399714D02*
X130008380Y-85399714D01*
X130008380Y-85637809D01*
X130056000Y-85780666D01*
X130151238Y-85875904D01*
X130246476Y-85923523D01*
X130436952Y-85971142D01*
X130579809Y-85971142D01*
X130770285Y-85923523D01*
X130865523Y-85875904D01*
X130960761Y-85780666D01*
X131008380Y-85637809D01*
X131008380Y-85399714D01*
X131008380Y-86923523D02*
X131008380Y-86352095D01*
X131008380Y-86637809D02*
X130008380Y-86637809D01*
X130151238Y-86542571D01*
X130246476Y-86447333D01*
X130294095Y-86352095D01*
X130008380Y-87542571D02*
X130008380Y-87637809D01*
X130056000Y-87733047D01*
X130103619Y-87780666D01*
X130198857Y-87828285D01*
X130389333Y-87875904D01*
X130627428Y-87875904D01*
X130817904Y-87828285D01*
X130913142Y-87780666D01*
X130960761Y-87733047D01*
X131008380Y-87637809D01*
X131008380Y-87542571D01*
X130960761Y-87447333D01*
X130913142Y-87399714D01*
X130817904Y-87352095D01*
X130627428Y-87304476D01*
X130389333Y-87304476D01*
X130198857Y-87352095D01*
X130103619Y-87399714D01*
X130056000Y-87447333D01*
X130008380Y-87542571D01*
X131008380Y-65809904D02*
X130008380Y-65809904D01*
X130008380Y-66048000D01*
X130056000Y-66190857D01*
X130151238Y-66286095D01*
X130246476Y-66333714D01*
X130436952Y-66381333D01*
X130579809Y-66381333D01*
X130770285Y-66333714D01*
X130865523Y-66286095D01*
X130960761Y-66190857D01*
X131008380Y-66048000D01*
X131008380Y-65809904D01*
X131008380Y-66857523D02*
X131008380Y-67048000D01*
X130960761Y-67143238D01*
X130913142Y-67190857D01*
X130770285Y-67286095D01*
X130579809Y-67333714D01*
X130198857Y-67333714D01*
X130103619Y-67286095D01*
X130056000Y-67238476D01*
X130008380Y-67143238D01*
X130008380Y-66952761D01*
X130056000Y-66857523D01*
X130103619Y-66809904D01*
X130198857Y-66762285D01*
X130436952Y-66762285D01*
X130532190Y-66809904D01*
X130579809Y-66857523D01*
X130627428Y-66952761D01*
X130627428Y-67143238D01*
X130579809Y-67238476D01*
X130532190Y-67286095D01*
X130436952Y-67333714D01*
X126182380Y-85367904D02*
X125182380Y-85367904D01*
X125182380Y-85606000D01*
X125230000Y-85748857D01*
X125325238Y-85844095D01*
X125420476Y-85891714D01*
X125610952Y-85939333D01*
X125753809Y-85939333D01*
X125944285Y-85891714D01*
X126039523Y-85844095D01*
X126134761Y-85748857D01*
X126182380Y-85606000D01*
X126182380Y-85367904D01*
X125182380Y-86796476D02*
X125182380Y-86606000D01*
X125230000Y-86510761D01*
X125277619Y-86463142D01*
X125420476Y-86367904D01*
X125610952Y-86320285D01*
X125991904Y-86320285D01*
X126087142Y-86367904D01*
X126134761Y-86415523D01*
X126182380Y-86510761D01*
X126182380Y-86701238D01*
X126134761Y-86796476D01*
X126087142Y-86844095D01*
X125991904Y-86891714D01*
X125753809Y-86891714D01*
X125658571Y-86844095D01*
X125610952Y-86796476D01*
X125563333Y-86701238D01*
X125563333Y-86510761D01*
X125610952Y-86415523D01*
X125658571Y-86367904D01*
X125753809Y-86320285D01*
X128468380Y-65555904D02*
X127468380Y-65555904D01*
X127468380Y-65794000D01*
X127516000Y-65936857D01*
X127611238Y-66032095D01*
X127706476Y-66079714D01*
X127896952Y-66127333D01*
X128039809Y-66127333D01*
X128230285Y-66079714D01*
X128325523Y-66032095D01*
X128420761Y-65936857D01*
X128468380Y-65794000D01*
X128468380Y-65555904D01*
X127468380Y-67032095D02*
X127468380Y-66555904D01*
X127944571Y-66508285D01*
X127896952Y-66555904D01*
X127849333Y-66651142D01*
X127849333Y-66889238D01*
X127896952Y-66984476D01*
X127944571Y-67032095D01*
X128039809Y-67079714D01*
X128277904Y-67079714D01*
X128373142Y-67032095D01*
X128420761Y-66984476D01*
X128468380Y-66889238D01*
X128468380Y-66651142D01*
X128420761Y-66555904D01*
X128373142Y-66508285D01*
X128468380Y-85367904D02*
X127468380Y-85367904D01*
X127468380Y-85606000D01*
X127516000Y-85748857D01*
X127611238Y-85844095D01*
X127706476Y-85891714D01*
X127896952Y-85939333D01*
X128039809Y-85939333D01*
X128230285Y-85891714D01*
X128325523Y-85844095D01*
X128420761Y-85748857D01*
X128468380Y-85606000D01*
X128468380Y-85367904D01*
X127563619Y-86320285D02*
X127516000Y-86367904D01*
X127468380Y-86463142D01*
X127468380Y-86701238D01*
X127516000Y-86796476D01*
X127563619Y-86844095D01*
X127658857Y-86891714D01*
X127754095Y-86891714D01*
X127896952Y-86844095D01*
X128468380Y-86272666D01*
X128468380Y-86891714D01*
X125928380Y-65555904D02*
X124928380Y-65555904D01*
X124928380Y-65794000D01*
X124976000Y-65936857D01*
X125071238Y-66032095D01*
X125166476Y-66079714D01*
X125356952Y-66127333D01*
X125499809Y-66127333D01*
X125690285Y-66079714D01*
X125785523Y-66032095D01*
X125880761Y-65936857D01*
X125928380Y-65794000D01*
X125928380Y-65555904D01*
X125928380Y-67079714D02*
X125928380Y-66508285D01*
X125928380Y-66794000D02*
X124928380Y-66794000D01*
X125071238Y-66698761D01*
X125166476Y-66603523D01*
X125214095Y-66508285D01*
%LPC*%
D12*
X120142000Y-121666000D03*
X120142000Y-120366000D03*
X120142000Y-119066000D03*
D13*
X113982500Y-88080000D03*
X118982500Y-90180001D03*
D14*
X113982500Y-93980000D03*
D15*
X108707500Y-93980000D03*
X119257500Y-93980000D03*
D16*
X116507500Y-89130000D03*
D17*
X116487729Y-89420016D02*
X116527271Y-88839984D01*
D16*
X110832500Y-90705000D03*
D17*
X110177505Y-91435004D02*
X111487495Y-89974996D01*
D18*
X113967500Y-95785000D03*
D19*
X112067500Y-94885000D03*
D20*
X113967500Y-93085000D03*
X113967500Y-96685000D03*
D19*
X116267500Y-94885000D03*
X115872500Y-94884160D03*
X111667500Y-94885000D03*
D21*
X110553500Y-96012000D03*
D13*
X190182500Y-102367500D03*
X195182500Y-104467501D03*
D14*
X190182500Y-108267500D03*
D15*
X184907500Y-108267500D03*
X195457500Y-108267500D03*
D16*
X192707500Y-103417500D03*
D17*
X192687729Y-103707516D02*
X192727271Y-103127484D01*
D16*
X187032500Y-104992500D03*
D17*
X186377505Y-105722504D02*
X187687495Y-104262496D01*
D18*
X190167500Y-110072500D03*
D19*
X188267500Y-109172500D03*
D20*
X190167500Y-107372500D03*
X190167500Y-110972500D03*
D19*
X192467500Y-109172500D03*
X192072500Y-109171660D03*
X187867500Y-109172500D03*
D21*
X186753500Y-110299500D03*
D13*
X190182500Y-83317500D03*
X195182500Y-85417501D03*
D14*
X190182500Y-89217500D03*
D15*
X184907500Y-89217500D03*
X195457500Y-89217500D03*
D16*
X192707500Y-84367500D03*
D17*
X192687729Y-84657516D02*
X192727271Y-84077484D01*
D16*
X187032500Y-85942500D03*
D17*
X186377505Y-86672504D02*
X187687495Y-85212496D01*
D18*
X190167500Y-91022500D03*
D19*
X188267500Y-90122500D03*
D20*
X190167500Y-88322500D03*
X190167500Y-91922500D03*
D19*
X192467500Y-90122500D03*
X192072500Y-90121660D03*
X187867500Y-90122500D03*
D21*
X186753500Y-91249500D03*
X117086239Y-132247126D03*
D22*
X116301887Y-133624049D03*
D23*
X116767761Y-135362715D02*
X115836013Y-131885383D01*
D22*
X112240386Y-134713195D03*
D23*
X112706260Y-136451861D02*
X111774512Y-132974529D01*
D22*
X111858628Y-134814617D03*
D23*
X112324502Y-136553283D02*
X111392754Y-133075951D01*
D22*
X113614383Y-132480666D03*
D23*
X115836012Y-131885382D02*
X111392754Y-133075950D01*
D22*
X114546132Y-135957999D03*
D23*
X116767761Y-135362715D02*
X112324503Y-136553283D01*
D22*
X115915517Y-133727577D03*
D23*
X116381391Y-135466243D02*
X115449643Y-131988911D01*
D24*
X113847321Y-133350000D03*
D25*
X115585987Y-132884126D02*
X112108655Y-133815874D01*
D16*
X118190299Y-137445505D03*
D17*
X118634037Y-136570850D02*
X117746561Y-138320160D01*
D16*
X113116310Y-140435636D03*
D17*
X113060346Y-140150385D02*
X113172274Y-140720887D01*
D26*
X109204741Y-136462648D03*
D27*
X109410000Y-136407649D02*
X108999482Y-136517647D01*
D26*
X119395259Y-133732108D03*
D27*
X119600518Y-133677109D02*
X119190000Y-133787107D01*
D14*
X114300000Y-135097378D03*
D13*
X110453883Y-140061990D03*
X115827032Y-140796340D03*
D28*
X88586201Y-146552355D03*
D29*
X88586201Y-146552355D02*
X88586201Y-146552355D01*
D28*
X87928801Y-144098903D03*
D29*
X87928801Y-144098903D02*
X87928801Y-144098903D01*
D28*
X87271400Y-141645452D03*
D29*
X87271400Y-141645452D02*
X87271400Y-141645452D01*
D28*
X86614000Y-139192000D03*
D30*
G36*
X85976897Y-140295495D02*
G01*
X85510505Y-138554897D01*
X87251103Y-138088505D01*
X87717495Y-139829103D01*
X85976897Y-140295495D01*
X85976897Y-140295495D01*
G37*
G36*
X117094141Y-117651297D02*
G01*
X117120278Y-117655174D01*
X117145909Y-117661594D01*
X117170788Y-117670495D01*
X117194674Y-117681793D01*
X117217337Y-117695377D01*
X117238560Y-117711117D01*
X117258139Y-117728861D01*
X117275883Y-117748440D01*
X117291623Y-117769663D01*
X117305207Y-117792326D01*
X117316505Y-117816212D01*
X117325406Y-117841091D01*
X117331826Y-117866722D01*
X117335703Y-117892859D01*
X117337000Y-117919250D01*
X117337000Y-118457750D01*
X117335703Y-118484141D01*
X117331826Y-118510278D01*
X117325406Y-118535909D01*
X117316505Y-118560788D01*
X117305207Y-118584674D01*
X117291623Y-118607337D01*
X117275883Y-118628560D01*
X117258139Y-118648139D01*
X117238560Y-118665883D01*
X117217337Y-118681623D01*
X117194674Y-118695207D01*
X117170788Y-118706505D01*
X117145909Y-118715406D01*
X117120278Y-118721826D01*
X117094141Y-118725703D01*
X117067750Y-118727000D01*
X116104250Y-118727000D01*
X116077859Y-118725703D01*
X116051722Y-118721826D01*
X116026091Y-118715406D01*
X116001212Y-118706505D01*
X115977326Y-118695207D01*
X115954663Y-118681623D01*
X115933440Y-118665883D01*
X115913861Y-118648139D01*
X115896117Y-118628560D01*
X115880377Y-118607337D01*
X115866793Y-118584674D01*
X115855495Y-118560788D01*
X115846594Y-118535909D01*
X115840174Y-118510278D01*
X115836297Y-118484141D01*
X115835000Y-118457750D01*
X115835000Y-117919250D01*
X115836297Y-117892859D01*
X115840174Y-117866722D01*
X115846594Y-117841091D01*
X115855495Y-117816212D01*
X115866793Y-117792326D01*
X115880377Y-117769663D01*
X115896117Y-117748440D01*
X115913861Y-117728861D01*
X115933440Y-117711117D01*
X115954663Y-117695377D01*
X115977326Y-117681793D01*
X116001212Y-117670495D01*
X116026091Y-117661594D01*
X116051722Y-117655174D01*
X116077859Y-117651297D01*
X116104250Y-117650000D01*
X117067750Y-117650000D01*
X117094141Y-117651297D01*
X117094141Y-117651297D01*
G37*
D31*
X116586000Y-118188500D03*
D30*
G36*
X117094141Y-119526297D02*
G01*
X117120278Y-119530174D01*
X117145909Y-119536594D01*
X117170788Y-119545495D01*
X117194674Y-119556793D01*
X117217337Y-119570377D01*
X117238560Y-119586117D01*
X117258139Y-119603861D01*
X117275883Y-119623440D01*
X117291623Y-119644663D01*
X117305207Y-119667326D01*
X117316505Y-119691212D01*
X117325406Y-119716091D01*
X117331826Y-119741722D01*
X117335703Y-119767859D01*
X117337000Y-119794250D01*
X117337000Y-120332750D01*
X117335703Y-120359141D01*
X117331826Y-120385278D01*
X117325406Y-120410909D01*
X117316505Y-120435788D01*
X117305207Y-120459674D01*
X117291623Y-120482337D01*
X117275883Y-120503560D01*
X117258139Y-120523139D01*
X117238560Y-120540883D01*
X117217337Y-120556623D01*
X117194674Y-120570207D01*
X117170788Y-120581505D01*
X117145909Y-120590406D01*
X117120278Y-120596826D01*
X117094141Y-120600703D01*
X117067750Y-120602000D01*
X116104250Y-120602000D01*
X116077859Y-120600703D01*
X116051722Y-120596826D01*
X116026091Y-120590406D01*
X116001212Y-120581505D01*
X115977326Y-120570207D01*
X115954663Y-120556623D01*
X115933440Y-120540883D01*
X115913861Y-120523139D01*
X115896117Y-120503560D01*
X115880377Y-120482337D01*
X115866793Y-120459674D01*
X115855495Y-120435788D01*
X115846594Y-120410909D01*
X115840174Y-120385278D01*
X115836297Y-120359141D01*
X115835000Y-120332750D01*
X115835000Y-119794250D01*
X115836297Y-119767859D01*
X115840174Y-119741722D01*
X115846594Y-119716091D01*
X115855495Y-119691212D01*
X115866793Y-119667326D01*
X115880377Y-119644663D01*
X115896117Y-119623440D01*
X115913861Y-119603861D01*
X115933440Y-119586117D01*
X115954663Y-119570377D01*
X115977326Y-119556793D01*
X116001212Y-119545495D01*
X116026091Y-119536594D01*
X116051722Y-119530174D01*
X116077859Y-119526297D01*
X116104250Y-119525000D01*
X117067750Y-119525000D01*
X117094141Y-119526297D01*
X117094141Y-119526297D01*
G37*
D31*
X116586000Y-120063500D03*
D30*
G36*
X94234141Y-121414797D02*
G01*
X94260278Y-121418674D01*
X94285909Y-121425094D01*
X94310788Y-121433995D01*
X94334674Y-121445293D01*
X94357337Y-121458877D01*
X94378560Y-121474617D01*
X94398139Y-121492361D01*
X94415883Y-121511940D01*
X94431623Y-121533163D01*
X94445207Y-121555826D01*
X94456505Y-121579712D01*
X94465406Y-121604591D01*
X94471826Y-121630222D01*
X94475703Y-121656359D01*
X94477000Y-121682750D01*
X94477000Y-122221250D01*
X94475703Y-122247641D01*
X94471826Y-122273778D01*
X94465406Y-122299409D01*
X94456505Y-122324288D01*
X94445207Y-122348174D01*
X94431623Y-122370837D01*
X94415883Y-122392060D01*
X94398139Y-122411639D01*
X94378560Y-122429383D01*
X94357337Y-122445123D01*
X94334674Y-122458707D01*
X94310788Y-122470005D01*
X94285909Y-122478906D01*
X94260278Y-122485326D01*
X94234141Y-122489203D01*
X94207750Y-122490500D01*
X93244250Y-122490500D01*
X93217859Y-122489203D01*
X93191722Y-122485326D01*
X93166091Y-122478906D01*
X93141212Y-122470005D01*
X93117326Y-122458707D01*
X93094663Y-122445123D01*
X93073440Y-122429383D01*
X93053861Y-122411639D01*
X93036117Y-122392060D01*
X93020377Y-122370837D01*
X93006793Y-122348174D01*
X92995495Y-122324288D01*
X92986594Y-122299409D01*
X92980174Y-122273778D01*
X92976297Y-122247641D01*
X92975000Y-122221250D01*
X92975000Y-121682750D01*
X92976297Y-121656359D01*
X92980174Y-121630222D01*
X92986594Y-121604591D01*
X92995495Y-121579712D01*
X93006793Y-121555826D01*
X93020377Y-121533163D01*
X93036117Y-121511940D01*
X93053861Y-121492361D01*
X93073440Y-121474617D01*
X93094663Y-121458877D01*
X93117326Y-121445293D01*
X93141212Y-121433995D01*
X93166091Y-121425094D01*
X93191722Y-121418674D01*
X93217859Y-121414797D01*
X93244250Y-121413500D01*
X94207750Y-121413500D01*
X94234141Y-121414797D01*
X94234141Y-121414797D01*
G37*
D31*
X93726000Y-121952000D03*
D30*
G36*
X94234141Y-123289797D02*
G01*
X94260278Y-123293674D01*
X94285909Y-123300094D01*
X94310788Y-123308995D01*
X94334674Y-123320293D01*
X94357337Y-123333877D01*
X94378560Y-123349617D01*
X94398139Y-123367361D01*
X94415883Y-123386940D01*
X94431623Y-123408163D01*
X94445207Y-123430826D01*
X94456505Y-123454712D01*
X94465406Y-123479591D01*
X94471826Y-123505222D01*
X94475703Y-123531359D01*
X94477000Y-123557750D01*
X94477000Y-124096250D01*
X94475703Y-124122641D01*
X94471826Y-124148778D01*
X94465406Y-124174409D01*
X94456505Y-124199288D01*
X94445207Y-124223174D01*
X94431623Y-124245837D01*
X94415883Y-124267060D01*
X94398139Y-124286639D01*
X94378560Y-124304383D01*
X94357337Y-124320123D01*
X94334674Y-124333707D01*
X94310788Y-124345005D01*
X94285909Y-124353906D01*
X94260278Y-124360326D01*
X94234141Y-124364203D01*
X94207750Y-124365500D01*
X93244250Y-124365500D01*
X93217859Y-124364203D01*
X93191722Y-124360326D01*
X93166091Y-124353906D01*
X93141212Y-124345005D01*
X93117326Y-124333707D01*
X93094663Y-124320123D01*
X93073440Y-124304383D01*
X93053861Y-124286639D01*
X93036117Y-124267060D01*
X93020377Y-124245837D01*
X93006793Y-124223174D01*
X92995495Y-124199288D01*
X92986594Y-124174409D01*
X92980174Y-124148778D01*
X92976297Y-124122641D01*
X92975000Y-124096250D01*
X92975000Y-123557750D01*
X92976297Y-123531359D01*
X92980174Y-123505222D01*
X92986594Y-123479591D01*
X92995495Y-123454712D01*
X93006793Y-123430826D01*
X93020377Y-123408163D01*
X93036117Y-123386940D01*
X93053861Y-123367361D01*
X93073440Y-123349617D01*
X93094663Y-123333877D01*
X93117326Y-123320293D01*
X93141212Y-123308995D01*
X93166091Y-123300094D01*
X93191722Y-123293674D01*
X93217859Y-123289797D01*
X93244250Y-123288500D01*
X94207750Y-123288500D01*
X94234141Y-123289797D01*
X94234141Y-123289797D01*
G37*
D31*
X93726000Y-123827000D03*
D30*
G36*
X103632141Y-113189797D02*
G01*
X103658278Y-113193674D01*
X103683909Y-113200094D01*
X103708788Y-113208995D01*
X103732674Y-113220293D01*
X103755337Y-113233877D01*
X103776560Y-113249617D01*
X103796139Y-113267361D01*
X103813883Y-113286940D01*
X103829623Y-113308163D01*
X103843207Y-113330826D01*
X103854505Y-113354712D01*
X103863406Y-113379591D01*
X103869826Y-113405222D01*
X103873703Y-113431359D01*
X103875000Y-113457750D01*
X103875000Y-113996250D01*
X103873703Y-114022641D01*
X103869826Y-114048778D01*
X103863406Y-114074409D01*
X103854505Y-114099288D01*
X103843207Y-114123174D01*
X103829623Y-114145837D01*
X103813883Y-114167060D01*
X103796139Y-114186639D01*
X103776560Y-114204383D01*
X103755337Y-114220123D01*
X103732674Y-114233707D01*
X103708788Y-114245005D01*
X103683909Y-114253906D01*
X103658278Y-114260326D01*
X103632141Y-114264203D01*
X103605750Y-114265500D01*
X102642250Y-114265500D01*
X102615859Y-114264203D01*
X102589722Y-114260326D01*
X102564091Y-114253906D01*
X102539212Y-114245005D01*
X102515326Y-114233707D01*
X102492663Y-114220123D01*
X102471440Y-114204383D01*
X102451861Y-114186639D01*
X102434117Y-114167060D01*
X102418377Y-114145837D01*
X102404793Y-114123174D01*
X102393495Y-114099288D01*
X102384594Y-114074409D01*
X102378174Y-114048778D01*
X102374297Y-114022641D01*
X102373000Y-113996250D01*
X102373000Y-113457750D01*
X102374297Y-113431359D01*
X102378174Y-113405222D01*
X102384594Y-113379591D01*
X102393495Y-113354712D01*
X102404793Y-113330826D01*
X102418377Y-113308163D01*
X102434117Y-113286940D01*
X102451861Y-113267361D01*
X102471440Y-113249617D01*
X102492663Y-113233877D01*
X102515326Y-113220293D01*
X102539212Y-113208995D01*
X102564091Y-113200094D01*
X102589722Y-113193674D01*
X102615859Y-113189797D01*
X102642250Y-113188500D01*
X103605750Y-113188500D01*
X103632141Y-113189797D01*
X103632141Y-113189797D01*
G37*
D31*
X103124000Y-113727000D03*
D30*
G36*
X103632141Y-115064797D02*
G01*
X103658278Y-115068674D01*
X103683909Y-115075094D01*
X103708788Y-115083995D01*
X103732674Y-115095293D01*
X103755337Y-115108877D01*
X103776560Y-115124617D01*
X103796139Y-115142361D01*
X103813883Y-115161940D01*
X103829623Y-115183163D01*
X103843207Y-115205826D01*
X103854505Y-115229712D01*
X103863406Y-115254591D01*
X103869826Y-115280222D01*
X103873703Y-115306359D01*
X103875000Y-115332750D01*
X103875000Y-115871250D01*
X103873703Y-115897641D01*
X103869826Y-115923778D01*
X103863406Y-115949409D01*
X103854505Y-115974288D01*
X103843207Y-115998174D01*
X103829623Y-116020837D01*
X103813883Y-116042060D01*
X103796139Y-116061639D01*
X103776560Y-116079383D01*
X103755337Y-116095123D01*
X103732674Y-116108707D01*
X103708788Y-116120005D01*
X103683909Y-116128906D01*
X103658278Y-116135326D01*
X103632141Y-116139203D01*
X103605750Y-116140500D01*
X102642250Y-116140500D01*
X102615859Y-116139203D01*
X102589722Y-116135326D01*
X102564091Y-116128906D01*
X102539212Y-116120005D01*
X102515326Y-116108707D01*
X102492663Y-116095123D01*
X102471440Y-116079383D01*
X102451861Y-116061639D01*
X102434117Y-116042060D01*
X102418377Y-116020837D01*
X102404793Y-115998174D01*
X102393495Y-115974288D01*
X102384594Y-115949409D01*
X102378174Y-115923778D01*
X102374297Y-115897641D01*
X102373000Y-115871250D01*
X102373000Y-115332750D01*
X102374297Y-115306359D01*
X102378174Y-115280222D01*
X102384594Y-115254591D01*
X102393495Y-115229712D01*
X102404793Y-115205826D01*
X102418377Y-115183163D01*
X102434117Y-115161940D01*
X102451861Y-115142361D01*
X102471440Y-115124617D01*
X102492663Y-115108877D01*
X102515326Y-115095293D01*
X102539212Y-115083995D01*
X102564091Y-115075094D01*
X102589722Y-115068674D01*
X102615859Y-115064797D01*
X102642250Y-115063500D01*
X103605750Y-115063500D01*
X103632141Y-115064797D01*
X103632141Y-115064797D01*
G37*
D31*
X103124000Y-115602000D03*
D32*
X96078000Y-120350000D03*
X96078000Y-121150000D03*
X96078000Y-121950000D03*
X96078000Y-122750000D03*
X96078000Y-123550000D03*
X96078000Y-124350000D03*
X96078000Y-125150000D03*
X96078000Y-125950000D03*
X96078000Y-126750000D03*
X96078000Y-127550000D03*
X96078000Y-128350000D03*
D33*
X97778000Y-130050000D03*
X98578000Y-130050000D03*
X99378000Y-130050000D03*
X100178000Y-130050000D03*
X100978000Y-130050000D03*
X101778000Y-130050000D03*
X102578000Y-130050000D03*
X103378000Y-130050000D03*
X104178000Y-130050000D03*
X104978000Y-130050000D03*
X105778000Y-130050000D03*
D32*
X107478000Y-128350000D03*
X107478000Y-127550000D03*
X107478000Y-126750000D03*
X107478000Y-125950000D03*
X107478000Y-125150000D03*
X107478000Y-124350000D03*
X107478000Y-123550000D03*
X107478000Y-122750000D03*
X107478000Y-121950000D03*
X107478000Y-121150000D03*
X107478000Y-120350000D03*
D33*
X105778000Y-118650000D03*
X104978000Y-118650000D03*
X104178000Y-118650000D03*
X103378000Y-118650000D03*
X102578000Y-118650000D03*
X101778000Y-118650000D03*
X100978000Y-118650000D03*
X100178000Y-118650000D03*
X99378000Y-118650000D03*
X98578000Y-118650000D03*
X97778000Y-118650000D03*
D30*
G36*
X106135141Y-131616297D02*
G01*
X106161278Y-131620174D01*
X106186909Y-131626594D01*
X106211788Y-131635495D01*
X106235674Y-131646793D01*
X106258337Y-131660377D01*
X106279560Y-131676117D01*
X106299139Y-131693861D01*
X106316883Y-131713440D01*
X106332623Y-131734663D01*
X106346207Y-131757326D01*
X106357505Y-131781212D01*
X106366406Y-131806091D01*
X106372826Y-131831722D01*
X106376703Y-131857859D01*
X106378000Y-131884250D01*
X106378000Y-132847750D01*
X106376703Y-132874141D01*
X106372826Y-132900278D01*
X106366406Y-132925909D01*
X106357505Y-132950788D01*
X106346207Y-132974674D01*
X106332623Y-132997337D01*
X106316883Y-133018560D01*
X106299139Y-133038139D01*
X106279560Y-133055883D01*
X106258337Y-133071623D01*
X106235674Y-133085207D01*
X106211788Y-133096505D01*
X106186909Y-133105406D01*
X106161278Y-133111826D01*
X106135141Y-133115703D01*
X106108750Y-133117000D01*
X105570250Y-133117000D01*
X105543859Y-133115703D01*
X105517722Y-133111826D01*
X105492091Y-133105406D01*
X105467212Y-133096505D01*
X105443326Y-133085207D01*
X105420663Y-133071623D01*
X105399440Y-133055883D01*
X105379861Y-133038139D01*
X105362117Y-133018560D01*
X105346377Y-132997337D01*
X105332793Y-132974674D01*
X105321495Y-132950788D01*
X105312594Y-132925909D01*
X105306174Y-132900278D01*
X105302297Y-132874141D01*
X105301000Y-132847750D01*
X105301000Y-131884250D01*
X105302297Y-131857859D01*
X105306174Y-131831722D01*
X105312594Y-131806091D01*
X105321495Y-131781212D01*
X105332793Y-131757326D01*
X105346377Y-131734663D01*
X105362117Y-131713440D01*
X105379861Y-131693861D01*
X105399440Y-131676117D01*
X105420663Y-131660377D01*
X105443326Y-131646793D01*
X105467212Y-131635495D01*
X105492091Y-131626594D01*
X105517722Y-131620174D01*
X105543859Y-131616297D01*
X105570250Y-131615000D01*
X106108750Y-131615000D01*
X106135141Y-131616297D01*
X106135141Y-131616297D01*
G37*
D31*
X105839500Y-132366000D03*
D30*
G36*
X104260141Y-131616297D02*
G01*
X104286278Y-131620174D01*
X104311909Y-131626594D01*
X104336788Y-131635495D01*
X104360674Y-131646793D01*
X104383337Y-131660377D01*
X104404560Y-131676117D01*
X104424139Y-131693861D01*
X104441883Y-131713440D01*
X104457623Y-131734663D01*
X104471207Y-131757326D01*
X104482505Y-131781212D01*
X104491406Y-131806091D01*
X104497826Y-131831722D01*
X104501703Y-131857859D01*
X104503000Y-131884250D01*
X104503000Y-132847750D01*
X104501703Y-132874141D01*
X104497826Y-132900278D01*
X104491406Y-132925909D01*
X104482505Y-132950788D01*
X104471207Y-132974674D01*
X104457623Y-132997337D01*
X104441883Y-133018560D01*
X104424139Y-133038139D01*
X104404560Y-133055883D01*
X104383337Y-133071623D01*
X104360674Y-133085207D01*
X104336788Y-133096505D01*
X104311909Y-133105406D01*
X104286278Y-133111826D01*
X104260141Y-133115703D01*
X104233750Y-133117000D01*
X103695250Y-133117000D01*
X103668859Y-133115703D01*
X103642722Y-133111826D01*
X103617091Y-133105406D01*
X103592212Y-133096505D01*
X103568326Y-133085207D01*
X103545663Y-133071623D01*
X103524440Y-133055883D01*
X103504861Y-133038139D01*
X103487117Y-133018560D01*
X103471377Y-132997337D01*
X103457793Y-132974674D01*
X103446495Y-132950788D01*
X103437594Y-132925909D01*
X103431174Y-132900278D01*
X103427297Y-132874141D01*
X103426000Y-132847750D01*
X103426000Y-131884250D01*
X103427297Y-131857859D01*
X103431174Y-131831722D01*
X103437594Y-131806091D01*
X103446495Y-131781212D01*
X103457793Y-131757326D01*
X103471377Y-131734663D01*
X103487117Y-131713440D01*
X103504861Y-131693861D01*
X103524440Y-131676117D01*
X103545663Y-131660377D01*
X103568326Y-131646793D01*
X103592212Y-131635495D01*
X103617091Y-131626594D01*
X103642722Y-131620174D01*
X103668859Y-131616297D01*
X103695250Y-131615000D01*
X104233750Y-131615000D01*
X104260141Y-131616297D01*
X104260141Y-131616297D01*
G37*
D31*
X103964500Y-132366000D03*
D28*
X123384201Y-137154355D03*
D29*
X123384201Y-137154355D02*
X123384201Y-137154355D01*
D28*
X122726801Y-134700903D03*
D29*
X122726801Y-134700903D02*
X122726801Y-134700903D01*
D28*
X122069400Y-132247452D03*
D29*
X122069400Y-132247452D02*
X122069400Y-132247452D01*
D28*
X121412000Y-129794000D03*
D30*
G36*
X120774897Y-130897495D02*
G01*
X120308505Y-129156897D01*
X122049103Y-128690505D01*
X122515495Y-130431103D01*
X120774897Y-130897495D01*
X120774897Y-130897495D01*
G37*
D28*
X103124000Y-146558000D03*
D29*
X103124000Y-146558000D02*
X103124000Y-146558000D01*
D28*
X105577452Y-145900600D03*
D29*
X105577452Y-145900600D02*
X105577452Y-145900600D01*
D28*
X108030903Y-145243199D03*
D29*
X108030903Y-145243199D02*
X108030903Y-145243199D01*
D28*
X110484355Y-144585799D03*
D30*
G36*
X109380860Y-143948696D02*
G01*
X111121458Y-143482304D01*
X111587850Y-145222902D01*
X109847252Y-145689294D01*
X109380860Y-143948696D01*
X109380860Y-143948696D01*
G37*
D34*
X121412000Y-52324000D03*
X114112000Y-52324000D03*
X114112000Y-56824000D03*
X121412000Y-56824000D03*
D30*
G36*
X117094141Y-125986797D02*
G01*
X117120278Y-125990674D01*
X117145909Y-125997094D01*
X117170788Y-126005995D01*
X117194674Y-126017293D01*
X117217337Y-126030877D01*
X117238560Y-126046617D01*
X117258139Y-126064361D01*
X117275883Y-126083940D01*
X117291623Y-126105163D01*
X117305207Y-126127826D01*
X117316505Y-126151712D01*
X117325406Y-126176591D01*
X117331826Y-126202222D01*
X117335703Y-126228359D01*
X117337000Y-126254750D01*
X117337000Y-126793250D01*
X117335703Y-126819641D01*
X117331826Y-126845778D01*
X117325406Y-126871409D01*
X117316505Y-126896288D01*
X117305207Y-126920174D01*
X117291623Y-126942837D01*
X117275883Y-126964060D01*
X117258139Y-126983639D01*
X117238560Y-127001383D01*
X117217337Y-127017123D01*
X117194674Y-127030707D01*
X117170788Y-127042005D01*
X117145909Y-127050906D01*
X117120278Y-127057326D01*
X117094141Y-127061203D01*
X117067750Y-127062500D01*
X116104250Y-127062500D01*
X116077859Y-127061203D01*
X116051722Y-127057326D01*
X116026091Y-127050906D01*
X116001212Y-127042005D01*
X115977326Y-127030707D01*
X115954663Y-127017123D01*
X115933440Y-127001383D01*
X115913861Y-126983639D01*
X115896117Y-126964060D01*
X115880377Y-126942837D01*
X115866793Y-126920174D01*
X115855495Y-126896288D01*
X115846594Y-126871409D01*
X115840174Y-126845778D01*
X115836297Y-126819641D01*
X115835000Y-126793250D01*
X115835000Y-126254750D01*
X115836297Y-126228359D01*
X115840174Y-126202222D01*
X115846594Y-126176591D01*
X115855495Y-126151712D01*
X115866793Y-126127826D01*
X115880377Y-126105163D01*
X115896117Y-126083940D01*
X115913861Y-126064361D01*
X115933440Y-126046617D01*
X115954663Y-126030877D01*
X115977326Y-126017293D01*
X116001212Y-126005995D01*
X116026091Y-125997094D01*
X116051722Y-125990674D01*
X116077859Y-125986797D01*
X116104250Y-125985500D01*
X117067750Y-125985500D01*
X117094141Y-125986797D01*
X117094141Y-125986797D01*
G37*
D31*
X116586000Y-126524000D03*
D30*
G36*
X117094141Y-127861797D02*
G01*
X117120278Y-127865674D01*
X117145909Y-127872094D01*
X117170788Y-127880995D01*
X117194674Y-127892293D01*
X117217337Y-127905877D01*
X117238560Y-127921617D01*
X117258139Y-127939361D01*
X117275883Y-127958940D01*
X117291623Y-127980163D01*
X117305207Y-128002826D01*
X117316505Y-128026712D01*
X117325406Y-128051591D01*
X117331826Y-128077222D01*
X117335703Y-128103359D01*
X117337000Y-128129750D01*
X117337000Y-128668250D01*
X117335703Y-128694641D01*
X117331826Y-128720778D01*
X117325406Y-128746409D01*
X117316505Y-128771288D01*
X117305207Y-128795174D01*
X117291623Y-128817837D01*
X117275883Y-128839060D01*
X117258139Y-128858639D01*
X117238560Y-128876383D01*
X117217337Y-128892123D01*
X117194674Y-128905707D01*
X117170788Y-128917005D01*
X117145909Y-128925906D01*
X117120278Y-128932326D01*
X117094141Y-128936203D01*
X117067750Y-128937500D01*
X116104250Y-128937500D01*
X116077859Y-128936203D01*
X116051722Y-128932326D01*
X116026091Y-128925906D01*
X116001212Y-128917005D01*
X115977326Y-128905707D01*
X115954663Y-128892123D01*
X115933440Y-128876383D01*
X115913861Y-128858639D01*
X115896117Y-128839060D01*
X115880377Y-128817837D01*
X115866793Y-128795174D01*
X115855495Y-128771288D01*
X115846594Y-128746409D01*
X115840174Y-128720778D01*
X115836297Y-128694641D01*
X115835000Y-128668250D01*
X115835000Y-128129750D01*
X115836297Y-128103359D01*
X115840174Y-128077222D01*
X115846594Y-128051591D01*
X115855495Y-128026712D01*
X115866793Y-128002826D01*
X115880377Y-127980163D01*
X115896117Y-127958940D01*
X115913861Y-127939361D01*
X115933440Y-127921617D01*
X115954663Y-127905877D01*
X115977326Y-127892293D01*
X116001212Y-127880995D01*
X116026091Y-127872094D01*
X116051722Y-127865674D01*
X116077859Y-127861797D01*
X116104250Y-127860500D01*
X117067750Y-127860500D01*
X117094141Y-127861797D01*
X117094141Y-127861797D01*
G37*
D31*
X116586000Y-128399000D03*
D30*
G36*
X98007141Y-131584297D02*
G01*
X98033278Y-131588174D01*
X98058909Y-131594594D01*
X98083788Y-131603495D01*
X98107674Y-131614793D01*
X98130337Y-131628377D01*
X98151560Y-131644117D01*
X98171139Y-131661861D01*
X98188883Y-131681440D01*
X98204623Y-131702663D01*
X98218207Y-131725326D01*
X98229505Y-131749212D01*
X98238406Y-131774091D01*
X98244826Y-131799722D01*
X98248703Y-131825859D01*
X98250000Y-131852250D01*
X98250000Y-132815750D01*
X98248703Y-132842141D01*
X98244826Y-132868278D01*
X98238406Y-132893909D01*
X98229505Y-132918788D01*
X98218207Y-132942674D01*
X98204623Y-132965337D01*
X98188883Y-132986560D01*
X98171139Y-133006139D01*
X98151560Y-133023883D01*
X98130337Y-133039623D01*
X98107674Y-133053207D01*
X98083788Y-133064505D01*
X98058909Y-133073406D01*
X98033278Y-133079826D01*
X98007141Y-133083703D01*
X97980750Y-133085000D01*
X97442250Y-133085000D01*
X97415859Y-133083703D01*
X97389722Y-133079826D01*
X97364091Y-133073406D01*
X97339212Y-133064505D01*
X97315326Y-133053207D01*
X97292663Y-133039623D01*
X97271440Y-133023883D01*
X97251861Y-133006139D01*
X97234117Y-132986560D01*
X97218377Y-132965337D01*
X97204793Y-132942674D01*
X97193495Y-132918788D01*
X97184594Y-132893909D01*
X97178174Y-132868278D01*
X97174297Y-132842141D01*
X97173000Y-132815750D01*
X97173000Y-131852250D01*
X97174297Y-131825859D01*
X97178174Y-131799722D01*
X97184594Y-131774091D01*
X97193495Y-131749212D01*
X97204793Y-131725326D01*
X97218377Y-131702663D01*
X97234117Y-131681440D01*
X97251861Y-131661861D01*
X97271440Y-131644117D01*
X97292663Y-131628377D01*
X97315326Y-131614793D01*
X97339212Y-131603495D01*
X97364091Y-131594594D01*
X97389722Y-131588174D01*
X97415859Y-131584297D01*
X97442250Y-131583000D01*
X97980750Y-131583000D01*
X98007141Y-131584297D01*
X98007141Y-131584297D01*
G37*
D31*
X97711500Y-132334000D03*
D30*
G36*
X96132141Y-131584297D02*
G01*
X96158278Y-131588174D01*
X96183909Y-131594594D01*
X96208788Y-131603495D01*
X96232674Y-131614793D01*
X96255337Y-131628377D01*
X96276560Y-131644117D01*
X96296139Y-131661861D01*
X96313883Y-131681440D01*
X96329623Y-131702663D01*
X96343207Y-131725326D01*
X96354505Y-131749212D01*
X96363406Y-131774091D01*
X96369826Y-131799722D01*
X96373703Y-131825859D01*
X96375000Y-131852250D01*
X96375000Y-132815750D01*
X96373703Y-132842141D01*
X96369826Y-132868278D01*
X96363406Y-132893909D01*
X96354505Y-132918788D01*
X96343207Y-132942674D01*
X96329623Y-132965337D01*
X96313883Y-132986560D01*
X96296139Y-133006139D01*
X96276560Y-133023883D01*
X96255337Y-133039623D01*
X96232674Y-133053207D01*
X96208788Y-133064505D01*
X96183909Y-133073406D01*
X96158278Y-133079826D01*
X96132141Y-133083703D01*
X96105750Y-133085000D01*
X95567250Y-133085000D01*
X95540859Y-133083703D01*
X95514722Y-133079826D01*
X95489091Y-133073406D01*
X95464212Y-133064505D01*
X95440326Y-133053207D01*
X95417663Y-133039623D01*
X95396440Y-133023883D01*
X95376861Y-133006139D01*
X95359117Y-132986560D01*
X95343377Y-132965337D01*
X95329793Y-132942674D01*
X95318495Y-132918788D01*
X95309594Y-132893909D01*
X95303174Y-132868278D01*
X95299297Y-132842141D01*
X95298000Y-132815750D01*
X95298000Y-131852250D01*
X95299297Y-131825859D01*
X95303174Y-131799722D01*
X95309594Y-131774091D01*
X95318495Y-131749212D01*
X95329793Y-131725326D01*
X95343377Y-131702663D01*
X95359117Y-131681440D01*
X95376861Y-131661861D01*
X95396440Y-131644117D01*
X95417663Y-131628377D01*
X95440326Y-131614793D01*
X95464212Y-131603495D01*
X95489091Y-131594594D01*
X95514722Y-131588174D01*
X95540859Y-131584297D01*
X95567250Y-131583000D01*
X96105750Y-131583000D01*
X96132141Y-131584297D01*
X96132141Y-131584297D01*
G37*
D31*
X95836500Y-132334000D03*
D35*
X132334000Y-126492000D03*
X132334000Y-129792000D03*
X125730000Y-107442000D03*
X125730000Y-110742000D03*
X128270000Y-107442000D03*
X128270000Y-110742000D03*
X129794000Y-126492000D03*
X129794000Y-129792000D03*
X134874000Y-126492000D03*
X134874000Y-129792000D03*
X135890000Y-107442000D03*
X135890000Y-110742000D03*
X138430000Y-107442000D03*
X138430000Y-110742000D03*
X137414000Y-126492000D03*
X137414000Y-129792000D03*
D30*
G36*
X94234141Y-127256797D02*
G01*
X94260278Y-127260674D01*
X94285909Y-127267094D01*
X94310788Y-127275995D01*
X94334674Y-127287293D01*
X94357337Y-127300877D01*
X94378560Y-127316617D01*
X94398139Y-127334361D01*
X94415883Y-127353940D01*
X94431623Y-127375163D01*
X94445207Y-127397826D01*
X94456505Y-127421712D01*
X94465406Y-127446591D01*
X94471826Y-127472222D01*
X94475703Y-127498359D01*
X94477000Y-127524750D01*
X94477000Y-128063250D01*
X94475703Y-128089641D01*
X94471826Y-128115778D01*
X94465406Y-128141409D01*
X94456505Y-128166288D01*
X94445207Y-128190174D01*
X94431623Y-128212837D01*
X94415883Y-128234060D01*
X94398139Y-128253639D01*
X94378560Y-128271383D01*
X94357337Y-128287123D01*
X94334674Y-128300707D01*
X94310788Y-128312005D01*
X94285909Y-128320906D01*
X94260278Y-128327326D01*
X94234141Y-128331203D01*
X94207750Y-128332500D01*
X93244250Y-128332500D01*
X93217859Y-128331203D01*
X93191722Y-128327326D01*
X93166091Y-128320906D01*
X93141212Y-128312005D01*
X93117326Y-128300707D01*
X93094663Y-128287123D01*
X93073440Y-128271383D01*
X93053861Y-128253639D01*
X93036117Y-128234060D01*
X93020377Y-128212837D01*
X93006793Y-128190174D01*
X92995495Y-128166288D01*
X92986594Y-128141409D01*
X92980174Y-128115778D01*
X92976297Y-128089641D01*
X92975000Y-128063250D01*
X92975000Y-127524750D01*
X92976297Y-127498359D01*
X92980174Y-127472222D01*
X92986594Y-127446591D01*
X92995495Y-127421712D01*
X93006793Y-127397826D01*
X93020377Y-127375163D01*
X93036117Y-127353940D01*
X93053861Y-127334361D01*
X93073440Y-127316617D01*
X93094663Y-127300877D01*
X93117326Y-127287293D01*
X93141212Y-127275995D01*
X93166091Y-127267094D01*
X93191722Y-127260674D01*
X93217859Y-127256797D01*
X93244250Y-127255500D01*
X94207750Y-127255500D01*
X94234141Y-127256797D01*
X94234141Y-127256797D01*
G37*
D31*
X93726000Y-127794000D03*
D30*
G36*
X94234141Y-129131797D02*
G01*
X94260278Y-129135674D01*
X94285909Y-129142094D01*
X94310788Y-129150995D01*
X94334674Y-129162293D01*
X94357337Y-129175877D01*
X94378560Y-129191617D01*
X94398139Y-129209361D01*
X94415883Y-129228940D01*
X94431623Y-129250163D01*
X94445207Y-129272826D01*
X94456505Y-129296712D01*
X94465406Y-129321591D01*
X94471826Y-129347222D01*
X94475703Y-129373359D01*
X94477000Y-129399750D01*
X94477000Y-129938250D01*
X94475703Y-129964641D01*
X94471826Y-129990778D01*
X94465406Y-130016409D01*
X94456505Y-130041288D01*
X94445207Y-130065174D01*
X94431623Y-130087837D01*
X94415883Y-130109060D01*
X94398139Y-130128639D01*
X94378560Y-130146383D01*
X94357337Y-130162123D01*
X94334674Y-130175707D01*
X94310788Y-130187005D01*
X94285909Y-130195906D01*
X94260278Y-130202326D01*
X94234141Y-130206203D01*
X94207750Y-130207500D01*
X93244250Y-130207500D01*
X93217859Y-130206203D01*
X93191722Y-130202326D01*
X93166091Y-130195906D01*
X93141212Y-130187005D01*
X93117326Y-130175707D01*
X93094663Y-130162123D01*
X93073440Y-130146383D01*
X93053861Y-130128639D01*
X93036117Y-130109060D01*
X93020377Y-130087837D01*
X93006793Y-130065174D01*
X92995495Y-130041288D01*
X92986594Y-130016409D01*
X92980174Y-129990778D01*
X92976297Y-129964641D01*
X92975000Y-129938250D01*
X92975000Y-129399750D01*
X92976297Y-129373359D01*
X92980174Y-129347222D01*
X92986594Y-129321591D01*
X92995495Y-129296712D01*
X93006793Y-129272826D01*
X93020377Y-129250163D01*
X93036117Y-129228940D01*
X93053861Y-129209361D01*
X93073440Y-129191617D01*
X93094663Y-129175877D01*
X93117326Y-129162293D01*
X93141212Y-129150995D01*
X93166091Y-129142094D01*
X93191722Y-129135674D01*
X93217859Y-129131797D01*
X93244250Y-129130500D01*
X94207750Y-129130500D01*
X94234141Y-129131797D01*
X94234141Y-129131797D01*
G37*
D31*
X93726000Y-129669000D03*
D30*
G36*
X112817641Y-119932297D02*
G01*
X112843778Y-119936174D01*
X112869409Y-119942594D01*
X112894288Y-119951495D01*
X112918174Y-119962793D01*
X112940837Y-119976377D01*
X112962060Y-119992117D01*
X112981639Y-120009861D01*
X112999383Y-120029440D01*
X113015123Y-120050663D01*
X113028707Y-120073326D01*
X113040005Y-120097212D01*
X113048906Y-120122091D01*
X113055326Y-120147722D01*
X113059203Y-120173859D01*
X113060500Y-120200250D01*
X113060500Y-121163750D01*
X113059203Y-121190141D01*
X113055326Y-121216278D01*
X113048906Y-121241909D01*
X113040005Y-121266788D01*
X113028707Y-121290674D01*
X113015123Y-121313337D01*
X112999383Y-121334560D01*
X112981639Y-121354139D01*
X112962060Y-121371883D01*
X112940837Y-121387623D01*
X112918174Y-121401207D01*
X112894288Y-121412505D01*
X112869409Y-121421406D01*
X112843778Y-121427826D01*
X112817641Y-121431703D01*
X112791250Y-121433000D01*
X112252750Y-121433000D01*
X112226359Y-121431703D01*
X112200222Y-121427826D01*
X112174591Y-121421406D01*
X112149712Y-121412505D01*
X112125826Y-121401207D01*
X112103163Y-121387623D01*
X112081940Y-121371883D01*
X112062361Y-121354139D01*
X112044617Y-121334560D01*
X112028877Y-121313337D01*
X112015293Y-121290674D01*
X112003995Y-121266788D01*
X111995094Y-121241909D01*
X111988674Y-121216278D01*
X111984797Y-121190141D01*
X111983500Y-121163750D01*
X111983500Y-120200250D01*
X111984797Y-120173859D01*
X111988674Y-120147722D01*
X111995094Y-120122091D01*
X112003995Y-120097212D01*
X112015293Y-120073326D01*
X112028877Y-120050663D01*
X112044617Y-120029440D01*
X112062361Y-120009861D01*
X112081940Y-119992117D01*
X112103163Y-119976377D01*
X112125826Y-119962793D01*
X112149712Y-119951495D01*
X112174591Y-119942594D01*
X112200222Y-119936174D01*
X112226359Y-119932297D01*
X112252750Y-119931000D01*
X112791250Y-119931000D01*
X112817641Y-119932297D01*
X112817641Y-119932297D01*
G37*
D31*
X112522000Y-120682000D03*
D30*
G36*
X110942641Y-119932297D02*
G01*
X110968778Y-119936174D01*
X110994409Y-119942594D01*
X111019288Y-119951495D01*
X111043174Y-119962793D01*
X111065837Y-119976377D01*
X111087060Y-119992117D01*
X111106639Y-120009861D01*
X111124383Y-120029440D01*
X111140123Y-120050663D01*
X111153707Y-120073326D01*
X111165005Y-120097212D01*
X111173906Y-120122091D01*
X111180326Y-120147722D01*
X111184203Y-120173859D01*
X111185500Y-120200250D01*
X111185500Y-121163750D01*
X111184203Y-121190141D01*
X111180326Y-121216278D01*
X111173906Y-121241909D01*
X111165005Y-121266788D01*
X111153707Y-121290674D01*
X111140123Y-121313337D01*
X111124383Y-121334560D01*
X111106639Y-121354139D01*
X111087060Y-121371883D01*
X111065837Y-121387623D01*
X111043174Y-121401207D01*
X111019288Y-121412505D01*
X110994409Y-121421406D01*
X110968778Y-121427826D01*
X110942641Y-121431703D01*
X110916250Y-121433000D01*
X110377750Y-121433000D01*
X110351359Y-121431703D01*
X110325222Y-121427826D01*
X110299591Y-121421406D01*
X110274712Y-121412505D01*
X110250826Y-121401207D01*
X110228163Y-121387623D01*
X110206940Y-121371883D01*
X110187361Y-121354139D01*
X110169617Y-121334560D01*
X110153877Y-121313337D01*
X110140293Y-121290674D01*
X110128995Y-121266788D01*
X110120094Y-121241909D01*
X110113674Y-121216278D01*
X110109797Y-121190141D01*
X110108500Y-121163750D01*
X110108500Y-120200250D01*
X110109797Y-120173859D01*
X110113674Y-120147722D01*
X110120094Y-120122091D01*
X110128995Y-120097212D01*
X110140293Y-120073326D01*
X110153877Y-120050663D01*
X110169617Y-120029440D01*
X110187361Y-120009861D01*
X110206940Y-119992117D01*
X110228163Y-119976377D01*
X110250826Y-119962793D01*
X110274712Y-119951495D01*
X110299591Y-119942594D01*
X110325222Y-119936174D01*
X110351359Y-119932297D01*
X110377750Y-119931000D01*
X110916250Y-119931000D01*
X110942641Y-119932297D01*
X110942641Y-119932297D01*
G37*
D31*
X110647000Y-120682000D03*
D30*
G36*
X94234141Y-117937297D02*
G01*
X94260278Y-117941174D01*
X94285909Y-117947594D01*
X94310788Y-117956495D01*
X94334674Y-117967793D01*
X94357337Y-117981377D01*
X94378560Y-117997117D01*
X94398139Y-118014861D01*
X94415883Y-118034440D01*
X94431623Y-118055663D01*
X94445207Y-118078326D01*
X94456505Y-118102212D01*
X94465406Y-118127091D01*
X94471826Y-118152722D01*
X94475703Y-118178859D01*
X94477000Y-118205250D01*
X94477000Y-118743750D01*
X94475703Y-118770141D01*
X94471826Y-118796278D01*
X94465406Y-118821909D01*
X94456505Y-118846788D01*
X94445207Y-118870674D01*
X94431623Y-118893337D01*
X94415883Y-118914560D01*
X94398139Y-118934139D01*
X94378560Y-118951883D01*
X94357337Y-118967623D01*
X94334674Y-118981207D01*
X94310788Y-118992505D01*
X94285909Y-119001406D01*
X94260278Y-119007826D01*
X94234141Y-119011703D01*
X94207750Y-119013000D01*
X93244250Y-119013000D01*
X93217859Y-119011703D01*
X93191722Y-119007826D01*
X93166091Y-119001406D01*
X93141212Y-118992505D01*
X93117326Y-118981207D01*
X93094663Y-118967623D01*
X93073440Y-118951883D01*
X93053861Y-118934139D01*
X93036117Y-118914560D01*
X93020377Y-118893337D01*
X93006793Y-118870674D01*
X92995495Y-118846788D01*
X92986594Y-118821909D01*
X92980174Y-118796278D01*
X92976297Y-118770141D01*
X92975000Y-118743750D01*
X92975000Y-118205250D01*
X92976297Y-118178859D01*
X92980174Y-118152722D01*
X92986594Y-118127091D01*
X92995495Y-118102212D01*
X93006793Y-118078326D01*
X93020377Y-118055663D01*
X93036117Y-118034440D01*
X93053861Y-118014861D01*
X93073440Y-117997117D01*
X93094663Y-117981377D01*
X93117326Y-117967793D01*
X93141212Y-117956495D01*
X93166091Y-117947594D01*
X93191722Y-117941174D01*
X93217859Y-117937297D01*
X93244250Y-117936000D01*
X94207750Y-117936000D01*
X94234141Y-117937297D01*
X94234141Y-117937297D01*
G37*
D31*
X93726000Y-118474500D03*
D30*
G36*
X94234141Y-119812297D02*
G01*
X94260278Y-119816174D01*
X94285909Y-119822594D01*
X94310788Y-119831495D01*
X94334674Y-119842793D01*
X94357337Y-119856377D01*
X94378560Y-119872117D01*
X94398139Y-119889861D01*
X94415883Y-119909440D01*
X94431623Y-119930663D01*
X94445207Y-119953326D01*
X94456505Y-119977212D01*
X94465406Y-120002091D01*
X94471826Y-120027722D01*
X94475703Y-120053859D01*
X94477000Y-120080250D01*
X94477000Y-120618750D01*
X94475703Y-120645141D01*
X94471826Y-120671278D01*
X94465406Y-120696909D01*
X94456505Y-120721788D01*
X94445207Y-120745674D01*
X94431623Y-120768337D01*
X94415883Y-120789560D01*
X94398139Y-120809139D01*
X94378560Y-120826883D01*
X94357337Y-120842623D01*
X94334674Y-120856207D01*
X94310788Y-120867505D01*
X94285909Y-120876406D01*
X94260278Y-120882826D01*
X94234141Y-120886703D01*
X94207750Y-120888000D01*
X93244250Y-120888000D01*
X93217859Y-120886703D01*
X93191722Y-120882826D01*
X93166091Y-120876406D01*
X93141212Y-120867505D01*
X93117326Y-120856207D01*
X93094663Y-120842623D01*
X93073440Y-120826883D01*
X93053861Y-120809139D01*
X93036117Y-120789560D01*
X93020377Y-120768337D01*
X93006793Y-120745674D01*
X92995495Y-120721788D01*
X92986594Y-120696909D01*
X92980174Y-120671278D01*
X92976297Y-120645141D01*
X92975000Y-120618750D01*
X92975000Y-120080250D01*
X92976297Y-120053859D01*
X92980174Y-120027722D01*
X92986594Y-120002091D01*
X92995495Y-119977212D01*
X93006793Y-119953326D01*
X93020377Y-119930663D01*
X93036117Y-119909440D01*
X93053861Y-119889861D01*
X93073440Y-119872117D01*
X93094663Y-119856377D01*
X93117326Y-119842793D01*
X93141212Y-119831495D01*
X93166091Y-119822594D01*
X93191722Y-119816174D01*
X93217859Y-119812297D01*
X93244250Y-119811000D01*
X94207750Y-119811000D01*
X94234141Y-119812297D01*
X94234141Y-119812297D01*
G37*
D31*
X93726000Y-120349500D03*
D30*
G36*
X97028141Y-113111297D02*
G01*
X97054278Y-113115174D01*
X97079909Y-113121594D01*
X97104788Y-113130495D01*
X97128674Y-113141793D01*
X97151337Y-113155377D01*
X97172560Y-113171117D01*
X97192139Y-113188861D01*
X97209883Y-113208440D01*
X97225623Y-113229663D01*
X97239207Y-113252326D01*
X97250505Y-113276212D01*
X97259406Y-113301091D01*
X97265826Y-113326722D01*
X97269703Y-113352859D01*
X97271000Y-113379250D01*
X97271000Y-113917750D01*
X97269703Y-113944141D01*
X97265826Y-113970278D01*
X97259406Y-113995909D01*
X97250505Y-114020788D01*
X97239207Y-114044674D01*
X97225623Y-114067337D01*
X97209883Y-114088560D01*
X97192139Y-114108139D01*
X97172560Y-114125883D01*
X97151337Y-114141623D01*
X97128674Y-114155207D01*
X97104788Y-114166505D01*
X97079909Y-114175406D01*
X97054278Y-114181826D01*
X97028141Y-114185703D01*
X97001750Y-114187000D01*
X96038250Y-114187000D01*
X96011859Y-114185703D01*
X95985722Y-114181826D01*
X95960091Y-114175406D01*
X95935212Y-114166505D01*
X95911326Y-114155207D01*
X95888663Y-114141623D01*
X95867440Y-114125883D01*
X95847861Y-114108139D01*
X95830117Y-114088560D01*
X95814377Y-114067337D01*
X95800793Y-114044674D01*
X95789495Y-114020788D01*
X95780594Y-113995909D01*
X95774174Y-113970278D01*
X95770297Y-113944141D01*
X95769000Y-113917750D01*
X95769000Y-113379250D01*
X95770297Y-113352859D01*
X95774174Y-113326722D01*
X95780594Y-113301091D01*
X95789495Y-113276212D01*
X95800793Y-113252326D01*
X95814377Y-113229663D01*
X95830117Y-113208440D01*
X95847861Y-113188861D01*
X95867440Y-113171117D01*
X95888663Y-113155377D01*
X95911326Y-113141793D01*
X95935212Y-113130495D01*
X95960091Y-113121594D01*
X95985722Y-113115174D01*
X96011859Y-113111297D01*
X96038250Y-113110000D01*
X97001750Y-113110000D01*
X97028141Y-113111297D01*
X97028141Y-113111297D01*
G37*
D31*
X96520000Y-113648500D03*
D30*
G36*
X97028141Y-114986297D02*
G01*
X97054278Y-114990174D01*
X97079909Y-114996594D01*
X97104788Y-115005495D01*
X97128674Y-115016793D01*
X97151337Y-115030377D01*
X97172560Y-115046117D01*
X97192139Y-115063861D01*
X97209883Y-115083440D01*
X97225623Y-115104663D01*
X97239207Y-115127326D01*
X97250505Y-115151212D01*
X97259406Y-115176091D01*
X97265826Y-115201722D01*
X97269703Y-115227859D01*
X97271000Y-115254250D01*
X97271000Y-115792750D01*
X97269703Y-115819141D01*
X97265826Y-115845278D01*
X97259406Y-115870909D01*
X97250505Y-115895788D01*
X97239207Y-115919674D01*
X97225623Y-115942337D01*
X97209883Y-115963560D01*
X97192139Y-115983139D01*
X97172560Y-116000883D01*
X97151337Y-116016623D01*
X97128674Y-116030207D01*
X97104788Y-116041505D01*
X97079909Y-116050406D01*
X97054278Y-116056826D01*
X97028141Y-116060703D01*
X97001750Y-116062000D01*
X96038250Y-116062000D01*
X96011859Y-116060703D01*
X95985722Y-116056826D01*
X95960091Y-116050406D01*
X95935212Y-116041505D01*
X95911326Y-116030207D01*
X95888663Y-116016623D01*
X95867440Y-116000883D01*
X95847861Y-115983139D01*
X95830117Y-115963560D01*
X95814377Y-115942337D01*
X95800793Y-115919674D01*
X95789495Y-115895788D01*
X95780594Y-115870909D01*
X95774174Y-115845278D01*
X95770297Y-115819141D01*
X95769000Y-115792750D01*
X95769000Y-115254250D01*
X95770297Y-115227859D01*
X95774174Y-115201722D01*
X95780594Y-115176091D01*
X95789495Y-115151212D01*
X95800793Y-115127326D01*
X95814377Y-115104663D01*
X95830117Y-115083440D01*
X95847861Y-115063861D01*
X95867440Y-115046117D01*
X95888663Y-115030377D01*
X95911326Y-115016793D01*
X95935212Y-115005495D01*
X95960091Y-114996594D01*
X95985722Y-114990174D01*
X96011859Y-114986297D01*
X96038250Y-114985000D01*
X97001750Y-114985000D01*
X97028141Y-114986297D01*
X97028141Y-114986297D01*
G37*
D31*
X96520000Y-115523500D03*
D30*
G36*
X118364141Y-60755297D02*
G01*
X118390278Y-60759174D01*
X118415909Y-60765594D01*
X118440788Y-60774495D01*
X118464674Y-60785793D01*
X118487337Y-60799377D01*
X118508560Y-60815117D01*
X118528139Y-60832861D01*
X118545883Y-60852440D01*
X118561623Y-60873663D01*
X118575207Y-60896326D01*
X118586505Y-60920212D01*
X118595406Y-60945091D01*
X118601826Y-60970722D01*
X118605703Y-60996859D01*
X118607000Y-61023250D01*
X118607000Y-61561750D01*
X118605703Y-61588141D01*
X118601826Y-61614278D01*
X118595406Y-61639909D01*
X118586505Y-61664788D01*
X118575207Y-61688674D01*
X118561623Y-61711337D01*
X118545883Y-61732560D01*
X118528139Y-61752139D01*
X118508560Y-61769883D01*
X118487337Y-61785623D01*
X118464674Y-61799207D01*
X118440788Y-61810505D01*
X118415909Y-61819406D01*
X118390278Y-61825826D01*
X118364141Y-61829703D01*
X118337750Y-61831000D01*
X117374250Y-61831000D01*
X117347859Y-61829703D01*
X117321722Y-61825826D01*
X117296091Y-61819406D01*
X117271212Y-61810505D01*
X117247326Y-61799207D01*
X117224663Y-61785623D01*
X117203440Y-61769883D01*
X117183861Y-61752139D01*
X117166117Y-61732560D01*
X117150377Y-61711337D01*
X117136793Y-61688674D01*
X117125495Y-61664788D01*
X117116594Y-61639909D01*
X117110174Y-61614278D01*
X117106297Y-61588141D01*
X117105000Y-61561750D01*
X117105000Y-61023250D01*
X117106297Y-60996859D01*
X117110174Y-60970722D01*
X117116594Y-60945091D01*
X117125495Y-60920212D01*
X117136793Y-60896326D01*
X117150377Y-60873663D01*
X117166117Y-60852440D01*
X117183861Y-60832861D01*
X117203440Y-60815117D01*
X117224663Y-60799377D01*
X117247326Y-60785793D01*
X117271212Y-60774495D01*
X117296091Y-60765594D01*
X117321722Y-60759174D01*
X117347859Y-60755297D01*
X117374250Y-60754000D01*
X118337750Y-60754000D01*
X118364141Y-60755297D01*
X118364141Y-60755297D01*
G37*
D31*
X117856000Y-61292500D03*
D30*
G36*
X118364141Y-62630297D02*
G01*
X118390278Y-62634174D01*
X118415909Y-62640594D01*
X118440788Y-62649495D01*
X118464674Y-62660793D01*
X118487337Y-62674377D01*
X118508560Y-62690117D01*
X118528139Y-62707861D01*
X118545883Y-62727440D01*
X118561623Y-62748663D01*
X118575207Y-62771326D01*
X118586505Y-62795212D01*
X118595406Y-62820091D01*
X118601826Y-62845722D01*
X118605703Y-62871859D01*
X118607000Y-62898250D01*
X118607000Y-63436750D01*
X118605703Y-63463141D01*
X118601826Y-63489278D01*
X118595406Y-63514909D01*
X118586505Y-63539788D01*
X118575207Y-63563674D01*
X118561623Y-63586337D01*
X118545883Y-63607560D01*
X118528139Y-63627139D01*
X118508560Y-63644883D01*
X118487337Y-63660623D01*
X118464674Y-63674207D01*
X118440788Y-63685505D01*
X118415909Y-63694406D01*
X118390278Y-63700826D01*
X118364141Y-63704703D01*
X118337750Y-63706000D01*
X117374250Y-63706000D01*
X117347859Y-63704703D01*
X117321722Y-63700826D01*
X117296091Y-63694406D01*
X117271212Y-63685505D01*
X117247326Y-63674207D01*
X117224663Y-63660623D01*
X117203440Y-63644883D01*
X117183861Y-63627139D01*
X117166117Y-63607560D01*
X117150377Y-63586337D01*
X117136793Y-63563674D01*
X117125495Y-63539788D01*
X117116594Y-63514909D01*
X117110174Y-63489278D01*
X117106297Y-63463141D01*
X117105000Y-63436750D01*
X117105000Y-62898250D01*
X117106297Y-62871859D01*
X117110174Y-62845722D01*
X117116594Y-62820091D01*
X117125495Y-62795212D01*
X117136793Y-62771326D01*
X117150377Y-62748663D01*
X117166117Y-62727440D01*
X117183861Y-62707861D01*
X117203440Y-62690117D01*
X117224663Y-62674377D01*
X117247326Y-62660793D01*
X117271212Y-62649495D01*
X117296091Y-62640594D01*
X117321722Y-62634174D01*
X117347859Y-62630297D01*
X117374250Y-62629000D01*
X118337750Y-62629000D01*
X118364141Y-62630297D01*
X118364141Y-62630297D01*
G37*
D31*
X117856000Y-63167500D03*
D36*
X113806000Y-127392000D03*
X113806000Y-124492000D03*
X111506000Y-124492000D03*
X111506000Y-127392000D03*
D30*
G36*
X116078141Y-60755297D02*
G01*
X116104278Y-60759174D01*
X116129909Y-60765594D01*
X116154788Y-60774495D01*
X116178674Y-60785793D01*
X116201337Y-60799377D01*
X116222560Y-60815117D01*
X116242139Y-60832861D01*
X116259883Y-60852440D01*
X116275623Y-60873663D01*
X116289207Y-60896326D01*
X116300505Y-60920212D01*
X116309406Y-60945091D01*
X116315826Y-60970722D01*
X116319703Y-60996859D01*
X116321000Y-61023250D01*
X116321000Y-61561750D01*
X116319703Y-61588141D01*
X116315826Y-61614278D01*
X116309406Y-61639909D01*
X116300505Y-61664788D01*
X116289207Y-61688674D01*
X116275623Y-61711337D01*
X116259883Y-61732560D01*
X116242139Y-61752139D01*
X116222560Y-61769883D01*
X116201337Y-61785623D01*
X116178674Y-61799207D01*
X116154788Y-61810505D01*
X116129909Y-61819406D01*
X116104278Y-61825826D01*
X116078141Y-61829703D01*
X116051750Y-61831000D01*
X115088250Y-61831000D01*
X115061859Y-61829703D01*
X115035722Y-61825826D01*
X115010091Y-61819406D01*
X114985212Y-61810505D01*
X114961326Y-61799207D01*
X114938663Y-61785623D01*
X114917440Y-61769883D01*
X114897861Y-61752139D01*
X114880117Y-61732560D01*
X114864377Y-61711337D01*
X114850793Y-61688674D01*
X114839495Y-61664788D01*
X114830594Y-61639909D01*
X114824174Y-61614278D01*
X114820297Y-61588141D01*
X114819000Y-61561750D01*
X114819000Y-61023250D01*
X114820297Y-60996859D01*
X114824174Y-60970722D01*
X114830594Y-60945091D01*
X114839495Y-60920212D01*
X114850793Y-60896326D01*
X114864377Y-60873663D01*
X114880117Y-60852440D01*
X114897861Y-60832861D01*
X114917440Y-60815117D01*
X114938663Y-60799377D01*
X114961326Y-60785793D01*
X114985212Y-60774495D01*
X115010091Y-60765594D01*
X115035722Y-60759174D01*
X115061859Y-60755297D01*
X115088250Y-60754000D01*
X116051750Y-60754000D01*
X116078141Y-60755297D01*
X116078141Y-60755297D01*
G37*
D31*
X115570000Y-61292500D03*
D30*
G36*
X116078141Y-62630297D02*
G01*
X116104278Y-62634174D01*
X116129909Y-62640594D01*
X116154788Y-62649495D01*
X116178674Y-62660793D01*
X116201337Y-62674377D01*
X116222560Y-62690117D01*
X116242139Y-62707861D01*
X116259883Y-62727440D01*
X116275623Y-62748663D01*
X116289207Y-62771326D01*
X116300505Y-62795212D01*
X116309406Y-62820091D01*
X116315826Y-62845722D01*
X116319703Y-62871859D01*
X116321000Y-62898250D01*
X116321000Y-63436750D01*
X116319703Y-63463141D01*
X116315826Y-63489278D01*
X116309406Y-63514909D01*
X116300505Y-63539788D01*
X116289207Y-63563674D01*
X116275623Y-63586337D01*
X116259883Y-63607560D01*
X116242139Y-63627139D01*
X116222560Y-63644883D01*
X116201337Y-63660623D01*
X116178674Y-63674207D01*
X116154788Y-63685505D01*
X116129909Y-63694406D01*
X116104278Y-63700826D01*
X116078141Y-63704703D01*
X116051750Y-63706000D01*
X115088250Y-63706000D01*
X115061859Y-63704703D01*
X115035722Y-63700826D01*
X115010091Y-63694406D01*
X114985212Y-63685505D01*
X114961326Y-63674207D01*
X114938663Y-63660623D01*
X114917440Y-63644883D01*
X114897861Y-63627139D01*
X114880117Y-63607560D01*
X114864377Y-63586337D01*
X114850793Y-63563674D01*
X114839495Y-63539788D01*
X114830594Y-63514909D01*
X114824174Y-63489278D01*
X114820297Y-63463141D01*
X114819000Y-63436750D01*
X114819000Y-62898250D01*
X114820297Y-62871859D01*
X114824174Y-62845722D01*
X114830594Y-62820091D01*
X114839495Y-62795212D01*
X114850793Y-62771326D01*
X114864377Y-62748663D01*
X114880117Y-62727440D01*
X114897861Y-62707861D01*
X114917440Y-62690117D01*
X114938663Y-62674377D01*
X114961326Y-62660793D01*
X114985212Y-62649495D01*
X115010091Y-62640594D01*
X115035722Y-62634174D01*
X115061859Y-62630297D01*
X115088250Y-62629000D01*
X116051750Y-62629000D01*
X116078141Y-62630297D01*
X116078141Y-62630297D01*
G37*
D31*
X115570000Y-63167500D03*
D30*
G36*
X111039641Y-117900297D02*
G01*
X111065778Y-117904174D01*
X111091409Y-117910594D01*
X111116288Y-117919495D01*
X111140174Y-117930793D01*
X111162837Y-117944377D01*
X111184060Y-117960117D01*
X111203639Y-117977861D01*
X111221383Y-117997440D01*
X111237123Y-118018663D01*
X111250707Y-118041326D01*
X111262005Y-118065212D01*
X111270906Y-118090091D01*
X111277326Y-118115722D01*
X111281203Y-118141859D01*
X111282500Y-118168250D01*
X111282500Y-119131750D01*
X111281203Y-119158141D01*
X111277326Y-119184278D01*
X111270906Y-119209909D01*
X111262005Y-119234788D01*
X111250707Y-119258674D01*
X111237123Y-119281337D01*
X111221383Y-119302560D01*
X111203639Y-119322139D01*
X111184060Y-119339883D01*
X111162837Y-119355623D01*
X111140174Y-119369207D01*
X111116288Y-119380505D01*
X111091409Y-119389406D01*
X111065778Y-119395826D01*
X111039641Y-119399703D01*
X111013250Y-119401000D01*
X110474750Y-119401000D01*
X110448359Y-119399703D01*
X110422222Y-119395826D01*
X110396591Y-119389406D01*
X110371712Y-119380505D01*
X110347826Y-119369207D01*
X110325163Y-119355623D01*
X110303940Y-119339883D01*
X110284361Y-119322139D01*
X110266617Y-119302560D01*
X110250877Y-119281337D01*
X110237293Y-119258674D01*
X110225995Y-119234788D01*
X110217094Y-119209909D01*
X110210674Y-119184278D01*
X110206797Y-119158141D01*
X110205500Y-119131750D01*
X110205500Y-118168250D01*
X110206797Y-118141859D01*
X110210674Y-118115722D01*
X110217094Y-118090091D01*
X110225995Y-118065212D01*
X110237293Y-118041326D01*
X110250877Y-118018663D01*
X110266617Y-117997440D01*
X110284361Y-117977861D01*
X110303940Y-117960117D01*
X110325163Y-117944377D01*
X110347826Y-117930793D01*
X110371712Y-117919495D01*
X110396591Y-117910594D01*
X110422222Y-117904174D01*
X110448359Y-117900297D01*
X110474750Y-117899000D01*
X111013250Y-117899000D01*
X111039641Y-117900297D01*
X111039641Y-117900297D01*
G37*
D31*
X110744000Y-118650000D03*
D30*
G36*
X112914641Y-117900297D02*
G01*
X112940778Y-117904174D01*
X112966409Y-117910594D01*
X112991288Y-117919495D01*
X113015174Y-117930793D01*
X113037837Y-117944377D01*
X113059060Y-117960117D01*
X113078639Y-117977861D01*
X113096383Y-117997440D01*
X113112123Y-118018663D01*
X113125707Y-118041326D01*
X113137005Y-118065212D01*
X113145906Y-118090091D01*
X113152326Y-118115722D01*
X113156203Y-118141859D01*
X113157500Y-118168250D01*
X113157500Y-119131750D01*
X113156203Y-119158141D01*
X113152326Y-119184278D01*
X113145906Y-119209909D01*
X113137005Y-119234788D01*
X113125707Y-119258674D01*
X113112123Y-119281337D01*
X113096383Y-119302560D01*
X113078639Y-119322139D01*
X113059060Y-119339883D01*
X113037837Y-119355623D01*
X113015174Y-119369207D01*
X112991288Y-119380505D01*
X112966409Y-119389406D01*
X112940778Y-119395826D01*
X112914641Y-119399703D01*
X112888250Y-119401000D01*
X112349750Y-119401000D01*
X112323359Y-119399703D01*
X112297222Y-119395826D01*
X112271591Y-119389406D01*
X112246712Y-119380505D01*
X112222826Y-119369207D01*
X112200163Y-119355623D01*
X112178940Y-119339883D01*
X112159361Y-119322139D01*
X112141617Y-119302560D01*
X112125877Y-119281337D01*
X112112293Y-119258674D01*
X112100995Y-119234788D01*
X112092094Y-119209909D01*
X112085674Y-119184278D01*
X112081797Y-119158141D01*
X112080500Y-119131750D01*
X112080500Y-118168250D01*
X112081797Y-118141859D01*
X112085674Y-118115722D01*
X112092094Y-118090091D01*
X112100995Y-118065212D01*
X112112293Y-118041326D01*
X112125877Y-118018663D01*
X112141617Y-117997440D01*
X112159361Y-117977861D01*
X112178940Y-117960117D01*
X112200163Y-117944377D01*
X112222826Y-117930793D01*
X112246712Y-117919495D01*
X112271591Y-117910594D01*
X112297222Y-117904174D01*
X112323359Y-117900297D01*
X112349750Y-117899000D01*
X112888250Y-117899000D01*
X112914641Y-117900297D01*
X112914641Y-117900297D01*
G37*
D31*
X112619000Y-118650000D03*
D30*
G36*
X121078104Y-60279302D02*
G01*
X121104352Y-60283196D01*
X121130093Y-60289643D01*
X121155078Y-60298583D01*
X121179066Y-60309928D01*
X121201826Y-60323571D01*
X121223140Y-60339378D01*
X121242802Y-60357198D01*
X121260622Y-60376860D01*
X121276429Y-60398174D01*
X121290072Y-60420934D01*
X121301417Y-60444922D01*
X121310357Y-60469907D01*
X121316804Y-60495648D01*
X121320698Y-60521896D01*
X121322000Y-60548400D01*
X121322000Y-61359600D01*
X121320698Y-61386104D01*
X121316804Y-61412352D01*
X121310357Y-61438093D01*
X121301417Y-61463078D01*
X121290072Y-61487066D01*
X121276429Y-61509826D01*
X121260622Y-61531140D01*
X121242802Y-61550802D01*
X121223140Y-61568622D01*
X121201826Y-61584429D01*
X121179066Y-61598072D01*
X121155078Y-61609417D01*
X121130093Y-61618357D01*
X121104352Y-61624804D01*
X121078104Y-61628698D01*
X121051600Y-61630000D01*
X119740400Y-61630000D01*
X119713896Y-61628698D01*
X119687648Y-61624804D01*
X119661907Y-61618357D01*
X119636922Y-61609417D01*
X119612934Y-61598072D01*
X119590174Y-61584429D01*
X119568860Y-61568622D01*
X119549198Y-61550802D01*
X119531378Y-61531140D01*
X119515571Y-61509826D01*
X119501928Y-61487066D01*
X119490583Y-61463078D01*
X119481643Y-61438093D01*
X119475196Y-61412352D01*
X119471302Y-61386104D01*
X119470000Y-61359600D01*
X119470000Y-60548400D01*
X119471302Y-60521896D01*
X119475196Y-60495648D01*
X119481643Y-60469907D01*
X119490583Y-60444922D01*
X119501928Y-60420934D01*
X119515571Y-60398174D01*
X119531378Y-60376860D01*
X119549198Y-60357198D01*
X119568860Y-60339378D01*
X119590174Y-60323571D01*
X119612934Y-60309928D01*
X119636922Y-60298583D01*
X119661907Y-60289643D01*
X119687648Y-60283196D01*
X119713896Y-60279302D01*
X119740400Y-60278000D01*
X121051600Y-60278000D01*
X121078104Y-60279302D01*
X121078104Y-60279302D01*
G37*
D37*
X120396000Y-60954000D03*
D30*
G36*
X121078104Y-63079302D02*
G01*
X121104352Y-63083196D01*
X121130093Y-63089643D01*
X121155078Y-63098583D01*
X121179066Y-63109928D01*
X121201826Y-63123571D01*
X121223140Y-63139378D01*
X121242802Y-63157198D01*
X121260622Y-63176860D01*
X121276429Y-63198174D01*
X121290072Y-63220934D01*
X121301417Y-63244922D01*
X121310357Y-63269907D01*
X121316804Y-63295648D01*
X121320698Y-63321896D01*
X121322000Y-63348400D01*
X121322000Y-64159600D01*
X121320698Y-64186104D01*
X121316804Y-64212352D01*
X121310357Y-64238093D01*
X121301417Y-64263078D01*
X121290072Y-64287066D01*
X121276429Y-64309826D01*
X121260622Y-64331140D01*
X121242802Y-64350802D01*
X121223140Y-64368622D01*
X121201826Y-64384429D01*
X121179066Y-64398072D01*
X121155078Y-64409417D01*
X121130093Y-64418357D01*
X121104352Y-64424804D01*
X121078104Y-64428698D01*
X121051600Y-64430000D01*
X119740400Y-64430000D01*
X119713896Y-64428698D01*
X119687648Y-64424804D01*
X119661907Y-64418357D01*
X119636922Y-64409417D01*
X119612934Y-64398072D01*
X119590174Y-64384429D01*
X119568860Y-64368622D01*
X119549198Y-64350802D01*
X119531378Y-64331140D01*
X119515571Y-64309826D01*
X119501928Y-64287066D01*
X119490583Y-64263078D01*
X119481643Y-64238093D01*
X119475196Y-64212352D01*
X119471302Y-64186104D01*
X119470000Y-64159600D01*
X119470000Y-63348400D01*
X119471302Y-63321896D01*
X119475196Y-63295648D01*
X119481643Y-63269907D01*
X119490583Y-63244922D01*
X119501928Y-63220934D01*
X119515571Y-63198174D01*
X119531378Y-63176860D01*
X119549198Y-63157198D01*
X119568860Y-63139378D01*
X119590174Y-63123571D01*
X119612934Y-63109928D01*
X119636922Y-63098583D01*
X119661907Y-63089643D01*
X119687648Y-63083196D01*
X119713896Y-63079302D01*
X119740400Y-63078000D01*
X121051600Y-63078000D01*
X121078104Y-63079302D01*
X121078104Y-63079302D01*
G37*
D37*
X120396000Y-63754000D03*
D30*
G36*
X101600141Y-113189797D02*
G01*
X101626278Y-113193674D01*
X101651909Y-113200094D01*
X101676788Y-113208995D01*
X101700674Y-113220293D01*
X101723337Y-113233877D01*
X101744560Y-113249617D01*
X101764139Y-113267361D01*
X101781883Y-113286940D01*
X101797623Y-113308163D01*
X101811207Y-113330826D01*
X101822505Y-113354712D01*
X101831406Y-113379591D01*
X101837826Y-113405222D01*
X101841703Y-113431359D01*
X101843000Y-113457750D01*
X101843000Y-113996250D01*
X101841703Y-114022641D01*
X101837826Y-114048778D01*
X101831406Y-114074409D01*
X101822505Y-114099288D01*
X101811207Y-114123174D01*
X101797623Y-114145837D01*
X101781883Y-114167060D01*
X101764139Y-114186639D01*
X101744560Y-114204383D01*
X101723337Y-114220123D01*
X101700674Y-114233707D01*
X101676788Y-114245005D01*
X101651909Y-114253906D01*
X101626278Y-114260326D01*
X101600141Y-114264203D01*
X101573750Y-114265500D01*
X100610250Y-114265500D01*
X100583859Y-114264203D01*
X100557722Y-114260326D01*
X100532091Y-114253906D01*
X100507212Y-114245005D01*
X100483326Y-114233707D01*
X100460663Y-114220123D01*
X100439440Y-114204383D01*
X100419861Y-114186639D01*
X100402117Y-114167060D01*
X100386377Y-114145837D01*
X100372793Y-114123174D01*
X100361495Y-114099288D01*
X100352594Y-114074409D01*
X100346174Y-114048778D01*
X100342297Y-114022641D01*
X100341000Y-113996250D01*
X100341000Y-113457750D01*
X100342297Y-113431359D01*
X100346174Y-113405222D01*
X100352594Y-113379591D01*
X100361495Y-113354712D01*
X100372793Y-113330826D01*
X100386377Y-113308163D01*
X100402117Y-113286940D01*
X100419861Y-113267361D01*
X100439440Y-113249617D01*
X100460663Y-113233877D01*
X100483326Y-113220293D01*
X100507212Y-113208995D01*
X100532091Y-113200094D01*
X100557722Y-113193674D01*
X100583859Y-113189797D01*
X100610250Y-113188500D01*
X101573750Y-113188500D01*
X101600141Y-113189797D01*
X101600141Y-113189797D01*
G37*
D31*
X101092000Y-113727000D03*
D30*
G36*
X101600141Y-115064797D02*
G01*
X101626278Y-115068674D01*
X101651909Y-115075094D01*
X101676788Y-115083995D01*
X101700674Y-115095293D01*
X101723337Y-115108877D01*
X101744560Y-115124617D01*
X101764139Y-115142361D01*
X101781883Y-115161940D01*
X101797623Y-115183163D01*
X101811207Y-115205826D01*
X101822505Y-115229712D01*
X101831406Y-115254591D01*
X101837826Y-115280222D01*
X101841703Y-115306359D01*
X101843000Y-115332750D01*
X101843000Y-115871250D01*
X101841703Y-115897641D01*
X101837826Y-115923778D01*
X101831406Y-115949409D01*
X101822505Y-115974288D01*
X101811207Y-115998174D01*
X101797623Y-116020837D01*
X101781883Y-116042060D01*
X101764139Y-116061639D01*
X101744560Y-116079383D01*
X101723337Y-116095123D01*
X101700674Y-116108707D01*
X101676788Y-116120005D01*
X101651909Y-116128906D01*
X101626278Y-116135326D01*
X101600141Y-116139203D01*
X101573750Y-116140500D01*
X100610250Y-116140500D01*
X100583859Y-116139203D01*
X100557722Y-116135326D01*
X100532091Y-116128906D01*
X100507212Y-116120005D01*
X100483326Y-116108707D01*
X100460663Y-116095123D01*
X100439440Y-116079383D01*
X100419861Y-116061639D01*
X100402117Y-116042060D01*
X100386377Y-116020837D01*
X100372793Y-115998174D01*
X100361495Y-115974288D01*
X100352594Y-115949409D01*
X100346174Y-115923778D01*
X100342297Y-115897641D01*
X100341000Y-115871250D01*
X100341000Y-115332750D01*
X100342297Y-115306359D01*
X100346174Y-115280222D01*
X100352594Y-115254591D01*
X100361495Y-115229712D01*
X100372793Y-115205826D01*
X100386377Y-115183163D01*
X100402117Y-115161940D01*
X100419861Y-115142361D01*
X100439440Y-115124617D01*
X100460663Y-115108877D01*
X100483326Y-115095293D01*
X100507212Y-115083995D01*
X100532091Y-115075094D01*
X100557722Y-115068674D01*
X100583859Y-115064797D01*
X100610250Y-115063500D01*
X101573750Y-115063500D01*
X101600141Y-115064797D01*
X101600141Y-115064797D01*
G37*
D31*
X101092000Y-115602000D03*
D30*
G36*
X117094141Y-124208797D02*
G01*
X117120278Y-124212674D01*
X117145909Y-124219094D01*
X117170788Y-124227995D01*
X117194674Y-124239293D01*
X117217337Y-124252877D01*
X117238560Y-124268617D01*
X117258139Y-124286361D01*
X117275883Y-124305940D01*
X117291623Y-124327163D01*
X117305207Y-124349826D01*
X117316505Y-124373712D01*
X117325406Y-124398591D01*
X117331826Y-124424222D01*
X117335703Y-124450359D01*
X117337000Y-124476750D01*
X117337000Y-125015250D01*
X117335703Y-125041641D01*
X117331826Y-125067778D01*
X117325406Y-125093409D01*
X117316505Y-125118288D01*
X117305207Y-125142174D01*
X117291623Y-125164837D01*
X117275883Y-125186060D01*
X117258139Y-125205639D01*
X117238560Y-125223383D01*
X117217337Y-125239123D01*
X117194674Y-125252707D01*
X117170788Y-125264005D01*
X117145909Y-125272906D01*
X117120278Y-125279326D01*
X117094141Y-125283203D01*
X117067750Y-125284500D01*
X116104250Y-125284500D01*
X116077859Y-125283203D01*
X116051722Y-125279326D01*
X116026091Y-125272906D01*
X116001212Y-125264005D01*
X115977326Y-125252707D01*
X115954663Y-125239123D01*
X115933440Y-125223383D01*
X115913861Y-125205639D01*
X115896117Y-125186060D01*
X115880377Y-125164837D01*
X115866793Y-125142174D01*
X115855495Y-125118288D01*
X115846594Y-125093409D01*
X115840174Y-125067778D01*
X115836297Y-125041641D01*
X115835000Y-125015250D01*
X115835000Y-124476750D01*
X115836297Y-124450359D01*
X115840174Y-124424222D01*
X115846594Y-124398591D01*
X115855495Y-124373712D01*
X115866793Y-124349826D01*
X115880377Y-124327163D01*
X115896117Y-124305940D01*
X115913861Y-124286361D01*
X115933440Y-124268617D01*
X115954663Y-124252877D01*
X115977326Y-124239293D01*
X116001212Y-124227995D01*
X116026091Y-124219094D01*
X116051722Y-124212674D01*
X116077859Y-124208797D01*
X116104250Y-124207500D01*
X117067750Y-124207500D01*
X117094141Y-124208797D01*
X117094141Y-124208797D01*
G37*
D31*
X116586000Y-124746000D03*
D30*
G36*
X117094141Y-122333797D02*
G01*
X117120278Y-122337674D01*
X117145909Y-122344094D01*
X117170788Y-122352995D01*
X117194674Y-122364293D01*
X117217337Y-122377877D01*
X117238560Y-122393617D01*
X117258139Y-122411361D01*
X117275883Y-122430940D01*
X117291623Y-122452163D01*
X117305207Y-122474826D01*
X117316505Y-122498712D01*
X117325406Y-122523591D01*
X117331826Y-122549222D01*
X117335703Y-122575359D01*
X117337000Y-122601750D01*
X117337000Y-123140250D01*
X117335703Y-123166641D01*
X117331826Y-123192778D01*
X117325406Y-123218409D01*
X117316505Y-123243288D01*
X117305207Y-123267174D01*
X117291623Y-123289837D01*
X117275883Y-123311060D01*
X117258139Y-123330639D01*
X117238560Y-123348383D01*
X117217337Y-123364123D01*
X117194674Y-123377707D01*
X117170788Y-123389005D01*
X117145909Y-123397906D01*
X117120278Y-123404326D01*
X117094141Y-123408203D01*
X117067750Y-123409500D01*
X116104250Y-123409500D01*
X116077859Y-123408203D01*
X116051722Y-123404326D01*
X116026091Y-123397906D01*
X116001212Y-123389005D01*
X115977326Y-123377707D01*
X115954663Y-123364123D01*
X115933440Y-123348383D01*
X115913861Y-123330639D01*
X115896117Y-123311060D01*
X115880377Y-123289837D01*
X115866793Y-123267174D01*
X115855495Y-123243288D01*
X115846594Y-123218409D01*
X115840174Y-123192778D01*
X115836297Y-123166641D01*
X115835000Y-123140250D01*
X115835000Y-122601750D01*
X115836297Y-122575359D01*
X115840174Y-122549222D01*
X115846594Y-122523591D01*
X115855495Y-122498712D01*
X115866793Y-122474826D01*
X115880377Y-122452163D01*
X115896117Y-122430940D01*
X115913861Y-122411361D01*
X115933440Y-122393617D01*
X115954663Y-122377877D01*
X115977326Y-122364293D01*
X116001212Y-122352995D01*
X116026091Y-122344094D01*
X116051722Y-122337674D01*
X116077859Y-122333797D01*
X116104250Y-122332500D01*
X117067750Y-122332500D01*
X117094141Y-122333797D01*
X117094141Y-122333797D01*
G37*
D31*
X116586000Y-122871000D03*
D35*
X138176000Y-88648000D03*
X138176000Y-91948000D03*
X138176000Y-69088000D03*
X138176000Y-72388000D03*
X135636000Y-88648000D03*
X135636000Y-91948000D03*
X135636000Y-69090000D03*
X135636000Y-72390000D03*
X133350000Y-107442000D03*
X133350000Y-110742000D03*
X133096000Y-88648000D03*
X133096000Y-91948000D03*
X133096000Y-69090000D03*
X133096000Y-72390000D03*
X130810000Y-107442000D03*
X130810000Y-110742000D03*
X130556000Y-88648000D03*
X130556000Y-91948000D03*
X130556000Y-69090000D03*
X130556000Y-72390000D03*
X125476000Y-88648000D03*
X125476000Y-91948000D03*
X128016000Y-69090000D03*
X128016000Y-72390000D03*
X128016000Y-88648000D03*
X128016000Y-91948000D03*
X125476000Y-69090000D03*
X125476000Y-72390000D03*
D13*
X94935521Y-102401723D03*
X99935521Y-104501724D03*
D14*
X94935521Y-108301723D03*
D15*
X89660521Y-108301723D03*
X100210521Y-108301723D03*
D16*
X97460521Y-103451723D03*
D17*
X97440750Y-103741739D02*
X97480292Y-103161707D01*
D16*
X91785521Y-105026723D03*
D17*
X91130526Y-105756727D02*
X92440516Y-104296719D01*
D18*
X94920521Y-110106723D03*
D19*
X93020521Y-109206723D03*
D20*
X94920521Y-107406723D03*
X94920521Y-111006723D03*
D19*
X97220521Y-109206723D03*
X96825521Y-109205883D03*
X92620521Y-109206723D03*
D21*
X91506521Y-110333723D03*
D38*
X103124000Y-49784000D03*
D39*
X108124000Y-58184000D03*
X111224000Y-52984000D03*
X103124000Y-59084000D03*
D40*
X103124000Y-54584000D03*
X108124000Y-54584000D03*
D13*
X133032500Y-56330000D03*
X138032500Y-58430001D03*
D14*
X133032500Y-62230000D03*
D15*
X127757500Y-62230000D03*
X138307500Y-62230000D03*
D16*
X135557500Y-57380000D03*
D17*
X135537729Y-57670016D02*
X135577271Y-57089984D01*
D16*
X129882500Y-58955000D03*
D17*
X129227505Y-59685004D02*
X130537495Y-58224996D01*
D18*
X133017500Y-64035000D03*
D19*
X131117500Y-63135000D03*
D20*
X133017500Y-61335000D03*
X133017500Y-64935000D03*
D19*
X135317500Y-63135000D03*
X134922500Y-63134160D03*
X130717500Y-63135000D03*
D21*
X129603500Y-64262000D03*
X98251447Y-137326790D03*
D22*
X97467095Y-138703713D03*
D23*
X97932969Y-140442379D02*
X97001221Y-136965047D01*
D22*
X93405594Y-139792859D03*
D23*
X93871468Y-141531525D02*
X92939720Y-138054193D01*
D22*
X93023836Y-139894281D03*
D23*
X93489710Y-141632947D02*
X92557962Y-138155615D01*
D22*
X94779591Y-137560330D03*
D23*
X97001220Y-136965046D02*
X92557962Y-138155614D01*
D22*
X95711340Y-141037663D03*
D23*
X97932969Y-140442379D02*
X93489711Y-141632947D01*
D22*
X97080725Y-138807241D03*
D23*
X97546599Y-140545907D02*
X96614851Y-137068575D01*
D24*
X95012529Y-138429664D03*
D25*
X96751195Y-137963790D02*
X93273863Y-138895538D01*
D16*
X99355507Y-142525169D03*
D17*
X99799245Y-141650514D02*
X98911769Y-143399824D01*
D16*
X94281518Y-145515300D03*
D17*
X94225554Y-145230049D02*
X94337482Y-145800551D01*
D26*
X90369949Y-141542312D03*
D27*
X90575208Y-141487313D02*
X90164690Y-141597311D01*
D26*
X100560467Y-138811772D03*
D27*
X100765726Y-138756773D02*
X100355208Y-138866771D01*
D14*
X95465208Y-140177042D03*
D13*
X91619091Y-145141654D03*
X96992240Y-145876004D03*
X190182500Y-64267500D03*
X195182500Y-66367501D03*
D14*
X190182500Y-70167500D03*
D15*
X184907500Y-70167500D03*
X195457500Y-70167500D03*
D16*
X192707500Y-65317500D03*
D17*
X192687729Y-65607516D02*
X192727271Y-65027484D01*
D16*
X187032500Y-66892500D03*
D17*
X186377505Y-67622504D02*
X187687495Y-66162496D01*
D18*
X190167500Y-71972500D03*
D19*
X188267500Y-71072500D03*
D20*
X190167500Y-69272500D03*
X190167500Y-72872500D03*
D19*
X192467500Y-71072500D03*
X192072500Y-71071660D03*
X187867500Y-71072500D03*
D21*
X186753500Y-72199500D03*
D13*
X171132500Y-105542500D03*
X176132500Y-107642501D03*
D14*
X171132500Y-111442500D03*
D15*
X165857500Y-111442500D03*
X176407500Y-111442500D03*
D16*
X173657500Y-106592500D03*
D17*
X173637729Y-106882516D02*
X173677271Y-106302484D01*
D16*
X167982500Y-108167500D03*
D17*
X167327505Y-108897504D02*
X168637495Y-107437496D01*
D18*
X171117500Y-113247500D03*
D19*
X169217500Y-112347500D03*
D20*
X171117500Y-110547500D03*
X171117500Y-114147500D03*
D19*
X173417500Y-112347500D03*
X173022500Y-112346660D03*
X168817500Y-112347500D03*
D21*
X167703500Y-113474500D03*
D13*
X171132500Y-86492500D03*
X176132500Y-88592501D03*
D14*
X171132500Y-92392500D03*
D15*
X165857500Y-92392500D03*
X176407500Y-92392500D03*
D16*
X173657500Y-87542500D03*
D17*
X173637729Y-87832516D02*
X173677271Y-87252484D01*
D16*
X167982500Y-89117500D03*
D17*
X167327505Y-89847504D02*
X168637495Y-88387496D01*
D18*
X171117500Y-94197500D03*
D19*
X169217500Y-93297500D03*
D20*
X171117500Y-91497500D03*
X171117500Y-95097500D03*
D19*
X173417500Y-93297500D03*
X173022500Y-93296660D03*
X168817500Y-93297500D03*
D21*
X167703500Y-94424500D03*
D13*
X171132500Y-67442500D03*
X176132500Y-69542501D03*
D14*
X171132500Y-73342500D03*
D15*
X165857500Y-73342500D03*
X176407500Y-73342500D03*
D16*
X173657500Y-68492500D03*
D17*
X173637729Y-68782516D02*
X173677271Y-68202484D01*
D16*
X167982500Y-70067500D03*
D17*
X167327505Y-70797504D02*
X168637495Y-69337496D01*
D18*
X171117500Y-75147500D03*
D19*
X169217500Y-74247500D03*
D20*
X171117500Y-72447500D03*
X171117500Y-76047500D03*
D19*
X173417500Y-74247500D03*
X173022500Y-74246660D03*
X168817500Y-74247500D03*
D21*
X167703500Y-75374500D03*
D13*
X152082500Y-118242500D03*
X157082500Y-120342501D03*
D14*
X152082500Y-124142500D03*
D15*
X146807500Y-124142500D03*
X157357500Y-124142500D03*
D16*
X154607500Y-119292500D03*
D17*
X154587729Y-119582516D02*
X154627271Y-119002484D01*
D16*
X148932500Y-120867500D03*
D17*
X148277505Y-121597504D02*
X149587495Y-120137496D01*
D18*
X152067500Y-125947500D03*
D19*
X150167500Y-125047500D03*
D20*
X152067500Y-123247500D03*
X152067500Y-126847500D03*
D19*
X154367500Y-125047500D03*
X153972500Y-125046660D03*
X149767500Y-125047500D03*
D21*
X148653500Y-126174500D03*
D13*
X152082500Y-99192500D03*
X157082500Y-101292501D03*
D14*
X152082500Y-105092500D03*
D15*
X146807500Y-105092500D03*
X157357500Y-105092500D03*
D16*
X154607500Y-100242500D03*
D17*
X154587729Y-100532516D02*
X154627271Y-99952484D01*
D16*
X148932500Y-101817500D03*
D17*
X148277505Y-102547504D02*
X149587495Y-101087496D01*
D18*
X152067500Y-106897500D03*
D19*
X150167500Y-105997500D03*
D20*
X152067500Y-104197500D03*
X152067500Y-107797500D03*
D19*
X154367500Y-105997500D03*
X153972500Y-105996660D03*
X149767500Y-105997500D03*
D21*
X148653500Y-107124500D03*
D13*
X152082500Y-80142500D03*
X157082500Y-82242501D03*
D14*
X152082500Y-86042500D03*
D15*
X146807500Y-86042500D03*
X157357500Y-86042500D03*
D16*
X154607500Y-81192500D03*
D17*
X154587729Y-81482516D02*
X154627271Y-80902484D01*
D16*
X148932500Y-82767500D03*
D17*
X148277505Y-83497504D02*
X149587495Y-82037496D01*
D18*
X152067500Y-87847500D03*
D19*
X150167500Y-86947500D03*
D20*
X152067500Y-85147500D03*
X152067500Y-88747500D03*
D19*
X154367500Y-86947500D03*
X153972500Y-86946660D03*
X149767500Y-86947500D03*
D21*
X148653500Y-88074500D03*
D13*
X152082500Y-61092500D03*
X157082500Y-63192501D03*
D14*
X152082500Y-66992500D03*
D15*
X146807500Y-66992500D03*
X157357500Y-66992500D03*
D16*
X154607500Y-62142500D03*
D17*
X154587729Y-62432516D02*
X154627271Y-61852484D01*
D16*
X148932500Y-63717500D03*
D17*
X148277505Y-64447504D02*
X149587495Y-62987496D01*
D18*
X152067500Y-68797500D03*
D19*
X150167500Y-67897500D03*
D20*
X152067500Y-66097500D03*
X152067500Y-69697500D03*
D19*
X154367500Y-67897500D03*
X153972500Y-67896660D03*
X149767500Y-67897500D03*
D21*
X148653500Y-69024500D03*
D13*
X133032500Y-113480000D03*
X138032500Y-115580001D03*
D14*
X133032500Y-119380000D03*
D15*
X127757500Y-119380000D03*
X138307500Y-119380000D03*
D16*
X135557500Y-114530000D03*
D17*
X135537729Y-114820016D02*
X135577271Y-114239984D01*
D16*
X129882500Y-116105000D03*
D17*
X129227505Y-116835004D02*
X130537495Y-115374996D01*
D18*
X133017500Y-121185000D03*
D19*
X131117500Y-120285000D03*
D20*
X133017500Y-118485000D03*
X133017500Y-122085000D03*
D19*
X135317500Y-120285000D03*
X134922500Y-120284160D03*
X130717500Y-120285000D03*
D21*
X129603500Y-121412000D03*
D13*
X133032500Y-94430000D03*
X138032500Y-96530001D03*
D14*
X133032500Y-100330000D03*
D15*
X127757500Y-100330000D03*
X138307500Y-100330000D03*
D16*
X135557500Y-95480000D03*
D17*
X135537729Y-95770016D02*
X135577271Y-95189984D01*
D16*
X129882500Y-97055000D03*
D17*
X129227505Y-97785004D02*
X130537495Y-96324996D01*
D18*
X133017500Y-102135000D03*
D19*
X131117500Y-101235000D03*
D20*
X133017500Y-99435000D03*
X133017500Y-103035000D03*
D19*
X135317500Y-101235000D03*
X134922500Y-101234160D03*
X130717500Y-101235000D03*
D21*
X129603500Y-102362000D03*
D13*
X133032500Y-75380000D03*
X138032500Y-77480001D03*
D14*
X133032500Y-81280000D03*
D15*
X127757500Y-81280000D03*
X138307500Y-81280000D03*
D16*
X135557500Y-76430000D03*
D17*
X135537729Y-76720016D02*
X135577271Y-76139984D01*
D16*
X129882500Y-78005000D03*
D17*
X129227505Y-78735004D02*
X130537495Y-77274996D01*
D18*
X133017500Y-83085000D03*
D19*
X131117500Y-82185000D03*
D20*
X133017500Y-80385000D03*
X133017500Y-83985000D03*
D19*
X135317500Y-82185000D03*
X134922500Y-82184160D03*
X130717500Y-82185000D03*
D21*
X129603500Y-83312000D03*
D13*
X113982500Y-107130000D03*
X118982500Y-109230001D03*
D14*
X113982500Y-113030000D03*
D15*
X108707500Y-113030000D03*
X119257500Y-113030000D03*
D16*
X116507500Y-108180000D03*
D17*
X116487729Y-108470016D02*
X116527271Y-107889984D01*
D16*
X110832500Y-109755000D03*
D17*
X110177505Y-110485004D02*
X111487495Y-109024996D01*
D18*
X113967500Y-114835000D03*
D19*
X112067500Y-113935000D03*
D20*
X113967500Y-112135000D03*
X113967500Y-115735000D03*
D19*
X116267500Y-113935000D03*
X115872500Y-113934160D03*
X111667500Y-113935000D03*
D21*
X110553500Y-115062000D03*
D13*
X113982500Y-69030000D03*
X118982500Y-71130001D03*
D14*
X113982500Y-74930000D03*
D15*
X108707500Y-74930000D03*
X119257500Y-74930000D03*
D16*
X116507500Y-70080000D03*
D17*
X116487729Y-70370016D02*
X116527271Y-69789984D01*
D16*
X110832500Y-71655000D03*
D17*
X110177505Y-72385004D02*
X111487495Y-70924996D01*
D18*
X113967500Y-76735000D03*
D19*
X112067500Y-75835000D03*
D20*
X113967500Y-74035000D03*
X113967500Y-77635000D03*
D19*
X116267500Y-75835000D03*
X115872500Y-75834160D03*
X111667500Y-75835000D03*
D21*
X110553500Y-76962000D03*
D13*
X94932500Y-83317500D03*
X99932500Y-85417501D03*
D14*
X94932500Y-89217500D03*
D15*
X89657500Y-89217500D03*
X100207500Y-89217500D03*
D16*
X97457500Y-84367500D03*
D17*
X97437729Y-84657516D02*
X97477271Y-84077484D01*
D16*
X91782500Y-85942500D03*
D17*
X91127505Y-86672504D02*
X92437495Y-85212496D01*
D18*
X94917500Y-91022500D03*
D19*
X93017500Y-90122500D03*
D20*
X94917500Y-88322500D03*
X94917500Y-91922500D03*
D19*
X97217500Y-90122500D03*
X96822500Y-90121660D03*
X92617500Y-90122500D03*
D21*
X91503500Y-91249500D03*
D13*
X94932500Y-64267500D03*
X99932500Y-66367501D03*
D14*
X94932500Y-70167500D03*
D15*
X89657500Y-70167500D03*
X100207500Y-70167500D03*
D16*
X97457500Y-65317500D03*
D17*
X97437729Y-65607516D02*
X97477271Y-65027484D01*
D16*
X91782500Y-66892500D03*
D17*
X91127505Y-67622504D02*
X92437495Y-66162496D01*
D18*
X94917500Y-71972500D03*
D19*
X93017500Y-71072500D03*
D20*
X94917500Y-69272500D03*
X94917500Y-72872500D03*
D19*
X97217500Y-71072500D03*
X96822500Y-71071660D03*
X92617500Y-71072500D03*
D21*
X91503500Y-72199500D03*
M02*
